<svg xmlns="http://www.w3.org/2000/svg" fill="none" viewBox="0 0 30 30" id="Book-Flip-Page--Streamline-Freehand" height="30" width="30">
  <desc>
    Book Flip Page Streamline Icon: https://streamlinehq.com
  </desc>
  <path fill="#010101" d="M29.964125 18.245c0.121625 -3.642875 -0.066375 -7.2894749999999995 -0.561875 -10.900525000000002 0.019624999999999997 -0.257675 0.019624999999999997 -0.5164624999999999 0 -0.77415 -0.17475000000000002 -0.836575 -2.6845000000000003 -1.248625 -3.7458750000000003 -1.3485125 -0.0975 -0.0106 -0.19525 0.0174625 -0.27225 0.0781625 -0.077125 0.0607 -0.12725 0.1492 -0.13974999999999999 0.2464875 -0.062375 0.8240875000000001 1.248625 0 3.2588749999999997 1.248625 -0.024875 0.887425 0.046375 1.77495 0.21225 2.647075 0.29975 2.796925 0.137375 4.7323375 0 12.1615875 -1.483625 -0.32287499999999997 -3.0033749999999997 -0.44887499999999997 -4.5200000000000005 -0.37462500000000004 -2.82775 -0.019624999999999997 -5.589625 0.854375 -7.891249999999999 2.49725 0.849 -3.29625 2.9217500000000003 -4.182875 5.843500000000001 -5.231624999999999 0.33099999999999996 -0.10375000000000001 0.6772499999999999 -0.15025 1.023875 -0.137375 0.06775 0.153125 0.18724999999999997 0.277625 0.337625 0.351375 0.150375 0.07375 0.322 0.092125 0.4845 0.05175 0.162625 -0.04025 0.30575 -0.1365 0.40437500000000004 -0.27199999999999996 0.09849999999999999 -0.135375 0.14625000000000002 -0.30125 0.1345 -0.46825 -0.474375 -12.623625 0 -14.396675000000002 -0.19974999999999998 -15.570375 -0.19974999999999998 -1.1737125 -1.048875 -1.3110612499999998 -2.235 -1.4858675 -1.457125 -0.1527975 -2.9285 0.08739875 -4.261375 0.69563 -1.33275 0.608225 -2.4783749999999998 1.5623 -3.3177499999999998 2.7630624999999998 -0.1 0.2122625 -0.68675 1.5108374999999998 -0.73675 1.6481875000000001 -0.852125 -0.6509874999999999 -1.8367125 -1.10705 -2.8843124999999996 -1.3360375 -2.689625 -0.5967625 -5.5055 -0.1505 -7.878825000000001 1.248625 -0.46254999999999996 0.300475 -0.85855 0.6926375 -1.1635125 1.152225 -0.30496249999999997 0.4596 -0.512425 0.9768749999999999 -0.60952875 1.5198375C0.14703125 13.100624999999999 -0.51474 14.411750000000001 0.5091325 23.863750000000003c0 0.38712499999999994 0 0.9865 0.37458749999999996 1.3485 0.083955 0.07012499999999999 0.18223125 0.121 0.2879275 0.149 0.1057025 0.028 0.2162525 0.032625 0.32390250000000004 0.013375v0.961375c0.1623125 2.247625 3.146525 0.874125 6.4304125 0.599375 2.722 -0.21225 3.0216749999999997 0.37462500000000004 5.4315375 1.773125 0.992 0.373 2.067 0.46787500000000004 3.109 0.274625 0.854125 -0.12825 1.664 -0.4625 2.36 -0.973875 8.228375 -6.0558749999999995 7.94125 1.023875 9.864125 -4.058125 0.089 -0.232125 0.143625 -0.476125 0.16225 -0.724125 0.096875 0.063625 0.20875000000000002 0.10075 0.3245 0.10749999999999998 0.11575 0.006874999999999999 0.23125 -0.016875 0.33487500000000003 -0.06875 0.103625 -0.05175 0.191875 -0.12987500000000002 0.25587499999999996 -0.226625 0.064 -0.09662499999999999 0.10149999999999999 -0.20837499999999998 0.108625 -0.324125 0.11475 -1.487125 0.144 -2.9795 0.08737500000000001 -4.47ZM14.830874999999999 6.73265c3.7458750000000003 -7.04224 8.39075 -3.94565 8.5905 -3.7458750000000003 0.09987499999999999 0.37458749999999996 -0.46199999999999997 8.8402625 -0.487 9.61435l0.11237499999999999 4.307875c-1.3851250000000002 0.1485 -2.723875 0.58525 -3.930125 1.281875 -1.206375 0.69675 -2.253625 1.638125 -3.074625 2.763625 -0.62425 1.07375 -0.41200000000000003 1.1861249999999999 -0.524375 0.4745 -0.025 -0.124875 -0.73675 -14.596462500000001 -0.68675 -14.69635ZM1.3457125 12.151675c0.3621 -1.3859625 0.8116 -4.9070875 2.0102875 -5.30665 3.49615 -1.1737 6.9923 -1.4608875 10.238750000000001 0.3121625 0.38525 1.0718874999999999 0.5589999999999999 2.208275 0.511875 3.3463125 0 2.5596249999999996 0.075 10.288625 0.37462500000000004 12.611125000000001 -1.9876625 -0.9063749999999999 -4.16015 -1.3339999999999999 -6.343025 -1.248625 -1.7266500000000002 0.153375 -3.4151124999999998 0.596625 -4.9945 1.311 -0.14982499999999999 0 -0.8490625 0.71175 -1.3485125 0.9865 0 -0.174875 -0.13735 -0.37462500000000004 -0.1498375 -0.4745 -0.39955375000000004 -3.39625 -0.9864075 -7.866375 -0.2996625 -11.537325000000001ZM27.017375 24.425625000000004c-3.5959999999999996 -1.435875 -6.455375 0.599375 -9.0025 2.4223749999999997 -0.544375 0.36424999999999996 -1.1576250000000001 0.613125 -1.801875 0.73125 -0.64425 0.11812500000000001 -1.305875 0.10300000000000001 -1.944 -0.0445 -4.8322 -3.42125 -6.7051375 -1.7854999999999999 -11.075325 -1.12375 -0.22474999999999998 0 -0.3995625 0.11237499999999999 -0.5119375 0 -0.11237499999999999 -0.11237499999999999 -0.2372375 -0.836625 -0.524425 -1.248625 0.5369125 -0.27475 1.248625 -0.71175 1.4234375 -0.761625 1.835475 -0.5743750000000001 3.9082 -1.923 8.4032375 -0.674375 3.3213874999999997 0.8616250000000001 3.1465125 2.31 4.2702625 1.698125 1.67325 -0.8989999999999999 4.083 -3.5959999999999996 11.624749999999999 -2.6845000000000003 -0.075625 0.091 -0.115625 0.206375 -0.11237499999999999 0.324625 -0.73675 1.3236249999999998 -0.69925 1.236125 -0.7492500000000001 1.361Z" stroke-width="1.25"></path>
  <path fill="#222222" d="M4.5546750000000005 11.240237500000001c1.248625 -0.1748125 1.1487375 -0.7866375000000001 2.796925 -0.7866375000000001 0.91885 0.066675 1.8253125000000001 0.25132499999999997 2.697025 0.5494 0.2372375 -0.0874125 0.41204999999999997 -0.1873 0.41204999999999997 -0.4245375 0 -0.5369125 -0.7491749999999999 -1.0863 -1.8854250000000001 -1.248625 -3.2838875 -0.6118250000000001 -3.5960375 0.9614375 -4.22035 1.248625 -0.0570375 0.046975 -0.09891250000000001 0.109775 -0.12035000000000001 0.1804875 -0.021437499999999998 0.0707125 -0.021475 0.1461875 -0.000125 0.216925 0.0213625 0.07073750000000001 0.0631625 0.133575 0.12013750000000001 0.1806125 0.056987499999999996 0.04705 0.12661250000000002 0.07618749999999999 0.20011250000000003 0.08375Z" stroke-width="1.25"></path>
  <path fill="#222222" d="M4.5546750000000005 15.647874999999999c1.248625 -0.174875 1.1487375 -0.7866249999999999 2.7969125 -0.7866249999999999 0.9188625 0.066625 1.8253125000000001 0.25125000000000003 2.6970375000000004 0.549375 0.2372375 -0.074875 0.41203749999999995 -0.18724999999999997 0.41203749999999995 -0.4245 0 -0.5369999999999999 -0.7491749999999999 -1.073875 -1.8854125 -1.248625 -3.2838875 -0.611875 -3.5960375 0.948875 -4.22035 1.248625 -0.061375 -0.0063750000000000005 -0.1233625 0.0026249999999999997 -0.18045 0.026 -0.0570875 0.023375 -0.10751250000000001 0.0605 -0.14678750000000002 0.108125 -0.039275 0.047625 -0.0661875 0.104125 -0.07835 0.16462500000000002 -0.012175 0.0605 -0.0092 0.123 0.008625 0.18212499999999998 0.0178375 0.059 0.049975000000000006 0.11275 0.09357499999999999 0.156375 0.0436125 0.043750000000000004 0.0973125 0.075875 0.15636250000000002 0.093875 0.0590375 0.017875000000000002 0.12160000000000001 0.020874999999999998 0.1821 0.00875s0.11707499999999998 -0.038875 0.16469999999999999 -0.078125Z" stroke-width="1.25"></path>
  <path fill="#222222" d="M4.554875 20.105375c1.248625 -0.17475000000000002 1.1487375 -0.7866249999999999 2.796925 -0.7866249999999999 0.917875 0.073625 1.823475 0.258125 2.697025 0.549375 0.2372375 -0.074875 0.41204999999999997 -0.18724999999999997 0.41204999999999997 -0.41200000000000003 0 -0.549375 -0.7491749999999999 -1.0863749999999999 -1.8854250000000001 -1.248625 -3.2838875 -0.611875 -3.5960375 0.961375 -4.22035 1.248625 -0.062362499999999994 -0.008625 -0.12588749999999999 -0.0013750000000000001 -0.1847 0.021124999999999998 -0.0588 0.0225 -0.111 0.059375 -0.151775 0.107375 -0.040775000000000006 0.047875 -0.0688 0.105375 -0.08148749999999999 0.16699999999999998 -0.012687499999999999 0.06175 -0.0096375 0.1255 0.008875000000000001 0.18575000000000003 0.0185125 0.060125 0.051887499999999996 0.114625 0.0970375 0.1585 0.0451625 0.043875 0.10064999999999999 0.075625 0.161325 0.09237499999999998 0.060687500000000005 0.01675 0.1246125 0.018 0.185875 0.0035 0.06125 -0.014499999999999999 0.117875 -0.04425 0.16462500000000002 -0.086375Z" stroke-width="1.25"></path>
</svg>