<svg xmlns="http://www.w3.org/2000/svg" fill="none" viewBox="0 0 30 30" id="Business-Management-Agreement--Streamline-Freehand" height="30" width="30">
  <desc>
    Business Management Agreement Streamline Icon: https://streamlinehq.com
  </desc>
  <path fill="#010101" fill-rule="evenodd" d="M9.987275 24.575874999999996c-0.1626 -0.30575 -0.3601625 -0.591625 -0.588725 -0.8518749999999999 -0.316575 -0.32725 -0.6696000000000001 -0.6172500000000001 -1.0521875 -0.86425 0.4258625 -0.43999999999999995 0.7524375 -0.96625 0.9577125 -1.5431249999999999 0.2052625 -0.577 0.28447500000000003 -1.191125 0.2322625 -1.80125 -0.006625 -1.044375 -0.426975 -2.043375 -1.168925 -2.778375 -0.74195 -0.734875 -1.7449875000000001 -1.145625 -2.7893 -1.1423750000000001 -1.1169875 -0.027125 -2.19995 0.385625 -3.015375 1.1495 -0.8154250000000001 0.763875 -1.298 1.817625 -1.34367125 2.934 -0.02005625 0.703375 0.16458375 1.3973749999999998 0.53148375 1.9977500000000001 0.3669 0.600375 0.9002749999999999 1.08125 1.5353125 1.38425 -0.5264 0.27825 -1.0254625000000002 0.605375 -1.4906 0.9771249999999999 -0.44622500000000004 0.384625 -0.83438875 0.83175 -1.1523925 1.32775 -0.28675 0.43237499999999995 -0.48335375 0.918 -0.5780529999999999 1.428125 -0.09469887499999999 0.510125 -0.085546875 1.034 0.026908625000000002 1.5405 -0.00010725 0.054875 0.011029375 0.109125 0.03272125 0.159375 0.021691875 0.050375 0.053478125 0.09575 0.093394375 0.13325 0.039915000000000006 0.037625 0.08711250000000001 0.066625 0.1386725 0.08524999999999999 0.05156125 0.018500000000000003 0.10638875 0.026375000000000003 0.16109625 0.023 0.10526374999999999 -0.015625 0.20046874999999997 -0.071125 0.2657975 -0.155125 0.06532874999999999 -0.08399999999999999 0.09575 -0.19 0.08493125000000001 -0.295875 -0.00580125 -0.581625 0.169285 -1.150625 0.50103625 -1.628375 0.32281249999999995 -0.497125 0.691875 -0.9626250000000001 1.1022875 -1.3903750000000001 0.613775 -0.6763750000000001 1.2526000000000002 -1.3527500000000001 1.7787 -1.8663750000000001 0.3814625 0.09537500000000002 0.77195 0.149875 1.1649125 0.162875 0.08323749999999999 -0.015625 0.15837500000000002 -0.059875 0.2124375 -0.125125 0.0540625 -0.065125 0.0836625 -0.14725 0.0836625 -0.231875 0 -0.08474999999999999 -0.0296 -0.16674999999999998 -0.0836625 -0.231875 -0.0540625 -0.06525 -0.12919999999999998 -0.1095 -0.2124375 -0.125125 -2.2171 -0.2255 -3.1816 -1.628375 -3.0688625000000003 -3.119 0.0855375 -0.7897500000000001 0.474 -1.515625 1.083725 -2.0248749999999998 0.6097125 -0.50925 1.3931499999999999 -0.76225 2.1855625 -0.70575 0.723325 -0.013500000000000002 1.4227 0.25925 1.9458624999999998 0.7589999999999999 0.5231625 0.499625 0.8277374999999999 1.185875 0.8474375000000001 1.9089999999999998 0.149125 0.7335 0.0042875 1.496375 -0.4033375 2.1241250000000003 -0.4076125 0.627875 -1.0454375 1.0706250000000002 -1.7761874999999998 1.232875 -0.10755 0.012624999999999999 -0.20584999999999998 0.066875 -0.2737875 0.15125 -0.067925 0.08425 -0.10005 0.191875 -0.089475 0.299625 0.0183375 0.104 0.074625 0.19737500000000002 0.15795 0.26225 0.0833125 0.06475 0.187725 0.096375 0.29298749999999996 0.0885 0.4368375 -0.048375 0.8612375 -0.17575000000000002 1.2526000000000002 -0.37575 0.299525 0.35325 0.5756875 0.725625 0.8267249999999999 1.1147500000000001 0.1503125 0.2255 0.2880875 0.4635 0.41335 0.6890000000000001 0.1252625 0.2255 0.275575 0.4635 0.4008375 0.7015 0.30838750000000004 0.591625 0.5681125 1.2075 0.7766125 1.84125 0.024025 0.10325000000000001 0.08682499999999999 0.19337500000000002 0.175425 0.25175 0.0885875 0.05825 0.19619999999999999 0.08024999999999999 0.3005625 0.061375 0.0527625 -0.00875 0.10314999999999999 -0.028375 0.147975 -0.057499999999999996 0.0448375 -0.02925 0.0831625 -0.067375 0.11256250000000001 -0.112 0.0294 -0.04475 0.049249999999999995 -0.095 0.058300000000000005 -0.14775 0.009062500000000001 -0.052750000000000005 0.007125 -0.10675000000000001 -0.0056875 -0.15875 -0.042300000000000004 -0.7301249999999999 -0.1683875 -1.453 -0.37577499999999997 -2.154375 -0.11161249999999999 -0.312 -0.24989999999999998 -0.61375 -0.41336249999999997 -0.901875Z" clip-rule="evenodd" stroke-width="1.25"></path>
  <path fill="#010101" fill-rule="evenodd" d="M29.640749999999997 25.47775c-0.1035 -0.311125 -0.23349999999999999 -0.6128750000000001 -0.38825 -0.901875 -0.16199999999999998 -0.28775 -0.355125 -0.5565 -0.57625 -0.80175 -0.31662500000000005 -0.32725 -0.6696249999999999 -0.6172500000000001 -1.052125 -0.86425 0.43700000000000006 -0.4345 0.77525 -0.9582499999999999 0.991375 -1.5354999999999999 0.216125 -0.577125 0.30525 -1.194125 0.261125 -1.808875 -0.006625 -1.044375 -0.426875 -2.043375 -1.168875 -2.778375 -0.742 -0.734875 -1.7449999999999999 -1.145625 -2.78925 -1.1423750000000001 -1.113 -0.03425 -2.195125 0.36874999999999997 -3.014625 1.122625 -0.8194999999999999 0.754 -1.3111249999999999 1.798875 -1.3695 2.9107499999999997 -0.031125 0.6945 0.13924999999999998 1.38325 0.49024999999999996 1.98325 0.35112499999999996 0.6 0.868125 1.08575 1.4888750000000002 1.3988749999999999 -0.528125 0.27525 -1.0274999999999999 0.6025 -1.4906249999999999 0.977 -0.44949999999999996 0.38125 -0.838125 0.829 -1.1523750000000001 1.32775 -0.28675 0.43237499999999995 -0.483375 0.9181250000000001 -0.578125 1.428125 -0.094625 0.510125 -0.0855 1.034 0.027000000000000003 1.5405 0.02425 0.09599999999999999 0.083125 0.1795 0.165375 0.234625 0.08224999999999999 0.05499999999999999 0.18187499999999998 0.07775 0.279875 0.06375 0.09787499999999999 -0.014 0.18724999999999997 -0.06375 0.25075000000000003 -0.139625 0.0635 -0.075875 0.09662499999999999 -0.172625 0.093125 -0.2715 0.005 -0.581875 0.183875 -1.148875 0.5135 -1.628375 0.310125 -0.47325 0.66225 -0.91775 1.05225 -1.32775 0.61375 -0.6763750000000001 1.252625 -1.3527500000000001 1.7786250000000001 -1.8663750000000001 0.38150000000000006 0.09537500000000002 0.772 0.149875 1.165 0.162875 0.083125 -0.015625 0.15837500000000002 -0.059875 0.21237499999999998 -0.125125 0.054125 -0.065125 0.083625 -0.14725 0.083625 -0.231875 0 -0.08474999999999999 -0.0295 -0.16674999999999998 -0.083625 -0.231875 -0.054000000000000006 -0.06525 -0.12925 -0.1095 -0.21237499999999998 -0.125125 -2.104375 -0.2255 -3.1064999999999996 -1.628375 -2.99375 -3.119 0.0855 -0.7897500000000001 0.474 -1.515625 1.08375 -2.0248749999999998 0.6096250000000001 -0.50925 1.393125 -0.76225 2.1854999999999998 -0.70575 0.723375 -0.013500000000000002 1.4227500000000002 0.25925 1.945875 0.7589999999999999 0.523125 0.49974999999999997 0.82775 1.185875 0.8475 1.9089999999999998 0.14775 0.7406250000000001 -0.003875 1.50975 -0.42174999999999996 2.138875 -0.417875 0.6291249999999999 -1.067875 1.067125 -1.807875 1.2181250000000001 -0.052750000000000005 0.00575 -0.103625 0.021875000000000002 -0.150125 0.04725 -0.046375 0.025500000000000002 -0.08737500000000001 0.059875 -0.1205 0.10112499999999999 -0.033125 0.04125 -0.057875 0.08875 -0.072625 0.139625 -0.014875000000000001 0.050749999999999997 -0.0195 0.104 -0.013749999999999998 0.156625s0.02175 0.103625 0.04725 0.150125c0.025500000000000002 0.046375 0.059875 0.08737500000000001 0.10112499999999999 0.1205 0.04125 0.033125 0.08875 0.057875 0.1395 0.072625 0.050875000000000004 0.014875000000000001 0.104125 0.0195 0.15675 0.013749999999999998 0.43687499999999996 -0.048375 0.86125 -0.17575000000000002 1.252625 -0.37575 0.2995 0.35325 0.575625 0.725625 0.82675 1.114875 0.15025 0.225375 0.288 0.463375 0.41325 0.688875 0.12537500000000001 0.2255 0.275625 0.4635 0.400875 0.7015 0.304125 0.5920000000000001 0.559625 1.207875 0.7641249999999999 1.84125 0.023999999999999997 0.103375 0.08675000000000001 0.19337500000000002 0.175375 0.25175 0.08862500000000001 0.05825 0.19625 0.08024999999999999 0.300625 0.061375 0.051875000000000004 -0.010375 0.10125 -0.031 0.145125 -0.060625 0.044000000000000004 -0.029625 0.081625 -0.06775 0.11075 -0.112s0.049125 -0.093875 0.059 -0.145875c0.00975 -0.052125000000000005 0.009250000000000001 -0.10562500000000001 -0.00175 -0.15737500000000001 -0.034125 -0.7292500000000001 -0.15187499999999998 -1.4521249999999999 -0.35075 -2.1545Z" clip-rule="evenodd" stroke-width="1.25"></path>
  <path fill="#010101" fill-rule="evenodd" d="M16.1625 8.0039125c-0.187875 0.3757875 -0.35075 0.7515624999999999 -0.551125 1.2526000000000002l-0.413375 1.0897625 -0.288125 0.8517750000000001 -0.187875 0.6263000000000001 -0.801625 -0.7139875 -1.002125 -0.8768125L11.327437499999998 8.768c-0.03265 -0.033325 -0.071625 -0.0598 -0.11465 -0.077875 -0.0430125 -0.0180875 -0.0892125 -0.0273875 -0.1358625 -0.0273875 -0.0466625 0 -0.09286249999999999 0.009300000000000001 -0.135875 0.0273875 -0.0430125 0.018075 -0.082 0.04455 -0.11465 0.077875 -0.033325 0.0326625 -0.0598125 0.07163749999999999 -0.0778875 0.11465 -0.018075 0.043025 -0.0273875 0.0892125 -0.0273875 0.135875s0.0093125 0.09285 0.0273875 0.1358625c0.018075 0.043025 0.044562500000000005 0.082 0.0778875 0.11465l1.478075 1.6283875 0.9143999999999999 0.951975 0.901875 0.9644750000000001c0.12525 0.12525 0.2505 0.451 0.36325 0.551125 0.1225 0.10562500000000001 0.276875 0.167375 0.438375 0.175375 0.103875 -0.00037499999999999995 0.206125 -0.02425 0.2995 -0.06987499999999999 0.09325 -0.0455 0.17500000000000002 -0.1115 0.239125 -0.193125 0.14075000000000001 -0.16962499999999997 0.25475000000000003 -0.35962500000000003 0.33825 -0.563625 0.162875 -0.36331250000000004 0.2755 -0.8017249999999999 0.37575 -1.0772875l0.300625 -0.8517750000000001 0.413375 -1.027125 1.052125 -2.3173125c0.528 -1.028275 1.1308749999999999 -2.0163125 1.80375 -2.9561375 0.67025 -0.920275 1.4435 -1.7608125 2.304875 -2.5052125 0.083 -0.06643750000000001 0.13625 -0.16315 0.14800000000000002 -0.2688625 0.01175 -0.10569999999999999 -0.019 -0.21175 -0.085375 -0.2948 -0.0665 -0.08305 -0.16325 -0.1363125 -0.26887500000000003 -0.14806249999999999 -0.10575 -0.011737500000000001 -0.21175 0.0189875 -0.294875 0.085425 -0.9735 0.72725 -1.8566250000000002 1.568275 -2.630375 2.5052000000000003 -0.7811250000000001 0.9335499999999999 -1.4888750000000002 1.9260625 -2.117 2.968675 -0.2505 0.43839999999999996 -0.450875 0.8016625 -0.63875 1.1774375Z" clip-rule="evenodd" stroke-width="1.25"></path>
  <path fill="#ff8b04" fill-rule="evenodd" d="M24.780375 8.1792625c-0.232875 -0.5957875 -0.540125 -1.1597625 -0.914375 -1.6784875 -0.541125 -0.7410875 -1.1223750000000001 -1.4519499999999999 -1.741125 -2.129425 -0.059875 -0.071425 -0.14550000000000002 -0.116175 -0.238375 -0.1243875 -0.09275 -0.008225 -0.185 0.02075 -0.256375 0.08055 -0.07150000000000001 0.0598 -0.11624999999999999 0.1455125 -0.1245 0.23831249999999998 -0.008125 0.09278750000000001 0.02075 0.1850375 0.080625 0.2564625 0.57725 0.6796125 1.11675 1.3904874999999999 1.615875 2.129425 0.325 0.47295 0.586125 0.9867874999999999 0.7766249999999999 1.528175 0.3315 0.8265500000000001 0.410875 1.732775 0.228125 2.6043875 -0.182875 0.8716124999999999 -0.619625 1.6696 -1.25525 2.293225 -1.050375 0.8965 -2.2746250000000003 1.566125 -3.595875 1.9671250000000002 -1.321375 0.400875 -2.71125 0.524375 -4.082625 0.36275 -3.68265 -0.187875 -6.175325000000001 -1.1147500000000001 -7.67845 -2.4175 -0.6647875000000001 -0.514875 -1.1589874999999998 -1.2181375 -1.4181875 -2.0180375 -0.2591875 -0.7999125 -0.271325 -1.6593625 -0.034825 -2.466275 0.93945 -3.1816125 5.2734499999999995 -5.874700000000001 11.574087500000001 -4.9102 0.052625 0.009049999999999999 0.1065 0.0076375 0.15862500000000002 -0.00415 0.052 -0.0117875 0.10125 -0.0337125 0.144875 -0.0645375s0.08075 -0.0699375 0.10925000000000001 -0.1151c0.0285 -0.045175 0.047875 -0.0955125 0.056874999999999995 -0.14815 0.009125 -0.052637500000000004 0.007625000000000001 -0.10654999999999999 -0.004125 -0.1586375s-0.03375 -0.10135 -0.0645 -0.144975c-0.030875 -0.0436125 -0.07 -0.08073749999999999 -0.115125 -0.10923749999999999s-0.0955 -0.047825000000000006 -0.148125 -0.056874999999999995C10.9015375 1.8411 6.1166 4.935025 4.9767375000000005 8.4423c-0.7766125 2.392475 0 5.01045 2.9937125 6.776575 2.2265375 1.1716250000000001 4.699175 1.798375 7.214925 1.82875 1.55525 0.132125 3.1208750000000003 -0.06025 4.597875 -0.564875 1.4769999999999999 -0.5045000000000001 2.8331250000000003 -1.31025 3.9825 -2.3661250000000003 0.737 -0.778625 1.22675 -1.7581625 1.40725 -2.8149125 0.18062499999999998 -1.05675 0.044000000000000004 -2.1433125 -0.392625 -3.1224499999999997Z" clip-rule="evenodd" stroke-width="1.25"></path>
</svg>