<svg xmlns="http://www.w3.org/2000/svg" fill="none" viewBox="0 0 30 30" id="Taking-Pictures-Man--Streamline-Freehand" height="30" width="30">
  <desc>
    Taking Pictures Man Streamline Icon: https://streamlinehq.com
  </desc>
  <path fill="#010101" fill-rule="evenodd" d="M15.049375000000001 17.30575c0.75025 2.30075 3.626375 2.8635 5.652125 1.250375 3.48875 -2.6508749999999996 -0.67525 -6.4773125 -1.2505 -5.414375 -0.028 0.04875 -0.04575 0.102875 -0.052125000000000005 0.158875 -0.00625 0.056 -0.001125 0.112625 0.015250000000000001 0.1665 0.0165 0.053875 0.043750000000000004 0.103875 0.080125 0.14687499999999998 0.0365 0.042874999999999996 0.08125 0.078 0.13174999999999998 0.102875 0.376625 0.23725 0.6932499999999999 0.558125 0.925375 0.937875 1.7756250000000002 2.726 -3.1761250000000003 4.78925 -4.214 2.1382499999999998 -0.837875 -2.1132500000000003 1.6256249999999999 -3.863875 2.500875 -3.313625 0.082875 0.056375 0.184875 0.0775 0.28337500000000004 0.05875 0.09849999999999999 -0.01875 0.1855 -0.075875 0.241875 -0.158875 0.056375 -0.082875 0.0775 -0.18474999999999997 0.05875 -0.28325 -0.01875 -0.09849999999999999 -0.075875 -0.1855 -0.158875 -0.241875 -1.613 -1.087925 -5.239374999999999 1.338 -4.214 4.451625Z" clip-rule="evenodd" stroke-width="1.25"></path>
  <path fill="#010101" fill-rule="evenodd" d="M20.138125 14.979625c-0.3 -1.1749999999999998 -2.5 -0.3625 -1.775 0 0.725 0.3625 1 1.4000000000000001 1.4375 1.25 0.4375 -0.15 0.3625 -1.1875 0.3375 -1.25Z" clip-rule="evenodd" stroke-width="1.25"></path>
  <path fill="#010101" fill-rule="evenodd" d="M21.514375 10.5032125c-0.137625 0 -1.037875 -1.3880000000000001 -1.8131249999999999 -1.888175 -0.350125 -0.2250875 -0.46275 -0.08753749999999999 -1.575625 0 -1.290625 0.08002499999999999 -2.558625 0.3759 -3.7513750000000003 0.8753125 -0.6002500000000001 0.32511249999999997 -0.562625 0.8002874999999999 -0.65025 1.2504499999999998 -0.08750000000000001 0.4501625 0 1.50055 -0.287625 1.6255875l-3.1761 0.9878625000000001c-0.05437499999999999 0.026 -0.10262500000000001 0.063125 -0.141525 0.109125 -0.0389 0.046125 -0.0675875 0.09987499999999999 -0.08413749999999999 0.15775 -0.01655 0.057999999999999996 -0.0206 0.11875 -0.011875 0.178375 0.0087125 0.059625 0.0300125 0.11674999999999999 0.062474999999999996 0.1675 -0.06317500000000001 -0.02175 -0.131 -0.026125 -0.1964625 -0.012875000000000001 -0.0654625 0.013375 -0.1261875 0.043875 -0.1759 0.0885 -0.0497125 0.044625000000000005 -0.08661250000000001 0.101625 -0.10687500000000001 0.16525 -0.020274999999999998 0.06375 -0.0231875 0.131625 -0.0084375 0.19675 -0.1770625 1.1763750000000002 0.1148125 2.375375 0.8128000000000001 3.3387499999999997 0.0324625 0.09237499999999998 0.09582500000000001 0.17062500000000003 0.1793625 0.22175 0.08355 0.051000000000000004 0.1821625 0.07175 0.279175 0.0585 0.0970125 -0.01325 0.18648749999999997 -0.059500000000000004 0.2533125 -0.131125 0.066825 -0.071625 0.1068875 -0.164 0.1134375 -0.26175 0.10295 -1.20925 -0.229675 -2.4154999999999998 -0.9378375 -3.401125 0.15006250000000002 0 -0.15005 0.1 3.6263375 -0.812875 0.90025 -0.412625 0.8502500000000001 -1.6880875 1.012875 -2.350825 0.075 -0.35013750000000005 -0.350125 -0.4251625 1.250375 -0.7127625 1.138 -0.212575 2.7135 -0.32511249999999997 2.901125 -0.36263749999999995 2.6008750000000003 2.563475 1.162875 1.8506749999999998 5.289375 1.2504625 1.413 -0.2250875 1.062875 0.075025 1.188 0l0.562625 2.0132625c0.019875 0.09775 0.077875 0.18375 0.161125 0.238875 0.08325 0.05499999999999999 0.185 0.074875 0.28275 0.05499999999999999 0.09787499999999999 -0.02 0.18375 -0.077875 0.238875 -0.161125 0.055125 -0.08325 0.074875 -0.185 0.05499999999999999 -0.282875 -0.387625 -2.2507875 -0.325125 -2.7259499999999997 -1.4380000000000002 -2.8885125 -1.3116249999999998 -0.0776375 -2.62775 0.019074999999999998 -3.913875 0.2876Z" clip-rule="evenodd" stroke-width="1.25"></path>
  <path fill="#010101" fill-rule="evenodd" d="M16.912625 1.8876249999999999c1.23925 0.4980625 2.3356250000000003 1.2956124999999998 3.191 2.32125 0.8555 1.02565 1.4432500000000001 2.2473875 1.71075 3.5558875 0 0.09948749999999999 0.039625 0.19490000000000002 0.109875 0.26525 0.07037500000000001 0.0703625 0.16587500000000002 0.109875 0.26537499999999997 0.109875 0.099375 0 0.19487500000000002 -0.0395125 0.26525 -0.109875 0.07025 -0.07035 0.109875 -0.1657625 0.109875 -0.26525 0.153875 -1.613375 -0.335 -3.2223125 -1.3605 -4.4772875C20.17875 2.0325125 18.699375 1.232885 17.08775 1.06233125c-0.057 -0.01977875 -0.1175 -0.027209999999999998 -0.177625 -0.021797499999999997 -0.06 0.00541125 -0.11825000000000001 0.023540000000000002 -0.17075 0.05318375 -0.052625 0.0296425 -0.09825 0.0701225 -0.133875 0.11874875 -0.035625000000000004 0.048621250000000005 -0.060625 0.10428375000000001 -0.07312500000000001 0.16328375 -0.0125 0.059 -0.012375 0.11998750000000001 0.0005 0.1789125s0.038125 0.114425 0.074125 0.16285c0.036 0.0484125 0.081875 0.0886125 0.1345 0.11795 0.052750000000000005 0.029325000000000004 0.111 0.0471125 0.171125 0.0521625Z" clip-rule="evenodd" stroke-width="1.25"></path>
  <path fill="#010101" fill-rule="evenodd" d="M12.3484625 18.73125c-1.5013375 0.08075 -2.9454625 0.60275 -4.1515125 1.5005l-0.32511249999999997 0.287625c-0.07205 -0.35675 -0.20305 -0.699125 -0.38763749999999997 -1.012875 -0.0266625 -0.109375 -0.0956125 -0.203625 -0.19172499999999998 -0.26225 -0.0961 -0.058625 -0.21152500000000002 -0.07675 -0.3209625 -0.050375 -0.337625 0.075 -0.70025 1.4255 -0.12505 2.500875 -0.34245 0.45025000000000004 -0.60085 0.9586250000000001 -0.762775 1.5006249999999999 -0.200075 0.450125 -0.1250375 0.66275 0 0.71275 0.13755 0.250125 0.4251625 0.250125 0.7752874999999999 -0.47524999999999995 0.0998375 -0.2555 0.21252500000000002 -0.506 0.3376125 -0.75025 1.5380625 -2.500875 5.8896625 -3.9513749999999996 6.8900375 -1.850625 0.244625 0.54175 0.30362500000000003 1.149125 0.16799999999999998 1.727875 -0.135625 0.57875 -0.45837500000000003 1.096625 -0.91825 1.4732500000000002 -2.18835 1.9757500000000001 -4.2766125 4.039 -7.102625 4.364125 -1.066575 0.211625 -2.1711 0.12075000000000001 -3.1886625000000004 -0.262625 -3.063605625 -1.900625 -1.8131525000000002 -6.752375000000001 0.41265 -9.403375 0.9399250000000001 -1.244625 2.0660375 -2.3369999999999997 3.3387125 -3.2387500000000005 0.358175 0.318125 0.7478374999999999 0.59875 1.162925 0.837875 0.0954875 0.04675 0.2050625 0.056125 0.30710000000000004 0.026125 0.10203749999999999 -0.03 0.18911250000000002 -0.097125 0.24406250000000002 -0.18825000000000003 0.05495 -0.091 0.07377500000000001 -0.199375 0.0527625 -0.30362500000000003 -0.021012499999999996 -0.10425000000000001 -0.08033749999999999 -0.196875 -0.166275 -0.2595C2.4823875 11.741200000000001 4.983287499999999 0.11199300000000001 14.59925 0.862265c0.0995 0.009948750000000001 0.198875 -0.020032499999999998 0.27625 -0.08334875 0.077375 -0.06331624999999999 0.1265 -0.15478125 0.136375 -0.25427374999999997 0.01 -0.0994925 -0.02 -0.19886125000000002 -0.08325 -0.27624875 -0.063375 -0.07738625 -0.15487499999999998 -0.126451375 -0.25437499999999996 -0.136400625C4.1955 -1.11345 1.231935 9.7529875 6.233750000000001 14.979875c-0.489725 0.30825 -0.953875 0.65525 -1.3880124999999999 1.037875 -7.140075 6.25225 -5.4769775 13.342375 -0.8753125 13.892500000000002 4.6016625 0.55025 7.265125 -2.08825 10.266200000000001 -4.92675 2.425875 -2.300875 1.4380000000000002 -6.25225 -1.8881625 -6.25225Z" clip-rule="evenodd" stroke-width="1.25"></path>
  <path fill="#010101" fill-rule="evenodd" d="M23.052375 20.732c0.7252500000000001 -0.325125 0.17500000000000002 -0.8878750000000001 -0.7503749999999999 -0.7627499999999999 -2.228125 0.15275 -4.408125 0.721125 -6.42725 1.6756250000000001 -0.084875 0.031625 -0.1555 0.093 -0.19862500000000002 0.17275 -0.04325 0.079625 -0.056125 0.17225000000000001 -0.036250000000000004 0.260625 0.019875 0.0885 0.07100000000000001 0.16674999999999998 0.144 0.22037500000000002 0.07312500000000001 0.053625 0.16312500000000002 0.07900000000000001 0.253375 0.07150000000000001 2.377125 -0.36462500000000003 4.7223749999999995 -0.91225 7.015124999999999 -1.638125Z" clip-rule="evenodd" stroke-width="1.25"></path>
  <path fill="#010101" fill-rule="evenodd" d="M23.189999999999998 21.344625c-0.076125 -0.09050000000000001 -0.18175 -0.15125 -0.298375 -0.17125 -0.1165 -0.020125 -0.236375 0.00175 -0.338375 0.06175s-0.17937499999999998 0.154125 -0.21850000000000003 0.26575000000000004c-0.039 0.111625 -0.037375 0.23349999999999999 0.004875 0.344 0.75575 2.1662500000000002 1.3492499999999998 4.385625 1.7756250000000002 6.639875 0 0.11275 0.044875 0.220875 0.1245 0.300625 0.07974999999999999 0.07974999999999999 0.187875 0.1245 0.30075 0.1245 0.11275 0 0.220875 -0.04475 0.300625 -0.1245 0.079625 -0.07974999999999999 0.1245 -0.187875 0.1245 -0.300625 0.32399999999999995 -2.5185000000000004 -0.30974999999999997 -5.06675 -1.7756250000000002 -7.140125Z" clip-rule="evenodd" stroke-width="1.25"></path>
  <path fill="#010101" fill-rule="evenodd" d="M29.542250000000003 15.455000000000002c-0.238125 -0.385375 -0.5525 -0.718125 -0.923875 -0.97775 -0.37124999999999997 -0.259625 -0.791625 -0.440625 -1.2355 -0.532 -0.44375 -0.09125 -0.9015 -0.091 -1.3451250000000001 0.000875 -0.443625 0.091875 -0.8637499999999999 0.27349999999999997 -1.23475 0.533625 -0.418125 0.269625 -0.77575 0.623 -1.050375 1.037875 -2.275875 3.7513750000000003 0.2375 6.9399999999999995 3.7513750000000003 6.25225 2.388375 -0.5377500000000001 3.0509999999999997 -4.451625 2.03825 -6.314875Zm-0.975375 3.13875c-0.43775000000000003 1.6005 -1.075375 1.8256249999999998 -2.163375 1.8131249999999999 -0.34025 0.03375 -0.683 -0.035125 -0.983875 -0.197875 -0.30075 -0.162625 -0.546125 -0.41175000000000006 -0.704125 -0.715 -0.398875 -0.493 -0.626625 -1.10225 -0.64925 -1.736 -0.0225 -0.63375 0.161375 -1.257625 0.524125 -1.77775 0.18675 -0.315375 0.433125 -0.5915 0.7252500000000001 -0.81275 0.40750000000000003 -0.284875 0.900125 -0.42162499999999997 1.396125 -0.3875 0.496 0.034125 0.965375 0.237 1.3298750000000001 0.5750000000000001 0.22474999999999998 0.145125 0.406125 0.348125 0.52525 0.58775 0.28337500000000004 0.860875 0.28337500000000004 1.79 0 2.651Z" clip-rule="evenodd" stroke-width="1.25"></path>
  <path fill="#222222" fill-rule="evenodd" d="M8.522025 12.927999999999999c0.038675 0.0705 0.09715 0.12825 0.168225 0.166 0.071075 0.03775 0.1516375 0.053875 0.231775 0.0465 0.07392499999999999 0.00025 0.14656249999999998 -0.01925 0.2103375 -0.056625 0.0637625 -0.037375 0.11632500000000001 -0.09125 0.1521625 -0.155875 0.6611125 -0.311875 1.2822625 -0.70215 1.85 -1.1625375 0.09582500000000001 -0.0912 0.16331249999999997 -0.2081125 0.19435000000000002 -0.33671249999999997 0.03105 -0.1285875 0.024325000000000003 -0.2634125 -0.01935 -0.3882875 -0.5985125 -0.6252000000000001 -1.3681125 -1.0600125 -2.2125 -1.25 -0.0713 -0.001675 -0.141875 0.014625 -0.205225 0.0473875 -0.06335 0.032775 -0.1174375 0.08095 -0.157275 0.1401125 -0.075 0.1875 -0.15 0.275 0.8875 1.25 -0.55 0.5625 -1.4124999999999999 1.25 -1.1 1.7000375Z" clip-rule="evenodd" stroke-width="1.25"></path>
  <path fill="#222222" fill-rule="evenodd" d="M9.98515 7.4772125c-2.5008999999999997 0.5376875 -3.251175 0 -3.3136875 0.6002125 -0.006975 0.10085 0.025725 0.20045000000000002 0.09113750000000001 0.2775375 0.0654 0.0770875 0.15833750000000002 0.1255625 0.25898750000000004 0.1351125 3.5012625 0.5126875 5.8020375 0.1750625 9.5034125 -2.7510000000000003 0.075 -0.062525 0.18762500000000001 -0.08752499999999999 0.23762499999999998 -0.13755l1.613125 1.713125c0.036125 0.0426875 0.08024999999999999 0.07785 0.13 0.10347500000000001 0.049625 0.025625000000000002 0.104 0.0412 0.15975 0.0458375 0.055624999999999994 0.0046500000000000005 0.11174999999999999 -0.001725 0.165 -0.0187625 0.053375000000000006 -0.0170375 0.10275 -0.0444125 0.145375 -0.0805375 0.04275 -0.036125 0.077875 -0.08030000000000001 0.1035 -0.130025 0.025625000000000002 -0.0497125 0.04125 -0.1039875 0.045875000000000006 -0.159725 0.004625000000000001 -0.055725000000000004 -0.00175 -0.11183749999999999 -0.01875 -0.1651 -0.017125 -0.053274999999999996 -0.0445 -0.10266249999999999 -0.080625 -0.1453625 -0.83775 -1.1254125 -1.463 -2.1632875 -2.038125 -2.35085 -0.57525 -0.187575 -1.2505 0.42515 -1.638125 0.6252249999999999 -3.0636375 1.6881125 -3.66385 2.150775 -5.364475 2.4383875Z" clip-rule="evenodd" stroke-width="1.25"></path>
</svg>