<svg xmlns="http://www.w3.org/2000/svg" fill="none" viewBox="0 0 30 30" id="Shopping-Cart-Trolley-Check--Streamline-Freehand" height="30" width="30">
  <desc>
    Shopping Cart Trolley Check Streamline Icon: https://streamlinehq.com
  </desc>
  <path fill="#010101" fill-rule="evenodd" d="M13.122625000000001 2.5973875C12.381012499999999 1.7240375 11.4458375 1.03579375 10.3915 0.58738625 9.33715 0.13897875 8.192725 -0.057218 7.049225 0.014402124999999998c-1.1435 0.07162025 -2.2545 0.409080375 -3.2446625 0.985541625 -0.9901500000000001 0.57645625 -1.832125 1.37601875 -2.4589749999999997 2.33506875 -2.08785125 3.088025 -1.0126675 7.6013 1.0626875 8.9265375 0.041262499999999994 0.0376 0.0901625 0.06583750000000001 0.14335 0.0827875 0.0531875 0.016962500000000002 0.1094125 0.022225 0.164825 0.0154375 0.0554125 -0.0067875 0.10869999999999999 -0.0254625 0.156225 -0.054762500000000006 0.047525 -0.0292875 0.08816249999999999 -0.0685 0.119125 -0.11495s0.0515375 -0.0990375 0.0602875 -0.154175c0.0087625 -0.055125 0.0055125 -0.1115125 -0.009537499999999999 -0.16526249999999998 -0.015050000000000001 -0.0537625 -0.041525 -0.1036375 -0.0776375 -0.1462125 -0.0361 -0.042575 -0.0809875 -0.07685 -0.1315625 -0.100475 -1.58777375 -1.1502 -2.38791125 -5.113375 -0.5250875 -7.5888 0.548325 -0.7482875 1.2563250000000001 -1.3651375 2.07265 -1.805825 0.8163125 -0.44068749999999995 1.7204875 -0.6941625 2.646925 -0.7420499999999999 0.9264375 -0.047875 1.851925 0.11105000000000001 2.709325 0.4652375 0.8573999999999999 0.3542 1.6252125 0.894775 2.24775 1.5825500000000001 3.0630875 3.6256250000000003 1.2502125 9.114075 -4.1382 9.7517 -0.98315 0.143375 -1.9857375 0.070875 -2.9380125 -0.212625 -0.111075 -0.036375000000000005 -0.2320875 -0.02725 -0.336425 0.025500000000000002 -0.1043375 0.052750000000000005 -0.18343749999999998 0.14475 -0.2199125 0.25587499999999996 -0.036475 0.111 -0.027325000000000002 0.232125 0.025425 0.336375 0.052750000000000005 0.10437500000000001 0.1447875 0.18350000000000002 0.25587499999999996 0.21999999999999997 1.067825 0.34662499999999996 2.195525 0.47 3.3130625 0.3625 1.338 -0.0325 2.6392375 -0.44437499999999996 3.7521625 -1.187875 1.1129875 -0.7434125 1.9917375000000002 -1.7877375 2.5341125 -3.0113125000000003 0.542375 -1.2235749999999999 0.725875 -2.5760625 0.5293749999999999 -3.8999499999999996 -0.196625 -1.323875 -0.76525 -2.5646625 -1.63975 -3.57785Z" clip-rule="evenodd" stroke-width="1.25"></path>
  <path fill="#010101" fill-rule="evenodd" d="M5.7584124999999995 10.1350875c1.45 0.075 3.1624999999999996 -3.95 3.75 -5.2625 0.19591250000000002 -0.19973749999999998 0.31915 -0.459425 0.35000000000000003 -0.7374999999999999 -0.0109 -0.0930125 -0.049775 -0.18053750000000002 -0.1114875 -0.250975 -0.061712499999999997 -0.0704375 -0.1433625 -0.1204875 -0.2341375 -0.143525 -0.0907625 -0.023024999999999997 -0.1864 -0.0179625 -0.274225 0.0145375 -0.0878375 0.0325 -0.16373749999999998 0.0908875 -0.21765 0.16746250000000001 -0.3 0.35000000000000003 -3.4499999999999997 4.925 -3.3625 5 -0.25 0 -1.525 -1.4749999999999999 -1.7125000000000001 -1.6 -0.1875 -0.125 -0.7374999999999999 0.22499999999999998 -0.44999999999999996 0.65 0.5375 0.775 1.4124999999999999 2.1125 2.2625 2.1625Z" clip-rule="evenodd" stroke-width="1.25"></path>
  <path fill="#222222" d="m12.3848875 18 2.7629875 -0.17500000000000002c0.045375 0.73575 0.166875 1.46475 0.3625 2.175375 0.006750000000000001 0.058124999999999996 0.006750000000000001 0.116875 0 0.17500000000000002 0.450125 0.687625 0.8502500000000001 0.7501249999999999 1.2502499999999999 0 0 -0.4 -0.075 -0.950125 -0.125 -1.70025 0 -0.275 0 -0.562625 -0.08750000000000001 -0.8376250000000001 1.012625 0 1.9252500000000001 -0.11249999999999999 3.6381249999999996 -0.287625 0.007875 1.2281250000000001 0.078875 2.454875 0.21250000000000002 3.675625 -0.010625 0.061125 -0.00775 0.12375 0.008499999999999999 0.183625 0.016125 0.059750000000000004 0.045250000000000005 0.11537499999999999 0.08512499999999999 0.16275 0.039874999999999994 0.047375 0.089625 0.0855 0.145875 0.111625 0.056125 0.026250000000000002 0.117375 0.03975 0.17937499999999998 0.03975 0.061875 0 0.12312500000000001 -0.013500000000000002 0.17937499999999998 -0.03975 0.056125 -0.026125 0.105875 -0.06425 0.145875 -0.111625 0.039874999999999994 -0.047375 0.068875 -0.10300000000000001 0.085 -0.16275 0.01625 -0.059875 0.019125 -0.1225 0.008499999999999999 -0.183625 0.11249999999999999 -1.4127500000000002 0.275125 -2.375375 0.350125 -3.8256250000000005l2.087875 -0.2c1.050125 -0.287625 1.012625 -0.6251249999999999 0.075 -1.0001250000000002h-2.112875c0.03875 -0.6611250000000001 -0.00325 -1.3245 -0.125 -1.975375 -0.22512500000000002 -1.2502499999999999 -1.00025 -0.8751249999999999 -1.03775 0 -0.21250000000000002 2.037875 -0.1625 1.125125 -0.22499999999999998 2.000375 -1.308625 0.015125 -2.61525 0.107 -3.913125 0.275 -0.150125 -0.6501250000000001 -0.312625 -1.2502499999999999 -0.450125 -1.775375 -0.023375 -0.08975 -0.079125 -0.16775 -0.156625 -0.21875 -0.0775 -0.051125 -0.17125 -0.071625 -0.263 -0.057625 -0.09175000000000001 0.014 -0.17500000000000002 0.0615 -0.23375 0.133375 -0.05875 0.07187500000000001 -0.08875 0.162875 -0.08425 0.255625v1.86275c-1.2502499999999999 0.22499999999999998 -2.175375 0.30012500000000003 -2.9880250000000004 0.512625 -0.687625 0.487625 -1.2002125 0.912625 0.2250375 0.987625Z" stroke-width="1.25"></path>
  <path fill="#010101" d="M29.738125000000004 7.2606875c-0.46262499999999995 -1.012675 -3.088125 1.48775 -4.13825 4.538275 -2.938125 -0.46025000000000005 -5.926625 -0.5023375 -8.8765 -0.125025 -0.061125 -0.0105875 -0.12375 -0.007699999999999999 -0.18350000000000002 0.008475 -0.059875 0.0161625 -0.11537499999999999 0.0452125 -0.162875 0.0851125 -0.047375 0.0399 -0.0855 0.08968749999999999 -0.111625 0.1458625 -0.026125 0.056187499999999994 -0.03975 0.1174 -0.03975 0.17937499999999998 0 0.061962500000000004 0.013625 0.1231875 0.03975 0.17937499999999998 0.026125 0.056175 0.06425 0.1059625 0.111625 0.1458625 0.0475 0.0399 0.10300000000000001 0.06895 0.162875 0.08512499999999999 0.059750000000000004 0.016125 0.122375 0.019 0.18350000000000002 0.008499999999999999 2.83625 0.361125 5.70275 0.419875 8.551375 0.17500000000000002 -0.450875 2.14525 -0.72675 4.323625 -0.825125 6.513624999999999 -0.08750000000000001 0.7251249999999999 -0.075 1.5627499999999999 -0.15 2.375375 -0.7001250000000001 0 -2.500375 0.1375 -2.963 0.1625 -3.0517499999999997 -0.128375 -6.091875 -0.454125 -9.10155 -0.975125 -0.6251125000000001 -0.42512500000000003 -1.012675 -1.37525 -1.4127375 -3.525625 -0.0225875 -0.092 -0.0791625 -0.17212499999999997 -0.1583625 -0.224125s-0.17515 -0.072125 -0.268575 -0.056249999999999994c-0.09342500000000001 0.015875 -0.1774 0.066375 -0.2350375 0.141625 -0.057625 0.07525 -0.0846625 0.16949999999999998 -0.07565 0.26375 0.33755 2.5004999999999997 0.5375875 4.08825 2.0378375 4.7383750000000004 0.947075 0.28075 1.925825 0.440375 2.9129500000000004 0.475 3.031875 0.47100000000000003 6.1213750000000005 0.42875 9.139125 -0.125 -0.042624999999999996 0.348 -0.1825 0.6769999999999999 -0.403625 0.949 -0.22112500000000002 0.27199999999999996 -0.514625 0.476125 -0.846625 0.58875 -0.73525 0.255125 -1.50975 0.377875 -2.287875 0.36262500000000003 -1.5627499999999999 0 -3.1505 0.1375 -4.725750000000001 0.11249999999999999 -1.62825 -0.04325 -3.2523750000000002 -0.185125 -4.863375 -0.42512500000000003 -0.0945 -0.0315 -0.19765000000000002 -0.024125 -0.28673750000000003 0.0205 -0.0891 0.0445 -0.15685000000000002 0.12262500000000001 -0.18835000000000002 0.21712499999999998 -0.0315 0.0945 -0.0241625 0.197625 0.020374999999999997 0.28675 0.04455 0.089 0.1226625 0.15675 0.21716249999999998 0.18825000000000003 0.6139125 0.13974999999999999 1.236125 0.23987499999999998 1.8628 0.30012500000000003 0.42512500000000003 0.08750000000000001 0.412625 0 0.17500000000000002 0.1 -0.496325 0.19837500000000002 -0.9160875 0.5505 -1.1976375 1.004875 -0.28154999999999997 0.454375 -0.41008749999999994 0.987 -0.3667375 1.5198749999999999 0.04335 0.5327500000000001 0.2563 1.037625 0.6076 1.4405000000000001 0.3513125 0.402875 0.8225250000000001 0.682625 1.3444 0.798125 1.950375 0.48750000000000004 4.100750000000001 -1.18775 3.4381250000000003 -3.100625 -0.16575 -0.52325 -0.517 -0.967875 -0.98775 -1.250125 -0.1315 -0.074875 -0.269625 -0.13775 -0.41250000000000003 -0.18762500000000001 2.0503750000000003 0.175125 3.0380000000000003 0.150125 5.3633750000000004 0.212625 1.887875 0 1.15025 -0.36262500000000003 0.550125 0.8626250000000001 -1.57525 3.2129999999999996 3.4381250000000003 4.513249999999999 4.57575 2.625375 0.3165 -0.76125 0.31925000000000003 -1.6167500000000001 0.00775 -2.380125 -0.31137499999999996 -0.763375 -0.911875 -1.372875 -1.6705 -1.6955 2.500375 -1.52525 1.38775 -4.9258750000000004 2.112875 -10.664375 0.146375 -1.81825 0.7718750000000001 -3.5652875 1.8127499999999999 -5.06335 0.39212499999999995 -0.5849125000000001 0.90875 -1.075875 1.51275 -1.4377375000000001 0.051500000000000004 -0.0240625 0.0975 -0.058162500000000006 0.1355 -0.1003 0.038 -0.042137499999999994 0.06725 -0.0914625 0.08587499999999999 -0.1450625 0.018625 -0.0536 0.026375000000000003 -0.1103875 0.02275 -0.16702499999999998 -0.00375 -0.05663750000000001 -0.018625 -0.11196249999999999 -0.044000000000000004 -0.1627125ZM13.622875 28.514374999999998c-0.687625 -0.162625 -1.10025 -0.550125 -1.1627625 -1.02525 -0.17502500000000001 -1.33775 1.3877625 -1.8752499999999999 2.5003874999999995 -1.250125 1.53775 1.025125 0.175125 2.650375 -1.337625 2.287875v-0.0125Zm10.58925 -2.262875c2.713 2.812875 -2.8129999999999997 3.1630000000000003 -1.937875 0.7251249999999999 0.077875 -0.32925000000000004 0.2675 -0.621375 0.5365 -0.8265 0.26887500000000003 -0.205125 0.60075 -0.31074999999999997 0.93875 -0.29874999999999996 0.17625 0.10562500000000001 0.33275 0.241 0.46262499999999995 0.400125Z" stroke-width="1.25"></path>
</svg>