<svg xmlns="http://www.w3.org/2000/svg" fill="none" viewBox="0 0 30 30" id="Movies-Clapboard--Streamline-Freehand" height="30" width="30">
  <desc>
    Movies Clapboard Streamline Icon: https://streamlinehq.com
  </desc>
  <path fill="#010101" fill-rule="evenodd" d="M28.733875 25.976374999999997c-2.3035 0.05325 -4.602 0.236875 -6.8847499999999995 0.5497500000000001 -3.41125 0.449875 -6.822375000000001 1.0871250000000001 -10.1710875 1.537 -1.2961875 0.258375 -2.6061875 0.44200000000000006 -3.9234750000000003 0.5497500000000001 -0.8621624999999999 0 -1.6618625 0 -2.0617 -0.387375 -0.23955 -0.47375 -0.395925 -0.985125 -0.46232500000000004 -1.511875 -0.49979999999999997 -2.1241250000000003 -1.4869124999999999 -7.1972499999999995 -1.4869124999999999 -7.23475 -0.0399625 -0.053625 -0.09355000000000001 -0.095625 -0.1552125 -0.1215 -0.06165 -0.026 -0.129125 -0.035 -0.19542500000000002 -0.026 -0.0662875 0.008875000000000001 -0.1289875 0.035375 -0.1815875 0.07675 -0.0526 0.041374999999999995 -0.093175 0.09599999999999999 -0.117525 0.15825 0.4748125 3.2237500000000003 1.0370875 7.184749999999999 1.074575 7.384625 0.0822375 0.74575 0.311575 1.4677499999999999 0.6747375 2.12425 0.596225 0.5806250000000001 1.3919375 0.9115 2.2241375 0.924625 1.6202625000000002 0.0052499999999999995 3.236675 -0.15800000000000003 4.823125 -0.487375 1.5744250000000002 -0.237375 3.1613 -0.51225 4.760675 -0.8121250000000001 2.349125 -0.449875 4.698125 -0.924625 7.05975 -1.2495 1.6993749999999999 -0.2625 3.386125 -0.462375 5.0729999999999995 -0.5623750000000001 0.112625 0 0.22075 -0.04475 0.300375 -0.12437500000000001 0.07974999999999999 -0.079625 0.1245 -0.18775 0.1245 -0.300375 0 -0.11275 -0.04475 -0.22075 -0.1245 -0.3005 -0.079625 -0.079625 -0.18775 -0.12437500000000001 -0.300375 -0.12437500000000001l-0.05 -0.0625Z" clip-rule="evenodd" stroke-width="1.25"></path>
  <path fill="#010101" fill-rule="evenodd" d="M28.396625 16.030375c-0.312375 -0.9621250000000001 -1.2495 -0.312375 -1.099625 0.42474999999999996 0.51225 3.561125 0.874625 7.28475 0.999625 8.246875 0.01325 0.112625 0.07075 0.215375 0.15975 0.28575 0.089 0.07025 0.20237499999999997 0.10225 0.315 0.089 0.11275 -0.01325 0.2155 -0.07062500000000001 0.285875 -0.15975 0.07025 -0.089 0.10225 -0.20237499999999997 0.089 -0.315 -0.08737500000000001 -0.9871249999999999 -0.349875 -4.960625 -0.749625 -8.571625000000001Z" clip-rule="evenodd" stroke-width="1.25"></path>
  <path fill="#222222" fill-rule="evenodd" d="M28.284125000000003 15.005749999999999c-0.10187500000000001 -1.44225 -0.370125 -2.8678749999999997 -0.7997500000000001 -4.2484 -0.093375 -0.146025 -0.22037500000000002 -0.267575 -0.370375 -0.354525 -0.15 -0.08695 -0.31862500000000005 -0.13676249999999998 -0.49175 -0.1452875 -0.5822499999999999 -0.017975 -1.164625 0.0281125 -1.73675 0.13745000000000002l-6.02275 0.7372125c-2.074125 0.2124125 -4.5482499999999995 0.587275 -6.6223875 0.837175 -1.2495125 0.1499375 -6.247574999999999 1.187 -8.7466 1.674375 -0.313 0.063875 -0.5939625 0.23475 -0.794625 0.48325 -0.200675 0.24862499999999998 -0.3085 0.55925 -0.30495 0.8787499999999999v0.737125c0 0.1375 0.18742499999999998 1.124625 0.43733750000000005 2.7615 0.01875 0.1415 0.09182499999999999 0.270125 0.20376249999999999 0.35874999999999996 0.111925 0.08862500000000001 0.25395 0.13025 0.396 0.11599999999999999l1.67435 -0.124875c0.9121374999999999 -0.1 1.7993000000000001 -0.22499999999999998 2.7114375 -0.337375 1.374475 -0.1625 2.7364375 -0.299875 4.1109125 -0.49987499999999996 1.3745125 -0.19987499999999997 2.6988875 -0.42474999999999996 4.0608875 -0.64975l10.620875000000002 -1.74925c1.212 -0.21250000000000002 1.686875 -0.449875 1.674375 -0.61225Zm-14.269499999999999 -0.47487500000000005c-0.125125 0.24825 -0.23775000000000002 0.502625 -0.337375 0.76225 -0.137375 0.362375 -0.24987499999999999 0.724625 -0.37475 1.0745l-1.5869375 0.287375c-1.336975 0.2375 -2.6864500000000002 0.524875 -4.0234375 0.78725 -0.8996500000000001 0.162375 -1.7868 0.374875 -2.6864500000000002 0.52475 -0.441975 0.08375 -0.8883625 0.142125 -1.3369875 0.17500000000000002 -0.11245 -0.61225 -0.2623875 -1.3245 -0.3498625 -2.04925 -0.0767375 -0.47175 -0.0767375 -0.95275 0 -1.424375l0.574775 -0.2c0.4248375 -0.137375 0.8746624999999999 -0.262375 1.3244875 -0.362375 0.44982500000000003 -0.09987499999999999 0.91215 -0.187375 1.361975 -0.262375 0.44982500000000003 -0.075 1.2495125 -0.149875 1.8242875 -0.237375 0 0.075 -0.13745000000000002 0.125 -0.199925 0.187375 -0.1524625 0.183375 -0.2943 0.37525000000000003 -0.424825 0.574875 -0.1249625 0.19987499999999997 -0.22491250000000002 0.39974999999999994 -0.337375 0.61225 -0.824675 1.6243750000000001 -0.8746624999999999 1.8867500000000001 -0.562275 2.086625 0.312375 0.2 0.562275 0 1.6868375 -1.3495 0.1484375 -0.179125 0.28612499999999996 -0.36687499999999995 0.4123375 -0.5622499999999999 0.13251249999999998 -0.18825000000000003 0.253525 -0.384375 0.3623625 -0.58725 0.18742499999999998 -0.374875 0.337375 -0.76225 0.5123 -1.137125l1.6493625 -0.21237499999999998 3.5111 -0.312375c-0.21237499999999998 0.287375 -0.43725 0.57475 -0.64975 0.8871249999999999 -0.129 0.24400000000000002 -0.24575 0.494125 -0.349875 0.74975v-0.0125Zm6.4975000000000005 -1.062125c-0.124875 0.2375 -0.237375 0.487375 -0.349875 0.73725 -0.11237499999999999 0.24987499999999999 -0.312375 0.8246249999999999 -0.46225000000000005 1.2495h-0.424875c-1.1745 0.125 -2.3366249999999997 0.287375 -3.498625 0.462375l-1.037125 0.187375 0.15 -0.237375c0.149875 -0.237375 0.27487500000000004 -0.47487500000000005 0.41225 -0.72475 0.125125 -0.24825 0.23775000000000002 -0.502625 0.337375 -0.76225 0.2 -0.52475 0.337375 -1.062 0.512375 -1.5993750000000002l2.836375 -0.24987499999999999c0.774625 -0.0749375 1.5618750000000001 -0.1749 2.349125 -0.2748625 -0.1375 0.1624375 -0.275 0.3123625 -0.39987500000000004 0.48736250000000003 -0.154625 0.23800000000000002 -0.296375 0.48412499999999997 -0.424875 0.737125v-0.0125Zm0.49987499999999996 1.849375 0.349875 -0.47487500000000005c0.151 -0.220625 0.28875 -0.450125 0.41225 -0.6872499999999999 0.138125 -0.23249999999999998 0.25925 -0.47462499999999996 0.362375 -0.72475 0.1875 -0.43725 0.337375 -0.874625 0.487375 -1.324425l2.4365 -0.349875c0.45125 -0.0626625 0.9065 -0.09190000000000001 1.3619999999999999 -0.0874625 0.291625 1.0143875 0.5005 2.0506374999999997 0.62475 3.0987625000000003 -2.06175 0.2375 -4.0235 0.387375 -6.035125 0.5623750000000001v-0.0125Z" clip-rule="evenodd" stroke-width="1.25"></path>
  <path fill="#222222" fill-rule="evenodd" d="m9.5164125 10.807337500000001 2.7739249999999998 -1.17455 5.6602875 -2.3116 4.773124999999999 -1.8117874999999999c0.1875 -0.074975 0.8747499999999999 -0.2873875 1.2495 -0.4873125 0.25375000000000003 -0.1080125 0.46462499999999995 -0.296925 0.5998749999999999 -0.5373 0.06799999999999999 -0.162225 0.10300000000000001 -0.336375 0.10300000000000001 -0.5123 0 -0.1759125 -0.035 -0.35007499999999997 -0.10300000000000001 -0.5123 -0.34349999999999997 -0.6589125 -0.762875 -1.275375 -1.249625 -1.8367875 -0.174875 -0.24989999999999998 -0.41225 -0.67473125 -0.66225 -0.9871099999999999 -0.14975 -0.20010250000000002 -0.33625000000000005 -0.3697475 -0.5497500000000001 -0.49980499999999994 -0.22724999999999998 -0.11592475 -0.4845 -0.159528125 -0.73725 -0.12495195C20.90125 0.104144875 20.437124999999998 0.23793625 19.987375 0.4113775c-0.6872499999999999 0.1999225 -1.3619999999999999 0.424835 -2.01175 0.6747375 -0.974625 0.36235999999999996 -1.9242500000000002 0.7622099999999999 -2.8988750000000003 1.1495475 -2.02425 0.8246874999999999 -4.1109 1.5743874999999998 -6.1476 2.4990375 -1.3811624999999998 0.5445875 -2.7251874999999997 1.1790375 -4.0234375 1.8992624999999999L2.0568125 8.3582875c-0.301325 0.14423750000000002 -0.5934375000000001 0.3069875 -0.874655 0.4873125 -0.12241250000000001 0.10208750000000001 -0.22058 0.2301375 -0.28738875 0.37484999999999996 -0.13793125 0.4349875 -0.13793125 0.902 0 1.3369875 0.179455 0.53325 0.41836875 1.0446 0.71221875 1.5244 0.14995 0.26239999999999997 0.29988750000000003 0.5372875 0.47482499999999994 0.7871625 0.13995000000000002 0.214375 0.29441249999999997 0.419 0.4623125 0.61225 1.24405 -0.275125 2.45175 -0.694375 3.5986000000000002 -1.2494750000000001l3.3736875 -1.4244375Zm8.9340875 -8.3967375c0.62475 -0.22491250000000002 1.2495 -0.437325 1.91175 -0.6122625 0.19987499999999997 -0.062474999999999996 1.0745 0 1.2495 -0.2873875l0.11237499999999999 0.13745000000000002c0.2 0.2873875 0.374875 0.6122625 0.537375 0.812175 0.162375 0.199925 0.47475 1.3369875 0.8871249999999999 1.5369125000000001 -0.337375 0.0999625 -0.8246249999999999 0.1624375 -0.924625 0.2124125l-1.9742499999999998 0.7996875000000001c-0.387375 -0.3373625 -0.77475 -0.6747375 -1.2495 -0.9996125l-0.64975 -0.44982500000000003c-0.21237499999999998 -0.13743750000000002 -0.43737499999999996 -0.26239999999999997 -0.67475 -0.38734999999999997l-0.5497500000000001 -0.26239999999999997 1.3245 -0.49979999999999997Zm-2.8739999999999997 1.099575 0.449875 -0.1749375c0.35687499999999994 0.41322499999999995 0.75 0.7937624999999999 1.1745 1.1370624999999999 0.35312499999999997 0.2489875 0.725 0.47038749999999996 1.112125 0.6622375l0.74975 0.3498625 -1.574375 0.64975 -2.3366249999999997 1.0495999999999999c-0.462375 -0.3623625 -0.8871249999999999 -0.7497125 -1.3495 -1.099575 -0.187375 -0.1567 -0.3835 -0.3027125 -0.58725 -0.43733750000000005 -0.20074999999999998 -0.140825 -0.40937500000000004 -0.27015 -0.62475 -0.38734999999999997l-0.774725 -0.37484999999999996 3.7609749999999997 -1.3744625ZM5.4305 7.5710999999999995c1.2768875 -0.67885 2.5957125 -1.2756625 3.948475 -1.7868125000000001l1.336975 -0.49979999999999997c0.3349375 0.3765625 0.6894625 0.7352625 1.0620875 1.074575 0.1935 0.16385 0.398075 0.31415 0.6122625 0.44982500000000003 0.2137 0.137 0.434825 0.2621375 0.6622 0.3748625 0.349875 0.174925 0.69975 0.312375 1.049625 0.44982500000000003l-2.236625 1.0121 -2.6864500000000002 1.2495125s0 -0.11245 -0.12494999999999999 -0.13743750000000002c-0.4998125 -0.349875 -0.9496375 -0.737225 -1.4494375000000002 -1.0745875 -0.3284125 -0.22904999999999998 -0.6705875 -0.43770000000000003 -1.0246 -0.6247625 -0.406375 -0.18375 -0.8236625 -0.342325 -1.2495125 -0.4748125l0.09995000000000001 -0.0124875Zm1.0246125 3.5986000000000002c-1.1495625 0.5247875 -2.2866125 1.0246 -3.4611625000000004 1.486925l-0.62475 -1.0121125c-0.2518125 -0.4188875 -0.44916249999999996 -0.8681625 -0.587275 -1.3369875 -0.08715 -0.2337125 -0.08715 -0.491 0 -0.7247125l0.7871875 -0.38734999999999997L4.468375 8.120875c0.38734999999999997 0.3498625 0.7622125000000001 0.6997375 1.17455 1.0121125 0.1904875 0.1544875 0.390825 0.2964 0.5997625 0.4248375 0.22491250000000002 0.12494999999999999 0.46232500000000004 0.2374 0.6872375 0.3373625 0.40792500000000004 0.17635 0.8250375 0.3306875 1.2495125 0.46232500000000004l-1.7243249999999999 0.8121875000000001Z" clip-rule="evenodd" stroke-width="1.25"></path>
  <path fill="#010101" fill-rule="evenodd" d="M7.8546249999999995 22.62775c-0.09842500000000001 0.003125 -0.1919625 0.043625 -0.26158750000000003 0.11325 -0.0696375 0.06962499999999999 -0.1101375 0.16312500000000002 -0.11326249999999999 0.261625 -0.00175 0.049625 0.006762499999999999 0.09912499999999999 0.024975 0.14550000000000002 0.018224999999999998 0.04625 0.045774999999999996 0.08825 0.0809375 0.123375 0.0351625 0.03525 0.07718749999999999 0.06275 0.12345 0.08099999999999999 0.046275 0.018125000000000002 0.0958 0.02675 0.1454875 0.025 0.7752375 0.02925 1.5515625 0.008375 2.3241 -0.0625 1.1370624999999999 -0.1 2.261625 -0.287375 3.39865 -0.43737499999999996 1.137125 -0.149875 2.499 -0.362375 3.7486249999999997 -0.57475 0.8371249999999999 -0.15 1.6742499999999998 -0.324875 2.499 -0.49987499999999996 1.1119999999999999 -0.262375 2.224125 -0.5497500000000001 3.348625 -0.762125 0.7384999999999999 -0.155125 1.48525 -0.26775 2.236625 -0.337375 0.055874999999999994 -0.00325 0.11050000000000001 -0.017374999999999998 0.16087500000000002 -0.041749999999999995s0.09537500000000002 -0.058374999999999996 0.1325 -0.100125c0.037125 -0.041875 0.065625 -0.09050000000000001 0.08399999999999999 -0.143375 0.01825 -0.052875 0.025875 -0.10874999999999999 0.0225 -0.16462500000000002 -0.003125 -0.05575 -0.017374999999999998 -0.110375 -0.041749999999999995 -0.16075 -0.02425 -0.050375 -0.058374999999999996 -0.09537500000000002 -0.100125 -0.1325 -0.041749999999999995 -0.037125 -0.09050000000000001 -0.06575 -0.143375 -0.08399999999999999 -0.052750000000000005 -0.01825 -0.10874999999999999 -0.026 -0.16449999999999998 -0.022625000000000003 -0.77475 0 -1.562 0.075 -2.349125 0.1625 -0.78725 0.08750000000000001 -1.8867500000000001 0.262375 -2.823875 0.39987500000000004v-0.41237500000000005c0.012750000000000001 -0.14550000000000002 0.012750000000000001 -0.291875 0 -0.43737499999999996 -0.02425 -0.14475 -0.061875 -0.287 -0.11249999999999999 -0.42474999999999996 0 -0.125 -0.59975 -1.2495 -1.012125 -1.2495 -0.124875 0 -0.337375 0 -0.337375 1.474375 -0.018375 0.136875 -0.018375 0.2755 0 0.41237500000000005 0.028375 0.137 0.07025 0.271 0.125 0.39974999999999994 0.042374999999999996 0.11975 0.0925 0.236625 0.149875 0.349875 -1.062 0.17500000000000002 -2.149125 0.312375 -3.2237500000000003 0.49987499999999996 -0.749625 0.124875 -1.4993750000000001 0.287375 -2.249125 0.43725v-0.57475c0.012875000000000001 -0.15375 0.012875000000000001 -0.3085 0 -0.46225000000000005 -0.020125 -0.1485 -0.0535 -0.294875 -0.09987499999999999 -0.43737499999999996 -0.41237500000000005 -1.436875 -0.6872499999999999 -1.3995 -0.8247500000000001 -1.3744999999999998 -0.1374125 0.025 -0.46228749999999996 -0.11237499999999999 -0.5247625 1.537 -0.0184 0.157625 -0.0184 0.317 0 0.47475 0.0182125 0.15812500000000002 0.0559875 0.3135 0.11246249999999999 0.462375 0.068075 0.20987499999999998 0.1516 0.414625 0.24989999999999998 0.61225 -0.8246874999999999 0.21237499999999998 -1.66185 0.42474999999999996 -2.499025 0.58725 -0.6872875 0.15875 -1.3844 0.2715 -2.0867 0.337375Z" clip-rule="evenodd" stroke-width="1.25"></path>
</svg>