<svg xmlns="http://www.w3.org/2000/svg" fill="none" viewBox="0 0 30 30" id="Cleaning-Man--Streamline-Freehand" height="30" width="30">
  <desc>
    Cleaning Man Streamline Icon: https://streamlinehq.com
  </desc>
  <path fill="#010101" fill-rule="evenodd" d="M7.2773625 13.13675c0.075 -0.22499999999999998 0.11249999999999999 -0.4375 0.2 -0.6500250000000001 0.11069999999999999 -0.2733875 0.244525 -0.5368375000000001 0.4 -0.7875 0.0359125 -0.034937499999999996 0.06445000000000001 -0.076725 0.0839375 -0.1228875 0.019487499999999998 -0.046150000000000004 0.0295375 -0.09575 0.0295375 -0.14585 0 -0.050112500000000004 -0.01005 -0.0997125 -0.0295375 -0.1458625 -0.019487499999999998 -0.046162499999999995 -0.048025000000000005 -0.08795 -0.0839375 -0.1228875 -0.0722 -0.0695125 -0.16852499999999998 -0.10834999999999999 -0.26875 -0.10834999999999999s-0.19655 0.0388375 -0.26875 0.10834999999999999c-0.4995125 0.355425 -0.9242375 0.8056375 -1.25 1.3249875 -0.1313125 0.23502499999999998 -0.24012499999999998 0.48202500000000004 -0.325 0.737525 -0.0751125 0.252875 -0.12535 0.512375 -0.15 0.775 -0.061762500000000005 0.59 -0.061762500000000005 1.184875 0 1.775 0.0173875 0.10175000000000001 0.070225 0.194125 0.14915 0.26075000000000004 0.07891250000000001 0.0665 0.17885 0.10300000000000001 0.2821 0.10300000000000001 0.10326250000000001 0 0.2031875 -0.0365 0.2821125 -0.10300000000000001 0.078925 -0.066625 0.13174999999999998 -0.159 0.1491375 -0.26075000000000004 0.1320125 -0.691875 0.32871249999999996 -1.3698750000000002 0.5874999999999999 -2.0250000000000004 0.075 -0.2 0.1375 -0.41250000000000003 0.21250000000000002 -0.6125Z" clip-rule="evenodd" stroke-width="1.25"></path>
  <path fill="#222222" fill-rule="evenodd" d="M5.7275624999999994 10.67445c-0.1351125 -0.333225 -0.3114875 -0.6481874999999999 -0.525 -0.9375 -0.24658750000000002 -0.2381375 -0.5052625000000001 -0.46343750000000006 -0.775 -0.675 -0.0679 -0.0623125 -0.1557875 -0.098375 -0.247875 -0.10173750000000001 -0.09209999999999999 -0.00335 -0.182375 0.026225 -0.2546375 0.083425 -0.07225 0.0572125 -0.12175 0.1382875 -0.139625 0.22870000000000001 -0.0178625 0.0904125 -0.002925 0.18422500000000003 0.042137499999999994 0.2646125 0.1446 0.31575 0.3117 0.6207 0.5 0.9125 0.2 0.2625 0.4625 0.44999999999999996 0.675 0.6875 0.030375 0.0476 0.069825 0.08876250000000001 0.1160875 0.12111250000000001 0.046275 0.0323625 0.09847500000000001 0.055287499999999996 0.15361249999999999 0.06747500000000001 0.055137500000000006 0.0121875 0.112125 0.0134 0.16772499999999999 0.0035625 0.0556 -0.0098375 0.108725 -0.030537500000000002 0.156325 -0.060899999999999996 0.0476125 -0.030375 0.08876250000000001 -0.0698125 0.121125 -0.1160875 0.0323625 -0.046275 0.055287499999999996 -0.09847500000000001 0.06747500000000001 -0.15361249999999999 0.0121875 -0.055125 0.0134 -0.112125 0.00355 -0.16772499999999999 -0.0098375 -0.0556 -0.030525 -0.108725 -0.060899999999999996 -0.156325Z" clip-rule="evenodd" stroke-width="1.25"></path>
  <path fill="#222222" fill-rule="evenodd" d="M9.9649 15.1115c-0.2729875 -0.337375 -0.5651375000000001 -0.6587500000000001 -0.875 -0.9625 -0.028712500000000002 -0.043125000000000004 -0.0660125 -0.079625 -0.10956250000000001 -0.107625 -0.0435375 -0.027875 -0.09238750000000001 -0.0465 -0.1434625 -0.05462500000000001 -0.051075 -0.008 -0.103275 -0.0055000000000000005 -0.15332500000000002 0.0075 -0.05005 0.013 -0.0968625 0.036250000000000004 -0.1375 0.06825 -0.040625 0.032 -0.0742125 0.072 -0.09862499999999999 0.11762500000000001 -0.024412499999999997 0.045625 -0.039125 0.09575 -0.043225 0.14725 -0.0040999999999999995 0.051625000000000004 0.0025 0.1035 0.0194 0.15237499999999998 0.016900000000000002 0.048875 0.043725 0.09362499999999999 0.0788 0.13174999999999998 0.25 0.41250000000000003 0.4375 0.775 0.65 1.0875 0.15757500000000002 0.23875000000000002 0.3286875 0.46825 0.5125 0.6875 0.4489875 0.575125 0.9376875 1.1179999999999999 1.4625 1.625 0.07791250000000001 0.082875 0.18555 0.131375 0.2992375 0.134875 0.1137 0.0035 0.224125 -0.03825 0.3070125 -0.11612499999999999 0.082875 -0.078 0.1314125 -0.18562499999999998 0.13493750000000002 -0.29925 0.0035125 -0.11374999999999999 -0.0382875 -0.224125 -0.1161875 -0.307 -0.6346625 -0.7401249999999999 -1.2312625000000001 -1.511875 -1.7874999999999999 -2.3125Z" clip-rule="evenodd" stroke-width="1.25"></path>
  <path fill="#010101" fill-rule="evenodd" d="M15.814250000000001 16.47375c-0.08800000000000001 -0.7335 -0.30825 -1.444875 -0.65 -2.099875 -0.663875 -1.2725 -1.6846249999999998 -2.323775 -2.9372375 -3.0246750000000002 -0.0449625 -0.021175 -0.09405 -0.03215 -0.1437375 -0.03215 -0.049699999999999994 0 -0.098775 0.010974999999999999 -0.1437375 0.03215 0.0128375 -0.241475 0.0128375 -0.4834625 0 -0.7249375 0 -0.324975 -0.0999875 -0.64995 -0.1499875 -0.9624125l0.3999625 -0.075c1.5919875 -0.3261625 2.9974875 -1.2526499999999998 3.9246125 -2.587275 0.41825 -0.6723875 0.65525 -1.4415875 0.688 -2.2327500000000002 0.032875 -0.7911625 -0.13974999999999999 -1.5773375 -0.500875 -2.2820125 -0.361125 -0.7046874999999999 -0.898625 -1.30388 -1.56 -1.73927875 -0.661375 -0.43539875 -1.42425 -0.69217375 -2.2142500000000003 -0.74533754C11.638012499999999 -0.013497750000000001 10.758925 0.18805 9.964712500000001 0.587645c-0.9046875 0.43655125000000006 -1.6946375 1.0787674999999999 -2.306675 1.8752925 -0.6120375 0.7965125000000001 -1.0291625 1.7252124999999998 -1.2180125 2.7117999999999998 -0.11958750000000001 0.7164375000000001 -0.0285 1.4521875 0.2621625 2.11785 0.290675 0.66565 0.7684124999999999 1.23255 1.3751875 1.631825 0.48224999999999996 0.34738749999999996 1.0384 0.5784 1.6248624999999999 0.6749375000000001 0.4149875 0.0522875 0.8349 0.0522875 1.2498875 0 0 0.299975 -0.075 0.58745 -0.1 0.887425 -0.024987500000000003 0.299975 0 0.49995 0 0.7499250000000001 0 0.9499249999999999 0.125 1.8998000000000002 0.2124875 2.8373 0.0173875 0.10175000000000001 0.0702125 0.194125 0.149125 0.260625 0.078925 0.066625 0.1788375 0.10312500000000001 0.2820875 0.10312500000000001s0.20316250000000002 -0.0365 0.282075 -0.10312500000000001c0.078925 -0.0665 0.13174999999999998 -0.158875 0.1491375 -0.260625 0 -0.6875 0 -1.374875 0.0624875 -2.0623625 0.8737250000000001 0.8229875 1.530725 1.8492375 1.91235 2.9872375 0.22887500000000002 0.5445 0.3885 1.1156249999999999 0.475 1.699875 0.11900000000000001 0.54775 0.11900000000000001 1.114625 0 1.6623750000000002 -0.0935 0.418875 -0.263 0.817 -0.5 1.174875 -0.26075000000000004 0.37424999999999997 -0.56725 0.714375 -0.9123749999999999 1.012375 -0.08787500000000001 0.07125000000000001 -0.143875 0.1745 -0.1555 0.287 -0.01175 0.11249999999999999 0.021625 0.22512500000000002 0.093 0.313 0.07125000000000001 0.08775 0.1745 0.14375000000000002 0.287 0.1555 0.11249999999999999 0.011625 0.22499999999999998 -0.02175 0.312875 -0.093 0.4555 -0.291375 0.875 -0.635375 1.249875 -1.025 0.4305 -0.502625 0.7545000000000001 -1.087625 0.9521250000000001 -1.71925 0.197625 -0.6317499999999999 0.265 -1.296875 0.19775 -1.955375l-0.08737500000000001 -0.0375ZM10.2646875 8.2619625c-0.484 -0.0364 -0.949725 -0.200275 -1.3498875 -0.47495000000000004 -0.5055875 -0.339975 -0.8785750000000001 -0.8437749999999999 -1.05615 -1.4265875000000001 -0.17757499999999998 -0.5828125 -0.1488875 -1.2089999999999999 0.0812375 -1.7731374999999998 0.4072875 -1.3111625 1.302 -2.4161375 2.499775 -3.087225 0.61425 -0.3713725 1.3086125000000002 -0.58997 2.024825 -0.6374425 0.5965125 0.061211249999999995 1.1675125 0.27415 1.6583875000000001 0.61853 0.491 0.34437500000000004 0.885625 0.808725 1.14625 1.3488 0.260625 0.5400875 0.378625 1.1379124999999999 0.34275 1.7365249999999999 -0.035875 0.5986 -0.224375 1.1780625 -0.547625 1.683175 -0.78675 1.0120375 -1.93225 1.6832 -3.1997125 1.874825 -0.5232625 0.12645 -1.0626875 0.1728 -1.59985 0.1374875Z" clip-rule="evenodd" stroke-width="1.25"></path>
  <path fill="#010101" fill-rule="evenodd" d="M9.6397625 19.6735c-0.62605 0.84375 -1.1505 1.758375 -1.5625 2.725 -0.25405 0.646 -0.4588 1.3105 -0.6125 1.9875 -0.1277375 0.509625 -0.2196375 1.0274999999999999 -0.275 1.55 -0.1433125 1.227625 -0.1096375 2.469375 0.1 3.6875 0.0156 0.111625 0.0737 0.213 0.16219999999999998 0.282875 0.0885 0.06987499999999999 0.2005625 0.102875 0.3128 0.092125 0.05665 -0.0045 0.11174999999999999 -0.020625 0.1618625 -0.047375 0.050112500000000004 -0.026874999999999996 0.0941625 -0.063625 0.1293625 -0.10825 0.0352125 -0.044625000000000005 0.060825000000000004 -0.09599999999999999 0.0752375 -0.151 0.014425 -0.054875 0.017325 -0.11225 0.0085375 -0.168375 -0.024775000000000002 -1.138 0.0843125 -2.275 0.325 -3.3875 0.1 -0.475 0.2 -0.95 0.3125 -1.4249999999999998 0.11249999999999999 -0.475 0.3375 -1.25 0.525 -1.8875 0.26926249999999996 -0.946125 0.611975 -1.86975 1.025 -2.7625 0.0398 -0.083875 0.047099999999999996 -0.1795 0.020512500000000003 -0.26837500000000003 -0.0266 -0.088875 -0.0852 -0.16475 -0.1644875 -0.212875 -0.0792875 -0.04825 -0.173625 -0.065375 -0.2647875 -0.047999999999999994 -0.09115 0.01725 -0.17265 0.06775 -0.2287375 0.14175h-0.05Z" clip-rule="evenodd" stroke-width="1.25"></path>
  <path fill="#222222" fill-rule="evenodd" d="M25.87675 24.023374999999998c-0.0535 -0.012375 -0.109125 -0.012375 -0.1625 0l0.08750000000000001 -0.11249999999999999c0.034125 -0.045 0.058875000000000004 -0.09625 0.073 -0.151 0.014124999999999999 -0.05462500000000001 0.017125 -0.1115 0.009 -0.167375 -0.008125 -0.055874999999999994 -0.02725 -0.1095 -0.056375 -0.157875s-0.067625 -0.09050000000000001 -0.113125 -0.12375c-0.092 -0.06575 -0.20575 -0.093375 -0.317625 -0.077125 -0.111875 0.016375 -0.213125 0.07525 -0.282375 0.16462500000000002 -0.21250000000000002 0.26375 -0.5075000000000001 0.44875 -0.8375 0.525 -0.146 0.040375 -0.29862500000000003 0.051250000000000004 -0.44887499999999997 0.032 -0.15025 -0.019375 -0.295125 -0.0685 -0.426125 -0.1445 -0.185 -0.1285 -0.35662499999999997 -0.275 -0.5125 -0.4375 -0.275 -0.3 -0.525 -0.625 -0.8 -0.9125 -0.38637499999999997 -0.391625 -0.848125 -0.701 -1.35725 -0.909375 -0.509125 -0.20837499999999998 -1.05525 -0.3115 -1.60525 -0.303125 -0.8602500000000001 0.007 -1.6893749999999998 0.321875 -2.3375000000000004 0.8875l-0.1875 -0.17500000000000002c-0.3125 -0.28750000000000003 -0.6125 -0.6 -0.8250000000000001 -0.8250000000000001 -0.033875 -0.035625000000000004 -0.074625 -0.063875 -0.11975 -0.08325 -0.045125 -0.019375 -0.09375 -0.02925 -0.14275 -0.02925 -0.049125 0 -0.09775 0.009875000000000002 -0.142875 0.02925 -0.045125 0.019375 -0.08574999999999999 0.047625 -0.119625 0.08325 -0.036 0.034875 -0.0645 0.076625 -0.08399999999999999 0.122875 -0.0195 0.046125 -0.0295 0.09575 -0.0295 0.145875 0 0.05 0.01 0.09962499999999999 0.0295 0.145875 0.0195 0.046125 0.047999999999999994 0.08787500000000001 0.08399999999999999 0.122875 0.2 0.25 0.5125 0.6 0.8250000000000001 0.925l0.2 0.2c-0.347875 0.57325 -0.557125 1.219625 -0.611375 1.888 -0.05425 0.6683749999999999 0.047999999999999994 1.340125 0.298875 1.9620000000000002 0.22375 0.6165 0.589125 1.171875 1.06675 1.6212499999999999 0.47762499999999997 0.44949999999999996 1.0542500000000001 0.7803749999999999 1.6832500000000001 0.96625 0.8158749999999999 0.199625 1.663625 0.232875 2.492625 0.0975 0.829 -0.13525 1.6222500000000002 -0.43624999999999997 2.332375 -0.885 0.6965 -0.441625 1.2938749999999999 -1.022875 1.7542499999999999 -1.7069999999999999 0.4605 -0.68425 0.774 -1.4565000000000001 0.9207500000000001 -2.268 0.01075 -0.052125000000000005 0.010375 -0.105875 -0.00125 -0.157875 -0.0115 -0.051875000000000004 -0.033999999999999996 -0.10075 -0.066 -0.143375 -0.031875 -0.0425 -0.07250000000000001 -0.077875 -0.119125 -0.1035 -0.046625 -0.025625000000000002 -0.098125 -0.041124999999999995 -0.15112499999999998 -0.045250000000000005Zm-2.8875 3.4749999999999996c-0.593875 0.3215 -1.24675 0.5193749999999999 -1.9191250000000002 0.581625 -0.6725000000000001 0.062375 -1.350625 -0.01225 -1.993375 -0.21912500000000001 -0.424125 -0.137 -0.809625 -0.372625 -1.1247500000000001 -0.6877500000000001 -0.315125 -0.315125 -0.550875 -0.700625 -0.6877500000000001 -1.1247500000000001 -0.169875 -0.39949999999999997 -0.24575 -0.8326250000000001 -0.222 -1.266 0.023875 -0.4335 0.14687499999999998 -0.855625 0.35950000000000004 -1.234 0.185875 -0.30825 0.445375 -0.5655 0.7551249999999999 -0.74875 0.30974999999999997 -0.18325000000000002 0.66025 -0.28675 1.0198749999999999 -0.30125 0.38 -0.029125 0.7618750000000001 0.019125 1.12275 0.1415 0.361 0.1225 0.693375 0.31662500000000005 0.9772500000000001 0.571 0.3375 0.3125 0.65 0.6875 1.0125000000000002 1 0.17575000000000002 0.15825 0.368625 0.296625 0.5750000000000001 0.41250000000000003 0.475125 0.24225 1.024375 0.295875 1.5375 0.15 -0.210375 0.16725 -0.4365 0.31375 -0.675 0.4375 -0.215375 0.10437500000000001 -0.4365 0.19625 -0.6625000000000001 0.275 -0.22162500000000002 0.07400000000000001 -0.44699999999999995 0.136625 -0.675 0.1875 -0.254875 0.08274999999999999 -0.524 0.11225 -0.7906249999999999 0.086375 -0.26675 -0.025750000000000002 -0.52525 -0.10625000000000001 -0.759375 -0.236375 -0.073 -0.06962499999999999 -0.17062500000000003 -0.10749999999999998 -0.271375 -0.105125 -0.10075 0.002375 -0.1965 0.044625000000000005 -0.266125 0.11762500000000001 -0.06962499999999999 0.072875 -0.10749999999999998 0.17049999999999998 -0.105125 0.27125 0.002375 0.10087499999999999 0.044625000000000005 0.196625 0.11762500000000001 0.26625 0.2695 0.32099999999999995 0.609125 0.575875 0.99275 0.745 0.383625 0.16899999999999998 0.800875 0.24774999999999997 1.21975 0.22999999999999998 0.34924999999999995 -0.018625 0.69425 -0.08587499999999999 1.025 -0.2 0.26125 -0.107875 0.5087499999999999 -0.246375 0.7374999999999999 -0.41250000000000003 -0.369 0.42625 -0.8087500000000001 0.7857500000000001 -1.3 1.0625Z" clip-rule="evenodd" stroke-width="1.25"></path>
  <path fill="#010101" fill-rule="evenodd" d="M13.877125 24.69825c-0.19199999999999998 -0.668625 -0.44725000000000004 -1.3175000000000001 -0.7625 -1.9375 -0.015625 -0.046875 -0.04025 -0.090125 -0.07250000000000001 -0.1275 -0.03225 -0.03725 -0.071625 -0.06775 -0.11575 -0.08987500000000001 -0.044125 -0.022000000000000002 -0.092125 -0.035125 -0.141375 -0.038625 -0.049249999999999995 -0.0035 -0.09862499999999999 0.0027500000000000003 -0.145375 0.018500000000000003 -0.0955 0.033999999999999996 -0.17388750000000003 0.104125 -0.218275 0.19525 -0.0444 0.09112500000000001 -0.051324999999999996 0.196 -0.019275 0.29225 0.15005 0.65 0.20004999999999998 1.25 0.28755 1.925l0.1875 1.25 0.15 1.25c0.075 0.65 0.1625 1.25 0.2 1.9625000000000001 -0.000125 0.113875 0.04425 0.22325 0.123625 0.305 0.079375 0.08175 0.1875 0.12925 0.301375 0.1325 0.113875 0 0.22325 -0.044375 0.305 -0.12375 0.081625 -0.079375 0.12925 -0.187375 0.1325 -0.30125 0.083125 -0.680375 0.129 -1.3647500000000001 0.1375 -2.05 -0.004375 -0.4555 -0.033625 -0.91025 -0.08750000000000001 -1.3625 -0.057875 -0.438875 -0.145625 -0.873125 -0.2625 -1.3Z" clip-rule="evenodd" stroke-width="1.25"></path>
</svg>