<svg xmlns="http://www.w3.org/2000/svg" fill="none" viewBox="0 0 30 30" id="Cloud-Phone-Exchange--Streamline-Freehand" height="30" width="30">
  <desc>
    Cloud Phone Exchange Streamline Icon: https://streamlinehq.com
  </desc>
  <path fill="#f7f7f7" fill-rule="evenodd" d="M22.493125 17.008000000000003c1.355375 0.784875 2.8718749999999997 1.2505 4.4342500000000005 1.3615 0.899375 -0.31224999999999997 1.249125 -1.249125 1.86125 -1.8736249999999999l0.437125 0.24975c0.097125 0.047999999999999994 0.20850000000000002 0.05825 0.31275 0.028749999999999998 0.10425000000000001 -0.0295 0.19375 -0.09662499999999999 0.25125000000000003 -0.18837500000000001 0.057625 -0.09175000000000001 0.07900000000000001 -0.201625 0.06025 -0.30825 -0.018875 -0.106625 -0.076625 -0.2025 -0.16212500000000002 -0.269 -1.59875 -1.03675 -8.006625 -3.422625 -9.218375 -1.961125 -1.049125 1.249125 -3.7472499999999997 11.39175 -3.597375 12.89075 0.04775 0.22612500000000002 0.142375 0.43975 0.27799999999999997 0.627 0.1355 0.18724999999999997 0.309 0.34375 0.509 0.45962500000000006 1.63625 1.1492499999999999 7.994250000000001 2.798 9.33075 1.499 0.5995 -0.587125 2.6855 -10.917125 2.8105 -11.579250000000002 0.010625 -0.048375 0.011625 -0.098375 0.0029999999999999996 -0.147125 -0.008625 -0.04875 -0.026874999999999996 -0.09537500000000002 -0.0535 -0.137125 -0.02675 -0.041749999999999995 -0.061375 -0.077875 -0.10200000000000001 -0.10625000000000001 -0.040625 -0.028375 -0.086375 -0.0485 -0.134875 -0.059125000000000004 -0.048375 -0.010625 -0.098375 -0.01175 -0.147125 -0.0029999999999999996 -0.04875 0.008625 -0.09537500000000002 0.026874999999999996 -0.137125 0.0535 -0.041749999999999995 0.02675 -0.077875 0.061375 -0.10625000000000001 0.10200000000000001 -0.028375 0.040625 -0.0485 0.086375 -0.059125000000000004 0.13475 -1.5738750000000001 6.70775 -3.07275 10.967125 -2.9728749999999997 10.82975 0 0.0625 0 0.11237499999999999 -0.074875 0.09987499999999999 -0.075 -0.0125 0 -0.062375 0 -0.08737500000000001 -0.3005 0.064875 -0.611375 0.064875 -0.911875 0 -2.7479999999999998 -0.08750000000000001 -7.232374999999999 -1.76125 -6.882625 -2.0235 0 -1.249125 2.323375 -10.87975 3.022875 -11.879 0.19862500000000002 -0.09275 0.4195 -0.12737500000000002 0.637 -0.09987499999999999 -0.024875 0.93675 -0.124875 1.9485 0.612125 2.3857500000000003Zm5.421125 -0.899375c-0.299875 0.26225 -0.624625 0.612 -0.9368750000000001 0.874375 -0.31224999999999997 0.26225 -0.487125 0.0625 -1.249125 -0.19987499999999997 -2.285875 -0.786875 -2.185875 -0.712 -2.498125 -0.849375 0.187375 -0.21237499999999998 0.062375 -0.712 -0.1 -1.136625 1.6266249999999998 0.257 3.2188749999999997 0.696875 4.746625 1.3114999999999999h0.0375Z" clip-rule="evenodd" stroke-width="1.25"></path>
  <path fill="#f7f7f7" fill-rule="evenodd" d="M15.672999999999998 6.2657125c-0.6869999999999999 -0.5620875000000001 -0.6745 0 -0.27475 -0.7744375000000001 0.39425 -0.8794875000000001 0.4345 -1.8770875 0.11237499999999999 -2.7855000000000003C14.523875 0.020211374999999997 10.6891125 -1.04152375 8.7530125 1.2693124999999998c-0.3997125 0.4746625 -0.2623125 0.4746625 -0.387225 0.374725 -0.5113 -0.379575 -1.1232625 -0.599805 -1.7591875000000001 -0.63310625 -0.635925 -0.0333025 -1.2675375 0.12181125 -1.8157 0.44590625 -0.54815 0.3240875 -0.988475 0.80275 -1.2657874999999998 1.3759875 -0.27731249999999996 0.57325 -0.37927500000000003 1.2155874999999998 -0.29312499999999997 1.846525C0.8711875 4.716825 -0.9400074999999999 6.902749999999999 0.89617 9.7507c0.23732875 0.3622375 1.6113425000000001 1.3490375 2.210905 1.04925 0.0927625 -0.0381 0.1665875 -0.1114875 0.20523750000000002 -0.20401249999999999 0.03865 -0.092525 0.0389625 -0.196625 0.0008625 -0.2893875 -0.0380875 -0.09275 -0.11147499999999999 -0.16657499999999997 -0.20401249999999999 -0.20523750000000002 -0.092525 -0.03865 -0.196625 -0.0389625 -0.289375 -0.0008625 0 0.1873625 -0.4746625 -0.19985 -0.7369749999999999 -0.38721249999999996 -0.17867500000000003 -0.10685 -0.33895000000000003 -0.24182499999999998 -0.47465 -0.3997125 -0.303 -0.38545 -0.485885 -0.8515375000000001 -0.525865 -1.3401874999999999 -0.039981249999999996 -0.48865 0.0647075 -0.9782625 0.3010275 -1.4078375 0.1938875 -0.2508625 0.44151250000000003 -0.45511250000000003 0.7246625 -0.597775 0.28315 -0.1426625 0.5946625 -0.2201 0.91165 -0.2266375h0.4746625l0.34975 0.1998625c0.11978749999999999 0.0420375 0.2503 0.0422875 0.37025 0.0006999999999999999 0.1199625 -0.041575 0.2223 -0.12255 0.29036249999999997 -0.229725 0.068075 -0.1071625 0.09785 -0.234225 0.08449999999999999 -0.36047500000000005 -0.01335 -0.1262625 -0.0690625 -0.24427500000000002 -0.1580375 -0.3348375 -0.0228625 -0.0646625 -0.0228625 -0.13520000000000001 0 -0.19985 -0.06165 -0.38344999999999996 -0.010950000000000001 -0.7765374999999999 0.1459625 -1.1318000000000001 0.156925 -0.35525 0.41335 -0.657475 0.7383000000000001 -0.87015 0.3249625 -0.212675 0.70455 -0.3267 1.0929125000000002 -0.328325 0.38836250000000005 -0.0016124999999999998 0.7688875000000001 0.10925000000000001 1.0956125 0.3192125 0.1692125 0.19047499999999998 0.29305000000000003 0.416825 0.3622375 0.662025 0.055874999999999994 0.1293625 0.1482625 0.2396125 0.26585000000000003 0.3172625 0.1175875 0.0776625 0.2552625 0.119325 0.396175 0.119925 0.936825 0 0.5496 -1.3365375 1.73625 -2.0984875 0.43622500000000003 -0.2398625 0.931 -0.352525 1.428075 -0.325175 0.49707500000000004 0.02735 0.9765 0.1936 1.38375 0.47987500000000005 0.40737500000000004 0.286275 0.7261249999999999 0.6810624999999999 0.92025 1.1395 0.194 0.45844999999999997 0.255625 0.9621375 0.177625 1.453825 -0.16799999999999998 0.43755 -0.38150000000000006 0.856225 -0.637 1.2490999999999999l-0.224875 0.2498125c-0.09849999999999999 0.0663875 -0.17937499999999998 0.155575 -0.235875 0.259975 -0.056625 0.1043875 -0.087125 0.22088750000000001 -0.088875 0.33959999999999996 0 0.162375 0.46212499999999995 0.9118375 1.03675 0.5995625h0.149875c0.96175 -0.1374 1.923625 1.5863625000000001 0.8118749999999999 2.335825 -2.498175 1.7612249999999998 -4.3843250000000005 1.1866375 -7.8443249999999995 1.0617375 -0.9094875 0.0066625 -1.816125 -0.102475 -2.6980625000000003 -0.324775 -0.09938749999999999 -0.0563125 -0.2170625 -0.07085 -0.3271625 -0.0403875 -0.1101 0.030449999999999998 -0.2036 0.10338750000000001 -0.2599125 0.202775 -0.0563125 0.09938749999999999 -0.07085 0.21707500000000002 -0.040400000000000005 0.3271625 0.0304625 0.1101 0.1034 0.2036 0.2027875 0.2599125 0.9889125 0.3408 2.0268125 0.518 3.0727875 0.524625 3.5349500000000003 0.237325 5.6334125 0.89935 8.5812875 -0.9992875 0.360875 -0.23481249999999998 0.657375 -0.556025 0.8626250000000001 -0.9344750000000001 0.20525000000000002 -0.3784625 0.31275 -0.802175 0.31275 -1.2327124999999999 0 -0.430525 -0.10749999999999998 -0.85425 -0.31275 -1.2327000000000001 -0.20525000000000002 -0.37844999999999995 -0.5017499999999999 -0.6996625 -0.8626250000000001 -0.9344874999999999Z" clip-rule="evenodd" stroke-width="1.25"></path>
  <path fill="#ff8b04" fill-rule="evenodd" d="M11.988075 21.142500000000002c-0.46216250000000003 -0.437125 -0.6869999999999999 -0.799375 -1.1241875 -0.712 -0.0504 0.013 -0.0975375 0.0365 -0.1384 0.06875s-0.07455 0.072625 -0.098925 0.118625c-0.24982500000000002 0.34975 0.374725 0.7745000000000001 0.662025 1.249125l1.3240374999999998 1.67375c-0.9511625 0.01625 -1.8872 -0.2395 -2.6980500000000003 -0.737 -0.9320249999999999 -0.6194999999999999 -1.7087374999999998 -1.4455 -2.2698 -2.4137500000000003 -0.561075 -0.9683750000000001 -0.8914125 -2.053 -0.965375 -3.169625 -0.037375 -0.6407499999999999 -0.037375 -1.283 0 -1.923625l1.6363249999999998 1.836125c0.1498875 0.19987499999999997 0.4246875 0.8868750000000001 0.8868624999999999 0.849375 0.0623 0.004125 0.1247375 -0.0055000000000000005 0.182875 -0.028249999999999997 0.0581375 -0.02275 0.1105375 -0.058124999999999996 0.153475 -0.103375 0.042937499999999997 -0.045375 0.07535 -0.09962499999999999 0.09493750000000001 -0.158875 0.0195875 -0.05925 0.0258625 -0.122125 0.0183875 -0.18412499999999998 -0.5142125 -1.10725 -1.1421375 -2.1578749999999998 -1.87365 -3.13525 -0.241325 -0.390375 -0.5653874999999999 -0.722875 -0.9493125 -0.97425 -1.2490999999999999 -0.587125 -3.9471625 3.7472499999999997 -3.97215 3.82225 -0.01645 0.056874999999999995 -0.016999999999999998 0.11725 -0.0015875000000000002 0.1745 0.0154125 0.05725 0.0462 0.10925000000000001 0.089025 0.15025 0.2873 0.38725000000000004 0.599575 0.074875 2.8729375 -2.0485 -0.017975 0.38649999999999995 -0.06811249999999999 0.770875 -0.1499 1.149125 -0.27005 1.443875 -0.0474875 2.936625 0.6319874999999999 4.239s1.7765374999999999 2.338875 3.115325 2.9433749999999996c0.8991125 0.364375 1.8662625 0.5305 2.83545 0.487125 -1.2490999999999999 1.3114999999999999 -2.14845 1.69875 -2.0610125000000004 2.135875 0.1873625 0.787 1.074225 0.1625 1.7487374999999998 -0.29975l2.3233875 -1.73625c0.99925 -0.799375 -1.16175 -2.39825 -2.273425 -3.272625Z" clip-rule="evenodd" stroke-width="1.25"></path>
</svg>