<svg xmlns="http://www.w3.org/2000/svg" fill="none" viewBox="0 0 30 30" id="Programming-Code-Idea--Streamline-Freehand" height="30" width="30">
  <desc>
    Programming Code Idea Streamline Icon: https://streamlinehq.com
  </desc>
  <path fill="#010101" fill-rule="evenodd" d="M30 17.876125000000002c-0.43674999999999997 -0.8863749999999999 -0.9650000000000001 -1.7247499999999998 -1.575875 -2.5015 -0.463625 -0.5746249999999999 -1.078875 -1.007875 -1.776125 -1.25075 -0.34450000000000003 -0.082375 -0.705875 -0.060625 -1.038 0.0625 -0.48787499999999995 0.150125 -1.075625 0.437875 -1.601 0.625375 -0.52525 0.18762500000000001 -0.7630000000000001 -0.075 -0.963 -0.337625 -0.40025 -0.5503750000000001 -0.7130000000000001 -1.25075 -1.063125 -1.7135 -0.51225 -0.7069124999999999 -1.196875 -1.2709625 -1.98875 -1.6384750000000001 -0.257375 -0.0930625 -0.53225 -0.12787500000000002 -0.8047500000000001 -0.101925 -0.2725 0.02595 -0.535875 0.11202500000000001 -0.7711250000000001 0.25201250000000003 -0.43512500000000004 0.2351 -0.762375 0.6295499999999999 -0.913 1.1006375 -0.186 0.6094999999999999 -0.150625 1.265125 0.1 1.8511250000000001 0.206875 0.46625 0.46699999999999997 0.907 0.7755 1.31325 0.66 0.766375 1.278 1.568 1.851 2.401375 0.162625 0.262625 0.33775 0.52525 0.48787499999999995 0.8005 -0.47825 -0.23575 -0.9818749999999999 -0.41612499999999997 -1.5008750000000002 -0.537875 -0.344625 -0.062375 -0.6996249999999999 -0.02775 -1.025625 0.100125 -0.21887500000000001 0.0945 -0.409 0.244625 -0.551625 0.435625 -0.14275 0.19087500000000002 -0.23275 0.415875 -0.261375 0.6525000000000001 -0.023999999999999997 0.7558750000000001 0.180875 1.5013750000000001 0.587875 2.13875 0.37825 0.55725 0.88425 1.016125 1.475875 1.33825 1.175625 0.6503749999999999 2.5765 0.687875 3.9647500000000004 1.25075 0.04775 0.0335 0.102125 0.056249999999999994 0.15962500000000002 0.0665 0.057375 0.010375 0.11624999999999999 0.008 0.172625 -0.006874999999999999s0.108875 -0.041875 0.15375 -0.079125c0.044875 -0.03725 0.08099999999999999 -0.083875 0.106 -0.1365 0.025 -0.052750000000000005 0.038125 -0.11025 0.0385 -0.168625 0.00037499999999999995 -0.05825 -0.011875 -0.11599999999999999 -0.036125 -0.16899999999999998 -0.02425 -0.053 -0.059750000000000004 -0.100125 -0.104125 -0.138 -0.04425 -0.037875 -0.096375 -0.065625 -0.1525 -0.08125 -1.138125 -0.575375 -2.313875 -0.738 -3.3395 -1.25075 -0.631 -0.27849999999999997 -1.1597499999999998 -0.7461249999999999 -1.5133750000000001 -1.338375 -0.13674999999999998 -0.241375 -0.233875 -0.503125 -0.287625 -0.7753749999999999 -0.011375 -0.149875 -0.011375 -0.300375 0 -0.45025000000000004 0 -0.075125 0 -0.162625 0.075 -0.18762500000000001 0.300875 -0.0445 0.60775 0.02225 0.863 0.18762500000000001 0.42525 0.18762500000000001 0.8755000000000001 0.42525 1.25075 0.57525 0.29175 0.11124999999999999 0.60075 0.17049999999999998 0.913 0.175125 0.189375 0.00025 0.371625 -0.07225 0.509 -0.202625s0.219375 -0.30862500000000004 0.229 -0.49775c-0.000875 -0.281625 -0.03025 -0.5623750000000001 -0.087625 -0.838 -0.068125 -0.27375 -0.168875 -0.53825 -0.30012500000000003 -0.7879999999999999 -0.162625 -0.312625 -0.35025 -0.6128750000000001 -0.51275 -0.913 -0.59775 -0.8702500000000001 -1.245 -1.7055 -1.93875 -2.5015 -0.237125 -0.30974999999999997 -0.4385 -0.6455 -0.6002500000000001 -1.0005 -0.093125 -0.20775 -0.12775 -0.43700000000000006 -0.100125 -0.662875 0.006625 -0.073875 0.030500000000000003 -0.145125 0.06962499999999999 -0.208125 0.039 -0.063 0.09237499999999998 -0.115875 0.1555 -0.154625 0.22512500000000002 -0.1375875 0.46275 0 0.6753750000000001 0.162625 0.36475 0.283 0.6925000000000001 0.61075 0.975625 0.9755 0.36275 0.45025000000000004 0.712875 1.12575 1.1256249999999999 1.6635 0.21687499999999998 0.286375 0.47875 0.535625 0.7755 0.7378750000000001 0.187375 0.109625 0.396625 0.1765 0.61275 0.196 0.21625 0.0195 0.434 -0.009 0.6379999999999999 -0.08337499999999999 0.563125 -0.202125 1.11425 -0.435875 1.650875 -0.700375 0.28775 -0.125125 0.525375 -0.28775 0.7005 -0.23762499999999998 0.5155 0.149 0.979 0.43925 1.33825 0.838 0.590875 0.6877500000000001 1.1105 1.4336250000000001 1.550875 2.22625 0.07012499999999999 0.08474999999999999 0.16799999999999998 0.141875 0.276375 0.161 0.108375 0.019125 0.219875 -0.001 0.31475000000000003 -0.05675 0.09487499999999999 -0.055624999999999994 0.16674999999999998 -0.143375 0.202875 -0.24725 0.036 -0.103875 0.033875 -0.21725 -0.005999999999999999 -0.31975000000000003l0.0375 -0.0125Z" clip-rule="evenodd" stroke-width="1.25"></path>
  <path fill="#010101" fill-rule="evenodd" d="M7.6619625000000005 10.321674999999999c0.04555 -0.0268125 0.08512499999999999 -0.0626625 0.11631249999999999 -0.1053375 0.031175 -0.0426875 0.0533 -0.0912875 0.0650125 -0.142825 0.0117125 -0.0515375 0.012775 -0.104925 0.0031 -0.1568875 -0.009675 -0.0519625 -0.029875000000000002 -0.10139999999999999 -0.05935 -0.1452625 -0.0589375 -0.09017499999999999 -0.1507875 -0.1537375 -0.25595 -0.1771 -0.10516249999999999 -0.023375 -0.2153 -0.0047 -0.306875 0.052024999999999995l-1.325775 0.8755124999999999c-0.2876625 0.212625 -0.812975 0.46276249999999997 -1.250725 0.7629374999999999 -0.22935 0.18532500000000002 -0.4241375 0.40974999999999995 -0.5753375000000001 0.6628875 -0.062474999999999996 0.1330625 -0.0948625 0.27825 -0.0948625 0.42525 0 0.147 0.0323875 0.29225 0.0948625 0.42525 0.1899375 0.374375 0.44877500000000003 0.709625 0.7629374999999999 0.9881249999999999 0.26755 0.20962499999999998 0.5568875 0.39 0.8630125 0.5377500000000001 0.61285 0.30025 1.250725 0.48775 1.8886 0.7630000000000001 0.1024875 0.039874999999999994 0.2158625 0.041999999999999996 0.319775 0.005999999999999999 0.103925 -0.036125 0.1916 -0.10800000000000001 0.2473 -0.202875 0.0557125 -0.09487499999999999 0.0758125 -0.206375 0.0566875 -0.31475000000000003 -0.0191125 -0.108375 -0.07618749999999999 -0.206375 -0.161 -0.276375 -0.46276249999999997 -0.33775 -0.9755625 -0.625375 -1.4508375 -0.9504999999999999 -0.2707625 -0.18712499999999999 -0.5148125 -0.410125 -0.725425 -0.663 -0.0750125 -0.0485 -0.1461 -0.102875 -0.212625 -0.1625l1.0506125 -1.1256875 0.95055 -1.0756375Z" clip-rule="evenodd" stroke-width="1.25"></path>
  <path fill="#010101" fill-rule="evenodd" d="M11.088912500000001 8.270475000000001c-0.41275 0.8004625 -0.8755124999999999 1.5634124999999999 -1.2507375 2.3763875 -0.16617500000000002 0.34568750000000004 -0.3123375 0.70065 -0.43775000000000003 1.0631125 -0.1375875 0.3502125 -0.25015 0.725425 -0.3627125 1.08815 -0.25015 0.8755000000000001 -0.42525 1.7635 -0.6003499999999999 2.6390000000000002 -0.019512500000000002 0.110625 0.0019000000000000002 0.224625 0.060225 0.320625 0.058325 0.09599999999999999 0.14958749999999998 0.1675 0.2567625 0.20125 0.10717499999999999 0.033625 0.22294999999999998 0.02725 0.3257125 -0.018125000000000002 0.102775 -0.045375 0.18551249999999997 -0.126625 0.2328125 -0.22849999999999998 0.3502 -0.838 0.7629374999999999 -1.6385 1.12565 -2.5015 0.2376375 -0.5503750000000001 0.47528750000000003 -1.113175 0.6628875 -1.6885 0.32518749999999996 -0.9880875 0.5128 -1.9761625 0.76295 -2.97675 0.033612500000000003 -0.10139999999999999 0.027825 -0.21173750000000002 -0.0162 -0.309075 -0.04403749999999999 -0.097325 -0.1230875 -0.17452499999999999 -0.2214375 -0.216225 -0.0516625 -0.019825 -0.10678750000000001 -0.02905 -0.1620875 -0.02715 -0.0553 0.0019125 -0.10965000000000001 0.014924999999999999 -0.159825 0.0382625 -0.050175000000000004 0.023337499999999997 -0.0951375 0.056525000000000006 -0.1322375 0.0975875 -0.037087499999999995 0.041062499999999995 -0.0655375 0.0891625 -0.0836625 0.14145Z" clip-rule="evenodd" stroke-width="1.25"></path>
  <path fill="#010101" fill-rule="evenodd" d="m14.053249999999998 12.598 -0.61275 0.712875 -1.0882 1.088125c-0.1005 0.06862499999999999 -0.169975 0.173875 -0.1933875 0.29325 -0.0234 0.11937500000000001 0.0011375 0.24325 0.0683125 0.344625 0.0318 0.050375 0.07327499999999999 0.093875 0.1220125 0.128125 0.04875 0.03425 0.1037875 0.058374999999999996 0.1620125 0.07125000000000001 0.058124999999999996 0.012750000000000001 0.11825000000000001 0.013875 0.17687499999999998 0.00325 0.0585 -0.010499999999999999 0.1145 -0.032625 0.16449999999999998 -0.065l1.4132500000000001 -0.9381249999999999 0.8255 -0.62525c0.27837500000000004 -0.248125 0.53 -0.524875 0.7505000000000001 -0.8255 0.203125 -0.25937499999999997 0.34049999999999997 -0.5640625 0.40025 -0.8880625 0.00375 -0.117 -0.017750000000000002 -0.23345000000000002 -0.063 -0.341375 -0.045375 -0.10793749999999999 -0.1135 -0.2048 -0.19974999999999998 -0.2839875 -0.20224999999999999 -0.193725 -0.4245 -0.3656125 -0.662875 -0.5128 -0.40399999999999997 -0.2444 -0.821625 -0.46571250000000003 -1.25075 -0.6628875 -0.40725 -0.18996249999999998 -0.8247500000000001 -0.3569875 -1.2506249999999999 -0.5002875 -0.098125 -0.042925000000000005 -0.209125 -0.0460375 -0.309375 -0.0087 -0.1004 0.0373375 -0.18231250000000002 0.1122125 -0.2284875 0.2088125 -0.042925000000000005 0.09809999999999999 -0.0460375 0.20902500000000002 -0.0087 0.309375 0.0373375 0.10035000000000001 0.1122125 0.1822625 0.2088125 0.2284375 0.34937500000000005 0.2191875 0.683625 0.4615375 1.0006249999999999 0.725425 0.31362500000000004 0.2599375 0.6102500000000001 0.5398499999999999 0.888 0.8379875000000001 0.162625 0.07505 0.38775 -0.10005 -0.31275 0.7004375Z" clip-rule="evenodd" stroke-width="1.25"></path>
  <path fill="#010101" fill-rule="evenodd" d="M16.154375 3.1174375c0.37525000000000003 0.07503750000000001 0.938 -1.0130875000000001 0.938 -1.0381125 0.053875 -0.1002 0.083875 -0.2114875 0.087625 -0.32518749999999996 0.0125 -0.11639999999999999 0.0125 -0.2338 0 -0.3502 -0.137625 -1.375805875 -0.500375 -1.2507325 -0.625375 -1.3257765 -0.125125 -0.075043875 -0.41275 -1.25e-7 -0.8005 1.1381652500000001 -0.050124999999999996 0.09367375 -0.083875 0.19517375 -0.1 0.30017375 -0.012750000000000001 0.108025 -0.012750000000000001 0.21716249999999998 0 0.32518749999999996 0 0 0.1375 1.2132125 0.50025 1.27575Z" clip-rule="evenodd" stroke-width="1.25"></path>
  <path fill="#010101" fill-rule="evenodd" d="M21.670250000000003 4.931025c0.12325 -0.0777125 0.236625 -0.1701125 0.337625 -0.2751625 0.10200000000000001 -0.09935 0.194125 -0.20825 0.27525 -0.32518749999999996 0.913 -1.163175 0.838 -1.250725 0.6753750000000001 -1.5133874999999999 -0.162625 -0.26265 -0.46275 -0.30017499999999997 -1.651 0.43776250000000005 -0.130125 0.0845875 -0.255375 0.17645 -0.37525000000000003 0.2751625 -0.106625 0.1109 -0.206875 0.227825 -0.30012500000000003 0.3502 -0.8505 1.250725 -0.600375 1.4758625 -0.50025 1.575925 0.1 0.10005 0.287625 0.32518749999999996 1.5383749999999998 -0.5253125000000001Z" clip-rule="evenodd" stroke-width="1.25"></path>
  <path fill="#010101" fill-rule="evenodd" d="M21.920250000000003 8.1078625c0.075125 0.475275 1.801125 0.45026249999999995 1.8386250000000002 0.45026249999999995 0.24975 -0.022712499999999997 0.49674999999999997 -0.068775 0.7378750000000001 -0.1375875 1.5008750000000002 -0.3752125 1.5635 -0.487775 1.5635 -0.77545 0 -0.2876625 -0.23762499999999998 -0.6128625 -1.701 -0.6879000000000001 -0.17462499999999997 -0.0184375 -0.35075 -0.0184375 -0.525375 0 -0.169125 0.0255875 -0.336375 0.0632 -0.50025 0.11256250000000001 -1.5133750000000001 0.6003499999999999 -1.4383750000000002 0.8755124999999999 -1.413375 1.0381125Z" clip-rule="evenodd" stroke-width="1.25"></path>
  <path fill="#010101" d="M5.9233625 22.891499999999997c-0.052575 0.0014999999999999998 -0.1043 0.013500000000000002 -0.15225 0.035125 -0.0479375 0.021625 -0.09115 0.052500000000000005 -0.1271625 0.090875 -0.036 0.03825 -0.0641 0.08337499999999999 -0.0826875 0.1325 -0.0185875 0.049249999999999995 -0.027299999999999998 0.101625 -0.025625000000000002 0.154125 0 1.93875 0 2.08875 0.5378125 2.5015 0.3638 0.295875 0.79235 0.5015000000000001 1.250725 0.600375 -0.029225 0.642875 0.1382875 1.2795 0.4802 1.8247499999999999 0.3419 0.54525 0.8419500000000001 0.97325 1.4334250000000002 1.227 0.5359375000000001 0.2515 1.1114875 0.408125 1.7009874999999999 0.46275 0.5783125 0.052875 1.1613625 0.010625 1.7259625 -0.125 0.7040000000000001 -0.109625 1.359375 -0.426375 1.8828749999999999 -0.909625 0.523375 -0.483375 0.891125 -1.1115 1.056375 -1.8045 0.025249999999999998 -0.061375 0.037125 -0.12737500000000002 0.034624999999999996 -0.19362500000000002 -0.0025 -0.066375 -0.019125 -0.131375 -0.048875 -0.190625 -0.029875000000000002 -0.05925 -0.072 -0.111375 -0.12375 -0.153 -0.05175 -0.0415 -0.11174999999999999 -0.07150000000000001 -0.176125 -0.08775 -0.06425 -0.01625 -0.131375 -0.018625 -0.196625 -0.006750000000000001 -0.06525 0.011875 -0.127125 0.03775 -0.181625 0.075625 -0.05437499999999999 0.037875 -0.1 0.087125 -0.13375 0.14425 -0.033875 0.057124999999999995 -0.054875 0.12075000000000001 -0.061875 0.18675 -0.20325 0.44512500000000005 -0.5285 0.823625 -0.938 1.091375 -0.4095 0.267875 -0.886625 0.41424999999999995 -1.3758500000000002 0.42200000000000004 -0.415675 0.0455 -0.8350625 0.0455 -1.2507375 0 -0.42742500000000005 -0.0425 -0.8477 -0.139125 -1.250725 -0.287625 -0.3707125 -0.097125 -0.7113124999999999 -0.28525 -0.9908875 -0.5473750000000001 -0.279575 -0.262125 -0.4892625 -0.5898749999999999 -0.61005 -0.9535l0.3502 0.075c1.3069625 0.24075 2.6379625 0.32475 3.9648 0.250125 0.9153749999999999 -0.0675 1.814375 -0.27849999999999997 2.664125 -0.625375l1.0255 -0.625375c0.12437500000000001 -0.09537500000000002 0.23762499999999998 -0.2045 0.33775 -0.325125 0.110875 -0.125 0.21125000000000002 -0.25875 0.30012500000000003 -0.40025 0.24725 -0.29675 0.382625 -0.670625 0.382625 -1.056875 0 -0.386125 -0.135375 -0.7601249999999999 -0.382625 -1.056875 -0.1665 -0.18175 -0.366 -0.33025 -0.58775 -0.43775000000000003 -0.954875 -0.27199999999999996 -1.947625 -0.386125 -2.93925 -0.337625l-2.8766999999999996 0.23762499999999998c-1.075625 0.125 -2.15125 0.325125 -3.2393875 0.46275l-1.3758000000000001 0.150125Zm0.7379249999999999 1.2506249999999999 0.2751625 -0.52525 3.7521875 -0.18762500000000001h2.8266124999999995c0.651625 -0.022000000000000002 1.303375 0.041124999999999995 1.938625 0.18762500000000001 0.139375 0.028625 0.26875 0.093375 0.37525000000000003 0.18762500000000001 -0.033 0.0975 -0.079375 0.19012500000000002 -0.1375 0.275125l-0.27525 0.32525 -0.687875 0.41275c-0.8923749999999999 0.39974999999999994 -1.8503749999999999 0.632875 -2.82665 0.687875 -1.053075 0.089375 -2.1120125 0.08524999999999999 -3.16435 -0.0125 -0.6915749999999999 0.018500000000000003 -1.3763375 -0.140875 -1.9886625 -0.46275 -0.20011250000000003 -0.162625 -0.2501375 -0.437875 -0.08755 -0.863125v-0.025Z" stroke-width="1.25"></path>
  <path fill="#222222" d="M16.641375 21.402375c0.22499999999999998 -1.25 0.075 -1.25 -0.1375 -1.375 -0.21250000000000002 -0.125 -0.5 0.11249999999999999 -1.25 1.1875 -0.024375 0.056625 -0.053625 0.111 -0.08750000000000001 0.1625 0 0.4 1.25 0.8125 1.4375 0.4l0.0375 -0.375Z" stroke-width="1.25"></path>
  <path fill="#222222" d="M19.443875 8.0952875c-0.304375 -0.9453374999999999 -0.832 -1.8033875 -1.5385 -2.5014625 -0.678875 -0.6707249999999999 -1.454625 -1.2356875 -2.30125 -1.6759750000000002 -1.358125 -0.6875 -2.844125 -1.0858125 -4.3639624999999995 -1.169775 -1.5198875 -0.08395 -3.0406625 0.1482625 -4.466225 0.6819875 -1.4655874999999998 0.4933875 -2.8034999999999997 1.3056999999999999 -3.917325 2.3784375S0.88077125 8.187675 0.33266999999999997 9.6336875c-0.443559875 1.425475 -0.443559875 2.9520625000000003 0 4.3775625 0.42156375 1.377125 1.1195175 2.653875 2.0511925 3.752125 0.5628375 0.663 1.2507375 1.25075 1.8260750000000001 1.8511250000000001 0.2449 0.245 0.4706875 0.5085 0.6753874999999999 0.7879999999999999 0.3338875 0.441 0.6151249999999999 0.9195 0.8379875000000001 1.42575 0 0.100125 0.07505 0.212625 0.125075 0.32525 0.1000625 0.45025000000000004 0.9130375000000001 0.287625 0.92555 -0.0625 0.0125 -0.35025 -0.1375875 -0.41275 -0.2251375 -0.6128750000000001 -0.22995000000000002 -0.5746249999999999 -0.5191749999999999 -1.12375 -0.863 -1.6385 -0.21008749999999998 -0.337375 -0.44416249999999996 -0.65925 -0.7004125 -0.963 -0.5378125 -0.637875 -1.163175 -1.25075 -1.6759750000000002 -1.8886249999999998 -0.7626624999999999 -0.9915 -1.3158500000000002 -2.127625 -1.62595 -3.3395 -0.301 -1.1560875 -0.24872499999999997 -2.375875 0.15008749999999998 -3.5020125 0.47752500000000003 -1.2289124999999999 1.2172874999999999 -2.3388999999999998 2.1677375 -3.252625 0.95045 -0.9137249999999999 2.0887125 -1.6092125 3.3354749999999997 -2.0379625 1.2383125000000001 -0.49036250000000003 2.5620749999999997 -0.7285750000000001 3.8936625000000005 -0.70065 1.3315750000000002 0.0279125 2.6441999999999997 0.3214 3.860825 0.8632375000000001 0.762875 0.37093750000000003 1.470125 0.84665 2.1012500000000003 1.413325 0.60975 0.5371625 1.08525 1.209675 1.388375 1.9636500000000001 0.039874999999999994 0.1132 0.122125 0.20646250000000002 0.2295 0.26013749999999997 0.107375 0.053675 0.23125 0.06355000000000001 0.34575 0.0275375 0.0585 -0.0182375 0.112625 -0.0482125 0.15925 -0.08808750000000001 0.0465 -0.0398875 0.084375 -0.08885000000000001 0.11124999999999999 -0.143875 0.026874999999999996 -0.055025 0.042374999999999996 -0.11497500000000001 0.045250000000000005 -0.1761625 0.0029999999999999996 -0.0612 -0.0065 -0.12234999999999999 -0.028 -0.179725Z" stroke-width="1.25"></path>
</svg>