<svg width="12" height="19" viewBox="0 0 12 19" fill="none" xmlns="http://www.w3.org/2000/svg">
<path fill-rule="evenodd" clip-rule="evenodd" d="M11.8748 10.4296C11.7139 9.90126 11.4244 9.42347 11.0336 9.04105C10.6428 8.65861 10.1637 8.38406 9.64086 8.24314C8.16326 7.97582 6.65106 7.97582 5.17321 8.24314C4.6097 8.29309 4.04299 8.29309 3.47947 8.24314C3.31167 8.23623 3.14705 8.19484 2.9952 8.12145C2.84334 8.04806 2.70767 7.94415 2.5958 7.81591C1.982 6.83577 2.79207 6.18235 3.77411 5.72998C5.0817 5.12039 6.51172 4.8362 7.94713 4.90065C8.12621 4.95583 8.31929 4.93666 8.48464 4.8473C8.64999 4.75796 8.77437 4.60561 8.83079 4.42316C8.84846 4.33207 8.84748 4.23828 8.82834 4.14756C8.80896 4.05687 8.77167 3.97117 8.71893 3.89577C8.66594 3.8204 8.59847 3.75693 8.5207 3.70931C8.44269 3.66169 8.35609 3.63095 8.2663 3.61894C7.46113 3.43572 6.63364 3.37642 5.81155 3.44303C5.80051 3.37647 5.80051 3.30851 5.81155 3.24197C5.83609 3.05014 5.83609 2.85579 5.81155 2.66395C5.8486 2.48161 5.8486 2.29341 5.81155 2.11107C5.68889 1.63356 5.46785 1.25659 5.32065 0.804221C5.32065 0.590934 5.23773 0.386388 5.09054 0.235565C4.94309 0.0847422 4.7434 0 4.53512 0C4.32438 0.00655533 4.12468 0.0967977 3.97798 0.251639C3.83127 0.406455 3.74933 0.613689 3.74958 0.829362C3.58963 1.29801 3.45838 1.77644 3.35681 2.26184C3.34454 2.46269 3.34454 2.66415 3.35681 2.865C3.3313 3.06521 3.3313 3.26794 3.35681 3.46814L3.50401 3.79486C2.6093 4.00769 1.77126 4.41955 1.04926 5.00119C0.497595 5.47262 0.135026 6.13569 0.0308605 6.8636C-0.0733054 7.59152 0.0882671 8.3332 0.484667 8.94682C0.734655 9.41315 1.08606 9.81436 1.5117 10.1194C1.93735 10.4245 2.42579 10.6252 2.93951 10.706C4.37516 10.8687 5.82406 10.8687 7.25972 10.706C7.78079 10.628 8.30996 10.628 8.83079 10.706C8.97161 10.7369 9.10164 10.8056 9.20786 10.9051C9.31409 11.0046 9.39235 11.1312 9.43503 11.272C9.47748 11.4128 9.48263 11.5626 9.44975 11.7061C9.41688 11.8495 9.34721 11.9815 9.2481 12.0882C8.82368 12.5462 8.31487 12.9136 7.75086 13.1688C6.50975 13.7372 5.15702 14.0039 3.79864 13.9479C3.40342 13.9072 3.01973 13.7877 2.6694 13.596C2.26388 13.3835 1.88485 13.1221 1.54016 12.8172C1.45969 12.7511 1.36716 12.7019 1.26802 12.6725C1.16888 12.6429 1.06504 12.6338 0.962466 12.6456C0.85987 12.6572 0.760538 12.6893 0.670135 12.7403C0.579707 12.7916 0.500025 12.8601 0.435578 12.9428C0.297458 13.0922 0.220475 13.2899 0.220475 13.4956C0.220475 13.7013 0.297458 13.8992 0.435578 14.0486C0.93288 14.5148 1.47589 14.9274 2.0556 15.2801C2.48835 15.5079 2.95153 15.6689 3.43041 15.7575C3.87126 15.7982 4.31506 15.7982 4.75591 15.7575C4.74413 15.9499 4.74413 16.1431 4.75591 16.3354C4.74193 16.5278 4.74193 16.721 4.75591 16.9136C4.90335 17.3911 5.09961 17.7681 5.27134 18.2204C5.27134 18.3249 5.29195 18.4281 5.33169 18.5243C5.37144 18.6205 5.42958 18.7077 5.50293 18.7803C5.57628 18.8531 5.66313 18.9099 5.75832 18.9475C5.8535 18.9852 5.95507 19.0028 6.05688 18.9995C6.15992 19.0033 6.26271 18.9847 6.35839 18.9453C6.45382 18.9058 6.54042 18.8463 6.61206 18.7705C6.68394 18.6946 6.73914 18.6044 6.77471 18.5052C6.81028 18.406 6.825 18.3005 6.81788 18.1953C6.99403 17.7299 7.13362 17.2507 7.23519 16.7627C7.26095 16.5542 7.26095 16.343 7.23519 16.1345C7.26095 15.9426 7.26095 15.7482 7.23519 15.5563C8.40736 15.3107 9.51796 14.8232 10.5 14.124C11.089 13.7435 11.5414 13.1776 11.7894 12.5115C12.0372 11.8453 12.0671 11.1147 11.8748 10.4296Z" fill="#DEEDE4"/>
</svg>
