<svg xmlns="http://www.w3.org/2000/svg" fill="none" viewBox="0 0 30 30" id="Earpods-Charge--Streamline-Freehand" height="30" width="30">
  <desc>
    Earpods Charge Streamline Icon: https://streamlinehq.com
  </desc>
  <path fill="#010101" d="M20.575125 9.781925000000001c0.234125 -0.277225 0.5555 -0.46656250000000005 0.9115 -0.536875 1.09975 -0.061700000000000005 2.191 -0.22895 3.25875 -0.499425 0.761125 -0.443 1.3339999999999999 -1.1490875 1.610625 -1.9852 0.413625 -1.142075 0.571375 -2.3611125 0.461875 -3.570875 -0.066125 -0.4631125 -0.26575000000000004 -0.8969375 -0.5742499999999999 -1.2485499999999998 -0.40149999999999997 -0.44775000000000004 -0.8899999999999999 -0.80888 -1.435875 -1.0612762500000001 -0.9331250000000001 -0.468125 -1.9537499999999999 -0.7360500000000001 -2.9965 -0.786589875 -1.085125 -0.055757875 -2.16 0.232643625 -3.0715 0.824047375 -1.113875 0.7715937500000001 -1.932625 1.89855625 -2.32225 3.19630625 -0.464125 1.8138999999999998 -0.666 3.684925 -0.599375 5.556075 -0.010375 0.0592375 -0.00775 0.12005 0.007875 0.1781625 0.0155 0.0581 0.043625 0.1120875 0.082375 0.1581625 0.038625 0.0460875 0.08687500000000001 0.0831375 0.141375 0.10855000000000001 0.05462500000000001 0.025425 0.114 0.0386 0.174125 0.0386 0.06025 0 0.119625 -0.013175000000000001 0.174125 -0.0386 0.0545 -0.0254125 0.102875 -0.062462500000000004 0.1415 -0.10855000000000001 0.03875 -0.046075 0.06675 -0.1000625 0.082375 -0.1581625 0.015625 -0.0581125 0.01825 -0.118925 0.007875 -0.1781625 0.03675 -1.763675 0.326875 -3.5129 0.8615 -5.194 0.342 -1.0392125 1.040875 -1.9238250000000001 1.972625 -2.4971125 0.7065 -0.42155 1.5278749999999999 -0.609425 2.347375 -0.536875 0.870875 0.05365 1.721125 0.2874875 2.497125 0.6867 0.3185 0.1395625 0.610125 0.33395 0.8615 0.5743375 0.209 0.17745 0.35374999999999995 0.418775 0.41200000000000003 0.6867125000000001 0.133625 0.9935875 0.044125 2.0044750000000002 -0.26225 2.959075 -0.133875 0.5869 -0.47524999999999995 1.105675 -0.961375 1.4608124999999998 -0.9785 0.2855375 -1.98175 0.4778375 -2.9965 0.5743375 -0.535875 0.1504875 -1.006125 0.47567499999999996 -1.3359999999999999 0.923925 -0.1445 0.2173 -0.250125 0.458125 -0.312125 0.711675 -0.056625 0.250675 -0.09412500000000001 0.505275 -0.11237499999999999 0.761625 -2.9715000000000003 0 -5.993 0.2497125 -8.9895875 0.34959999999999997 0.019025 -0.0567125 0.019025 -0.1180875 0 -0.17479999999999998 -0.045849999999999995 -0.326575 -0.1210625 -0.6483375 -0.2247375 -0.9613875 -0.0596375 -0.254325 -0.1654375 -0.49555000000000005 -0.31215 -0.711675 -0.3142 -0.468925 -0.7823125 -0.813375 -1.3234625 -0.973875 -1.0147249999999999 -0.0965 -2.01805 -0.2888 -2.9965375 -0.5743375 -0.49577499999999997 -0.3591375 -0.84235 -0.8878874999999999 -0.973875 -1.4857875 -0.3063125 -0.9546 -0.3958875 -1.9654875 -0.2622 -2.959075 0.058225000000000006 -0.2679375 0.20301249999999998 -0.50925 0.41202500000000003 -0.6867 0.25422500000000003 -0.2400625 0.5450375 -0.43815 0.8615125 -0.5868249999999999 0.7789625 -0.3893125 1.62805 -0.6185625 2.4971125 -0.674225 0.8194250000000001 -0.07255 1.6408625 0.115325 2.3472750000000002 0.5368875 0.9318375 0.573275 1.630675 1.4578875 1.97275 2.4971125 0.506375 1.7018875 0.762875 3.4683 0.761625 5.243925000000001 0.008375 0.0965125 0.050625 0.1869625 0.119125 0.2554625 0.0685 0.0685 0.158875 0.110675 0.255375 0.1191125 0.053625 -0.001575 0.106375 -0.0139 0.155 -0.036275 0.04875 -0.0223625 0.0925 -0.0543 0.12862500000000002 -0.09390000000000001 0.036125 -0.0396125 0.063875 -0.0860875 0.081625 -0.13665 0.017750000000000002 -0.050562499999999996 0.025249999999999998 -0.10418749999999999 0.021875000000000002 -0.1576875 0.066625 -1.8711375 -0.13525 -3.7421749999999996 -0.599375 -5.556075 -0.378625 -1.2862624999999999 -1.1846125 -2.4049375 -2.284825 -3.1713324999999997 -0.910325 -0.5950075 -1.985125 -0.88773825 -3.07145 -0.8365325125C7.134287499999999 0.066207375 6.114787499999999 0.33807375 5.1804375 0.80481125c-0.5424625000000001 0.257515 -1.0267625 0.6228637499999999 -1.42335 1.07376375 -0.3110875 0.34997500000000004 -0.5110125 0.7846 -0.5743375 1.2485499999999998 -0.10999999999999999 1.2046875 0.0433625 2.4188875000000003 0.449475 3.5583875 0.2604125 0.8639375 0.8350625 1.59895 1.6106375000000002 2.0601125000000002 1.0697375 0.2560125 2.1604125 0.4148125 3.2587375 0.47445000000000004 0.36045 0.06765 0.686675 0.2572125 0.923925 0.5368875 0.096825 0.1333125 0.172625 0.2806875 0.22474999999999998 0.43698750000000003 0.07326250000000001 0.295875 0.127475 0.59615 0.1623125 0.8989625 -0.0107625 0.0366875 -0.0107625 0.0756875 0 0.11237499999999999h-0.499425c-1.4617749999999998 0.03775 -2.924525 0.00025 -4.3824375 -0.11237499999999999 -0.04757499999999999 -0.0034000000000000002 -0.09535 0.0026375 -0.140575 0.0177625 -0.0452375 0.015125 -0.08703749999999999 0.0390375 -0.123 0.0703625 -0.0359625 0.031325 -0.0653875 0.06945 -0.086575 0.112175s-0.033725 0.089225 -0.0369 0.1368125c-0.0051625 0.046924999999999994 -0.0007624999999999999 0.09440000000000001 0.012925 0.139575 0.0136875 0.045175 0.0363875 0.08711250000000001 0.06672499999999999 0.1232875 0.030325 0.0361625 0.067675 0.0658125 0.109775 0.0871625 0.0421125 0.0213375 0.0881 0.0339375 0.13520000000000001 0.037025 1.4732999999999998 0.14982499999999999 2.959075 0.19977499999999998 4.45735 0.21225 3.4334750000000005 0 6.904475 -0.1997625 10.3006 -0.12484999999999999l3.396 -0.07491249999999999c0.23725 0 1.12375 -0.1373375 1.11125 -0.1373375 -0.0125 0 0.19974999999999998 1.073775 0.23725 1.311025 0.1115 0.697625 0.161625 1.403625 0.149875 2.11 0 1.09875 -0.137375 2.185 -0.22474999999999998 3.29625 -0.11237499999999999 1.548125 0.062375 4.207625 -0.075 6.24275 0.0295 0.74625 -0.13849999999999998 1.487 -0.486875 2.1475 -0.5335 0.52325 -1.1975 0.8939999999999999 -1.92275 1.07375 -1.890125 0.55425 -3.848625 0.840125 -5.818375 0.849 -2.826 0.11887500000000001 -5.64875 -0.304875 -8.315325 -1.2485 -0.3686 -0.19025 -0.6886125 -0.4625 -0.9353875 -0.7958750000000001 -0.24677500000000002 -0.33325 -0.4137125 -0.7188749999999999 -0.48796249999999997 -1.126875 -0.23728749999999998 -1.4665 -0.37495 -2.947375 -0.41202500000000003 -4.432375 -0.1332375 -1.26475 -0.1791375 -2.537125 -0.1373375 -3.808125 0.048162500000000004 -1.2545000000000002 0.16905 -2.50525 0.362075 -3.74575 0.0180875 -0.10749999999999998 -0.0072499999999999995 -0.217875 -0.07045 -0.306875 -0.0632 -0.089 -0.15910000000000002 -0.14925 -0.26666249999999997 -0.1675 -0.1071375 -0.014875000000000001 -0.2159125 0.01175 -0.30408749999999996 0.074375 -0.088175 0.06275 -0.14911249999999998 0.156625 -0.1703625 0.26275 -0.2270625 1.2922500000000001 -0.3730125 2.5974999999999997 -0.43698750000000003 3.908 -0.071175 1.29825 -0.0503125 2.6 0.062424999999999994 3.8955 -0.040287500000000004 1.81575 0.1569875 3.629 0.5868249999999999 5.393750000000001 0.297325 0.853625 0.9216000000000001 1.5542500000000001 1.7354875 1.94775 2.2349125 1.04875 6.6922749999999995 1.610625 10.587774999999999 1.373375 3.158875 -0.19974999999999998 5.943125 -0.973875 7.0043750000000005 -2.2225 0.548375 -0.8927499999999999 0.8300000000000001 -1.9238749999999998 0.811625 -2.9715000000000003 0.13724999999999998 -2.047625 -0.075 -4.707125 0 -6.24275 0.074875 -1.13625 0.18724999999999997 -2.259875 0.17475000000000002 -3.3961249999999996 0.00375 -0.779125 -0.067375 -1.55675 -0.21225 -2.32225 -0.07100000000000001 -0.5477 -0.209375 -1.0844875 -0.41200000000000003 -1.5981999999999998 -0.080375 -0.2111375 -0.224625 -0.3919625 -0.412625 -0.517275 -0.188 -0.125325 -0.410375 -0.18891249999999998 -0.63625 -0.181925 -0.41875 0.0312875 -0.835625 0.085475 -1.2485 0.1623125l-2.6968750000000004 0.12486250000000002c0.02 -0.1729625 0.053375000000000006 -0.3441125 0.09987499999999999 -0.5119125 0.0645 -0.1845 0.171375 -0.3512875 0.312125 -0.4869375Z" stroke-width="1.25"></path>
  <path fill="#010101" d="M6.76605 3.07715c-0.03725 -0.0385125 -0.081875 -0.06913749999999999 -0.13121249999999998 -0.0900625 -0.0493375 -0.020912499999999997 -0.102375 -0.0316875 -0.15595 -0.0316875 -0.053587499999999996 0 -0.106625 0.010775 -0.1559625 0.0316875 -0.0493375 0.020925000000000003 -0.09395 0.05155 -0.13121249999999998 0.0900625 -0.206175 0.1367875 -0.36014999999999997 0.33915 -0.43698750000000003 0.5743375 -0.0840125 0.26263749999999997 -0.1302625 0.5359 -0.13735 0.8115625 -0.018725 0.17846250000000002 -0.018725 0.35841249999999997 0 0.536875 0.0331 0.2858875 0.11325 0.564325 0.23722500000000002 0.8240500000000001 0.231825 0.43771249999999995 0.5823375 0.8012125000000001 1.0113375 1.0487875 0.0694 0.06495 0.1609 0.1010875 0.25595 0.1010875 0.09506250000000001 0 0.1865625 -0.0361375 0.2559625 -0.1010875 0.06785000000000001 -0.0679 0.1059625 -0.1599625 0.1059625 -0.25595 0 -0.09599999999999999 -0.0381125 -0.1880625 -0.1059625 -0.2559625 -0.09836249999999999 -0.181425 -0.17385 -0.3743375 -0.22474999999999998 -0.5743375 0 -0.18727500000000002 0 -0.3745625 -0.07491249999999999 -0.56185 -0.07491249999999999 -0.18727500000000002 -0.17479999999999998 -0.56185 -0.21225 -0.8490125l-0.1373375 -0.6617375000000001c0.05145 -0.034275 0.09425 -0.08003750000000001 0.125025 -0.1336625 0.030775 -0.053625 0.048675 -0.1136625 0.0523125 -0.17538749999999997 0.0036249999999999998 -0.061725 -0.0071125 -0.12345 -0.0313875 -0.1803125 -0.024274999999999998 -0.0568625 -0.0614125 -0.107325 -0.1085 -0.1474Z" stroke-width="1.25"></path>
  <path fill="#010101" d="M22.922375000000002 5.237150000000001c0 0.19977499999999998 0 0.374575 -0.074875 0.56185 -0.050875000000000004 0.2 -0.126375 0.3929125 -0.22474999999999998 0.5743375 -0.067875 0.0679 -0.106 0.1599625 -0.106 0.2559625 0 0.0959875 0.038125 0.18805 0.106 0.25595 0.069375 0.06495 0.16087500000000002 0.1010875 0.256 0.1010875 0.095 0 0.1865 -0.0361375 0.25587499999999996 -0.1010875 0.429 -0.24757500000000002 0.7795000000000001 -0.611075 1.0113750000000001 -1.0487875 0.1205 -0.26453750000000004 0.1965 -0.5472 0.22474999999999998 -0.8365374999999999 0.01875 -0.18263749999999998 0.01875 -0.3667125 0 -0.5493625 -0.016875 -0.237825 -0.063 -0.47266250000000004 -0.137375 -0.6991875000000001 -0.073375 -0.2402625 -0.227875 -0.44763749999999997 -0.43700000000000006 -0.5868249999999999 -0.084125 -0.051925 -0.18412499999999998 -0.07185 -0.281875 -0.056125 -0.097625 0.015725 -0.186375 0.0660375 -0.24987499999999999 0.141775 -0.063625 0.075725 -0.09787499999999999 0.1718 -0.0965 0.2707 0.00125 0.0988875 0.03825 0.19398749999999998 0.103875 0.267925l-0.137375 0.6617375000000001c-0.057999999999999996 0.2654625 -0.128875 0.5279625 -0.21225 0.7865875Z" stroke-width="1.25"></path>
  <path fill="#222222" d="M14.394875 15.75c0.561875 -0.549375 1.148625 -1.08625 1.7854999999999999 -1.598125 0.0675 -0.060875 0.109625 -0.14475 0.11812500000000001 -0.23525000000000001 0.008499999999999999 -0.09037500000000001 -0.017374999999999998 -0.18075000000000002 -0.072375 -0.253 -0.05499999999999999 -0.072375 -0.135125 -0.12137500000000001 -0.224625 -0.13724999999999998 -0.089375 -0.016 -0.181625 0.00225 -0.258125 0.051125 -0.6637500000000001 0.490875 -1.301375 1.0158749999999999 -1.910375 1.5732499999999998 -0.948875 0.849 -1.82285 1.723 -2.6468999999999996 2.497125 -0.3874125 0.37275 -0.7271125 0.7921250000000001 -1.011325 1.2485 -0.0767125 0.13287500000000002 -0.1171 0.283625 -0.1171 0.43700000000000006 0 0.153375 0.0403875 0.304125 0.1171 0.43700000000000006 0.2806 0.384375 0.6870375 0.65825 1.1486625 0.774125 0.81675 0.19949999999999998 1.6566875 0.28775 2.4970624999999997 0.262125h0.44949999999999996c-0.08737500000000001 0.26225 -0.17475000000000002 0.524375 -0.28712499999999996 0.7866249999999999 -0.324625 0.8240000000000001 -0.749125 1.623125 -1.07375 2.38475l-0.5244125000000001 1.311 -0.17479999999999998 0.4245c0 0.062375 -0.1123625 0.19974999999999998 -0.1373375 0.262125 -0.0424 0.138375 -0.0424 0.28625 0 0.42462500000000003 0.024325000000000003 0.09325 0.068025 0.180375 0.1282625 0.255625 0.0602375 0.075375 0.13565 0.137125 0.22133750000000002 0.181375 0.08195 0.048624999999999995 0.173325 0.07925 0.26795 0.09 0.09475 0.010875 0.190625 0.0013750000000000001 0.281375 -0.027625000000000004 0.345125 -0.110875 0.666875 -0.284375 0.949 -0.511875 0.35575 -0.269 0.6936249999999999 -0.560875 1.01125 -0.8740000000000001 0.549375 -0.487 1.07375 -0.9988750000000001 1.5856249999999998 -1.53575 0.761625 -0.799125 1.473375 -1.623125 2.1725 -2.497125 0.22474999999999998 -0.28712499999999996 0.761625 -0.749125 1.11125 -1.2485 0.213875 -0.258375 0.356 -0.568375 0.41200000000000003 -0.8989999999999999 0.018375 -0.311125 -0.059125000000000004 -0.6205 -0.222125 -0.8861249999999999 -0.16299999999999998 -0.26575000000000004 -0.403625 -0.475 -0.68925 -0.5996250000000001 -0.736 -0.316125 -1.507375 -0.5425 -2.297375 -0.67425 -0.057749999999999996 -0.011125 -0.11249999999999999 -0.0345 -0.16049999999999998 -0.06862499999999999 -0.047999999999999994 -0.033999999999999996 -0.088125 -0.078 -0.11762500000000001 -0.128875 -0.029625 -0.050875000000000004 -0.047875 -0.10749999999999998 -0.05374999999999999 -0.166 -0.005875 -0.0585 0.000875 -0.11762500000000001 0.019750000000000004 -0.173375 0.21225 -0.66175 0.59925 -1.897875 0.7366250000000001 -2.297375 0.036125 -0.10262500000000001 0.03 -0.215375 -0.01675 -0.31362500000000004s-0.1305 -0.174 -0.233 -0.21075c-0.10262500000000001 -0.036 -0.215375 -0.03 -0.31362500000000004 0.01675s-0.174 0.1305 -0.21075 0.233c-0.19974999999999998 0.536875 -0.474375 1.02375 -0.67425 1.548125 -0.099375 0.250375 -0.17462499999999997 0.5095000000000001 -0.224625 0.774125 -0.05925 0.35125000000000006 -0.05925 0.71 0 1.06125 0.019750000000000004 0.11025 0.06825 0.21337499999999998 0.140625 0.298875 0.07225 0.0855 0.16587500000000002 0.150375 0.271375 0.188125 0.43700000000000006 0.17475000000000002 1.52325 0.324625 2.32225 0.67425 0.349625 0.14975 0.68675 0.299625 0.64925 0.61175 -0.06799999999999999 0.18187499999999998 -0.1845 0.34175 -0.337125 0.46199999999999997 -0.337125 0.37449999999999994 -0.7865 0.7366250000000001 -0.99875 0.961375 -0.5868749999999999 0.66175 -1.248625 1.3235 -1.823 1.94775 -0.5742499999999999 0.62425 -1.07375 1.07375 -1.6480000000000001 1.5731249999999999 0.312125 -0.699125 0.674125 -1.423375 0.961375 -2.16 0.239625 -0.60075 0.39912499999999995 -1.230375 0.474375 -1.87275 0.014124999999999999 -0.102875 0.00325 -0.20750000000000002 -0.0315 -0.30525 -0.034749999999999996 -0.09775 -0.0925 -0.18575000000000003 -0.16825 -0.256625 -0.053 -0.061875 -0.117875 -0.11249999999999999 -0.19075000000000003 -0.149 -0.073 -0.0365 -0.15237499999999998 -0.057999999999999996 -0.23375 -0.06325 -0.11237499999999999 0 -0.986375 0.09987499999999999 -1.311 0.11237499999999999 -0.6308750000000001 0.06575 -1.2668750000000002 0.06575 -1.8977625 0 -0.233025 -0.0052499999999999995 -0.464175 -0.043125000000000004 -0.6867125000000001 -0.11237499999999999 0.324625 -0.21225 2.24735 -2.734375 3.14635 -3.6083749999999997Z" stroke-width="1.25"></path>
</svg>