<svg xmlns="http://www.w3.org/2000/svg" fill="none" viewBox="0 0 30 30" id="Amusement-Park-Ferris-Wheel--Streamline-Freehand" height="30" width="30">
  <desc>
    Amusement Park Ferris Wheel Streamline Icon: https://streamlinehq.com
  </desc>
  <path fill="#222222" fill-rule="evenodd" d="m14.433625000000001 17.788 0.5625 -2.1125 0.3 0.6c0.25 0.5625 0.48750000000000004 1.1500000000000001 0.7374999999999999 1.7125000000000001 1 2.2 -0.65 -1.5625 3.4749999999999996 7.675 0.41250000000000003 0.925 0.8 1.5875 1.25 2.5 0.48750000000000004 0.44999999999999996 0.95 0.21250000000000002 0.775 -0.2 -0.3875 -1.025 -0.675 -1.675 -1.0875 -2.6875 -5.1 -12.8499875 -1.25 -3 -3.1374999999999997 -7.8125 -0.2375 -0.5874999999999999 -1.5875 -3.5625 -1.7000000000000002 -3.75 -0.7625 -1.2499875 -1.3125 -0.3125 -1.3375000000000001 -0.22499999999999998 -0.025 0.08750000000000001 -0.8624999999999999 2.9625000000000004 -1.1125 3.95 -0.6750625 2.8125 -1.8625625000000001 7.9625 -2.5000625 10.7625 -0.075 0.6 0.6 0.5 0.775 0 0.15 -0.6625000000000001 1.7375625000000001 -5.7625 3.0000625 -10.4125Z" clip-rule="evenodd" stroke-width="1.25"></path>
  <path fill="#010101" fill-rule="evenodd" d="M25.98375 28.524875c-0.01175 -0.053625 -0.034125 -0.10437500000000001 -0.06575 -0.14925 -0.031625 -0.045 -0.072 -0.083 -0.1185 -0.112125 -0.046625 -0.029125 -0.09849999999999999 -0.048624999999999995 -0.15275 -0.057499999999999996 -0.054125 -0.00875 -0.109625 -0.006625 -0.16299999999999998 0.0063750000000000005 -0.41325 0.07250000000000001 -0.83075 0.1185 -1.25 0.1375 -0.6375 0 -1.25 0 -1.9 0.08750000000000001l-3.1374999999999997 0.15c-5.6875 0.475 -8.212475 0.525 -14.049975 0.6875 -0.04815 -0.000125 -0.0958 0.009625 -0.139975 0.028749999999999998 -0.0441875 0.019125 -0.0839375 0.04725 -0.1167875 0.082375 -0.032850000000000004 0.03525 -0.0580875 0.076875 -0.074125 0.12225 -0.016050000000000002 0.045375 -0.02255 0.09362499999999999 -0.0191125 0.141625 0.0016124999999999998 0.047625 0.0126 0.094375 0.032325 0.13775 0.019725 0.043375000000000004 0.0478 0.0825 0.082625 0.11499999999999999 0.034825 0.0325 0.075725 0.057749999999999996 0.12033749999999999 0.0745 0.044625000000000005 0.016625 0.09209999999999999 0.024375 0.1397125 0.02275H14.48375c1.0875 0 2.1375 0 3.1875 -0.075 1.5875 -0.08750000000000001 3.1624999999999996 -0.275 4.7625 -0.48750000000000004 0.7374999999999999 -0.1 1.4749999999999999 -0.15 2.2125 -0.2625 0.32849999999999996 -0.048624999999999995 0.654 -0.11537499999999999 0.9750000000000001 -0.2 0.053875 -0.004625000000000001 0.106125 -0.020125 0.15375 -0.0455 0.04775 -0.025374999999999998 0.08975 -0.060125 0.123625 -0.102125s0.058875000000000004 -0.09050000000000001 0.0735 -0.14250000000000002c0.014625 -0.052 0.018625 -0.106375 0.011625 -0.15987500000000002Z" clip-rule="evenodd" stroke-width="1.25"></path>
  <path fill="#010101" fill-rule="evenodd" d="M29.259 14.3885c-0.0585 -0.505625 -0.2625 -0.98325 -0.5874999999999999 -1.375 -0.24987499999999999 -0.292875 -0.57075 -0.5168375000000001 -0.93175 -0.65035 -0.361125 -0.1335 -0.7505000000000001 -0.1721 -1.13075 -0.112125 -0.243 0.0342625 -0.47912499999999997 0.1059375 -0.7000000000000001 0.21250000000000002 -0.09425 0.0451 -0.186125 0.095225 -0.275 0.149975 0 -0.412475 -0.125 -0.8124750000000001 -0.21250000000000002 -1.249975 -0.21325 -0.9303 -0.545125 -1.8293249999999999 -0.9875 -2.6750000000000003l-0.2 -0.325h0.0625c0.181375 -0.025487499999999996 0.361 -0.06306250000000001 0.5375 -0.11249999999999999l0.375 -0.15c0.24362499999999998 -0.1230875 0.456625 -0.2992875 0.62325 -0.515625 0.166625 -0.21633750000000002 0.28250000000000003 -0.46728749999999997 0.33924999999999994 -0.734375 0.121125 -0.50455 0.077375 -1.0346875 -0.125 -1.5125 -0.250375 -0.5720999999999999 -0.652375 -1.0648625 -1.1625 -1.4249999999999998 -0.51525 -0.3790375 -1.1355 -0.5886875 -1.775 -0.6 -0.46462499999999995 -0.0017375 -0.915625 0.1562875 -1.2775 0.4476s-0.6125 0.6981875 -0.71 1.1523999999999999c-0.045875000000000006 0.1334375 -0.07525 0.2719625 -0.08750000000000001 0.41250000000000003 -0.28750000000000003 -0.15 -0.5750000000000001 -0.3125 -0.875 -0.4375 -0.6859999999999999 -0.26875 -1.3925 -0.4819375 -2.1125 -0.6375 0.05725 -0.08311249999999999 0.10749999999999998 -0.170925 0.15 -0.2625 0.08862500000000001 -0.20825 0.151625 -0.42652500000000004 0.1875 -0.65 0.06175 -0.3965375 0.03950000000000001 -0.8016375 -0.065375 -1.1890125 -0.104875 -0.387375 -0.29000000000000004 -0.748375 -0.5435 -1.05955625 -0.253375 -0.31118375 -0.569375 -0.56560125 -0.9275 -0.74673875 -0.35812499999999997 -0.18113875000000002 -0.7503749999999999 -0.28494825 -1.151125 -0.30469275 -0.6291249999999999 -0.098498625 -1.27325 -0.0071015 -1.85 0.26250025 -0.463875 0.1962025 -0.8576250000000001 0.5279225 -1.12975 0.9517125 -0.2721375 0.423775 -0.4099125 0.919875 -0.39530000000000004 1.4232875 -0.024087499999999998 0.199275 -0.024087499999999998 0.400725 0 0.6 0.0475375 0.174325 0.10598750000000001 0.3455 0.17500000000000002 0.5125 0.07255 0.16221249999999998 0.160425 0.3170875 0.26255 0.4625h-0.1c-0.983525 0.2537125 -1.9292 0.6361875 -2.81255 1.1375 -0.093925 -0.49817500000000003 -0.323125 -0.9609 -0.6625000000000001 -1.3375000000000001 -0.433875 -0.4839 -1.03915 -0.7797999999999999 -1.6875 -0.8250000000000001 -0.42391249999999997 0.0094125 -0.8406 0.111675 -1.2207 0.2995625 -0.3801125 0.1879 -0.7144 0.45686249999999995 -0.9793000000000001 0.7879375 -0.257075 0.326475 -0.4432125 0.7029874999999999 -0.546525 1.105475 -0.1033125 0.4024875 -0.121525 0.8221 -0.053474999999999995 1.2320250000000001 0.050437499999999996 0.2866375 0.15205 0.5618625 0.3 0.8125 0.13845 0.2401375 0.31587499999999996 0.455575 0.525 0.6375 0.199125 0.17745 0.41708750000000006 0.33255 0.65 0.4625l0.2375 0.1c-0.8184375 1.138125 -1.4396125000000002 2.4058125 -1.8375 3.75l-0.2625 -0.15c-0.21905000000000002 -0.0904375 -0.4511375 -0.1452875 -0.6875 -0.1625 -0.40425 -0.0511625 -0.814875 -0.0027500000000000003 -1.1961249999999999 0.1410375 -0.3812625 0.14378749999999998 -0.7216 0.3785625 -0.991375 0.6839375000000001 -0.286335 0.315625 -0.49616374999999996 0.69275 -0.61322 1.1025 -0.11705625 0.40974999999999995 -0.138195 0.8408749999999999 -0.06177875 1.26 0.14141 0.672125 0.50729875 1.2759999999999998 1.0374987500000001 1.7125000000000001 0.2730875 0.229125 0.601175 0.383 0.9519125 0.446625 0.350725 0.0635 0.711975 0.034624999999999996 1.0480875 -0.084125 0.14702500000000002 -0.050499999999999996 0.2859625 -0.122125 0.41250000000000003 -0.21250000000000002 0.264475 1.644875 0.993025 3.18 2.1 4.425h-0.1625c-0.172925 0.07187500000000001 -0.3366 0.164125 -0.48750000000000004 0.275 -0.15721249999999998 0.11575 -0.30365 0.245375 -0.4375 0.3875 -0.2717625 0.30675 -0.4585875 0.67925 -0.5419 1.080625 -0.083325 0.40125 -0.060262500000000004 0.81725 0.0669 1.2068750000000001 0.1818125 0.500375 0.5081 0.935375 0.9375 1.25 0.258275 0.22675 0.56555 0.3905 0.8977250000000001 0.4785 0.3321625 0.08800000000000001 0.6802125000000001 0.09787499999999999 1.01685 0.028874999999999998 0.33662499999999995 -0.069 0.6527 -0.215125 0.9234375 -0.42674999999999996 0.270725 -0.211625 0.48875 -0.483125 0.6369875 -0.793125 0.0949125 -0.199375 0.16622499999999998 -0.40912499999999996 0.21250000000000002 -0.625 0.0123 -0.14975 0.0123 -0.30025 0 -0.44999999999999996 0.5202625000000001 0.264125 1.0592125 0.48974999999999996 1.6125 0.675 0.28750000000000003 0.08750000000000001 0.6 -0.5874999999999999 0.275 -0.725 -0.5155 -0.18875 -1.0167875 -0.41437500000000005 -1.5 -0.675 -0.438575 -0.23074999999999998 -0.8567375 -0.498375 -1.25 -0.8l-0.1875 -0.17500000000000002c0.326275 -0.23224999999999998 0.6392625000000001 -0.48262499999999997 0.9375 -0.75 0.17265 -0.07075 0.3397875 -0.15437499999999998 0.5 -0.25 0.12619999999999998 -0.13625 0.23533749999999998 -0.287375 0.325 -0.44999999999999996 0.12463749999999998 -0.19724999999999998 0.2373375 -0.40175000000000005 0.3375 -0.6125 0.4065375 0.416 0.8851125 0.75475 1.4124999999999999 1 0.4 0.075 0.65 -0.525 0.3875 -0.65 -0.6565 -0.3575 -1.2326375 -0.8458749999999999 -1.6927625 -1.4349999999999998 -0.460125 -0.589125 -0.7944374999999999 -1.2663749999999998 -0.9822375 -1.9900000000000002 -0.128825 -0.514625 -0.1835375 -1.044875 -0.1625 -1.575h1.0875c1.0374999999999999 0 1.7249999999999999 -0.11249999999999999 2.7625499999999996 -0.22499999999999998 0.4375 0 0.95 -0.9750000000000001 0 -0.8875 -0.9500500000000001 0.08750000000000001 -1.3750499999999999 -0.1625 -2.32505 -0.2375h-1.3625c0.168375 -0.6748750000000001 0.45625 -1.3141249999999998 0.8500000000000001 -1.8874750000000002 0.5233 -0.8905000000000001 1.2411999999999999 -1.6511375 2.1 -2.225 0.5478000000000001 -0.298875 1.1528 -0.4778375 1.77505 -0.525v1.0125000000000002c0 0.7625 0.1625 1.0875 0.21250000000000002 1.8625 0 0.549975 0.6 0.724975 0.8125 0.174975 0.075 -0.762475 0.2375 -1.3249749999999998 0.28750000000000003 -2.087475l0.075 -0.9750000000000001c1.3595 0.0837625 2.6505 0.6257375 3.6625 1.5375 0.7865 0.697625 1.315 1.639975 1.5 2.674975h-0.4375c-0.5 0 -0.9875 0 -1.4749999999999999 0.1 -0.8500000000000001 0.1 -1.4749999999999999 0.275 -2.3125 0.41250000000000003 -0.6125 0.1375 -0.5874999999999999 0.6875 0 0.875h2.8499999999999996c0.4625 0 0.9125 0 1.375 -0.075 -0.057749999999999996 0.8258749999999999 -0.204375 1.643125 -0.4375 2.4375 -0.16199999999999998 0.5191250000000001 -0.43499999999999994 0.996875 -0.8 1.4000000000000001 -0.25375000000000003 0.271375 -0.559875 0.48825 -0.8999999999999999 0.6375 -0.3125 0.22499999999999998 -0.2 1.125 0.3875 0.9750000000000001 0.4585 -0.18987500000000002 0.850125 -0.511875 1.125 -0.925 0.075125 0.25175 0.166875 0.49812500000000004 0.275 0.7374999999999999 0.067 0.14024999999999999 0.146375 0.274125 0.2375 0.4 0.0975 0.1225 0.20174999999999998 0.239375 0.3125 0.35000000000000003 0.22499999999999998 0.2375 0.475 0.4375 0.7124999999999999 0.6625000000000001 -0.48175 0.521375 -1.058875 0.9456249999999999 -1.7000000000000002 1.25 -0.42500000000000004 0.17500000000000002 -0.125 1.0374999999999999 0.3 0.9875 0.42500000000000004 -0.05 0.125 -0.1375 0.35000000000000003 -0.25 0.086 -0.045375 0.169375 -0.09537500000000002 0.25 -0.15 0.077625 0.44962500000000005 0.25937499999999997 0.8747499999999999 0.530625 1.241625 0.271375 0.36675 0.624625 0.665 1.031875 0.870875 0.375625 0.202875 0.804125 0.286375 1.228375 0.2395 0.42437500000000006 -0.046875 0.8242499999999999 -0.222 1.146625 -0.502 0.450875 -0.38075 0.744875 -0.915125 0.8250000000000001 -1.5 0.06075 -0.549875 -0.039125 -1.1056249999999999 -0.28750000000000003 -1.6 -0.312625 -0.6419999999999999 -0.864625 -1.13575 -1.5375 -1.375 0.8384999999999999 -1.1837499999999999 1.421625 -2.5288749999999998 1.7125000000000001 -3.95l0 -0.1875c0.25 0.075 0.675 0.17500000000000002 1.025 0.2375 0.20350000000000001 0.021375 0.408875 0.021375 0.6125 0 0.312625 -0.03975 0.61425 -0.141625 0.8868750000000001 -0.29975 0.27275 -0.15812500000000002 0.511 -0.36912500000000004 0.7008749999999999 -0.62075 0.18987500000000002 -0.251625 0.3275 -0.53875 0.40474999999999994 -0.84425 0.07725 -0.305625 0.0925 -0.623625 0.045 -0.9352499999999999Zm-25.07505 -0.3625c-0.1065625 0.7492500000000001 -0.135875 1.507375 -0.08750000000000001 2.2625 -0.0449 0.040375 -0.09542500000000001 0.074125 -0.15 0.1 -0.1214625 0.062625 -0.252375 0.104875 -0.3875 0.125 -0.178975 0.016 -0.35915 -0.012125 -0.52475 -0.08175 -0.1656125 -0.06975 -0.3116125 -0.179 -0.42525 -0.31825 -0.271775 -0.298 -0.44241250000000004 -0.67425 -0.48750000000000004 -1.075 -0.0475625 -0.21499999999999997 -0.04875 -0.43775000000000003 -0.0034875 -0.6532499999999999 0.0452625 -0.2155 0.1359375 -0.419 0.2659875 -0.59675 0.1306625 -0.1915 0.303275 -0.35075 0.5047125 -0.4655 0.2014375 -0.11487499999999999 0.4264 -0.18212499999999998 0.6577875 -0.19699999999999998 0.132475 -0.0215 0.2675375 -0.0215 0.4 0 0.1357125 0.031875 0.2633875 0.0915 0.375 0.17500000000000002 -0.05 0.2625 -0.1 0.48750000000000004 -0.1375 0.725ZM21.808999999999997 5.663525c0.03125 -0.13565 0.08175 -0.266125 0.15 -0.3875 0.0945 -0.20495 0.2525 -0.37398750000000003 0.450625 -0.4820625 0.198125 -0.10807499999999999 0.425875 -0.149425 0.6493749999999999 -0.1179375 0.372375 0.0596 0.724375 0.20983749999999998 1.025 0.4375 0.32849999999999996 0.2127 0.6025 0.4995625 0.8 0.8375 0.14625000000000002 0.21658750000000002 0.21250000000000002 0.47735 0.1875 0.7374999999999999 -0.005625 0.121525 -0.0375 0.2404 -0.09362499999999999 0.34833749999999997 -0.056125 0.107925 -0.135125 0.2023375 -0.231375 0.2766625l-0.625 0.22499999999999998c-0.057999999999999996 0.01475 -0.11225 0.041225000000000005 -0.15949999999999998 0.077775 -0.047375 0.03655 -0.08662500000000001 0.0824 -0.11549999999999999 0.134725 -0.3605 -0.5102249999999999 -0.780125 -0.9759625 -1.25 -1.3875000000000002 -0.26975 -0.22625 -0.553625 -0.43501249999999997 -0.8500000000000001 -0.625 0.017125 -0.0278 0.03825 -0.0530375 0.0625 -0.075Zm-15.56255 1.775c-0.104925 -0.14147500000000002 -0.18911250000000002 -0.2972125 -0.25 -0.4625 -0.057175000000000004 -0.1472 -0.08273749999999999 -0.304775 -0.075 -0.4625 -0.0087 -0.48705 0.1652 -0.959725 0.48750000000000004 -1.3250000000000002 0.1466125 -0.1988375 0.33395 -0.36412500000000003 0.5495 -0.4848375 0.21555000000000002 -0.1207 0.4543625 -0.1940625 0.7005 -0.2151625 0.177175 -0.016375 0.3558 0.0052625 0.5239499999999999 0.0634625 0.1681375 0.058199999999999995 0.3219125 0.151625 0.45105 0.2740375 0.1568375 0.11514999999999999 0.288675 0.260925 0.38751250000000004 0.42852500000000004 0.0988375 0.1675875 0.16261250000000002 0.3535 0.18748750000000003 0.546475l0 0.1c-0.2288625 0.1513 -0.449975 0.31399999999999995 -0.6625000000000001 0.48750000000000004 -0.6201875 0.4873875 -1.1897375000000001 1.0359875 -1.7000000000000002 1.6375000000000002 -0.08750000000000001 0 -0.17500000000000002 -0.1 -0.25 -0.1625 -0.1310375 -0.1291875 -0.24833750000000002 -0.271625 -0.35000000000000003 -0.42500000000000004Zm2.5 16.249975c-0.061475 0.060375000000000005 -0.1010625 0.139625 -0.11249999999999999 0.22499999999999998 -0.025775 0.1445 -0.0634 0.286625 -0.11249999999999999 0.42500000000000004 -0.0515375 0.12862500000000002 -0.1187 0.250375 -0.2 0.3625 -0.0939875 0.14275 -0.21960000000000002 0.26187499999999997 -0.367075 0.34825 -0.147475 0.08625000000000001 -0.31285 0.1375 -0.48329999999999995 0.1495 -0.1704625 0.012125 -0.3414 -0.015250000000000001 -0.4995875 -0.079875 -0.158175 -0.064625 -0.2993375 -0.164875 -0.4125375 -0.292875 -0.2793375 -0.205125 -0.47828750000000003 -0.50125 -0.5625 -0.8375 -0.0497625 -0.1635 -0.0654625 -0.3355 -0.0461125 -0.505375 0.01935 -0.169875 0.0733375 -0.33399999999999996 0.1586125 -0.48212499999999997 0.0325125 -0.1175 0.0786625 -0.23074999999999998 0.1375 -0.3375 0.0787 -0.0965 0.17138750000000003 -0.18075000000000002 0.275 -0.25 0.09095 -0.063375 0.1925625 -0.10999999999999999 0.3 -0.1375h0.1c0.3575375 0.34075 0.7330749999999999 0.6619999999999999 1.125 0.9625 0.25 0.1375 0.475 0.25 0.7000000000000001 0.3875v0.0625Zm0.9750000000000001 -4.175c-0.2207 0.1515 -0.43347499999999994 0.31425000000000003 -0.6375 0.48750000000000004 -0.1345875 0.124 -0.259925 0.25775 -0.375 0.4 -0.1164625 0.144 -0.22495 0.29425 -0.325 0.44999999999999996 -0.21250000000000002 0.3375 -0.3875 0.675 -0.5874999999999999 1l-0.3 -0.28750000000000003c-0.817 -0.81125 -1.4480499999999998 -1.79025 -1.849475 -2.8693750000000002 -0.4014375 -1.079125 -0.5636875 -2.232625 -0.475525 -3.3806249999999998 1.0125000000000002 0.0625 2.0125 0.15 3.025 0.2 0.0050374999999999994 0.64475 0.10615 1.285125 0.3 1.9 0.2704625 0.7503749999999999 0.6820375 1.442 1.2125 2.0374999999999996l0.0125 0.0625Zm-0.35000000000000003 -7.9624749999999995c-0.501 0.7958125 -0.8368375 1.684225 -0.9875 2.6124750000000003h-0.25c-0.95 0 -1.9 0.1375 -2.8499999999999996 0.22499999999999998v-0.1875c0.41345 -2.3060125 1.5365375000000001 -4.4254375 3.2125 -6.062475000000001 0.17500000000000002 0.3875 0.35000000000000003 0.775 0.5625 1.1500000000000001 0.1 0.15 0.2 0.3125 0.3125 0.44999999999999996 0.11507500000000001 0.14229999999999998 0.2404125 0.276 0.375 0.4l0.42500000000000004 0.3125c-0.2625 0.325 -0.525 0.6875 -0.8 1.1Zm5.00005 -3.75v0.3625c-0.8815000000000001 0.045774999999999996 -1.7389999999999999 0.303025 -2.50005 0.75 -0.3281 0.19553750000000003 -0.63405 0.42605 -0.9125 0.6875 0 -0.11249999999999999 -0.11249999999999999 -0.22499999999999998 -0.1875 -0.3375 -0.0929125 -0.14959999999999998 -0.19740000000000002 -0.2917 -0.3125 -0.42500000000000004 -0.1112 -0.1339625 -0.232375 -0.259325 -0.3625 -0.375 -0.3 -0.3 -0.625 -0.5375 -0.925 -0.8250000000000001l0.21250000000000002 -0.17500000000000002c1.10465 -0.8675624999999999 2.3839125 -1.4858625 3.75005 -1.8125 0.5465 -0.1278 1.1025 -0.21139999999999998 1.6625 -0.25 -0.2 0.7875 -0.3125 1.6 -0.3875 2.4125l-0.0375 -0.0125Zm-0.75 -3.75v-0.08750000000000001c-0.08787500000000001 -0.15032500000000001 -0.14725 -0.3156 -0.17500000000000002 -0.48750000000000004 -0.032125 -0.12711250000000002 -0.053 -0.2567625 -0.0625 -0.3875 -0.019125 -0.1158875 -0.019125 -0.2341125 0 -0.35000000000000003 0.03675 -0.2238 0.12475 -0.43610000000000004 0.257 -0.620375s0.30525 -0.33557499999999996 0.5055 -0.442125c0.422875 -0.2324625 0.908875 -0.32438750000000005 1.3875000000000002 -0.2625 0.9750000000000001 0.08750000000000001 1.9500000000000002 0.6375 1.9 1.775 -0.00475 0.1526875 -0.03 0.30405000000000004 -0.075 0.44999999999999996 -0.040124999999999994 0.1406 -0.099 0.27515 -0.17500000000000002 0.4 -1.17025 -0.17101249999999998 -2.36025 -0.154125 -3.525 0.05l-0.0375 -0.0375Zm6.25 4.8875c-0.15 0.21250000000000002 -0.275 0.42500000000000004 -0.4 0.6375 -1.11875 -0.8194875 -2.442875 -1.3127625 -3.825 -1.4249999999999998 0 -0.9375 -0.075 -1.8875 -0.15 -2.8625 0.5365 0.00595 1.071625 0.056112499999999996 1.6 0.15 0.853125 0.15561250000000001 1.6900000000000002 0.3899375 2.5 0.7000000000000001 0.75325 0.296875 1.4507500000000002 0.71955 2.0625 1.25 -0.30275 0.20145 -0.59475 0.4184 -0.875 0.65 -0.16337500000000002 0.1358625 -0.317875 0.2819875 -0.4625 0.4375 -0.124875 0.1553125 -0.23375 0.322825 -0.325 0.5l-0.125 -0.0375Zm0.41250000000000003 1.3250000000000002c0.1875 -0.1375 0.375 -0.275 0.5625 -0.4375 0.159 -0.1317875 0.30925 -0.27375 0.44999999999999996 -0.42500000000000004l0.3875 -0.48750000000000004c0.21250000000000002 -0.28750000000000003 0.4 -0.5750000000000001 0.6 -0.8500000000000001 0.3365 0.3862125 0.63375 0.8049375000000001 0.8875 1.25 0.393125 0.75015 0.69925 1.5428 0.9125 2.3625 0.17225000000000001 0.7191625 0.28925 1.450475 0.35000000000000003 2.187475 -0.8500000000000001 -0.0625 -1.6875 -0.125 -2.5 -0.1375 -0.119875 -1.2851375 -0.6705 -2.4920875000000002 -1.5625 -3.424975l-0.08750000000000001 -0.0375Zm3.9000000000000004 12.499975000000001c0.0495 0.243375 0.0495 0.494125 0 0.7374999999999999 -0.017875000000000002 0.330875 -0.16625 0.641 -0.41250000000000003 0.8624999999999999 -0.177375 0.14200000000000002 -0.39787500000000003 0.219375 -0.625 0.219375 -0.22724999999999998 0 -0.44762499999999994 -0.077375 -0.625 -0.219375 -0.251125 -0.138 -0.46462499999999995 -0.3355 -0.6214999999999999 -0.57525 -0.156875 -0.23975 -0.252625 -0.514375 -0.27849999999999997 -0.7997500000000001 0.4505 -0.30275 0.869375 -0.6503749999999999 1.25 -1.0374999999999999 0.11249999999999999 -0.11249999999999999 0.1875 -0.2375 0.28750000000000003 -0.35000000000000003 0.2775 0.087 0.52675 0.246375 0.722375 0.461625 0.1955 0.215375 0.330125 0.478875 0.390125 0.763375l-0.08750000000000001 -0.0625Zm0.125 -6.025c-0.2885 1.57925 -0.982 3.056625 -2.0125 4.2875000000000005 -0.08750000000000001 -0.2375 -0.1875 -0.475 -0.3 -0.725 -0.07175 -0.137625 -0.15112499999999998 -0.271125 -0.2375 -0.4 -0.086375 -0.12775 -0.187 -0.24512499999999998 -0.3 -0.35000000000000003 -0.252125 -0.237875 -0.5193749999999999 -0.459125 -0.8 -0.6625000000000001 0.2295 -0.33025 0.418375 -0.6869999999999999 0.5625 -1.0625 0.322625 -0.90125 0.54075 -1.8365 0.65 -2.7875l2.6 -0.2c0.038 0.655125 0.012875000000000001 1.3122500000000001 -0.075 1.9625000000000001l-0.08750000000000001 -0.0625Zm2.625 -0.725c-0.207875 0.020625 -0.41725 0.020625 -0.625 0 -0.234375 -0.007625000000000001 -0.468125 -0.0285 -0.7000000000000001 -0.0625 0.077375 -0.8315 0.077375 -1.6684999999999999 0 -2.5 0.289 -0.136125 0.605375 -0.2045 0.925 -0.2 0.191875 0.01625 0.3775 0.0765 0.54225 0.17625 0.164875 0.09974999999999999 0.304375 0.23625000000000002 0.40775 0.39875 0.141875 0.21837499999999999 0.231625 0.46649999999999997 0.2625 0.725 0.09162500000000001 0.298875 0.068125 0.621125 -0.066125 0.9035 -0.13424999999999998 0.28225 -0.36924999999999997 0.504 -0.658875 0.6214999999999999l-0.08750000000000001 -0.0625Z" clip-rule="evenodd" stroke-width="1.25"></path>
  <path fill="#010101" fill-rule="evenodd" d="M16.633375 21.425125c0.144625 -0.039874999999999994 0.28325 -0.09862499999999999 0.41250000000000003 -0.17500000000000002 0.325 -0.42500000000000004 0 -1.1125 -0.8125 -0.9625 -0.28750000000000003 0 -2.1625 0.275 -2.175 0.275 -0.109 0.0345 -0.204125 0.10275 -0.271625 0.19487500000000002 -0.0675 0.092125 -0.103875 0.20337500000000003 -0.103875 0.317625 0 0.11424999999999999 0.036375000000000005 0.2255 0.103875 0.31775 0.0675 0.092125 0.162625 0.160375 0.271625 0.19474999999999998 0.8525 0.23375 1.758625 0.1765 2.575 -0.1625Z" clip-rule="evenodd" stroke-width="1.25"></path>
  <path fill="#010101" fill-rule="evenodd" d="M18.171 23.7875c-0.534125 0.17725000000000002 -1.08175 0.311 -1.6375000000000002 0.4 -0.7061249999999999 0.162375 -1.425875 0.258625 -2.15 0.28750000000000003 -0.486875 0.0095 -0.9733749999999999 -0.036625 -1.45 -0.1375 -0.4374375 0 -0.3625 0.55 0 0.8125 0.3 0.0625 0.22499999999999998 0.125 0.525 0.1625l-0.3375 0.7124999999999999c-0.09025 0.245 -0.128 0.506375 -0.11075 0.7668750000000001 0.01725 0.260625 0.089 0.514625 0.21075 0.745625 0.256375 0.4085 0.625375 0.7340000000000001 1.0625 0.9375 0.7445 0.286375 1.5637499999999998 0.312875 2.325 0.075 0.30974999999999997 -0.079125 0.602125 -0.21475 0.8624999999999999 -0.4 0.33599999999999997 -0.219875 0.5995 -0.53425 0.757375 -0.903375 0.157875 -0.36912500000000004 0.203125 -0.7767499999999999 0.130125 -1.1716250000000001 -0.033375 -0.19837500000000002 -0.09225 -0.391625 -0.17500000000000002 -0.5750000000000001 -0.1035 -0.22974999999999998 -0.22474999999999998 -0.45125 -0.3625 -0.6625000000000001 0.24125000000000002 -0.057625 0.47912499999999997 -0.1285 0.7124999999999999 -0.21250000000000002 0.6875 -0.125 0.11249999999999999 -1 -0.3625 -0.8375Zm-1.3875000000000002 3.3125c-0.236625 0.114 -0.489625 0.18987500000000002 -0.75 0.22499999999999998 -0.39675000000000005 0.073875 -0.80575 0.043750000000000004 -1.1875 -0.08750000000000001 -0.22762500000000002 -0.05925 -0.43237499999999995 -0.1855 -0.5874999999999999 -0.3625 -0.14125000000000001 -0.16674999999999998 -0.212875 -0.38175000000000003 -0.2 -0.6l0.125 -0.5375c0.047875 -0.10087499999999999 0.111125 -0.19362500000000002 0.1875 -0.275 0.047125 -0.048875 0.09724999999999999 -0.09475 0.15 -0.1375 0.7406250000000001 -0.028124999999999997 1.477125 -0.12437500000000001 2.2 -0.28750000000000003l0.3375 -0.075c-0.018375 0.061125 -0.018375 0.126375 0 0.1875 0.092125 0.20325 0.17149999999999999 0.41200000000000003 0.2375 0.625 0.013125000000000001 0.116375 0.013125000000000001 0.23375 0 0.35000000000000003 0.016999999999999998 0.192875 -0.0225 0.38637499999999997 -0.1135 0.55725 -0.090875 0.170875 -0.2295 0.311625 -0.39899999999999997 0.40525v0.0125Z" clip-rule="evenodd" stroke-width="1.25"></path>
</svg>