<svg width="20" height="22" viewBox="0 0 20 22" fill="none" xmlns="http://www.w3.org/2000/svg"> <path d="M12.3699 4.67642C13.0985 4.25371 13.8521 4.22094 14.6003 4.30067C15.9875 4.44704 17.0831 5.08712 17.7778 6.33778C18.2398 7.1701 18.2005 8.02754 17.8499 8.86968C17.6489 9.35029 17.3474 9.79048 17.0602 10.3028C17.194 10.4064 17.3374 10.4971 17.4883 10.5736C18.4321 10.9581 18.9618 11.7118 19.284 12.6239C19.6335 13.6355 19.7033 14.7227 19.4861 15.7707C19.4367 16.0638 19.3292 16.3441 19.1699 16.595C19.0107 16.846 18.8029 17.0626 18.5588 17.2322C17.8499 17.7434 17.082 18.0372 16.2049 18.0339C15.8947 18.0339 15.5856 18.0339 15.3311 18.0339C15.0853 18.1912 15.1126 18.3955 15.0842 18.5724C14.975 19.2463 14.6091 19.798 14.1864 20.3004C13.2437 21.42 11.3399 21.704 10.0696 20.9711C9.6676 20.7395 9.46225 20.3485 9.18699 20.0164C8.99703 19.7578 8.82234 19.4882 8.66379 19.2092C8.53958 19.233 8.41885 19.2722 8.30443 19.3261C7.61411 19.7761 6.83859 20.0219 6.06744 20.2753C4.71411 20.7198 3.44597 20.2753 2.60054 19.1218C2.20242 18.5584 1.9376 17.9119 1.82612 17.2311C1.66614 16.3904 1.83295 15.5204 2.29252 14.7986C2.47275 14.5059 2.67809 14.2306 2.90747 13.8953C2.78414 13.7745 2.65036 13.6648 2.5077 13.5676C2.12977 13.3491 1.7431 13.1492 1.35207 12.9428C0.53504 12.5015 0.129804 11.8134 0.0577136 10.8991C-0.0166475 10.0183 0.186958 9.13623 0.639899 8.37707C0.847687 8.02491 1.13141 7.72354 1.47039 7.49491C1.80938 7.26627 2.1951 7.11612 2.59945 7.05541C3.02762 6.98113 3.46235 6.94618 3.87633 6.89593C3.908 6.80746 3.95497 6.74411 3.94077 6.7026C3.59452 5.70316 3.59561 4.67314 3.68299 3.64421C3.75173 2.89308 4.0128 2.17232 4.44104 1.5514C4.91509 0.847975 5.67204 0.478784 6.44537 0.228652C7.29176 -0.0297216 8.19753 -0.0186523 9.03735 0.260328C10.6266 0.76387 11.5889 1.88346 11.9494 3.51751C12.0226 3.88124 12.0903 4.24934 12.3699 4.67642ZM9.65558 17.7237C9.74733 18.674 10.229 19.4025 10.7916 20.0809C10.9391 20.2394 11.1284 20.353 11.3377 20.4085C12.1962 20.6554 12.6779 20.4664 13.1771 19.7182C13.2796 19.5617 13.3729 19.3994 13.4567 19.2322C13.7647 18.6292 13.9461 18.0121 13.6479 17.3447C13.6205 17.2553 13.6087 17.1618 13.6129 17.0683C13.6031 16.8652 13.7505 16.6773 13.9472 16.7013C14.2847 16.7428 14.6517 16.7603 14.9455 16.9089C15.4851 17.1819 16.017 17.1896 16.5839 17.0804C17.4403 16.9154 17.9842 16.3933 18.1361 15.5512C18.1976 15.2445 18.2414 14.9345 18.2671 14.6227C18.3348 13.5162 18.0727 12.5168 17.271 11.702C17.0147 11.4237 16.6701 11.2427 16.2956 11.1897C16.0485 11.1602 15.8042 11.1113 15.5648 11.0433C15.5119 11.0277 15.4628 11.0011 15.4209 10.9652C15.379 10.9292 15.3453 10.8848 15.3218 10.8348C15.2984 10.7848 15.2858 10.7305 15.285 10.6753C15.2841 10.6201 15.295 10.5653 15.3169 10.5147C15.3694 10.37 15.4458 10.2353 15.543 10.116C15.7199 9.89752 15.9362 9.70965 16.1022 9.48464C16.5391 8.89044 16.8264 8.20995 16.7576 7.47921C16.5981 5.67476 14.6331 4.6644 13.0438 5.54478C12.6986 5.75655 12.3646 5.98625 12.0433 6.23292C11.9507 6.31528 11.8525 6.39119 11.7495 6.46011C11.6679 6.50681 11.5756 6.53165 11.4816 6.53222C11.3875 6.53279 11.295 6.50908 11.2128 6.46338C11.1306 6.41768 11.0616 6.35154 11.0125 6.27136C10.9634 6.19119 10.9358 6.09969 10.9325 6.00572C10.9172 5.81894 10.9325 5.62998 10.9325 5.4432C10.9343 4.50073 10.7159 3.57086 10.2946 2.72779C9.77683 1.72071 9.00021 1.06971 7.79106 1.05005C7.18703 1.04022 6.72172 1.35261 6.23019 1.62568C5.45467 2.04839 5.05162 2.70704 4.95113 3.57758C4.86919 4.29329 4.90498 5.01759 5.05708 5.72173C5.18597 6.32795 5.36183 6.92324 5.52458 7.55349C5.37912 7.71474 5.19698 7.83863 4.99356 7.91467C4.79014 7.99072 4.57141 8.01669 4.35584 7.9904C4.04664 7.9456 3.7343 7.92623 3.42194 7.93251C2.57761 7.98603 1.95719 8.36942 1.62295 9.18754C1.45414 9.62514 1.37286 10.0916 1.38374 10.5605C1.38374 11.241 1.65354 11.7839 2.23463 12.1345C2.90092 12.5365 3.54537 12.993 4.29685 13.2366C4.46179 13.2901 4.59942 13.4245 4.73377 13.5064C4.71192 13.9586 4.41919 14.1487 4.14721 14.3606C2.47602 15.6527 2.99267 18.2524 4.41264 19.2496C4.58744 19.3842 4.79117 19.4761 5.00769 19.5182C5.22421 19.5603 5.44755 19.5514 5.66002 19.4921C6.71407 19.1896 7.77358 18.8848 8.35686 17.8024C8.54364 17.4539 8.903 17.4168 9.25799 17.5326C9.3942 17.5883 9.52696 17.6522 9.65558 17.7237Z" fill="#D5665C" stroke="#D5665C" stroke-width="0.0853333"/> <path d="M9.65562 17.7237C9.527 17.6522 9.39424 17.5883 9.25803 17.5326C8.89867 17.4168 8.54368 17.4539 8.3569 17.8024C7.77362 18.8848 6.71848 19.1896 5.66006 19.4921C5.44759 19.5514 5.22424 19.5603 5.00772 19.5182C4.79121 19.4761 4.58747 19.3842 4.41267 19.2496C3.00144 18.2524 2.48152 15.6528 4.14725 14.3562C4.41922 14.1443 4.71196 13.9543 4.7338 13.5021C4.60491 13.4201 4.46728 13.2836 4.29689 13.2323C3.54103 12.9887 2.90095 12.5321 2.23466 12.1302C1.65357 11.7795 1.3805 11.2367 1.38378 10.5562C1.3729 10.0873 1.45417 9.62079 1.62299 9.18318C1.95722 8.36288 2.57764 7.98167 3.42197 7.92815C3.73433 7.92188 4.04668 7.94124 4.35587 7.98604C4.57144 8.01234 4.79018 7.98636 4.9936 7.91032C5.19702 7.83427 5.37915 7.71039 5.52461 7.54913C5.36186 6.92326 5.18601 6.32796 5.05712 5.72175C4.90392 5.01778 4.86702 4.29349 4.94789 3.5776C5.04838 2.70377 5.45143 2.04841 6.22695 1.62569C6.72175 1.35262 7.18706 1.04023 7.7911 1.05006C8.9926 1.06972 9.77686 1.72072 10.2935 2.73108C10.7148 3.57415 10.9333 4.50402 10.9314 5.44649C10.9314 5.63327 10.9183 5.82224 10.9314 6.00902C10.9348 6.10298 10.9624 6.19448 11.0115 6.27466C11.0606 6.35483 11.1296 6.42097 11.2117 6.46667C11.2939 6.51237 11.3865 6.53608 11.4805 6.53551C11.5745 6.53494 11.6668 6.5101 11.7484 6.4634C11.8514 6.39448 11.9496 6.31857 12.0423 6.23621C12.3635 5.98954 12.6975 5.75984 13.0428 5.54807C14.6299 4.6677 16.5949 5.67805 16.7565 7.4825C16.821 8.21324 16.5381 8.89373 16.1012 9.48793C15.9351 9.71294 15.7189 9.90081 15.5419 10.1193C15.4447 10.2386 15.3683 10.3733 15.3158 10.518C15.2939 10.5686 15.2831 10.6234 15.2839 10.6786C15.2848 10.7337 15.2973 10.7881 15.3208 10.8381C15.3442 10.8881 15.378 10.9325 15.4199 10.9684C15.4618 11.0044 15.5108 11.031 15.5638 11.0466C15.8031 11.1145 16.0475 11.1635 16.2945 11.193C16.669 11.246 17.0137 11.427 17.2699 11.7053C18.0716 12.5201 18.3338 13.5195 18.2661 14.626C18.2403 14.9378 18.1965 15.2478 18.135 15.5545C17.9832 16.3955 17.4392 16.9176 16.5829 17.0836C16.0171 17.1929 15.4906 17.1852 14.9444 16.9122C14.6506 16.7636 14.2891 16.7461 13.9461 16.7046C13.7495 16.6806 13.602 16.8685 13.6119 17.0716C13.6076 17.1651 13.6195 17.2585 13.6468 17.348C13.945 18.0154 13.7637 18.6325 13.4557 19.2354C13.3719 19.4027 13.2785 19.565 13.176 19.7215C12.6769 20.4697 12.193 20.6587 11.3366 20.4118C11.1274 20.3562 10.938 20.2427 10.7905 20.0841C10.2236 19.4026 9.74191 18.674 9.65562 17.7237ZM10.1701 9.23343C9.9833 9.23343 9.79543 9.22578 9.60865 9.23343C8.88884 9.26947 8.36563 9.62774 8.03577 10.2514C7.75729 10.7443 7.5948 11.2942 7.56062 11.8593C7.52349 12.8948 7.86865 13.6867 8.93034 14.0668C9.42786 14.2502 9.95441 14.3424 10.4847 14.3387C11.4251 14.3158 12.1526 13.8636 12.56 12.9778C12.805 12.4687 12.9454 11.9156 12.9729 11.3514C12.9882 10.8784 12.8899 10.3912 12.4857 10.0821C11.802 9.56548 11.069 9.15151 10.1646 9.23343H10.1701Z" stroke="#D5665C" stroke-width="0.0853333"/> <path d="M10.1646 9.2334C11.069 9.15148 11.803 9.56109 12.4803 10.0843C12.8844 10.3934 12.9827 10.8806 12.9674 11.3535C12.9399 11.9178 12.7995 12.4708 12.5545 12.9799C12.1471 13.8658 11.4196 14.318 10.4792 14.3409C9.94894 14.3445 9.42239 14.2524 8.92488 14.0689C7.86318 13.6888 7.51802 12.8969 7.55516 11.8614C7.58933 11.2963 7.75183 10.7465 8.0303 10.2536C8.35799 9.6299 8.88337 9.27054 9.60319 9.23559C9.78997 9.22575 9.9833 9.2334 10.1646 9.2334ZM8.84514 11.7959C8.89211 11.9947 8.92706 12.342 9.05486 12.6501C9.36398 13.3928 10.0379 13.5861 10.7337 13.1809C11.2995 12.8532 11.4896 12.3071 11.6075 11.7162C11.7539 10.9832 11.4928 10.4699 10.7839 10.2875C9.40439 9.93355 9.01226 10.1422 8.84514 11.7959Z" fill="#D5665C" stroke="#D5665C" stroke-width="0.0853333"/> <path d="M8.84509 11.7959C9.01221 10.1422 9.40434 9.93902 10.7839 10.2875C11.4928 10.4699 11.7538 10.9832 11.6075 11.7162C11.4895 12.3093 11.2994 12.851 10.7336 13.1809C10.04 13.5861 9.36393 13.3928 9.05481 12.6501C8.92701 12.342 8.89097 11.9947 8.84509 11.7959Z" stroke="#D5665C" stroke-width="0.0853333"/> </svg>