<svg xmlns="http://www.w3.org/2000/svg" fill="none" viewBox="0 0 30 30" id="Video-Game-Controller--Streamline-Freehand" height="30" width="30">
  <desc>
    Video Game Controller Streamline Icon: https://streamlinehq.com
  </desc>
  <path fill="#010101" fill-rule="evenodd" d="m8.985775 17.42125 -1.5732499999999998 -0.299625v-0.19974999999999998c-0.0874125 -0.561875 -0.2372375 -1.0863749999999999 -0.32465 -1.66075 0.010150000000000001 -0.05575 0.0079125 -0.113125 -0.00655 -0.167875 -0.014450000000000001 -0.054875 -0.040775000000000006 -0.105875 -0.0771 -0.14937499999999998 -0.036324999999999996 -0.0435 -0.08177500000000001 -0.07849999999999999 -0.133125 -0.10250000000000001 -0.05135 -0.024125 -0.1073625 -0.0365 -0.16405 -0.0365 -0.0567 0 -0.11270000000000001 0.012375 -0.16405 0.0365 -0.05135 0.023999999999999997 -0.0968 0.059 -0.133125 0.10250000000000001 -0.036324999999999996 0.0435 -0.06265 0.0945 -0.0771 0.14937499999999998 -0.0144625 0.05475 -0.0167 0.112125 -0.00655 0.167875 -0.147425 0.603625 -0.2517375 1.217 -0.3121625 1.8355h-0.287175c-0.59935 0.074875 -1.161225 0.22474999999999998 -1.7605625 0.349625 -0.10266249999999999 0 -0.2011125 0.040749999999999995 -0.2737 0.113375 -0.0725875 0.072625 -0.113375 0.171 -0.113375 0.273625 0 0.10275 0.0407875 0.201125 0.113375 0.27375 0.0725875 0.072625 0.1710375 0.113375 0.2737 0.113375 0.58685 0.08737500000000001 1.13625 0.21225 1.7230999999999999 0.28725h0.3496125c0.07491249999999999 0.536875 0.19977499999999998 1.06125 0.2622125 1.598125 -0.0033625 0.0585 0.0050374999999999994 0.117 0.0247 0.17212499999999997 0.019675 0.055125 0.05021249999999999 0.10562500000000001 0.0898 0.14875 0.039599999999999996 0.043125000000000004 0.0874375 0.07775 0.1407 0.10200000000000001 0.05325 0.02425 0.1108375 0.037625 0.169325 0.039125 0.11501249999999999 0.00025 0.22572499999999998 -0.043750000000000004 0.3093375 -0.12262500000000001 0.0836125 -0.07900000000000001 0.133775 -0.187 0.1401625 -0.301875 0.1055125 -0.553125 0.18055000000000002 -1.11175 0.2247625 -1.673125l1.4983374999999999 -0.162375c0.1159125 0 0.2270625 -0.046 0.309025 -0.128 0.08195 -0.081875 0.128 -0.193125 0.128 -0.309s-0.046049999999999994 -0.227 -0.128 -0.309c-0.08196250000000001 -0.082 -0.1931125 -0.128 -0.309025 -0.128l0.08739999999999999 -0.0125Z" clip-rule="evenodd" stroke-width="1.25"></path>
  <path fill="#010101" fill-rule="evenodd" d="M24.543625 14.050125c-1.760625 0.324625 -2.1226249999999998 2.984125 0 2.89675 0.2655 0.00475 0.5271250000000001 -0.063 0.757 -0.19587500000000002s0.41912499999999997 -0.32587499999999997 0.5475 -0.55825c0.128375 -0.232375 0.191 -0.495375 0.18125 -0.76075 -0.009875000000000002 -0.26525 -0.091875 -0.522875 -0.237125 -0.7451249999999999 -0.134625 -0.20575 -0.320625 -0.37275 -0.539625 -0.484375 -0.219 -0.11174999999999999 -0.4635 -0.16424999999999998 -0.7090000000000001 -0.15237499999999998Z" clip-rule="evenodd" stroke-width="1.25"></path>
  <path fill="#010101" fill-rule="evenodd" d="M21.434375000000003 17.109125c-1.7730000000000001 0.32475 -2.135125 2.98425 0 2.8968749999999996 0.26375 0.0005 0.522875 -0.06987499999999999 0.75025 -0.20375000000000001 0.227375 -0.13375 0.414625 -0.32625000000000004 0.54225 -0.557125 0.1275 -0.230875 0.19075000000000003 -0.491875 0.183 -0.755625 -0.007625000000000001 -0.263625 -0.086 -0.5205 -0.226875 -0.7435 -0.134625 -0.20575 -0.320625 -0.37275 -0.539625 -0.484375 -0.219 -0.11174999999999999 -0.4635 -0.16424999999999998 -0.7090000000000001 -0.1525Z" clip-rule="evenodd" stroke-width="1.25"></path>
  <path fill="#222222" fill-rule="evenodd" d="M16.564875 16.48475c-0.39949999999999997 0 -0.761625 -0.137375 -1.1612500000000001 -0.17475000000000002h-0.499375c-0.16375 0.008499999999999999 -0.3265 0.029375 -0.487 0.062375 -0.41200000000000003 0.075 -0.749125 0.21225 -1.1612500000000001 0.324625 -0.050749999999999997 0 -0.10112499999999999 0.01 -0.148125 0.0295 -0.046875 0.0195 -0.089625 0.047999999999999994 -0.1255 0.083875 -0.036 0.036 -0.0645 0.078625 -0.08399999999999999 0.12562500000000001 -0.019375 0.047 -0.029375 0.09724999999999999 -0.029375 0.148125s0.01 0.10112499999999999 0.029375 0.148125c0.0195 0.047 0.047999999999999994 0.089625 0.08399999999999999 0.12562500000000001 0.035875 0.035875 0.078625 0.064375 0.1255 0.083875 0.047 0.019375 0.09737499999999999 0.029375 0.148125 0.029375 0.40925 0.12687500000000002 0.8263750000000001 0.227 1.248625 0.29975 0.170125 0.018875 0.34187500000000004 0.018875 0.512 0 0.172375 -0.002375 0.344 -0.02325 0.511875 -0.0625 0.399625 -0.08737500000000001 0.774125 -0.21225 1.1737499999999998 -0.337125 0.057499999999999996 -0.006125 0.11325 -0.02375 0.164 -0.051625000000000004 0.050625 -0.027875 0.09525 -0.065625 0.13125 -0.110875 0.036 -0.045375 0.06275 -0.09737499999999999 0.07849999999999999 -0.153 0.01575 -0.05575 0.020249999999999997 -0.114 0.01325 -0.171375 -0.004 -0.062375 -0.021375 -0.12312500000000001 -0.051000000000000004 -0.17825000000000002 -0.0295 -0.05499999999999999 -0.0705 -0.10312500000000001 -0.12025 -0.141 -0.049625 -0.037875 -0.10687500000000001 -0.064625 -0.167875 -0.07849999999999999 -0.060875 -0.013875 -0.124 -0.014499999999999999 -0.18525 -0.001875Z" clip-rule="evenodd" stroke-width="1.25"></path>
  <path fill="#010101" fill-rule="evenodd" d="M28.227000000000004 12.901375c-1.098375 -1.2656124999999998 -2.53725 -2.1887875 -4.1455 -2.6595999999999997 -0.40825 -0.1136375 -0.82625 -0.18888749999999999 -1.248625 -0.22474999999999998 -0.5743750000000001 0 -1.1487500000000002 -0.074925 -1.723 -0.1123875 -0.5743750000000001 -0.03745 -1.3985 0 -2.09775 0 -1.311 0 -2.622125 0.12486250000000002 -3.933125 0.212275 0.168875 -1.1260875 0.052875 -2.276525 -0.337125 -3.3463125 -0.342625 -0.8910125000000001 -1.00625 -1.6215375 -1.8605 -2.0477375 -0.6689125 -0.2718125 -1.3888375 -0.39535 -2.110125 -0.3621 -0.9804625 0.08656250000000001 -1.95045 0.26635 -2.8968 0.5369125 -0.053337499999999996 0.00445 -0.10516249999999999 0.0199 -0.1522125 0.045399999999999996 -0.04705 0.025487499999999996 -0.08829999999999999 0.060450000000000004 -0.1211625 0.1027 -0.032850000000000004 0.0422375 -0.0565875 0.090825 -0.0697125 0.1427125 -0.013125000000000001 0.051875000000000004 -0.015349999999999999 0.10591249999999999 -0.0065249999999999996 0.1586875 0.0075375 0.0495 0.024925 0.09697499999999999 0.0511375 0.1396375 0.0262125 0.0426625 0.0607 0.0796375 0.1014375 0.1087375 0.040749999999999995 0.029099999999999997 0.08691249999999999 0.0497375 0.1357625 0.0607 0.04885 0.010950000000000001 0.0994125 0.011999999999999999 0.148675 0.0030875 0.7640625 -0.063825 1.5308625 -0.088825 2.2974625 -0.074925 0.6873875 -0.0035 1.3664625 0.15025 1.9853 0.4495125 0.36026250000000004 0.1681125 0.6816374999999999 0.409175 0.9437625 0.7079249999999999 0.26225 0.29874999999999996 0.45962500000000006 0.6486875000000001 0.5795 1.02765 0.27475 0.7606875000000001 0.41424999999999995 1.5636 0.41212499999999996 2.372375 -2.7998624999999997 0.20247500000000002 -5.5799875 0.6199 -8.315837499999999 1.248625 -1.2976125 0.31756249999999997 -2.497875 0.9477 -3.4961375 1.8355 -0.8382000000000001 0.8418749999999999 -1.4816675000000001 1.857375 -1.8850775 2.974875 -0.403409125 1.117375 -0.556958625 2.30975 -0.4498375 3.493 0.039246875 1.2289999999999999 0.44056625000000005 2.419125 1.15361125 3.4208749999999997 0.71304125 1.001875 1.7060537500000001 1.77075 2.85446625 2.210375 1.166475 0.34887500000000005 2.3996 0.413125 3.596025 0.18724999999999997 1.2263875 -0.17525 2.3688375 -0.724625 3.2713750000000004 -1.5732499999999998 0.1382875 -0.153 0.25968749999999996 -0.32037499999999997 0.3621 -0.499375 0.162325 -0.29975 0.3371375 -0.674375 0.5119375 -0.9865 0.1748125 -0.312125 0.12486250000000002 -0.274625 0.22474999999999998 -0.312125 0.57175 -0.172375 1.163625 -0.269 1.7605000000000002 -0.28712499999999996 1.4235 -0.11237499999999999 3.159125 -0.124875 4.1455 -0.137375 0.54225 0.583 1.1265 1.1255 1.7480000000000002 1.623125 0.49625 0.36450000000000005 1.05475 0.635375 1.64825 0.799125 0.995625 0.21075 2.0255 0.199125 3.01625 -0.033999999999999996 0.990625 -0.233125 1.9176250000000001 -0.6819999999999999 2.714875 -1.3145000000000002 0.867 -0.580875 1.586125 -1.3565 2.1 -2.264875 0.5138750000000001 -0.9085 0.808125 -1.9243750000000002 0.8592500000000001 -2.966875 -0.025750000000000002 -1.7125000000000001 -0.653375 -3.36125 -1.7730000000000001 -4.65725Zm-1.898 8.902625c-0.642375 0.552125 -1.3973749999999998 0.95775 -2.2125 1.1885 -0.815125 0.230625 -1.67075 0.281 -2.50725 0.1475 -0.48625 -0.12987500000000002 -0.94375 -0.350125 -1.3485 -0.64925 -0.500375 -0.35325 -0.9682499999999999 -0.75025 -1.3985 -1.18625 0.0055000000000000005 -0.028874999999999998 0.0055000000000000005 -0.0585 0 -0.08737500000000001 -0.0014999999999999998 -0.057375 -0.014499999999999999 -0.113875 -0.038 -0.16625 -0.023375 -0.052500000000000005 -0.057 -0.09974999999999999 -0.09875 -0.139125 -0.041749999999999995 -0.03950000000000001 -0.090875 -0.07025 -0.1445 -0.09075 -0.053625 -0.020374999999999997 -0.11075 -0.03 -0.16825 -0.028375 -0.8115 0 -2.971625 -0.09987499999999999 -4.68225 0 -0.7251249999999999 0.004875 -1.4467374999999998 0.101375 -2.14765 0.28712499999999996 -0.2349625 0.10800000000000001 -0.4373625 0.276 -0.58685 0.487 -0.3371375 0.4245 -0.6243125 1.18625 -0.94895 1.4983750000000002 -0.7394625 0.6285000000000001 -1.6555125000000002 1.0122499999999999 -2.6221125 1.09875 -0.9686375 0.16275 -1.9622375 0.09 -2.8968 -0.21225 -0.8770749999999999 -0.36 -1.630725 -0.967 -2.1693499999999997 -1.74725 -0.5386375 -0.78025 -0.8390625 -1.700125 -0.8647874999999999 -2.647875 -0.12306249999999999 -0.979 -0.0364 -1.973 0.25422500000000003 -2.9158749999999998 0.2906375 -0.943 0.778575 -1.8132499999999998 1.4314125 -2.553125 0.8388875 -0.79775 1.8585375000000002 -1.3803750000000001 2.9717124999999998 -1.6981 0.11237499999999999 0 3.9456375 -1.4109375 11.874400000000001 -1.361 0.9988750000000001 0 1.9977500000000001 0 3.009125 0.1498375 0.549375 0.062424999999999994 1.098875 0.08739999999999999 1.64825 0.17479999999999998 0.335125 0.0437125 0.665375 0.1189625 0.986375 0.2247625 1.3343749999999999 0.4219125 2.523875 1.2092 3.43375 2.27245 0.901 1.04475 1.416625 2.366875 1.4608750000000001 3.7458750000000003 -0.025500000000000002 0.82575 -0.24025000000000002 1.6345 -0.62775 2.364125 -0.3875 0.7295 -0.9373750000000001 1.3603750000000001 -1.607375 1.84375Z" clip-rule="evenodd" stroke-width="1.25"></path>
</svg>