<svg xmlns="http://www.w3.org/2000/svg" fill="none" viewBox="0 0 30 30" id="Business-Deal-Handshake--Streamline-Freehand" height="30" width="30">
  <desc>
    Business Deal Handshake Streamline Icon: https://streamlinehq.com
  </desc>
  <path fill="#222222" fill-rule="evenodd" d="M2.8843625 15.20175c1.2495 0.949625 2.1366375 0.0625 1.174525 -0.987l-0.0999625 -0.1c-0.2049875 -0.1965 -0.421975 -0.380125 -0.649725 -0.5497500000000001 -0.23741249999999997 -0.17500000000000002 -0.4873125 -0.324875 -0.7372125 -0.47487500000000005 -0.6044625 -0.339875 -1.2405375 -0.6202375 -1.8992224999999998 -0.8371375000000001C0.56175 12.1983125 0.43356249999999996 12.189975 0.31639874999999995 12.2298125c-0.11716249999999999 0.039825 -0.213701625 0.12457499999999999 -0.268380375 0.2355875 -0.0546786625 0.11097499999999999 -0.06301762500000001 0.239225 -0.02318225 0.35635 0.03983525 0.117125 0.12458137500000001 0.21375000000000002 0.23559637500000002 0.26837500000000003 0.53728125 0.362375 0.98709875 0.8247500000000001 1.4993925 1.2495 0.328475 0.292 0.6748375 0.56325 1.037075 0.81225l0.0874625 0.049874999999999996Z" clip-rule="evenodd" stroke-width="1.25"></path>
  <path fill="#010101" fill-rule="evenodd" d="M14.991874999999999 22.0115c-0.041374999999999995 -0.11599999999999999 -0.127125 -0.21075 -0.2385 -0.26349999999999996 -0.11124999999999999 -0.052625 -0.23900000000000002 -0.059 -0.355 -0.017625 -0.11599999999999999 0.0415 -0.21075 0.12725 -0.26349999999999996 0.2385 -0.052625 0.111375 -0.059 0.23900000000000002 -0.017625 0.355 0.06962499999999999 0.36450000000000005 -0.008499999999999999 0.74175 -0.217 1.04875 -0.208625 0.306875 -0.5305 0.5185 -0.895 0.588125 -0.22037500000000002 0.005999999999999999 -0.439 -0.04125 -0.6372500000000001 -0.1375 -0.21358749999999999 -0.08175 -0.40891249999999996 -0.20487499999999997 -0.574775 -0.36225 -0.11071249999999999 -0.11499999999999999 -0.21499999999999997 -0.236 -0.312375 -0.362375 -0.057075 -0.088375 -0.099275 -0.1855 -0.12494999999999999 -0.287375 -0.050725 -0.23775000000000002 -0.0153 -0.48575 0.0999625 -0.69975 0.0874625 -0.08750000000000001 0.1499375 -0.17500000000000002 0.22491250000000002 -0.262375 0.10361250000000001 -0.14550000000000002 0.235325 -0.268625 0.3873375 -0.362375 0.2747625 -0.180125 0.5961375 -0.276 0.9246375 -0.276s0.649875 0.095875 0.924625 0.276c0.079625 0.06575 0.181125 0.09925 0.284375 0.09375 0.10312500000000001 -0.0055000000000000005 0.20049999999999998 -0.0495 0.272875 -0.12325 0.07225 -0.073875 0.114125 -0.17225000000000001 0.117375 -0.2755 0.00325 -0.10325000000000001 -0.032375 -0.20400000000000001 -0.09987499999999999 -0.28225 -0.307125 -0.31475000000000003 -0.69175 -0.54275 -1.115125 -0.66125 -0.423375 -0.1185 -0.870625 -0.12312500000000001 -1.2963875 -0.013500000000000002 -0.002675 -0.19474999999999998 -0.032100000000000004 -0.388125 -0.0874625 -0.57475 -0.042425 -0.116875 -0.1290125 -0.21250000000000002 -0.2411625 -0.26625 -0.11215 -0.05374999999999999 -0.24091250000000003 -0.061375 -0.35860000000000003 -0.021124999999999998 -0.058887499999999995 0.019624999999999997 -0.11322499999999999 0.050875000000000004 -0.159775 0.091875 -0.04655 0.041 -0.084375 0.091 -0.1111875 0.147 -0.0268125 0.056 -0.0420875 0.11674999999999999 -0.044912499999999994 0.17875 -0.002825 0.062 0.006874999999999999 0.124 0.0285 0.18212499999999998 0.0687125 0.211125 0.0687125 0.438625 0 0.64975 -0.3848125 0.220625 -0.70395 0.5397500000000001 -0.924625 0.924625 -0.04983750000000001 0.005375 -0.1001125 0.005375 -0.14995 0 -0.21663749999999998 0.009125 -0.43194999999999995 -0.03825 -0.6247375000000001 -0.1375 -0.2404375 -0.055874999999999994 -0.4662 -0.162375 -0.6622375 -0.312375 -0.112625 -0.109625 -0.21316249999999998 -0.23112500000000002 -0.299875 -0.362375 -0.06555 -0.085 -0.1123875 -0.182875 -0.13745000000000002 -0.287375 -0.040299999999999996 -0.263375 0.0046500000000000005 -0.5327500000000001 0.128275 -0.76875 0.1236375 -0.236 0.3194875 -0.426375 0.5589500000000001 -0.543125 0.273575 -0.18325000000000002 0.5953875 -0.281 0.924625 -0.281s0.6510499999999999 0.09775 0.924625 0.281c0.07953750000000001 0.076125 0.18608750000000002 0.11762500000000001 0.296225 0.11537499999999999 0.110125 -0.002375 0.21481250000000002 -0.048375 0.2910375 -0.12787500000000002 0.0762125 -0.079625 0.117725 -0.186125 0.11537499999999999 -0.29625 -0.0023374999999999997 -0.110125 -0.048337500000000005 -0.21487499999999998 -0.12787500000000002 -0.29100000000000004 -0.25335 -0.26875 -0.5661999999999999 -0.47425 -0.9134 -0.600125 -0.34721250000000003 -0.125875 -0.7190874999999999 -0.168625 -1.0857875 -0.124625 0.0445875 -0.34887500000000005 -0.007274999999999999 -0.703125 -0.1499375 -1.024625 -0.041425000000000003 -0.11599999999999999 -0.127225 -0.21075 -0.238525 -0.26349999999999996 -0.11131250000000001 -0.052625 -0.23900000000000002 -0.059 -0.3549875 -0.017625 -0.115975 0.0415 -0.21076250000000002 0.12725 -0.2634875 0.2385 -0.052712499999999995 0.111375 -0.059062500000000004 0.23900000000000002 -0.0176375 0.355 0.0430875 0.18350000000000002 0.0441125 0.374375 0.0029999999999999996 0.55825 -0.0411125 0.184 -0.1233 0.35612499999999997 -0.2404125 0.5038750000000001 -0.24323750000000002 0.129375 -0.466325 0.2935 -0.6622250000000001 0.48724999999999996 -0.071975 0.036375000000000005 -0.1473 0.065625 -0.22491250000000002 0.08750000000000001 -0.21575 0 -0.4289375 -0.046875 -0.62475 -0.1375 -0.21357500000000001 -0.08175 -0.40890000000000004 -0.20487499999999997 -0.5747625 -0.36225 -0.1141875 -0.11174999999999999 -0.21868749999999998 -0.233 -0.312375 -0.362375 -0.06459999999999999 -0.08875 -0.1074 -0.1915 -0.12494999999999999 -0.299875 -0.051775 -0.26737500000000003 -0.009049999999999999 -0.544375 0.1208625 -0.78375 0.1299125 -0.23925 0.33895000000000003 -0.426 0.59135 -0.52825 0.2747625 -0.180125 0.5961124999999999 -0.276 0.924625 -0.276 0.3285125 0 0.6498625 0.095875 0.924625 0.276 0.08072499999999999 0.047375 0.17515 0.06587499999999999 0.267775 0.052375 0.0926125 -0.013375 0.17791250000000003 -0.057875 0.241875 -0.12625 0.0639625 -0.06825 0.102775 -0.156375 0.110075 -0.24962499999999999 0.007287500000000001 -0.093375 -0.017374999999999998 -0.186375 -0.06995 -0.26375 -0.39465 -0.35187499999999994 -0.878 -0.589125 -1.3977624999999998 -0.6859999999999999 -0.51975 -0.096875 -1.0561125 -0.04975 -1.5510375 0.13625 -0.5213125 0.168625 -0.9647125 0.519 -1.2494874999999999 0.987 -0.3597625 0.503375 -0.5200375 1.12225 -0.44982500000000003 1.736875 0.04403749999999999 0.263 0.1327875 0.516625 0.26239999999999997 0.749625 0.1772125 0.27799999999999997 0.38695 0.533875 0.6247375000000001 0.76225 0.3636875 0.312875 0.796075 0.5355 1.2619875 0.64975 0.190625 0.0585 0.38802499999999995 0.092125 0.5872625 0.09987499999999999 -0.025087500000000002 0.20337500000000003 -0.025087500000000002 0.409 0 0.61225 0.046299999999999994 0.260375 0.1394375 0.510125 0.2748875 0.73725 0.1691125 0.28750000000000003 0.3796125 0.5485 0.62475 0.77475 0.36233750000000003 0.30775 0.7894374999999999 0.52975 1.2494874999999999 0.6496250000000001 0.29688749999999997 0.081125 0.604725 0.11487499999999999 0.9121374999999999 0.1 0.0061125 0.033 0.0061125 0.066875 0 0.1 0.0428125 0.265125 0.13613750000000002 0.519625 0.2748875 0.749625 0.1693625 0.283625 0.3799125 0.5405 0.62475 0.76225 0.35733750000000003 0.315125 0.7862750000000001 0.538125 1.2494874999999999 0.64975 0.457375 0.12987500000000002 0.9420000000000001 0.12987500000000002 1.399375 0 0.33475 -0.103375 0.6455 -0.27275 0.91375 -0.498 0.26825 -0.225375 0.48862500000000003 -0.502125 0.648125 -0.8140000000000001 0.137625 -0.30025 0.207875 -0.627 0.20575 -0.95725 -0.0021249999999999997 -0.33025 -0.076625 -0.656 -0.21825 -0.9544999999999999Z" clip-rule="evenodd" stroke-width="1.25"></path>
  <path fill="#222222" fill-rule="evenodd" d="M13.492625 7.9423875c0.17 0.032537500000000004 0.337125 0.07849999999999999 0.49974999999999997 0.13745000000000002 0.862125 0.3498625 1.3370000000000002 -0.562275 0.7122499999999999 -0.9621124999999999 -0.311 -0.186 -0.647875 -0.32495 -0.999625 -0.412325 -0.78025 -0.1681375 -1.5846375 -0.1935375 -2.3740125 -0.074975 -0.6970875 0.04715 -1.397275 0.013600000000000001 -2.0866499999999997 -0.0999625L6.682875 5.56835c-0.5917 -0.24893749999999998 -1.2071 -0.437325 -1.8367625 -0.5622625 -0.0533625 0.00445 -0.10522500000000001 0.0199125 -0.1523125 0.04542499999999999 -0.047075 0.025500000000000002 -0.08836250000000001 0.0605 -0.12123750000000001 0.102775 -0.032875 0.0422625 -0.05663750000000001 0.0908875 -0.0697625 0.1428125 -0.0131375 0.0519125 -0.015362500000000001 0.10598750000000001 -0.0065375 0.1588 0.008400000000000001 0.09327500000000001 0.049275 0.1806375 0.11549999999999999 0.24686249999999998 0.06621250000000001 0.06621250000000001 0.153575 0.1070875 0.24684999999999999 0.11548749999999999 0 0 0.1499375 0.074975 0.2873875 0.14995 0.7746875 0.39983749999999996 2.4115125 1.4244124999999999 3.5235624999999997 1.9866875 0.45682500000000004 0.26085 0.9634375000000001 0.42262500000000003 1.4868999999999999 0.4748125l1.411925 -0.2873875c0.6282 -0.1603 1.2764875 -0.22765000000000002 1.9242375 -0.199925Z" clip-rule="evenodd" stroke-width="1.25"></path>
  <path fill="#010101" fill-rule="evenodd" d="M29.886 4.8435c-0.064875 -0.10744999999999999 -0.16962499999999997 -0.18485000000000001 -0.291375 -0.2152875 -0.12175 -0.0304375 -0.250625 -0.0114375 -0.358375 0.052849999999999994l-2.224125 1.2494874999999999c-0.39849999999999997 0.22849999999999998 -0.8166249999999999 0.42084999999999995 -1.2495 0.574775 -0.254125 0.0817 -0.52025 0.119725 -0.7871250000000001 0.11245 -0.41825 -0.0063750000000000005 -0.835625 -0.0397625 -1.2495 -0.0999625 -0.36775 -0.0633875 -0.7308749999999999 -0.15105000000000002 -1.0871250000000001 -0.2623875 -0.52475 -0.1749375 -1.0245 -0.39983749999999996 -1.549375 -0.549775 -0.40487500000000004 -0.1226625 -0.8263750000000001 -0.181675 -1.2495 -0.1749375 -0.33725 0.015725 -0.6701250000000001 0.08315 -0.987 0.199925 -0.442125 0.14702500000000002 -0.8623749999999999 0.3529625 -1.2495 0.61225 -0.312375 0.18742499999999998 -3.18625 2.8488375 -3.461125 3.1362250000000005 -0.481375 0.4559625 -0.9013749999999999 0.9725875 -1.2495 1.536875 -0.24012499999999998 0.42457500000000004 -0.37712500000000004 0.899675 -0.399825 1.3869375000000002 -0.0280375 0.28495 0.0092 0.5725750000000001 0.10869999999999999 0.8409500000000001 0.09962499999999999 0.26849999999999996 0.259 0.51075 0.466 0.708375 0.293875 0.232375 0.63625 0.39575 1.001875 0.47787499999999994 0.3655 0.08224999999999999 0.74475 0.081125 1.109875 -0.0029999999999999996 0.645 -0.129125 1.2493750000000001 -0.41200000000000003 1.76175 -0.8246249999999999 0.5105 -0.406125 0.986875 -0.85325 1.424375 -1.3370125 0.636375 0.2673875 1.3112499999999998 0.4318875 1.99925 0.4872625 0.32375 0.037375 0.6507499999999999 0.037375 0.974625 0 0.32099999999999995 -0.0465 0.6355 -0.13037500000000002 0.937125 -0.24987499999999999 0.689375 -0.2899 1.313875 -0.7147249999999999 1.83675 -1.2494874999999999 0.045625 -0.03 0.08474999999999999 -0.0690625 0.11475 -0.114775 0.03 -0.045700000000000005 0.050375 -0.09707500000000001 0.059625 -0.15095 0.009375 -0.053875 0.007625000000000001 -0.1090875 -0.005125 -0.16223749999999998 -0.012875000000000001 -0.0531625 -0.0365 -0.10312500000000001 -0.069375 -0.1468 -0.031125 -0.044324999999999996 -0.07075 -0.082075 -0.1165 -0.1110875 -0.04575 -0.029012500000000004 -0.09675 -0.048725000000000004 -0.150125 -0.0580125 -0.053375000000000006 -0.009275 -0.108125 -0.00795 -0.16087500000000002 0.0039125 -0.052875 0.0118625 -0.102875 0.034025 -0.14725 0.06522499999999999 -0.57475 0.2437 -1.180125 0.40765 -1.79925 0.4873125l-1.087 0.1874125c-0.25 0 -0.47487500000000005 0.087475 -0.72475 0.0999625 -0.390875 0.0312875 -0.783625 0.0312875 -1.1745 0 0.012125 -0.045 0.012125 -0.0924375 0 -0.13743750000000002 -0.037375 -0.03855 -0.082 -0.0692 -0.131375 -0.090125 -0.049375 -0.0209375 -0.102375 -0.031725 -0.156 -0.031725 -0.053625 0 -0.10675000000000001 0.0107875 -0.15612499999999999 0.031725 -0.049375 0.020925000000000003 -0.094 0.051574999999999996 -0.13125 0.090125 -0.590125 0.5859875 -1.225125 1.1249125 -1.89925 1.6118374999999998 -0.403 0.277375 -0.865 0.457125 -1.3495 0.52475 -0.33525 0.05475 -0.67925 -0.007 -0.974625 -0.174875 -0.1175 -0.064125 -0.21125000000000002 -0.164375 -0.2675 -0.285875 -0.056249999999999994 -0.1215 -0.07187500000000001 -0.25775 -0.044875 -0.38887499999999997 0.052500000000000005 -0.28597500000000003 0.16299999999999998 -0.5581499999999999 0.324875 -0.7996625 0.311125 -0.4358375 0.67175 -0.8341624999999999 1.074625 -1.187025 0.61225 -0.61225 1.2495 -1.2494874999999999 1.89925 -1.8617375 0.408875 -0.3763875 0.8476250000000001 -0.7190249999999999 1.3118750000000001 -1.0245875 0.24150000000000002 -0.163075 0.4965 -0.30519999999999997 0.76225 -0.424825 0.492125 -0.2160125 1.04375 -0.2557375 1.5618750000000001 -0.11245 0.51225 0.11245 0.999625 0.299875 1.511875 0.4498125 0.44775000000000004 0.11147499999999999 0.9028750000000001 0.1908125 1.361875 0.2374 0.44949999999999996 0.024862500000000003 0.8999999999999999 0.024862500000000003 1.3495 0 0.40099999999999997 -0.011625 0.797625 -0.0875625 1.1745 -0.2249 0.495875 -0.207675 0.9725 -0.4585375 1.4244999999999999 -0.7496999999999999l2.161625 -1.3619500000000002c0.107625 -0.051574999999999996 0.19112500000000002 -0.142825 0.233125 -0.2546125 0.041875 -0.11180000000000001 0.039 -0.235475 -0.00825 -0.34513750000000004Z" clip-rule="evenodd" stroke-width="1.25"></path>
  <path fill="#222222" fill-rule="evenodd" d="M23.201 17.500875c-0.076375 -0.218625 -0.16825 -0.431625 -0.27487500000000004 -0.6372500000000001 -0.353375 -0.606375 -0.772375 -1.1721249999999999 -1.2495 -1.686875l-1.3370000000000002 -1.524375c-0.06775 -0.078625 -0.16275 -0.12875 -0.266 -0.140375 -0.10312500000000001 -0.011625 -0.206875 0.016125 -0.2905 0.077625 -0.08375 0.0615 -0.141 0.15237499999999998 -0.16062500000000002 0.25437499999999996 -0.019624999999999997 0.10200000000000001 0 0.207625 0.05499999999999999 0.29575l0.987 1.7742499999999999c0.324875 0.518625 0.609 1.06175 0.84975 1.6243750000000001 0.152125 0.31525 0.253375 0.652625 0.299875 0.9994999999999999 0.03975 0.21850000000000003 0.032375 0.443 -0.021375 0.6585000000000001 -0.053875 0.2155 -0.153125 0.41700000000000004 -0.29100000000000004 0.591 -0.17525 0.19949999999999998 -0.39899999999999997 0.350125 -0.64975 0.43737499999999996 -0.018500000000000003 -0.046875 -0.039375 -0.09275 -0.0625 -0.1375 -0.263625 -0.39175000000000004 -0.555875 -0.7635000000000001 -0.874625 -1.1119999999999999l-1.79925 -2.036625c-0.0345 -0.050875000000000004 -0.078625 -0.0945 -0.12987500000000002 -0.12825 -0.051375 -0.033875 -0.108875 -0.05725 -0.169125 -0.068875 -0.12187500000000001 -0.023375 -0.248 0.0025 -0.35075 0.072125 -0.10275 0.06962499999999999 -0.173625 0.17712499999999998 -0.19699999999999998 0.299 -0.0235 0.12187500000000001 0.0025 0.248 0.072 0.35075l1.3995 2.3865c0.23800000000000002 0.33437500000000003 0.459 0.6805 0.66225 1.037125 0.10800000000000001 0.18425 0.19199999999999998 0.381625 0.24987499999999999 0.58725 0.069375 0.14300000000000002 0.08987500000000001 0.304875 0.05825 0.460625 -0.031625 0.15575 -0.1135 0.296875 -0.23324999999999999 0.40149999999999997 -0.178625 0.147875 -0.395 0.243 -0.62475 0.27487500000000004l0 -0.11237499999999999c-0.132625 -0.283625 -0.29600000000000004 -0.551875 -0.48724999999999996 -0.7997500000000001 -0.299875 -0.362375 -0.58725 -0.7122499999999999 -0.9121250000000001 -1.0495 -0.324875 -0.337375 -0.62475 -0.66225 -0.9621250000000001 -0.974625 -0.0685 -0.08375 -0.16712500000000002 -0.13724999999999998 -0.274625 -0.148875 -0.10749999999999998 -0.01175 -0.21525 0.019375 -0.30012500000000003 0.086375 -0.08449999999999999 0.07062500000000001 -0.138375 0.171375 -0.15 0.281 -0.011625 0.109625 0.019750000000000004 0.219375 0.08750000000000001 0.30625 0.19987499999999997 0.299875 0.374875 0.58725 0.5497500000000001 0.899625 0.17500000000000002 0.312375 0.487375 0.9121250000000001 0.7122499999999999 1.387l0.349875 0.849625 -0.17500000000000002 0.299875c-0.08425 0.135 -0.1955 0.25125000000000003 -0.3265 0.3415 -0.131125 0.09025 -0.279375 0.152625 -0.435625 0.18325000000000002 -0.301875 0.08024999999999999 -0.6227499999999999 0.044625000000000005 -0.899625 -0.1 -0.05175 -0.032 -0.109125 -0.053625 -0.16924999999999998 -0.063375 -0.06 -0.009875000000000002 -0.12125 -0.00775 -0.1805 0.00625 -0.05925 0.013875 -0.115125 0.039375 -0.164375 0.074875 -0.049375 0.035625000000000004 -0.09125 0.0805 -0.12312500000000001 0.13225 -0.065375 0.10625000000000001 -0.086375 0.234 -0.05825 0.35562499999999997 0.028 0.121625 0.10275 0.22724999999999998 0.208125 0.294125 0.40162499999999995 0.348125 0.918 0.535125 1.4495 0.52475 0.34612499999999996 0.008875000000000001 0.690375 -0.05425 1.010875 -0.1855 0.3205 -0.131125 0.6102500000000001 -0.3275 0.8508749999999999 -0.5766249999999999 0.182375 -0.18762500000000001 0.334125 -0.402625 0.44975 -0.6372500000000001 0.038125 -0.12200000000000001 0.06325 -0.24762499999999998 0.075 -0.374875 0.42999999999999994 0.03 0.860375 -0.051875000000000004 1.2495 -0.237375 0.36775 -0.20587500000000003 0.6625000000000001 -0.52075 0.84375 -0.901125 0.181375 -0.3805 0.24012499999999998 -0.80775 0.168375 -1.223 0.461875 -0.08662500000000001 0.8928750000000001 -0.2935 1.2495 -0.59975 0.284625 -0.25937499999999997 0.51425 -0.573375 0.67525 -0.92325 0.161 -0.349875 0.25 -0.7284999999999999 0.26175 -1.1135000000000002 -0.028625 -0.3785 -0.104125 -0.752125 -0.224875 -1.1119999999999999Z" clip-rule="evenodd" stroke-width="1.25"></path>
  <path fill="#010101" fill-rule="evenodd" d="M29.985750000000003 15.964c-0.014625 -0.059125000000000004 -0.040749999999999995 -0.11487499999999999 -0.077 -0.163875 -0.036250000000000004 -0.049 -0.08175 -0.09037500000000001 -0.134 -0.12175 -0.05225 -0.031375 -0.11025 -0.052125000000000005 -0.17049999999999998 -0.061000000000000006 -0.06025 -0.008875000000000001 -0.12175 -0.00575 -0.18075000000000002 0.009250000000000001 -0.76225 0.08750000000000001 -1.4993750000000001 0.11249999999999999 -2.236625 0.237375 -0.5017499999999999 0.080625 -0.995125 0.206125 -1.474375 0.374875 -0.551 0.20775 -1.075375 0.48050000000000004 -1.5618750000000001 0.8121250000000001 -1.024625 0.424875 -0.41237500000000005 1.2495 0.5497500000000001 0.974625l1.162 -0.237375 0.874625 -0.21237499999999998 0.86225 -0.27487500000000004c0.687125 -0.2375 1.361875 -0.49987499999999996 2.049125 -0.77475 0.059125000000000004 -0.014625 0.11487499999999999 -0.040749999999999995 0.163875 -0.077 0.049 -0.036125 0.09037500000000001 -0.08175 0.12175 -0.134 0.031375 -0.05225 0.052 -0.110125 0.060875 -0.17049999999999998 0.008875000000000001 -0.06025 0.00575 -0.12175 -0.009125 -0.18075000000000002Z" clip-rule="evenodd" stroke-width="1.25"></path>
</svg>