<svg xmlns="http://www.w3.org/2000/svg" fill="none" viewBox="0 0 30 30" id="Locker-Room-Hanger-Woman--Streamline-Freehand" height="30" width="30">
  <desc>
    Locker Room Hanger Woman Streamline Icon: https://streamlinehq.com
  </desc>
  <path fill="#010101" fill-rule="evenodd" d="M29.72875 14.6535c-0.33375 -0.51275 -0.71425 -0.9936250000000001 -1.136625 -1.436375 -0.1825 -0.20224999999999999 -0.387875 -0.3825 -0.612125 -0.5371250000000001 -0.44962500000000005 -0.2997375 -1.01175 -0.612 -1.2489999999999999 -0.81185 -0.345875 -0.22811250000000002 -0.7251249999999999 -0.4008875 -1.124125 -0.5121125 -0.836875 -0.2748 -1.8861249999999998 -0.499625 -2.39825 -0.6495125h-0.11237499999999999c-0.428375 -0.36715 -0.961625 -0.590025 -1.523875 -0.6370125 1.0165 -0.106075 1.9694999999999998 -0.5452 2.7105 -1.2490625 1.0651249999999999 -1.0122625 1.7452500000000002 -2.3634749999999998 1.9235 -3.8221 0.127 -1.0336874999999999 -0.08337499999999999 -2.080725 -0.5995 -2.9852374999999998 -0.444125 -0.6477375000000001 -1.0505 -1.1674925 -1.7585000000000002 -1.5072575 -0.708 -0.339765 -1.492875 -0.48762325 -2.276 -0.42878025 -0.8015 0.12825899999999998 -1.5625 0.44034275 -2.22325 0.91181025 -0.687125 0.44014 -1.30575 0.9788275000000001 -1.836125 1.59879 -0.378625 0.43872500000000003 -0.6748750000000001 0.9422750000000001 -0.874375 1.486375 -0.223 0.610375 -0.309375 1.2622125 -0.253375 1.9096125 0.056125 0.6474000000000001 0.2535 1.2746250000000001 0.578125 1.83755 0.322375 0.544775 0.752125 1.0183499999999999 1.26325 1.3919625 0.511 0.3736 1.092625 0.6394500000000001 1.7094999999999998 0.7813875000000001 0.40974999999999995 0.09232499999999999 0.829125 0.134275 1.2489999999999999 0.12491250000000001 -0.643125 0.1459 -1.2217500000000001 0.496525 -1.64875 0.9992375 -0.092125 -0.0368375 -0.195 -0.0368375 -0.28725 0 -0.897375 0.17651250000000002 -1.7481250000000002 0.5380875 -2.498125 1.0617 -0.762 0.48821249999999994 -1.4551249999999998 1.0763375 -2.0608750000000002 1.7487125000000001l-0.549625 0.799375 -0.11237499999999999 -0.21237499999999998c-0.38725000000000004 -0.6244999999999999 -0.737 -1.2489999999999999 -1.149125 -1.8736249999999999 -0.171625 -0.2811375 -0.35924999999999996 -0.5522125 -0.5621 -0.811825 -0.03 -0.0456875 -0.06905 -0.08474999999999999 -0.11473749999999999 -0.11475 -0.0456875 -0.03 -0.09705 -0.0503 -0.15089999999999998 -0.059675 -0.05385 -0.0093625 -0.10905 -0.0075875 -0.1621875 0.005225 -0.0531375 0.012825 -0.103075 0.0364 -0.1467375 0.069275 -0.0918125 0.063425 -0.1558875 0.15956250000000002 -0.1791125 0.2687125 -0.023225 0.1091375 -0.003825 0.2230375 0.0542125 0.31835 0.162375 0.2623125 0.2997625 0.5245625 0.4371625 0.7869375000000001 0.32475 0.6619999999999999 0.562025 1.3365 0.8867750000000001 2.011 0.144375 0.35200000000000004 0.347125 0.677125 0.5996250000000001 0.96175 0.207 0.192125 0.469125 0.3145 0.749375 0.34975 0.12275 0.007125 0.245375 -0.016625 0.35662499999999997 -0.069 0.11124999999999999 -0.05225 0.207625 -0.131625 0.280375 -0.230875 0.11537499999999999 -0.15925 0.219625 -0.326125 0.312375 -0.499625l0.5745 -0.824375c0.5665 -0.7582500000000001 1.23475 -1.4349999999999998 1.986 -2.010875 0.28575 -0.23725 0.59075 -0.4502875 0.9117500000000001 -0.6370750000000001 -1.182 1.726075 -2.1155 3.6097 -2.772875 5.595825 -0.2755 0.9871249999999999 -0.500625 1.987625 -0.6745 2.9976249999999998 -0.36212500000000003 1.961125 -0.5745 3.7472499999999997 -0.749375 4.496625 -0.174875 0.7495 1.2489999999999999 0.637 3.2350000000000003 0.712 -0.10312500000000001 0.33887500000000004 -0.178375 0.6855 -0.22474999999999998 1.03675 -0.0125 0.20375000000000001 -0.0125 0.408125 0 0.612v0.612c0.097 0.4895 0.234875 0.97 0.41212499999999996 1.436375 0.010499999999999999 0.055125 0.03175 0.10749999999999998 0.062625 0.15437499999999998 0.03075 0.04675 0.0705 0.087 0.117 0.11837500000000001 0.0465 0.03125 0.09862499999999999 0.053125000000000006 0.1535 0.06425 0.05499999999999999 0.011125 0.1115 0.011125 0.1665 0.00025 0.109625 -0.023999999999999997 0.20575 -0.089375 0.26849999999999996 -0.182375 0.06275 -0.093 0.08737500000000001 -0.20650000000000002 0.06875 -0.31725000000000003 0 -0.349625 0.0625 -0.8118749999999999 0.09987499999999999 -1.348875 0.0125 -0.19137500000000002 0.0125 -0.38325 0 -0.5746249999999999 0.012875000000000001 -0.1955 0.012875000000000001 -0.391625 0 -0.587 0 -0.37475 -0.137375 -0.6869999999999999 -0.19974999999999998 -0.97425h0.524625c0.565375 0.040625 1.12825 0.1115 1.686125 0.21225 0.7015 0.141 1.4103750000000002 0.241 2.1233750000000002 0.29975h0.33725c-0.080125 0.232375 -0.14275 0.47037500000000004 -0.18724999999999997 0.712 -0.045375 0.175375 -0.066375 0.356 -0.0625 0.5371250000000001 -0.018500000000000003 0.18687499999999999 -0.018500000000000003 0.375125 0 0.562 0.059500000000000004 0.45987500000000003 0.181375 0.9095 0.36225 1.3365 0.026625 0.10925000000000001 0.0955 0.20350000000000001 0.1915 0.262 0.09599999999999999 0.058625 0.21125000000000002 0.076625 0.320625 0.05025 0.05325 -0.0115 0.10375000000000001 -0.033875 0.148125 -0.06575 0.044375 -0.03175 0.08175 -0.072375 0.10975 -0.119125 0.028124999999999997 -0.046875 0.046375 -0.098875 0.0535 -0.153 0.0072499999999999995 -0.054125 0.00325 -0.109125 -0.011625 -0.161625 0 -0.312375 0.124875 -0.7245 0.162375 -1.249125 0.037375 -0.27349999999999997 0.037375 -0.550875 0 -0.824375 -0.016625 -0.30762500000000004 -0.062625 -0.613 -0.137375 -0.9117500000000001h2.26075c0.32087499999999997 -0.02925 0.627625 -0.145875 0.8868750000000001 -0.33725 0.08725 -0.098375 0.15425 -0.213 0.19699999999999998 -0.337375 0.042874999999999996 -0.12437500000000001 0.060875 -0.25587499999999996 0.052750000000000005 -0.38712499999999994 -0.03425 -0.840625 -0.14300000000000002 -1.676625 -0.32475 -2.498125 -0.237375 -1.2489999999999999 -0.587 -2.760375 -0.99925 -4.19675 0.180375 -0.148625 0.372625 -0.28225 0.5746249999999999 -0.39974999999999994 0.6244999999999999 -0.36225 1.3239999999999998 -0.6495 1.911 -1.06175 0.274625 -0.19087500000000002 0.5225 -0.41775 0.737 -0.674375 0.19625 -0.25075000000000003 0.309625 -0.556375 0.32475 -0.874375 0.037625 -0.3685 -0.02725 -0.74025 -0.187375 -1.0742500000000001Zm-9.455375 -6.057875c-0.435875 -0.10395 -0.8463750000000001 -0.2946625 -1.2068750000000001 -0.560775 -0.3605 -0.2661125 -0.6637500000000001 -0.60215 -0.8915 -0.9880500000000001 -0.238875 -0.3812375 -0.394625 -0.8085874999999999 -0.45699999999999996 -1.2541250000000002 -0.0625 -0.445525 -0.030125 -0.899225 0.09475 -1.3314249999999999 0.16825 -0.5309625 0.43999999999999995 -1.0233875000000001 0.799375 -1.4488999999999999 0.36912500000000004 -0.46101250000000005 0.7879999999999999 -0.8798875 1.249125 -1.24905 0.443625 -0.343175 0.9418749999999999 -0.60919375 1.473875 -0.78690625 0.6579999999999999 -0.13057375 1.3402500000000002 -0.05418125 1.953 0.21867999999999999 0.6128750000000001 0.27286375 1.126125 0.7288012500000001 1.4693749999999999 1.30516375 0.36475 0.72085 0.47912499999999997 1.5427 0.32475 2.3357375 -0.21325 1.174 -0.82675 2.2378 -1.73625 3.0102125 -0.414625 0.361975 -0.910125 0.6189875 -1.444875 0.7494125 -0.5347500000000001 0.130425 -1.093 0.130425 -1.62775 0.000025Zm6.357749999999999 16.687375c-0.087 0.013 -0.175375 0.013 -0.262375 0h-1.2489999999999999c-0.66525 0.05025 -1.333375 0.05025 -1.9985 0 -0.674375 -0.03375 -1.345875 -0.10874999999999999 -2.011 -0.224875 -0.562125 -0.08737500000000001 -1.174125 -0.137375 -1.811125 -0.174875h-3.9345000000000003c0.19987499999999997 -0.8992500000000001 0.437125 -2.3981250000000003 0.8118749999999999 -4.0718749999999995 0.22474999999999998 -0.93675 0.47462499999999996 -1.936 0.786875 -2.885375 0.607875 -1.616875 1.413375 -3.152375 2.39825 -4.5715 0.408875 -0.643875 0.909625 -1.22455 1.486375 -1.723675 0.139125 -0.11306250000000001 0.30862500000000004 -0.1825875 0.487125 -0.19985 0.774375 0 1.2489999999999999 0.7244499999999999 1.686125 1.5239 0.615 1.3892499999999999 1.11625 2.82625 1.498875 4.296749999999999 0.9028750000000001 2.475 1.567875 5.0305 1.986 7.631625 0.075 0.1 0.1 0.287375 0.125 0.39974999999999994Zm2.010875 -9.367875c-0.11624999999999999 0.148875 -0.245875 0.28675 -0.38712499999999994 0.41212499999999996 -0.487125 0.44962500000000005 -1.12425 0.786875 -1.67375 1.249125 -0.11662499999999999 0.08587499999999999 -0.225375 0.182 -0.32475 0.28725 -0.11249999999999999 -0.36225 -0.224875 -0.7245 -0.34975 -1.04925 -0.426625 -1.706 -1.038125 -3.360375 -1.823625 -4.9337375l0.774375 0.33725c0.378375 0.1504 0.732125 0.3567375 1.04925 0.6119875l1.59875 1.3114999999999999c0.162375 0.187375 0.487125 0.5371250000000001 0.786875 0.911875 0.299875 0.37475 0.42474999999999996 0.44962500000000005 0.42474999999999996 0.6495 0.000125 0.07725 -0.026375000000000003 0.15225 -0.075 0.21237499999999998Z" clip-rule="evenodd" stroke-width="1.25"></path>
  <path fill="#222222" fill-rule="evenodd" d="M10.205725000000001 12.929875H7.632675c-0.7744125000000001 0 -1.5738125 -0.05 -2.5355875 -0.137375 -0.44965 0 -1.3364875 -0.11249999999999999 -2.1233874999999998 -0.237375 -0.40245000000000003 -0.03525 -0.7978000000000001 -0.1278125 -1.1741125 -0.2747875 -0.054912499999999996 -0.0253625 -0.1041375 -0.061524999999999996 -0.14475 -0.10635 -0.040612499999999996 -0.044825000000000004 -0.07175 -0.09737499999999999 -0.091575 -0.1545125 -0.019825 -0.0571375 -0.027925 -0.1177 -0.0238 -0.17803750000000002 0.004125 -0.0603375 0.020374999999999997 -0.11922500000000001 0.0477875 -0.1731375 0.23720000000000002 -0.458025 0.5401874999999999 -0.8788374999999999 0.8993125000000001 -1.2490625 0.38205 -0.44928750000000006 0.7997624999999999 -0.867 1.2490625 -1.24905 0.6370125 -0.42467499999999997 1.3614625 -0.9742625 2.0984125000000002 -1.486375 0.434925 -0.3151625 0.894375 -0.5950124999999999 1.3739625 -0.8368625000000001 0.458675 -0.24036249999999998 0.95155 -0.4088625 1.4613875 -0.499625 0.1567625 -0.0303375 0.317875 -0.0303375 0.4746375 0 0.1957875 0.051875000000000004 0.384525 0.12737500000000002 0.562075 0.224825l3.9970250000000003 2.4981125c0.08274999999999999 0.0482625 0.18075000000000002 0.0630125 0.274125 0.0412 0.09325 -0.0218125 0.17462499999999997 -0.07851250000000001 0.227375 -0.1584625 0.052750000000000005 -0.07995000000000001 0.072875 -0.177075 0.056249999999999994 -0.271425 -0.016625 -0.09433749999999999 -0.06875 -0.1787375 -0.145625 -0.2358375L10.268175 5.747775000000001c-0.28285 -0.1893125 -0.589425 -0.34049999999999997 -0.9118125 -0.44966249999999997 -0.0060125000000000005 -0.1081625 -0.0060125000000000005 -0.216575 0 -0.32475 0.056037500000000004 -0.20046250000000002 0.14465 -0.3903625 0.2623 -0.562075 0.1433125 -0.1355625 0.302725 -0.25301250000000003 0.47465 -0.3497375 0.24675 -0.1944875 0.461675 -0.4262625 0.6370125 -0.6869749999999999 0.19297499999999998 -0.290975 0.2810875 -0.639 0.2498125 -0.98675 -0.0352375 -0.511675 -0.227125 -1.0001 -0.5495875 -1.398945 -0.3210375 -0.36638375 -0.7230375 -0.6529162500000001 -1.1741125 -0.83686625 -0.455225 -0.17278825 -0.9530624999999999 -0.19899075 -1.4239125 -0.074942875 -0.4885875 0.110264125 -0.927425 0.377957875 -1.2490625 0.761922875 -0.17125 0.26780000000000004 -0.2813125 0.57008125 -0.3223375 0.88530625 -0.0410125 0.3152125 -0.0119875 0.6356 0.08502499999999999 0.9383125000000001 0.0556875 0.2221125 0.17135 0.42462500000000003 0.3343625 0.5854374999999999s0.3670875 0.2737125 0.5899375 0.32637499999999997c0.045825 0.0177 0.094775 0.0258875 0.1438625 0.024087499999999998 0.049100000000000005 -0.0018124999999999999 0.0973125 -0.013600000000000001 0.1417125 -0.034624999999999996 0.0444 -0.0210375 0.08404999999999999 -0.050875000000000004 0.11655 -0.0877125 0.0325125 -0.0368375 0.057175000000000004 -0.0799125 0.0725125 -0.1265875 0.0177 -0.045825 0.0259 -0.094775 0.024087499999999998 -0.1438625 -0.0018124999999999999 -0.049100000000000005 -0.013600000000000001 -0.0973125 -0.034624999999999996 -0.1417125 -0.0210375 -0.0444 -0.050875000000000004 -0.08404999999999999 -0.0877125 -0.11655 -0.0368375 -0.0325 -0.0799125 -0.057175000000000004 -0.126575 -0.0725125 -0.1064875 -0.0534 -0.19373749999999998 -0.1385875 -0.2496875 -0.2437625 -0.05595 -0.105175 -0.0778125 -0.2251375 -0.062575 -0.34328749999999997 0.043699999999999996 -0.2782375 0.18015 -0.5335375 0.3872 -0.7244499999999999 0.1733 -0.10855000000000001 0.37060000000000004 -0.17288749999999997 0.5745625 -0.1873625 0.2040875 -0.026275 0.411475 0.0039625 0.59955 0.0874375 0.24389999999999998 0.09926249999999999 0.4618125 0.253075 0.6370125 0.44965 0.13268749999999999 0.1707625 0.2187625 0.37305 0.2498125 0.5870625 0.021587500000000003 0.1218875 -0.0053125 0.2473875 -0.0749375 0.3497375 -0.2748 0.4121875 -0.7119625 0.749425 -0.836875 1.024225 -0.11057499999999999 0.2256375 -0.1903875 0.4651 -0.23731249999999998 0.7119625 -0.03315 0.1983625 -0.054000000000000006 0.3986 -0.06245 0.5995375000000001 -0.48148749999999996 0.05315 -0.95515 0.1621375 -1.4114375000000001 0.32476249999999995 -0.6809624999999999 0.274475 -1.3301125 0.6220875 -1.9360374999999999 1.0367125000000001 -0.805375 0.500075 -1.5810875 1.0464125 -2.3232375 1.6362625 -0.5142875 0.40586249999999996 -0.9908625 0.8573625 -1.423925 1.348975 -0.581755 0.58185 -1.01081 1.298375 -1.249051375 2.085925 -0.068344625 0.369275 -0.007580875 0.750825 0.172092625 1.0806625 0.17967375000000002 0.32975 0.46732 0.5876250000000001 0.8146599999999999 0.7305 0.39793625 0.16962499999999997 0.81889875 0.279 1.24904875 0.32475 0.8993249999999999 0.11237499999999999 2.06095 0.149875 2.5980375 0.162375h2.6230124999999997c0.8118875000000001 0 1.5987874999999998 -0.075 2.6230124999999997 -0.174875 0.0558125 -0.00325 0.1104375 -0.017374999999999998 0.16075 -0.041749999999999995 0.0503125 -0.02425 0.095325 -0.058374999999999996 0.13246249999999998 -0.100125 0.037125 -0.041749999999999995 0.06565 -0.09050000000000001 0.083925 -0.14325 0.018275 -0.052875 0.02595 -0.10874999999999999 0.0225625 -0.16449999999999998 -0.0088 -0.09525 -0.05145 -0.18412499999999998 -0.1202 -0.250625 -0.06875 -0.0665 -0.15905 -0.106125 -0.25451250000000003 -0.111625Z" clip-rule="evenodd" stroke-width="1.25"></path>
</svg>