<svg xmlns="http://www.w3.org/2000/svg" viewBox="0 -0.66 117.77 117.77" fill="#23965C"><path d="M66.19,20.18c2.39-.72,4.5-1.52,6.69-2C76.22,17.5,79.61,17,83,16.46c15.42-2.34,33.48,14.25,34.55,30.4.64,9.61,0,18.9-3.33,27.91a42.25,42.25,0,0,1-13.78,18.29,107.48,107.48,0,0,1-28.12,16.3c-5.29,2-10.9,3.31-16.38,4.84-1.93.54-4,.57-5.85,1.29-5.13,2-9.56.64-13.67-2.45-7.61-5.7-14.49-12.07-18.9-20.73C14,85.42,10.12,78.73,6.81,71.76,3,63.67,1.35,54.92.47,46.05.13,42.64.07,39.19,0,35.76-.43,11.79,21.69-2.7,40.28.42A31.52,31.52,0,0,1,61.05,13C62.75,15.26,64.35,17.59,66.19,20.18Z"/><path d="M10.5,40.44c.14-1.49.23-4.93.81-8.28,1.83-10.63,9.26-18.45,19.62-20.07,12.33-1.93,20,2.42,25.93,11.08,1.45,2.12,2.53,4.48,4,6.58,1.59,2.28,3.32,2.73,6,1.83a56.64,56.64,0,0,0,5.59-2.17c6.08-2.76,12.42-2,18.46-.56,9.32,2.24,14.22,9.31,16.21,18.15,1.8,8,0,16-2.81,23.55-1.54,4.14-4.76,7.17-8,9.91a116.39,116.39,0,0,1-42.85,22.81c-4.84,1.39-8.95,1.15-12.69-2.42-3.51-3.34-7.5-6.26-10.58-9.95-9.71-11.65-15.7-25.15-18.67-40C10.92,48.13,10.93,45.24,10.5,40.44Z"/></svg>
