<svg xmlns="http://www.w3.org/2000/svg" fill="none" viewBox="0 0 30 30" id="Home-Chimney-2--Streamline-Freehand" height="30" width="30">
  <desc>
    Home Chimney 2 Streamline Icon: https://streamlinehq.com
  </desc>
  <path fill="#010101" d="M29.985875 17.624875c-1.091 -1.822 -2.345625 -3.5407499999999996 -3.748375 -5.135199999999999 -0.42474999999999996 -0.4831125 -0.862125 -0.9579 -1.3118750000000001 -1.42435 0 -0.47478750000000003 0 -0.9370875 0.08750000000000001 -1.411875 0.08737500000000001 -0.98705 0.21237499999999998 -1.9741125000000002 0.324875 -2.9361749999999995 0.029875000000000002 -0.5496625 0.0215 -1.1007500000000001 -0.025 -1.6492624999999999 0.001625 -0.47335000000000005 -0.10975 -0.94025 -0.324875 -1.3618875 -0.15712500000000001 -0.269825 -0.398625 -0.48055000000000003 -0.6872499999999999 -0.599725 -0.281 -0.08587499999999999 -0.56975 -0.14445 -0.862125 -0.174925 -0.47262499999999996 -0.056112499999999996 -0.9483750000000001 -0.08115 -1.42425 -0.0749625 -0.48250000000000004 0.0065875000000000005 -0.9635 0.056775000000000006 -1.436875 0.149925 -0.24712499999999998 0.0449 -0.489625 0.11180000000000001 -0.72475 0.1999125 -0.207625 0.0846875 -0.395 0.2124375 -0.5497500000000001 0.37483750000000005 -0.206125 0.2774125 -0.311875 0.6166499999999999 -0.299875 0.9620624999999999v0.43729999999999997l-2.1615 -2.4114125c-0.269 -0.29685 -0.575625 -0.5572625 -0.9121250000000001 -0.7746500000000001 -0.309 -0.19644999999999999 -0.67125 -0.2924625 -1.037 -0.27487500000000004 -0.307 0.007287500000000001 -0.6005 0.1273875 -0.8246249999999999 0.33735000000000004 -0.27025 0.27105 -0.513 0.5682 -0.724625 0.8871L10.694524999999999 5.7427125c-1.062025 1.2494375 -2.1490375 2.498875 -3.2485375 3.7483125 -1.0995125 1.2494375 -2.2239999999999998 2.498875 -3.385975 3.63585 -0.9495750000000001 0.9871249999999999 -1.9866125000000001 1.81175 -2.8862075 2.79875 -0.40774125 0.44025000000000003 -0.779595 0.9123749999999999 -1.1119995 1.411875 -0.053891125000000005 0.083625 -0.073570975 0.18462499999999998 -0.0549634625 0.282375 0.0186074625 0.097625 0.0740765875 0.1845 0.1549179625 0.24237499999999998 0.0850625 0.052625 0.18719625 0.07037500000000001 0.285015 0.049375 0.0978175 -0.020874999999999998 0.18373125 -0.078875 0.23975 -0.16174999999999998 0.43495249999999996 -0.594 0.9289124999999999 -1.1423750000000001 1.4743375 -1.636875 0.8371249999999999 -0.7871250000000001 1.736725 -1.47425 2.5988375 -2.286375 1.2494375 -1.1495 2.3989125 -2.3115125 3.5733875 -3.5109624999999998 1.174475 -1.1994625 2.2989625 -2.411425 3.4109625 -3.6608625 0 0 3.236075 -3.6858375 3.211075 -3.6858375 -0.025 0 3.623375 3.6358625 3.623375 3.6358625 1.811625 1.7742 3.673375 3.46095 5.4475 5.260137499999999l0.075 0.0874625c0.42474999999999996 0.41231249999999997 0.8371249999999999 0.8245750000000001 1.2495 1.24945 1.4324999999999999 1.5033750000000001 2.7247500000000002 3.134375 3.86075 4.87275 0.0295 0.047625 0.068125 0.088875 0.11362499999999999 0.121625 0.0455 0.032625 0.097 0.056 0.1515 0.06875s0.111 0.014625 0.16625 0.005625c0.05525000000000001 -0.009125 0.10825 -0.028999999999999998 0.155875 -0.0585 0.0475 -0.0295 0.088875 -0.068125 0.1215 -0.11362499999999999 0.032625 -0.0455 0.056 -0.097 0.06875 -0.1515 0.012750000000000001 -0.05462500000000001 0.014625 -0.111125 0.005625 -0.166375 -0.009125 -0.05525000000000001 -0.028999999999999998 -0.108125 -0.0585 -0.15575h0.05Zm-9.9955 -11.669762500000001V4.818125c0 -0.3998125 0 -0.43729999999999997 0.124875 -0.5247625l0.7122499999999999 -0.13743750000000002c0.3245 -0.018725 0.65 -0.018725 0.9744999999999999 0 0.503375 0.030125 1.004125 0.092725 1.4993750000000001 0.1874125l0.43725 0.0999625c0.117875 0.214775 0.18212499999999998 0.4547875 0.1875 0.6996875 0.03125 0.4951125 0.03125 0.9917125 0 1.486825v3.4234625000000003c-1.436875 -1.3743875 -2.686375 -2.723775 -4.0482499999999995 -4.0981625h0.11249999999999999Z" stroke-width="1.25"></path>
  <path fill="#222222" d="M14.292875 13.301875c0.3275 0.089 0.669875 0.110375 1.006 0.06275 0.33612499999999995 -0.047625 0.659 -0.16325 0.949 -0.33975 0.289875 -0.1765 0.540875 -0.410375 0.7374999999999999 -0.6870875 0.196625 -0.27675 0.33475 -0.59065 0.406125 -0.9225625 0.5497500000000001 -2.0240875 -1.1495 -3.7483125 -3.748375 -2.7487624999999998 -0.521 0.22097499999999998 -0.9585 0.601575 -1.2494375 1.0870125 -0.19619999999999999 0.35314999999999996 -0.2907125 0.7537499999999999 -0.27307499999999996 1.15735 0.01765 0.40361250000000004 0.1467625 0.7944374999999999 0.37302500000000005 1.129125 0.4202375 0.631425 1.0623625 1.0817999999999999 1.7992374999999998 1.2619250000000002Zm-0.799625 -3.0111375000000002c0.18075000000000002 -0.3845125 0.503 -0.6843875 0.8995 -0.8371249999999999 1.2495 -0.5622499999999999 2.349 0.31235 1.86175 1.599275 -0.045375 0.1646125 -0.12387499999999999 0.3181875 -0.230875 0.45125 -0.107 0.1330625 -0.24012499999999998 0.24278750000000002 -0.391125 0.3224125 -0.15112499999999998 0.0796125 -0.316875 0.127425 -0.487125 0.14048750000000002 -0.170125 0.013075 -0.34125000000000005 -0.0089 -0.50275 -0.064525 -0.36775 -0.109375 -0.685875 -0.34354999999999997 -0.8995 -0.6622125 -0.12425 -0.120475 -0.21325 -0.272625 -0.25725000000000003 -0.439975 -0.044000000000000004 -0.16736250000000003 -0.0415 -0.34357499999999996 0.007375 -0.5095875Z" stroke-width="1.25"></path>
  <path fill="#010101" d="M25.775125000000003 17.737375v-2.498875c0 -0.05575 -0.011000000000000001 -0.111 -0.03225 -0.162625 -0.021375 -0.051500000000000004 -0.052750000000000005 -0.098375 -0.092125 -0.13775 -0.03950000000000001 -0.03950000000000001 -0.08625000000000001 -0.07075 -0.137875 -0.092125 -0.051500000000000004 -0.021375 -0.10675000000000001 -0.03225 -0.1625 -0.03225s-0.111 0.010875 -0.162625 0.03225c-0.051500000000000004 0.021375 -0.098375 0.052625 -0.13775 0.092125 -0.03950000000000001 0.039375 -0.07075 0.08625000000000001 -0.092125 0.13775 -0.021375 0.051625000000000004 -0.032375 0.10687500000000001 -0.032375 0.162625v2.498875c-0.08737500000000001 1.961625 -0.27487500000000004 3.92325 -0.312375 5.872375 0.048624999999999995 0.786375 0.048624999999999995 1.575 0 2.361375 -0.030125 0.425375 -0.18187499999999998 0.833 -0.43725 1.1745 -0.11249999999999999 0.125 -0.349875 0 -0.57475 0 -0.42474999999999996 0 -0.862125 -0.08750000000000001 -1.1119999999999999 -0.09987499999999999 -0.874625 0 -5.6225000000000005 -0.337375 -6.334625000000001 -0.337375H11.606525000000001c-0.8246249999999999 0 -1.6617499999999998 0.08737500000000001 -2.498875 0.187375 -0.612225 0.075 -1.3493875 0.24987499999999999 -2.0490749999999998 0.287375 -0.365975 0.0315 -0.7342124999999999 -0.024125 -1.0745125 -0.162375 -0.18742499999999998 -0.08750000000000001 -0.2498875 -0.337375 -0.3123625 -0.58725 -0.1026375 -0.577875 -0.1611125 -1.162625 -0.174925 -1.74925 -0.11245 -1.2493750000000001 -0.1874125 -2.411375 -0.2373875 -3.610875 0 -1.824125 -0.074975 -3.635875 -0.0874625 -5.460000000000001 0.0016625 -0.049249999999999995 -0.0063875 -0.098375 -0.023700000000000002 -0.1445 -0.017312499999999998 -0.046125 -0.0435375 -0.088375 -0.07718749999999999 -0.12425 -0.03365 -0.036 -0.0740625 -0.065 -0.118925 -0.085375 -0.0448625 -0.020374999999999997 -0.0933 -0.031625 -0.14252499999999999 -0.03325 -0.0502625 -0.001625 -0.10035000000000001 0.006750000000000001 -0.14728750000000002 0.024875 -0.046924999999999994 0.018125000000000002 -0.08973750000000001 0.045375 -0.125875 0.080375 -0.0361375 0.035 -0.064875 0.076875 -0.0844875 0.12325 -0.019612499999999998 0.04625 -0.0297125 0.09599999999999999 -0.029675 0.146375 -0.062474999999999996 1.8366250000000002 -0.12494999999999999 3.660875 -0.13743750000000002 5.484999999999999 0 1.2493750000000001 0 2.498875 0.08745 3.6858750000000002 -0.01765 0.763625 0.0536375 1.52675 0.2124125 2.274 0.11854999999999999 0.461125 0.41508749999999994 0.8565 0.8246249999999999 1.0995000000000001 0.39035 0.193125 0.814875 0.30775 1.2494375 0.33725 0.8620875 -0.0055000000000000005 1.7225125 -0.0765 2.5738499999999997 -0.21237499999999998 0.8995875 -0.08750000000000001 1.8116875 -0.124875 2.7362625 -0.149875h4.1606375l6.2471250000000005 0.224875c0.5695 0.051875000000000004 1.1423750000000001 0.051875000000000004 1.7117499999999999 0 0.38687499999999997 -0.038125 0.74675 -0.21575 1.012125 -0.49974999999999997 0.3135 -0.40437500000000004 0.519875 -0.8815000000000001 0.59975 -1.3868749999999999 0.0925 -0.9848750000000001 0.0925 -1.976375 0 -2.96125 -0.05 -1.8491250000000001 0.049874999999999996 -3.81075 0.074875 -5.759875Z" stroke-width="1.25"></path>
  <path fill="#222222" d="M12.181362499999999 26.146124999999998c0 -0.64975 -0.174925 -1.3370000000000002 -0.12494999999999999 -2.0241249999999997 0.0769125 -1.08875 0.4248125 -2.141125 1.0120875 -3.061125 0.206125 -0.3195 0.492 -0.5798749999999999 0.829375 -0.7551249999999999 0.3375 -0.17525 0.71475 -0.2595 1.0947500000000001 -0.2445 0.396125 -0.008625 0.7893749999999999 0.06975 1.1521249999999998 0.2295 0.36262500000000003 0.15962500000000002 0.685875 0.397 0.9468749999999999 0.695125 0.561375 0.64425 0.9066249999999999 1.44825 0.9871249999999999 2.299 0.079375 0.9473750000000001 0.108625 1.89825 0.08737500000000001 2.84875 0 0.36225 0.77475 0.5622499999999999 0.937125 0 0.1495 -1.2658749999999999 0.1495 -2.545 0 -3.8108750000000002 -0.13849999999999998 -0.8256249999999999 -0.48224999999999996 -1.60325 -0.9994999999999999 -2.2615 -0.379 -0.458625 -0.8540000000000001 -0.828375 -1.391625 -1.0831250000000001 -0.537625 -0.25475000000000003 -1.124625 -0.38837499999999997 -1.7195 -0.391125 -0.6185 -0.0005 -1.22625 0.16062500000000002 -1.7632500000000002 0.4675 -0.536875 0.306875 -0.9843375 0.748625 -1.2978999999999998 1.281625 -0.60345 1.1565 -0.912425 2.444 -0.8996 3.748375 0.00745 0.71475 0.11255 1.4252500000000001 0.3123625 2.1115 0.1499375 0.362375 0.7996375 0.362375 0.8371249999999999 -0.049874999999999996Z" stroke-width="1.25"></path>
</svg>