<svg xmlns="http://www.w3.org/2000/svg" fill="none" viewBox="0 0 30 30" id="Human-Resources-Hierarchy--Streamline-Freehand" height="30" width="30">
  <desc>
    Human Resources Hierarchy Streamline Icon: https://streamlinehq.com
  </desc>
  <path fill="#010101" fill-rule="evenodd" d="M7.8783625 26.572125c-0.13285 -0.268 -0.296375 -0.5195000000000001 -0.4872875 -0.74975 -0.38225000000000003 -0.385375 -0.830925 -0.6986249999999999 -1.3244375 -0.924625 0.3012625 -0.10262500000000001 0.5768 -0.26925 0.8077875 -0.48825 0.23097499999999999 -0.219 0.41196249999999995 -0.48524999999999996 0.5305875 -0.7806250000000001 0.118625 -0.295375 0.17208749999999998 -0.6128750000000001 0.15675 -0.930875 -0.015349999999999999 -0.317875 -0.0991375 -0.62875 -0.2456625 -0.9113749999999999 -0.2693375 -0.6293749999999999 -0.731325 -1.157125 -1.31955 -1.507375 -0.588225 -0.35025 -1.2723624999999998 -0.504875 -1.95405 -0.44175 -0.461725 0.09287500000000001 -0.8967375 0.288125 -1.2729875 0.571375 -0.3762625 0.28325 -0.6841750000000001 0.647375 -0.901075 1.065375 -0.2348875 0.43737499999999996 -0.33418749999999997 0.93475 -0.28523750000000003 1.4288750000000001 0.048962500000000006 0.494 0.24396250000000003 0.96225 0.5601125 1.3450000000000002 0.258475 0.276625 0.5799624999999999 0.486625 0.9371 0.61225 -0.5466375 0.23575 -1.039725 0.5800000000000001 -1.4493749999999999 1.012 -0.1909125 0.23025 -0.3544375 0.48175 -0.48729 0.74975 -0.1313675 0.278625 -0.2278875 0.572375 -0.2873775 0.874625 -0.14162 0.643875 -0.20455375 1.3025 -0.18742000000000003 1.961625 -0.0048024999999999995 0.12737500000000002 0.03693125 0.252125 0.1174075 0.351s0.19418999999999997 0.165125 0.319905 0.18625c0.0657125 0.00875 0.132505 0.004375 0.19648749999999998 -0.013 0.0639875 -0.017374999999999998 0.12388750000000001 -0.04725 0.17621250000000002 -0.08787500000000001 0.052325 -0.040749999999999995 0.0960375 -0.0915 0.128575 -0.14925 0.03255 -0.057749999999999996 0.053274999999999996 -0.12137500000000001 0.0609875 -0.18712499999999999 0.2613375 -0.7155 0.5875625 -1.4056250000000001 0.974575 -2.061625l0.3248625 -0.6372500000000001c0.11245 -0.224875 0.18742499999999998 -0.449875 0.312375 -0.66225 0.16087500000000002 -0.26875 0.34931249999999997 -0.52 0.5622499999999999 -0.749625 0.059587499999999995 -0.041625 0.10715000000000001 -0.098125 0.137875 -0.164 0.030712500000000004 -0.06575 0.0435 -0.13849999999999998 0.03705 -0.21087499999999998 0.2874375 0.062625 0.5804625 0.09612499999999999 0.874625 0.1 0 0 0.062474999999999996 0 0.0999625 -0.0625 0.0255625 0.11537499999999999 0.092175 0.21749999999999997 0.1874125 0.287375 0.21295000000000003 0.229625 0.4013875 0.480875 0.5622625 0.749625 0.12494999999999999 0.21237499999999998 0.1999125 0.43737499999999996 0.3123625 0.66225l0.3248625 0.6372500000000001c0.3905 0.662875 0.7168375 1.3616249999999999 0.9745874999999999 2.086625 0.0074375000000000005 0.066625 0.028562499999999998 0.131125 0.062049999999999994 0.18925 0.0335 0.058124999999999996 0.0786375 0.108625 0.1326 0.148625 0.05395 0.039874999999999994 0.11556250000000001 0.068125 0.180975 0.083125 0.0654 0.014875000000000001 0.1332 0.01625 0.199125 0.00375 0.134025 -0.018625 0.2552375 -0.0895 0.337175 -0.197125 0.081925 -0.10775 0.11792499999999999 -0.2435 0.1001375 -0.377625 0.0134125 -0.6596249999999999 -0.053724999999999995 -1.318375 -0.1999125 -1.961625 -0.0614375 -0.29374999999999996 -0.157925 -0.579 -0.287375 -0.849625Zm-4.035775 -2.561375c-0.271725 -0.111375 -0.5028375 -0.30325 -0.6622125 -0.549875 -0.0972375 -0.18837500000000001 -0.13721250000000002 -0.40125 -0.11501249999999999 -0.612125 0.0222 -0.21087499999999998 0.1056125 -0.41075 0.2399625 -0.574875 0.1121625 -0.190625 0.263875 -0.355125 0.44491250000000004 -0.48224999999999996 0.1810375 -0.127125 0.3872 -0.214 0.6046374999999999 -0.254875 0.3434375 -0.058124999999999996 0.69645 -0.005999999999999999 1.00845 0.148875 0.31198750000000003 0.15487499999999998 0.5669375 0.404625 0.7283000000000001 0.7132499999999999 0.5497624999999999 0.999625 -0.37483750000000005 2.3865 -2.2490375 1.6118750000000002Z" clip-rule="evenodd" stroke-width="1.25"></path>
  <path fill="#010101" fill-rule="evenodd" d="M18.173875 26.572125c-0.13287500000000002 -0.268 -0.296375 -0.5195000000000001 -0.487375 -0.74975 -0.38225000000000003 -0.385375 -0.8308749999999999 -0.6986249999999999 -1.324375 -0.924625 0.30675 -0.095875 0.588875 -0.257625 0.82675 -0.473625 0.237875 -0.216125 0.42575 -0.4815 0.550625 -0.777625 0.124875 -0.29612499999999997 0.18375 -0.616 0.172375 -0.937125 -0.01125 -0.32125000000000004 -0.0925 -0.636125 -0.237875 -0.92275 -0.26925 -0.6293749999999999 -0.73125 -1.157125 -1.3195000000000001 -1.507375 -0.58825 -0.35025 -1.272375 -0.504875 -1.954 -0.44175 -0.47300000000000003 0.084125 -0.9205000000000001 0.275375 -1.308125 0.559125 -0.387625 0.283625 -0.7052375 0.65225 -0.9284749999999999 1.077625 -0.2281375 0.442125 -0.3191 0.942375 -0.261225 1.4365 0.057875 0.49424999999999997 0.26195 0.959875 0.5860875 1.3373750000000002 0.2584875 0.276625 0.5799875 0.486625 0.9371125 0.61225 -0.546625 0.23575 -1.0397375 0.5800000000000001 -1.4494000000000002 1.012 -0.1909125 0.23025 -0.3544375 0.48175 -0.4872875 0.74975 -0.1275875 0.26275 -0.2240375 0.5395 -0.287375 0.8246249999999999 -0.141625 0.643875 -0.20455 1.302625 -0.18742499999999998 1.961625 -0.0179875 0.135625 0.0176375 0.27275 0.099325 0.3825 0.081675 0.109625 0.20295000000000002 0.18312499999999998 0.3379875 0.20475 0.0657125 0.00875 0.13251249999999998 0.004375 0.1965 -0.013 0.0639875 -0.017374999999999998 0.12388750000000001 -0.04725 0.17621250000000002 -0.08787500000000001 0.052325 -0.040749999999999995 0.096025 -0.0915 0.128575 -0.14925 0.032537500000000004 -0.057749999999999996 0.053274999999999996 -0.12137500000000001 0.060974999999999994 -0.18712499999999999 0.24531250000000002 -0.7137499999999999 0.5547875 -1.40375 0.9246624999999999 -2.061625l0.32475 -0.6372500000000001c0.11249999999999999 -0.224875 0.1875 -0.449875 0.312375 -0.66225 0.16087500000000002 -0.26875 0.34937500000000005 -0.52 0.5622499999999999 -0.749625 0.059625 -0.041625 0.10725 -0.098125 0.137875 -0.164 0.03075 -0.06575 0.0435 -0.13849999999999998 0.037125 -0.21087499999999998 0.287375 0.062625 0.5805 0.09612499999999999 0.874625 0.1 0 0 0.0625 0 0.09987499999999999 -0.0625 0.025625000000000002 0.11537499999999999 0.09225 0.21749999999999997 0.1875 0.287375 0.212875 0.229625 0.401375 0.480875 0.5622499999999999 0.749625 0.125 0.21237499999999998 0.19987499999999997 0.43737499999999996 0.312375 0.66225l0.324875 0.6372500000000001c0.3905 0.662875 0.71675 1.3616249999999999 0.9744999999999999 2.086625 0.0075 0.066625 0.028625 0.131125 0.062125 0.18925 0.0335 0.058124999999999996 0.078625 0.108625 0.132625 0.148625 0.053875 0.039874999999999994 0.11549999999999999 0.068125 0.180875 0.083125 0.0655 0.014875000000000001 0.13325 0.01625 0.199125 0.00375 0.134125 -0.018625 0.25525 -0.0895 0.33725 -0.197125 0.081875 -0.10775 0.117875 -0.2435 0.100125 -0.377625 0.013375 -0.6596249999999999 -0.05374999999999999 -1.318375 -0.19987499999999997 -1.961625 -0.0615 -0.29374999999999996 -0.15800000000000003 -0.579 -0.287375 -0.849625Zm-4.035875 -2.561375c-0.271625 -0.111375 -0.50275 -0.30325 -0.662125 -0.549875 -0.09724999999999999 -0.18837500000000001 -0.13724999999999998 -0.40125 -0.11499999999999999 -0.612125 0.022125 -0.21087499999999998 0.10562500000000001 -0.41075 0.23987499999999998 -0.574875 0.11225 -0.190625 0.263875 -0.355125 0.44499999999999995 -0.48224999999999996 0.18100000000000002 -0.127125 0.38712499999999994 -0.214 0.604625 -0.254875 0.343375 -0.058124999999999996 0.6963750000000001 -0.005999999999999999 1.008375 0.148875 0.312 0.15487499999999998 0.567 0.404625 0.728375 0.7132499999999999 0.5497500000000001 1.012125 -0.374875 2.374 -2.249125 1.6118750000000002Z" clip-rule="evenodd" stroke-width="1.25"></path>
  <path fill="#010101" fill-rule="evenodd" d="M28.469375 26.572125c-0.13275 -0.268 -0.296375 -0.5195000000000001 -0.48724999999999996 -0.74975 -0.359 -0.37912500000000005 -0.7818749999999999 -0.692125 -1.2495 -0.924625 0.301375 -0.10262500000000001 0.576875 -0.26925 0.807875 -0.48825 0.23099999999999998 -0.219 0.411875 -0.48524999999999996 0.5305 -0.7806250000000001 0.118625 -0.295375 0.17212499999999997 -0.6128750000000001 0.15675 -0.930875 -0.015250000000000001 -0.317875 -0.09912499999999999 -0.62875 -0.245625 -0.9113749999999999 -0.269375 -0.6293749999999999 -0.73125 -1.157125 -1.3195000000000001 -1.507375 -0.58825 -0.35025 -1.272375 -0.504875 -1.954125 -0.44175 -0.470625 0.08587499999999999 -0.915625 0.27799999999999997 -1.301 0.5615 -0.385375 0.283625 -0.701 0.651375 -0.9229999999999999 1.07525 -0.234875 0.43737499999999996 -0.33425000000000005 0.93475 -0.28525 1.4288750000000001 0.049 0.494 0.24400000000000002 0.96225 0.560125 1.3450000000000002 0.262 0.27225 0.5825 0.48162499999999997 0.937125 0.61225 -0.5505 0.23550000000000001 -1.047625 0.57975 -1.461875 1.012 -0.19087500000000002 0.23025 -0.35450000000000004 0.48175 -0.48724999999999996 0.74975 -0.127625 0.26275 -0.224125 0.5395 -0.287375 0.8246249999999999 -0.15425 0.642375 -0.22974999999999998 1.301 -0.22499999999999998 1.961625 -0.018 0.135625 0.017625 0.27275 0.099375 0.3825 0.081625 0.109625 0.202875 0.18312499999999998 0.33799999999999997 0.20475 0.065625 0.00875 0.1325 0.004375 0.1965 -0.013 0.064 -0.017374999999999998 0.12387499999999999 -0.04725 0.176125 -0.08787500000000001 0.052375 -0.040749999999999995 0.09612499999999999 -0.0915 0.12862500000000002 -0.14925 0.0325 -0.057749999999999996 0.05325 -0.12137500000000001 0.061000000000000006 -0.18712499999999999 0.269375 -0.7163750000000001 0.6038749999999999 -1.4064999999999999 0.9994999999999999 -2.061625l0.324875 -0.6372500000000001c0.11249999999999999 -0.224875 0.1875 -0.449875 0.312375 -0.66225 0.16087500000000002 -0.26875 0.34937500000000005 -0.52 0.5622499999999999 -0.749625 0.059625 -0.041625 0.10725 -0.098125 0.137875 -0.164 0.03075 -0.06575 0.0435 -0.13849999999999998 0.037125 -0.21087499999999998 0.2915 0.063375 0.58875 0.096875 0.8871249999999999 0.1l0.08737500000000001 -0.0625c0.022125 0.11674999999999999 0.0895 0.22012500000000002 0.1875 0.287375 0.212875 0.229625 0.401375 0.480875 0.5622499999999999 0.749625 0.124875 0.21237499999999998 0.19987499999999997 0.43737499999999996 0.312375 0.66225l0.324875 0.6372500000000001c0.3905 0.662875 0.71675 1.3616249999999999 0.9744999999999999 2.086625 0.0075 0.066625 0.028625 0.131125 0.062125 0.18925 0.0335 0.058124999999999996 0.078625 0.108625 0.1325 0.148625 0.054000000000000006 0.039874999999999994 0.115625 0.068125 0.18100000000000002 0.083125 0.0655 0.014875000000000001 0.13325 0.01625 0.199125 0.00375 0.134 -0.018625 0.25525 -0.0895 0.33725 -0.197125 0.081875 -0.10775 0.117875 -0.2435 0.100125 -0.377625 0.0072499999999999995 -0.669 -0.06825 -1.33625 -0.224875 -1.9866249999999999 -0.055375 -0.284125 -0.143375 -0.560875 -0.2625 -0.8246249999999999Zm-4.02325 -2.561375c-0.27175 -0.111375 -0.50275 -0.30325 -0.662125 -0.549875 -0.09724999999999999 -0.18837500000000001 -0.13724999999999998 -0.40125 -0.115125 -0.612125 0.02225 -0.21087499999999998 0.10562500000000001 -0.41075 0.24 -0.574875 0.112125 -0.190625 0.263875 -0.355125 0.444875 -0.48224999999999996 0.181125 -0.127125 0.38725000000000004 -0.214 0.60475 -0.254875 0.343375 -0.058124999999999996 0.6963750000000001 -0.005999999999999999 1.008375 0.148875 0.312 0.15487499999999998 0.567 0.404625 0.728375 0.7132499999999999 0.09225 0.1445 0.14975 0.3085 0.16825 0.479 0.018375 0.17049999999999998 -0.002875 0.342875 -0.062125 0.50375 -0.059375 0.161 -0.155 0.306 -0.279625 0.42375 -0.124625 0.11775000000000001 -0.27475 0.205125 -0.43875 0.25525 -0.349875 0.1375 0 0.1875 -0.58725 0.1875 -0.36012500000000003 -0.02375 -0.714375 -0.103875 -1.049625 -0.237375Z" clip-rule="evenodd" stroke-width="1.25"></path>
  <path fill="#010101" fill-rule="evenodd" d="M20.298 8.4173875c-0.145875 -0.32781249999999995 -0.33487500000000003 -0.6345875 -0.5622499999999999 -0.9121124999999999 -0.52275 -0.5841125 -1.155375 -1.059625 -1.86175 -1.3994 0.38187499999999996 -0.33277500000000004 0.671875 -0.757925 0.8425 -1.2348000000000001 0.17062500000000003 -0.4768875 0.216125 -0.9895624999999999 0.132125 -1.4890375 -0.05675 -0.79145 -0.363 -1.5445125000000002 -0.875 -2.15075 -0.511875 -0.6062412500000001 -1.203 -1.03438875 -1.973875 -1.2227989625C15.233 -0.03969825 14.467375 0.11790999999999999 13.782 0.46499999999999997c-0.6855 0.34708999999999995 -1.265625 0.87105 -1.6805375 1.5176375 -0.23626250000000001 0.3203625 -0.4030875 0.6864874999999999 -0.4898 1.074975 -0.0867125 0.3885 -0.09142499999999999 0.7908125 -0.013812500000000002 1.181225 0.0776125 0.3904125 0.2358375 0.7603375 0.46455 1.086125 0.22871249999999999 0.32578749999999995 0.52285 0.600275 0.8637250000000001 0.8059h0.124875c-0.6357875000000001 0.4345625 -1.2186625 0.9419624999999999 -1.7367 1.5118500000000001 -0.3683375 0.402825 -0.67565 0.8574625 -0.9121124999999999 1.3494249999999999 -0.2457375 0.44618749999999996 -0.3979625 0.9377875 -0.44737499999999997 1.4447750000000001 -0.049412500000000005 0.5069875 0.005025 1.018725 0.16 1.5039625 0.035075 0.1274125 0.11917499999999999 0.23573750000000002 0.2339 0.3013 0.11473749999999999 0.0655625 0.25077499999999997 0.08302500000000002 0.3783375 0.048549999999999996 0.1306625 -0.035175 0.24209999999999998 -0.1206 0.30998749999999997 -0.23765000000000003 0.06788749999999999 -0.11705 0.0867125 -0.2562 0.05236249999999999 -0.38708750000000003 -0.0108125 -0.32142499999999996 0.0624 -0.6401125000000001 0.21239999999999998 -0.9246 0.1623 -0.326775 0.3503125 -0.640125 0.5622625 -0.9371 0.1999125 -0.3123625 0.424825 -0.624725 0.6247375000000001 -0.9620875 0.487325 -0.7496750000000001 0.8745749999999999 -1.5118500000000001 1.24945 -2.0866000000000002 0 0 0 -0.0999625 0.075 -0.1624375 0.405875 0.137075 0.8245 0.2333375 1.2495 0.2873875 0.11575 0.0182375 0.234 -0.009425 0.32975 -0.0771 0.095625 -0.067675 0.161125 -0.170025 0.1825 -0.28525 0.01075 -0.058262499999999995 0.01 -0.1180875 -0.002375 -0.17604999999999998 -0.012375 -0.05795 -0.036125 -0.1128875 -0.06975 -0.16165 -0.033625 -0.0487625 -0.076625 -0.0903875 -0.1265 -0.1225 -0.04975 -0.032100000000000004 -0.105375 -0.05405 -0.16375 -0.064575 -0.30425 -0.0672875 -0.60125 -0.1635125 -0.8871249999999999 -0.287375 -0.26425 -0.11514999999999999 -0.508875 -0.27115 -0.724625 -0.4623 -0.27875 -0.2189375 -0.47762499999999997 -0.5236625 -0.56575 -0.8669875 -0.08800000000000001 -0.343325 -0.0605 -0.7061125 0.078375 -1.0322 0.189125 -0.4029125 0.48250000000000004 -0.748 0.849625 -0.9995750000000001 0.49062500000000003 -0.434475 1.1323750000000001 -0.658825 1.78675 -0.6247375000000001 0.45275000000000004 0.08356250000000001 0.8665 0.31115 1.1795 0.648875 0.312875 0.33772499999999994 0.508375 0.7675 0.55725 1.225325 0.1875 0.9371 -0.074875 1.936675 -1.1745 2.0241375 -0.07312500000000001 -0.011525 -0.147875 -0.007075 -0.219 0.0130625 -0.07125000000000001 0.020125 -0.13724999999999998 0.0554625 -0.19362500000000002 0.10355 -0.056249999999999994 0.0480875 -0.101375 0.10781249999999999 -0.132375 0.17503749999999998 -0.031 0.06722500000000001 -0.047 0.1403625 -0.047 0.214375 0 0.07402500000000001 0.016 0.1471625 0.047 0.2143875 0.031 0.06722500000000001 0.076125 0.1269375 0.132375 0.17503749999999998 0.056375 0.0480875 0.122375 0.0834125 0.19362500000000002 0.10355 0.071125 0.020125 0.145875 0.024587499999999998 0.219 0.0130625 0.260375 -0.00995 0.5175 -0.0605375 0.76225 -0.1499375 0.003125 0.06065 0.01925 0.119925 0.04725 0.1738 0.028 0.053887500000000005 0.06725 0.10113749999999999 0.115125 0.138575 0.459125 0.49 0.8423750000000001 1.0459125 1.137 1.6492875000000002l0.374875 0.7246874999999999c0.47125 0.842275 0.8085 1.7528 0.9994999999999999 2.6988499999999997 0.027125 0.1245125 0.09849999999999999 0.23495 0.201 0.31067500000000003 0.10250000000000001 0.0757375 0.229 0.1115875 0.356 0.1008875 0.127 -0.0107125 0.24575 -0.06725 0.33399999999999996 -0.15907500000000002 0.088375 -0.09182499999999999 0.140375 -0.2126625 0.146125 -0.33995 0.045625 -0.7908625 -0.009 -1.584325 -0.1625 -2.3614875 -0.06675 -0.3452625 -0.175875 -0.6809750000000001 -0.32475 -0.9995750000000001Z" clip-rule="evenodd" stroke-width="1.25"></path>
  <path fill="#ff8b04" fill-rule="evenodd" d="m18.46125 15.264500000000002 -2.498875 1.5742500000000001 -0.1875 0.15c0.08750000000000001 -0.53725 0.17500000000000002 -1.087 0.224875 -1.636875 0.01875 -0.27449999999999997 0.01875 -0.55 0 -0.8246249999999999 0.01875 -0.27449999999999997 0.01875 -0.55 0 -0.8246249999999999 -0.074875 -0.64975 -0.224875 -1.2494625 -0.287375 -1.9116749999999998 0.01075 -0.064625 0.0075 -0.130775 -0.009250000000000001 -0.194075 -0.016875 -0.0633125 -0.046875 -0.1223125 -0.08825 -0.1731125 -0.041374999999999995 -0.050800000000000005 -0.093 -0.0922375 -0.151625 -0.12154999999999999 -0.0585 -0.029325000000000004 -0.12275 -0.0458625 -0.188125 -0.048537500000000004 -0.117375 -0.0069125 -0.23275 0.032350000000000004 -0.32137499999999997 0.1094125 -0.08875 0.0770625 -0.143875 0.18578750000000002 -0.153375 0.3029125 -0.208625 0.6398625 -0.36325 1.2959999999999998 -0.462375 1.961625 -0.018625 0.283 -0.018625 0.5667500000000001 0 0.849625 0.002 0.280125 0.022875 0.559875 0.0625 0.8372499999999999 0 0.47475 0.137375 0.937 0.224875 1.411875 -0.149875 -0.11249999999999999 -0.312375 -0.21250000000000002 -0.47475 -0.312375 -0.7122499999999999 -0.43737499999999996 -1.436875 -0.8121250000000001 -2.1616 -1.2495 -0.045950000000000005 -0.03525 -0.0983875 -0.061125 -0.1543375 -0.076125 -0.0559375 -0.015 -0.11429999999999998 -0.018875 -0.17172500000000002 -0.011375 -0.057437499999999996 0.0075 -0.11282500000000001 0.026375000000000003 -0.1629875 0.05525000000000001 -0.050175000000000004 0.028999999999999998 -0.0941625 0.0675 -0.1294375 0.1135 -0.035275 0.045875000000000006 -0.0611625 0.098375 -0.076175 0.15425 -0.0150125 0.056 -0.01885 0.114375 -0.011312500000000001 0.17174999999999999 0.0075375 0.057499999999999996 0.026324999999999998 0.112875 0.0552625 0.16299999999999998 0.02895 0.05025 0.0675 0.09412500000000001 0.1134375 0.1295l2.498875 2.436375c0.23112500000000002 0.252125 0.477375 0.49 0.73725 0.7122499999999999 0.134375 0.10975 0.29625 0.18062499999999998 0.468125 0.20487499999999997 0.17174999999999999 0.024125 0.34700000000000003 0.000875 0.5065 -0.0675 0.20575 -0.1 0.39537500000000003 -0.230625 0.5622499999999999 -0.38725000000000004 0.27487500000000004 -0.24987499999999999 0.51225 -0.58725 0.724625 -0.7997500000000001l2.1241250000000003 -1.9241249999999999c0.05425 -0.03950000000000001 0.100125 -0.089375 0.134625 -0.147 0.034624999999999996 -0.057499999999999996 0.05725 -0.12137500000000001 0.0665 -0.187875 0.009375 -0.0665 0.0052499999999999995 -0.134125 -0.012125 -0.199 -0.0175 -0.06475 -0.04775 -0.1255 -0.089 -0.178375 -0.08725 -0.10112499999999999 -0.210375 -0.16424999999999998 -0.34349999999999997 -0.17600000000000002 -0.133 -0.011625 -0.26537499999999997 0.029125 -0.36874999999999997 0.11362499999999999Z" clip-rule="evenodd" stroke-width="1.25"></path>
  <path fill="#ff8b04" fill-rule="evenodd" d="M8.5907 15.626750000000001c-0.5122875 0.2625 -1.0120624999999999 0.524875 -1.4868625 0.81225 -0.35055000000000003 0.186 -0.6886249999999999 0.39475000000000005 -1.0120624999999999 0.62475h-0.074975c0.1278 -0.5295 0.286325 -1.051 0.4748 -1.5618750000000001 0.1499375 -0.337375 0.299875 -0.67475 0.4623 -0.999625 0.1632375 -0.309 0.342575 -0.60925 0.537275 -0.899625 0.393975 -0.7595000000000001 0.9431 -1.4278 1.6118 -1.9616125000000002 0.099925 -0.06218750000000001 0.17236250000000003 -0.16016249999999999 0.20254999999999998 -0.273925 0.030175 -0.11376249999999999 0.0158375 -0.2347625 -0.0401125 -0.3383125 -0.0273875 -0.052975 -0.065325 -0.0998 -0.11146249999999999 -0.137575 -0.046150000000000004 -0.037775 -0.0995375 -0.0657125 -0.1568875 -0.0821 -0.0573375 -0.0163875 -0.117425 -0.0208625 -0.17656249999999998 -0.013175000000000001 -0.05915 0.007699999999999999 -0.1160875 0.027412500000000003 -0.167325 0.057925 -0.9732375 0.38205 -1.8332125 1.005525 -2.4989375 1.811775 -0.29025 0.345625 -0.5338875 0.727875 -0.7246874999999999 1.137 -0.1896125 0.39974999999999994 -0.33619999999999994 0.818625 -0.4373125 1.2493750000000001 -0.134875 0.536125 -0.214425 1.084625 -0.2374 1.636875l-2.498925 -1.9991249999999998c-0.041787500000000005 -0.041999999999999996 -0.09145 -0.07525 -0.146125 -0.098 -0.054662499999999996 -0.022625000000000003 -0.1132875 -0.034375 -0.17248750000000002 -0.034375s-0.117825 0.01175 -0.17250000000000001 0.034375c-0.054675 0.02275 -0.104325 0.056 -0.14611249999999998 0.098 -0.07815000000000001 0.08524999999999999 -0.1215 0.196625 -0.1215 0.312375 0 0.115625 0.04335 0.227 0.1215 0.312375l2.398975 2.936125 0.6747000000000001 0.64975c-0.0749625 0.08750000000000001 0.2748875 0.24987499999999999 0.37484999999999996 0.299875 0.137625 0.07475 0.293475 0.109375 0.4498 0.1 0.2884 -0.007875 0.5691875 -0.094375 0.8121499999999999 -0.24987499999999999 0.306 -0.23675000000000002 0.5903375000000001 -0.500125 0.8496375 -0.78725 0.2123875 -0.264875 0.43756249999999997 -0.5191250000000001 0.6747124999999999 -0.762125l1.2494625 -1.037c0.0975375 -0.080625 0.1618 -0.194375 0.18045 -0.3195 0.0186375 -0.125125 -0.009675 -0.25275 -0.07948749999999999 -0.35825 -0.0698125 -0.10550000000000001 -0.17617500000000003 -0.181375 -0.29862500000000003 -0.213125 -0.12245 -0.03175 -0.2523125 -0.017125 -0.36458749999999995 0.04125l0.049975000000000006 0.012375Z" clip-rule="evenodd" stroke-width="1.25"></path>
  <path fill="#ff8b04" fill-rule="evenodd" d="M29.169249999999998 14.66475c-0.040749999999999995 -0.041625 -0.089375 -0.074625 -0.14300000000000002 -0.097125 -0.053625 -0.022625000000000003 -0.11124999999999999 -0.034125 -0.169375 -0.034125 -0.05825 0 -0.115875 0.0115 -0.16949999999999998 0.034125 -0.053625 0.0225 -0.10225 0.0555 -0.142875 0.097125l-2.499 1.9991249999999998c-0.029125 -0.55175 -0.1085 -1.099625 -0.237375 -1.636875 -0.10562500000000001 -0.431125 -0.256375 -0.8498749999999999 -0.44975 -1.2493750000000001 -0.19112500000000002 -0.406125 -0.43025 -0.787875 -0.7122499999999999 -1.137 -0.6708749999999999 -0.8007625 -1.52925 -1.4231375 -2.498875 -1.811775 -0.05175 -0.0295375 -0.10874999999999999 -0.0486 -0.16775 -0.056112499999999996 -0.059125000000000004 -0.0075 -0.11900000000000001 -0.0033125 -0.1765 0.01235 -0.057375 0.0156625 -0.111125 0.0424875 -0.15825 0.0789375 -0.047125 0.036449999999999996 -0.0865 0.0818125 -0.11599999999999999 0.1335 -0.0295 0.0516875 -0.048624999999999995 0.10867500000000001 -0.056125 0.1677375 -0.0075 0.05905 -0.0033750000000000004 0.11900000000000001 0.012375 0.1764375 0.015625 0.057437499999999996 0.0425 0.11121249999999999 0.078875 0.1582875 0.0365 0.04706250000000001 0.081875 0.0864875 0.1335 0.116025 0.6777500000000001 0.5312250000000001 1.2355 1.1997375000000001 1.636875 1.9616125000000002 0.174875 0.312375 0.34975 0.62475 0.51225 0.949625 0.162375 0.324875 0.312375 0.66225 0.46225000000000005 0.999625 0.15 0.337375 0.312375 1.037 0.462375 1.56175h-0.0625c-0.337375 -0.224875 -0.66225 -0.43725 -1.012125 -0.62475 -0.34975 -0.187375 -0.987 -0.5497500000000001 -1.49925 -0.8121250000000001 -0.11325 -0.07125000000000001 -0.24975 -0.09537500000000002 -0.380375 -0.067375 -0.13075 0.028 -0.245375 0.106 -0.319375 0.21737499999999998 -0.036875 0.0555 -0.062375 0.117875 -0.074875 0.183375 -0.012375 0.0655 -0.011625 0.13287500000000002 0.002375 0.198 0.014 0.06525 0.040875 0.127 0.07900000000000001 0.181625 0.03825 0.05462500000000001 0.087 0.10112499999999999 0.143375 0.136625l1.2495 1.037125c0.262375 0.224875 0.51225 0.47475 0.762125 0.724625 0.256375 0.290125 0.541 0.55375 0.84975 0.78725 0.2385 0.155125 0.515125 0.24150000000000002 0.799625 0.24987499999999999 0.156375 0.010124999999999999 0.312375 -0.024624999999999998 0.44975 -0.1 0.11249999999999999 0 0.462375 -0.21237499999999998 0.374875 -0.299875l0.6872499999999999 -0.64975 2.386375 -2.9362500000000002c0.04325 -0.0435 0.076875 -0.09575 0.09862499999999999 -0.153125 0.02175 -0.057375 0.031125 -0.11875 0.027625000000000004 -0.18 -0.0035 -0.061375 -0.02 -0.12125 -0.048125 -0.17575000000000002 -0.028249999999999997 -0.0545 -0.067625 -0.10250000000000001 -0.11549999999999999 -0.14075000000000001Z" clip-rule="evenodd" stroke-width="1.25"></path>
</svg>