<svg xmlns="http://www.w3.org/2000/svg" fill="none" viewBox="0 0 30 30" id="Microphone-Karaoke-1--Streamline-Freehand" height="30" width="30">
  <desc>
    Microphone Karaoke 1 Streamline Icon: https://streamlinehq.com
  </desc>
  <path fill="#010101" fill-rule="evenodd" d="M8.4698125 18.753500000000003c0.0729625 -0.606125 -0.0637375 -1.2189999999999999 -0.3873625 -1.73675 -0.3849375 -0.5998749999999999 -0.8377625 -1.153375 -1.3494875 -1.6493749999999998 -0.41795 -0.44525000000000003 -0.8645750000000001 -0.8626250000000001 -1.3370000000000002 -1.249625 -0.5997750000000001 -0.49974999999999997 -1.1620625 -0.874625 -2.0367375 -1.62435 -0.26239999999999997 -0.2124125 -0.66225 -0.4873125 -1.012125 -0.7872l1.4369625 -0.6872499999999999c0.5336 -0.2915375 1.1491125 -0.39704999999999996 1.7493500000000002 -0.29988750000000003 0.5432250000000001 0.266875 0.9826625 0.7062999999999999 1.249525 1.2495375 0.028 0.0620625 0.06837499999999999 0.11775000000000001 0.11865 0.16365000000000002 0.0502875 0.0459 0.10942500000000001 0.08105 0.173775 0.103275 0.06434999999999999 0.0222375 0.1325625 0.031075 0.20045000000000002 0.026 0.0679 -0.0050750000000000005 0.1340375 -0.023962499999999998 0.194375 -0.0555125 0.054237499999999994 -0.0310875 0.1018125 -0.072575 0.13998750000000001 -0.12208750000000002 0.038175 -0.049525 0.0661875 -0.1060875 0.0824375 -0.16645 0.01625 -0.060375000000000005 0.020425 -0.1233625 0.012275000000000001 -0.18535 -0.00815 -0.0619875 -0.028462499999999998 -0.12175 -0.059775 -0.175875 -0.3432625 -0.797525 -0.9527375 -1.451175 -1.72435 -1.8493000000000002 -0.8255875 -0.2378875 -1.7078375000000001 -0.18495 -2.4990625 0.1499375l-1.9742625 0.7622125000000001 -0.49980749999999996 0.24991249999999998c-0.16683 0.09886249999999999 -0.29416125000000004 0.2525875 -0.36025124999999997 0.4349 -0.06608875 0.18231250000000002 -0.06683625 0.38192499999999996 -0.00211375 0.564725 0.14871499999999999 0.2734875 0.3336475 0.525675 0.54979375 0.7497375000000001 0.38735375000000005 0.41237500000000005 0.91215375 0.799625 1.24952875 1.099625 1.024625 0.899625 1.5994 1.2495 2.349125 1.94925 0.26239999999999997 0.237375 0.5622875 0.51225 0.91215 0.862125 0.460325 0.37025 0.879275 0.78925 1.2495375 1.2495 0.1711625 0.213125 0.26773749999999996 0.4765 0.27490000000000003 0.74975 0 0.5497500000000001 -0.624775 0.77475 -1.1245875 0.73725 -0.4998125 -0.0375 -1.0121125 -0.362375 -0.862175 -1.024625 0.047850000000000004 -0.197625 0.1148125 -0.390125 0.199925 -0.57475 0.0777625 -0.194625 0.17843749999999997 -0.37912500000000005 0.29988750000000003 -0.549875 0.032825 -0.045125 0.056425 -0.09625 0.06948750000000001 -0.1505 0.013049999999999999 -0.05425 0.015287499999999999 -0.11050000000000001 0.0065875000000000005 -0.16562500000000002 -0.0087125 -0.055125 -0.028175000000000002 -0.10800000000000001 -0.0573125 -0.155625 -0.029125 -0.0475 -0.06735 -0.088875 -0.112475 -0.12175 -0.045125 -0.03275 -0.096275 -0.056375 -0.150525 -0.06949999999999999 -0.05425 -0.013 -0.1105375 -0.015250000000000001 -0.16565 -0.0065 -0.055112499999999995 0.008625 -0.107975 0.028124999999999997 -0.1555625 0.05725 -0.0475875 0.029125 -0.088975 0.067375 -0.1217875 0.11249999999999999 -0.164475 0.20074999999999998 -0.3069 0.41862499999999997 -0.4248375 0.64975 -0.13365 0.229375 -0.24256250000000001 0.472375 -0.3248875 0.72475 -0.10646249999999999 0.27525 -0.14505 0.5720000000000001 -0.11246249999999999 0.865375 0.032575 0.293375 0.13535 0.5745 0.2996125 0.8196249999999999 0.164275 0.24525000000000002 0.3852 0.44725000000000004 0.6440750000000001 0.588875 0.2588875 0.14175 0.5481 0.21887500000000001 0.8431500000000001 0.22512500000000002 0.5662125 0.08987500000000001 1.145375 -0.03975 1.6191625 -0.36262500000000003 0.47377500000000006 -0.32275 0.8063874999999999 -0.814375 0.9298875 -1.37425Z" clip-rule="evenodd" stroke-width="1.25"></path>
  <path fill="#222222" fill-rule="evenodd" d="M20.402874999999998 27.225250000000003c-0.967875 0.51125 -2.015875 0.8534999999999999 -3.0988749999999996 1.012125 -1.4308750000000001 0.286875 -2.9148750000000003 0.13899999999999998 -4.260875 -0.42474999999999996 -0.72015 -0.285125 -1.4141625 -0.632125 -2.0742625 -1.037125 -1.056175 -0.6722499999999999 -2.2115375 -1.174 -3.4237125 -1.487 -0.45030000000000003 -0.145625 -0.9281375000000001 -0.18525 -1.3962875 -0.115875 -0.46815 0.06924999999999999 -0.9139625 0.245875 -1.3027 0.51575 -0.052224999999999994 0.036875 -0.0962375 0.08425 -0.1292375 0.13899999999999998 -0.0330125 0.05475 -0.0543 0.11575 -0.0625125 0.179125 -0.008225 0.0635 -0.0032 0.12787500000000002 0.01475 0.18925 0.01795 0.061375 0.0484375 0.11837500000000001 0.08953749999999999 0.167375 0.038024999999999996 0.050749999999999997 0.08585000000000001 0.093375 0.140625 0.12537500000000001 0.054775 0.031875 0.1153875 0.052625 0.17828750000000002 0.06075 0.0628875 0.008125 0.1267875 0.0036249999999999998 0.1879 -0.013375 0.0611125 -0.016875 0.1182125 -0.045875000000000006 0.167925 -0.08524999999999999 0.2845 -0.13724999999999998 0.5962875 -0.208625 0.9121625 -0.208625s0.6276625 0.071375 0.9121625 0.208625c1.0474375 0.36225 2.030275 0.8895 2.9114 1.5618750000000001 0.7222625 0.5 1.492425 0.9268750000000001 2.2991375 1.2745000000000002 0.826325 0.36 1.702825 0.59175 2.599075 0.6872499999999999 0.863125 0.068125 1.731625 0.000625 2.5740000000000003 -0.19987499999999997 1.22825 -0.28975 2.392875 -0.8021250000000001 3.4362500000000002 -1.512 0.869875 -0.528125 1.525 -1.3468749999999998 1.84925 -2.311625 -0.262375 -0.349875 -0.6372500000000001 -0.299875 -1.099625 0.075 -0.37374999999999997 0.506375 -0.86175 0.917375 -1.424375 1.1995Z" clip-rule="evenodd" stroke-width="1.25"></path>
  <path fill="#010101" fill-rule="evenodd" d="M29.162125 15.31725c-0.1745 -0.23362500000000003 -0.398 -0.42625 -0.6548750000000001 -0.5645 -0.25687499999999996 -0.138125 -0.540875 -0.21837499999999999 -0.832 -0.23512499999999997 -0.56075 -0.023375 -1.12075 0.0615 -1.6493749999999998 0.24987499999999999l-0.125 0c-0.05 0 0 -0.08750000000000001 0.0625 -0.137375 0.09025 -0.522625 0.029625 -1.060125 -0.17500000000000002 -1.5495 -0.09412500000000001 -0.32575 -0.290875 -0.6123125 -0.561125 -0.8171875000000001 -0.270125 -0.20487499999999997 -0.59925 -0.31704999999999994 -0.93825 -0.3198625 -0.09962499999999999 -0.0120375 -0.20025 -0.0120375 -0.299875 0 0.013125000000000001 -0.255175 -0.037000000000000005 -0.509625 -0.146 -0.740725 -0.109 -0.2310875 -0.27349999999999997 -0.4316375 -0.47875 -0.5837749999999999 -0.268625 -0.16815 -0.583625 -0.24688749999999998 -0.89975 -0.22491250000000002 -0.358375 0.0187875 -0.712 0.09037500000000001 -1.0495 0.2124125 -0.11249999999999999 0 -0.21250000000000002 0.12494999999999999 -0.325 0.1749375 0.01875 -0.3496125 0.01875 -0.6999875 0 -1.0495999999999999 0.0125 -0.19973749999999998 0.0125 -0.40005 0 -0.5997874999999999 -0.029625 -0.1898875 -0.071375 -0.37768749999999995 -0.124875 -0.5622875 -0.15 -0.46232500000000004 -0.349875 -0.849675 -0.49987499999999996 -1.249525 0.059125000000000004 -0.0466 0.106125 -0.1065625 0.1375 -0.1749375 0.162625 -0.5029375 0.26737500000000003 -1.0227625 0.312375 -1.5494125 0.040625 -0.538825 0.01125 -1.0806499999999999 -0.08750000000000001 -1.6118999999999999 -0.0765 -0.3433875 -0.20725 -0.6723999999999999 -0.387375 -0.9746375 -0.254 -0.4064625 -0.546875 -0.7872750000000001 -0.874625 -1.137075C18.616625 0.78765125 17.279374999999998 0.119065375 15.842125 0.010552275 14.4425 -0.07087987500000001 13.05625 0.32081499999999996 11.906125000000001 1.122635 10.7956125 1.881475 9.8899125 2.903075 9.2696125 4.096525c-0.22593749999999999 0.4406125 -0.36014999999999997 0.9224875 -0.3945125 1.4164625 -0.034362500000000004 0.49397499999999994 0.0318375 0.9898 0.1945875 1.4574500000000001 0.15625 0.377225 0.37135 0.727275 0.6372625 1.0371125 0.3725875 0.41728750000000003 0.7918375 0.790425 1.2495375 1.1120875 0.35355 0.2822 0.7394625 0.5213 1.1495625 0.7122249999999999 0.29478750000000004 0.111225 0.600575 0.1908125 0.9121999999999999 0.23741249999999997 -0.018 0.0739 -0.018 0.151025 0 0.22492499999999999 0.149875 0.46232500000000004 0.224875 0.8996625 0.39987500000000004 1.3619875000000001 0.074875 0.18742499999999998 0.162375 0.3623625 0.24987499999999999 0.5373 0.105125 0.174325 0.222 0.34126249999999997 0.349875 0.4997625 0.162375 0.2 0.337375 0.387375 0.51225 0.574875 -0.727625 0.643375 -1.3588749999999998 1.38825 -1.87425 2.211625 -0.2278875 0.39712499999999995 -0.4162125 0.8156249999999999 -0.5623125 1.2495 -0.15495 0.405875 -0.27615 0.82375 -0.3623625 1.249625 -0.177475 1.01025 -0.22367499999999998 2.039125 -0.13745000000000002 3.06125 -0.005325 0.06325 0.0027875 0.12687500000000002 0.0238 0.18675 0.021012499999999996 0.059875 0.05445 0.114625 0.0981125 0.16062500000000002s0.0965625 0.08224999999999999 0.155225 0.106375c0.058675000000000005 0.024125 0.12177500000000001 0.035625000000000004 0.1851875 0.033625 0.12717499999999998 0.0033750000000000004 0.2506375 -0.043 0.3440375 -0.129375 0.0933875 -0.086375 0.1492625 -0.20587500000000003 0.1557625 -0.333 0.12625 -0.9189999999999999 0.344 -1.8231249999999999 0.64975 -2.699 0.125 -0.374875 0.262375 -0.737125 0.39987500000000004 -1.0995000000000001l0.43737499999999996 -1.074625c0.26887500000000003 -0.6151249999999999 0.57775 -1.212 0.924625 -1.786875 0.047125 0.021375 0.09825 0.0325 0.149875 0.0325 0.05175 0 0.102875 -0.011125 0.15 -0.0325 0.570125 -0.29125 1.188125 -0.47750000000000004 1.8242500000000001 -0.5497500000000001 0.2695 -0.010625 0.538125 0.036250000000000004 0.7879999999999999 0.1375 0.25 0.10125 0.47550000000000003 0.254625 0.6615 0.44975 0.11249999999999999 0.11249999999999999 0.387375 0.224875 0.524875 0.337375 -0.124875 0.007375 -0.250125 0.007375 -0.374875 0 -0.420625 0.061625 -0.8376250000000001 0.14500000000000002 -1.249625 0.24987499999999999 -0.21999999999999997 0.05925 -0.42250000000000004 0.170875 -0.59 0.32537499999999997 -0.1675 0.1545 -0.29525 0.34725 -0.37212500000000004 0.561875 -0.076125 0.30775 -0.076125 0.6293749999999999 0 0.937125 0.1375 0.72475 0.6372500000000001 1.686875 0.67475 2.1866250000000003 0.0665 0.480125 -0.030375 0.9686250000000001 -0.27487500000000004 1.387 -0.28725 0.42974999999999997 -0.684125 0.774875 -1.1495 0.999625 -0.059125000000000004 0.0245 -0.112625 0.0605 -0.15737500000000001 0.106125 -0.044875 0.045625 -0.08 0.09987499999999999 -0.10325000000000001 0.159375 -0.023375 0.059500000000000004 -0.0345 0.12312500000000001 -0.032625 0.187 0.001875 0.063875 0.016625 0.12675 0.04325 0.18474999999999997 0.0245 0.059125000000000004 0.060625 0.112625 0.106125 0.15737500000000001 0.045625 0.04475 0.09987499999999999 0.079875 0.159375 0.10325000000000001 0.059500000000000004 0.023375 0.12312500000000001 0.034375 0.187 0.032625 0.063875 -0.001875 0.12675 -0.016625 0.18474999999999997 -0.04325 0.6763750000000001 -0.248125 1.2695 -0.6811250000000001 1.711875 -1.249625 0.098125 -0.15 0.18175 -0.309 0.25 -0.47475l1.636875 3.16125c-0.12262500000000001 0.04575 -0.23987499999999998 0.10437500000000001 -0.349875 0.17500000000000002 -0.1765 0.12 -0.33975 0.258125 -0.487375 0.41225 -0.20400000000000001 0.256375 -0.42525 0.4985 -0.66225 0.72475 -0.11475 0.05437499999999999 -0.203875 0.151375 -0.24825 0.270375 -0.044375 0.119125 -0.040375 0.25075000000000003 0.010875 0.36687499999999995 0.05675 0.11575 0.15612499999999999 0.205125 0.277125 0.249375 0.121125 0.044125 0.254625 0.039874999999999994 0.372625 -0.011875 0.38712499999999994 -0.060125 0.765 -0.16924999999999998 1.1244999999999998 -0.324875 0.146375 -0.07275000000000001 0.284625 -0.16062500000000002 0.41237500000000005 -0.2625 0.131375 -0.09612499999999999 0.249125 -0.2095 0.349875 -0.337375 0.24262499999999998 0.239625 0.55175 0.40075 0.88725 0.462375 0.762125 0.1 1.424375 0.21237499999999998 1.94925 -0.6872499999999999 0.24 -0.46775 0.36424999999999996 -0.9862500000000001 0.362375 -1.511875 0.008625 -0.5369999999999999 -0.041625 -1.073375 -0.15 -1.5995000000000001 0.34112499999999996 -0.5257499999999999 0.734625 -1.0155 1.174625 -1.461875 0.43687499999999996 -0.438 0.93325 -0.8123750000000001 1.474375 -1.112125 0.61225 -0.362375 1.4244999999999999 -0.58725 2.04925 -0.999625 0.35312499999999997 -0.236375 0.6583749999999999 -0.537375 0.899625 -0.8871249999999999 0.19574999999999998 -0.27799999999999997 0.300875 -0.6096250000000001 0.300875 -0.949625s-0.105125 -0.67175 -0.300875 -0.9497500000000001ZM21.665 11.756150000000002c0.19724999999999998 -0.0474875 0.39775 -0.0808875 0.59975 -0.0999625 0.0855 -0.0038374999999999998 0.16962499999999997 0.022725000000000002 0.237375 0.074975 0.17500000000000002 0.1624375 0 0.38734999999999997 0 0.6122625 -0.08987500000000001 0.20782499999999998 -0.203125 0.40495000000000003 -0.337375 0.587325 -0.237375 0.174875 -0.44975 0.362375 -0.62475 0.51225 -0.182875 0.14925 -0.354125 0.312125 -0.51225 0.487375 -0.090625 0.112875 -0.170125 0.23425 -0.2375 0.362375 -0.06125 0.108625 -0.0935 0.23125 -0.0935 0.356 0 0.124875 0.03225 0.2475 0.0935 0.35612499999999997 0.045875000000000006 0.10325000000000001 0.112875 0.1955 0.196875 0.270875 0.08399999999999999 0.075375 0.183 0.132125 0.2905 0.1665 0.0965 0.042374999999999996 0.20074999999999998 0.06425 0.306125 0.06425 0.105375 0 0.20962499999999998 -0.021875000000000002 0.306125 -0.06425l0.224875 -0.162375 0.2625 -0.2 0.67475 -0.67475c0.04875 -0.055874999999999994 0.094625 -0.11424999999999999 0.137375 -0.174875 0.23512499999999997 -0.18412499999999998 0.486 -0.347125 0.74975 -0.487375 0.187375 -0.08750000000000001 0.387375 -0.19987499999999997 0.48724999999999996 0 0.11662499999999999 0.222875 0.1685 0.473875 0.15 0.72475 -0.0415 0.2755 -0.148625 0.536875 -0.312375 0.76225 -0.134125 0.20737499999999998 -0.2845 0.40375 -0.449875 0.58725 -0.146625 0.174375 -0.3145 0.32975 -0.49974999999999997 0.462375 -0.184 0.116375 -0.391625 0.190375 -0.607875 0.21625 -0.216125 0.026 -0.435375 0.00325 -0.641625 -0.066375 -0.504 -0.140875 -0.94475 -0.44937499999999997 -1.249625 -0.874625 -0.07325 -0.102375 -0.178875 -0.17725000000000002 -0.299875 -0.21250000000000002 0.002375 -0.028999999999999998 0.002375 -0.05825 0 -0.08737500000000001 0.05575 -0.167375 0.07775 -0.344 0.064875 -0.519875 -0.012875000000000001 -0.17575000000000002 -0.060375000000000005 -0.347375 -0.139875 -0.50475 -0.2845 -0.372 -0.641625 -0.6822499999999999 -1.0495 -0.91225l-0.1625 -0.08737500000000001c0.262625 -0.31675000000000003 0.5650000000000001 -0.598125 0.899625 -0.8372124999999999 0.47825 -0.2956 1.001625 -0.510875 1.5495 -0.6372625h-0.0125ZM13.293125 9.144625c-0.053875 0.01 -0.10500000000000001 0.0312875 -0.15 0.062474999999999996 -0.233125 -0.0477 -0.45962500000000006 -0.1232125 -0.6747124999999999 -0.22491250000000002 -0.32903750000000004 -0.18901250000000003 -0.6351125000000001 -0.41542500000000004 -0.91215 -0.67475 -0.2777 -0.24698749999999997 -0.53665 -0.5143 -0.7747125 -0.7997 -0.21517499999999998 -0.268175 -0.38025000000000003 -0.572925 -0.4873125 -0.8996625 -0.08003750000000001 -0.3129625 -0.0935875 -0.6392249999999999 -0.039787499999999996 -0.95775 0.0538 -0.318525 0.173775 -0.6222375 0.3521625 -0.89155 0.5510375 -0.9124875 1.3085875 -1.6828750000000001 2.2116375 -2.2491625 0.855125 -0.5999249999999999 1.879625 -0.9107750000000001 2.924 -0.8871625 1.0438749999999999 0.019575000000000002 2.0425 0.42974999999999997 2.7988750000000002 1.1495625 0.240625 0.22644999999999998 0.466125 0.46855 0.67475 0.7247375 0.18125 0.22117499999999998 0.317125 0.47593749999999996 0.39987500000000004 0.7497125 0.114 0.406525 0.16875 0.8273750000000001 0.162375 1.2495375 -0.015375 0.3277 -0.057124999999999995 0.6536375 -0.124875 0.974625 -0.8372499999999999 0.4498375 -1.736875 0.8746750000000001 -2.649 1.2495375l-1.049625 0.4873125 -0.6872499999999999 0.324875c-0.619 0.3136125 -1.2864999999999998 0.5206000000000001 -1.9742499999999998 0.612275Zm5.110625 3.661125c-0.317 -0.110625 -0.6517499999999999 -0.1615 -0.9871249999999999 -0.15 -0.5795 0.040625 -1.14475 0.197875 -1.662 0.462375 -0.137375 -0.387375 -0.24987499999999999 -0.7871875 -0.39974999999999994 -1.17455 -0.075 -0.18742499999999998 -0.15 -0.3748625 -0.2375 -0.5497875 -0.09775 -0.179025 -0.215125 -0.34665 -0.349875 -0.4998125 -0.24725 -0.3202125 -0.52325 -0.6171625000000001 -0.8246249999999999 -0.887175 0.842875 0.06786249999999999 1.691 -0.025437500000000002 2.499 -0.2748875 0.592125 -0.205375 1.154875 -0.4868 1.674375 -0.8371875 0.47037500000000004 -0.3090625 0.921125 -0.6470874999999999 1.3495 -1.012125 -0.06275 0.2961875 -0.10037499999999999 0.5971375 -0.11237499999999999 0.8996625 -0.025125 0.20331249999999998 -0.025125 0.40895000000000004 0 0.612275 0.036625 0.1989125 0.08675000000000001 0.395125 0.149875 0.587275 0.1375 0.44982500000000003 0.337375 0.862175 0.512375 1.249525 -0.17500000000000002 0.11246249999999999 -0.374875 0.16244999999999998 -0.537375 0.2874 -0.42075 0.372625 -0.7829999999999999 0.8065 -1.0745 1.2870125Zm3.7485 10.321125c-0.022625000000000003 0.20237499999999997 -0.06025 0.402875 -0.11237499999999999 0.59975 0 0.125 -0.0625 0.27487500000000004 -0.17500000000000002 0.299875l-0.57475 -0.712125 -2.911375 -3.9361249999999997v-0.39974999999999994l-0.449875 -2.4991250000000003c0.11237499999999999 0.00625 0.22499999999999998 0.00625 0.337375 0 0.466125 -0.049125 0.923875 -0.15837500000000002 1.3619999999999999 -0.324875 0.080125 -0.051250000000000004 0.1555 -0.109875 0.224875 -0.17500000000000002l0 0.1c0.403125 0.665875 1.026375 1.16975 1.7618749999999999 1.4244999999999999l0 0.125c0 1.137 0.41237500000000005 2.6365 0.5497500000000001 3.9985 0.056125 0.4985 0.051875000000000004 1.001875 -0.0125 1.4993750000000001Zm5.635375 -6.797499999999999c-0.122125 0.17625 -0.279625 0.325125 -0.46225000000000005 0.43737499999999996 -0.58725 0.41237500000000005 -1.3370000000000002 0.69975 -1.899375 1.0871250000000001 -0.917875 0.6393749999999999 -1.661125 1.498625 -2.161625 2.499 -0.27799999999999997 -0.8939999999999999 -0.50325 -1.8035 -0.67475 -2.723875 0.46787500000000004 0.032625 0.9355 -0.066875 1.3495 -0.28750000000000003 0.226875 -0.14725 0.44012500000000004 -0.3145 0.6372500000000001 -0.49974999999999997 0.16825 -0.16125 0.32675000000000004 -0.33237500000000003 0.47487500000000005 -0.512375 0.31175 -0.14325 0.6332500000000001 -0.26425 0.9621250000000001 -0.36225 0.48925 -0.11237499999999999 0.997625 -0.11237499999999999 1.486875 0 0.129625 0.030875 0.2445 0.106 0.324875 0.21237499999999998 0 0 0.0125 0.075 -0.0375 0.149875Z" clip-rule="evenodd" stroke-width="1.25"></path>
</svg>