<svg xmlns="http://www.w3.org/2000/svg" fill="none" viewBox="0 0 30 30" id="Business-Metaphor-Lucky-Cat--Streamline-Freehand" height="30" width="30">
  <desc>
    Business Metaphor Lucky Cat Streamline Icon: https://streamlinehq.com
  </desc>
  <path fill="#010101" fill-rule="evenodd" d="M16.255875 5.6377625c-0.1975 -0.0437375 -0.40212499999999995 -0.0437375 -0.5996250000000001 0 -0.262 0.0327125 -0.5135 0.1222625 -0.73725 0.2623625 -0.433 0.3321375 -0.783625 0.7596749999999999 -1.0245 1.2493875 -0.07475 0.07694999999999999 -0.11662499999999999 0.1800375 -0.11662499999999999 0.2873625 0 0.10731249999999999 0.041875 0.2104 0.11662499999999999 0.28735 0.074875 0.0740125 0.175875 0.115525 0.28112499999999996 0.115525s0.206375 -0.04151250000000001 0.28112499999999996 -0.115525c0.3315 -0.19255 0.68925 -0.3356625 1.062 -0.42478750000000004 0.141875 -0.0458875 0.288625 -0.0752375 0.43725 -0.08745h0.224875c0.257375 0.021187499999999998 0.5017499999999999 0.121575 0.69975 0.28735 0.027875 0.052500000000000005 0.06587499999999999 0.099 0.111625 0.1368375 0.045875000000000006 0.037825 0.09875 0.0662625 0.155625 0.0836625 0.056874999999999995 0.0174 0.11662499999999999 0.0234375 0.17575000000000002 0.0177625 0.059125000000000004 -0.0056875 0.11662499999999999 -0.0229625 0.169125 -0.05085 0.052500000000000005 -0.0279 0.099 -0.06584999999999999 0.136875 -0.1117125 0.037875 -0.0458625 0.06625 -0.098725 0.083625 -0.155575 0.017374999999999998 -0.05685 0.0235 -0.1165625 0.017750000000000002 -0.17575000000000002 -0.005625 -0.059175 -0.022875 -0.1166625 -0.050749999999999997 -0.1691625 -0.08449999999999999 -0.3463 -0.26175 -0.6630375 -0.512625 -0.9161874999999999 -0.251 -0.25315 -0.566125 -0.433125 -0.9117500000000001 -0.5206000000000001Z" clip-rule="evenodd" stroke-width="1.25"></path>
  <path fill="#010101" fill-rule="evenodd" d="M10.2339875 7.274462499999999c0.09570000000000001 -0.0059625 0.191675 -0.0059625 0.2873625 0 0.344325 -0.0286875 0.6891 0.049862500000000004 0.9870125000000001 0.2248875 0.035225 0.043625 0.0792375 0.0793625 0.129175 0.104875 0.049937499999999996 0.0255125 0.1046875 0.0402375 0.16068749999999998 0.043212499999999994 0.0559875 0.002975 0.1119875 -0.0058625 0.16435000000000002 -0.025937500000000002 0.05236249999999999 -0.0200875 0.0999125 -0.050949999999999995 0.1395625 -0.0906 0.03965 -0.03965 0.070525 -0.0872 0.0906 -0.1395625 0.020075000000000003 -0.05236249999999999 0.0289125 -0.1083625 0.025937500000000002 -0.16435000000000002 -0.002975 -0.056 -0.0177 -0.11075 -0.043212499999999994 -0.16068749999999998 -0.0255125 -0.049937499999999996 -0.06125 -0.09395 -0.104875 -0.129175 -0.294825 -0.5210374999999999 -0.7774749999999999 -0.9098375000000001 -1.3493374999999999 -1.0869624999999998 -0.2816625 -0.0808875 -0.5804 -0.0808875 -0.862075 0 -0.2781 0.065025 -0.5356875 0.1981125 -0.749625 0.3873125 -0.41636249999999997 0.3977125 -0.7036375 0.911325 -0.8246 1.4742625 -0.022350000000000002 0.05495 -0.033612500000000003 0.11376249999999999 -0.0331375 0.173075 0.00047500000000000005 0.0593125 0.012674999999999999 0.11795 0.0359 0.172525 0.023225 0.054575 0.057012499999999994 0.104025 0.099425 0.1454875 0.042412500000000006 0.041475 0.0926125 0.0741375 0.1477 0.09612499999999999 0.0539375 0.0244625 0.11228749999999998 0.037712499999999996 0.17149999999999999 0.0389375 0.0592125 0.0012374999999999999 0.11806250000000001 -0.009575 0.172975 -0.031775000000000005s0.10473750000000001 -0.055325 0.1464625 -0.0973625c0.041725 -0.04202499999999999 0.074475 -0.09209999999999999 0.0962625 -0.147175 0.119825 -0.2018125 0.28073750000000003 -0.376175 0.4723 -0.511775 0.1915625 -0.1356 0.4095 -0.2294125 0.6396499999999999 -0.2753375Z" clip-rule="evenodd" stroke-width="1.25"></path>
  <path fill="#010101" fill-rule="evenodd" d="M17.0055 10.9726375c-0.05475 -0.0218375 -0.1135 -0.032350000000000004 -0.17250000000000001 -0.0308875 -0.059 0.00145 -0.117125 0.0148375 -0.170875 0.03935 -0.053625 0.024524999999999998 -0.10187500000000001 0.059649999999999995 -0.141625 0.10328749999999999 -0.03975 0.043637499999999996 -0.07025 0.09487499999999999 -0.089625 0.150625 -0.16799999999999998 0.36611249999999995 -0.454 0.6652750000000001 -0.8121250000000001 0.8495750000000001 -0.131375 0.0412 -0.27 0.0541125 -0.40662499999999996 0.037875 -0.13674999999999998 -0.0162375 -0.26837500000000003 -0.06125 -0.38649999999999995 -0.132075 -0.118 -0.070825 -0.21975 -0.16585 -0.298375 -0.278825 -0.078625 -0.11296250000000001 -0.1325 -0.241325 -0.157875 -0.3766 0.46225000000000005 -0.3248375 0.43725 -0.362325 0.46225000000000005 -0.8995625 0 -0.89955 -1.2493750000000001 -0.7246374999999999 -1.774125 -0.662175 -0.17675 0.016975 -0.352125 0.0462 -0.52475 0.0874625 -0.12566249999999998 0.024099999999999996 -0.23817499999999997 0.0932625 -0.3164 0.19449999999999998 -0.07823750000000002 0.10123750000000001 -0.116775 0.2275625 -0.10840000000000001 0.355225 0 0.43728749999999994 0.3748125 0.6247 0.662175 0.9120499999999999l0.125 0.11245c-0.075 0.1124375 -0.1375 0.24987499999999999 -0.21250000000000002 0.3873125 -0.074875 0.137425 0 0.137425 -0.074875 0.1624125 -0.1627125 0.1574 -0.362675 0.27092499999999997 -0.5811999999999999 0.329925 -0.218525 0.059 -0.44845 0.06155 -0.6682250000000001 0.007412500000000001 -0.2598 -0.053675 -0.50535 -0.1615375 -0.7206250000000001 -0.3165375 -0.2152875 -0.155 -0.3954625 -0.3536625 -0.5287625 -0.583025 -0.047275 -0.0822 -0.1222375 -0.144925 -0.2115 -0.17697500000000002 -0.08925000000000001 -0.0320375 -0.1869875 -0.0313 -0.2757625 0.0020625 -0.09648749999999999 0.0461375 -0.1712875 0.1279625 -0.20858749999999998 0.22820000000000001 -0.0373 0.1002375 -0.034187499999999996 0.21105 0.008687499999999999 0.3090375 0.1240625 0.367625 0.3222375 0.7058875 0.582275 0.9938875 0.260025 0.287875 0.576375 0.5195000000000001 0.929475 0.68025 0.4001125 0.177875 0.8383625 0.25275 1.2748125 0.21775 0.4364125 -0.034875 0.8571624999999999 -0.17850000000000002 1.2239125 -0.417625 0.103625 -0.069125 0.19625 -0.153375 0.27487500000000004 -0.24987499999999999 0.132375 0.088125 0.275 0.159375 0.424875 0.21237499999999998 0.33099999999999996 0.1445 0.6915 0.20850000000000002 1.052 0.18675s0.7106250000000001 -0.1285 1.021875 -0.311625c0.546125 -0.359125 0.9416249999999999 -0.90585 1.1119999999999999 -1.536775 0.021124999999999998 -0.05895 0.029625 -0.1216625 0.025 -0.18409999999999999 -0.0045 -0.0624375 -0.022000000000000002 -0.1232375 -0.051375 -0.1785125 -0.0295 -0.055275000000000005 -0.07012499999999999 -0.1038 -0.11925 -0.142475 -0.049249999999999995 -0.038675 -0.106 -0.06665 -0.16674999999999998 -0.08212499999999999Z" clip-rule="evenodd" stroke-width="1.25"></path>
  <path fill="#010101" fill-rule="evenodd" d="m19.2795 14.608375 -0.075 0.09987499999999999c-0.0665 0.073875 -0.10312500000000001 0.169875 -0.10275 0.269125 0.00037499999999999995 0.099375 0.03775 0.195125 0.10475 0.26837500000000003 0.06712499999999999 0.073375 0.159125 0.11900000000000001 0.258 0.12825 0.099 0.009125 0.19775 -0.01875 0.27725 -0.07849999999999999 0.6185 -0.56175 1.130625 -1.2305000000000001 1.5117500000000001 -1.974 0.384375 -0.725 0.6701250000000001 -1.4981749999999998 0.849625 -2.2988875 0.124875 -0.5872125 0.137375 -1.2493875 0.26225 -1.8240999999999998 0.053125000000000006 -0.3092375 0.172375 -0.6033375 0.349875 -0.862075 0.17850000000000002 -0.2481875 0.41424999999999995 -0.44963749999999997 0.687125 -0.5872125 0.2955 -0.13695000000000002 0.612625 -0.2215 0.937125 -0.24987499999999999 0.284625 -0.055874999999999994 0.572625 -0.09343749999999999 0.862 -0.11245 0.25375000000000003 -0.009975 0.507375 0.0238375 0.749625 0.09995000000000001 0.22625 0.061325 0.44437499999999996 0.1494 0.64975 0.262375 0.17562500000000003 0.09044999999999999 0.3325 0.2134 0.46225000000000005 0.362325 0.2975 0.34252499999999997 0.53025 0.7362124999999999 0.687125 1.161925 0.1635 0.3964625 0.19 0.8362 0.075 1.2493750000000001 -0.1435 0.397575 -0.3905 0.7496375 -0.715625 1.0197875 -0.325 0.27016249999999997 -0.7163750000000001 0.448625 -1.1335000000000002 0.5169625 -0.43962500000000004 0.0953875 -0.897 0.0702875 -1.3236249999999998 -0.07264999999999999 -0.426625 -0.1429375 -0.8066249999999999 -0.3984125 -1.100125 -0.7394499999999999 -0.0755 -0.0898 -0.183 -0.1465875 -0.299625 -0.15825 -0.11674999999999999 -0.011675 -0.233375 0.022699999999999998 -0.325125 0.095775 -0.0925 0.0758625 -0.152 0.18464999999999998 -0.166 0.303475 -0.014 0.11882500000000001 0.018625 0.23845000000000002 0.09112500000000001 0.33371249999999997 0.34099999999999997 0.419975 0.7775 0.7524124999999999 1.272875 0.9697875 0.49549999999999994 0.21725 1.035625 0.313125 1.575625 0.279625 0.019750000000000004 0.67625 -0.0475 1.3522500000000002 -0.19987499999999997 2.0115 -0.076625 0.35887500000000006 -0.172625 0.713375 -0.287375 1.062 -0.10425000000000001 0.34862499999999996 -0.229375 0.69075 -0.37475 1.0245 -0.325 0.795125 -0.83975 1.498625 -1.49925 2.049 -0.051375 0.03075 -0.09599999999999999 0.071375 -0.131375 0.119625 -0.035500000000000004 0.04825 -0.060875 0.10300000000000001 -0.074875 0.161125 -0.014 0.05825 -0.016125 0.118625 -0.0065 0.177625 0.009625 0.059 0.031 0.115625 0.06275 0.16625 0.066375 0.099 0.168375 0.168625 0.28475 0.19425 0.116375 0.025625000000000002 0.23825 0.0052499999999999995 0.34 -0.05675 1.353875 -0.702875 2.377125 -1.910125 2.848625 -3.360875 0.1475 -0.428 0.23987499999999998 -0.873 0.27475 -1.324375 0.0435 -0.797875 -0.05374999999999999 -1.5971250000000001 -0.28725 -2.361375 0.537625 -0.129625 1.0366250000000001 -0.38525 1.455875 -0.7459 0.41937500000000005 -0.360625 0.74675 -0.8158375 0.955375 -1.3280375 0.19137500000000002 -0.5323625 0.2345 -1.1066875 0.125 -1.661675 -0.147375 -0.7714875 -0.486875 -1.4933874999999999 -0.9871249999999999 -2.098975 -0.200375 -0.24225 -0.43624999999999997 -0.4528625 -0.6996249999999999 -0.6246875000000001 -0.34700000000000003 -0.218025 -0.72075 -0.3902 -1.111875 -0.51225 -0.32925000000000004 -0.0965375 -0.66925 -0.1511 -1.012 -0.1624125 -0.46212499999999995 0.0011375 -0.9228749999999999 0.051399999999999994 -1.374375 0.149925 -0.38150000000000006 0.08755 -0.75075 0.2218375 -1.0995000000000001 0.39980000000000004 -0.078375 -0.309825 -0.18712499999999999 -0.6111500000000001 -0.32475 -0.89955 -0.09962499999999999 -0.1434875 -0.21725 -0.27365 -0.349875 -0.3873125 0.13275 -0.920625 0.08612500000000001 -1.85825 -0.137375 -2.7611375 -0.169875 -0.687325 -0.5393749999999999 -1.308985 -1.062 -1.7866225 -0.35612499999999997 -0.28733624999999996 -0.789125 -0.463141875 -1.244875 -0.505371225 -0.455625 -0.0422294 -0.9135 0.050996475 -1.3163749999999999 0.26798872500000004 -0.897375 0.5626825 -1.65375 1.3234425 -2.211375 2.223905 -0.1565 0.2102875 -0.2905 0.4364125 -0.39987500000000004 0.6746625 -0.036375000000000005 0.10619999999999999 -0.065625 0.214725 -0.08750000000000001 0.3248375 -0.46825 -0.1719 -0.9485 -0.3096875 -1.43675 -0.41228750000000003 -0.34075 -0.03105 -0.683625 -0.03105 -1.0245 0 -0.345375 -0.0015625 -0.6896249999999999 0.0404125 -1.024475 0.12493749999999999 -0.24987499999999999 0 -0.48724999999999996 0.1624125 -0.7371375 0.24987499999999999 -0.1600625 -0.5976125 -0.4359875 -1.1579625 -0.8121 -1.6491875C10.222075 1.14388625 9.5405625 0.62197375 8.7596375 0.302895 8.2024625 0.09123362499999998 7.60215 0.018338125 7.0104999999999995 0.0904995 6.525612499999999 0.17206749999999998 6.0840375 0.4193475 5.761125 0.790155c-0.14626250000000002 0.17679250000000002 -0.27199999999999996 0.36959625 -0.374825 0.57472 -0.1064375 0.18505 -0.19032500000000002 0.3822 -0.24987499999999999 0.5872125 -0.06761249999999999 0.20646250000000002 -0.109575 0.4204625 -0.12493749999999999 0.6371749999999999 -0.0248 0.29517499999999997 -0.0248 0.5919 0 0.8870625 0.011475 0.3060125 0.06615 0.6088625000000001 0.16242499999999999 0.8995625 0.1071125 0.28504999999999997 0.2453875 0.5574 0.4123 0.8121 -0.9897875 1.004575 -1.62945 2.3014125 -1.8241125 3.698175l0 0.19990000000000002c-0.449775 0.13743750000000002 -0.862075 0.2873625 -1.2493750000000001 0.449775 -0.057975 0.0104 -0.11325 0.0324 -0.16251249999999998 0.064675 -0.0492625 0.0322875 -0.0915 0.0741875 -0.124175 0.1231875 -0.0326625 0.0490125 -0.0551 0.1041125 -0.06595000000000001 0.16199999999999998 -0.01085 0.057887499999999995 -0.009899999999999999 0.117375 0.0028125 0.1748875 0.02135 0.1152125 0.08683750000000001 0.21755 0.1825125 0.285225 0.0956625 0.067675 0.213975 0.095325 0.32972500000000005 0.0770875h1.174425c0.089675 0.5029375 0.24948749999999997 0.9907874999999999 0.4747625 1.4492875 -0.511 0.2997125 -0.9672875000000001 0.6841875 -1.349325 1.1369375 -0.09112500000000001 0.077875 -0.14758749999999998 0.18875 -0.15696249999999998 0.30825 -0.009375 0.11950000000000001 0.029112500000000003 0.237875 0.106975 0.32899999999999996 0.077875 0.09112500000000001 0.18875 0.1475 0.30825 0.156875 0.11950000000000001 0.009375 0.2378125 -0.029125 0.3289375 -0.107 0.24262499999999998 -0.1315 0.49296249999999997 -0.24837499999999998 0.7496375 -0.34975 0.2623625 -0.08750000000000001 0.5247375 -0.1375 0.7996000000000001 -0.224875h0.09995000000000001c0.2752125 0.294 0.5809625 0.55775 0.9120499999999999 0.787 -0.3248375 0.0625 -0.649675 0.125 -0.9620249999999999 0.21250000000000002 -0.384375 0.12387499999999999 -0.7565875 0.282875 -1.11195 0.47475 -1.0303 0.575875 -1.8654875000000002 1.44575 -2.3988125 2.4987500000000002 -0.50879 1.039625 -0.81009375 2.1685 -0.887065 3.323375 -0.0693175 1.067375 0.23066 2.126125 0.8495775 2.9985 0.548325 0.674 1.3036625 1.14825 2.1489374999999997 1.3493749999999998 0.15935000000000002 0.85425 0.5334 1.653875 1.086975 2.32375 1.305425 1.3907500000000002 3.0297 2.3165 4.910075 2.63625 0.4123625 0.08462499999999999 0.82965 0.14300000000000002 1.2493875 0.174875 0.5747125 0 1.161925 0 1.7365875 0.075 2.604625 0.140375 5.2059999999999995 -0.33025 7.5962499999999995 -1.37425 0.84175 -0.37 1.597375 -0.911 2.219 -1.5883749999999999 0.6214999999999999 -0.6775 1.0955 -1.476875 1.39175 -2.34725 0.10187500000000001 -0.33425000000000005 0.173 -0.6772499999999999 0.21237499999999998 -1.0245 0.05025 -0.36475 0.05025 -0.734625 0 -1.0995000000000001 -0.08325 -0.48325 -0.21725 -0.9565 -0.39974999999999994 -1.41175 -0.188125 -0.428375 -0.400875 -0.845625 -0.6372500000000001 -1.2493750000000001 -0.32425000000000004 -0.569875 -0.6875 -1.11675 -1.086875 -1.63675 -0.4055 -0.530375 -0.86625 -1.016125 -1.374375 -1.44925 -0.09275 -0.08775 -0.216625 -0.135125 -0.34437500000000004 -0.131625 -0.127625 0.0035 -0.24875000000000003 0.057625 -0.3365 0.150375 -0.08787500000000001 0.09275 -0.135125 0.216625 -0.131625 0.34437500000000004 0.0035 0.127625 0.057625 0.24875000000000003 0.150375 0.3365 0.433125 0.37137499999999996 0.822875 0.7905 1.161875 1.2493750000000001 0.352125 0.500625 0.673375 1.022125 0.962 1.56175 0.19675 0.375375 0.367875 0.7635000000000001 0.51225 1.162 0.153375 0.40175000000000005 0.254125 0.82175 0.299875 1.2493750000000001 0.0375 0.261 0.0375 0.526 0 0.7871250000000001 -0.0415 0.272125 -0.108375 0.539875 -0.19987499999999997 0.7994999999999999 -0.27275 0.691625 -0.6855 1.3193750000000002 -1.21225 1.8438750000000002 -0.526625 0.524625 -1.156125 0.93475 -1.8487500000000001 1.204625 -2.194375 0.9013749999999999 -4.567875 1.282 -6.934125 1.1119999999999999 -0.562175 0 -1.1243875 0 -1.6741249999999999 -0.0625 -0.35655 -0.029750000000000002 -0.711125 -0.07974999999999999 -1.061975 -0.149875 -1.3128375 -0.216625 -2.5550125 -0.743375 -3.6232124999999997 -1.53675 -0.502525 -0.376625 -0.90765 -0.868 -1.1815 -1.433125 -0.2738625 -0.5650000000000001 -0.408525 -1.1875 -0.392725 -1.8152499999999998 0.0032875 -0.530875 0.0704 -1.059375 0.19990000000000002 -1.5742500000000001 0.12291250000000001 -0.525375 0.2900875 -1.0395 0.49974999999999997 -1.53675 0.33349999999999996 -0.8106249999999999 0.726025 -1.595625 1.174425 -2.348875 0.3163875 -0.54375 0.7028375 -1.043625 1.1494375 -1.48675 0.07400000000000001 -0.074875 0.1155125 -0.175875 0.1155125 -0.28112499999999996s-0.04151250000000001 -0.20625000000000002 -0.1155125 -0.28112499999999996c-0.0589375 -0.052125000000000005 -0.133775 -0.083 -0.21239999999999998 -0.08737500000000001 -0.7414375 0.32675000000000004 -1.346425 0.900875 -1.7116500000000001 1.6241249999999998 -0.5129874999999999 0.799375 -0.9681 1.6345 -1.3618375 2.4987500000000002 -0.2537625 0.54575 -0.4667375 1.1095 -0.6371749999999999 1.68675 -0.16325 0.591625 -0.26375 1.198875 -0.2998625 1.811625 -0.006449999999999999 0.1165 -0.006449999999999999 0.23324999999999999 0 0.34975 -0.43241250000000003 -0.2385 -0.797675 -0.5822499999999999 -1.061975 -0.9994999999999999 -0.35735000000000006 -0.692 -0.47176250000000003 -1.484 -0.3248375 -2.248875 0.08912500000000001 -0.95775 0.3338875 -1.894625 0.7246374999999999 -2.773625 0.3578 -0.8623749999999999 0.9402375000000001 -1.613125 1.686675 -2.1738750000000002 0.267625 -0.19175 0.5569999999999999 -0.35112499999999996 0.862075 -0.47475 0.48724999999999996 -0.20199999999999999 0.988275 -0.369 1.4992625000000002 -0.49987499999999996 0.22065 -0.291625 0.41703749999999995 -0.60075 0.5872125 -0.9245000000000001 0.1167625 -0.17875 0.25998750000000004 -0.33887500000000004 0.42478750000000004 -0.47475l-0.49974999999999997 -0.21237499999999998c-0.283225 -0.1625 -0.5508875 -0.35075 -0.7996125 -0.5622375000000001 0.2587375 -0.11965 0.526 -0.219875 0.7996125 -0.2998625 0.10395 -0.01255 0.1988375 -0.0653875 0.26425 -0.1471625 0.065425 -0.08176249999999999 0.09615 -0.18593749999999998 0.08557499999999998 -0.2901125 -0.0031125 -0.052050000000000006 -0.0167 -0.10292499999999999 -0.0399375 -0.14958749999999998 -0.02325 -0.0466625 -0.055675 -0.08816249999999999 -0.0953375 -0.1219875 -0.039674999999999995 -0.0338375 -0.0857625 -0.0593125 -0.1355 -0.0749 -0.04975 -0.0156 -0.1021375 -0.0209875 -0.1540125 -0.01585 -0.568075 -0.0752 -1.1435875 -0.0752 -1.7116624999999999 0 -0.19293749999999998 -0.32537499999999997 -0.34404999999999997 -0.6737875 -0.449775 -1.0369875h0.09995000000000001c0.39980000000000004 -0.13743750000000002 0.8870625 -0.362325 1.32435 -0.362325 0.10495000000000002 -0.0063750000000000005 0.2035125 -0.052612500000000006 0.2755125 -0.12925 0.07198750000000001 -0.0766375 0.1119875 -0.17788749999999998 0.1117875 -0.28305 0.0000375 -0.051925 -0.0103875 -0.1033375 -0.030625 -0.15115 -0.0202375 -0.047825000000000006 -0.0498875 -0.0911 -0.0871875 -0.127225 -0.0373 -0.0361375 -0.08148749999999999 -0.0644 -0.129925 -0.08311249999999999 -0.04845000000000001 -0.0187125 -0.10016250000000002 -0.027487499999999998 -0.1520625 -0.025812500000000002 -0.492175 -0.1237 -0.993575 -0.207275 -1.4992625000000002 -0.2498875h-0.1749125c0.0477875 -0.8884625 0.2977125 -1.7543 0.7307375 -2.5315749999999997 0.433025 -0.777275 1.0377125 -1.445475 1.7680375000000002 -1.9537125 0.0454875 -0.026787500000000002 0.08502499999999999 -0.0626 0.116175 -0.10522500000000001 0.03115 -0.0426375 0.05325 -0.0911875 0.06495 -0.1426625 0.0117 -0.0514875 0.012750000000000001 -0.104825 0.0030875 -0.156725 -0.0096625 -0.0519 -0.0298375 -0.1012875 -0.059274999999999994 -0.1451125 -0.049625 -0.082875 -0.127575 -0.1449875 -0.21944999999999998 -0.17485 -0.0918625 -0.029849999999999998 -0.1914375 -0.025437500000000002 -0.2803125 0.0124375 -0.349325 0.21725 -0.6795249999999999 0.46385000000000004 -0.9870125000000001 0.737125 -0.032375 -0.0808875 -0.0574625 -0.1645125 -0.0749625 -0.24987499999999999 -0.05015 -0.2515625 -0.05015 -0.5105500000000001 0 -0.762125 0.0266 -0.1935375 0.0641375 -0.3854125 0.11245 -0.5747125 0.044425000000000006 -0.1370125 0.0987125 -0.270625 0.1624125 -0.39980000000000004l0.51225 -0.6996625c0.0739875 -0.072275 0.1621375 -0.12845 0.2589 -0.165 0.09675 -0.03655 0.200025 -0.0526875 0.30332499999999996 -0.0473875 0.3125 -0.0207875 0.6261375 0.01735 0.92455 0.1124375 0.5509 0.138175 1.058 0.4132125 1.4742625 0.7996125 0.3625 0.3540375 0.6475375 0.779475 0.8370875 1.2493875 -0.1874 0.09995000000000001 -0.3873 0.19990000000000002 -0.5872 0.3248375 -0.047375 0.021437499999999998 -0.08995 0.052187500000000005 -0.1251875 0.0904375 -0.035225 0.0382375 -0.0624 0.0831875 -0.0798875 0.13215 -0.0174875 0.048975 -0.024937499999999998 0.1009625 -0.021900000000000003 0.152875 0.003025 0.0519125 0.016487500000000002 0.102675 0.0395625 0.149275 0.043637499999999996 0.0956 0.12316250000000001 0.1701625 0.22137500000000002 0.207575 0.09820000000000001 0.0374125 0.207175 0.0346625 0.3033625 -0.0076749999999999995 0.5754250000000001 -0.1556 1.16615 -0.24777500000000002 1.7616375 -0.2748625h1.6116625c0.8318749999999999 -0.059575 1.6669999999999998 -0.059575 2.4987500000000002 0 0.11237499999999999 0.0171 0.226875 -0.0089 0.32075 -0.07278749999999999 0.094 -0.0638875 0.16025 -0.16092499999999998 0.1855 -0.2716375 0.025249999999999998 -0.11071249999999999 0.00775 -0.2269 -0.049 -0.32523749999999996 -0.056874999999999995 -0.098325 -0.14875 -0.17153749999999998 -0.25725000000000003 -0.2049125 0.03675 -0.077525 0.07849999999999999 -0.15265 0.124875 -0.2248875 0.09825 -0.125525 0.207 -0.24255 0.324875 -0.349825 0.52675 -0.4901125 1.114625 -0.9100625 1.749125 -1.2493875 0.46225000000000005 -0.24987499999999999 0.9495 -0.449775 1.374375 -0.09995000000000001 0.462375 0.3324625 0.7973750000000001 0.8129375 0.9495 1.3618375 0.121125 0.4079875 0.20475 0.8261875000000001 0.24987499999999999 1.2493750000000001 -0.336375 -0.08765 -0.678875 -0.15028750000000002 -1.0245 -0.1874 -0.049375 -0.0259625 -0.103625 -0.0413125 -0.159375 -0.0450375 -0.055624999999999994 -0.0037375 -0.1115 0.0042250000000000005 -0.163875 0.023362499999999998 -0.052375 0.01915 -0.10024999999999999 0.0490375 -0.140375 0.087775 -0.040124999999999994 0.0387375 -0.07175 0.0854375 -0.09275 0.137125 -0.020999999999999998 0.051675 -0.031 0.1071875 -0.029375 0.16295 0.00175 0.05576249999999999 0.015125 0.11056250000000001 0.03924999999999999 0.16085 0.02425 0.0502875 0.058625 0.09496249999999999 0.10112499999999999 0.13115 0.0425 0.036175 0.092 0.06307499999999999 0.14550000000000002 0.0789625l0.5622499999999999 0.42478750000000004c0.148625 0.1216125 0.28275 0.25995 0.39974999999999994 0.4123l1.062 1.2493750000000001c-0.174 0.18246249999999997 -0.33275 0.37886250000000005 -0.47475 0.5872125 -0.19724999999999998 0.3366875 -0.33662499999999995 0.704125 -0.41225 1.0869624999999998 -0.012125 0.14135 -0.012125 0.28345 0 0.42479999999999996 -0.08099999999999999 -0.0540625 -0.169375 -0.09613750000000001 -0.262375 -0.12494999999999999 -0.09912499999999999 -0.0180375 -0.20074999999999998 -0.0180375 -0.299875 0 -0.11249999999999999 0 -1.1495 0.0999625 -1.2493750000000001 0.43728749999999994 -0.1 0.3373375 0.8121250000000001 0.9495375 0.837 0.9620249999999999 0.072625 0.049925000000000004 0.15275 0.0878875 0.237375 0.11245 0.0955 0.0122875 0.19199999999999998 0.0122875 0.287375 0 0.1205 0.012812500000000001 0.241875 0.012812500000000001 0.362375 0v0.462275c-0.07974999999999999 0.3716875 -0.179875 0.738725 -0.299875 1.09945 -0.07012499999999999 -0.130425 -0.14937499999999998 -0.2556875 -0.237375 -0.3748125 -0.05875 -0.068275 -0.131125 -0.1235875 -0.21237499999999998 -0.16242499999999999 -0.055125 -0.095775 -0.13225 -0.17712499999999998 -0.224875 -0.237375 -0.11249999999999999 0 -1.037 0 -1.162 0.28735 0 0 -0.224875 0.2498875 0.53725 1.037025 0.045625 0.048375 0.10099999999999999 0.08675000000000001 0.1625 0.11237499999999999 0.237375 0.08750000000000001 0.46225000000000005 0 0.712125 0.08750000000000001h0.174875c-0.130625 0.29075 -0.276625 0.5742499999999999 -0.43725 0.849625l-0.712125 0.987Z" clip-rule="evenodd" stroke-width="1.25"></path>
  <path fill="#222222" fill-rule="evenodd" d="M19.054625 14.083625c-0.05374999999999999 -0.08175 -0.13475 -0.141625 -0.22862500000000002 -0.169125 -0.093875 -0.027375 -0.194375 -0.020625 -0.283625 0.019125 -1.650375 0.68425 -3.4463749999999997 0.9420000000000001 -5.2225 0.749625 -1.4584375 -0.072125 -2.8943999999999996 -0.38887499999999997 -4.2478625 -0.937 -1.2493875 0.174875 -1.586725 1.1244999999999998 -0.7496375 1.2493750000000001 1.082525 0.41075 2.2111625 0.687625 3.36085 0.8246249999999999 -0.0749625 0.08750000000000001 -0.174925 0.174875 -0.2498875 0.27487500000000004 -0.1360125 0.201125 -0.25312500000000004 0.41437500000000005 -0.349825 0.637125 -0.0604625 0.169875 -0.10235 0.345875 -0.12493749999999999 0.52475 -0.01835 0.22762500000000002 0.0070875 0.456625 0.0749625 0.67475 0.0845875 0.295875 0.2198625 0.574875 0.39980000000000004 0.8245 0.2272 0.2945 0.5113 0.54025 0.8354 0.72275 0.32413749999999997 0.182375 0.6816374999999999 0.29775 1.0511375 0.33924999999999994 0.739125 0.09849999999999999 1.488375 -0.084375 2.099 -0.51225 0.5589999999999999 -0.41125 0.9425 -1.017875 1.0745 -1.699125 0.072375 -0.350125 0.054125 -0.7130000000000001 -0.053 -1.0539999999999998 -0.107125 -0.34112499999999996 -0.299625 -0.64925 -0.55925 -0.895l-0.09987499999999999 -0.075c0.90875 -0.05175 1.8031249999999999 -0.25 2.648625 -0.58725 0.53725 -0.34975 0.749625 -0.624625 0.62475 -0.912Zm-3.8106250000000004 3.323375c-0.121625 0.32862500000000006 -0.356375 0.60325 -0.66225 0.774625 -0.324125 0.18925 -0.702625 0.264 -1.074375 0.21237499999999998 -0.372 -0.018125000000000002 -0.7237499999999999 -0.174 -0.9871249999999999 -0.43737499999999996 -0.09242500000000001 -0.0885 -0.17229999999999998 -0.1895 -0.237325 -0.29975 -0.0554375 -0.08325 -0.09367500000000001 -0.17675 -0.11245 -0.27487500000000004 -0.0128625 -0.09537500000000002 -0.0128625 -0.19199999999999998 0 -0.287375 0.0341 -0.12325 0.075825 -0.24425 0.12493749999999999 -0.362375 0.101425 -0.203125 0.22283750000000002 -0.395625 0.36233750000000003 -0.5746249999999999 0.05475 -0.06975 0.113125 -0.1365 0.174875 -0.2h0.43725c0.299875 0 0.59975 -0.08737500000000001 0.899625 -0.11237499999999999 0.174875 0.065625 0.342375 0.14937499999999998 0.49974999999999997 0.24987499999999999 0.13974999999999999 0.07974999999999999 0.26275 0.185875 0.362375 0.312375 0.12312500000000001 0.131375 0.208125 0.293875 0.2455 0.470125 0.0375 0.176125 0.026 0.35924999999999996 -0.033125 0.5293749999999999Z" clip-rule="evenodd" stroke-width="1.25"></path>
</svg>