<svg xmlns="http://www.w3.org/2000/svg" fill="none" viewBox="0 0 30 30" id="Design-Tool-Magic-Wand--Streamline-Freehand" height="30" width="30">
  <desc>
    Design Tool Magic Wand Streamline Icon: https://streamlinehq.com
  </desc>
  <path fill="#010101" fill-rule="evenodd" d="M23.09175 11.9389375c0 -0.16297499999999998 0 -0.38864999999999994 0.08775 -0.4889375 0.188 -0.9402625 0.6769999999999999 -1.9682875 0.977875 -2.983775 0.300875 -1.0154874999999999 0 -2.2691749999999997 -1.25375 -2.2315750000000003l-4.814125000000001 1.2035500000000001c-1.7927499999999998 -0.9653499999999999 -3.222 -3.1216875 -5.253 -2.8333375 -0.187875 -0.0056749999999999995 -0.373925 0.038474999999999995 -0.5392625 0.12795 -0.16535 0.089475 -0.304075 0.22110000000000002 -0.4021 0.381525 -0.0980375 0.1604125 -0.1518875 0.34391249999999995 -0.1560875 0.5318625 -0.004200000000000001 0.18795 0.04139999999999999 0.373675 0.13216250000000002 0.5383125 0.7736624999999999 1.194775 1.4446625 2.452975 2.0059125 3.7610624999999995l0.07525 0.213125c-0.26325 0.075225 -0.526625 0.2005875 -0.6519999999999999 0.213125 -2.2942 0.42625 -5.0147125 0.76475 -5.215300000000001 1.9181500000000002 -0.0877625 0.4889 0.37611249999999996 1.1534 1.4166750000000001 1.529525l1.1533875 0.33849999999999997c1.5472875 0.149 3.0759874999999997 0.45137499999999997 4.5634875 0.902625 0 0.1755 0 -0.26325 0.1755 1.253625 -0.73975 0.22575 -12.198437499999999 11.5215 -12.3238 11.63425 -0.52655 0.45137499999999997 -0.9402625 0.6393749999999999 -1.2536875 0.514 -1.1032487500000001 -0.413625 0 -1.542 0.47640000000000005 -2.056 2.507375 -2.9712499999999995 8.9513375 -9.690999999999999 10.3178375 -10.907125 0.0765 -0.06475 0.124125 -0.15737500000000001 0.13225 -0.25725000000000003 0.00825 -0.1 -0.0235 -0.199 -0.088375 -0.2755 -0.064875 -0.0765 -0.15737500000000001 -0.124125 -0.2573 -0.132375 -0.099925 -0.008125 -0.199025 0.023625 -0.2755 0.0885 -1.2536875 1.0405 -11.721982500000001 10.606124999999999 -12.060478875000001 12.223375C-0.38985625 29.415374999999997 1.7163375 31.020125 4.0105875 29.05175c9.4527875 -9.854000000000001 6.9329 -7.283875 11.5089125 -11.722 0.31337499999999996 2.507375 0.413625 3.7611250000000003 1.253625 3.999375 0.8400000000000001 0.238125 1.404125 -0.72725 1.76775 -1.25375 1.7551249999999998 -2.5700000000000003 1.45425 -3.1091249999999997 1.592125 -4.0995 0.30775 0.1245 0.6214999999999999 0.23324999999999999 0.94025 0.32587499999999997 1.1861249999999999 0.712 2.52025 1.141 3.899 1.25375 1.0030000000000001 0 2.0435 -0.300875 1.7802499999999999 -1.25375 -0.137875 -0.551625 -0.8023750000000001 -1.0906250000000002 -3.6607499999999997 -4.3628125Zm-2.8834999999999997 2.5074375c-0.6769999999999999 -0.21325 -1.040625 0.338375 -1.165875 1.0405 -0.08787500000000001 0.5015000000000001 0 1.128375 -0.138 1.504375 -0.45125 1.181375 -1.0630000000000002 2.295125 -1.817875 3.30975 -0.3635 -0.915125 -0.238125 -0.32587499999999997 -0.9276249999999999 -5.01475 -0.01725 -0.207 -0.050749999999999997 -0.41250000000000003 -0.10037499999999999 -0.61425 -0.33849999999999997 -0.789875 -4.8266625 -1.3539999999999999 -5.2153125 -1.4417499999999999l-1.0154874999999999 -0.33849999999999997c-0.285125 -0.10425000000000001 -0.5455375 -0.26637500000000003 -0.76475 -0.4764125 0.11283750000000001 0 0.21313749999999998 -0.1504375 0.47640000000000005 -0.23820000000000002 1.2953875000000001 -0.3505875 2.6155749999999998 -0.6020625000000001 3.9491500000000004 -0.7522125000000001 0.539 -0.0877625 1.416625 0 1.8428749999999998 -0.4387875 0.42625 -0.4388 -0.288375 -1.3539875000000001 -0.288375 -1.6298000000000001 -0.383125 -1.1543125 -0.9139999999999999 -2.2541625 -1.579625 -3.272125 1.25375 -0.075225 3.334875 2.77065 4.6762500000000005 2.745575 1.368875 -0.2351375 2.724625 -0.5406124999999999 4.062 -0.9151874999999999l0.651875 -0.1629875c0 0.62685 -0.990375 2.845875 -1.253625 4.0118125 -0.26325 1.16595 1.567125 1.2537 3.41 4.40045 -1.9181249999999999 0.050124999999999996 -4.124625 -1.504375 -4.801625 -1.7175000000000002Z" clip-rule="evenodd" stroke-width="1.25"></path>
  <path fill="#222222" fill-rule="evenodd" d="M18.804125 3.276c0.017374999999999998 0.10208750000000001 0.07037500000000001 0.19471249999999998 0.1495 0.2614875 0.079125 0.066775 0.17937499999999998 0.1034 0.283 0.1034 0.1035 0 0.20375000000000001 -0.036625 0.282875 -0.1034 0.07925 -0.066775 0.132125 -0.1594 0.149625 -0.2614875 0 -0.1379 0.814875 -2.745575 -0.5265 -3.18436575 -0.9528749999999999 -0.3384955 -0.5391250000000001 2.19395325 -0.33849999999999997 3.18436575Z" clip-rule="evenodd" stroke-width="1.25"></path>
  <path fill="#222222" fill-rule="evenodd" d="M8.975325 8.1529125c0.0798 0.08146250000000001 0.1886875 0.1278875 0.3027125 0.1290625 0.11403750000000001 0.001175 0.2238625 -0.0429875 0.305325 -0.1227875 0.08146250000000001 -0.0798 0.1278875 -0.1887 0.1290625 -0.302725 0.001175 -0.11402499999999999 -0.043 -0.22385 -0.12279999999999999 -0.3053125 -0.2233 -0.3375875 -0.4982875 -0.6379625 -0.8149000000000001 -0.8901249999999999 -0.6184625 -0.4416875 -1.3478375 -0.702175 -2.1061875 -0.7522125000000001 -0.075225 0 -0.33849999999999997 0.33849999999999997 0 0.7396750000000001 1.2913 1.554575 1.7426249999999999 1.1534 2.3067875 1.5044250000000001Z" clip-rule="evenodd" stroke-width="1.25"></path>
  <path fill="#222222" fill-rule="evenodd" d="M21.3115 18.64625c-0.08987500000000001 0.043625 -0.16025 0.119125 -0.19724999999999998 0.211875 -0.037125 0.09275 -0.03825 0.196 -0.00325 0.28962499999999997 0.1755 1.5545 2.33175 2.29425 2.64525 1.98075 0.04125 -0.03975 0.074125 -0.08737500000000001 0.09662499999999999 -0.14024999999999999 0.0225 -0.052750000000000005 0.033999999999999996 -0.1095 0.033999999999999996 -0.166875 0 -0.057375 -0.0115 -0.114125 -0.033999999999999996 -0.166875s-0.055375 -0.1005 -0.09662499999999999 -0.14024999999999999c-0.5575 -0.902 -1.4278750000000002 -1.567125 -2.44475 -1.8679999999999999Z" clip-rule="evenodd" stroke-width="1.25"></path>
  <path fill="#222222" fill-rule="evenodd" d="M29.573375 10.3844c-0.76475 0 -2.507375 -0.7396750000000001 -3.8237500000000004 0.5892375 -0.041999999999999996 0.0263375 -0.078375 0.060687500000000005 -0.107 0.1011 -0.028749999999999998 0.040400000000000005 -0.049249999999999995 0.08606249999999999 -0.06025 0.134375 -0.011125 0.048312499999999994 -0.0125 0.098325 -0.0042499999999999994 0.1471875 0.00825 0.048875 0.026125 0.09563749999999999 0.052375 0.1376125 0.026375000000000003 0.041987500000000004 0.06075 0.0783625 0.10112499999999999 0.107075 0.040375 0.028700000000000003 0.08612500000000001 0.049174999999999996 0.134375 0.0602375 0.048375 0.01105 0.098375 0.0124875 0.14725 0.0042125 0.048875 -0.0082625 0.095625 -0.026075 0.137625 -0.052425 1.214625 0.09003749999999999 2.4354999999999998 -0.0503375 3.598 -0.4137125 0.089 -0.0400625 0.1615 -0.1094125 0.205375 -0.19647499999999998 0.044000000000000004 -0.0870625 0.056874999999999995 -0.186575 0.036250000000000004 -0.281925 -0.0205 -0.09535 -0.07312500000000001 -0.180775 -0.149 -0.24201250000000002 -0.076 -0.0612375 -0.17062500000000003 -0.0945875 -0.268125 -0.0944875Z" clip-rule="evenodd" stroke-width="1.25"></path>
</svg>