<svg xmlns="http://www.w3.org/2000/svg" fill="none" viewBox="0 0 30 30" id="Video-Game-Mario-Mushroom-1--Streamline-Freehand" height="30" width="30">
  <desc>
    Video Game Mario Mushroom 1 Streamline Icon: https://streamlinehq.com
  </desc>
  <path fill="#9f353a" fill-rule="evenodd" d="M5.6493875000000005 14.788499999999999c0.52905 -0.643625 0.8667125 -1.4228750000000001 0.974525 -2.2489999999999997 0.08473750000000001 -0.8222 -0.0715375 -1.651325 -0.4497875 -2.3863000000000003 -0.19477499999999998 -0.3781375 -0.4525 -0.7203625 -0.762125 -1.0120125 -0.3192 -0.28271250000000003 -0.66195 -0.5376875 -1.0245 -0.762125 -0.52475 0.09995000000000001 -0.7496375 0.31235 -0.51225 0.6996625 0.2220625 0.1760625 0.42703749999999996 0.37267500000000003 0.6122 0.5872125 0.2394625 0.27907499999999996 0.4143625 0.6075625 0.51225 0.9620375000000001 0.14024999999999999 0.4437125 0.1912 0.9108125 0.149925 1.3743250000000002 -0.048737499999999996 0.6883250000000001 -0.28652500000000003 1.349825 -0.6871625000000001 1.911575 -0.7100375000000001 1.047 -1.775225 1.8015 -2.99855 2.124 -0.26237125 0.38725000000000004 -0.34982874999999997 0.712125 0.0874625 0.8371249999999999h0.1124375c1.547425 -0.15712500000000001 2.974825 -0.904375 3.985575 -2.0865Z" clip-rule="evenodd" stroke-width="1.25"></path>
  <path fill="#9f353a" fill-rule="evenodd" d="M21.878999999999998 10.915412499999999c0.3225 0.7512625 0.8245 1.4119375 1.4617499999999999 1.9240875 0.746 0.552 1.5959999999999999 0.94725 2.4987500000000002 1.161875 0.818375 0.195125 1.65775 0.28750000000000003 2.498875 0.27487500000000004 0.299875 -0.324875 0.174875 -0.637125 -0.21237499999999998 -0.937 -0.6645 -0.076875 -1.31825 -0.22775 -1.949125 -0.44975 -0.6998749999999999 -0.25225000000000003 -1.3415 -0.6431874999999999 -1.886625 -1.1494875 -0.43424999999999997 -0.402675 -0.779125 -0.8921999999999999 -1.012 -1.4368125 -0.25475000000000003 -0.5637875 -0.42725 -1.1612749999999998 -0.51225 -1.7741375000000001 -0.133625 -0.9998125 0.000125 -2.017175 0.387375 -2.9485625 0.149875 -0.6247 -0.1 -0.7996125 -0.6872499999999999 -0.5997125 -0.724125 1.0763125 -1.095375 2.3513875 -1.0618750000000001 3.648225 0.009375 0.7856000000000001 0.17062500000000003 1.561975 0.47475 2.2864Z" clip-rule="evenodd" stroke-width="1.25"></path>
  <path fill="#010101" fill-rule="evenodd" d="M29.987625 15.5755c-0.07475 -1.515 -0.32637499999999997 -3.016125 -0.749625 -4.4728125 -0.875 -2.998875 -2.7597500000000004 -5.6030875 -5.335 -7.371425 -2.518125 -1.75675 -5.45975 -2.80917625 -8.520875 -3.04852125C11.923675 0.54043875 8.5439875 1.7401125 5.9492375 4.0311125 3.3630875 6.2025875 1.4514125 9.0679375 0.4394075 12.2896125 -0.20479375 14.51125 -0.13927625000000002 16.878625 0.6268162500000001 19.061375c0.33993375 1.0735000000000001 0.95458375 2.0395 1.78300875 2.8021249999999998 0.828425 0.762625 1.841825 1.2955 2.9397 1.54575 0.0259 0.989375 0.300925 1.9562499999999998 0.7996125 2.8111249999999997 0.9197624999999999 1.370875 2.3269124999999997 2.34025 3.9356 2.711125 2.2520625 0.43225 4.5575125 0.512375 6.834137500000001 0.237375 1.1600000000000001 -0.06924999999999999 2.3021249999999998 -0.317875 3.385875 -0.737125 0.7551249999999999 -0.31325 1.436125 -0.7815 1.9989999999999999 -1.37425 0.78075 -0.891125 1.3225 -1.965875 1.5742500000000001 -3.1235 0.08474999999999999 -0.35874999999999996 0.1515 -0.7216250000000001 0.2 -1.087 1.1675 -0.0036249999999999998 2.307375 -0.35612499999999997 3.273375 -1.012 1.104875 -0.738 1.917875 -1.8381249999999998 2.298875 -3.1109999999999998 0.275875 -1.0255 0.38975000000000004 -2.087875 0.337375 -3.1485000000000003Zm-7.184 8.046125c-0.2435 0.9395 -0.7255 1.80025 -1.399375 2.4987500000000002 -0.46399999999999997 0.42974999999999997 -1.007125 0.765 -1.59925 0.987 -0.958875 0.3245 -1.9615 0.5015000000000001 -2.9735 0.52475 -2.128875 0.258125 -4.284 0.20337500000000003 -6.3969375 -0.162375 -1.3073000000000001 -0.239625 -2.481075 -0.9510000000000001 -3.2984 -1.9989999999999999 -0.4533625 -0.7008749999999999 -0.723975 -1.5041250000000002 -0.7871250000000001 -2.336375 -0.11624999999999999 -1.356625 -0.09113750000000001 -2.7216249999999995 0.074975 -4.073 1.64525 -1.250375 3.55615 -2.105375 5.5847875 -2.498875 1.803825 -0.38649999999999995 3.6639500000000003 -0.433125 5.484825 -0.137375 2.1251249999999997 0.309 4.111625 1.23925 5.70975 2.6737499999999996l0.075 0c0.0925 1.52425 -0.07225 3.0531249999999996 -0.48724999999999996 4.52275h0.0125Zm5.834625 -5.234999999999999c-0.281375 1.06825 -0.932 2.00225 -1.8366250000000002 2.63625 -0.7721250000000001 0.5413749999999999 -1.6817499999999999 0.85325 -2.6237500000000002 0.899625 0.06175 -1.0037500000000001 0.040875 -2.010875 -0.0625 -3.011125 -1.6145 -2.0044999999999997 -3.8838749999999997 -3.3758749999999997 -6.409375000000001 -3.873125 -0.9925 -0.21625 -2.008125 -0.30862500000000004 -3.0235000000000003 -0.27487500000000004 -1.013375 0.026375000000000003 -2.019875 0.17312500000000003 -2.9985375 0.43737499999999996 -2.28085 0.62775 -4.3572375 1.842625 -6.0220875 3.52325 -0.199925 1.29025 -0.312625 2.592625 -0.3373375 3.8981250000000003 -0.8956999999999999 -0.27875 -1.7076375 -0.7767499999999999 -2.362175 -1.448625 -0.654525 -0.6719999999999999 -1.1309375000000002 -1.49675 -1.3860000000000001 -2.3994999999999997 -0.59087125 -1.989375 -0.59087125 -4.107625 0 -6.097125 1.0544 -2.9356 2.8904125 -5.5276125 5.309925 -7.4963125C9.2098125 3.1588875 12.2171125 2.0998625 15.294749999999999 2.2195c4.922625 0.3373375 11.082125000000001 3.61075 12.76875 9.2580125 0.423375 1.3617375 0.6998749999999999 2.7648625 0.8246249999999999 4.185487500000001 0.047875 0.915875 -0.040499999999999994 1.8337500000000002 -0.262375 2.723625h0.0125Z" clip-rule="evenodd" stroke-width="1.25"></path>
  <path fill="#9f353a" fill-rule="evenodd" d="M12.1087875 4.1935625h-0.149925c-0.410325 0.095125 -0.8055374999999999 0.246475 -1.174425 0.449775 -0.552675 0.34099999999999997 -0.98845 0.8421375 -1.2494 1.4368125 -0.241925 0.46271249999999997 -0.3502 0.9836625 -0.3126875 1.5044499999999998 0.037525 0.5208 0.2193375 1.02085 0.5250875 1.4441125 0.31627500000000003 0.41612499999999997 0.7374749999999999 0.7406999999999999 1.22045 0.9404750000000001 0.4829875 0.1997875 1.0104 0.26758750000000003 1.5282125 0.19647499999999998 0.617275 -0.082775 1.20265 -0.3238 1.6991500000000002 -0.6996625 0.5221250000000001 -0.386125 0.907375 -0.9289000000000001 1.0995000000000001 -1.54925 0.13575 -0.47836249999999997 0.1545 -0.9823999999999999 0.0545 -1.4695125 -0.100125 -0.48711249999999995 -0.31587499999999996 -0.9429875 -0.62925 -1.329125 -0.305625 -0.3823625 -0.712125 -0.6715875 -1.173625 -0.8349624999999999 -0.46149999999999997 -0.1633875 -0.959375 -0.19442500000000001 -1.4375874999999998 -0.0895875Zm1.9240875 3.2859c-0.150625 0.3183875 -0.38899999999999996 0.5871375 -0.687125 0.774625 -0.297 0.24052500000000002 -0.649125 0.40364999999999995 -1.0245625 0.474775 -0.26537499999999997 0.039212500000000004 -0.5363625000000001 0.0104875 -0.7876375 -0.0834625 -0.251275 -0.09395 -0.47461250000000005 -0.250075 -0.6491625 -0.45377500000000004 -0.180825 -0.21466249999999998 -0.30246249999999997 -0.472825 -0.35286249999999997 -0.7489374999999999 -0.0504 -0.2761125 -0.027825 -0.5606 0.0655 -0.8253 0.125325 -0.4172625 0.37886250000000005 -0.7844625 0.72465 -1.0495 0.252475 -0.18455 0.5301875 -0.3318125 0.8246 -0.43728749999999994h0.12493749999999999c0.3030375 -0.0445125 0.6125375000000001 -0.0010624999999999999 0.8915375000000001 0.1251875 0.279125 0.1262375 0.516 0.329975 0.68275 0.586975 0.15375 0.2405125 0.250625 0.513 0.283125 0.79665 0.0325 0.2836625 -0.00025 0.5709875 -0.09575 0.84005Z" clip-rule="evenodd" stroke-width="1.25"></path>
  <path fill="#010101" fill-rule="evenodd" d="M10.63445 22.109875c0 -0.36225 0.137425 -0.687125 0.1874125 -1.062 0.012275000000000001 -0.149625 0.012275000000000001 -0.30012500000000003 0 -0.44975 0.0124125 -0.153875 0.0124125 -0.308375 0 -0.46225000000000005 0 -0.387375 -0.174925 -0.724625 -0.262375 -1.0995000000000001 0.0033875000000000003 -0.050875000000000004 -0.0033125 -0.10187500000000001 -0.0197 -0.15025 -0.0163875 -0.04825 -0.042162500000000006 -0.09287500000000001 -0.075825 -0.131125 -0.0336625 -0.038375 -0.0745625 -0.06962499999999999 -0.12035000000000001 -0.092125 -0.0457875 -0.022375 -0.09555 -0.035625000000000004 -0.14645 -0.03875 -0.1040875 -0.007 -0.20676250000000002 0.027000000000000003 -0.28612499999999996 0.09475 -0.0793625 0.067625 -0.129125 0.163625 -0.138675 0.2675 -0.15507500000000002 0.35687499999999994 -0.2845 0.7242500000000001 -0.3873125 1.0995000000000001 -0.0191 0.166 -0.0191 0.33375 0 0.49974999999999997 -0.012387500000000001 0.16225 -0.012387500000000001 0.325125 0 0.48724999999999996 0.0801375 0.391875 0.19297499999999998 0.776375 0.3373375 1.1495 0.018525 0.115875 0.0804875 0.2205 0.17331249999999998 0.292375 0.09281249999999999 0.072 0.2095375 0.105875 0.32645 0.09487499999999999 0.0603 -0.004625000000000001 0.11905 -0.021375 0.172725 -0.049249999999999995 0.053675 -0.027875 0.10118749999999999 -0.06625 0.139675 -0.112875 0.0384875 -0.04675 0.067175 -0.100625 0.08433750000000001 -0.15862500000000002 0.017162499999999997 -0.057999999999999996 0.0224625 -0.11887500000000001 0.0155625 -0.179Z" clip-rule="evenodd" stroke-width="1.25"></path>
  <path fill="#010101" fill-rule="evenodd" d="M18.655625 18.911375c0.010625 -0.104125 -0.020125 -0.20837499999999998 -0.0855 -0.290125 -0.0655 -0.08175 -0.160375 -0.134625 -0.26425 -0.147125 -0.051000000000000004 -0.005125 -0.102375 -0.00025 -0.151375 0.014625s-0.0945 0.03924999999999999 -0.134 0.07175c-0.03950000000000001 0.0325 -0.072125 0.07250000000000001 -0.09612499999999999 0.11775000000000001 -0.023875 0.045250000000000005 -0.038625 0.09475 -0.043375000000000004 0.14575 -0.17024999999999998 0.333125 -0.312375 0.68 -0.42474999999999996 1.037 -0.038125 0.147375 -0.06325 0.297875 -0.075 0.44975v0.46225000000000005c0.054875 0.36949999999999994 0.142625 0.73325 0.262375 1.087 -0.00175 0.059 0.008625 0.11775000000000001 0.03075 0.172375 0.022125 0.05475 0.0555 0.10425000000000001 0.09775 0.145375 0.042374999999999996 0.041124999999999995 0.09275 0.073 0.148125 0.09362499999999999 0.05525000000000001 0.020625 0.11424999999999999 0.029375 0.17325000000000002 0.025875 0.11812500000000001 -0.0063750000000000005 0.229375 -0.057875 0.31074999999999997 -0.143875 0.081375 -0.086 0.126625 -0.2 0.1265 -0.31837499999999996 0.075 -0.349875 0.187375 -0.64975 0.262375 -0.9994999999999999 0.037000000000000005 -0.1435 0.062125 -0.28975 0.075 -0.43737499999999996 0.018625 -0.140875 0.018625 -0.28375 0 -0.42474999999999996 -0.052875 -0.357375 -0.12375 -0.71175 -0.21250000000000002 -1.062Z" clip-rule="evenodd" stroke-width="1.25"></path>
  <path fill="#010101" fill-rule="evenodd" d="M17.28125 24.183875c-0.641375 0.40487500000000004 -1.369 0.653 -2.124 0.72475 -0.31625000000000003 0.018625 -0.6332500000000001 0.018625 -0.9495 0h-0.949625c-0.7623125 -0.0425 -1.5053375 -0.256 -2.1739 -0.62475 -0.0402 -0.032 -0.0863 -0.05575 -0.1356875 -0.07 -0.049375 -0.014124999999999999 -0.101075 -0.018375 -0.1521125 -0.012624999999999999 -0.05105 0.00575 -0.1004625 0.021625 -0.1454 0.0465 -0.044937500000000005 0.024875 -0.08453749999999999 0.058374999999999996 -0.11653749999999999 0.09862499999999999 -0.0319875 0.040124999999999994 -0.05575 0.08625000000000001 -0.069925 0.135625 -0.014175 0.049375 -0.0184875 0.10112499999999999 -0.012687499999999999 0.152125 0.0058 0.051125 0.0216 0.1005 0.0464875 0.145375 0.0249 0.045 0.058399999999999994 0.08462499999999999 0.09860000000000001 0.11662499999999999 0.6591125 0.6853750000000001 1.492875 1.177875 2.4112875000000003 1.42425 0.40912499999999996 0.09825 0.828875 0.144375 1.2493750000000001 0.1375 0.42237499999999994 -0.0042499999999999994 0.8422499999999999 -0.063 1.2495 -0.17500000000000002 0.917875 -0.256125 1.75325 -0.747 2.42375 -1.42425 0.041625 -0.040749999999999995 0.074625 -0.089375 0.097125 -0.14300000000000002 0.0225 -0.053625 0.034125 -0.11124999999999999 0.034125 -0.169375 0 -0.05825 -0.011625 -0.11575 -0.034125 -0.169375 -0.0225 -0.053625 -0.0555 -0.10225 -0.097125 -0.14300000000000002 -0.0385 -0.04725 -0.08612500000000001 -0.08612500000000001 -0.140125 -0.114375 -0.054000000000000006 -0.028249999999999997 -0.11325 -0.045250000000000005 -0.174 -0.049874999999999996 -0.06075 -0.004625000000000001 -0.12175 0.0029999999999999996 -0.1795 0.02275 -0.057625 0.019624999999999997 -0.11075 0.050749999999999997 -0.156 0.0915Z" clip-rule="evenodd" stroke-width="1.25"></path>
</svg>