<svg xmlns="http://www.w3.org/2000/svg" fill="none" viewBox="0 0 30 30" id="Newspaper-Read-Man--Streamline-Freehand" height="30" width="30">
  <desc>
    Newspaper Read Man Streamline Icon: https://streamlinehq.com
  </desc>
  <path fill="#010101" fill-rule="evenodd" d="M14.680875 13.77775c0.09875 -0.023125 0.186125 -0.08075 0.24612499999999998 -0.1625 0.060125 -0.08175 0.089 -0.182375 0.08149999999999999 -0.283625 -0.007625000000000001 -0.10112499999999999 -0.051125 -0.196375 -0.12262500000000001 -0.26825 -0.07150000000000001 -0.072 -0.1665 -0.11599999999999999 -0.267625 -0.124125 -1.001625 0.04625 -1.9894999999999998 -0.24762499999999998 -2.8029875 -0.833825 -0.8134750000000001 -0.5862499999999999 -1.4047375 -1.4304249999999998 -1.6776499999999999 -2.3952875000000002 -0.3623625 -1.2220250000000001 -0.38831249999999995 -2.5191875 -0.0750875 -3.7547249999999996 0.06495 0.0580375 0.1363375 0.108425 0.2127625 0.1501875 1.2801 0.5245625 2.6819625 0.6783250000000001 4.0453375000000005 0.4437125 1.363375 -0.23460000000000003 2.63325 -0.8481125 3.664375 -1.7703749999999998 0.22849999999999998 0.490775 0.51425 0.9528875000000001 0.851 1.376725 0.9762500000000001 0.9386875 2.6033749999999998 1.1139000000000001 2.97875 1.689625 0.034125 0.0784875 0.09675 0.1411125 0.17525 0.175225 -0.245875 1.3350624999999998 -0.907 2.5584000000000002 -1.8891250000000002 3.495575 -0.9821249999999999 0.937175 -2.235125 1.5402874999999998 -3.58025 1.7235375 -0.08212499999999999 0.0315 -0.1505 0.090875 -0.19324999999999998 0.16775 -0.04275 0.07675 -0.05725 0.16625 -0.040875 0.252625s0.062625 0.16424999999999998 0.1305 0.22012500000000002c0.06799999999999999 0.055874999999999994 0.153375 0.086 0.241375 0.085375C26.270375 12.3008875 24.56825 -0.415095 16.58325 0.0104394625 5.269 0.8740249999999999 7.3341 14.3785 14.680875 13.77775Zm7.38425 -7.1089375c-1.148625 -0.8715249999999999 -2.348125 -1.6739499999999998 -3.592 -2.403025 0.555125 -0.5856625 1.0695000000000001 -1.2087375 1.5393750000000002 -1.8648375000000001 0.620625 0.5209874999999999 1.124125 1.1670875 1.4778749999999998 1.8960625 0.35374999999999995 0.728975 0.5495 1.5243875 0.57475 2.33425v0.03755Zm-2.7910000000000004 -4.73095c-1.176625 1.3594875000000002 -2.692375 2.3829624999999997 -4.393000000000001 2.966225 -1.1265 0.35045 -3.6296 0.7885 -4.443125 0.23779999999999998 0.0163875 -0.053 0.0163875 -0.1097 0 -0.1627C11.9398875 1.750125 16.858625 0.6862887500000001 19.274124999999998 1.9378625Z" clip-rule="evenodd" stroke-width="1.25"></path>
  <path fill="#010101" fill-rule="evenodd" d="M13.8795 8.996712500000001c0.0385 0.038974999999999996 0.08425 0.069925 0.13475 0.09105 0.050499999999999996 0.021124999999999998 0.104625 0.032 0.159375 0.032 0.05475 0 0.108875 -0.010875 0.159375 -0.032 0.050499999999999996 -0.021124999999999998 0.096375 -0.052075 0.13475 -0.09105 0.312875 -0.300375 -0.100125 -1.9023875000000001 -1.489375 -1.7772375 -1.602 0.175225 -1.602 1.9274250000000002 -0.8886 1.8273000000000001 0.7133499999999999 -0.100125 0.763475 -1.3892499999999999 1.789725 -0.0500625Z" clip-rule="evenodd" stroke-width="1.25"></path>
  <path fill="#010101" fill-rule="evenodd" d="M19.5745 9.171949999999999c0.312875 -0.300375 -0.42562500000000003 -2.2778625 -1.6771249999999998 -2.10265 -0.726 0.20025 -1.552 1.4142875 -1.088875 1.689625 0.046875 0.050425 0.1065 0.0874375 0.172375 0.10722499999999999 0.066 0.019799999999999998 0.136125 0.021675 0.203125 0.005425 0.0895 -0.009325 0.17250000000000001 -0.0516375 0.23262499999999997 -0.118725 0.060125 -0.06708750000000001 0.09325 -0.1541375 0.09275 -0.2442375 0.96375 -0.7384250000000001 1.36425 1.3141500000000002 2.065125 0.6633374999999999Z" clip-rule="evenodd" stroke-width="1.25"></path>
  <path fill="#010101" fill-rule="evenodd" d="M17.233875 11.27465c0.057499999999999996 -0.083825 0.083125 -0.1854625 0.072125 -0.2865125 -0.010875 -0.10105 -0.057625 -0.1948375 -0.13174999999999998 -0.2644 -0.074125 -0.069575 -0.17062500000000003 -0.1103125 -0.27225 -0.1148625 -0.10149999999999999 -0.00455 -0.201375 0.0273875 -0.281375 0.09005 -0.25025 0.1752125 -0.525625 0.137675 -1.41425 0.137675 -0.25925 0.06924999999999999 -0.5347500000000001 0.0425875 -0.776 -0.0751 -0.063 -0.07468749999999999 -0.15325 -0.1212625 -0.250625 -0.129475 -0.09737499999999999 -0.008212500000000001 -0.194125 0.0226 -0.26875 0.085675 -0.07475 0.06306250000000001 -0.12125 0.1532125 -0.1295 0.250625 -0.00825 0.0974125 0.022625000000000003 0.1940875 0.085625 0.268775 0.1665 0.2984 0.408875 0.5475375 0.702625 0.7221875 0.293625 0.1746625 0.6282500000000001 0.2686625 0.969875 0.2724625 0.34175 0.0038125000000000004 0.678375 -0.0826875 0.9758749999999999 -0.25075000000000003 0.2975 -0.168075 0.545375 -0.41173750000000003 0.718375 -0.70635Z" clip-rule="evenodd" stroke-width="1.25"></path>
  <path fill="#222222" fill-rule="evenodd" d="M24.618250000000003 26.819125c-2.380875 0.26875 -4.72375 0.80625 -6.98375 1.602 -0.664125 0.219 -1.315875 0.473875 -1.9525000000000001 0.7635000000000001 0.075125 -0.225375 0.901125 -10.988875 0.32537499999999997 -11.552125 -0.120875 -0.142875 -0.290125 -0.23650000000000002 -0.47550000000000003 -0.26275 -0.888625 -0.087625 -1.864875 -2.12775 -4.84365 -3.103875 -1.3316875000000001 -0.37712500000000004 -2.7085999999999997 -0.570875 -4.09265 -0.57575 -0.463075 0 -1.3892375000000001 -0.087625 -1.614525 0.350375 -0.0221375 0.0605 -0.0293625 0.12537500000000001 -0.021075 0.18925 0.0083 0.063875 0.0318625 0.12475 0.0687125 0.177625 0.0368375 0.052750000000000005 0.08587499999999999 0.09599999999999999 0.14295 0.12575 0.0570625 0.029875000000000002 0.1204875 0.0455 0.1848875 0.045625h1.1264125c3.3417000000000003 0.8135000000000001 5.344212499999999 1.101375 8.1226875 3.37925 0.8511249999999999 0.801 -0.100125 3.304125 0.250375 10.688375 -0.91125 -0.37387499999999996 -1.8535 -0.6669999999999999 -2.816075 -0.8761249999999999 -2.34045 -0.851 -4.3429625 -0.58825 -6.55825 -0.851h-1.5895000000000001c-0.5506875 0 -0.7008749999999999 0 -0.7008749999999999 -0.8761249999999999 0 -1.2516250000000002 0.3879875 -1.927375 -0.20025 -1.9775 -0.0969125 -0.003875 -0.1917875 0.028625 -0.265925 0.09112500000000001 -0.074125 0.062625 -0.12215000000000001 0.150625 -0.1345875 0.24675 -0.1501875 1.3392499999999998 -1.0262875 3.016375 0.82605 3.592125 0.6124 0.1145 1.23085 0.193875 1.852325 0.23775000000000002 2.19025 0.4255 4.4055375 0.125125 6.4205749999999995 0.6508750000000001 1.1470125 0.5673750000000001 2.3915125 0.9115 3.6671375 1.0137500000000002 0 0.137625 0.4505 0.5131249999999999 9.224124999999999 -2.065125 0.266875 -0.12737500000000002 0.512 -0.296375 0.725875 -0.500625 0.031125 -0.09037500000000001 0.03275 -0.18825000000000003 0.004625000000000001 -0.279625 -0.028249999999999997 -0.091375 -0.08462499999999999 -0.171375 -0.16125 -0.22849999999999998 -0.07675 -0.057124999999999995 -0.16949999999999998 -0.088375 -0.265125 -0.089375 -0.0955 -0.000875 -0.189 0.028625 -0.266625 0.084375Z" clip-rule="evenodd" stroke-width="1.25"></path>
  <path fill="#010101" fill-rule="evenodd" d="M7.609249999999999 19.2595c-0.11265 -0.47550000000000003 -0.27535 -1.339125 -0.9386875 -1.727125 -1.3177875000000001 -0.473625 -2.765625 -0.433375 -4.0550999999999995 0.112625 -0.41685 0.367625 -0.7434000000000001 0.82625 -0.9542875000000001 1.3405 -0.21087499999999998 0.51425 -0.300425 1.070125 -0.2616875 1.6245 0.0387375 0.5545 0.2047125 1.0925 0.48505 1.572375 0.28035 0.48 0.6675125 0.8887499999999999 1.1314375 1.194875 0.4390125 0.38225000000000003 0.9732000000000001 0.63875 1.546025 0.74225 0.5728375 0.1035 1.163 0.050375 1.7080625 -0.154 1.652075 -0.888625 1.8648500000000001 -2.8786250000000004 1.3391875 -4.706Zm-2.0275499999999997 3.5044999999999997c-0.12612500000000001 0.055874999999999994 -0.26255 0.08462499999999999 -0.40051249999999994 0.08462499999999999 -0.13795 0 -0.274375 -0.028749999999999998 -0.4005 -0.08462499999999999 -2.7034000000000002 -0.726 -2.8661 -3.216625 -1.576975 -4.51825 0.863575 0.500625 2.2278000000000002 -0.17525 2.8535874999999997 0.250375 0.187725 0.150125 1.101375 3.39175 -0.47559999999999997 4.267875Z" clip-rule="evenodd" stroke-width="1.25"></path>
  <path fill="#222222" fill-rule="evenodd" d="M3.7417625 16.456125c0.1752125 -1.051375 0.33792500000000003 -2.503125 -0.3629625 -2.503125 -0.1126375 0 -0.262825 0 -0.33792500000000003 0.112625 -0.24003750000000001 0.7530000000000001 -0.36657500000000004 1.537625 -0.375475 2.327875 0.0625875 0.8761249999999999 1.0012625 0.713375 1.0763625 0.062625Z" clip-rule="evenodd" stroke-width="1.25"></path>
  <path fill="#222222" fill-rule="evenodd" d="M25.519375000000004 15.029250000000001c0.125125 0.55075 0.21275 0.9762500000000001 0.287875 1.3267499999999999 0.312875 0.851 1.139 0.61325 0.98875 -0.3505 -0.173 -0.647875 -0.29025 -1.3095 -0.3505 -1.9775 -0.024875 -0.381 -0.169375 -0.744625 -0.41300000000000003 -1.0387499999999998 -0.222875 -0.188 -0.51 -0.28225 -0.801 -0.26287499999999997 -1.4556250000000002 0.18375 -2.8816249999999997 0.553875 -4.24275 1.101375 -0.9762500000000001 0.388 -5.006374999999999 2.3905000000000003 -5.093999999999999 3.1165 -0.0055000000000000005 0.099 0.024875 0.19675 0.0855 0.27525s0.1475 0.132625 0.24475 0.15237499999999998c0.097125 0.019750000000000004 0.19824999999999998 0.00375 0.28475 -0.044875 0.086375 -0.048624999999999995 0.1525 -0.12675 0.186 -0.22012500000000002 2.327 -1.168875 4.767875 -2.0957500000000002 7.28425 -2.765875 0.913625 -0.250375 1.126375 -1.038875 1.5393750000000002 0.68825Z" clip-rule="evenodd" stroke-width="1.25"></path>
  <path fill="#222222" fill-rule="evenodd" d="M25.94475 24.754c-0.035875 0.883875 0.074125 1.7676249999999998 0.32537499999999997 2.615875 0.112625 0.150125 0.56325 0.25025 0.7635000000000001 -0.33799999999999997 0.194625 -0.6873750000000001 0.279125 -1.40125 0.25025 -2.115125 -0.052875 -0.1265 -0.138375 -0.236625 -0.24762499999999998 -0.319375 -0.10925000000000001 -0.082625 -0.2385 -0.135 -0.37462500000000004 -0.1515 -0.13599999999999998 -0.0165 -0.274125 0.00325 -0.4 0.057375 -0.125875 0.054125 -0.23525000000000001 0.140625 -0.316875 0.25075000000000003Z" clip-rule="evenodd" stroke-width="1.25"></path>
  <path fill="#010101" fill-rule="evenodd" d="M28.585500000000003 19.35975c-0.10112499999999999 -0.767 -0.4795 -1.4703749999999998 -1.06375 -1.9775 -0.13775 -0.125125 -0.237875 -0.100125 -0.500625 -0.112625 -0.18275 -0.00975 -0.3655 0.017374999999999998 -0.5375 0.07974999999999999 -0.17212499999999997 0.062375 -0.32975 0.15862500000000002 -0.46375 0.28325 -0.55075 1.2515 -2.002625 0.4255 -3.016375 1.2515 -0.25675 0.26275 -0.449125 0.5815 -0.562 0.931125 -0.11299999999999999 0.349625 -0.143375 0.7206250000000001 -0.08875 1.083875 0.24512499999999998 1.068625 0.834375 2.027125 1.6771249999999998 2.7285 0.257 0.25725000000000003 0.578625 0.440625 0.930875 0.530875 0.352375 0.09037500000000001 0.7224999999999999 0.08425 1.071625 -0.017750000000000002 1.81475 -0.538125 2.740875 -3.2165 2.553125 -4.781000000000001Zm-3.566875 3.1790000000000003c-0.075125 -0.100125 -0.9762500000000001 -1.6145 -1.2516250000000002 -2.15275 0 -0.4255 0 -0.6382500000000001 0.26287499999999997 -0.738375 0.725875 -0.33799999999999997 2.378 -0.312875 2.916125 -1.78975 0.26075000000000004 0.252 0.461375 0.5595 0.587 0.899625 0.12575 0.34025 0.17312500000000003 0.704375 0.138875 1.065375 -0.107625 0.738 -0.37687499999999996 1.4431250000000002 -0.7885 2.065 -0.4505 0.6508750000000001 -1.339125 1.239125 -1.86475 0.6508750000000001Z" clip-rule="evenodd" stroke-width="1.25"></path>
</svg>