<svg xmlns="http://www.w3.org/2000/svg" fill="none" viewBox="0 0 30 30" id="Vectors-Pen-Draw--Streamline-Freehand" height="30" width="30">
  <desc>
    Vectors Pen Draw Streamline Icon: https://streamlinehq.com
  </desc>
  <path fill="#010101" d="M29.94 28.466625c-0.237 -0.736 -0.424125 -1.4845 -0.66125 -2.2205 -0.09974999999999999 -0.311875 -0.19949999999999998 -0.62375 -0.32425000000000004 -0.935625 -0.12475 -0.311875 -0.2495 -0.61125 -0.38675000000000004 -0.910625 -0.34924999999999995 -0.711 -0.7484999999999999 -1.3721249999999998 -1.12275 -2.05825 -0.033375 -0.081625 -0.0955 -0.148125 -0.17462499999999997 -0.18712499999999999 0.45825 -0.7112499999999999 0.874875 -1.4485000000000001 1.2475 -2.208 0.27799999999999997 -0.5257499999999999 0.443625 -1.1035 0.4865 -1.6965 -0.44525000000000003 -1.3935 -1.31825 -2.6113750000000002 -2.494875 -3.4805 -0.84975 -0.7506250000000001 -1.79325 -1.3880000000000001 -2.806875 -1.8961249999999998 -0.380375 -0.209 -0.8242499999999999 -0.27125 -1.247375 -0.17462499999999997 -0.342875 0.20850000000000002 -0.64 0.484375 -0.87325 0.810875 -0.7206250000000001 0.937875 -1.367125 1.930625 -1.9335 2.968875 -0.618375 0.917 -0.9683750000000001 1.9885 -1.0105 3.09375 0.307 0.8175 0.823125 1.540125 1.4969999999999999 2.0957500000000002 0.8 0.721125 1.688625 1.3373750000000002 2.6445000000000003 1.8337500000000002 -0.006874999999999999 0.028625 -0.006874999999999999 0.058625 0 0.08725 0.12475 0.761 0.16225 1.522 0.2995 2.282875 0.07475 0.449125 0.18712499999999999 0.88575 0.299375 1.322375 0.16212500000000002 0.673625 0.34924999999999995 1.3097500000000002 0.46149999999999997 1.983375 0.001625 0.053625 0.013875 0.10625000000000001 0.036250000000000004 0.15487499999999998 0.022375 0.04875 0.05425 0.09237499999999998 0.093875 0.1285 0.03950000000000001 0.036 0.086 0.06375 0.1365 0.08149999999999999 0.050499999999999996 0.017875000000000002 0.104125 0.025249999999999998 0.1575 0.021875000000000002 0.053625 -0.001625 0.10625000000000001 -0.013875 0.15487499999999998 -0.036250000000000004 0.04875 -0.022375 0.09237499999999998 -0.05425 0.1285 -0.09375 0.036 -0.039625 0.06375 -0.08612500000000001 0.08149999999999999 -0.136625 0.017875000000000002 -0.050499999999999996 0.025249999999999998 -0.104 0.021875000000000002 -0.1575 0.062375 -0.7013750000000001 0.062375 -1.4068749999999999 0 -2.10825 -0.01625 -0.29825 -0.057999999999999996 -0.5945 -0.12475 -0.885625 -0.04825 -0.29325 -0.123375 -0.581375 -0.2245 -0.86075 -0.16949999999999998 -0.49424999999999997 -0.36949999999999994 -0.977625 -0.598875 -1.447125 0.323875 0.025125 0.64925 0.025125 0.973125 0 0.35025 -0.0465 0.69125 -0.1475 1.010375 -0.299375 0.380875 -0.18350000000000002 0.7515 -0.3875 1.11025 -0.61125h0.08737500000000001c0.149625 0.6611250000000001 0.286875 1.322375 0.4865 1.9835 0.09974999999999999 0.311875 0.212 0.63625 0.33675 0.935625 0.12475 0.299375 0.262 0.623625 0.39925 0.9231250000000001 0.34924999999999995 0.6984999999999999 0.736 1.3721249999999998 1.122625 2.05825 0.020374999999999997 0.049874999999999996 0.050625 0.09525 0.088875 0.133125 0.038375 0.037875 0.08399999999999999 0.067625 0.134125 0.08750000000000001 0.050124999999999996 0.019750000000000004 0.103625 0.02925 0.157625 0.02775 0.053875 -0.0013750000000000001 0.10687500000000001 -0.013749999999999998 0.155875 -0.036250000000000004 0.051625000000000004 -0.0235 0.09775 -0.057625 0.13525 -0.10037499999999999 0.037375 -0.042624999999999996 0.065375 -0.09275 0.081875 -0.147125 0.0165 -0.05425 0.02125 -0.1115 0.014 -0.16775 -0.007375 -0.056249999999999994 -0.026625 -0.110375 -0.056499999999999995 -0.15862500000000002Zm-6.337125 -9.8175c0.9481249999999999 -0.474 1.3222500000000001 0.199625 1.35975 0.5363749999999999 0.074875 0.62375 -0.761 0.8358749999999999 -1.2475 0.598875 -0.11174999999999999 -0.040499999999999994 -0.21000000000000002 -0.1115 -0.2835 -0.20500000000000002 -0.0735 -0.093375 -0.11937500000000001 -0.205625 -0.132375 -0.32375 -0.013 -0.11825000000000001 0.007375 -0.23775000000000002 0.058875000000000004 -0.344875 0.051500000000000004 -0.10725 0.131875 -0.197875 0.23224999999999998 -0.261625h0.0125Zm1.671625 3.655 -0.499 0.09987499999999999 -0.461625 0.16212500000000002c-0.33675 0.14975 -0.61125 0.311875 -0.9355 0.461625 -0.960625 -0.557125 -1.84175 -1.241 -2.6197500000000002 -2.033375 -0.50475 -0.465125 -0.879 -1.054375 -1.08525 -1.709 0.010625 -0.17174999999999999 0.062 -0.33849999999999997 0.14975 -0.4865 0.259625 -0.57775 0.55975 -1.13625 0.8981250000000001 -1.671625 0.537375 -0.862125 1.12025 -1.695 1.7465 -2.494875 0.018875 0.514 0.068875 1.026375 0.149625 1.534375 0.0935 0.44237499999999996 0.210125 0.8795 0.34924999999999995 1.3097500000000002l0.12475 0.37424999999999997c-0.160375 0.076125 -0.30775 0.17725000000000002 -0.436625 0.299375 -0.148625 0.16799999999999998 -0.257375 0.367625 -0.317875 0.583625 -0.0605 0.216125 -0.07125000000000001 0.443 -0.031375 0.663875 0.011999999999999999 0.29312499999999997 0.091375 0.5795 0.23199999999999998 0.837 0.140625 0.257375 0.33875 0.479 0.578875 0.6475 0.4995 0.24675 1.0727499999999999 0.3 1.60925 0.149625 0.233 -0.035750000000000004 0.455625 -0.121625 0.652375 -0.2515 0.19675 -0.13 0.363 -0.301 0.48750000000000004 -0.50125 0.12437500000000001 -0.200375 0.20400000000000001 -0.42512500000000003 0.233375 -0.659125 0.029375 -0.234 0.007625000000000001 -0.4715 -0.0635 -0.69625 -0.09575 -0.37887499999999996 -0.32225 -0.71175 -0.6395000000000001 -0.94 -0.31725000000000003 -0.228125 -0.70475 -0.337125 -1.0943749999999999 -0.3075v-0.37424999999999997c0 -0.12475 -0.09987499999999999 -0.61125 -0.16225 -0.910625 -0.062375 -0.299375 -0.149625 -0.586375 -0.2495 -0.87325 -0.09974999999999999 -0.286875 -0.299375 -0.83575 -0.449 -1.2475 0.992 0.5433749999999999 1.9172500000000001 1.200625 2.756875 1.9585 0.84825 0.761 1.6091250000000001 1.522 1.6715 2.10825 -0.07062500000000001 0.57275 -0.24837499999999998 1.127125 -0.523875 1.6341249999999998 -0.34924999999999995 0.7983750000000001 -0.7983750000000001 1.64675 -1.11025 2.1956249999999997 -0.324375 0.062375 -0.648625 0.08725 -0.973 0.137125h0.0125Z" stroke-width="1.25"></path>
  <path fill="#222222" d="M22.455375000000004 11.9628c0.105125 0.0126375 0.21087499999999998 -0.0156375 0.29562499999999997 -0.0789375 0.08474999999999999 -0.0633125 0.141875 -0.1568 0.15949999999999998 -0.26108750000000003 0.017625 -0.10427499999999999 -0.0055000000000000005 -0.21135 -0.06475 -0.2990125 -0.059125000000000004 -0.0876625 -0.14975 -0.149175 -0.25312500000000004 -0.1718 -0.5585 -0.0672875 -1.124625 0.023475000000000003 -1.6341249999999998 0.2619625 -0.959875 0.525575 -1.9467499999999998 1.0002625 -2.9565 1.422075 -0.273 0.073 -0.553375 0.11487499999999999 -0.83575 0.12475 -0.16225 0 -0.33687500000000004 0 -0.424125 -0.13724999999999998 -0.06875 -0.17212499999999997 -0.06875 -0.36416249999999994 0 -0.53635 0.107625 -0.4054 0.267 -0.7953 0.474 -1.1601375 0.38675000000000004 -0.8108500000000001 0.8232499999999999 -1.5842749999999999 1.160125 -2.3951249999999997 0.24150000000000002 -0.5805375 0.41325 -1.1877375 0.5115000000000001 -1.8088125 0.09125 -0.7070624999999999 -0.02125 -1.4255 -0.324375 -2.070775 -0.13625 -0.2642875 -0.339125 -0.48845 -0.5885 -0.6503375 -0.249375 -0.1619 -0.5367500000000001 -0.2559125 -0.8336250000000001 -0.272775 -0.58975 -0.0086625 -1.16975 0.1514875 -1.671625 0.46155 -0.632375 0.3590625 -1.2295 0.7767124999999999 -1.783875 1.2474625000000001 -1.2474 1.1102375 -3.0686875000000002 3.4055625000000003 -4.989775 4.87755 -0.4698 0.487525 -1.0586625 0.8440625 -1.708425 1.0344 -0.64975 0.19032500000000002 -1.3379125 0.207875 -1.9965125000000001 0.0508875 -0.056112499999999996 -0.0207375 -0.10751250000000001 -0.05247500000000001 -0.1511875 -0.09334999999999999 -0.043675 -0.040875 -0.07875 -0.0900625 -0.10314999999999999 -0.1446875 -0.024399999999999998 -0.0546125 -0.03765 -0.11355000000000001 -0.0389625 -0.1733625 -0.0013124999999999999 -0.0598 0.0093375 -0.1192625 0.031325 -0.1749 0.1317875 -0.47625 0.3335875 -0.9303 0.5987875 -1.34725 0.748475 -1.3971500000000001 1.9086125 -2.6446125 2.8442 -4.0043375 0.427575 -0.5987 0.7952625000000001 -1.237975 1.0977625 -1.9086125 0.573825 -1.3722 0.3118625 -2.2329499999999998 -0.2619625 -2.7444025C8.4446125 0.686525 7.815775 0.49382375 7.167949999999999 0.44631625 6.520112500000001 0.3988075 5.869887499999999 0.49771125 5.2654749999999995 0.73569375c-0.4333625 0.12953625 -0.8515625 0.305185 -1.2474625000000001 0.52393125 -0.368775 0.19477499999999998 -0.723125 0.415725 -1.0603375 0.6611499999999999 -0.41165 0.2744375 -0.8108375 0.5863125 -1.24745 0.898175 -0.43661249999999996 0.3118625 -1.047865 0.9355875 -1.609220875 1.3971500000000001C0.03610725 4.2854375000000005 0 4.37685 0 4.471825c0 0.094975 0.03610725 0.18638749999999998 0.101004125 0.25572500000000004 0.069338375 0.0649 0.160757125 0.1010125 0.255728375 0.1010125 0.09497125000000001 0 0.18639 -0.0361125 0.25572875 -0.1010125 0.56135625 -0.46155 1.12271375 -0.9355875 1.6965387500000002 -1.3846749999999999 0.38671249999999996 -0.2869125 0.7734249999999999 -0.56135 1.1726125 -0.8233124999999999 0.39918750000000003 -0.26197499999999996 0.6611499999999999 -0.41166250000000004 0.9979625000000001 -0.5863125 0.3363 -0.1682125 0.6869875000000001 -0.3059875 1.0478625 -0.41166250000000004 0.8121125 -0.2548375 1.6828 -0.2548375 2.4949125 0 0.5613625 0.237025 0.723525 0.7734249999999999 0.27445 1.7464374999999999 -0.3007125 0.6140375 -0.6644375 1.1951375 -1.0852875 1.733975 -0.973025 1.34725 -2.220475 2.5822374999999997 -3.06875 4.0043375 -0.4493625 0.668725 -0.735625 1.4335125000000002 -0.8358 2.2329375000000002 -0.030712500000000004 0.37124999999999997 0.0663375 0.74185 0.27505 1.0503875 0.208725 0.3085875 0.5166 0.5365875 0.8726125 0.6462125000000001 0.6592625000000001 0.21225 1.358325 0.270875 2.0437374999999998 0.171375 0.6854 -0.099375 1.338975 -0.354375 1.9106999999999998 -0.7452625 2.3577 -1.359725 4.5283125 -4.34115 6.0626875 -5.66345 0.47212499999999996 -0.46699999999999997 0.990375 -0.8849625 1.54675 -1.2474625000000001 0.289 -0.1942875 0.625375 -0.3064 0.973125 -0.32433749999999995 0.12062500000000001 0.024325000000000003 0.23099999999999998 0.0852875 0.31587499999999996 0.17458749999999998 0.08474999999999999 0.08928749999999999 0.14 0.202575 0.15812500000000002 0.32439999999999997 0.134875 0.36653749999999996 0.18187499999999998 0.7596375 0.13724999999999998 1.1476625 -0.06625 0.5305875 -0.200375 1.050475 -0.39925 1.5468375 -0.299375 0.8108500000000001 -0.6986249999999999 1.5717999999999999 -1.060375 2.3577 -0.22999999999999998 0.45047499999999996 -0.40175000000000005 0.928325 -0.511375 1.4221 -0.094 0.42610000000000003 -0.022625000000000003 0.871975 0.19949999999999998 1.247475 0.18025 0.26825 0.4575 0.456 0.7735000000000001 0.523875 0.5397500000000001 0.07875 1.0905 0.031875 1.60925 -0.137125 0.885625 -0.2495 1.995875 -1.097875 3.05625 -1.5469 0.364875 -0.187975 0.7766249999999999 -0.2659875 1.185 -0.22455Z" stroke-width="1.25"></path>
</svg>