<svg xmlns="http://www.w3.org/2000/svg" fill="none" viewBox="0 0 30 30" id="Saving-Piggy-Bank--Streamline-Freehand" height="30" width="30">
  <desc>
    Saving Piggy Bank Streamline Icon: https://streamlinehq.com
  </desc>
  <path fill="#010101" fill-rule="evenodd" d="M14.991624999999999 4.763675h1.4503750000000002c0.17500000000000002 0 0.36262500000000003 0 0.43762500000000004 0.18755s0 0.1250375 -0.08750000000000001 0.17504999999999998c-0.1215 0.1197125 -0.266125 0.21332500000000001 -0.42512500000000003 0.2750625 -0.3655 0.16217499999999999 -0.763125 0.2391375 -1.162875 0.22505 -0.392 -0.0246 -0.76725 -0.168575 -1.07525 -0.41259999999999997 -0.091375 -0.09084999999999999 -0.21487499999999998 -0.14185 -0.34375 -0.14185 -0.128875 0 -0.2525 0.051000000000000004 -0.34387500000000004 0.14185 -0.08875 0.09496249999999999 -0.138125 0.2201 -0.138125 0.3500875 0 0.13 0.049375 0.2551375 0.138125 0.3500875 0.416875 0.44123750000000006 0.95725 0.7463 1.5503749999999998 0.8752125l0 0.1500375c0.016 0.08345 0.0455 0.1637125 0.08750000000000001 0.2375625 0.500125 0.9752375000000001 0.71275 0.9627375 0.90025 0.925225 0.450125 0 0.675125 -1.2503 0.675125 -1.3253249999999999h0.162625c0.489625 -0.13743750000000002 0.925875 -0.42093749999999996 1.2502499999999999 -0.8127 0.15225 -0.1882 0.25575000000000003 -0.41095 0.301625 -0.6486124999999999 0.04575 -0.237675 0.032375 -0.48295 -0.039 -0.714225 -0.057875 -0.24893749999999998 -0.171125 -0.4816375 -0.331375 -0.680775 -0.160125 -0.19915 -0.363125 -0.35963750000000005 -0.593875 -0.4695125 -0.741125 -0.20063750000000002 -1.5082499999999999 -0.28915 -2.275625 -0.2625625 -0.1415 0.0102625 -0.2835 0.0102625 -0.42500000000000004 0 0.01925 -0.0745375 0.048624999999999995 -0.14606249999999998 0.08750000000000001 -0.21255 0.136875 -0.1590625 0.305375 -0.2879 0.49487499999999995 -0.3783 0.189375 -0.0904125 0.395625 -0.1404125 0.605375 -0.14682499999999998 0.49575 -0.007412500000000001 0.9812500000000001 0.1413125 1.3878750000000002 0.4251 0.09275 0.0696375 0.2095 0.0995375 0.324375 0.083125 0.11487499999999999 -0.0164125 0.218625 -0.0778 0.28825 -0.17065 0.034749999999999996 -0.0442 0.0605 -0.0948625 0.0755 -0.1490625 0.015125 -0.054200000000000005 0.01925 -0.11084999999999999 0.012375 -0.166675 -0.007 -0.055825 -0.025 -0.1097125 -0.053 -0.1585375 -0.027875 -0.0488125 -0.06525 -0.0916 -0.109875 -0.125875 -0.434 -0.44508749999999997 -0.9772500000000001 -0.7684375 -1.575375 -0.9377249999999999V1.112775c0.017625 -0.06126 0.017625 -0.126285 0 -0.18754625 0 0 -0.400125 -0.92522875 -0.71275 -0.92522875 -0.3125 0 -0.812625 0.7751925 -0.8502500000000001 0.85021 -0.017374999999999998 0.069775 -0.017374999999999998 0.14277875 0 0.2125525 -0.017374999999999998 0.069775 -0.017374999999999998 0.14277875 0 0.21255v0.08752499999999999c-0.34275 0.108525 -0.66125 0.282625 -0.9376249999999999 0.512625 -0.202875 0.16063750000000002 -0.37637499999999996 0.3552375 -0.512625 0.5751499999999999 -0.149 0.21771249999999998 -0.2315 0.47397500000000004 -0.23762499999999998 0.737675 -0.0025 0.1889 0.03775 0.3759 0.117875 0.546975 0.080125 0.171075 0.198 0.321775 0.34475 0.440775 0.439 0.35116250000000004 0.976625 0.5565875 1.5378749999999999 0.5876374999999999Z" clip-rule="evenodd" stroke-width="1.25"></path>
  <path fill="#010101" fill-rule="evenodd" d="M28.007125 5.2262875c0.062125 -0.0362375 0.12062500000000001 -0.0780875 0.17500000000000002 -0.125025 0.0335 -0.053025 0.054875 -0.1128 0.062625 -0.17504999999999998 0 0 0.08750000000000001 -0.9877374999999999 -0.175125 -1.1627875 -0.2625 -0.17503749999999998 -1.07525 0.2625625 -1.16275 0.312575 -0.057999999999999996 0.037325000000000004 -0.105375 0.0890125 -0.1375 0.1500375 -0.041124999999999995 0.0632625 -0.062875 0.137125 -0.0625 0.21255 -0.006125 0.0330625 -0.006125 0.066975 0 0.10002499999999999 -0.355125 -0.069125 -0.7202500000000001 -0.069125 -1.075375 0 -0.25675 0.040375 -0.505625 0.12052500000000001 -0.737625 0.2375625 -0.235375 0.12131249999999999 -0.43075 0.308 -0.562625 0.5376375 -0.09412500000000001 0.158775 -0.15187499999999998 0.336425 -0.169125 0.5201625 -0.017374999999999998 0.18375 0.00625 0.36905 0.069125 0.5426 0.190375 0.4992 0.52025 0.9331875000000001 0.95025 1.2503125000000002 0.3625 0.2625625 0.8626250000000001 0.4876125 1.2502499999999999 0.750175 0.15 0.10002499999999999 0.325125 0.17504999999999998 0.287625 0.38760000000000006 -0.0375 0.21255 -0.087625 0.10002499999999999 -0.162625 0.112525 -0.16525 0.0314375 -0.33487500000000003 0.0314375 -0.500125 0 -0.39625 -0.030975 -0.778625 -0.15986250000000002 -1.11275 -0.3750875 -0.33075 -0.210375 -0.5850000000000001 -0.521625 -0.7251249999999999 -0.8877250000000001 -0.05462500000000001 -0.106125 -0.14550000000000002 -0.1892125 -0.256 -0.23425 -0.110625 -0.045025 -0.23362500000000003 -0.049025 -0.34687500000000004 -0.011275 -0.11325 0.0377375 -0.20925 0.11475 -0.270625 0.2171125 -0.0615 0.10235 -0.08425 0.2233 -0.06425 0.34099999999999997 0.15837500000000002 0.5510875 0.470625 1.0455625 0.90025 1.42535 -0.03225 0.036887500000000004 -0.057625 0.079225 -0.075125 0.125025 -0.01875 0.0823 -0.01875 0.16776249999999998 0 0.2500625 0 1.087775 0.137625 1.1752875 0.312625 1.2503125000000002 0.42512500000000003 0.17503749999999998 1.250375 -0.8001999999999999 1.250375 -0.8127 0 -0.0125 0.08750000000000001 0.0625125 0.15 0.0750125 0.49987499999999996 0.16155 1.038 0.16155 1.5378749999999999 0 0.225625 -0.0883375 0.4265 -0.23002499999999998 0.5855 -0.41292500000000004 0.158875 -0.1829 0.27125 -0.401575 0.32725 -0.6373249999999999 0.075125 -0.24503750000000002 0.093875 -0.5038875 0.05499999999999999 -0.7572125000000001 -0.039 -0.2533125 -0.13475 -0.49455 -0.280125 -0.70565 -0.55 -0.5908375 -1.19175 -1.089025 -1.9005 -1.4753749999999999 -0.12137500000000001 -0.07202499999999999 -0.23825 -0.1513625 -0.35000000000000003 -0.23754999999999998 0.048624999999999995 -0.057050000000000003 0.108125 -0.1038125 0.17500000000000002 -0.1375375 0.20174999999999998 -0.07983749999999999 0.41875 -0.113425 0.6351249999999999 -0.098275 0.216375 0.01515 0.426625 0.0786375 0.6152500000000001 0.1858 0.439875 0.2363 0.791 0.6093375 1.00025 1.0627625 0.046625 0.103075 0.1305 0.18477500000000002 0.23475 0.2288 0.10437500000000001 0.044025 0.22137500000000002 0.04715 0.32787499999999997 0.00875 0.05425 -0.0193375 0.103875 -0.0495 0.146125 -0.08864999999999999 0.042249999999999996 -0.039150000000000004 0.076 -0.0864625 0.0995 -0.139075 0.023375 -0.052612500000000006 0.035750000000000004 -0.10942500000000001 0.0365 -0.16699999999999998 0.0007499999999999999 -0.0575625 -0.010124999999999999 -0.1146875 -0.032125 -0.16791250000000002 -0.210625 -0.571025 -0.5635 -1.0788375000000001 -1.02525 -1.4753625000000001Z" clip-rule="evenodd" stroke-width="1.25"></path>
  <path fill="#222222" fill-rule="evenodd" d="M11.690275000000002 19.917125c0 -0.325 0 -1.075 -1.125 -1.0125000000000002 -1.125 0.0625 -0.95 1.825 0 1.85 0.7374999999999999 0.025 1.1375 -0.21250000000000002 1.125 -0.8375Z" clip-rule="evenodd" stroke-width="1.25"></path>
  <path fill="#222222" fill-rule="evenodd" d="M14.753625 19.917125c0 -0.325 0 -1.075 -1.1375 -1.0125000000000002 -1.1375125 0.0625 -0.95 1.825 0 1.85 0.75 0.025 1.1500000000000001 -0.21250000000000002 1.1375 -0.8375Z" clip-rule="evenodd" stroke-width="1.25"></path>
  <path fill="#222222" fill-rule="evenodd" d="M16.06675 17.29175c-0.74575 -0.499125 -1.60625 -0.800375 -2.5006250000000003 -0.8751249999999999 -1.282675 -0.078875 -2.5662875 0.13924999999999998 -3.7508875 0.637625 -0.1067 0.03950000000000001 -0.1938125 0.119125 -0.24282499999999999 0.22175 -0.0490125 0.10275 -0.056100000000000004 0.2205 -0.019737499999999998 0.328375 0.0182 0.053875 0.0470125 0.1035 0.08473750000000001 0.146 0.037712499999999996 0.0425 0.08357500000000001 0.077 0.1348625 0.10149999999999999 0.0512875 0.0245 0.106975 0.038375 0.16373749999999998 0.041 0.056775000000000006 0.0026249999999999997 0.11348749999999999 -0.00625 0.1668 -0.026 0.88395 -0.282375 1.8111625 -0.40525 2.7381875 -0.3625 0.871375 0.059500000000000004 1.704125 0.38212500000000005 2.388125 0.9252499999999999 0.279 0.19574999999999998 0.48300000000000004 0.48075 0.5785 0.8079999999999999 0.0955 0.32725 0.076625 0.6772499999999999 -0.053375000000000006 0.992375 -0.129125 0.354625 -0.33025 0.6787500000000001 -0.5905 0.9520000000000001 -0.260375 0.27325 -0.5743750000000001 0.48974999999999996 -0.922375 0.6358750000000001 -0.7942499999999999 0.3175 -1.64575 0.46649999999999997 -2.5006625 0.43762500000000004 -0.83345 0.015375 -1.6523124999999999 -0.219875 -2.350575 -0.675125 -0.2151375 -0.173375 -0.3861875 -0.395125 -0.4991875 -0.6471250000000001 -0.11299999999999999 -0.252125 -0.16473749999999998 -0.527375 -0.150975 -0.8032499999999999 -0.004325 -0.605 0.2188 -1.189625 0.62515 -1.637875 0.0468875 -0.0455 0.0841625 -0.09987499999999999 0.109625 -0.16 0.02545 -0.060125 0.0385625 -0.124875 0.0385625 -0.19012500000000002 0 -0.06525 -0.0131125 -0.13 -0.0385625 -0.19012500000000002 -0.0254625 -0.060125 -0.0627375 -0.1145 -0.109625 -0.16 -0.0934875 -0.09162500000000001 -0.219175 -0.142875 -0.3500875 -0.142875 -0.1309 0 -0.2566 0.051250000000000004 -0.3500875 0.142875 -0.6531125 0.599 -1.047675 1.4285 -1.1002625000000001 2.313125 -0.052075 0.458 0.0020499999999999997 0.9217500000000001 0.1581625 1.355375 0.15612499999999999 0.433625 0.4100375 0.8255 0.7420499999999999 1.14525 0.8817999999999999 0.723375 1.9638125 1.159625 3.100775 1.2502499999999999 1.0972 0.085375 2.2001999999999997 -0.059375 3.238325 -0.42512500000000003 0.579 -0.23550000000000001 1.10125 -0.5915 1.532375 -1.044125 0.431125 -0.45262499999999994 0.761125 -0.99175 0.9682499999999999 -1.5815000000000001 0.238875 -0.63775 0.245875 -1.3392499999999998 0.0195 -1.981625 -0.22625 -0.642375 -0.671375 -1.184625 -1.2573750000000001 -1.5317500000000002Z" clip-rule="evenodd" stroke-width="1.25"></path>
  <path fill="#010101" fill-rule="evenodd" d="M9.0393625 14.778374999999999c0.118725 0.015875 0.2392375 -0.011375 0.339575 -0.07675 0.10035000000000001 -0.0655 0.17386249999999998 -0.16475 0.207175 -0.279875 0.0333125 -0.11499999999999999 0.0242 -0.23825 -0.025675 -0.347125 -0.049874999999999996 -0.109 -0.1372 -0.196375 -0.24607500000000002 -0.24625000000000002 -0.40425 -0.22474999999999998 -0.8629249999999999 -0.333 -1.3250000000000002 -0.3125 -0.1965 0.005999999999999999 -0.3907 0.044000000000000004 -0.5750000000000001 0.11249999999999999 -0.1868 0.0555 -0.35802500000000004 0.154 -0.5 0.28750000000000003 -0.351075 0.310375 -0.5995375000000001 0.7201249999999999 -0.7124999999999999 1.1749999999999998 -0.0297625 0.0475 -0.049825 0.1005 -0.059024999999999994 0.15575 -0.0092 0.055375 -0.00735 0.112 0.005425 0.166625 0.0127875 0.05462500000000001 0.036250000000000004 0.106125 0.06905 0.151625 0.032799999999999996 0.0455 0.07427500000000001 0.08399999999999999 0.12205 0.1135 0.047400000000000005 0.033625 0.101375 0.05675 0.1583875 0.068125 0.057 0.01125 0.11576249999999999 0.010375 0.1724125 -0.0025 0.05663750000000001 -0.013 0.1099125 -0.037875 0.15630000000000002 -0.072875 0.0464 -0.035 0.084875 -0.079375 0.1129 -0.13025 0 0 2 -0.7625 2.1 -0.7625Z" clip-rule="evenodd" stroke-width="1.25"></path>
  <path fill="#010101" fill-rule="evenodd" d="M16.929000000000002 13.96575c-0.10075 -0.12200000000000001 -0.22375 -0.22375 -0.3625 -0.3 -0.133375 -0.079625 -0.276125 -0.142625 -0.42500000000000004 -0.1875 -0.339625 -0.08125 -0.68825 -0.11900000000000001 -1.0374999999999999 -0.11249999999999999 -0.0615 -0.01925 -0.12625 -0.026125 -0.1905 -0.020125 -0.06425 0.005875 -0.126625 0.0245 -0.183625 0.05475 -0.056874999999999995 0.03025 -0.107375 0.07150000000000001 -0.14825 0.12137500000000001 -0.040875 0.049874999999999996 -0.07150000000000001 0.10725 -0.090125 0.16899999999999998 -0.020874999999999998 0.062375 -0.028625 0.128375 -0.02275 0.193875 0.005875 0.065375 0.025374999999999998 0.128875 0.057124999999999995 0.1865 0.031625 0.057625 0.075 0.107875 0.12725 0.147875 0.052125000000000005 0.04 0.112 0.06862499999999999 0.175875 0.08425l1.875 1.1749999999999998c0.03125 0.047999999999999994 0.072 0.089 0.119875 0.12025 0.047875 0.031375 0.10175000000000001 0.052375 0.15812500000000002 0.06175 0.056499999999999995 0.0095 0.11424999999999999 0.007 0.16962499999999997 -0.007125 0.0555 -0.014124999999999999 0.107375 -0.039625 0.15237499999999998 -0.074875 0.0475 -0.031375 0.08825 -0.072 0.11975 -0.11937500000000001 0.0315 -0.0475 0.053125000000000006 -0.10075 0.063625 -0.15675 0.010499999999999999 -0.056 0.009625 -0.1135 -0.0026249999999999997 -0.169125 -0.012125 -0.055624999999999994 -0.035375 -0.10825 -0.06825 -0.15475 -0.08349999999999999 -0.370125 -0.25025 -0.7163750000000001 -0.48750000000000004 -1.0125000000000002Z" clip-rule="evenodd" stroke-width="1.25"></path>
  <path fill="#010101" fill-rule="evenodd" d="M20.955499999999997 12.615625c0.1 -0.56265 0.175125 -1.1127875 0.30012500000000003 -1.662925 0.08750000000000001 -0.3500875 0.1875 -0.7001625 0.3 -1.03775 0.63775 -1.6128999999999998 0.7627499999999999 -1.42535 0.56275 -1.912975 -0.056125 -0.12767499999999998 -0.14225 -0.2398625 -0.251125 -0.32697499999999996 -0.108875 -0.08710000000000001 -0.23725 -0.1465125 -0.37412500000000004 -0.17315 -0.384625 -0.052787499999999994 -0.7758750000000001 -0.029150000000000002 -1.15125 0.0695375 -0.3755 0.09870000000000001 -0.7277500000000001 0.2705125 -1.03675 0.5056 -0.766 0.5711 -1.433375 1.2637625 -1.9755 2.0505125 -1.0025 -0.745 -2.12825 -1.3078750000000001 -3.325875 -1.6629125 -0.53025 -0.15233750000000001 -1.075 -0.24872499999999997 -1.62535 -0.28757499999999997 -0.5531625 -0.050112500000000004 -1.1097375 -0.050112500000000004 -1.6629125 0 -1.2817875 0.224225 -2.488525 0.7610250000000001 -3.5133625000000004 1.5628875l0 0.075025c-0.5121875 -0.683375 -1.128125 -1.2824250000000001 -1.82545 -1.7754375 -0.6351 -0.45983749999999995 -1.4249625 -0.6528125 -2.20055 -0.5376375 -0.139425 0.0246375 -0.27016249999999997 0.08473750000000001 -0.37965 0.17451250000000001 -0.1094875 0.089775 -0.194025 0.20621250000000002 -0.2455 0.33811250000000004 -0.312575 0.7251875000000001 0.2500625 0.4376125 0.8502125 2.9507375000000002 0.125025 0.5501375 0.21255 1.1002625000000001 0.312575 1.6629125 -1.3596 1.2697500000000002 -2.2792499999999998 2.93975 -2.6254775 4.7675 -0.34623000000000004 1.827875 -0.1010375 3.7185 0.7000025 5.397499999999999 0.1615875 0.31425000000000003 0.3410875 0.619 0.537625 0.91275 0.2182375 0.29874999999999996 0.4607875 0.578875 0.7251875000000001 0.83775l0.7876875 0.562625 2.21305 3.463375c0.1625375 0.2375 0.3375875 0.662625 0.5376375 0.950125 0.08016250000000001 0.12875 0.1816375 0.242875 0.300075 0.337625 0.14654999999999999 0.09737499999999999 0.32442499999999996 0.136125 0.4981875 0.10825 0.1737625 -0.02775 0.3306875 -0.12 0.4395375 -0.25825 0.08752499999999999 -0.162625 0.3500875 -0.562625 0.3625875 -0.5876250000000001l1.1753 -2.3381250000000002c0.025062499999999998 -0.08149999999999999 0.025062499999999998 -0.168625 0 -0.250125 0.3750875 0.075125 0.725175 0.175125 1.112775 0.22512500000000002 0.56385 0.07100000000000001 1.132875 0.091875 1.7004125 0.0625 0.5709 -0.017875000000000002 1.1394 -0.0805 1.7004 -0.1875 0.512625 -0.08750000000000001 0.98775 -0.212625 1.4753749999999999 -0.337625 -0.05925 0.064625 -0.099 0.14475 -0.1145 0.23112500000000002 -0.0155 0.086375 -0.006125 0.17525 0.027000000000000003 0.2565l1.1752500000000001 2.3381250000000002 0.375125 0.5876250000000001 0.1 0.11249999999999999c0.052750000000000005 0.05675 0.1165 0.102125 0.1875 0.133125 0.07100000000000001 0.031 0.147625 0.047 0.22512500000000002 0.047 0.0775 0 0.154125 -0.016 0.22512500000000002 -0.047 0.07100000000000001 -0.031 0.134875 -0.076375 0.1875 -0.133125 0.1215 -0.091375 0.22362500000000002 -0.206125 0.3 -0.337625 0.200125 -0.28750000000000003 0.387625 -0.7126250000000001 0.5377500000000001 -0.95025l2.213 -3.46325 0.787625 -0.56275c0.267875 -0.2555 0.51075 -0.536 0.7252500000000001 -0.8376250000000001 0.1965 -0.29374999999999996 0.376 -0.5985 0.537625 -0.91275 0.8025 -1.67775 1.04975 -3.5676249999999996 0.70575 -5.395375 -0.34387500000000004 -1.82775 -1.26125 -3.4983750000000002 -2.6187500000000004 -4.7696250000000004l0.025 0.025Zm0.42512500000000003 9.427375c-0.11599999999999999 0.245375 -0.254 0.47974999999999995 -0.412625 0.7001250000000001 -0.146 0.216375 -0.3135 0.41750000000000004 -0.500125 0.600125 -0.2 0.200125 -0.537625 0.375125 -0.7501249999999999 0.5876250000000001 -0.110375 0.11325 -0.206875 0.239125 -0.287625 0.375125l-1.938 3.525875 -0.1875 0.412625 -1.0627499999999999 -1.9005c-0.053125000000000006 -0.0955 -0.13674999999999998 -0.17024999999999998 -0.23762499999999998 -0.21250000000000002 0.602125 -0.17825000000000002 1.194625 -0.38687499999999997 1.7755 -0.62525 0.061625 -0.018375 0.11887500000000001 -0.049 0.16825 -0.090125 0.0495 -0.041124999999999995 0.09 -0.091875 0.11925 -0.14925 0.02925 -0.05725 0.0465 -0.119875 0.050749999999999997 -0.184 0.004375 -0.064125 -0.004375 -0.1285 -0.025625000000000002 -0.18925 -0.040124999999999994 -0.1225 -0.127125 -0.224125 -0.241875 -0.282625 -0.11487499999999999 -0.058625 -0.248125 -0.069375 -0.370875 -0.029875000000000002 -1.2149999999999999 0.259875 -2.448 0.427125 -3.6883749999999997 0.500125 -0.512625 0 -1.03775 0 -1.5628875 0.075H10.5904625c-1.2240125 0.03525 -2.4473375 -0.090875 -3.6384 -0.375125 -0.10800000000000001 -0.037625 -0.2262625 -0.032625 -0.3307625 0.013749999999999998 -0.1045 0.0465 -0.1874125 0.131 -0.231875 0.236375 -0.0408375 0.10775 -0.037475 0.227375 0.0093375 0.332625 0.046825 0.105375 0.1333375 0.188 0.240725 0.22999999999999998 0.5996875 0.29312499999999997 1.22285 0.53575 1.8629625 0.7251249999999999l-1.1377875 1.9005 -0.18755 -0.412625 -1.9379750000000002 -3.5008749999999997c-0.0762 -0.135625 -0.1685625 -0.261625 -0.2750625 -0.375125 -0.2250625 -0.21250000000000002 -0.5501375 -0.3875 -0.7627 -0.5876250000000001 -0.18655000000000002 -0.182625 -0.3541125 -0.38375 -0.5001125 -0.600125 -0.154025 -0.22325 -0.2919 -0.45725000000000005 -0.4126125 -0.7001250000000001 -0.780025 -1.498625 -1.0395375 -3.2140000000000004 -0.737675 -4.87625 0.29245 -1.7251250000000002 1.150125 -3.304125 2.4381 -4.488625 0.0801875 -0.08175 0.1251 -0.191775 0.1251 -0.3063125 0 -0.11455 -0.044912499999999994 -0.224525 -0.1251 -0.30633750000000004 -0.052125000000000005 -0.0582125 -0.12016249999999999 -0.0999 -0.1957 -0.1199 -0.07555 -0.02 -0.1553 -0.017425 -0.2294 0.007375v-1.1627875c0 -0.38758750000000003 0 -0.8001999999999999 -0.075025 -1.2503125000000002v-0.1875375c0.31224999999999997 0.193475 0.60905 0.41085000000000005 0.8877250000000001 0.6501625 0.7056625 0.52825 1.3476124999999999 1.1366375 1.912975 1.8129375 0.032075 0.0566875 0.0754625 0.1061625 0.1274625 0.1453625 0.052 0.0392 0.1115 0.0673 0.1748125 0.08255 0.06332499999999999 0.0152375 0.1290875 0.0173 0.1932375 0.0060625 0.06415 -0.01125 0.1253 -0.0355625 0.17964999999999998 -0.071425 0.0596375 -0.0357125 0.1114 -0.083175 0.152125 -0.1395125s0.0695625 -0.1203625 0.08476249999999999 -0.1882c0.0152125 -0.0678375 0.016462499999999998 -0.13805 0.003675 -0.206375 -0.012775 -0.068325 -0.039325 -0.13335 -0.07802500000000001 -0.1911 -0.125025 -0.21255 -0.300075 -0.500125 -0.512625 -0.8127 1.01275 -0.460225 2.1134125 -0.6948624999999999 3.2257999999999996 -0.6876625000000001 0.462275 -0.025 0.9255625000000001 -0.025 1.3878375 0 0.4845125 0.0502625 0.9648875 0.1338125 1.4378875 0.2500625 1.0805 0.17485 2.1295 0.5076625 3.1132500000000003 0.9877374999999999 -0.075 0.1250375 -0.17500000000000002 0.275075 -0.22499999999999998 0.3751 -0.066875 0.11018750000000001 -0.0885 0.2419125 -0.060625 0.36769999999999997 0.028 0.125775 0.103375 0.235925 0.210625 0.30746249999999997 0.05437499999999999 0.0358625 0.11549999999999999 0.060175000000000006 0.17962499999999998 0.071425 0.064125 0.0112375 0.12987500000000002 0.009175 0.19324999999999998 -0.0060625 0.06325 -0.015250000000000001 0.12275 -0.0433375 0.17475000000000002 -0.08255 0.052 -0.0392 0.0955 -0.088675 0.1275 -0.14534999999999998 0.5666249999999999 -0.698025 1.21275 -1.32745 1.9255 -1.8754625 0.27699999999999997 -0.2133 0.5695 -0.40555 0.8752500000000001 -0.5751499999999999v0.18755c0 0.41259999999999997 -0.0625 0.8127 -0.075 1.2503125000000002 -0.0125 0.4376 0 0.7751874999999999 0 1.1627875 -0.07400000000000001 -0.026525 -0.15425 -0.029962500000000003 -0.23012500000000002 -0.0098625 -0.075875 0.0201 -0.143875 0.062775 -0.195 0.1223875 -0.04125 0.0396625 -0.07400000000000001 0.08723750000000001 -0.0965 0.139875 -0.022375 0.052637500000000004 -0.033875 0.10925000000000001 -0.033875 0.16645 0 0.057175000000000004 0.0115 0.1138 0.033875 0.16642500000000002 0.0225 0.052625 0.05525000000000001 0.10024999999999999 0.0965 0.139875 1.2787499999999998 1.186375 2.1237500000000002 2.7665 2.4005 4.488625 0.305 1.63375 0.058625 3.3225 -0.7001250000000001 4.8012500000000005Z" clip-rule="evenodd" stroke-width="1.25"></path>
</svg>