<svg xmlns="http://www.w3.org/2000/svg" fill="none" viewBox="0 0 30 30" id="Tag-Sale-Price--Streamline-Freehand" height="30" width="30">
  <desc>
    Tag Sale Price Streamline Icon: https://streamlinehq.com
  </desc>
  <path fill="#010101" fill-rule="evenodd" d="M28.345750000000002 18.89775c-1.014375 -1.5405 -6.362125 -6.7755 -7.702125 -8.1907125 -2.0915 -2.2167375 -3.531875 -4.6839625 -6.262 -5.2976374999999996 -1.715875 -0.4007625 -10.394924999999999 0.6762999999999999 -9.0172875 2.104025 0.0408125 0.0416625 0.08952500000000001 0.07475 0.14328749999999998 0.0973375 0.0537625 0.0226 0.1114875 0.034237500000000004 0.1698125 0.034237500000000004 0.058312499999999996 0 0.11603749999999999 -0.0116375 0.16979999999999998 -0.034237500000000004 0.0537625 -0.0225875 0.102475 -0.055675 0.14328749999999998 -0.0973375 0.6011500000000001 -0.588625 4.871825 -1.164725 8.1656 -1.0394875000000001 1.5102499999999999 0.5305125 2.80125 1.548275 3.6695 2.8930375 1.816 2.2793625 8.278375 8.99215 9.13 10.144400000000001 0.151 0.225625 0.280875 0.46462499999999995 0.38825 0.713875 -1.710625 2.607375 -3.790375 4.953 -6.17425 6.963375000000001 -0.8150000000000001 0.6719999999999999 -1.756 1.1745 -2.767875 1.47775 -1.90075 -1.4321249999999999 -3.71175 -2.97975 -5.422875 -4.633875 -2.0349500000000003 -2.034625 -3.9660875 -4.170625 -5.78605 -6.399749999999999 -0.8828750000000001 -1.280375 -1.3467125 -2.803125 -1.3275375 -4.35825 0 -0.10300000000000001 -0.0409 -0.20174999999999998 -0.1137125 -0.274625 -0.0728125 -0.07275000000000001 -0.1715625 -0.11362499999999999 -0.274525 -0.11362499999999999 -0.102975 0 -0.201725 0.040875 -0.274525 0.11362499999999999 -0.0728125 0.072875 -0.113725 0.171625 -0.113725 0.274625 0.1628125 3.53175 0.91425 4.4083749999999995 3.1936125 7.138624999999999 2.523275 3.262375 5.4334625 6.206125 8.6665875 8.76675 0.252 0.34887500000000005 0.6108750000000001 0.606125 1.022125 0.732625 0.411375 0.1265 0.85275 0.115625 1.25725 -0.03125 3.2687500000000003 -1.002 6.9632499999999995 -5.7485 8.841875 -8.140625 0.7013750000000001 -0.91425 1.15225 -1.47775 0.2755 -2.8428750000000003Z" clip-rule="evenodd" stroke-width="1.25"></path>
  <path fill="#222222" fill-rule="evenodd" d="M10.8998375 12.197387500000001c0.4759125 -1.3275375 0.613675 -2.0539375 -0.46338749999999995 -2.8930375 -0.29036249999999997 -0.2437125 -0.6279125000000001 -0.4248875 -0.9915 -0.5321875 -0.36360000000000003 -0.1073 -0.7454125 -0.1384125 -1.1215875 -0.0913875 -0.37616249999999996 0.047025 -0.7385875 0.1711625 -1.064575 0.3646625 -0.32599999999999996 0.1934875 -0.60855 0.452175 -0.8300000000000001 0.759875 -1.087275 -0.656775 -2.0463 -1.5054625 -2.8304125000000004 -2.5048C2.1456 5.6724 0.74291125 2.9547 2.371025 1.5395c0.6888125 -0.61367875 1.9036374999999999 -0.28805000000000003 3.0934125000000003 0.4132875 2.74275 1.5654875 2.6425625000000004 3.2061374999999996 3.3939999999999997 2.7552749999999997 1.0520125 -0.638725 -2.2042125 -3.4566125 -3.5818499999999998 -4.14543625C2.032875 -1.0780125 -0.15881375 1.126205 0.20438 3.86895c0.4508625 3.3313749999999995 3.09342 5.5856875 6.02402 7.0384625 0.5761125 3.6820874999999997 4.20805 2.6300875 4.671437500000001 1.2899749999999999Zm-0.50095 -1.0895875c-0.0447875 0.37877500000000003 -0.22213750000000002 0.7295 -0.5006625 0.9900875 -0.27852499999999997 0.260575 -0.6402625000000001 0.41423750000000004 -1.021175 0.4337375 -0.380925 0.0195 -0.7564625 -0.0964375 -1.060125 -0.3272125 -0.303675 -0.23078749999999998 -0.5159125 -0.5615749999999999 -0.599125 -0.9338000000000001 0.55105 0.2003875 1.0520125 0.2003875 1.1021 -0.1252375 0.0501 -0.325625 -0.6512374999999999 -0.6762999999999999 -1.139675 -0.9393 1.4026874999999999 -1.6782125 3.5192375 -0.1252375 3.2186625 0.901725Z" clip-rule="evenodd" stroke-width="1.25"></path>
  <path fill="#010101" fill-rule="evenodd" d="M28.859375 8.2899125C24.413375 6.37375 25.615625 6.89975 19.40375 5.2090250000000005c-0.100125 0 -0.738875 -0.3131 -1.089625 -0.07515 -0.056499999999999995 0.053925 -0.09724999999999999 0.1224 -0.1175 0.1979125 -0.020249999999999997 0.0755125 -0.019375 0.15513749999999998 0.0026249999999999997 0.230175 0.022000000000000002 0.075025 0.06425 0.14255 0.12200000000000001 0.1951625 0.057875 0.052625 0.129125 0.0883125 0.20587500000000003 0.1031375 0.8540000000000001 0.2494375 1.69075 0.5548375 2.50475 0.91425 2.32875 1.0825875 4.726 2.0113624999999997 7.17625 2.7803250000000004 1.0395 0.46338749999999995 -0.688875 4.1454125 -0.6763750000000001 5.0095374999999995 0 0.057625 0.011375 0.114625 0.033375 0.16775 0.022125 0.05325 0.05437499999999999 0.10149999999999999 0.095125 0.14225 0.040625 0.040749999999999995 0.089 0.073 0.142125 0.095 0.05325 0.022000000000000002 0.11025 0.033375 0.16775 0.033375 0.057625 0 0.114625 -0.011375 0.16775 -0.033375 0.05325 -0.022000000000000002 0.10149999999999999 -0.05425 0.14225 -0.095 0.040625 -0.040749999999999995 0.073 -0.089 0.095 -0.14225 0.022000000000000002 -0.053125000000000006 0.033375 -0.110125 0.033375 -0.16775 0.0375 -1.0395 2.868 -4.946925 0.450875 -6.2744625Z" clip-rule="evenodd" stroke-width="1.25"></path>
  <path fill="#010101" fill-rule="evenodd" d="M12.30245 15.303374999999999c-0.10302499999999999 -0.05725 -0.19088750000000002 -0.13825 -0.2562375 -0.23625000000000002 -0.0653625 -0.098 -0.106325 -0.21025 -0.1194875 -0.327375 0.011025 -0.066375 0.0074624999999999995 -0.134375 -0.010425 -0.19924999999999998 -0.0179 -0.06475 -0.049699999999999994 -0.125 -0.0932125 -0.17625 -0.0435 -0.051375 -0.09764999999999999 -0.092625 -0.1586875 -0.120875 -0.06105 -0.028249999999999997 -0.1275125 -0.043 -0.1948 -0.043 -0.067275 0 -0.1337375 0.01475 -0.1947875 0.043 -0.061037499999999995 0.028249999999999997 -0.11520000000000001 0.06949999999999999 -0.15869999999999998 0.120875 -0.0435 0.051250000000000004 -0.0753 0.1115 -0.0932 0.17625 -0.0179 0.064875 -0.021450000000000004 0.13287500000000002 -0.010437499999999999 0.19924999999999998 -0.0380875 0.35725 0.0369125 0.717375 0.214425 1.02975 0.1775125 0.31224999999999997 0.448575 0.5609999999999999 0.774975 0.711125 0.189075 0.08587499999999999 0.39325 0.1335 0.600875 0.140375 0.20750000000000002 0.006750000000000001 0.41437500000000005 -0.027499999999999997 0.608625 -0.10075 0.194375 -0.07325 0.37225 -0.18425 0.523625 -0.32637499999999997 0.151375 -0.14225 0.273125 -0.313 0.358375 -0.50225 0.161875 -0.28750000000000003 0.252 -0.6096250000000001 0.263 -0.939375 0.00625 -0.28575 -0.040499999999999994 -0.57025 -0.13775 -0.839125 -0.313125 -0.864125 -0.764 -1.4402249999999999 0.588625 -0.363125 0.070875 0.066375 0.16299999999999998 0.10575 0.26 0.111125 0.097 0.0052499999999999995 0.192875 -0.02375 0.270625 -0.08212499999999999 0.07775 -0.05825 0.132375 -0.142125 0.1545 -0.23675000000000002 0.022000000000000002 -0.094625 0.01 -0.194 -0.033875 -0.28075 -0.7889999999999999 -0.9893625 -1.728375 -1.8660375 -2.667625 -0.839075 -0.138375 0.1746625 -0.23875000000000002 0.3762 -0.29478750000000004 0.591825 -0.0560625 0.21575 -0.0665625 0.440625 -0.030825 0.660625 0 0.41325 0.2629875 0.7889999999999999 0.32561249999999997 1.252375 0.036250000000000004 0.12262500000000001 0.036250000000000004 0.253 0 0.37575 -0.13775 0.17525 -0.3005625 0.313 -0.488425 0.200375Z" clip-rule="evenodd" stroke-width="1.25"></path>
  <path fill="#010101" fill-rule="evenodd" d="M17.299500000000002 14.426625c-0.2905 0.00037499999999999995 -0.578625 0.051250000000000004 -0.8516250000000001 0.150375 -0.37949999999999995 0.140625 -0.7282500000000001 0.35325 -1.027 0.626125 -0.35612499999999997 0.351 -0.69075 0.72325 -1.001875 1.114625l-0.588625 0.67625 -0.663875 0.801625c-0.05475 0.08075 -0.079125 0.178375 -0.06875 0.2755 0.01025 0.097 0.05462500000000001 0.18724999999999997 0.125125 0.254875 0.0705 0.0675 0.162625 0.107875 0.260125 0.113875 0.09737499999999999 0.006125 0.19375 -0.0225 0.272125 -0.08075l0.764 -0.6637500000000001 0.175375 -0.13775v0.12525c0.03525 0.08399999999999999 0.08625000000000001 0.16062500000000002 0.15025 0.225375 0.058124999999999996 0.060875 0.12575 0.111625 0.200375 0.150375 0.200375 0.12525 0.37575 0.16275 0.576125 0.2755 -0.288 0.288 -0.588625 0.601125 -0.864125 0.8516250000000001 -0.096375 0.078 -0.15775 0.19112500000000002 -0.17062500000000003 0.3145 -0.013 0.12325 0.023625 0.24675 0.10175000000000001 0.34299999999999997 0.078 0.096375 0.19112500000000002 0.15775 0.3145 0.17062500000000003 0.12325 0.012875000000000001 0.246625 -0.023625 0.34299999999999997 -0.10175000000000001 0.5635 -0.40075 1.252375 -0.864125 1.8285 -1.377625 0.426125 -0.36912500000000004 0.8047500000000001 -0.7897500000000001 1.127125 -1.252375 0.247875 -0.45499999999999996 0.3485 -0.9757499999999999 0.288 -1.4903749999999998 -0.015375 -0.2205 -0.074125 -0.435875 -0.173 -0.633625 -0.098875 -0.197625 -0.235875 -0.37387499999999996 -0.403 -0.518625 -0.21499999999999997 -0.13287500000000002 -0.461375 -0.20625000000000002 -0.713875 -0.212875Zm-0.175375 2.1666250000000002c-0.2055 0.39225000000000004 -0.45775000000000005 0.758125 -0.7515 1.089625 -0.039625 -0.20275 -0.10275 -0.40025 -0.18775 -0.588625 -0.038125 -0.086375 -0.08875 -0.1665 -0.150375 -0.23800000000000002 -0.057499999999999996 -0.06825 -0.125 -0.12737500000000002 -0.200375 -0.17525 0.15025 -0.12525 0.300625 -0.2505 0.463375 -0.36325 0.162875 -0.11275 1.4778749999999998 -0.95175 0.8266249999999999 0.2755Z" clip-rule="evenodd" stroke-width="1.25"></path>
  <path fill="#010101" fill-rule="evenodd" d="m19.190375 18.10875 -1.765875 1.252375c-0.35275 0.29625 -0.66075 0.6421250000000001 -0.91425 1.026875 -0.105375 0.205375 -0.16049999999999998 0.433 -0.16049999999999998 0.663875 0 0.23074999999999998 0.055125 0.45837500000000003 0.16049999999999998 0.6637500000000001l0.288125 0.500875 0.41325 0.4885c0.080375 0.08675000000000001 0.19087500000000002 0.139625 0.308875 0.1475 0.11812500000000001 0.008 0.23475 -0.0295 0.32599999999999996 -0.10475 0.09125 -0.075375 0.15025 -0.182625 0.165 -0.3 0.014625 -0.117375 -0.016125 -0.236 -0.086 -0.331375l-0.16275 -0.40075 -0.12525 -0.425875v-0.12525c0 -0.0375 0.17525 -0.16275 0.263 -0.2505l0.5635 -0.526 1.252375 -1.71575c0.049874999999999996 -0.03375 0.09162500000000001 -0.077875 0.12262500000000001 -0.1295 0.030875 -0.051500000000000004 0.05025 -0.109125 0.056625 -0.16899999999999998 0.00625 -0.059750000000000004 -0.0005 -0.12025 -0.019875 -0.17712499999999998 -0.0195 -0.056874999999999995 -0.051000000000000004 -0.108875 -0.092625 -0.15237499999999998 -0.041625 -0.043375000000000004 -0.092125 -0.07725 -0.148125 -0.09912499999999999 -0.056 -0.021875000000000002 -0.11612499999999999 -0.03125 -0.176125 -0.027499999999999997 -0.06 0.00375 -0.1185 0.0205 -0.171375 0.049249999999999995 -0.052875 0.028625 -0.09875 0.0685 -0.134625 0.11674999999999999l0.0375 0.025125Z" clip-rule="evenodd" stroke-width="1.25"></path>
  <path fill="#010101" fill-rule="evenodd" d="m21.382374999999996 21.6405 0.187875 0.2755c0.0775 0.081625 0.16125 0.15699999999999997 0.2505 0.225375 1.0145 0.801625 1.17725 0.713875 1.3651250000000001 0.576125 0.187875 -0.13775 0.40075 -0.187875 -0.212875 -1.4903749999999998 -0.05475 -0.11549999999999999 -0.12200000000000001 -0.224625 -0.200375 -0.325625 -0.083625 -0.10024999999999999 -0.18062499999999998 -0.18875 -0.288125 -0.263 -1.014375 -0.67625 -1.252375 -0.5385 -2.705125 0.62625 -0.162875 0.12525 -0.2755 0.288 -0.425875 0.42575 -0.16275 0.162875 -0.338125 0.313125 -0.488375 0.4885 -0.15362499999999998 0.20850000000000002 -0.28775 0.43075 -0.40075 0.6637500000000001 -0.11075 0.238875 -0.16225 0.500875 -0.15025 0.764 0.029625 0.309875 0.13724999999999998 0.607125 0.313 0.864125 0.162875 0.225375 0.989375 1.252375 1.4528750000000001 0.726375 0.463375 -0.526 -0.137875 -0.65125 -0.38825 -1.18975 -0.039 -0.13075 -0.039 -0.27 0 -0.40075l0.250375 -0.275625 0.12525 0.10024999999999999c1.0145 0.63875 1.17725 0.526 1.340125 0.37575 0.16275 -0.150375 0.3005 -0.325625 -0.263 -1.377625 -0.047999999999999994 -0.09724999999999999 -0.1115 -0.186125 -0.187875 -0.263l0.475875 -0.576125c-0.01 0.02225 -0.027875 0.04 -0.050124999999999996 0.050124999999999996Z" clip-rule="evenodd" stroke-width="1.25"></path>
</svg>