<svg xmlns="http://www.w3.org/2000/svg" fill="none" viewBox="0 0 30 30" id="Shop-Cart--Streamline-Freehand" height="30" width="30">
  <desc>
    Shop Cart Streamline Icon: https://streamlinehq.com
  </desc>
  <path fill="#010101" fill-rule="evenodd" d="M15.4775 11.49585c0.41212499999999996 0.2999875 0.8921250000000001 0.4932 1.397125 0.56235 0.505125 0.06913749999999999 1.019375 0.0120875 1.4969999999999999 -0.1660875 0.47750000000000004 -0.1781625 0.903625 -0.47190000000000004 1.239875 -0.8549249999999999 0.336375 -0.3830375 0.572625 -0.8434375 0.6875 -1.3400500000000002 0.5792499999999999 0.667575 1.375875 1.1089250000000002 2.2489999999999997 1.2460625 0.873125 0.13715 1.766625 -0.03875 2.522625 -0.49660000000000004 -0.36075 1.323125 -0.31725000000000003 2.7239000000000004 0.124875 4.02215 0.01 0.099375 0.059 0.19075000000000003 0.13625 0.254 0.077375 0.06325 0.176625 0.093125 0.276 0.08325 0.099375 -0.01 0.19075000000000003 -0.059 0.254 -0.13625 0.06325 -0.077375 0.093125 -0.176625 0.08325 -0.276 0.39125 -1.557875 0.433875 -3.1828250000000002 0.124875 -4.7590625 1.3864999999999998 -1.6613125000000002 0.712 -3.822275 0 -5.708425 -0.48675 -1.3851250000000002 -1.4121249999999999 -2.5736125 -2.6356249999999997 -3.38507375C22.347625 -0.30820375 7.6330875 -0.008418425 4.6602125 0.42876875000000003c-0.058775 0.0035924999999999998 -0.1161625 0.01937 -0.1685125 0.046327499999999994 -0.05235 0.02695875 -0.098525 0.06451 -0.1356 0.11027 -0.0370625 0.04575875 -0.06420000000000001 0.098725 -0.0797 0.15553625 -0.0155 0.05681 -0.019012499999999998 0.1162225 -0.0103125 0.174465 0.008687499999999999 0.05824125 0.0294 0.11403750000000001 0.0608125 0.1638475 0.031412499999999996 0.04980875 0.0728375 0.09254125 0.1216375 0.12548375 0.0488125 0.0329425 0.1039375 0.05537625 0.1618875 0.06586375 0.0579375 0.010499999999999999 0.1174375 0.0088375 0.1747 -0.0048875C5.58455 1.16574125 6.7712 1.090795 8.1202375 1.0533225c-0.5677625 1.5237025000000002 -0.9331250000000001 3.1153275000000002 -1.086725 4.734115 -1.3769 0.3575875 -2.805 0.4758875 -4.2219750000000005 0.34975 -0.33515000000000006 0.0079125 -0.6692125 0.0413125 -0.9992875 0.099925 0.4891875 -1.554275 1.10325 -3.0664625 1.8361874999999999 -4.5217625 0.0134625 -0.088225 -0.00395 -0.1783875 -0.049312499999999995 -0.2552375 -0.0453625 -0.0768625 -0.115875 -0.1356875 -0.1996125 -0.16653749999999998 -0.08373749999999999 -0.030850000000000002 -0.17556249999999998 -0.0318375 -0.25995 -0.002775 -0.084375 0.02905 -0.15612499999999999 0.0863625 -0.2031125 0.16223749999999998 -0.49235 0.8187125000000001 -0.9103875 1.6798625 -1.2491125 2.5731625000000005 -3.3351124999999997 6.9575125 2.7480375 8.843675 5.2212625 5.4960625 0.7869375000000001 1.2491125 1.1366875 2.1234875 2.7105625 2.335825 1.0064 0.1154375 2.0209125 -0.13265000000000002 2.8604625 -0.6995 0.5680000000000001 -0.361425 1.036125 -0.8596375 1.3615 -1.4489625 0.3775 0.7299625 0.9421250000000001 1.3464375 1.636375 1.786225Zm7.26975 -9.99285c0.99675 0.6732375 1.7432500000000002 1.65685 2.1235 2.798 0.62125 1.219725 0.7637499999999999 2.627675 0.39974999999999994 3.947175 -0.172875 0.31227499999999997 -0.412625 0.5825 -0.702125 0.7913625000000001 -0.2895 0.20885 -0.6214999999999999 0.3511875 -0.972375 0.416825 -0.35075 0.0656375 -0.711875 0.052950000000000004 -1.05725 -0.037137500000000004 -0.345375 -0.09010000000000001 -0.666625 -0.2553875 -0.9406249999999999 -0.4840375 -1.449 -1.7237749999999998 -1.249125 -1.7112749999999999 -1.186625 -2.0985 0.824375 0 1.66125 -0.09993749999999998 2.498125 -0.11242500000000001 0.112625 0 0.22075 -0.0447375 0.300375 -0.1243875s0.12437500000000001 -0.18767499999999998 0.12437500000000001 -0.3003c0 -0.1126375 -0.04475 -0.22066249999999998 -0.12437500000000001 -0.3003125s-0.18775 -0.1243875 -0.300375 -0.1243875l-2.498125 -0.07495c-0.0945 -1.5421375000000002 -0.349875 -3.0701875000000003 -0.762 -4.5592375 1.01175 0 1.8486250000000002 0.12491250000000001 2.49825 0.1998625 0.24975 0.0374625 0.5371250000000001 0.21233749999999998 0.5995 0.1249V1.503ZM18.725125 1.2406875c-0.025875 1.55445 0.074375 3.10845 0.299875 4.646675l-4.534375 -0.12491250000000001c0.125 -1.5547125 0.125 -3.1169374999999997 0 -4.671655 1.5115 -0.01249125 2.9853750000000003 0.03747375 4.2345 0.1498925ZM9.044575 1.02834H13.61625c-0.299875 1.518735 -0.46287500000000004 3.0613225 -0.487125 4.6091975000000005 -1.54485 -0.1984625 -3.1058375 -0.2403125 -4.6591375 -0.1249 0.2623125 -1.0367625 0.5745875 -4.4842975 0.5745875 -4.4842975ZM6.0217374999999995 8.872725c-0.309775 0.51 -0.7849125 0.8984875000000001 -1.3463 1.100775 -0.561375 0.20227499999999998 -1.1751125 0.2061375 -1.7389875 0.010937500000000001 -1.2491125 -0.4746625 -1.4114874999999998 -1.6363375 -1.2491125 -2.9229125 0.37378750000000005 -0.03765 0.7504125 -0.03765 1.1242 0 1.38505 0.2336375 2.79945 0.2336375 4.1845125 0 -0.024987500000000003 0.6995 -0.6245625 1.2116375 -0.9743124999999999 1.8112Zm5.695924999999999 1.1117124999999999c-0.9618125 0.6745125000000001 -2.4982125 0.8493875 -3.097775 -0.1374125 -0.44691250000000005 -0.9361124999999999 -0.607675 -1.983275 -0.462175 -3.0103375 1.6924125 -0.07849999999999999 3.3883875000000003 -0.020025 5.0714125 0.174875 -0.021375 0.5754625 -0.167625 1.1394 -0.428625 1.6527375 -0.261 0.5133375 -0.6304624999999999 0.9637875 -1.0828375 1.3201375000000002Zm2.5857124999999996 -2.9478999999999997c1.6237499999999998 0 2.860375 0 4.9963750000000005 -0.1374 0.224875 1.0367625 -0.46212499999999995 3.4975 -1.6113749999999998 3.6723749999999997 -0.516375 0.0082625 -1.024625 -0.1291375 -1.466375 -0.3964625 -0.44187499999999996 -0.267325 -0.7994999999999999 -0.6537375 -1.031875 -1.1149499999999999 -0.372875 -0.6203375 -0.670625 -1.2828624999999998 -0.88675 -1.9736v-0.0499625Z" clip-rule="evenodd" stroke-width="1.25"></path>
  <path fill="#010101" fill-rule="evenodd" d="M29.292375 22.300624999999997c-0.09287500000000001 -0.17687499999999998 -0.233375 -0.324375 -0.405375 -0.425875 -0.17212499999999997 -0.10149999999999999 -0.36912500000000004 -0.153 -0.569 -0.14875 -0.33725 -2.6606249999999996 -0.637 -4.859 -3.07275 -4.4342500000000005 0 -1.17425 -0.7745000000000001 -1.324125 -1.9361249999999999 -1.3741249999999998 -3.634875 0 -4.47175 0.0625 -5.096375 1.12425 -0.694125 -0.063 -1.386375 0.13899999999999998 -1.937875 0.56525 -0.551375 0.426375 -0.921125 1.0455 -1.035 1.733125 -0.202125 0.81625 -0.2655 1.6608749999999999 -0.187375 2.49825 -0.106 0.023375 -0.199 0.08662500000000001 -0.259875 0.1765 -0.060875 0.08987500000000001 -0.085 0.19974999999999998 -0.067375 0.306875 0.0175 0.10725 0.0755 0.20350000000000001 0.16199999999999998 0.26925 0.086375 0.06575 0.19474999999999998 0.095875 0.30262500000000003 0.08425h2.423375c0.062375 0.47462499999999996 0.162375 1.149125 0.24975 2.0485 -0.917125 -0.020625 -1.83475 0.012750000000000001 -2.7479999999999998 0.09987499999999999 -0.16275 -0.61275 -0.36725 -1.2137499999999999 -0.612125 -1.7986250000000001 -0.0675 -0.047875 -0.14825 -0.073625 -0.23099999999999998 -0.073625 -0.082875 0 -0.163625 0.025750000000000002 -0.23112500000000002 0.073625 -0.31224999999999997 0.21237499999999998 -0.21237499999999998 0.174875 1.0867499999999999 4.9963750000000005 0.061375 0.534375 0.24525000000000002 1.04725 0.5371250000000001 1.499 0.562125 0.587 2.111 0.42462500000000003 2.7605000000000004 0.437125 2.13625 0.08 4.27525 0.046625 6.407875 -0.09987499999999999 0.762 -0.0625 2.5732500000000003 0.34975 3.072875 -0.6496250000000001 0.5795 -1.388375 0.9986250000000001 -2.838375 1.249125 -4.321875 0.11237499999999999 -0.737 0.5995 -1.69875 0.137375 -2.585625Zm-9.843 -5.296250000000001c1.4913750000000001 0.192625 2.993125 0.29275 4.49675 0.299875 -0.02325 0.27237500000000003 -0.06075 0.5433749999999999 -0.11237499999999999 0.8118749999999999 0 0 -4.446875 0.124875 -4.696625 0 -0.24987499999999999 -0.124875 -0.262375 -0.11237499999999999 -0.27487500000000004 -0.224875 -0.011125 -0.19137500000000002 0.04 -0.38125 0.145875 -0.541125 0.105875 -0.16 0.260625 -0.28125 0.44125 -0.34575Zm-3.597375 4.746625c0.18375 -0.604375 0.40474999999999994 -1.19675 0.6619999999999999 -1.7737500000000002 0.6869999999999999 -1.74875 0.31224999999999997 -1.424 1.4365 -1.986 0.010875 0.233 0.087 0.45837500000000003 0.219375 0.6503749999999999 0.1325 0.192125 0.316125 0.34325 0.53 0.43624999999999997 0.666 0.25125000000000003 1.374625 0.37 2.0860000000000003 0.34975 2.49825 0.174875 4.159625 0.612125 4.3843749999999995 -1.2489999999999999 0.13899999999999998 0.008499999999999999 0.27699999999999997 0.029375 0.41225 0.062375 0.09987499999999999 0 0.911875 -0.074875 1.76125 3.285125 -3.8313750000000004 -0.18 -7.670375 -0.104875 -11.49175 0.224875Zm6.795125 0.836875c-0.11275 0.7065 -0.17125 1.420625 -0.174875 2.136 -1.499 -0.11237499999999999 -1.8736249999999999 0 -3.18525 -0.0625l-0.224875 -0.774375c-0.612 -1.3739999999999999 -0.5371250000000001 -1.13675 -0.562 -1.249125 1.68625 -0.0625 2.6355 -0.08737500000000001 4.147 -0.05Zm5.083875 1.9361249999999999c-0.224875 0.836875 -0.36225 1.69875 -0.5746249999999999 2.49825 -0.5996250000000001 2.273375 0 1.136625 -2.49825 1.3739999999999999 -2.7607500000000003 0.26125 -5.533625 0.37387499999999996 -8.3065 0.33725l-1.01175 -3.1227500000000004c0.8963749999999999 0.035625000000000004 1.7894999999999999 0.131625 2.673 0.28725 0.1865 0.773875 0.450125 1.527125 0.787 2.248375 0.7245 0.662125 0.6619999999999999 -1.9985 0.6495 -2.0985 1.011 0.056499999999999995 2.024375 0.056499999999999995 3.035375 0 0.074875 0.687125 0.09987499999999999 2.161 0.7618750000000001 1.9486249999999998 0.662125 -0.21225 0.33725 -0.32475 0.524625 -1.9609999999999999 0.869125 0.059375 1.742 -0.02075 2.58575 -0.237375 0.112625 0 0.220625 -0.04475 0.30025 -0.12437500000000001s0.12437500000000001 -0.18775 0.12437500000000001 -0.300375c0 -0.112625 -0.04475 -0.220625 -0.12437500000000001 -0.30025s-0.18762500000000001 -0.12437500000000001 -0.30025 -0.12437500000000001c-0.8284999999999999 0.155 -1.680625 0.129375 -2.49825 -0.075 0 -0.712 -0.08750000000000001 -0.174875 -0.174875 -2.248375 1.473875 0.083125 2.941875 0.24987499999999999 4.396875 0.499625 -0.08 0.47475 -0.19699999999999998 0.9425 -0.34975 1.399Z" clip-rule="evenodd" stroke-width="1.25"></path>
  <path fill="#222222" fill-rule="evenodd" d="M7.145825 19.889875c0.8369 0 0.7369749999999999 -2.1734999999999998 0.07495 -2.1734999999999998 -1.1366875 0.0125 -0.7119875 2.1734999999999998 -0.07495 2.1734999999999998Z" clip-rule="evenodd" stroke-width="1.25"></path>
  <path fill="#222222" fill-rule="evenodd" d="M10.1562 15.305625000000001c0.12491250000000001 0.27475 0.387225 2.910375 0.5621 4.796625 0.174875 1.8861249999999998 0.8493875 1.64875 1.04925 0 0 -1.13675 0.0874375 -2.360875 0.0874375 -2.423375 0.046975 -1.07325 -0.12735 -2.144625 -0.5121375 -3.1477500000000003 -0.1236375 -0.202875 -0.3132625 -0.35725 -0.5371125 -0.437125 -1.8543124999999998 -0.19699999999999998 -3.7213000000000003 -0.24712499999999998 -5.583512499999999 -0.149875 -0.32476249999999995 0.08737500000000001 -0.5496 0.44962500000000005 -0.19985 0.7495 0.099925 0.08737500000000001 4.7216249999999995 0.637 5.133825 0.612Z" clip-rule="evenodd" stroke-width="1.25"></path>
  <path fill="#222222" fill-rule="evenodd" d="M4.2476 20.10225c0.3997125 0.93675 0.8244125 0.8868750000000001 1.2491125 0 0 -0.5746249999999999 0 -1.11175 0.0749375 -1.249125v-1.249125c-0.3622375 -2.49825 -0.237325 -2.285875 -0.524625 -2.4232500000000003 -0.0531375 -0.0215 -0.11050000000000001 -0.030500000000000003 -0.1676625 -0.026375000000000003 -0.0571625 0.0042499999999999994 -0.1126125 0.021375 -0.1620875 0.050375 -0.0494625 0.028999999999999998 -0.09162500000000001 0.068875 -0.1232375 0.11662499999999999 -0.031625 0.047875 -0.05185000000000001 0.10225 -0.059137499999999996 0.159125 -0.2221125 1.23675 -0.3349625 2.49075 -0.3372625 3.747375 -0.0499625 0.187375 0 0.524625 0.0499625 0.874375Z" clip-rule="evenodd" stroke-width="1.25"></path>
  <path fill="#010101" fill-rule="evenodd" d="M12.1795875 22.07575c-0.77445 0 -8.2940625 -0.41212499999999996 -9.6431 -0.5371250000000001 -0.22862500000000002 -0.01875 -0.45838749999999995 -0.01875 -0.6870125 0 -0.2248375 -9.3307875 -0.2623125 -1.4365 -0.28728750000000003 -10.9046625 0 -0.09938749999999999 -0.0394875 -0.1947 -0.1097625 -0.264975 -0.070275 -0.070275 -0.1655875 -0.1097625 -0.26497375 -0.1097625 -0.099385 0 -0.19469875 0.0394875 -0.264975 0.1097625 -0.07027625 0.070275 -0.10975625 0.1655875 -0.10975625 0.264975C0.49635125 14.33925 0.42958125 18.06175 0.6128625 21.776c0.07494625 0.637 0.27480375 0.98675 0.8868624999999999 1.0867499999999999 3.5561875 0.214375 7.1214125 0.23525000000000001 10.679862499999999 0.062375 0.1126375 0 0.22066249999999998 -0.04475 0.3003125 -0.12437500000000001 0.0796 -0.079625 0.12435 -0.18762500000000001 0.12435 -0.30025 0 -0.112625 -0.04475 -0.22075 -0.12435 -0.300375 -0.07965 -0.079625 -0.18767499999999998 -0.12437500000000001 -0.3003125 -0.12437500000000001Z" clip-rule="evenodd" stroke-width="1.25"></path>
</svg>