<svg xmlns="http://www.w3.org/2000/svg" fill="none" viewBox="0 0 30 30" id="Smiley-Smile-2--Streamline-Freehand" height="30" width="30">
  <desc>
    Smiley Smile 2 Streamline Icon: https://streamlinehq.com
  </desc>
  <path fill-rule="evenodd" fill="#f7f7f7" d="M29.83725 12.4935875c-0.139625 -1.2783625 -0.428875 -2.5359249999999998 -0.86175 -3.746875 -0.840125 -2.2389375 -2.30525 -4.1896375 -4.221500000000001 -5.6203C22.866374999999998 1.711875 20.639125 0.82011875 18.296875 0.5410675c-0.1135 -0.01101625 -0.227 0.021565 -0.3175 0.09114125000000001 -0.09050000000000001 0.06957625 -0.151 0.17094 -0.16949999999999998 0.28354625 -0.01075 0.11214750000000001 0.02225 0.22411125 0.092 0.31253749999999997 0.06987499999999999 0.08842 0.171125 0.1464825 0.282625 0.16207 2.18975 0.3077 4.258624999999999 1.19125 5.995 2.5603625 1.721125 1.347475 3.021125 3.1588375 3.746875 5.2206375000000005 0.40412499999999996 1.1270875 0.680625 2.2959125 0.824375 3.4846375000000003 0.1065 1.192375 0.1065 2.392 0 3.5845 -0.11424999999999999 1.17625 -0.38725000000000004 2.331625 -0.8118749999999999 3.434625 -0.413125 1.1119999999999999 -0.95375 2.172375 -1.611125 3.1598749999999995 -1.39325 1.992375 -3.357 3.516375 -5.632875 4.37125 -2.2741249999999997 0.90825 -4.7292499999999995 1.2717500000000002 -7.169 1.061625 -1.3495625 -0.115875 -2.6772125000000004 -0.41412499999999997 -3.946675 -0.88675 -1.258375 -0.46462499999999995 -2.4283375 -1.140375 -3.4596125 -1.99825 -2.587925 -2.303125 -4.2631875 -5.4586250000000005 -4.72105 -8.892624999999999 -0.5741175 -3.441125 0.2240625 -6.9701625 2.2231375 -9.8292875 1.0570499999999998 -1.46795 2.37855 -2.7259125 3.89675 -3.7094125 1.5388375 -0.9547125 3.2795875000000003 -1.5363875 5.0832 -1.698575 0.8868750000000001 -0.08742875 1.773625 -0.16236625000000002 2.647875 -0.16236625000000002 0.58475 -0.006137500000000001 1.16925 0.03143625 1.7485 0.11240625000000001 0.050749999999999997 0.013194999999999998 0.10375000000000001 0.015585 0.1555 0.007013749999999999 0.05175 -0.00857 0.10112499999999999 -0.02791 0.144875 -0.056766250000000004 0.043875 -0.028857499999999998 0.081125 -0.06658875 0.109375 -0.11075375 0.028249999999999997 -0.04416375 0.047 -0.09377750000000001 0.054875 -0.14562875 0.008 -0.051852499999999996 0.004875 -0.1047875 -0.009 -0.15537875 -0.013749999999999998 -0.050592500000000006 -0.038125 -0.09771500000000001 -0.07125000000000001 -0.13831875 -0.03325 -0.040603749999999994 -0.074625 -0.0737825 -0.1215 -0.09739125 -0.04675 -0.02360875 -0.098125 -0.03712125 -0.1505 -0.03966125 -0.610125 -0.117825 -1.22775 -0.19294499999999998 -1.8483749999999999 -0.22481250000000003 -0.9117500000000001 0 -1.8235000000000001 0 -2.73525 0.11240625000000001C10.585875 0.5272749999999999 8.7104 1.14246125 7.043825 2.152225c-1.650425 1.0160875 -3.0986124999999998 2.328775 -4.2714375 3.8717625C0.53240625 9.0829375 -0.40602625000000003 12.904 0.16206749999999998 16.652625c0.443375 3.7727500000000003 2.240695 7.2565 5.0582825 9.80425 1.1498875 0.97525 2.459775 1.744375 3.8717625 2.273125 1.3997125 0.51425 2.861075 0.8418749999999999 4.3463875000000005 0.97425 2.663875 0.21225 5.340625 -0.19824999999999998 7.8185 -1.199 2.524625 -0.991375 4.683125 -2.7355 6.18225 -4.995875 0.703375 -1.078 1.27775 -2.235 1.711125 -3.4471249999999998 0.435625 -1.2073749999999999 0.708625 -2.467375 0.81175 -3.746875 0.077625 -1.275 0.035750000000000004 -2.5545 -0.124875 -3.8217875Z" stroke-width="1.25"></path>
  <path fill-rule="evenodd" fill="#ff8b04" d="M7.693275000000001 11.7567c0.2988875 0.17401250000000001 0.6296625 0.28628750000000003 0.9727125000000001 0.330175 0.34306250000000005 0.0438875 0.6914375 0.018500000000000003 1.0245125 -0.07466249999999999 0.33306250000000004 -0.093175 0.6440625 -0.2522125 0.9145625000000001 -0.467725 0.2705 -0.2155125 0.495 -0.4831125 0.660225 -0.78695 0.23553749999999998 -0.5072875 0.27121249999999997 -1.0847 0.0999125 -1.6171250000000001 -0.1713 -0.5324125 -0.5369875000000001 -0.9807125 -1.0241375 -1.2554750000000001 -0.33161250000000003 -0.1483875 -0.695125 -0.211275 -1.0573125 -0.18291249999999998 -0.3621875 0.0283625 -0.7114874999999999 0.147075 -1.0159500000000001 0.345275 -1.199 0.6994125 -1.9983375 2.7227249999999996 -0.574525 3.7094Z" stroke-width="1.25"></path>
  <path fill-rule="evenodd" fill="#ff8b04" d="M19.658375 11.769212499999998c0.301125 0.18727500000000002 0.6445 0.2956625 0.9986250000000001 0.31515000000000004 0.354125 0.019487499999999998 0.707375 -0.0505375 1.02725 -0.203625s0.596 -0.3843 0.802875 -0.6722875c0.207 -0.2879875 0.33799999999999997 -0.6234625 0.381 -0.97545 0.08862500000000001 -0.441175 0.034749999999999996 -0.8990750000000001 -0.153875 -1.3076375000000002 -0.1885 -0.40855 -0.502 -0.7466375000000001 -0.8952499999999999 -0.9654625 -2.135625 -0.9117500000000001 -4.233875 1.4113125000000002 -2.9349999999999996 3.15985 0.203125 0.27466250000000003 0.4685 0.4972375 0.774375 0.6494624999999999Z" stroke-width="1.25"></path>
  <path fill-rule="evenodd" fill="#ff8b04" d="M11.67745 23.13475c-0.7672625 -0.317875 -1.4763375 -0.761125 -2.09825 -1.3114999999999999 -0.791675 -0.707 -1.4038624999999998 -1.592125 -1.7860624999999999 -2.582375 -0.3822 -0.9902500000000001 -0.5234624999999999 -2.05725 -0.41209999999999997 -3.112875 0.0106 -0.0975 -0.0174625 -0.19525 -0.0781875 -0.27237500000000003 -0.0607125 -0.077 -0.1492375 -0.12725 -0.24655 -0.13974999999999999 -0.0492625 -0.007 -0.0994375 -0.004125 -0.14758749999999998 0.008499999999999999 -0.04815 0.0125 -0.0933 0.034624999999999996 -0.1328375 0.064875 -0.039525000000000005 0.030125 -0.07263750000000001 0.06799999999999999 -0.0974 0.111125 -0.0247625 0.04325 -0.040675 0.090875 -0.04681249999999999 0.14024999999999999 -0.2002 1.197625 -0.1107875 2.4257500000000003 0.260775 3.581625 0.37155 1.156 1.0144499999999999 2.206125 1.8749375 3.062875 0.6854875 0.7095 1.4936625000000001 1.289125 2.3855125 1.711 1.3541125 0.60925 2.8426125000000004 0.8587500000000001 4.3213625 0.724375 2.39625 -0.26925 4.61425 -1.396 6.24475 -3.17225 0.807875 -0.858 1.4352500000000001 -1.869375 1.845 -2.97425 0.40974999999999995 -1.104875 0.593625 -2.28075 0.540625 -3.4578750000000005 0 -0.056375 -0.011375 -0.112125 -0.033625 -0.16375 -0.02225 -0.05175 -0.054875 -0.098375 -0.095875 -0.137 -0.040875 -0.038625 -0.089375 -0.06837499999999999 -0.14225 -0.087625 -0.053 -0.019125 -0.10925000000000001 -0.02725 -0.16549999999999998 -0.023875 -0.05575 0.001625 -0.110625 0.01425 -0.1615 0.037125 -0.050875000000000004 0.02275 -0.096875 0.0555 -0.135125 0.09599999999999999 -0.03825 0.040625 -0.068125 0.088375 -0.08800000000000001 0.1405 -0.019750000000000004 0.05225 -0.029125 0.10775 -0.027499999999999997 0.1635 -0.0095 1.0425 -0.22762500000000002 2.072375 -0.641625 3.0291249999999996 -0.414 0.956625 -1.0155 1.8207499999999999 -1.768875 2.54125 -1.4677499999999999 1.5126249999999999 -3.4326250000000003 2.444125 -5.532875000000001 2.622875 -1.2425 0.10562500000000001 -2.49175 -0.10037499999999999 -3.6344250000000002 -0.5995Z" stroke-width="1.25"></path>
</svg>