<svg xmlns="http://www.w3.org/2000/svg" fill="none" viewBox="0 0 30 30" id="Smiley-Rich--Streamline-Freehand" height="30" width="30">
  <desc>
    Smiley Rich Streamline Icon: https://streamlinehq.com
  </desc>
  <path fill-rule="evenodd" fill="#ff8b04" d="M4.522475 7.6883875c0.580925 0.286025 1.2279125 0.4111125 1.8735875 0.36222499999999996 1.083875 -0.1630875 2.1768 -0.259025 3.2725125 -0.28728750000000003 0.26325 -0.022350000000000002 0.528 0.0193625 0.7716125 0.12160000000000001 0.24362499999999998 0.10222500000000001 0.45886250000000006 0.2619375 0.6273249999999999 0.4654625 0.12718749999999998 0.1798 0.2045875 0.3900375 0.224325 0.6093875 0.019750000000000004 0.21936250000000002 -0.018862499999999997 0.4400375 -0.1119125 0.6396625 -0.24075 0.5151875 -0.6446375 0.9366375 -1.149125 1.1990874999999999 -0.7993875 0.4360125 -1.7003625 0.6515500000000001 -2.610525 0.624525 -0.9394125 -0.02005 -1.8652875 -0.22815 -2.722925 -0.6120375 -0.102975 -0.0478125 -0.2205125 -0.0537 -0.32775 -0.016399999999999998 -0.10722499999999999 0.0373 -0.19574999999999998 0.11485000000000001 -0.2468125 0.21625 -0.046950000000000006 0.1044875 -0.051000000000000004 0.2232375 -0.011287499999999999 0.3306875 0.0397125 0.10744999999999999 0.1200125 0.195025 0.22362500000000002 0.243875 0.9496499999999999 0.4820875 1.9855749999999999 0.7707875 3.0476875 0.8493499999999999H7.7825c-0.025225 0.32009999999999994 -0.025225 0.6417249999999999 0 0.9617249999999999 0 0.47475 0.19985 0.9243750000000001 0.28728750000000003 1.3739999999999999 0.007625000000000001 0.056 0.026350000000000002 0.10999999999999999 0.0551 0.15862500000000002 0.0287375 0.04875 0.066925 0.09125 0.11230000000000001 0.124875 0.0453625 0.03375 0.097025 0.058124999999999996 0.151925 0.071625 0.054900000000000004 0.013500000000000002 0.11195 0.016 0.1678 0.007125 0.10930000000000001 -0.018500000000000003 0.2075125 -0.07775 0.2747625 -0.16587500000000002 0.06725 -0.088125 0.0985125 -0.1985 0.0874625 -0.30874999999999997 0 -0.37475 0 -0.762 -0.087425 -1.136625 -0.0874375 -0.37475 -0.0499625 -0.7495 -0.174875 -1.1366875 0.6655500000000001 -0.06855 1.31535 -0.2457625 1.9235375 -0.5246 0.45005000000000006 -0.209225 0.8540625000000001 -0.5057875 1.18855 -0.8724500000000001 0.3345 -0.36665000000000003 0.592825 -0.7961125 0.7599499999999999 -1.263425 0.104875 -0.354775 0.132375 -0.7279249999999999 0.080625 -1.0942375 -0.051625000000000004 -0.3663125 -0.1814 -0.7172625 -0.380375 -1.02915 -0.19801249999999998 -0.32816249999999997 -0.4646 -0.609675 -0.7815 -0.82525 -0.3169 -0.21558750000000002 -0.67665 -0.36014999999999997 -1.0546 -0.4238 -1.3764 -0.0744625 -2.756725 0.0220375 -4.1093875 0.28728750000000003 -0.33966250000000003 0.040425 -0.6840250000000001 0.010662499999999998 -1.011725 -0.0874375 -0.1069 -0.027812499999999997 -0.206175 -0.0792875 -0.2905 -0.1506375 -0.0843125 -0.07135 -0.1515125 -0.1607375 -0.19663750000000002 -0.26155 -0.0308375 -0.11322499999999999 -0.0378875 -0.231625 -0.020687499999999998 -0.3477125 0.0172 -0.1160875 0.058262499999999995 -0.22735 0.12061250000000001 -0.326775 0.1594125 -0.29031250000000003 0.37115000000000004 -0.5486375 0.624525 -0.761925 0.6450374999999999 -0.4956125 1.406075 -0.8180875 2.210825 -0.9367875000000001 0.8375375 -0.15612499999999999 1.7019000000000002 -0.07832499999999999 2.4981 0.224825 0.0894875 0.024937499999999998 0.18505 0.015725 0.26813750000000003 -0.025812500000000002 0.08307500000000001 -0.041537500000000005 0.14777500000000002 -0.11246249999999999 0.181525 -0.19901249999999998 0.020300000000000002 -0.044925 0.031212499999999997 -0.0935125 0.032075 -0.1427875 0.0008625 -0.0492875 -0.00835 -0.09822499999999999 -0.027049999999999998 -0.14382499999999998 -0.0187125 -0.0456125 -0.046537499999999996 -0.08691249999999999 -0.08176249999999999 -0.12138750000000001 -0.035225 -0.034475 -0.0771125 -0.061399999999999996 -0.12311249999999999 -0.079125 -0.7843374999999999 -0.3497625 -1.6405500000000002 -0.50815 -2.4981 -0.46215v-0.5745625C7.93625 1.872625 7.8778250000000005 1.5054124999999998 7.795 1.1433550000000001 7.7765125 1.03164875 7.715412499999999 0.9314699999999999 7.62455 0.86390875c-0.09086250000000001 -0.0675625 -0.2043875 -0.0972375 -0.3166875 -0.08277875000000001 -0.056025 0.0076212499999999996 -0.1099625 0.026353750000000002 -0.15865 0.05509875 -0.0487 0.028745 -0.09115 0.066925 -0.1249 0.1122975 -0.033737500000000004 0.04537375 -0.058075 0.09702749999999999 -0.0715875 0.15193125 -0.013500000000000002 0.054904999999999995 -0.0159125 0.111955 -0.0070875 0.167805 -0.0211625 0.35775 -0.0211625 0.7164375000000001 0 1.0741874999999999 0.022937500000000003 0.18176250000000002 0.060524999999999995 0.361375 0.1124125 0.5370874999999999 -0.8223875 0.1519125 -1.60215 0.4800125 -2.2857625 0.9617625000000001 -0.474225 0.3184 -0.8642375 0.7469874999999999 -1.1366375 1.2490625 -0.21008749999999998 0.426775 -0.25458749999999997 0.916275 -0.1249 1.3739499999999998 0.0702625 0.264975 0.1970875 0.5115999999999999 0.3717375 0.7228999999999999 0.1746375 0.2113 0.39297499999999996 0.382275 0.6399874999999999 0.501175Z" stroke-width="1.25"></path>
  <path fill-rule="evenodd" fill="#ff8b04" d="M18.899125 6.7890375c0.50775 0.3852 1.10525 0.6345375 1.736125 0.7244499999999999 1.077125 0.062075000000000005 2.14925 0.1913875 3.2101249999999997 0.38721249999999996 0.24962499999999999 0.041374999999999995 0.486 0.14095 0.6900000000000001 0.2906875 0.20400000000000001 0.149725 0.369875 0.34540000000000004 0.48412499999999997 0.57115 0.08775 0.20285 0.12012500000000001 0.42533750000000003 0.09375 0.6447749999999999 -0.026375000000000003 0.2194375 -0.110375 0.4279625 -0.24362499999999998 0.604275 -0.3425 0.42160000000000003 -0.80375 0.7305625 -1.3239999999999998 0.8868375000000001 -0.863125 0.24531250000000002 -1.774375 0.2668 -2.6479999999999997 0.06245 -0.901125 -0.2056875 -1.7510000000000001 -0.5923875 -2.498125 -1.1366375 -0.04425 -0.03445 -0.09487499999999999 -0.0598375 -0.149 -0.0747125 -0.054125 -0.014875000000000001 -0.110625 -0.01895 -0.16625 -0.0119875 -0.05575 0.0069625 -0.1095 0.0248125 -0.15825 0.05255 -0.04875 0.027737500000000002 -0.09162500000000001 0.0648 -0.126 0.1090875 -0.0345 0.04428750000000001 -0.059875 0.094925 -0.07475 0.14902500000000002 -0.014875000000000001 0.054099999999999995 -0.019 0.1106 -0.011999999999999999 0.166275 0.007 0.055662500000000004 0.024875 0.10942500000000001 0.052500000000000005 0.1582 0.02775 0.048775 0.064875 0.0916 0.109125 0.12605 0.820125 0.65755 1.7627499999999998 1.1457875 2.772875 1.4364124999999999l0.37475 0.087425c-0.069125 0.3088875 -0.11925 0.6216875000000001 -0.149875 0.9368124999999999v1.373875c-0.0033750000000000004 0.055874999999999994 0.0042499999999999994 0.11174999999999999 0.022625000000000003 0.16462500000000002 0.01825 0.052750000000000005 0.04675 0.10149999999999999 0.083875 0.14325 0.037125 0.041749999999999995 0.08212499999999999 0.07575 0.1325 0.100125 0.05025 0.024375 0.104875 0.0385 0.16075 0.041749999999999995 0.055375 0.007 0.11174999999999999 0.00225 0.165375 -0.013875 0.0535 -0.016125 0.10312500000000001 -0.043375000000000004 0.14550000000000002 -0.079875 0.042374999999999996 -0.0365 0.076625 -0.081375 0.1005 -0.132 0.023875 -0.050499999999999996 0.036875 -0.10562500000000001 0.03825 -0.1615 0.062375 -0.37475 0.137375 -0.7368750000000001 0.162375 -1.111625 0.025 -0.37475 0 -0.7495 0 -1.1241625 0.65625 0.058050000000000004 1.3175000000000001 0.0159375 1.9609999999999999 -0.12491250000000001 0.49775 -0.09592500000000001 0.9702500000000001 -0.2942375 1.387375 -0.5823625 0.41712499999999997 -0.2881125 0.769875 -0.6597625 1.03575 -1.0913625 0.178 -0.3194375 0.283625 -0.67405 0.3095 -1.0387875 0.025875 -0.36475 -0.0285 -0.730725 -0.15962500000000002 -1.0721125 -0.133625 -0.34825 -0.339625 -0.6641750000000001 -0.6044999999999999 -0.9268624999999999 -0.264875 -0.2626875 -0.5825 -0.4661625 -0.93175 -0.596975 -1.29625 -0.3752 -2.6355 -0.580925 -3.9845 -0.6120375 -0.33187500000000003 -0.0342125 -0.654125 -0.1317375 -0.9492499999999999 -0.287275 -0.104 -0.0438875 -0.195625 -0.11223749999999999 -0.2675 -0.19922499999999999 -0.07175 -0.087 -0.12137500000000001 -0.1900625 -0.14475 -0.3004 -0.007625000000000001 -0.1120875 0.008499999999999999 -0.224525 0.04725 -0.3299875 0.038625 -0.10545 0.09925 -0.2015625 0.177625 -0.28205 0.21237499999999998 -0.2476875 0.47125 -0.45137499999999997 0.7618750000000001 -0.5995375000000001 0.7240000000000001 -0.36776250000000005 1.530125 -0.54365 2.3415 -0.51085 0.81125 0.0328125 1.600625 0.2732 2.2925 0.6981999999999999 0.040124999999999994 0.028712500000000002 0.085625 0.049212500000000006 0.13375 0.0603625 0.048125 0.0111375 0.098 0.012687499999999999 0.146625 0.004575 0.04875 -0.008125 0.09537500000000002 -0.0257625 0.13724999999999998 -0.0519 0.041875 -0.0261375 0.07825 -0.0602875 0.107 -0.1004625 0.028625 -0.0401875 0.049125 -0.0856375 0.060375000000000005 -0.13375 0.011125 -0.0481125 0.012624999999999999 -0.09795 0.0045 -0.1466625 -0.008125 -0.0487125 -0.025750000000000002 -0.09535 -0.051875000000000004 -0.13724999999999998 -0.026125 -0.0419 -0.06025 -0.07823750000000002 -0.1005 -0.10694999999999999 -0.67 -0.48691249999999997 -1.443875 -0.8118375 -2.26075 -0.949275 0 -0.162375 0.075 -0.3497375 0.09987499999999999 -0.5370874999999999 0.024375 -0.35348749999999995 0.024375 -0.7082125 0 -1.0616975 0.007 -0.11397249999999999 -0.031 -0.22613250000000001 -0.10562500000000001 -0.31249499999999997 -0.07475 -0.08636375 -0.18025 -0.1400775 -0.294 -0.14965375 -0.059625 -0.01267125 -0.121125 -0.012385 -0.18062499999999998 0.00083625 -0.059375 0.013222500000000002 -0.11537499999999999 0.0390725 -0.163875 0.07579749999999999 -0.048624999999999995 0.03672375 -0.08875 0.08346375 -0.11762500000000001 0.13705 -0.028874999999999998 0.053586249999999995 -0.046 0.11276375 -0.05 0.1735225 -0.07875 0.3460025 -0.13724999999999998 0.69634 -0.174875 1.0492025 -0.0125 0.1788125 -0.0125 0.358275 0 0.5370874999999999 -0.79775 -0.0197875 -1.5903749999999999 0.133625 -2.32325 0.44966249999999997 -0.536125 0.2275375 -1.008 0.5835875 -1.373875 1.0367125000000001 -0.2755 0.35667499999999996 -0.41700000000000004 0.7987374999999999 -0.39974999999999994 1.24905 0.001125 0.2662 0.059750000000000004 0.529 0.171875 0.7704500000000001 0.112125 0.24143749999999997 0.275 0.455825 0.47762499999999997 0.6284875Z" stroke-width="1.25"></path>
  <path fill-rule="evenodd" fill="#f7f7f7" d="M12.279262500000002 1.6054750000000002c0.35611249999999994 -0.08548750000000001 0.7204875 -0.1315625 1.0867375 -0.1374h2.28575c0.747625 -0.07215 1.5005 -0.07215 2.24825 0 0.0475 0.015399999999999999 0.09775 0.021124999999999998 0.1475 0.01685 0.04975 -0.004275 0.09825 -0.018475 0.14250000000000002 -0.041749999999999995 0.044125 -0.023275 0.08325 -0.0551625 0.11499999999999999 -0.0937875 0.03175 -0.038625 0.055375 -0.08321250000000001 0.06962499999999999 -0.13112000000000001 0.015250000000000001 -0.04671625 0.020874999999999998 -0.09605000000000001 0.0165 -0.1449975 -0.0045 -0.04894625 -0.01875 -0.09648375000000001 -0.042125 -0.1397175 -0.023375 -0.04323375 -0.055375 -0.08126 -0.093875 -0.11176375000000001 -0.0385 -0.030503750000000003 -0.082875 -0.052847500000000006 -0.13025 -0.06567 -0.6701250000000001 -0.36357375 -1.39625 -0.6126487500000001 -2.1483749999999997 -0.736940625 -0.31600000000000006 -0.025570812499999998 -0.633375 -0.025570812499999998 -0.949375 0 -0.31475000000000003 0.0112675 -0.6281249999999999 0.048870375 -0.93675 0.112414375 -0.737375 0.11777750000000001 -1.453125 0.34511875 -2.1233750000000002 0.6744875 -0.052625 0.019235000000000002 -0.1007625 0.04899375 -0.1415 0.08746125 -0.0407375 0.0384675 -0.0732 0.08483375 -0.0954125 0.13626875 -0.0222 0.051434999999999995 -0.0337 0.10685874999999999 -0.0337625 0.16288375 -0.00007500000000000001 0.05602625 0.011275 0.11148125 0.03335 0.16296875 0.01945 0.0526625 0.0491375 0.1009625 0.08735 0.142075 0.038225 0.041124999999999995 0.084225 0.0742625 0.135325 0.0974875 0.051112500000000005 0.023237499999999998 0.106325 0.0361 0.1624375 0.0378625 0.056112499999999996 0.00175 0.11201249999999999 -0.007625000000000001 0.164475 -0.027612499999999998Z" stroke-width="1.25"></path>
  <path fill-rule="evenodd" fill="#f7f7f7" d="M29.665875 12.8095c-0.16174999999999998 -1.2538375 -0.463375 -2.4855875 -0.8992500000000001 -3.67225 -0.016875 -0.053337499999999996 -0.044375 -0.1026875 -0.08075 -0.14505 -0.0365 -0.042374999999999996 -0.08125 -0.076875 -0.1315 -0.10141249999999999 -0.05025 -0.024537500000000004 -0.10500000000000001 -0.038587500000000004 -0.16075 -0.0413125 -0.055874999999999994 -0.002725 -0.11174999999999999 0.0059375 -0.164125 0.025474999999999998 -0.106625 0.0395125 -0.19362500000000002 0.11900000000000001 -0.24262499999999998 0.2216 -0.048875 0.1026 -0.056 0.22025 -0.019624999999999997 0.327975 0.37875 1.1343875 0.63 2.307375 0.749375 3.49735 0.112125 1.19225 0.112125 2.3925 0 3.5847499999999997 -0.09537500000000002 1.19475 -0.35162499999999997 2.37125 -0.7618750000000001 3.497375 -0.43825000000000003 1.09525 -1.00425 2.135 -1.68625 3.097625 -1.3875000000000002 1.993625 -3.341125 3.525125 -5.60825 4.396625 -2.273 0.8963749999999999 -4.7223749999999995 1.255375 -7.157 1.04925 -1.3491624999999998 -0.111875 -2.6769125 -0.40599999999999997 -3.94705 -0.874375 -1.26505 -0.455625 -2.44345 -1.122875 -3.4848625 -1.9735 -2.2541125 -1.9572500000000002 -3.824975 -4.582625 -4.4840875 -7.49425 -0.72479125 -2.936125 -0.5683925 -6.0206 0.44965 -8.868287500000001 0.0313375 -0.05015 0.0507625 -0.1068125 0.0568 -0.16565 0.0060375 -0.058824999999999995 -0.0014875 -0.11825000000000001 -0.0219875 -0.173725 -0.0205 -0.055475000000000003 -0.053437500000000006 -0.1055125 -0.096275 -0.146275 -0.0428375 -0.040775000000000006 -0.09445 -0.0711875 -0.150875 -0.0889125 -0.0516625 -0.026175 -0.10868749999999999 -0.04001249999999999 -0.16660000000000003 -0.040437499999999994 -0.057925 -0.00042500000000000003 -0.11514999999999999 0.012587500000000001 -0.16718750000000002 0.038 -0.0520375 0.0254125 -0.0974875 0.06255 -0.1327625 0.10848750000000001 -0.035275 0.045925 -0.05941250000000001 0.0994125 -0.0705375 0.15625C0.11556037499999999 12.0040625 -0.14952 15.26325 0.5255525 18.39275c0.62635 3.182375 2.2493475 6.08275 4.633985 8.281125 1.1428 0.9755 2.4438874999999998 1.748625 3.847075 2.285875 1.3873375 0.5271250000000001 2.8423625 0.855125 4.3217625 0.97425 2.676 0.237875 5.370125 -0.16899999999999998 7.8565 -1.186625 2.5135 -0.99375 4.6594999999999995 -2.738375 6.145375 -4.99625 0.688 -1.078625 1.253625 -2.23075 1.686125 -3.434875 0.42762500000000003 -1.2085 0.6922499999999999 -2.4686250000000003 0.787 -3.747125 0.077125 -1.25475 0.031125 -2.5140000000000002 -0.1375 -3.7596249999999998Z" stroke-width="1.25"></path>
  <path fill-rule="evenodd" fill="#ff8b04" d="M23.6955 17.305999999999997c-0.415625 -0.036875 -0.8336250000000001 -0.036875 -1.249125 0 -1.748625 0 -5.52075 0.224875 -8.89325 0.42474999999999996 -3.3724125 0.19987499999999997 -6.7823125 0.562 -6.7823125 0.562 -0.1130875 0.08274999999999999 -0.20646250000000002 0.1895 -0.2734 0.312625 -0.06695000000000001 0.12312500000000001 -0.1058125 0.2595 -0.11381250000000001 0.39937500000000004 -0.021025000000000002 0.6848750000000001 0.0892125 1.3675000000000002 0.32475 2.011 0.3568625 1.19 0.966075 2.28925 1.78615 3.2224999999999997 0.8505125 0.893875 1.8763125 1.602625 3.0132375 2.081875 1.1368875 0.47925 2.3605125 0.71875 3.5942625 0.7035 2.493375 -0.100125 4.863 -1.113625 6.657375 -2.84775 1.1625 -1.14575 1.987875 -2.588875 2.3857500000000003 -4.171875 0.21712499999999998 -0.692125 0.243 -1.4301249999999999 0.074875 -2.135875 -0.041875 -0.125875 -0.11050000000000001 -0.24112499999999998 -0.201 -0.338125 -0.09050000000000001 -0.097 -0.20087500000000003 -0.173375 -0.32349999999999995 -0.224Zm-1.5613750000000002 3.947c-0.35187499999999994 0.685125 -0.811625 1.30925 -1.3615 1.8486250000000002 -1.5288750000000002 1.54725 -3.5745 2.4766250000000003 -5.7456249999999995 2.6105 -1.077 0.0415 -2.151125 -0.137625 -3.156325 -0.5263749999999999 -1.0052375 -0.38875 -1.920375 -0.979 -2.6892 -1.734375 -0.5940375 -0.6432499999999999 -1.0678625 -1.38775 -1.3989375000000002 -2.198375 -0.2566875 -0.576875 -0.43318750000000006 -1.18625 -0.5246 -1.811125v-0.46212499999999995c1.5562624999999999 -0.15737500000000001 3.1197625 -0.232375 4.6839375 -0.22474999999999998 3.62225 -0.075 8.24375 -0.075 10.354624999999999 -0.075h0.6244999999999999c-0.07225 0.904625 -0.34075 1.7827499999999998 -0.786875 2.5729999999999995Z" stroke-width="1.25"></path>
</svg>