<svg xmlns="http://www.w3.org/2000/svg" fill="none" viewBox="0 0 30 30" id="Smiley-Shine-Big-Eyes--Streamline-Freehand" height="30" width="30">
  <desc>
    Smiley Shine Big Eyes Streamline Icon: https://streamlinehq.com
  </desc>
  <path fill-rule="evenodd" fill="#f7f7f7" d="M11.4988375 2.3341000000000003c0.8684749999999999 -0.37725000000000003 1.7997874999999999 -0.5889 2.7460375 -0.6240875 0.39937500000000004 0 0.81125 0 1.2481250000000002 -0.0624125 0.43687499999999996 -0.0624125 0.811375 0 1.24825 0 0.9365 -0.0503375 1.8718750000000002 0.11624999999999999 2.7335 0.4867875 0.039125 0.0285375 0.08349999999999999 0.04895 0.130625 0.060012499999999996 0.047125 0.011075 0.09599999999999999 0.012587500000000001 0.143625 0.0044375000000000005 0.04775 -0.00815 0.093375 -0.025787499999999998 0.134125 -0.0518625 0.040749999999999995 -0.026075 0.075875 -0.060062500000000005 0.103375 -0.0999625 0.05437499999999999 -0.08005 0.075625 -0.17806249999999998 0.059375 -0.273475 -0.01625 -0.0954125 -0.068875 -0.1808 -0.14675 -0.23827500000000001 -0.8816250000000001 -0.6790425 -1.928875 -1.109985 -3.033125 -1.24818375 -0.47987500000000005 -0.062288750000000004 -0.964375 -0.08316875 -1.4478750000000002 -0.06240875 -0.46087500000000003 0.022538749999999996 -0.919625 0.076755 -1.373 0.16226375 -1.071 0.20206124999999997 -2.0874 0.627345 -2.98315 1.24817875 -0.047712500000000005 0.02935 -0.08912500000000001 0.06786249999999999 -0.12187500000000001 0.1132875 -0.03275 0.0454375 -0.056187499999999994 0.0969125 -0.06895 0.15145 -0.0127625 0.054525 -0.014599999999999998 0.11105000000000001 -0.005425 0.1663 0.0091875 0.05525000000000001 0.029225 0.1081375 0.05895 0.15561250000000001 0.0630125 0.0888125 0.15775 0.1500125 0.264625 0.1709125 0.10687500000000001 0.020912499999999997 0.2176875 -0.0000625 0.30953749999999997 -0.058575Z" stroke-width="1.25"></path>
  <path fill-rule="evenodd" fill="#f7f7f7" d="M29.697375 12.86875c-0.00625 -0.055874999999999994 -0.023375 -0.10999999999999999 -0.050749999999999997 -0.159125 -0.02725 -0.049249999999999995 -0.064 -0.0925 -0.108125 -0.12725 -0.044125 -0.034875 -0.09475 -0.060625 -0.148875 -0.07575 -0.054125 -0.0150875 -0.11075 -0.0192875 -0.166625 -0.012325000000000001 -0.109125 0.01845 -0.20737499999999998 0.0777 -0.27449999999999997 0.16570000000000001 -0.06725 0.088125 -0.09849999999999999 0.19837500000000002 -0.08737500000000001 0.30862500000000004 0.074875 0.624125 0.11225 1.2481250000000002 0.12475 1.85975 0.01325 0.620875 -0.01175 1.242 -0.074875 1.85975 -0.11424999999999999 1.1635 -0.38712499999999994 2.30575 -0.81125 3.395125 -0.419875 1.094875 -0.964375 2.137625 -1.62275 3.108 -1.38525 1.9543749999999998 -3.330625 3.44275 -5.579375 4.26875 -2.236375 0.8795 -4.64475 1.233875 -7.03975 1.036 -1.318 -0.11549999999999999 -2.6148749999999996 -0.405125 -3.8568249999999997 -0.86125 -1.260025 -0.43325 -2.434425 -1.08375 -3.46995 -1.92225 -1.78045 -1.51275 -3.132025 -3.467 -3.9192875 -5.66675 -0.8186 -2.224625 -1.1257625 -4.605125 -0.8987 -6.9647499999999996 0.0057375 -0.047625 0.0020625 -0.09575 -0.010825 -0.141875 -0.012899999999999998 -0.046125 -0.0347375 -0.08925000000000001 -0.0643 -0.12687500000000002 -0.02955 -0.03775 -0.0662375 -0.06924999999999999 -0.1079625 -0.09275 -0.041725 -0.0235 -0.0876625 -0.0385 -0.1351875 -0.04425 -0.0475375 -0.00575 -0.0957375 -0.002 -0.14185 0.010875 -0.04611375 0.012875000000000001 -0.089235 0.034749999999999996 -0.126905 0.06425 -0.03766875 0.029625 -0.0691475 0.06625 -0.09263874999999999 0.10800000000000001 -0.02349125 0.041749999999999995 -0.03853375 0.087625 -0.04427125 0.13525 -0.33546125000000004 2.479875 -0.09630875 5.003875 0.6989774999999999 7.3767499999999995 0.76945 2.4175 2.1595875 4.590875 4.0316374999999995 6.30325 1.1055 0.967625 2.373125 1.7323749999999998 3.7445375 2.2592499999999998 1.3716 0.541625 2.8130125 0.88625 4.2813 1.0234999999999999 2.621125 0.189125 5.250125 -0.238375 7.67625 -1.24825 2.469625 -0.96925 4.5825 -2.672625 6.05375 -4.880375 0.67525 -1.061625 1.227875 -2.196375 1.6476250000000001 -3.3825 0.424125 -1.1865 0.6845 -2.425375 0.773875 -3.682125v-1.95975c0 -0.7113750000000001 -0.11237499999999999 -1.298 -0.19974999999999998 -1.934625Z" stroke-width="1.25"></path>
  <path fill-rule="evenodd" fill="#ff8b04" d="M23.880750000000003 17.4745c-0.415125 -0.0385 -0.833 -0.0385 -1.2481250000000002 0 -1.7225 0 -5.429625 0.22474999999999998 -8.73725 0.41200000000000003 -3.3077125 0.18712499999999999 -6.6778125 0.5616249999999999 -6.6778125 0.5616249999999999 -0.1104 0.081375 -0.20127499999999998 0.186375 -0.26605 0.30724999999999997 -0.064775 0.120875 -0.1018 0.25475000000000003 -0.10840000000000001 0.39175000000000004 -0.020249999999999997 0.6711250000000001 0.08558750000000001 1.34 0.31203749999999997 1.9721250000000001 0.353225 1.1705 0.9533750000000001 2.2515 1.7599375 3.1703750000000004 0.837525 0.879375 1.8471000000000002 1.577 2.965875 2.0495 1.1187875 0.472375 2.3227875 0.7095 3.5371625 0.6965 2.4495 -0.0975 4.777375 -1.0927499999999999 6.5405 -2.7958749999999997 1.146875 -1.127625 1.96275 -2.547875 2.359 -4.106625 0.207875 -0.68075 0.2295 -1.4048749999999999 0.0625 -2.096875 -0.034624999999999996 -0.12575 -0.0975 -0.24175 -0.18412499999999998 -0.339125 -0.08662500000000001 -0.09737499999999999 -0.19449999999999998 -0.173625 -0.31525 -0.22262500000000002Zm-1.53525 3.881875c-0.343375 0.679125 -0.799125 1.29525 -1.348 1.822375 -1.4954999999999998 1.505125 -3.4875 2.414625 -5.604375 2.5587500000000003 -1.058375 0.0445 -2.1145 -0.12987500000000002 -3.10245 -0.512125 -0.9879375 -0.382375 -1.8863750000000001 -0.964375 -2.63915 -1.709625 -0.61325 -0.641875 -1.0964500000000001 -1.39625 -1.4229375 -2.22175 -0.2508625 -0.5646249999999999 -0.42305000000000004 -1.161 -0.5117499999999999 -1.7725v-0.46175c1.547875 -0.138125 3.1018375 -0.1965 4.655725 -0.17475000000000002 3.5573125 -0.074875 8.1006875 -0.08737500000000001 10.1851875 -0.08737500000000001h0.624125c-0.094375 0.9025 -0.379375 1.77475 -0.8363750000000001 2.5587500000000003Z" stroke-width="1.25"></path>
  <path fill-rule="evenodd" fill="#ff8b04" d="M4.6463125 10.7095625c0.6922625 1.1253625 1.297325 2.3020625 1.8098625 3.5198125000000005 0.09036249999999998 0.1915 0.2335375 0.353 0.41265 0.465875 0.1791125 0.11275 0.38671249999999996 0.172 0.598375 0.17075 0.1872 -0.053875 0.3592 -0.15075 0.50225 -0.282875 0.14305 -0.13225 0.253175 -0.29612499999999997 0.32155 -0.4785 0.4844375 -1.3339999999999999 1.0556625 -2.634925 1.7100125 -3.8943375000000002 0.6740124999999999 -0.8862125 2.8083625000000003 -1.5727125 3.5697374999999996 -2.109425 0.16699999999999998 -0.0905125 0.307 -0.2237 0.405625 -0.3859625 0.09875 -0.1622625 0.152625 -0.34781249999999997 0.15612499999999999 -0.5377 -0.041 -0.1683 -0.1165 -0.3262375 -0.22175 -0.4637625s-0.238125 -0.25163749999999996 -0.389875 -0.33506250000000004c-1.3775625 -0.5252375 -2.723675 -1.129525 -4.031625 -1.809875 -1.0484625 -0.8238 -1.8098625 -3.1828624999999997 -2.4464375 -3.9941775 -0.08645 -0.132525 -0.20245 -0.24320000000000003 -0.33890000000000003 -0.3233325 -0.1364375 -0.08013124999999999 -0.28959999999999997 -0.127537875 -0.44745 -0.13849462499999998 -0.31205 0 -0.64905 0.374454625 -0.86125 1.023509625 -0.26805 1.2682825 -0.6140375 2.5188450000000002 -1.0359875 3.7445450000000005C3.8599499999999995 5.891575 1.5383375 6.890125 0.67708875 7.489249999999999c-0.17593625000000002 0.0970625 -0.32225 0.24003750000000001 -0.42335875 0.41368750000000004 -0.10111 0.1736375 -0.153228375 0.37144999999999995 -0.150805 0.572375 0.05880625 0.16986250000000003 0.15751125000000002 0.323125 0.2878275 0.446925 0.13031625 0.12380000000000001 0.28843625 0.21451250000000002 0.46108250000000006 0.26453750000000004 0.86124 0.3869375 3.0330775 0.7988375000000001 3.7944774999999997 1.5227875ZM4.0097375 6.627999999999999c0.5196375 -0.35152500000000003 0.9476249999999999 -0.8223 1.248175 -1.373 0.13417500000000002 -0.32382500000000003 0.2426875 -0.6577 0.32453750000000003 -0.9985375000000001 0.26211249999999997 -1.048475 0.39941249999999995 -2.284175 0.64905 -3.00812125L6.2564625 1.03615c0 0.06240875 0.14978750000000002 0.11233625 0.1997125 0.19970875 0.3869375 0.62409125 0.7988375000000001 1.74745375 1.323075 2.69607875 0.26661250000000003 0.5403249999999999 0.6305 1.026925 1.0734375 1.4354 0.424075 0.3472 0.8894249999999999 0.640675 1.385475 0.8737375000000001 0.7613875000000001 0.3494875 1.6226375000000002 0.6740124999999999 2.2217625 0.973575l0.14982499999999999 0.08737500000000001h-0.1373375c-0.6116125 0.2995625 -1.460375 0.6365750000000001 -2.184325 1.0359875 -0.5207625 0.2526125 -0.987175 0.6045375 -1.373 1.036 -0.6510375 1.098325 -1.1864625 2.2611875 -1.5976750000000002 3.4699875000000002 -0.444725 -1.1040999999999999 -1.0187375 -2.1515500000000003 -1.7100000000000002 -3.1205 -0.44317500000000004 -0.3759 -0.9565250000000001 -0.66015 -1.5103 -0.8362875000000001 -0.773875 -0.27459999999999996 -1.6725625 -0.4867875 -2.3341000000000003 -0.6740124999999999 0.5491999999999999 -0.43686250000000004 1.4978125 -0.99855 2.246725 -1.5852Z" stroke-width="1.25"></path>
  <path fill-rule="evenodd" fill="#ff8b04" d="M16.117125 6.865c-0.0036249999999999998 0.1882 0.046 0.3736 0.143125 0.534825 0.09724999999999999 0.1612125 0.23800000000000002 0.291675 0.406125 0.37635 0.736375 0.5242375 2.8083750000000003 1.185775 3.457375 2.0470125 0.630125 1.2093125 1.1763750000000002 2.4604375000000003 1.635125 3.7445625 0.071625 0.17775 0.18312499999999998 0.33662499999999995 0.32599999999999996 0.464375 0.142875 0.127625 0.31325 0.22075 0.49787499999999996 0.27199999999999996 0.210625 0.003875 0.417875 -0.052875 0.597125 -0.1635 0.17925 -0.110625 0.32287499999999997 -0.2705 0.413875 -0.4605 0.49175 -1.1802 1.076 -2.3196 1.7474999999999998 -3.4075875 0.736375 -0.7489125000000001 2.8457500000000002 -1.110875 3.6696250000000004 -1.460375 0.48675 -0.21218750000000003 0.6990000000000001 -0.499275 0.736375 -0.698975 0.0065 -0.200175 -0.042624999999999996 -0.39822499999999994 -0.14175 -0.5722499999999999 -0.09912499999999999 -0.17401250000000001 -0.2445 -0.3172375 -0.419875 -0.4138125 -0.823875 -0.58665 -3.083 -1.5602375 -3.557375 -2.496375 -0.40737500000000004 -1.1730875 -0.745 -2.369275 -1.011 -3.5822775C24.405 0.4119 24.080499999999997 0.062409125 23.731 0c-0.157625 0.005578287500000001 -0.311625 0.049391375 -0.448625 0.1276675 -0.136875 0.07827624999999999 -0.252875 0.18866999999999998 -0.337625 0.3216775 -0.624125 0.7863549999999999 -1.360625 3.07053 -2.384125 3.8693675 -1.264625 0.6579375 -2.56475 1.245475 -3.8942500000000004 1.7599375 -0.144 0.0824 -0.267875 0.19565 -0.36275 0.33161250000000003 -0.095 0.13596250000000001 -0.15862500000000002 0.29125 -0.1865 0.4547375Zm1.635125 0c0.586625 -0.287075 1.4105 -0.599125 2.146875 -0.9486125 0.4745 -0.21392499999999998 0.922625 -0.4819875 1.3355000000000001 -0.7988375000000001 0.433875 -0.3927625 0.7969999999999999 -0.8571875 1.0735000000000001 -1.373 0.48675 -0.9111750000000001 0.898625 -1.9971 1.2481250000000002 -2.60870375 0 -0.08737375 0.137375 -0.13729999999999998 0.18724999999999997 -0.19971 -0.008875000000000001 0.06627125 -0.008875000000000001 0.13343875 0 0.19971 0.22474999999999998 0.69897875 0.37449999999999994 1.90971625 0.624125 2.9332287499999996 0.077875 0.32827500000000004 0.18225000000000002 0.6496875000000001 0.312 0.9611000000000001 0.27825 0.5329125 0.68075 0.9909999999999999 1.173375 1.33555 0.7113750000000001 0.5741625 1.610125 1.1108875 2.20925 1.5103 -0.624125 0.1872375 -1.5227499999999998 0.37446250000000003 -2.2966249999999997 0.6490625 -0.5405 0.1747625 -1.041125 0.4547375 -1.472875 0.8238 -0.6633749999999999 0.931375 -1.21625 1.9366625000000002 -1.6476250000000001 2.9956375 -0.354125 -1.1644875000000001 -0.82675 -2.289575 -1.4105 -3.3576125 -0.3755 -0.4202375 -0.829125 -0.7635875000000001 -1.3355000000000001 -1.011025 -0.7115 -0.3869375 -1.53525 -0.7114624999999999 -2.121875 -0.99855h-0.09987499999999999l0.074875 -0.1123375Z" stroke-width="1.25"></path>
</svg>