<svg xmlns="http://www.w3.org/2000/svg" fill="none" viewBox="0 0 30 30" id="Smiley-Zipped--Streamline-Freehand" height="30" width="30">
  <desc>
    Smiley Zipped Streamline Icon: https://streamlinehq.com
  </desc>
  <path fill-rule="evenodd" fill="#f7f7f7" d="M29.83725 12.4948375c-0.139625 -1.2783625 -0.428875 -2.5359249999999998 -0.86175 -3.7468624999999998 -0.83575 -2.24135 -2.3017499999999997 -4.1931875000000005 -4.221500000000001 -5.6203125C22.866374999999998 1.7131374999999998 20.639125 0.82137375 18.296875 0.5423225c-0.1135 -0.01101625 -0.227 0.021565 -0.3175 0.09114125000000001 -0.09050000000000001 0.06957625 -0.151 0.17094 -0.16949999999999998 0.28354625 -0.01075 0.11214750000000001 0.02225 0.2241125 0.092 0.31253749999999997 0.06987499999999999 0.08842749999999999 0.171125 0.14649 0.282625 0.162065 2.18975 0.3077 4.258624999999999 1.19125 5.995 2.5603625 1.721125 1.347475 3.021125 3.15885 3.746875 5.2206375000000005 0.40412499999999996 1.1270875 0.680625 2.2959125 0.824375 3.4846375000000003 0.1065 1.192375 0.1065 2.392 0 3.5845 -0.115875 1.17475 -0.384625 2.3293749999999998 -0.799375 3.434625 -0.42250000000000004 1.110125 -0.967125 2.169875 -1.6236249999999999 3.1598749999999995 -1.39325 1.992375 -3.357 3.516375 -5.632875 4.3713750000000005 -2.2741249999999997 0.9081250000000001 -4.7292499999999995 1.2716250000000002 -7.169 1.0614999999999999 -1.3495625 -0.115875 -2.6772125000000004 -0.41412499999999997 -3.946675 -0.88675 -1.258375 -0.46462499999999995 -2.4283375 -1.140375 -3.4596125 -1.99825 -2.592375 -2.299625 -4.2685875 -5.457 -4.72105 -8.892624999999999 -0.5795825 -3.44125 0.2190625 -6.9723749999999995 2.2231375 -9.8292875 1.0570499999999998 -1.4679375000000001 2.37855 -2.7259125 3.89675 -3.7094 1.5378500000000002 -0.9568375 3.2791125 -1.5386875 5.0832 -1.6985875 0.8868750000000001 -0.08742375 1.761125 -0.16236125 2.647875 -0.16236125 0.58475 -0.006137500000000001 1.16925 0.03143625 1.7485 0.11240625000000001 0.050749999999999997 0.013194999999999998 0.10375000000000001 0.015585 0.1555 0.007013749999999999 0.05175 -0.00857 0.10112499999999999 -0.02790875 0.144875 -0.056766250000000004 0.043875 -0.028857499999999998 0.081125 -0.06658875 0.109375 -0.11075375 0.028249999999999997 -0.04416375 0.047 -0.09377750000000001 0.054875 -0.14562875 0.008 -0.051852499999999996 0.004875 -0.10478625 -0.009 -0.15537875 -0.013749999999999998 -0.050592500000000006 -0.038125 -0.09771500000000001 -0.07125000000000001 -0.13831875 -0.03325 -0.0406025 -0.074625 -0.0737825 -0.1215 -0.09739125 -0.04675 -0.02360875 -0.098125 -0.03712 -0.1505 -0.03966125 -0.610125 -0.117825 -1.22775 -0.19294499999999998 -1.8483749999999999 -0.22481250000000003 -0.91725 -0.013013750000000001 -1.834625 0.024511250000000002 -2.74775 0.11240625000000001 -1.9365750000000002 0.17541625000000002 -3.8075625000000004 0.7905375000000001 -5.470425 1.7984962500000001 -1.6528875 1.0128249999999999 -3.1016250000000003 2.3260125 -4.2714375 3.871775C0.53240625 9.0841875 -0.40602625000000003 12.905249999999999 0.16206749999999998 16.653875c0.443375 3.7727500000000003 2.240695 7.2565 5.0582825 9.804375 1.1498875 0.975125 2.459775 1.74425 3.8717625 2.273 1.3997125 0.51425 2.861075 0.8418749999999999 4.3463875000000005 0.97425 2.663875 0.21225 5.340625 -0.19824999999999998 7.8185 -1.199 2.524625 -0.991375 4.683125 -2.7355 6.18225 -4.995875 0.703375 -1.078 1.27775 -2.235 1.711125 -3.4471249999999998 0.435625 -1.2073749999999999 0.708625 -2.467375 0.81175 -3.746875 0.077625 -1.275 0.035750000000000004 -2.5545 -0.124875 -3.8217875Z" stroke-width="1.25"></path>
  <path fill-rule="evenodd" fill="#ff8b04" d="M11.2653375 10.758799999999999c0.23553749999999998 -0.5072875 0.27121249999999997 -1.0847125 0.0999125 -1.6171250000000001 -0.1713 -0.5324249999999999 -0.5369875000000001 -0.9807125 -1.0241375 -1.2554750000000001 -0.33161250000000003 -0.1484 -0.695125 -0.21128750000000002 -1.0573125 -0.18291249999999998 -0.3621875 0.0283625 -0.7114874999999999 0.147075 -1.0159625 0.345275 -1.24895 0.749375 -2.0108125 2.7227249999999996 -0.5745125 3.746875 0.30115 0.17257499999999998 0.633975 0.28275 0.9786125 0.3239375 0.34465 0.0412 0.69405 0.012575 1.0274 -0.0841625 0.3333375 -0.09675 0.6437875 -0.2596125 0.9128375 -0.4789125 0.26905 -0.2192875 0.4911875 -0.49051249999999996 0.6531625000000001 -0.7975Z" stroke-width="1.25"></path>
  <path fill-rule="evenodd" fill="#ff8b04" d="M19.658375 11.7704375c0.301125 0.18727500000000002 0.6445 0.29565 0.9986250000000001 0.31515000000000004 0.354125 0.019487499999999998 0.707375 -0.05055 1.02725 -0.2036375s0.596 -0.3843 0.802875 -0.672275c0.207 -0.2879875 0.33799999999999997 -0.6234625 0.381 -0.9754625 0.08862500000000001 -0.4411625 0.034749999999999996 -0.8990624999999999 -0.153875 -1.307625 -0.1885 -0.40855 -0.502 -0.7466375000000001 -0.8952499999999999 -0.965475 -2.135625 -0.9117375 -4.233875 1.411325 -2.9349999999999996 3.1598625 0.203125 0.27466250000000003 0.4685 0.4972375 0.774375 0.6494624999999999Z" stroke-width="1.25"></path>
  <path fill-rule="evenodd" fill="#ff8b04" d="M15.961375 18.05275c0 -0.487125 -0.074875 -0.97425 -0.124875 -1.461375 0.005125 -0.0495 0.000125 -0.09962499999999999 -0.015 -0.147125 -0.015125 -0.0475 -0.039874999999999994 -0.091375 -0.072625 -0.129 -0.032875 -0.0375 -0.07312500000000001 -0.06775 -0.11812500000000001 -0.089 -0.045125 -0.021375 -0.09412500000000001 -0.033 -0.144 -0.0345 -0.049249999999999995 -0.0033750000000000004 -0.09862499999999999 0.0029999999999999996 -0.145375 0.01875s-0.08987500000000001 0.040625 -0.127125 0.07312500000000001c-0.037125 0.0325 -0.067375 0.072 -0.08925000000000001 0.11624999999999999s-0.034749999999999996 0.09237499999999998 -0.037875 0.141625c-0.11237499999999999 0.512 -0.24975 1.011625 -0.36225 1.5237500000000002h-1.248875c-1.5487375 0 -3.08495 0.17475000000000002 -4.6086875 0.36212500000000003 -0.22468749999999998 -0.623125 -0.496075 -1.228625 -0.8118124999999999 -1.8110000000000002 -0.007775 -0.059 -0.0294875 -0.11525 -0.0633625 -0.16424999999999998 -0.0338625 -0.049 -0.07891250000000001 -0.08912500000000001 -0.1314125 -0.11725 -0.0524875 -0.028124999999999997 -0.110925 -0.04325 -0.17045000000000002 -0.04425 -0.059525 -0.001 -0.118425 0.01225 -0.1718375 0.0385 -0.047775 0.014 -0.09216250000000001 0.03775 -0.13037500000000002 0.06962499999999999 -0.038212499999999996 0.032 -0.069425 0.07150000000000001 -0.0916875 0.11599999999999999 -0.022275 0.0445 -0.035125 0.093125 -0.0377375 0.142875 -0.0026249999999999997 0.04975 0.0050374999999999994 0.0995 0.0225 0.146125 0.0749375 0.524625 0.099925 1.149 0.18735000000000002 1.836l-1.4487875 0.23725c-0.0493875 0.006125 -0.0970625 0.022125 -0.140225 0.046875 -0.0431625 0.02475 -0.080975 0.057875 -0.1112 0.09737499999999999 -0.030225000000000002 0.03950000000000001 -0.0522875 0.08462499999999999 -0.064875 0.13287500000000002 -0.012575 0.048125 -0.015449999999999998 0.09825 -0.0084375 0.1475 0.0154625 0.098375 0.0682125 0.187 0.14728750000000002 0.2475 0.07907499999999999 0.060375000000000005 0.1784 0.088125 0.2773625 0.07725 0.499575 0 1.01165 -0.08737500000000001 1.5112375 -0.09987499999999999 0 0.24975 0.1249 0.499625 0.1998375 0.749375 0.199825 0.637 0.4246375 1.2489999999999999 0.624475 1.8235000000000001 0.021525 0.110875 0.0862625 0.20875000000000002 0.17995 0.27199999999999996 0.0936875 0.06325 0.2086625 0.08675000000000001 0.319625 0.065125 0.11097499999999999 -0.0215 0.2088375 -0.08625000000000001 0.2720875 -0.179875 0.0632375 -0.09375 0.0866625 -0.20875000000000002 0.0651375 -0.319625 0 -0.612 -0.06245 -1.2489999999999999 -0.1373875 -1.935875 0 -0.174875 0 -0.34975 -0.087425 -0.524625h5.445475v2.7102500000000003c-0.01175 0.10800000000000001 0.018375 0.21625 0.084125 0.30275 0.06575 0.086375 0.16212500000000002 0.144375 0.26925 0.161875 0.107125 0.017625 0.217 -0.0065 0.306875 -0.067375 0.08987500000000001 -0.060875 0.153125 -0.153875 0.1765 -0.259875 0.187375 -0.661875 0.37475 -1.248875 0.512125 -1.985875 0 -0.27475 0.09987499999999999 -0.562 0.137375 -0.8492500000000001h1.2489999999999999c1.248875 0 2.497875 -0.074875 3.746875 -0.162375v2.7977499999999997c-0.007125 0.112 0.028999999999999998 0.222375 0.10112499999999999 0.308375 0.072125 0.08612500000000001 0.1745 0.141125 0.28600000000000003 0.15362499999999998 0.056125 0.007 0.113125 0.00225 0.16725 -0.013749999999999998 0.05425 -0.016 0.104625 -0.043 0.14800000000000002 -0.079375 0.043375000000000004 -0.036250000000000004 0.07875 -0.081125 0.104 -0.13174999999999998 0.025249999999999998 -0.050499999999999996 0.039874999999999994 -0.10575 0.042874999999999996 -0.16225 0.137375 -0.686875 0.33725 -1.3363749999999999 0.47462499999999996 -2.010875 0 -0.337125 0.124875 -0.661875 0.162375 -0.999125 0.7368750000000001 -0.074875 1.4737500000000001 -0.124875 2.210625 -0.21225 0.1115 -0.012624999999999999 0.213875 -0.067625 0.28600000000000003 -0.15375 0.072 -0.086 0.10825 -0.196375 0.10112499999999999 -0.308375 -0.004625000000000001 -0.055874999999999994 -0.020374999999999997 -0.11025 -0.04625 -0.16 -0.025750000000000002 -0.04975 -0.06125 -0.093875 -0.104125 -0.12987500000000002 -0.043 -0.036 -0.092625 -0.063125 -0.146125 -0.079875 -0.0535 -0.016625 -0.10975 -0.022625000000000003 -0.16562500000000002 -0.0175h-2.09825c0 -0.562 0 -1.124 -0.08737500000000001 -1.6985000000000001 0 -0.099375 -0.03950000000000001 -0.19474999999999998 -0.10975 -0.265s-0.16562500000000002 -0.10975 -0.265 -0.10975c-0.099375 0 -0.194625 0.03950000000000001 -0.264875 0.10975s-0.10975 0.16562500000000002 -0.10975 0.265c-0.137375 0.5995 -0.31224999999999997 1.1615 -0.46212499999999995 1.7485h-3.22225l-2.035875 -0.124875Z" stroke-width="1.25"></path>
</svg>