<svg xmlns="http://www.w3.org/2000/svg" fill="none" viewBox="0 0 30 30" id="Smiley-Kiss-Heart--Streamline-Freehand" height="30" width="30">
  <desc>
    Smiley Kiss Heart Streamline Icon: https://streamlinehq.com
  </desc>
  <path fill-rule="evenodd" fill="#f7f7f7" d="M20.08025 27.79725c-1.04725 0.34375 -2.127125 0.578125 -3.222625 0.6995 -1.0918750000000002 0.1185 -2.193375 0.1185 -3.285125 0 -1.3612 -0.12625 -2.6981 -0.441625 -3.9722 -0.9368750000000001 -1.2555 -0.489 -2.417475 -1.190375 -3.4350375 -2.0735 -2.5488 -2.324875 -4.172275 -5.492 -4.5717 -8.918625 -0.5703775 -3.390875 0.2098 -6.8702875 2.173425 -9.6929875 1.04905 -1.4595375 2.3624875000000003 -2.7094125 3.8722250000000003 -3.68485 1.5060499999999999 -0.9736625 3.215325 -1.5890000000000002 4.9964125 -1.7987 0.8868750000000001 -0.1374125 1.76125 -0.1374125 2.6481250000000003 -0.1374125 0.576125 -0.00408375 1.151875 0.0293 1.72375 0.09993749999999998 0.056249999999999994 0.019887500000000002 0.116375 0.026062500000000002 0.1755 0.018 0.059125000000000004 -0.00805 0.11537499999999999 -0.030100000000000002 0.16424999999999998 -0.0643 0.048875 -0.0342125 0.088875 -0.07959374999999999 0.11674999999999999 -0.13237125 0.02775 -0.05277875 0.0425 -0.11143125000000001 0.043125000000000004 -0.17108 0.007 -0.049273750000000005 0.004125 -0.0994525 -0.008499999999999999 -0.147605 -0.0125 -0.0481525 -0.034624999999999996 -0.093315 -0.064875 -0.13285125 -0.03025 -0.039536249999999995 -0.06799999999999999 -0.0726525 -0.111125 -0.0974175 -0.04325 -0.024765 -0.090875 -0.040682499999999996 -0.14024999999999999 -0.046821249999999995 -0.6281249999999999 -0.10044499999999999 -1.2626249999999999 -0.15471875 -1.898625 -0.16238249999999999 -0.911875 0 -1.81125 0 -2.723125 0.08743625 -1.94345 0.15452 -3.8246875000000005 0.7573675000000001 -5.4959999999999996 1.76123 -1.662875 0.9989375 -3.1209875 2.30445 -4.2969125 3.8472375C1.655175 7.633062499999999 0.8530887500000001 9.357625 0.40729125 11.187974999999998 -0.038507124999999996 13.018374999999999 -0.119282375 14.918625 0.16958125000000002 16.780124999999998c0.47878875 3.751625 2.31911875 7.19675 5.171281250000001 9.6805 1.1489125 0.9456249999999999 2.4554625 1.681375 3.859725 2.1734999999999998 1.378925 0.50125 2.8208875 0.808125 4.2844125 0.911875 1.162875 0.0765 2.3305000000000002 0.034624999999999996 3.485 -0.125 1.1535 -0.15187499999999998 2.288125 -0.424 3.3850000000000002 -0.8118749999999999 0.10775 -0.0365 0.1965 -0.114125 0.246875 -0.21600000000000003 0.050375 -0.10200000000000001 0.058124999999999996 -0.21975 0.02175 -0.327375 -0.0365 -0.107625 -0.114125 -0.196375 -0.216125 -0.24675 -0.10187500000000001 -0.050375 -0.219625 -0.05825 -0.32725 -0.02175Z" stroke-width="1.25"></path>
  <path fill-rule="evenodd" fill="#ff8b04" d="M29.08625 19.990375c-0.273875 -0.194125 -0.585875 -0.32787499999999997 -0.9153749999999999 -0.3925 -0.32937500000000003 -0.064625 -0.6687500000000001 -0.0585 -0.9957499999999999 0.017750000000000002 -0.313875 0.09787499999999999 -0.5974999999999999 0.274125 -0.824375 0.512125 -0.24 0.2375 -0.457375 0.49674999999999997 -0.6495 0.774375 -0.0765 -0.190375 -0.168375 -0.37412500000000004 -0.27487500000000004 -0.5495 -0.17525 -0.331125 -0.4335 -0.6108750000000001 -0.7495 -0.8119999999999999 -0.362875 -0.20925 -0.7766249999999999 -0.31412500000000004 -1.195375 -0.303125 -0.418875 0.011000000000000001 -0.8265 0.1375 -1.177875 0.365625 -0.35112499999999996 0.22599999999999998 -0.6461250000000001 0.5291250000000001 -0.8624999999999999 0.88625 -0.2165 0.357125 -0.34862499999999996 0.758875 -0.386625 1.17475 0.149875 1.109625 0.57975 2.16275 1.249125 3.06025 0.44200000000000006 0.755 0.9257500000000001 1.484875 1.449 2.186 0.09625 0.14225 0.224125 0.26025 0.37374999999999997 0.34475 0.1495 0.08449999999999999 0.31662500000000005 0.13325 0.48812500000000003 0.142375 1.4783750000000002 -0.612625 2.8045 -1.5422500000000001 3.8846249999999998 -2.723 0.8029999999999999 -0.77625 1.3295000000000001 -1.794125 1.499 -2.898 0.015125 -0.35112499999999996 -0.061000000000000006 -0.7001250000000001 -0.22075 -1.013125 -0.15975 -0.313 -0.39787500000000003 -0.579375 -0.691125 -0.7729999999999999Zm-1.523875 3.7472499999999997c-0.8260000000000001 0.828125 -1.7686250000000001 1.530875 -2.798 2.0860000000000003 -0.642375 -0.798125 -1.23875 -1.63225 -1.7862500000000001 -2.49825 -0.35825 -0.473375 -0.6096250000000001 -1.018875 -0.737 -1.59875 0.009125 -0.244625 0.073375 -0.48412499999999997 0.188 -0.700375 0.114625 -0.216375 0.27675 -0.40399999999999997 0.474125 -0.54875 0.193 -0.149125 0.423375 -0.242 0.665875 -0.26849999999999996 0.24237499999999998 -0.026375000000000003 0.48750000000000004 0.014625 0.708125 0.118625 0.19324999999999998 0.113375 0.35612499999999997 0.27199999999999996 0.47462499999999996 0.46212499999999995 0.21737499999999998 0.35075 0.39737500000000003 0.723375 0.5371250000000001 1.11175 0.01625 0.075375 0.05462500000000001 0.144125 0.110375 0.1975 0.055624999999999994 0.0535 0.125875 0.089 0.201875 0.10225 0.36225 0 0.7994999999999999 -0.799375 1.249125 -1.249125 0.1465 -0.1775 0.3355 -0.315 0.549625 -0.39974999999999994 0.18712499999999999 -0.025500000000000002 0.377625 -0.013375 0.56 0.036 0.182375 0.049375 0.353 0.134875 0.5017499999999999 0.251375 0.13424999999999998 0.100125 0.240375 0.23324999999999999 0.30825 0.38637499999999997 0.06775 0.153125 0.095 0.32125000000000004 0.078875 0.48800000000000004 -0.208625 0.791625 -0.65825 1.49875 -1.2864999999999998 2.0235Z" stroke-width="1.25"></path>
  <path fill-rule="evenodd" fill="#f7f7f7" d="M18.194125 1.5660625000000001c2.15525 0.371 4.175375 1.3013625000000002 5.85825 2.6980500000000003 0.6587500000000001 0.546025 1.265125 1.1523875000000001 1.811125 1.8112 0.8246249999999999 0.9815 1.4751249999999998 2.0967875 1.923625 3.297625 0.45187499999999997 1.0955 0.77475 2.2398875 0.9618749999999999 3.4100625 0.18525 1.18125 0.2605 2.37725 0.224875 3.572375 -0.00375 0.09875 0.030500000000000003 0.195 0.0955 0.269375 0.065 0.07425 0.155875 0.120875 0.25425 0.13037500000000002 0.049125 0.0033750000000000004 0.09862499999999999 -0.0029999999999999996 0.145375 -0.01875s0.09 -0.040625 0.127125 -0.07312500000000001c0.037125 -0.0325 0.0675 -0.072 0.08925000000000001 -0.11624999999999999 0.021875000000000002 -0.04425 0.034749999999999996 -0.09237499999999998 0.037875 -0.141625 0.138125 -1.2442499999999999 0.16312500000000002 -2.4985 0.075 -3.7472499999999997 -0.092625 -1.27035 -0.32287499999999997 -2.5268375 -0.6869999999999999 -3.74735 -0.472375 -1.3712499999999999 -1.19675 -2.6421625 -2.136 -3.7473 -0.61925 -0.7273125 -1.32375 -1.3773625 -2.0985 -1.9361125000000001C22.956249999999997 1.8269250000000001 20.69675 0.9644999999999999 18.331500000000002 0.72916125c-0.055874999999999994 -0.00696125 -0.11249999999999999 -0.0027575 -0.16674999999999998 0.01236625 -0.054125 0.01512375 -0.104875 0.040865 -0.149 0.07572999999999999s-0.08087499999999999 0.07815875 -0.10825 0.127365c-0.02725 0.04920624999999999 -0.0445 0.10334375 -0.050625 0.15926875000000001 -0.0115 0.10520750000000001 0.016625 0.21090874999999998 0.079125 0.29639624999999997 0.062375 0.08548750000000001 0.15437499999999998 0.1446125 0.258125 0.16577499999999998Z" stroke-width="1.25"></path>
  <path fill-rule="evenodd" fill="#ff8b04" d="M7.414275 10.2473625c-1.2491125 0.7494625 -2.0110625 2.7230125 -0.5745875 3.7472624999999997 0.2984 0.17212499999999997 0.6281625000000001 0.28275 0.9699375 0.325625 0.341775 0.04275 0.6886625000000001 0.016875 1.0202875 -0.07625 0.33162499999999995 -0.093 0.6413125 -0.251375 0.9108624999999999 -0.465875 0.26956250000000004 -0.214375 0.49356249999999996 -0.48050000000000004 0.6588499999999999 -0.78275 0.22610000000000002 -0.5068 0.2567875 -1.079325 0.0861375 -1.6074 -0.1706375 -0.528075 -0.53055 -0.974375 -1.010475 -1.2530375 -0.32535000000000003 -0.1557875 -0.6847000000000001 -0.22715 -1.0449 -0.2075125 -0.3601875 0.01965 -0.7096375 0.12967499999999998 -1.0161125 0.3199375Z" stroke-width="1.25"></path>
  <path fill-rule="evenodd" fill="#ff8b04" d="M22.728250000000003 11.396525c0.009 0.05455 0.028874999999999998 0.106725 0.0585 0.153425 0.0295 0.046712500000000004 0.068125 0.087 0.11362499999999999 0.1184625 0.0455 0.031462500000000004 0.09675 0.053474999999999995 0.150875 0.06470000000000001 0.054125 0.011225 0.10999999999999999 0.011462499999999999 0.16424999999999998 0.000675 0.110875 -0.0183875 0.20987499999999998 -0.0799875 0.2755 -0.1713 0.0655 -0.0913125 0.09225 -0.20490000000000003 0.074125 -0.31585 -0.045 -0.449975 -0.201 -0.88175 -0.453875 -1.2566875 -0.252875 -0.3749375 -0.59475 -0.681325 -0.9950000000000001 -0.8917750000000001 -0.769625 -0.394025 -1.641625 -0.5422625 -2.49825 -0.4246875 -0.748 0.18085 -1.43125 0.5656875 -1.9735 1.1117000000000001 -0.537875 0.530875 -0.884875 1.224825 -0.986875 1.9735749999999999 -0.009 0.0483875 -0.008375 0.0980875 0.00175 0.14625000000000002 0.01025 0.04815 0.029750000000000002 0.09383749999999999 0.057625 0.13443750000000002 0.056249999999999994 0.08198749999999999 0.14275 0.1382875 0.2405 0.1565 0.097625 0.018224999999999998 0.19862500000000002 -0.003125 0.280625 -0.05935 0.040625 -0.0278375 0.07525 -0.0634 0.102125 -0.10465s0.045375 -0.0873875 0.05437499999999999 -0.1357875c0.2015 -0.5137375000000001 0.56 -0.9508375 1.02425 -1.2490999999999999 0.418125 -0.3199375 0.9139999999999999 -0.5225875 1.4365 -0.587075 0.35624999999999996 -0.0502375 0.717875 -0.0502375 1.0742500000000001 0 0.34950000000000003 0.024624999999999998 0.6900000000000001 0.1225 0.99925 0.28728750000000003 0.390625 0.23495 0.676625 0.6103125 0.799375 1.04925Z" stroke-width="1.25"></path>
  <path fill-rule="evenodd" fill="#ff8b04" d="M19.530625 19.465625c0.17250000000000001 -0.27699999999999997 0.28325 -0.588 0.324875 -0.9117500000000001 0.0345 -0.374875 -0.016 -0.7527499999999999 -0.14800000000000002 -1.10525 -0.131875 -0.352625 -0.34175 -0.67075 -0.614 -0.930875 -0.2565 -0.274375 -0.57575 -0.48250000000000004 -0.930375 -0.6065 -0.354625 -0.124 -0.7340000000000001 -0.16025 -1.1056249999999999 -0.10550000000000001 -0.44687499999999997 0.084125 -0.871875 0.258375 -1.249125 0.51225 -0.49924999999999997 0.35475 -0.948875 0.774875 -1.3365 1.2489999999999999 -0.271375 0.30224999999999996 -0.5257499999999999 0.619125 -0.762 0.949375 -0.337125 0.475125 -0.64975 0.967 -0.9368750000000001 1.473875 -0.031625 0.041875 -0.05425 0.08987500000000001 -0.06625 0.140875 -0.011999999999999999 0.051125 -0.013125000000000001 0.104125 -0.0033750000000000004 0.155625 0.009875000000000002 0.051500000000000004 0.030375 0.1005 0.06025 0.1435 0.029875000000000002 0.043125000000000004 0.0685 0.0795 0.11325 0.10675000000000001 0.044875 0.02725 0.09487499999999999 0.04475 0.147 0.051500000000000004 0.052 0.006625 0.104875 0.002375 0.155125 -0.012624999999999999 0.05025 -0.015125 0.09675 -0.040499999999999994 0.136625 -0.074625 0.03975 -0.03425 0.072 -0.076375 0.0945 -0.12375 0.258125 -0.39974999999999994 0.532875 -0.786875 0.824375 -1.161625 0.282375 -0.36374999999999996 0.595875 -0.7022499999999999 0.9368750000000001 -1.01175 0.305875 -0.311125 0.64525 -0.5876250000000001 1.01175 -0.8245 0.31600000000000006 -0.206625 0.67475 -0.33899999999999997 1.04925 -0.38712499999999994 0.171125 0.0013750000000000001 0.339875 0.041374999999999995 0.493375 0.117125 0.15362499999999998 0.075625 0.288125 0.185 0.3935 0.32 0.11362499999999999 0.12425 0.20087500000000003 0.270125 0.25675 0.429 0.05575 0.158875 0.078875 0.327375 0.06799999999999999 0.495375 -0.0215 0.166125 -0.091 0.322375 -0.19987499999999997 0.44962500000000005 -0.13724999999999998 0.18525 -0.292 0.35675 -0.46212499999999995 0.512125 -0.15225 0.103875 -0.29825 0.2165 -0.43725 0.33725 -0.09724999999999999 0.083875 -0.17212499999999997 0.1905 -0.217875 0.310375 -0.04575 0.12 -0.061125 0.249375 -0.044375 0.376625 0.051875000000000004 0.24325 0.153875 0.47300000000000003 0.29975 0.6745 0.187375 0.27487500000000004 0.487125 0.549625 0.637 0.7745000000000001 0.177875 0.26437499999999997 0.31275 0.555375 0.39974999999999994 0.861875 0.08775 0.29125 0.121625 0.596 0.09987499999999999 0.899375 -0.028749999999999998 0.408875 -0.21850000000000003 0.789625 -0.527625 1.058875 -0.309 0.26925 -0.712125 0.405 -1.1211250000000001 0.377625 -0.472375 -0.000875 -0.9376249999999999 -0.114625 -1.3569999999999998 -0.33187500000000003 -0.4195 -0.21737499999999998 -0.78075 -0.531875 -1.05375 -0.91725 -0.059625 -0.09612499999999999 -0.155 -0.16449999999999998 -0.265125 -0.19025 -0.110125 -0.025875 -0.225875 -0.006750000000000001 -0.322 0.052875s-0.16449999999999998 0.15487499999999998 -0.19025 0.265c-0.025750000000000002 0.110125 -0.006750000000000001 0.22599999999999998 0.052875 0.322 0.410875 0.636125 0.9944999999999999 1.142 1.6825 1.45825 0.688 0.31637499999999996 1.451875 0.43012500000000004 2.202125 0.328 0.5523750000000001 -0.09175000000000001 1.060625 -0.3585 1.4497499999999999 -0.761125 0.38912500000000005 -0.402625 0.6385000000000001 -0.919625 0.7112499999999999 -1.47475 0.09974999999999999 -0.473625 0.09974999999999999 -0.9628749999999999 0 -1.4365 -0.10475 -0.4445 -0.2865 -0.86725 -0.5371250000000001 -1.249125l-0.47462499999999996 -0.6244999999999999c0.303 -0.27849999999999997 0.560125 -0.603125 0.7618750000000001 -0.9618749999999999Z" stroke-width="1.25"></path>
</svg>