<svg xmlns="http://www.w3.org/2000/svg" fill="none" viewBox="0 0 30 30" id="Smiley-Blush--Streamline-Freehand" height="30" width="30">
  <desc>
    Smiley Blush Streamline Icon: https://streamlinehq.com
  </desc>
  <path fill="#f7f7f7" d="M29.83725 12.4935875c-0.139625 -1.2783625 -0.428875 -2.5359249999999998 -0.86175 -3.746875 -0.83575 -2.2413374999999998 -2.3017499999999997 -4.193175 -4.221500000000001 -5.6203C22.866374999999998 1.711875 20.639125 0.82011875 18.296875 0.5410675c-0.1135 -0.01101625 -0.227 0.021565 -0.3175 0.09114125000000001 -0.09050000000000001 0.06957625 -0.151 0.17094 -0.16949999999999998 0.28354625 -0.01075 0.11214750000000001 0.02225 0.22411125 0.092 0.31253749999999997 0.06987499999999999 0.08842 0.171125 0.1464825 0.282625 0.16207 2.18675 0.30515000000000003 4.2521249999999995 1.1891 5.9825 2.5603625 1.723625 1.345025 3.02425 3.1572125 3.746875 5.2206375000000005 0.408375 1.1265875 0.6890000000000001 2.2954250000000003 0.836875 3.4846375000000003 0.106375 1.192375 0.106375 2.392 0 3.5845 -0.11424999999999999 1.17625 -0.38725000000000004 2.331625 -0.8118749999999999 3.434625 -0.413125 1.1119999999999999 -0.95375 2.172375 -1.611125 3.1598749999999995 -1.39325 1.992375 -3.357 3.516375 -5.632875 4.37125 -2.2741249999999997 0.90825 -4.7292499999999995 1.2717500000000002 -7.169 1.061625 -1.3495625 -0.115875 -2.6772125000000004 -0.41412499999999997 -3.946675 -0.88675 -1.258375 -0.46462499999999995 -2.4283375 -1.140375 -3.4596125 -1.99825 -2.592375 -2.299625 -4.2685875 -5.457 -4.72105 -8.892624999999999 -0.5741175 -3.441125 0.2240625 -6.9701625 2.2231375 -9.8292875 1.0570499999999998 -1.46795 2.37855 -2.7259125 3.89675 -3.7094125 1.5388375 -0.9547125 3.2795875000000003 -1.5363875 5.0832 -1.698575 0.87775 -0.12472875 1.76175 -0.19978625 2.647875 -0.22481375 0.58475 -0.006137500000000001 1.16925 0.031435 1.7485 0.11240625000000001 0.097625 0.01436625 0.19699999999999998 -0.010367499999999998 0.2765 -0.06882875 0.0795 -0.0584625 0.13275 -0.14593125 0.148125 -0.24341125000000002 0.008875000000000001 -0.048554999999999994 0.00775 -0.09841249999999999 -0.0033750000000000004 -0.14651 -0.011000000000000001 -0.048098749999999996 -0.031875 -0.09342249999999999 -0.061125 -0.13318875000000002 -0.02925 -0.039767500000000004 -0.06625 -0.0731375 -0.108875 -0.09806375 -0.042624999999999996 -0.024925 -0.08987500000000001 -0.040878750000000005 -0.138875 -0.046882499999999994 -0.611625 -0.096885 -1.22925 -0.15113625 -1.8483749999999999 -0.162365 -0.9117500000000001 0 -1.8235000000000001 0 -2.73525 0.11240625000000001C10.585875 0.5272749999999999 8.7104 1.14246125 7.043825 2.152225c-1.6528875 1.0128249999999999 -3.1016250000000003 2.3260125 -4.2714375 3.8717625C0.53240625 9.0829375 -0.40602625000000003 12.904 0.16206749999999998 16.652625c0.443375 3.7727500000000003 2.240695 7.2565 5.0582825 9.80425 1.1498875 0.97525 2.459775 1.744375 3.8717625 2.273125 1.3997125 0.51425 2.861075 0.8418749999999999 4.3463875000000005 0.97425 2.663875 0.21225 5.340625 -0.19824999999999998 7.8185 -1.199 2.524625 -0.991375 4.683125 -2.7355 6.18225 -4.995875 0.703375 -1.078 1.27775 -2.235 1.711125 -3.4471249999999998 0.435625 -1.2073749999999999 0.708625 -2.467375 0.81175 -3.746875 0.077625 -1.275 0.035750000000000004 -2.5545 -0.124875 -3.8217875Z" stroke-width="1.25"></path>
  <path fill="#ff8b04" d="M7.143787499999999 14.9915c-0.5520375000000001 0.333375 -1.0743624999999999 0.713625 -1.5611875 1.1365 -0.44385 0.46725000000000005 -0.8608375 0.959375 -1.2489625 1.473875 -0.0801 0.081625 -0.1249625 0.1915 -0.1249625 0.306 0 0.114375 0.0448625 0.22425 0.1249625 0.305875 0.0795875 0.079375 0.187375 0.12387499999999999 0.29975 0.12387499999999999 0.1123625 0 0.22015 -0.0445 0.29975 -0.12387499999999999 0.5040374999999999 -0.38625 0.983725 -0.8033750000000001 1.4363000000000001 -1.248875 0.41215 -0.42462500000000003 0.749375 -0.93675 1.2489625 -1.423875 0.0476 -0.06825 0.0710875 -0.1505 0.066775 -0.23362500000000003 -0.0043125 -0.083125 -0.036199999999999996 -0.1625 -0.0906125 -0.2255s-0.1282625 -0.106 -0.2098875 -0.122375 -0.166375 -0.005125 -0.24088749999999998 0.032Z" stroke-width="1.25"></path>
  <path fill="#ff8b04" d="M8.767325 18.326249999999998c0.44110000000000005 -0.29625 0.8586625000000001 -0.626125 1.24895 -0.98675 0.33633749999999996 -0.410875 0.6371625000000001 -0.8494999999999999 0.8992500000000001 -1.311375 0.0694625 -0.072125 0.10825 -0.168375 0.10825 -0.26849999999999996s-0.038787499999999996 -0.196375 -0.10825 -0.26849999999999996c-0.0349125 -0.035875 -0.07666250000000001 -0.064375 -0.1227875 -0.083875 -0.0461125 -0.0195 -0.095675 -0.0295 -0.1457375 -0.0295s-0.09961249999999999 0.01 -0.1457375 0.0295c-0.0461125 0.0195 -0.08787500000000001 0.047999999999999994 -0.1227875 0.083875 -0.39966250000000003 0.33725 -0.8492875 0.5995 -1.24895 0.961625 -0.345325 0.39675000000000005 -0.6664749999999999 0.81375 -0.9617 1.2489999999999999 -0.07725 0.083125 -0.1201875 0.1925 -0.1201875 0.306 0 0.1135 0.042937499999999997 0.222875 0.1201875 0.306 0.0795 0.078125 0.1858375 0.122875 0.297275 0.12525 0.111425 0.00225 0.2195375 -0.038 0.30222499999999997 -0.11275Z" stroke-width="1.25"></path>
  <path fill="#ff8b04" d="M21.256875 16.54025c-0.39 -0.48512500000000003 -0.8069999999999999 -0.947875 -1.248875 -1.386375 -0.059625 -0.0795 -0.148375 -0.132 -0.24675 -0.146125 -0.098375 -0.014 -0.19837500000000002 0.011625 -0.277875 0.07125000000000001 -0.04025 0.0285 -0.0745 0.064875 -0.10075 0.10675000000000001 -0.026250000000000002 0.041875 -0.044000000000000004 0.0885 -0.052125000000000005 0.13724999999999998 -0.008125 0.04875 -0.0065 0.09862499999999999 0.00475 0.14675 0.01125 0.04825 0.031875 0.09362499999999999 0.06075 0.13375 0.29975 0.5369999999999999 0.512 1.111625 0.86175 1.6236249999999999 0.370125 0.505625 0.788375 0.974125 1.2489999999999999 1.3988749999999999 0.035125 0.043625 0.07849999999999999 0.079875 0.12775 0.106625 0.049249999999999995 0.02675 0.10325000000000001 0.043625 0.159 0.049375 0.05575 0.005875 0.112 0.0005 0.16575 -0.0155 0.053625 -0.016125 0.103625 -0.042624999999999996 0.147 -0.078125 0.076375 -0.08099999999999999 0.11887500000000001 -0.18825000000000003 0.11887500000000001 -0.29975 0 -0.111375 -0.0425 -0.218625 -0.11887500000000001 -0.29975 -0.28725 -0.4995 -0.5371250000000001 -1.0614999999999999 -0.849375 -1.548625Z" stroke-width="1.25"></path>
  <path fill="#ff8b04" d="M23.018 15.516000000000002c0.28725 0.39974999999999994 0.562 0.8992500000000001 0.9366249999999999 1.348875 0.37475 0.44962500000000005 0.786875 0.749375 1.111625 1.149125 0.061375 0.094375 0.157625 0.16049999999999998 0.267625 0.183875 0.110125 0.023375 0.22499999999999998 0.00225 0.319375 -0.059 0.047999999999999994 -0.029125 0.089625 -0.067875 0.122125 -0.11374999999999999 0.032625 -0.04575 0.055375 -0.09775 0.06712499999999999 -0.15275 0.011625 -0.05499999999999999 0.011999999999999999 -0.11174999999999999 0.001 -0.166875 -0.011125 -0.055125 -0.033375 -0.107375 -0.065375 -0.15362499999999998 -0.23725 -0.530625 -0.53925 -1.0298749999999999 -0.8992500000000001 -1.48625 -0.38837499999999997 -0.389375 -0.8058750000000001 -0.748375 -1.2489999999999999 -1.074125 -0.034375 -0.036125 -0.075625 -0.065 -0.12125 -0.08512499999999999 -0.045625 -0.020249999999999997 -0.09475 -0.03125 -0.144625 -0.032375 -0.049874999999999996 -0.001125 -0.0995 0.0075 -0.146 0.025500000000000002 -0.0465 0.018125000000000002 -0.089 0.045125 -0.125125 0.0795 -0.036125 0.0345 -0.065 0.075625 -0.08512499999999999 0.12125 -0.020249999999999997 0.045625 -0.031125 0.09487499999999999 -0.032375 0.14475 -0.001125 0.049874999999999996 0.0075 0.099375 0.025625000000000002 0.146 0.018 0.0465 0.045 0.089 0.079375 0.125h-0.062375Z" stroke-width="1.25"></path>
  <path fill="#ff8b04" d="M16.948125 20.586875c-0.8106249999999999 -0.37225 -1.72725 -0.443125 -2.585375 -0.19987499999999997 -0.67275 0.23324999999999999 -1.298625 0.5842499999999999 -1.8484999999999998 1.0366250000000001 -0.7661374999999999 0.670625 -1.4308625 1.4488750000000001 -1.973325 2.310625 -0.035875 0.034875 -0.0644 0.076625 -0.08386249999999999 0.12275 -0.019475 0.046125 -0.029512499999999997 0.095625 -0.029512499999999997 0.14575 0 0.05 0.010037500000000001 0.09962499999999999 0.029512499999999997 0.14575 0.0194625 0.046125 0.0479875 0.08787500000000001 0.08386249999999999 0.12275 0.073525 0.06675 0.16924999999999998 0.103625 0.268525 0.103625 0.099275 0 0.195 -0.036875 0.268525 -0.103625 0.5260250000000001 -0.553875 1.1077875 -1.0518750000000001 1.736025 -1.48625 0.57575 -0.428875 1.228875 -0.7427499999999999 1.923375 -0.9242499999999999 0.35225 -0.10825 0.722625 -0.145375 1.0892499999999998 -0.108875 0.36675 0.0365 0.7224999999999999 0.145625 1.0465 0.32125000000000004 0.7541249999999999 0.34612499999999996 1.413875 0.8687499999999999 1.923375 1.523625 0.029375 0.049 0.06825 0.0915 0.114375 0.125125 0.046125 0.033625 0.09849999999999999 0.057499999999999996 0.154125 0.07037500000000001 0.0555 0.012875000000000001 0.113125 0.014499999999999999 0.169375 0.0045 0.056125 -0.009875000000000002 0.10975 -0.030875 0.157625 -0.062 0.047875 -0.031 0.089 -0.071375 0.120875 -0.11875 0.031875 -0.04725 0.054000000000000006 -0.1005 0.064875 -0.1565 0.01075 -0.056 0.01025 -0.11362499999999999 -0.001625 -0.16949999999999998 -0.011875 -0.05575 -0.034875 -0.108625 -0.067625 -0.15525 -0.558875 -1.1015 -1.45625 -1.9945 -2.5603749999999996 -2.547875Z" stroke-width="1.25"></path>
  <path fill="#ff8b04" d="M11.352775 10.857487500000001c0.2296625 -0.508175 0.2622625 -1.0835625 0.0914625 -1.6144125 -0.1708 -0.53085 -0.5328 -0.9792875 -1.0156875 -1.2581875 -0.33161250000000003 -0.1484 -0.6951375 -0.21128750000000002 -1.0573249999999998 -0.182925 -0.3621875 0.028375 -0.7114874999999999 0.147075 -1.0159500000000001 0.34528749999999997 -1.2489625 0.749375 -2.010825 2.7352125 -0.574525 3.746875 0.3011625 0.17257499999999998 0.633975 0.28275 0.9786250000000001 0.3239375 0.34463750000000004 0.0412 0.69405 0.012575 1.0274 -0.084175 0.3333375 -0.0967375 0.6437875 -0.2596 0.9128375 -0.4789 0.26905 -0.2192875 0.4911875 -0.490525 0.6531625000000001 -0.7975Z" stroke-width="1.25"></path>
  <path fill="#ff8b04" d="M21.89375 8.0722875c-2.123125 -0.9242250000000001 -4.221375 1.398825 -2.9225000000000003 3.1598625 0.200625 0.273925 0.466875 0.492975 0.774375 0.6369625 0.2995 0.190525 0.6425000000000001 0.30193749999999997 0.99675 0.3238125 0.354375 0.021875000000000002 0.7084999999999999 -0.0465 1.029125 -0.19873749999999998 0.32075 -0.1522375 0.5974999999999999 -0.38336250000000005 0.804625 -0.6717249999999999 0.207 -0.2883625 0.3375 -0.6245375 0.37925 -0.977075 0.08750000000000001 -0.442525 0.03175 -0.9014125000000001 -0.159125 -1.3101125 -0.19087500000000002 -0.4087125 -0.507 -0.7460125 -0.9025 -0.9629875Z" stroke-width="1.25"></path>
</svg>