<svg xmlns="http://www.w3.org/2000/svg" fill="none" viewBox="0 0 30 30" id="Smiley-Crazy--Streamline-Freehand" height="30" width="30">
  <desc>
    Smiley Crazy Streamline Icon: https://streamlinehq.com
  </desc>
  <path fill="#ff8b04" d="M21.434375000000003 23.235500000000002c1.1500000000000001 -1.083875 1.98 -2.462875 2.399375 -3.9865 0.224875 -0.65525 0.268 -1.3592499999999998 0.125 -2.037 -0.03525 -0.104125 -0.092625 -0.19924999999999998 -0.16812500000000002 -0.279 -0.0755 -0.079875 -0.167375 -0.142375 -0.26925 -0.183375 -0.0625 0 -2.2995 -0.11249999999999999 -5.148875 -0.075 -1.549625 0 -3.2866250000000004 0.0625 -4.92375 0.1375 -2.0995375 0.09987499999999999 -4.0365875 0.24987499999999999 -5.2613 0.374875 -0.5363875 0.033999999999999996 -1.0658874999999999 0.13899999999999998 -1.5746375000000001 0.312375 -0.2028125 0.155875 -0.337225 0.384375 -0.3749125 0.637375 -0.0601875 0.5446249999999999 0.0039125 1.095875 0.18746249999999998 1.612125 0.3954875 1.3725 1.1107125 2.631625 2.0870125 3.6741249999999996 0.0454625 0.03875 0.102775 0.06075 0.1624625 0.0625l0 0.125c-0.044025 1.6161249999999998 0.527775 3.188625 1.599625 4.399 0.5450375 0.617625 1.2139 1.11375 1.96315 1.456 0.7492624999999999 0.342375 1.5621375000000002 0.52325 2.3858875 0.531 1.6493749999999998 -0.202125 3.193125 -0.9192500000000001 4.4113750000000005 -2.0495 0.66425 -0.540375 1.198875 -1.22275 1.564375 -1.9969999999999999 0.3655 -0.774375 0.552625 -1.62075 0.547625 -2.477 0.005875 -0.03725 0.005875 -0.07525 0 -0.11249999999999999 0.10800000000000001 -0.00475 0.210375 -0.049249999999999995 0.28750000000000003 -0.125Zm-3.3492499999999996 3.6617499999999996c-0.94725 0.9632499999999999 -2.169625 1.6095000000000002 -3.4991250000000003 1.8495 -0.6593749999999999 0.050625 -1.3216249999999998 -0.051625000000000004 -1.935 -0.29874999999999996 -0.613375 -0.24712499999999998 -1.1615125 -0.632375 -1.601725 -1.125875 -0.7811124999999999 -1.134625 -1.3408 -2.406625 -1.6496125 -3.749125 0.028775 -0.27525 0.1325625 -0.537375 0.3000375 -0.7577499999999999 0.16747499999999998 -0.22037500000000002 0.39221249999999996 -0.3905 0.6497375 -0.492 0.519575 -0.29562499999999997 1.1023125 -0.46275 1.6996 -0.487375 0.3209375 0.026125 0.6343375 0.110875 0.9248375 0.25 0.4585 0.19862500000000002 0.905 0.424 1.3371250000000001 0.67475 0.13974999999999999 0.084875 0.299 0.13225 0.462375 0.1375 0.1875 0 1.0122499999999999 -0.49987499999999996 1.9496250000000002 -0.77475 0.33849999999999997 -0.10925000000000001 0.6950000000000001 -0.151625 1.04975 -0.125 0.45537500000000003 0.07775 0.884625 0.266625 1.249625 0.549875 0.16962499999999997 0.104625 0.3145 0.24487499999999998 0.42462500000000003 0.411 0.10999999999999999 0.166125 0.182625 0.35424999999999995 0.21275 0.55125 0.007375 0.64625 -0.13025 1.286 -0.40275 1.872125 -0.2725 0.586125 -0.673 1.103625 -1.171875 1.514625Zm2.1745 -5.136374999999999c-0.6548750000000001 -0.5895 -1.4841250000000001 -0.9492499999999999 -2.362 -1.02475 -0.5313749999999999 -0.0265 -1.062625 0.05425 -1.562125 0.2375 -0.523625 0.20325 -1.0295 0.449875 -1.512125 0.73725h-0.1c-0.449875 -0.22749999999999998 -0.9131250000000001 -0.427875 -1.387125 -0.5998749999999999 -0.42762500000000003 -0.15987500000000002 -0.880725 -0.24025000000000002 -1.3372000000000002 -0.237375 -0.90935 0.08775 -1.7755874999999999 0.429875 -2.4994125 0.98725 -0.2704375 0.20987499999999998 -0.49931250000000005 0.468375 -0.6748375 0.762375 -0.394475 -0.50125 -0.7221500000000001 -1.0514999999999999 -0.974775 -1.6371250000000002 -0.31337499999999996 -0.6948749999999999 -0.5238625 -1.4315 -0.62485 -2.1870000000000003 0.0095 -0.144 0.0346375 -0.286375 0.074975 -0.424875 0.6123625 -0.0625 1.8995625 -0.075 3.4866875000000004 -0.11249999999999999l5.8986625 -0.17500000000000002c2.499375 -0.08750000000000001 4.798875000000001 -0.21237499999999998 5.886125 -0.24987499999999999h0.19987499999999997c0.041 0.137875 0.062 0.281 0.0625 0.424875 -0.10262500000000001 0.82175 -0.34349999999999997 1.6203750000000001 -0.712375 2.361875 -0.3325 0.702625 -0.78025 1.3446250000000002 -1.3246250000000002 1.8996250000000001 -0.137625 -0.281 -0.31899999999999995 -0.538375 -0.537375 -0.762375Z" stroke-width="1.25"></path>
  <path fill="#f7f7f7" d="M1.451525 16.24975c-0.21145375 -1.701375 -0.12688750000000001 -3.4263749999999997 0.24993749999999998 -5.0988500000000005 0.3514 -1.6641249999999999 1.049775 -3.23545 2.049525 -4.6114250000000006 1.0520625 -1.450225 2.36085 -2.695475 3.8615874999999997 -3.6741374999999996C9.117750000000001 1.883575 10.8277125 1.25945 12.611375 1.0407662500000001c0.874875 -0.09997624999999999 1.749625 -0.18745625 2.6368750000000003 -0.19995249999999998 0.5765 -0.0037075 1.1525 0.029686249999999997 1.7246249999999999 0.09997624999999999 0.09162500000000001 0.0043225 0.181625 -0.025085 0.253 -0.08265875 0.071375 -0.05757375000000001 0.11925 -0.13932 0.134375 -0.22976875000000002 0.008875000000000001 -0.048583749999999995 0.00775 -0.09847125 -0.00325 -0.1465975 -0.011125 -0.048127500000000004 -0.032 -0.09347875 -0.06125 -0.13326875 -0.02925 -0.03979125 -0.066375 -0.07318125 -0.109 -0.0981225 -0.042624999999999996 -0.02494 -0.08987500000000001 -0.04090375 -0.138875 -0.04691125 -0.6068749999999999 -0.10990462499999999 -1.22075 -0.17672262500000002 -1.837125 -0.19995297499999998 -0.91225 0 -1.812 0 -2.7243125 0.087479475C10.5345875 0.22018375 8.6413625 0.8112825 6.962725 1.8155875c-1.6648125 1.0078624999999999 -3.1269875000000003 2.3174625 -4.3114875 3.8615874999999997C1.508775 7.193225 0.7150725 8.9427875 0.32678625000000006 10.800975 -0.056461000000000004 12.63525 -0.103041 14.52375 0.18931875 16.374625c0.5288225 3.70275 2.38531875 7.0871249999999995 5.22378125 9.522874999999999 0.0796375 0.07925 0.18748750000000003 0.12387499999999999 0.299925 0.12387499999999999 0.1124375 0 0.2202875 -0.044625000000000005 0.299925 -0.12387499999999999 0.079375 -0.07974999999999999 0.1239375 -0.1875 0.1239375 -0.3 0 -0.11237499999999999 -0.044562500000000005 -0.22025 -0.1239375 -0.299875 -2.5638875 -2.3657500000000002 -4.1842875 -5.5798749999999995 -4.561425 -9.047875Z" stroke-width="1.25"></path>
  <path fill="#f7f7f7" d="M29.869875 12.238137499999999c-0.14375000000000002 -1.2772875 -0.42875 -2.5347 -0.84975 -3.7491125 -0.8699999999999999 -2.2413250000000002 -2.361375 -4.1879125 -4.299 -5.6111875C22.811625000000003 1.4891375 20.5705 0.62716125 18.222625 0.3784225c-0.110375 -0.011053750000000001 -0.22075 0.02022625 -0.309 0.08751 -0.088125 0.06728375 -0.1475 0.16554625 -0.16587500000000002 0.274905 -0.007 0.05586125 -0.0027500000000000003 0.11255 0.012375 0.16677125 0.015125 0.0542225 0.040875 0.1048975 0.07575 0.14908125 0.034875 0.04418375000000001 0.078125 0.08099624999999999 0.12737500000000002 0.1082975 0.049249999999999995 0.02730125 0.103375 0.04454875 0.159375 0.05073875 2.163375 0.34669875000000006 4.1975 1.2560487500000002 5.898624999999999 2.63688625 1.6928750000000001 1.339125 2.967625 3.134225 3.6741249999999996 5.1737874999999995 0.37424999999999997 1.1105875 0.6256249999999999 2.2588375 0.749875 3.4241875 0.148875 1.1685375 0.18662499999999999 2.3485375 0.11237499999999999 3.5241625 -0.07175 1.1715 -0.303 2.32775 -0.6872499999999999 3.43675 -0.36949999999999994 1.12675 -0.873 2.205 -1.499625 3.21175 -0.7795000000000001 1.25 -1.798875 2.333125 -2.999375 3.18675 -0.041374999999999995 0.027625000000000004 -0.07675 0.06325 -0.10425000000000001 0.104625 -0.027375 0.0415 -0.046375 0.08800000000000001 -0.055624999999999994 0.136875 -0.009250000000000001 0.048875 -0.00875 0.099 0.0014999999999999998 0.147625 0.01025 0.04875 0.030125 0.09487499999999999 0.058374999999999996 0.13575 0.057999999999999996 0.08087499999999999 0.14475 0.13625 0.2425 0.15487499999999998 0.09775 0.018625 0.198875 -0.001 0.282375 -0.054875 0.6556249999999999 -0.4265 1.274375 -0.90725 1.849625 -1.43725 0.57575 -0.546125 1.095 -1.149 1.549625 -1.7995 0.7305 -1.04325 1.3385 -2.167 1.812125 -3.3492499999999996 0.47475 -1.2026249999999998 0.7857500000000001 -2.463625 0.92475 -3.749125 0.107625 -1.286125 0.08675000000000001 -2.57975 -0.0625 -3.8616125Z" stroke-width="1.25"></path>
  <path fill="#ff8b04" d="M9.9999875 8.251587500000001c-0.1811375 -0.0844125 -0.380975 -0.1207125 -0.580225 -0.1053875 -0.19924999999999998 0.015325 -0.3911875 0.08176249999999999 -0.557275 0.1928875 -0.6625000000000001 0.41250000000000003 -1.1125 1.5 -0.3125 2.0374999999999996 0.16348749999999998 0.09466250000000001 0.3442875 0.1555625 0.531725 0.1791125 0.1874375 0.023549999999999998 0.37768749999999995 0.0092625 0.5595125 -0.04202499999999999 0.1818125 -0.051275 0.3514875 -0.1385125 0.499 -0.256525 0.1475 -0.118025 0.2698375 -0.264425 0.3597625 -0.43056249999999996 0.12257499999999999 -0.2784125 0.139425 -0.5919625 0.047375 -0.8819 -0.09204999999999999 -0.28995 -0.2866625 -0.5363749999999999 -0.5473750000000001 -0.6930999999999999Z" stroke-width="1.25"></path>
  <path fill="#ff8b04" d="M10.5618625 5.5397c-0.432275 -0.13443750000000002 -0.8853125000000001 -0.189475 -1.3371875 -0.16244999999999998 -0.42861249999999995 0.040662500000000004 -0.8493375000000001 0.141625 -1.2497125 0.299925 -0.928275 0.3531375 -1.7203625 0.9920625 -2.2619625 1.8245749999999998 -0.5029750000000001 0.8161375 -0.7989875000000001 1.742775 -0.8623000000000001 2.6993625 -0.04155 0.6055875000000001 0.0392 1.21335 0.23743750000000002 1.7870875 0.22037500000000002 0.60955 0.6269875 1.134175 1.1622375 1.499675 0.274625 0.175875 0.5735625 0.310625 0.8872875 0.39987500000000004 1.3676875 0.349625 2.812375 0.23975 4.1115375 -0.312375 0.9252625000000001 -0.39625 1.6786750000000001 -1.1097124999999999 2.12455 -2.0120750000000003 0.47875 -1.016325 0.56325 -2.174125 0.237375 -3.24925 -0.17250000000000001 -0.71435 -0.55525 -1.3605749999999999 -1.098875 -1.8551375 -0.54355 -0.4945625 -1.22295 -0.8147625000000001 -1.9503875000000002 -0.9192125Zm1.7620875 5.461225c-0.362875 0.6246875000000001 -0.9333750000000001 1.1023 -1.612125 1.3496875 -0.7014125 0.2635125 -1.4531125 0.3660125 -2.1994875 0.29988750000000003 -0.2748875 -0.02425 -0.546875 -0.074375 -0.8123125 -0.149875 -0.22523749999999998 -0.0461 -0.44084999999999996 -0.1306625 -0.63735 -0.2499875 -0.2974125 -0.2058 -0.5242875 -0.49812500000000004 -0.6498375000000001 -0.8373124999999999 -0.1505375 -0.39873749999999997 -0.2185625 -0.8239000000000001 -0.1999625 -1.2497 -0.00395 -0.7472125000000001 0.17177499999999998 -1.484425 0.5123875 -2.1495 0.3622875 -0.6511625 0.9164875 -1.1748125 1.5871250000000001 -1.49965 0.31427499999999997 -0.1482375 0.6532 -0.23720000000000002 0.9997625 -0.2624375 0.338175 -0.06833750000000001 0.6865875 -0.06833750000000001 1.0247625 0 0.116225 0.02425 0.2265875 0.0709375 0.324925 0.13747499999999999 0.9372750000000001 0.6623374999999999 1.5746250000000002 0.3499125 1.9745375 2.0995 0.218 0.8466374999999999 0.10625000000000001 1.7444625 -0.312425 2.5119124999999998Z" stroke-width="1.25"></path>
  <path fill="#ff8b04" d="M16.6855 11.425825c0.048375 0.009049999999999999 0.098125 0.0084625 0.146375 -0.001725 0.048125 -0.010175 0.093875 -0.0297625 0.1345 -0.0576125 0.040625 -0.02785 0.075375 -0.06343750000000001 0.10225 -0.1047125 0.026874999999999996 -0.0412875 0.045250000000000005 -0.08745 0.05425 -0.135875 0.21999999999999997 -0.7526375000000001 0.609 -1.4450874999999999 1.13725 -2.024525 0.21875 -0.242325 0.487125 -0.434725 0.786875 -0.5641125 0.29975 -0.129375 0.623875 -0.192725 0.95025 -0.1857125 0.38875 -0.02545 0.7785 0.0327875 1.14275 0.1707625 0.364375 0.1379625 0.6948749999999999 0.352475 0.96925 0.62905 0.595375 0.6045874999999999 0.9808749999999999 1.38435 1.09975 2.224475 0.003125 0.0558375 0.017374999999999998 0.11048749999999999 0.041749999999999995 0.160825 0.02425 0.050350000000000006 0.058374999999999996 0.0953875 0.100125 0.1325375 0.041875 0.03715 0.09050000000000001 0.0656875 0.143375 0.08397500000000001 0.052875 0.0182875 0.108875 0.02595 0.16462500000000002 0.022574999999999998 0.11050000000000001 -0.0064625 0.214125 -0.055775 0.28875 -0.13747499999999999 0.07475 -0.08168750000000001 0.114625 -0.1892875 0.111125 -0.299925 0.006750000000000001 -1.0947624999999999 -0.364 -2.1584 -1.04975 -3.0118 -0.367375 -0.4413125 -0.828 -0.7957124999999999 -1.348875 -1.037725 -0.52075 -0.242025 -1.088625 -0.365625 -1.662875 -0.36193749999999997 -0.8576250000000001 0.014862499999999999 -1.676625 0.359475 -2.287 0.962275 -0.7595000000000001 0.8699625 -1.234875 1.951425 -1.3621249999999998 3.0992750000000004 -0.008875000000000001 0.051175 -0.007 0.1036375 0.0055000000000000005 0.15405 0.0125 0.0504125 0.035375 0.097675 0.067 0.1388 0.03175 0.041124999999999995 0.07175 0.0752 0.11725 0.1000875 0.045625 0.0248875 0.095875 0.040025 0.147625 0.04445Z" stroke-width="1.25"></path>
</svg>