<svg xmlns="http://www.w3.org/2000/svg" fill="none" viewBox="0 0 30 30" id="Smiley-Wink--Streamline-Freehand" height="30" width="30">
  <desc>
    Smiley Wink Streamline Icon: https://streamlinehq.com
  </desc>
  <path fill="#f7f7f7" d="M29.83775 12.494825c-0.139625 -1.2783875 -0.428875 -2.5359749999999996 -0.86175 -3.7469375 -0.83575 -2.2413749999999997 -2.3017499999999997 -4.19325 -4.221500000000001 -5.6204C22.86975 1.7077 20.641 0.81533625 18.297250000000002 0.54210125c-0.11362499999999999 -0.011017500000000001 -0.227125 0.021565 -0.317625 0.09114250000000002 -0.09037500000000001 0.0695775 -0.151 0.17094374999999998 -0.16949999999999998 0.28355125 -0.01075 0.11215 0.02225 0.22411625000000002 0.092 0.31254249999999995 0.06987499999999999 0.088425 0.171125 0.1464875 0.28275 0.162075 2.18975 0.3077 4.258624999999999 1.1912625000000001 5.995 2.5604 1.721125 1.3475000000000001 3.0212499999999998 3.1589 3.747 5.220725000000001 0.40412499999999996 1.1271125 0.680625 2.2959625 0.824375 3.4847125 0.106375 1.192375 0.106375 2.392 0 3.5845 -0.115875 1.174875 -0.384625 2.3295 -0.799375 3.4347499999999997 -0.42250000000000004 1.110125 -0.967125 2.17 -1.6237499999999998 3.1598749999999995 -1.393125 1.992375 -3.3568750000000005 3.516375 -5.632875 4.3713750000000005 -2.2741249999999997 0.90825 -4.7292499999999995 1.2717500000000002 -7.169124999999999 1.061625 -1.3496 -0.115875 -2.6772875000000003 -0.41412499999999997 -3.9467499999999998 -0.88675 -1.2584125 -0.46462499999999995 -2.4284 -1.1405 -3.459675 -1.998375 -2.592425 -2.299625 -4.2686625 -5.457 -4.7211375 -8.89275 -0.57959375 -3.44125 0.2190625 -6.972437500000001 2.223175 -9.8294 1.0570625 -1.467975 2.3785875 -2.7259624999999996 3.8968125 -3.709475 1.5388625 -0.954725 3.27965 -1.5364125 5.083324999999999 -1.6986 0.88675 -0.087435 1.773625 -0.16237374999999998 2.647875 -0.16237374999999998 0.584875 -0.006137500000000001 1.16925 0.0314375 1.7485 0.11240875 0.050875000000000004 0.013194999999999998 0.10375000000000001 0.015585 0.1555 0.007013749999999999 0.05175 -0.00857 0.10112499999999999 -0.02791 0.14500000000000002 -0.056767500000000005 0.043750000000000004 -0.028857499999999998 0.08099999999999999 -0.06659 0.10925000000000001 -0.110755 0.028375 -0.044165 0.047 -0.09377875000000001 0.05499999999999999 -0.1456325 0.007875 -0.051852499999999996 0.004875 -0.1047875 -0.009 -0.15538125 -0.013875 -0.050592500000000006 -0.038125 -0.09771625 -0.071375 -0.13832s-0.074625 -0.07378375000000001 -0.12137500000000001 -0.09739375c-0.046875 -0.02360875 -0.098125 -0.03712125 -0.1505 -0.03966125 -0.6102500000000001 -0.1178275 -1.227875 -0.1929475 -1.8484999999999998 -0.22481625000000002 -0.9176249999999999 -0.01499375 -1.8352499999999998 0.0267175 -2.74775 0.12489750000000001C10.577525000000001 0.5322575 8.7051 1.1435724999999999 7.0439375 2.1532875000000002c-1.65045 1.0161125 -3.0986625 2.3288125 -4.2715 3.871825C0.53241625 9.0841125 -0.40603374999999997 12.905249999999999 0.16207 16.653875c0.4433825 3.772875 2.2407425 7.256625 5.058367499999999 9.8045 1.1499 0.97525 2.459825 1.744375 3.871825 2.273125 1.3940875 0.5187499999999999 2.851975 0.8465 4.3339875 0.97425 2.6679999999999997 0.21337499999999998 5.349125 -0.197125 7.831125 -1.199 2.523 -0.994125 4.68075 -2.73775 6.182375 -4.995875 0.701125 -1.083875 1.27525 -2.2447500000000002 1.711125 -3.4597499999999997 0.435625 -1.2073749999999999 0.708625 -2.4675 0.8118749999999999 -3.746875 0.07675 -1.271 0.034875 -2.5462499999999997 -0.125 -3.809425Z" stroke-width="1.25"></path>
  <path fill="#ff8b04" d="M25.3415 12.494812500000002c0.11174999999999999 -0.0184875 0.211875 -0.0795875 0.279375 -0.1704375 0.067625 -0.09084999999999999 0.09724999999999999 -0.204375 0.082875 -0.3166625 -0.14525 -0.987475 -0.663875 -1.881575 -1.4488750000000001 -2.4979625 -0.7885 -0.6083375 -1.764875 -0.9220125 -2.76025 -0.8867750000000001 -0.979625 0.0673 -1.914 0.43839999999999996 -2.6727499999999997 1.0616375 -0.7095 0.6297750000000001 -1.225125 1.44855 -1.486375 2.3605625 -0.017875000000000002 0.0467 -0.026125 0.09648749999999999 -0.0245 0.14645 0.001625 0.049975000000000006 0.013375 0.09910000000000001 0.03425 0.1444875 0.020999999999999998 0.045399999999999996 0.050749999999999997 0.0861375 0.08775 0.119825 0.036875 0.0336875 0.08024999999999999 0.059687500000000004 0.12737500000000002 0.0763125 0.09287500000000001 0.0335 0.195125 0.030125 0.28575 -0.009375 0.09050000000000001 -0.0394875 0.1625 -0.11207500000000001 0.201375 -0.20292500000000002 0.32825 -0.6870875 0.848875 -1.2641375 1.49875 -1.6611375000000002 0.242125 -0.14911249999999998 0.502375 -0.26663749999999997 0.774375 -0.34971250000000004 0.4005 -0.148875 0.822 -0.23320000000000002 1.2489999999999999 -0.2498 0.6922499999999999 -0.0819125 1.391875 0.0721125 1.985875 0.4371375 0.593125 0.3675125 1.0358749999999999 0.9342875 1.248875 1.5987 0.00375 0.06368750000000001 0.0215 0.125775 0.05175 0.18191249999999998 0.03025 0.056150000000000005 0.07250000000000001 0.104975 0.12375 0.14306249999999998 0.051125 0.0380875 0.10999999999999999 0.0645 0.17250000000000001 0.0774125 0.0625 0.012849999999999999 0.127 0.011975 0.189125 -0.0027125Z" stroke-width="1.25"></path>
  <path fill="#ff8b04" d="M5.5077625 15.9545c-0.094425 0.028999999999999998 -0.174175 0.093 -0.22292499999999998 0.179 -0.0487625 0.08587499999999999 -0.06285 0.18712499999999999 -0.039362499999999995 0.283125 0.45155 2.1959999999999997 1.5781999999999998 4.196 3.2223625 5.72025 1.798525 1.4285 4.0499125000000005 2.1641250000000003 6.3447875 2.073375 2.304875 0.034624999999999996 4.550875 -0.72875 6.357374999999999 -2.1607499999999997 1.673625 -1.4902499999999999 2.93425 -3.3875 3.6595 -5.507999999999999 0.022125 -0.051625000000000004 0.033875 -0.107125 0.0345 -0.16337500000000002 0.0007499999999999999 -0.056249999999999994 -0.009625 -0.112 -0.030500000000000003 -0.16424999999999998 -0.020874999999999998 -0.052125000000000005 -0.051875000000000004 -0.09974999999999999 -0.09112500000000001 -0.139875 -0.03924999999999999 -0.04025 -0.08612500000000001 -0.072375 -0.13775 -0.0945s-0.107125 -0.033875 -0.16337500000000002 -0.034624999999999996c-0.056249999999999994 -0.000625 -0.112 0.00975 -0.16424999999999998 0.030625 -0.052125000000000005 0.020874999999999998 -0.09974999999999999 0.05175 -0.139875 0.091 -0.04025 0.039375 -0.072375 0.08612500000000001 -0.0945 0.13775 -0.775125 1.9113749999999998 -2.021125 3.595625 -3.6220000000000003 4.896 -1.630875 1.1765 -3.6117500000000002 1.766375 -5.620500000000001 1.673625 -1.9791249999999998 0.15375 -3.9497625 -0.38975000000000004 -5.570412500000001 -1.5362500000000001 -1.577275 -1.287875 -2.7162249999999997 -3.033375 -3.259825 -4.995875 -0.010225 -0.049874999999999996 -0.030500000000000003 -0.097125 -0.0596 -0.13899999999999998 -0.029099999999999997 -0.041749999999999995 -0.0664125 -0.077125 -0.1096625 -0.104 -0.04325 -0.026874999999999996 -0.091525 -0.04475 -0.141875 -0.052375 -0.0503625 -0.0075 -0.10173750000000001 -0.00475 -0.1509875 0.008125Z" stroke-width="1.25"></path>
  <path fill="#ff8b04" d="M11.1904875 10.846175c0.23554999999999998 -0.5073 0.271225 -1.0847375 0.099925 -1.6171625 -0.1713125 -0.5324249999999999 -0.5369999999999999 -0.9807250000000001 -1.0241625 -1.2555 -0.33161250000000003 -0.1483875 -0.6951375 -0.211275 -1.0573375 -0.18291249999999998 -0.3621875 0.0283625 -0.7115 0.147075 -1.0159625 0.34528749999999997 -1.2489875000000001 0.7493875 -2.0108625 2.7352625 -0.5745374999999999 3.7469375 0.3011625 0.17257499999999998 0.6339875 0.28275 0.9786375 0.32395 0.34465 0.0411875 0.6940625 0.0125625 1.0274125 -0.084175 0.33335 -0.0967375 0.6438125 -0.2596125 0.9128625 -0.4789125s0.4911875 -0.490525 0.6531625000000001 -0.7975125Z" stroke-width="1.25"></path>
</svg>