<svg xmlns="http://www.w3.org/2000/svg" fill="none" viewBox="0 0 30 30" id="Smiley-Lol--Streamline-Freehand" height="30" width="30">
  <desc>
    Smiley Lol Streamline Icon: https://streamlinehq.com
  </desc>
  <path fill="#ff8b04" d="M8.370175 23.738375c0.8711625000000001 0.92025 1.92385 1.6496250000000001 3.0914625 2.142 1.1676125 0.49237499999999995 2.4247375 0.737125 3.6917375000000003 0.718625 2.559875 -0.1 4.993 -1.1408749999999999 6.833125 -2.9231249999999998 1.20925 -1.16775 2.073625 -2.6458749999999998 2.4985 -4.2722500000000005 0.2165 -0.7137499999999999 0.24225 -1.4717500000000001 0.074875 -2.198625 -0.046875 -0.123625 -0.11887500000000001 -0.23625000000000002 -0.21125000000000002 -0.330875 -0.09237499999999998 -0.0945 -0.20337500000000003 -0.16899999999999998 -0.32587499999999997 -0.21875 -0.415625 -0.034749999999999996 -0.8334999999999999 -0.034749999999999996 -1.24925 0 -1.79875 0 -5.658875 0.29975 -9.131625 0.437125 -2.337025 -0.044875 -4.672537500000001 0.14775 -6.970625 0.57475 -0.1114125 0.08987500000000001 -0.20325 0.201625 -0.26985 0.328375 -0.0666 0.12675 -0.10654999999999999 0.265875 -0.1174 0.408625 -0.027875 0.70275 0.0868625 1.403875 0.3372875 2.061125 0.34495 1.202375 0.9410375 2.318 1.7488875000000002 3.2729999999999997Zm3.5352625 -5.609c3.7476874999999996 -0.074875 8.4571875 -0.08737500000000001 10.6308125 -0.08737500000000001h0.6495c-0.08399999999999999 0.9373750000000001 -0.360375 1.8475 -0.8119999999999999 2.67325 -0.365 0.705 -0.8416250000000001 1.346125 -1.4115 1.89875 -1.5595 1.5788749999999998 -3.644375 2.530125 -5.858875 2.673375 -1.105375 0.045125 -2.20825 -0.137875 -3.2399125 -0.537625 -1.0316125 -0.39974999999999994 -1.9698499999999999 -1.0077500000000001 -2.75625 -1.785875 -0.6358999999999999 -0.6679999999999999 -1.1364625 -1.4528750000000001 -1.4740624999999998 -2.311125 -0.2713125 -0.6074999999999999 -0.45228749999999995 -1.2513750000000001 -0.5371625 -1.91125v-0.47475c1.59845 -0.151375 3.204075 -0.213875 4.80945 -0.187375v0.05Z" stroke-width="1.25"></path>
  <path fill="#ff8b04" d="M10.706212500000001 10.8965125c-0.9494 0.6246 -1.9487625 1.2492 -2.8731875000000002 1.8488625 -0.0477375 0.029375 -0.0891875 0.067875 -0.1219625 0.113375 -0.0327875 0.0455 -0.0562375 0.097 -0.0690125 0.1515 -0.0127625 0.05462500000000001 -0.0146125 0.111125 -0.005425 0.1665 0.0092 0.05525000000000001 0.02925 0.10825 0.058987500000000005 0.15575 0.06343750000000001 0.09175000000000001 0.1595875 0.155875 0.26875 0.179125 0.10915 0.02325 0.2230625 0.00375 0.3183875 -0.05425 0.986875 -0.5371250000000001 2.0362 -0.9868625 3.0480625 -1.5115375 0.44971249999999996 -0.23735 0.8869375 -0.4871875 1.2491875 -0.7620125 0.42750000000000005 -0.24383749999999998 0.818625 -0.5466125000000001 1.16175 -0.8994375 0.207 -0.247825 0.333375 -0.5528875 0.36225 -0.8744375 -0.0025 -0.1534125 -0.0455 -0.303425 -0.12437500000000001 -0.4349875 -0.07900000000000001 -0.1315625 -0.19112500000000002 -0.24003750000000001 -0.32525 -0.3145375l-1.2492375 -0.72455c-0.5865250000000001 -0.32857499999999995 -1.20105 -0.6044875000000001 -1.8363375000000002 -0.8244750000000001 -0.9248625 -0.31735 -1.86755 -0.5801375 -2.8232125000000003 -0.787 -0.046724999999999996 -0.0152625 -0.0960625 -0.02085 -0.1450125 -0.0164375 -0.048962500000000006 0.0044125 -0.0965 0.0187375 -0.13973750000000001 0.0421125 -0.043237500000000005 0.023375 -0.08127499999999999 0.0553 -0.111775 0.09383749999999999 -0.0305125 0.0385375 -0.0528625 0.08288749999999999 -0.0656875 0.130325 -0.0152625 0.046724999999999996 -0.02085 0.0960625 -0.0164375 0.145025 0.0044125 0.04895 0.0187375 0.09648749999999999 0.0421125 0.13973750000000001 0.023375 0.043237500000000005 0.0553 0.0812625 0.09383749999999999 0.111775 0.0385375 0.030500000000000003 0.08288749999999999 0.052849999999999994 0.1303375 0.06567500000000001 0.7745000000000001 0.29981250000000004 1.48655 0.5746375 2.173625 0.8994249999999999 0.68845 0.325425 1.34505 0.7143625 1.96125 1.161775l0.7245375 0.4747c-0.2058375 0.1800125 -0.4227875 0.3469 -0.6495875 0.499675 -0.262325 0.287325 -0.6370874999999999 0.56215 -1.0368375 0.8244875Z" stroke-width="1.25"></path>
  <path fill="#ff8b04" d="m20.5875 7.6985125 1.79875 -1.34915c0.0775 -0.05755 0.13075 -0.141975 0.14925 -0.236725 0.018500000000000003 -0.0947375 0.000875 -0.19297499999999998 -0.049249999999999995 -0.27545 -0.023375 -0.0422375 -0.05499999999999999 -0.0793875 -0.09287500000000001 -0.10925000000000001 -0.038 -0.0298625 -0.08149999999999999 -0.0518375 -0.128 -0.0646375 -0.046625 -0.0128 -0.09525 -0.016175000000000002 -0.143125 -0.0099125 -0.047875 0.006275 -0.094 0.0220375 -0.13575 0.0463875l-1.998625 1.0993125c-0.5497500000000001 0.2998 -1.8613750000000002 0.8869375 -2.6358749999999995 1.2492 -0.32662499999999994 0.1695875 -0.618875 0.39831249999999996 -0.862 0.674575 -0.0915 0.15946249999999998 -0.12875 0.34430000000000005 -0.106125 0.5267625 0.0225 0.18245 0.103625 0.352675 0.23112500000000002 0.4851 0.642625 0.5585375 1.35675 1.02905 2.123625 1.3991124999999998 0.737 0.41223750000000003 1.449125 0.7745124999999999 2.148625 1.2492125 0.4655 0.26644999999999996 0.915875 0.558325 1.349125 0.87445 0.043375000000000004 0.035500000000000004 0.093375 0.062 0.147125 0.078 0.053625 0.016125 0.10999999999999999 0.021375 0.16575 0.015625 0.05575 -0.005875 0.10975 -0.022625000000000003 0.159 -0.049375 0.049125 -0.02675 0.092625 -0.063125 0.12775 -0.10675000000000001 0.06575 -0.08987500000000001 0.095625 -0.201 0.084125 -0.31175 -0.0115 -0.110875 -0.06375 -0.21337499999999998 -0.146625 -0.287875 -0.42462500000000003 -0.38721249999999996 -0.861875 -0.737 -1.3116249999999998 -1.0742875 -0.662125 -0.499675 -1.336625 -0.9493875 -2.02375 -1.4365875 -0.08737500000000001 0 -0.949375 -0.41223750000000003 -1.399125 -0.7120500000000001 0.224875 -0.11242500000000001 0.52475 -0.23735 0.749625 -0.3747625 0.637 -0.4871875 1.4115 -1.01185 1.798875 -1.299175Z" stroke-width="1.25"></path>
  <path fill="#ff8b04" d="M4.997249999999999 16.243125c0.19419999999999998 -0.323125 0.341425 -0.6722499999999999 0.437225 -1.036875 0.187375 -0.712 0.2248625 -1.4865 0.424725 -2.173625 0.0929375 -0.251375 0.2235125 -0.48724999999999996 0.38726249999999995 -0.69955 0.2583125 -0.357825 0.5378000000000001 -0.6998875 0.8369625 -1.02435 0.0793375 -0.0796125 0.12388750000000001 -0.1874125 0.12388750000000001 -0.29981250000000004 0 -0.1123875 -0.04455 -0.2202 -0.12388750000000001 -0.29981250000000004l-0.12491250000000001 -0.07495c0.0707 -0.027187499999999996 0.1315 -0.07517499999999999 0.174375 -0.1376125 0.0428875 -0.0624375 0.06583750000000001 -0.1364125 0.06583750000000001 -0.21216249999999998 0 -0.07575 -0.02295 -0.149725 -0.06583750000000001 -0.21216249999999998 -0.042874999999999996 -0.0624375 -0.103675 -0.110425 -0.174375 -0.1376125 -0.4769875 -0.166125 -0.9826374999999999 -0.2341125 -1.4865624999999998 -0.19987499999999997 -0.51285 0.023700000000000002 -1.0206875 0.11183749999999999 -1.5115375 0.262325 -1.3592499999999998 0.45055 -2.5374499999999998 1.3265250000000002 -3.3603775000000002 2.498425 -0.30266624999999997 0.44027499999999997 -0.49766075 0.945525 -0.569265875 1.4749 -0.07160512499999999 0.5295 -0.017817625 1.068375 0.157027125 1.5731249999999999 0.17667624999999998 0.46875 0.47229625 0.883375 0.8577887500000001 1.203125 0.38549 0.31975000000000003 0.8475775000000001 0.53375 1.3408149999999999 0.62075 0.4978875 0.100125 1.0144625 0.04625 1.4809125 -0.154625 0.46643749999999995 -0.20087500000000003 0.8606 -0.5391250000000001 1.1299375 -0.969625Zm-3.4728 -1.17425c-0.1290375 -0.39987500000000004 -0.1496125 -0.826875 -0.059625 -1.23725 0.0899875 -0.410375 0.2873 -0.789625 0.5718 -1.09875 0.6050125 -0.7678375 1.3844375 -1.3802375 2.2735625 -1.7864250000000002 0.3745625 -0.1670875 0.7693 -0.284675 1.17425 -0.349775 0.36319999999999997 -0.068925 0.7361125000000001 -0.068925 1.0993125 0l-0.1374125 0.09993749999999998c-0.36178750000000004 0.3303375 -0.696025 0.6896249999999999 -0.999375 1.074325 -0.22870000000000001 0.27647499999999997 -0.4101875 0.5888125000000001 -0.5371625 0.9244375 -0.2498375 0.6745 -0.349775 1.449 -0.5996125 2.148625 -0.08357500000000001 0.24825 -0.20129999999999998 0.48375 -0.349775 0.6995 -0.1449125 0.184875 -0.33896250000000006 0.325 -0.5599125 0.404625 -0.2209625 0.0795 -0.4598625 0.095125 -0.6893 0.045125 -0.2594125 -0.033 -0.5052 -0.135125 -0.71175 -0.2955 -0.20653749999999998 -0.160375 -0.3662625 -0.37324999999999997 -0.4625125 -0.616375l-0.0124875 -0.0125Z" stroke-width="1.25"></path>
  <path fill="#ff8b04" d="M28.220125 9.997074999999999c-0.786875 -0.49325 -1.683875 -0.7834125000000001 -2.6105 -0.8444625 -0.9266249999999999 -0.06105 -1.854 0.108925 -2.6987499999999995 0.4946875 -0.089375 0.0431625 -0.157875 0.12 -0.19075000000000003 0.213675 -0.03275 0.0936875 -0.027000000000000003 0.1965375 0.015875 0.2860125 0.04 0.07155 0.10099999999999999 0.1291 0.17475000000000002 0.16485 0.073625 0.035750000000000004 0.156625 0.047975 0.2375 0.035025l-0.062375 0.0874375c-0.022625000000000003 0.0516125 -0.034749999999999996 0.1072125 -0.035750000000000004 0.16355000000000003 -0.000875 0.056350000000000004 0.0095 0.11230000000000001 0.030375 0.16462500000000002 0.020999999999999998 0.0523125 0.052125000000000005 0.09995000000000001 0.09162500000000001 0.1401125 0.03950000000000001 0.040175 0.08662500000000001 0.072075 0.13849999999999998 0.0938625 0.45975 0.22902499999999998 0.823 0.614325 1.024375 1.0868125 0.34975 0.7494875 0.46225000000000005 1.6364875 0.7495 2.4109875 0.184 0.691875 0.58725 1.3054999999999999 1.149375 1.748875 0.336375 0.261125 0.754625 0.39437500000000003 1.18 0.376 0.4255 -0.01825 0.83075 -0.18687499999999999 1.1435 -0.475875 0.772875 -0.691875 1.277125 -1.634 1.424125 -2.660875 0.06987499999999999 -0.6884999999999999 -0.05875 -1.3826375 -0.370875 -2.0003 -0.31224999999999997 -0.61765 -0.7947500000000001 -1.132975 -1.3905 -1.4849999999999999Zm0.33725 3.272925c-0.08425 0.54725 -0.307875 1.0635 -0.6496250000000001 1.499 -0.237375 0.287375 -0.524625 0.52475 -0.899375 0.299875 -0.5515 -0.40399999999999997 -0.9376249999999999 -0.994375 -1.086875 -1.6615 -0.23074999999999998 -0.84775 -0.6115 -1.6474 -1.12425 -2.3609625000000003 -0.310875 -0.3636375 -0.70525 -0.6465375 -1.1492499999999999 -0.8244750000000001h-0.075c1.120875 -0.27192500000000003 2.3025 -0.1253375 3.3228750000000002 0.41223750000000003 0.53225 0.2047875 0.9828749999999999 0.5782125 1.282875 1.0632125000000001 0.3 0.485 0.433 1.0548625 0.378625 1.6226125v-0.05Z" stroke-width="1.25"></path>
  <path fill="#f7f7f7" d="M3.74805 6.736625c1.1379625 -1.3729 2.5078625 -2.5356125 4.0474375 -3.435325 0.9122750000000001 -0.5227625 1.8801875000000001 -0.941775 2.885675 -1.2492125 0.66835 -0.21265 1.3537875 -0.3672875 2.0487125 -0.46221249999999997 0.86325 -0.161725 1.734875 -0.2743375 2.6108749999999996 -0.3372875 0.574 -0.03729875 1.149875 -0.03729875 1.723875 0 0.08750000000000001 0.01745 0.17825000000000002 0.0031375 0.256125 -0.04037125 0.077875 -0.043505 0.137625 -0.113345 0.168625 -0.1969725 0.014374999999999999 -0.09765625 -0.010375 -0.19704 -0.068875 -0.27656375 -0.0585 -0.07952374999999999 -0.146 -0.1327675 -0.2435 -0.1481675 -0.753625 -0.14896625 -1.518125 -0.23669625 -2.286 -0.26233375H12.6175c-0.7854 0.03636125 -1.5644625 0.15782999999999997 -2.3235875 0.36227000000000004 -1.13605 0.31645375000000003 -2.2152374999999997 0.80967625 -3.197975 1.4615762500000002C5.4946375000000005 3.243375 4.120125 4.6348625 3.0485 6.249425c-0.0657125 0.09188750000000001 -0.0933 0.20563749999999997 -0.077 0.317425 0.0163 0.111775 0.075225 0.2129125 0.16443750000000001 0.2822 0.046837500000000004 0.0349 0.1003625 0.059775 0.15723750000000003 0.0730625 0.056874999999999995 0.0132875 0.1158875 0.0147 0.173325 0.00415 0.05745 -0.010562499999999999 0.11209999999999999 -0.032850000000000004 0.16055 -0.065475 0.0484375 -0.032625 0.0896375 -0.0749 0.121 -0.12416250000000001Z" stroke-width="1.25"></path>
  <path fill="#f7f7f7" d="M28.857125 18.891375c-0.106 -0.028375 -0.21875 -0.015875 -0.31600000000000006 0.035125 -0.097125 0.050875000000000004 -0.171625 0.1365 -0.208625 0.23975 -0.23862499999999998 0.664 -0.5225 1.311 -0.8494999999999999 1.9362499999999998 -0.312 0.623375 -0.666875 1.2245 -1.0618750000000001 1.798875 -1.4235 1.9645000000000001 -3.403375 3.4571249999999996 -5.6838750000000005 4.28475 -2.2636249999999998 0.882625 -4.6998750000000005 1.233125 -7.1205 1.024375 -1.3421125 -0.10112499999999999 -2.6651124999999998 -0.378375 -3.934975 -0.8245 -1.2436875 -0.441 -2.4048249999999998 -1.087 -3.435325 -1.91125 -0.840375 -0.677875 -1.5879874999999999 -1.4632500000000002 -2.2235875 -2.336 -0.6463249999999999 -0.876625 -1.1911375 -1.82375 -1.623975 -2.82325 -0.0166125 -0.0455 -0.0422 -0.08737500000000001 -0.0752625 -0.122875 -0.03305 -0.035375 -0.0728875 -0.063875 -0.11716249999999999 -0.08375 -0.044275 -0.019750000000000004 -0.09206249999999999 -0.030500000000000003 -0.14055 -0.0315 -0.048487499999999996 -0.001 -0.09668750000000001 0.00775 -0.141725 0.025750000000000002 -0.046024999999999996 0.018 -0.0880375 0.04475 -0.12365 0.07900000000000001 -0.035612500000000005 0.03425 -0.0641 0.075125 -0.08383750000000001 0.1205 -0.019725 0.045250000000000005 -0.030325 0.094 -0.031162500000000003 0.143375 -0.0008375 0.049375 0.0081 0.098375 0.0262875 0.144375 0.4068875 1.0742500000000001 0.9305375 2.100625 1.5615 3.0604999999999998 0.6250875 0.974125 1.3723625 1.864125 2.2236000000000002 2.648375 1.1078875000000001 0.978875 2.375475 1.760625 3.747625 2.311 1.3726749999999999 0.526125 2.8094875000000004 0.8663750000000001 4.272325 1.011875 2.6442500000000004 0.204375 5.299125 -0.22375 7.745125000000001 -1.24925 2.477 -1.00575 4.583875 -2.750625 6.033625000000001 -4.99675 0.39399999999999996 -0.62475 0.744625 -1.2758749999999999 1.049375 -1.948875 0.302375 -0.673875 0.561125 -1.3664999999999998 0.7745000000000001 -2.073625 0.015375 -0.09537500000000002 -0.00225 -0.193125 -0.05 -0.27725 -0.047625 -0.08399999999999999 -0.12262500000000001 -0.14925 -0.21237499999999998 -0.185Z" stroke-width="1.25"></path>
  <path fill="#f7f7f7" d="M18.238875 1.5773625c1.315 0.26 2.580125 0.7280875 3.747625 1.386625 0.49974999999999997 0.274825 0.974375 0.5746375 1.449125 0.8994249999999999 0.47462499999999996 0.32480000000000003 0.911875 0.6620874999999999 1.349125 1.0118625 1.05075 0.8277625 1.9618749999999998 1.8189374999999999 2.69825 2.9356375000000003 0.0225 0.0447875 0.053625 0.08462499999999999 0.09175000000000001 0.11715 0.038125 0.032525 0.082375 0.057075 0.130125 0.0722125 0.04775 0.01515 0.098 0.020562499999999997 0.147875 0.015924999999999998 0.049874999999999996 -0.004625000000000001 0.098375 -0.0192125 0.14250000000000002 -0.0428875 0.072375 -0.052500000000000005 0.1245 -0.1284875 0.14725 -0.21502500000000002 0.02275 -0.0865375 0.014875000000000001 -0.1783 -0.022375 -0.259675 -0.59975 -1.3453249999999999 -1.4473749999999999 -2.5657875000000003 -2.498375 -3.597725 -0.449875 -0.43945 -0.939125 -0.8367 -1.461625 -1.1867375 -0.524375 -0.3475625 -1.07575 -0.652525 -1.6488749999999999 -0.911925 -1.3155000000000001 -0.591905 -2.7223750000000004 -0.95521625 -4.159875 -1.0743225 -0.055874999999999994 -0.00696125 -0.11249999999999999 -0.0027575 -0.16674999999999998 0.0123675 -0.05425 0.015125 -0.104875 0.04086875 -0.149 0.0757375 -0.04425 0.034867499999999996 -0.08099999999999999 0.07816375 -0.10825 0.12737500000000002 -0.027375 0.049210000000000004 -0.0445 0.10335250000000001 -0.050749999999999997 0.15928250000000002 -0.011000000000000001 0.11030999999999999 0.020249999999999997 0.2206975 0.08750000000000001 0.3088225 0.06725 0.08813750000000001 0.16549999999999998 0.147425 0.27475 0.16587500000000002Z" stroke-width="1.25"></path>
</svg>