<svg xmlns="http://www.w3.org/2000/svg" fill="none" viewBox="0 0 30 30" id="Smiley-Thumbs-Up--Streamline-Freehand" height="30" width="30">
  <desc>
    Smiley Thumbs Up Streamline Icon: https://streamlinehq.com
  </desc>
  <path fill="#f7f7f7" d="M27.69375 7.866175c-1.014125 -1.6854625 -2.278625 -3.2070125 -3.75 -4.5125 -2.03525 -1.8407624999999999 -4.59775 -2.9951675 -7.325 -3.299994C13.9235 -0.17126 11.2165125 0.31583124999999995 8.768749999999999 1.4661750000000002c-2.0885000000000002 0.9489124999999999 -3.925225 2.374625 -5.3625 4.1625C1.9973125 7.400449999999999 0.99838125 9.46235 0.48125375 11.666175c-0.01292625 0.0533875 -0.015063749999999999 0.10880000000000001 -0.006286249999999999 0.1630125 0.008777499999999999 0.0542125 0.02829125 0.1061375 0.05739875 0.1527 0.0291075 0.046575000000000005 0.06722125 0.0868625 0.11210625 0.1185125 0.044885 0.03165 0.09563749999999999 0.0540125 0.14928125 0.065775 0.10414625 0.0187875 0.21153000000000002 -0.0031750000000000003 0.29994125 -0.0613375 0.08841 -0.058162500000000006 0.15108375000000002 -0.14807499999999998 0.17505500000000002 -0.2511625 0.5341125 -2.0706875 1.5298 -3.9936875 2.9125 -5.625 1.3471250000000001 -1.627325 3.060575 -2.9124125000000003 5 -3.75 2.290825 -1.0003375 4.8 -1.39629375 7.2875 -1.1500000000000001 2.45675 0.312575 4.755 1.3830375 6.574999999999999 3.0625 1.3416249999999998 1.21825 2.4995000000000003 2.6245374999999997 3.4375 4.175 0.9625 1.504775 1.54575 3.2204375 1.7000000000000002 4.99995 0.16299999999999998 1.9846249999999999 -0.07062500000000001 3.98175 -0.6875 5.875 -0.629 1.877125 -1.777625 3.5372500000000002 -3.3125 4.7875 -0.997625 0.84125 -2.166375 1.4555000000000002 -3.4250000000000003 1.7999999999999998 -1.928375 0.5539999999999999 -3.9192500000000003 0.860625 -5.925000000000001 0.9125 -0.09724999999999999 0.0065 -0.188125 0.050499999999999996 -0.2535 0.122875 -0.065375 0.072375 -0.1 0.16725 -0.0965 0.264625 0 0.04875 0.00975 0.096875 0.028749999999999998 0.14175 0.019 0.04475 0.04675 0.085375 0.08175 0.119125 0.035 0.033875 0.0765 0.06025 0.12200000000000001 0.07775 0.045375 0.0175 0.093875 0.025625000000000002 0.14250000000000002 0.023875 2.078625 -0.010625 4.148 -0.275125 6.1625 -0.7875 1.366 -0.353 2.6432499999999997 -0.9873750000000001 3.75 -1.8625 1.740875 -1.3316249999999998 3.0675000000000003 -3.13075 3.825 -5.1875 0.7192500000000001 -2.035875 1.029375 -4.193875 0.9125 -6.35 -0.1345 -1.9989625 -0.7568750000000001 -3.9345625 -1.8125 -5.63745Z" stroke-width="1.25"></path>
  <path fill="#ff8b04" d="M19.91875 19.87875c0.848875 -0.36725 1.5585 -0.9955 2.026 -1.7933750000000002 0.46762499999999996 -0.7979999999999999 0.668625 -1.72425 0.574 -2.644125 -0.035500000000000004 -0.21025 -0.12425 -0.40800000000000003 -0.257625 -0.5742499999999999 -0.1335 -0.16625 -0.30724999999999997 -0.29562499999999997 -0.504875 -0.375875 -0.566125 -0.1535 -1.15875 -0.18325000000000002 -1.7374999999999998 -0.08737500000000001 -1.525 0.08750000000000001 -3.8125 0.475 -5.675 0.675 -0.5 0.0625 -0.9750000000000001 0.1 -1.3875000000000002 0.125 -0.08612500000000001 0.015875 -0.164 0.0615 -0.22012500000000002 0.128875 -0.056 0.067375 -0.08662500000000001 0.152125 -0.08662500000000001 0.23987499999999998 0 0.087625 0.030625 0.172375 0.08662500000000001 0.23975 0.056125 0.067375 0.134 0.11299999999999999 0.22012500000000002 0.129l7.075 -0.22499999999999998h1.0374999999999999c0.041 0.6285000000000001 -0.112 1.254625 -0.4385 1.7933750000000002 -0.32637499999999997 0.53875 -0.810375 0.964375 -1.3864999999999998 1.219125 -0.5623750000000001 0.383125 -1.20075 0.640625 -1.8715000000000002 0.754875 -0.6708749999999999 0.114375 -1.3585 0.082875 -2.016 -0.0925 -0.51275 -0.21587499999999998 -0.986 -0.51575 -1.4000000000000001 -0.8875 -0.418875 -0.34675 -0.767 -0.7711250000000001 -1.025 -1.25 -0.023 -0.050875000000000004 -0.05575 -0.09675 -0.096375 -0.135 -0.040749999999999995 -0.038125 -0.08862500000000001 -0.06799999999999999 -0.140875 -0.08775 -0.05225 -0.019750000000000004 -0.10775 -0.028999999999999998 -0.163625 -0.02725 -0.0558125 0.00175 -0.110725 0.014499999999999999 -0.1616125 0.0375 -0.05046250000000001 0.02175 -0.096075 0.05325 -0.13417500000000002 0.09287500000000001 -0.0381125 0.03950000000000001 -0.0679375 0.08625000000000001 -0.08772500000000001 0.1375 -0.019799999999999998 0.051250000000000004 -0.0291625 0.105875 -0.0275375 0.16075 0.0016124999999999998 0.05499999999999999 0.0141625 0.109 0.0369375 0.159 0.26392499999999997 0.621125 0.6508625 1.182375 1.1374875 1.6500000000000001 0.47325 0.476375 1.017125 0.8768750000000001 1.6125 1.1875 0.8240000000000001 0.28612499999999996 1.70125 0.38525 2.5682500000000004 0.290125 0.867 -0.09525 1.702 -0.38212500000000005 2.4442500000000003 -0.840125Z" stroke-width="1.25"></path>
  <path fill="#ff8b04" d="M10.418737499999999 13.728625000000001c0.27815 0.076625 0.57185 0.076625 0.8500000000000001 0 0.22066249999999998 -0.077125 0.418725 -0.207875 0.5764 -0.3805 0.1576875 -0.172625 0.2700625 -0.381625 0.32704999999999995 -0.608375 0.056987499999999996 -0.22675 0.056812499999999995 -0.46405 -0.0005124999999999999 -0.6907000000000001 -0.057325 -0.2266375 -0.17 -0.43551249999999997 -0.32793750000000005 -0.607875 -1.25 -1.55 -3.75 1.025 -2.175 2.14995 0.23362500000000003 0.110875 0.492275 0.15825 0.75 0.1375Z" stroke-width="1.25"></path>
  <path fill="#ff8b04" d="M23.956625 12.92875c0.280875 0.050124999999999996 0.5700000000000001 0.02425 0.8375 -0.075 0.223 -0.076375 0.42325 -0.20725 0.5826250000000001 -0.3808 0.159375 -0.1735625 0.272875 -0.38425 0.33 -0.6128750000000001 0.057124999999999995 -0.22862500000000002 0.056249999999999994 -0.4679 -0.0027500000000000003 -0.6960624999999999 -0.059 -0.2281625 -0.174125 -0.4379375 -0.33487500000000003 -0.610225 -1.25 -1.5375 -3.75 1.0374999999999999 -2.175 2.1624625 0.22974999999999998 0.139625 0.493625 0.213125 0.7625 0.21250000000000002Z" stroke-width="1.25"></path>
  <path fill="#ff8b04" d="M12.0438125 25.116125c-0.1279125 -0.255 -0.322225 -0.47100000000000003 -0.5625 -0.625 0.24536249999999998 -0.40437500000000004 0.3384375 -0.883 0.2625 -1.35 -0.05215 -0.44187499999999996 -0.19696249999999998 -0.8678750000000001 -0.42500000000000004 -1.25 -0.1687 -0.24962499999999999 -0.3907 -0.458875 -0.65 -0.6125 0.052649999999999995 -0.11900000000000001 0.0864 -0.2455 0.1 -0.375 0.0665625 -0.409625 0.0331375 -0.82925 -0.09745000000000001 -1.22325 -0.1305875 -0.393875 -0.3544625 -0.7503749999999999 -0.65255 -1.03925 -0.6428499999999999 -0.41325 -1.3992499999999999 -0.614375 -2.1625 -0.5750000000000001 -0.93715 -0.027499999999999997 -1.868475 0.15625 -2.725 0.5375 0.074775 -1.124625 -0.2384875 -2.240875 -0.8875 -3.1624999999999996 -1.125 -1.25 -3.175 -0.1625 -3.3875 1.7000000000000002 -0.021657500000000003 0.7645000000000001 0.0753275 1.52775 0.28750000000000003 2.2625 0.35000000000000003 1.25 0.28750000000000003 1.1875 0.6 1.6625 -0.27502499999999996 0.299375 -0.50646875 0.636 -0.6875 1 -0.125 0.42500000000000004 -0.35000000000000003 0.925 -0.15 1.25 0.2 0.325 0.375 0.28750000000000003 0.5874999999999999 0.075 0.21250000000000002 -0.21250000000000002 0.11249999999999999 -0.55 0.17500000000000002 -0.75 0.09285 -0.35825 0.2782 -0.685875 0.5375 -0.95 0.2 -0.2625 0.35000000000000003 -0.275 0.5874999999999999 -0.5 2.3125 -2.2125 5.775 -2.4625 6.4 -1.6 1.0625 1.45 -1.45 1.6125 -3.625 2.9625000000000004 -0.0478125 0.013749999999999998 -0.09215 0.0375 -0.1300625 0.06962499999999999 -0.037925 0.03225 -0.0685375 0.072125 -0.0898375 0.117 -0.0212875 0.045 -0.03275 0.094 -0.0336375 0.143625 -0.000875 0.04975 0.00885 0.09912499999999999 0.0285375 0.14475 0.015349999999999999 0.04675 0.040037500000000004 0.08987500000000001 0.0725625 0.12675 0.032525 0.036875 0.0722125 0.06675 0.11665 0.08775 0.044425000000000006 0.020999999999999998 0.092675 0.032875 0.1418125 0.034624999999999996 0.049125 0.001875 0.0981125 -0.0063750000000000005 0.14397500000000002 -0.024125 0.5125 -0.075 0.9625 -0.075 1.4000000000000001 -0.1375 1.25 -0.21250000000000002 1.5625 -0.8250000000000001 2.7 -0.6375 0.19466250000000002 0.15875 0.32842499999999997 0.379875 0.37855 0.626 0.050124999999999996 0.246 0.0135375 0.5018750000000001 -0.10355 0.7240000000000001 -0.5749125 0.39375 -1.2198499999999999 0.6737500000000001 -1.9 0.8250000000000001 -0.46168750000000003 0.220625 -0.9084749999999999 0.47125 -1.3375000000000001 0.75 -0.047475 0.012875000000000001 -0.09185 0.03525 -0.13041250000000001 0.06575 -0.0385625 0.030500000000000003 -0.0705125 0.06862499999999999 -0.09390000000000001 0.111875 -0.023387500000000002 0.04325 -0.037724999999999995 0.090875 -0.042137499999999994 0.139875 -0.0044125 0.048875 0.001175 0.09825 0.01645 0.14500000000000002 0.0128375 0.0475 0.035187500000000003 0.091875 0.065725 0.1305 0.030525 0.0385 0.068575 0.0705 0.11185 0.093875 0.0432625 0.023375 0.0908375 0.03775 0.1398125 0.042125 0.0489875 0.004375 0.09836249999999999 -0.001125 0.1451125 -0.0165 0.4512875 -0.00375 0.902 -0.033 1.35 -0.08750000000000001 0.195775 -0.0265 0.38839999999999997 -0.072625 0.5750000000000001 -0.1375 0.455075 -0.26975 0.9948124999999999 -0.359 1.5125 -0.25 0.041075 0.00775 0.0800875 0.023999999999999997 0.11452499999999999 0.047625 0.0344375 0.02375 0.06355000000000001 0.05437499999999999 0.085475 0.08987500000000001 0.03765 0.0965 0.03765 0.203625 0 0.3 -0.0659625 0.317875 -0.2172 0.611625 -0.4375 0.8500000000000001 -0.2525625 0.2865 -0.5378499999999999 0.5425 -0.8500000000000001 0.7625 -0.8358625 0.575875 -1.8029249999999999 0.932625 -2.8125 1.0374999999999999 -1.0008875000000002 0.147375 -2.0229749999999997 -0.004875 -2.9375 -0.4375 -0.6674375 -0.353 -1.1960125000000001 -0.92125 -1.5 -1.6125 -0.33806250000000004 -0.731875 -0.537275 -1.5202499999999999 -0.5874999999999999 -2.325 -0.001575 -0.05525000000000001 -0.01425 -0.109625 -0.0372625 -0.15987500000000002 -0.023012499999999998 -0.050375 -0.0559125 -0.0955 -0.096725 -0.13275 -0.0408125 -0.037375 -0.0887125 -0.066125 -0.1408625 -0.08449999999999999 -0.052137499999999996 -0.018500000000000003 -0.10744999999999999 -0.026250000000000002 -0.16265000000000002 -0.022875 -0.05584375 0.00325 -0.11051 0.017374999999999998 -0.1608625 0.041749999999999995s-0.09540124999999999 0.0585 -0.13256375 0.10024999999999999c-0.03716125 0.041749999999999995 -0.06570375 0.09050000000000001 -0.0839925 0.143375 -0.01828875 0.052875 -0.0259625 0.108875 -0.02258125 0.16462500000000002 0.01577875 1.10775 0.29424374999999997 2.195875 0.8125 3.175 0.37948750000000003 0.681625 0.9367749999999999 1.247625 1.6125 1.6375000000000002 1.0867499999999999 0.59875 2.325875 0.8640000000000001 3.5625 0.7625 1.242 -0.114 2.4340625 -0.544375 3.4625 -1.25 0.513375 -0.3425 0.9690624999999999 -0.764375 1.35 -1.25 0.28400000000000003 -0.367625 0.480625 -0.795125 0.5750000000000001 -1.25 0.061275 -0.38 -0.0000125 -0.769625 -0.17500000000000002 -1.1125Zm-9.7625 -4.65 -0.11249999999999999 -1.25c0 -0.9375 -0.1625 -2.1625 0.4625 -2.7375 0.125 0 0.5625 -0.7374999999999999 1.1 0.275 0.296875 0.5539999999999999 0.4796375 1.16175 0.5375 1.7874999999999999 -0.0004875 0.06325 0.013975000000000001 0.12562500000000001 0.0422125 0.18212499999999998 0.028249999999999997 0.056375 0.0694625 0.105375 0.12028749999999999 0.142875 -0.794575 0.41974999999999996 -1.51975 0.9594999999999999 -2.15 1.6Z" stroke-width="1.25"></path>
</svg>