<svg xmlns="http://www.w3.org/2000/svg" fill="none" viewBox="0 0 30 30" id="Smiley-Thrilled--Streamline-Freehand" height="30" width="30">
  <desc>
    Smiley Thrilled Streamline Icon: https://streamlinehq.com
  </desc>
  <path fill-rule="evenodd" fill="#ff8b04" d="M7.5186375000000005 22.486625c0.9657499999999999 1.012375 2.12935 1.8152499999999998 3.418525 2.358875 1.2891625000000002 0.543625 2.6763375 0.81625 4.0753375 0.8011250000000001 2.835625 -0.11825000000000001 5.5291250000000005 -1.2738749999999999 7.568875 -3.247375 1.13775 -1.1105 1.994125 -2.476375 2.497875 -3.98425 0.37575 -0.9560000000000001 0.49625 -1.993375 0.34975 -3.01 -0.035750000000000004 -0.151375 -0.10625000000000001 -0.29225 -0.20600000000000002 -0.4115 -0.09974999999999999 -0.11925 -0.22599999999999998 -0.213625 -0.3685 -0.2755 -0.46975 -0.036625 -0.9416249999999999 -0.036625 -1.411375 0 -1.998375 0 -6.319875000000001 0.24975 -10.204125 0.46212499999999995 -3.8843625 0.21237499999999998 -7.7562 0.6244999999999999 -7.7562 0.6244999999999999 -0.1217625 0.09050000000000001 -0.22191249999999998 0.206875 -0.2931875 0.340875 -0.071275 0.133875 -0.1119125 0.282 -0.118975 0.4335 -0.025487499999999996 0.775 0.101825 1.547375 0.3746875 2.273125 0.4197 1.347375 1.1271125 2.5875 2.0733125 3.6345Zm3.9093 -6.2448749999999995c4.1465625 -0.08737500000000001 9.454812500000001 -0.124875 11.8903125 -0.124875h0.8242499999999999c-0.071125 1.100625 -0.38687499999999997 2.171625 -0.9242499999999999 3.1348749999999996 -0.40662499999999996 0.8023750000000001 -0.942625 1.532375 -1.586125 2.1607499999999997 -1.7813750000000002 1.7449999999999999 -4.130875 2.791125 -6.619625 2.947625 -1.249125 0.04275 -2.493875 -0.17 -3.6579625 -0.625375 -1.1640375 -0.45525000000000004 -2.2228375 -1.1435 -3.1115 -2.0225 -0.7152000000000001 -0.7561249999999999 -1.2790625 -1.642125 -1.6611375000000002 -2.610375 -0.30115 -0.666375 -0.503125 -1.37325 -0.5995125 -2.09825 -0.0111375 -0.1955 -0.0111375 -0.39149999999999996 0 -0.587 1.8273000000000001 -0.15812500000000002 3.6618625 -0.2165 5.4955125 -0.174875h-0.0499625Z" stroke-width="1.25"></path>
  <path fill-rule="evenodd" fill="#f7f7f7" d="M29.83775 12.494825c-0.139625 -1.2783875 -0.428875 -2.5359749999999996 -0.86175 -3.7469375 -0.83575 -2.2413749999999997 -2.3017499999999997 -4.19325 -4.221500000000001 -5.6204C22.86975 1.7077 20.641 0.8153337500000001 18.297250000000002 0.54209875c-0.11362499999999999 -0.01101625 -0.227125 0.021566250000000002 -0.317625 0.09114250000000002 -0.09037500000000001 0.0695775 -0.151 0.17094374999999998 -0.16949999999999998 0.28355125 -0.01075 0.11215 0.02225 0.22411625000000002 0.092 0.31254375 0.06987499999999999 0.08842625 0.171125 0.14648875 0.28275 0.16206374999999998 2.1866250000000003 0.305175 4.2521249999999995 1.189125 5.9826250000000005 2.5604125 1.723625 1.34505 3.02425 3.1572625 3.746875 5.220725000000001 0.408375 1.1266125 0.6890000000000001 2.2954749999999997 0.836875 3.4847125 0.106375 1.192375 0.106375 2.392 0 3.5845 -0.115875 1.174875 -0.384625 2.3295 -0.799375 3.4347499999999997 -0.42250000000000004 1.110125 -0.967125 2.17 -1.6237499999999998 3.1598749999999995 -1.393125 1.992375 -3.3568750000000005 3.516375 -5.632875 4.3713750000000005 -2.2741249999999997 0.90825 -4.7292499999999995 1.2717500000000002 -7.169124999999999 1.061625 -1.3496 -0.115875 -2.6772875000000003 -0.41412499999999997 -3.9467499999999998 -0.88675 -1.2584125 -0.46462499999999995 -2.4284 -1.1405 -3.459675 -1.998375 -2.592425 -2.299625 -4.2686625 -5.457 -4.7211375 -8.89275 -0.57959375 -3.44125 0.2190625 -6.972437500000001 2.223175 -9.8294 1.0570625 -1.467975 2.3785875 -2.7259624999999996 3.8968125 -3.709475 1.5378749999999999 -0.9568500000000001 3.2791749999999995 -1.5387125 5.083324999999999 -1.6986124999999999 0.88675 -0.08742375 1.761125 -0.16236250000000002 2.647875 -0.16236250000000002 0.584875 -0.006137500000000001 1.16925 0.03143625 1.7485 0.11240750000000001 0.050875000000000004 0.013194999999999998 0.10375000000000001 0.015585 0.1555 0.0070149999999999995 0.05175 -0.00857125 0.10112499999999999 -0.027911250000000002 0.14500000000000002 -0.05676874999999999 0.043750000000000004 -0.028857499999999998 0.08099999999999999 -0.06658875 0.10925000000000001 -0.110755 0.028375 -0.044165 0.047 -0.09377875000000001 0.05499999999999999 -0.14563125 0.007875 -0.051852499999999996 0.004875 -0.10478875 -0.009 -0.15538125 -0.013875 -0.05059374999999999 -0.038125 -0.09771749999999998 -0.071375 -0.13832125 -0.03325 -0.040603749999999994 -0.074625 -0.07378375000000001 -0.12137500000000001 -0.09739375 -0.046875 -0.02360875 -0.098125 -0.03712 -0.1505 -0.03966125 -0.6102500000000001 -0.11782625 -1.227875 -0.1929475 -1.8484999999999998 -0.22481625000000002 -0.917375 -0.013014999999999999 -1.834625 0.024511250000000002 -2.74775 0.11240875 -1.9366375 0.17541874999999998 -3.8076624999999997 0.79055 -5.4705625 1.798535 -1.6528999999999998 1.0128375 -3.1016749999999997 2.32605 -4.2715 3.871825C0.53241625 9.0841125 -0.40603374999999997 12.905249999999999 0.16207 16.653875c0.4433825 3.772875 2.2407425 7.256625 5.058367499999999 9.8045 1.1499 0.97525 2.459825 1.744375 3.871825 2.273125 1.3979875 0.52025 2.8601875 0.848 4.346487499999999 0.97425 2.663875 0.21225 5.340625 -0.19824999999999998 7.818625 -1.199 2.523 -0.994125 4.68075 -2.73775 6.182375 -4.995875 0.701125 -1.083875 1.27525 -2.2447500000000002 1.711125 -3.4597499999999997 0.435625 -1.2073749999999999 0.708625 -2.4675 0.8118749999999999 -3.746875 0.07675 -1.271 0.034875 -2.5462499999999997 -0.125 -3.809425Z" stroke-width="1.25"></path>
  <path fill-rule="evenodd" fill="#ff8b04" d="M5.4328625 11.7204625c0.208525 -0.4424 0.46395 -0.8611249999999999 0.7618750000000001 -1.248975 0.263875 -0.3641375 0.5997125 -0.6702125000000001 0.9866999999999999 -0.8992749999999999 0.4402125 -0.2438125 0.9332 -0.3767125 1.436325 -0.38717500000000005 0.5192 -0.0310625 1.039725 0.032425 1.5362375 0.1873375 0.524025 0.1446 1.0143875 0.3911125 1.4430125 0.7254375000000001 0.4286375 0.33433749999999995 0.7871250000000001 0.7499250000000001 1.0549875 1.222975 0.0465 0.1027625 0.131 0.183525 0.23575 0.225425 0.10475 0.0419 0.22162500000000002 0.041687499999999995 0.32625000000000004 -0.0006125 0.052 -0.021775000000000003 0.09912499999999999 -0.053675 0.138625 -0.09383749999999999s0.07062500000000001 -0.0877875 0.0915 -0.1400875c0.020874999999999998 -0.0523125 0.03125 -0.10826250000000001 0.030375 -0.1645875 -0.001 -0.0563375 -0.013125000000000001 -0.111925 -0.035625000000000004 -0.16352499999999998 -0.24575 -0.6527624999999999 -0.623125 -1.2479875 -1.1087375 -1.7486375 -0.4856 -0.50065 -1.0690375 -0.8960124999999999 -1.7140125 -1.1614875 -0.6633500000000001 -0.2759625 -1.3812875 -0.3956125 -2.0982875 -0.34971250000000004 -0.732675 0.05740000000000001 -1.4361625 0.31203749999999997 -2.0358375 0.7369000000000001 -0.3898625 0.3226625 -0.7196750000000001 0.7116500000000001 -0.9742000000000001 1.1490625 -0.34612499999999996 0.5858625 -0.61085 1.21615 -0.78685 1.8734625 -0.031475 0.0944125 -0.02415 0.19745 0.02035 0.2864625 0.0445125 0.089 0.12255 0.15668749999999998 0.21694999999999998 0.18814999999999998 0.0944125 0.031475 0.19745 0.02415 0.28645 -0.02035 0.0890125 -0.0445125 0.1567 -0.12255 0.1881625 -0.21694999999999998Z" stroke-width="1.25"></path>
  <path fill-rule="evenodd" fill="#ff8b04" d="M24.517125 9.4223125c-0.48775 -0.6333500000000001 -1.1597499999999998 -1.1001875 -1.923375 -1.3364 -0.7835000000000001 -0.2457875 -1.62875 -0.20595 -2.385625 0.1124 -0.7261249999999999 0.29885 -1.3492499999999998 0.8031 -1.793 1.4509250000000002 -0.443625 0.6478250000000001 -0.6886249999999999 1.4110500000000001 -0.705 2.1961 -0.0042499999999999994 0.09813749999999999 0.027875 0.1944 0.09 0.270425 0.06225 0.076025 0.15025 0.1264875 0.24725 0.14173750000000002 0.049249999999999995 0.005174999999999999 0.09912499999999999 0.0005375 0.1465 -0.013649999999999999 0.0475 -0.0141875 0.09162500000000001 -0.037637500000000004 0.13 -0.069 0.03825 -0.03135 0.07 -0.07 0.09325 -0.1137 0.023375 -0.043687500000000004 0.03775 -0.091575 0.0425 -0.140875 0.109625 -0.5616125000000001 0.37137499999999996 -1.0823125 0.7568750000000001 -1.5052124999999998 0.3855 -0.4229125 0.87975 -0.7317625 1.42875 -0.892825 0.49487499999999995 -0.16867500000000002 1.027375 -0.19465 1.5362500000000001 -0.0749375 0.5369999999999999 0.11455 1.0306250000000001 0.378675 1.423875 0.7618750000000001 0.21749999999999997 0.2096 0.39149999999999996 0.45999999999999996 0.512125 0.7369000000000001 0.131625 0.3141 0.23199999999999998 0.6404 0.29975 0.9742000000000001 0.005999999999999999 0.0555 0.02325 0.10918749999999999 0.050749999999999997 0.1578125 0.027499999999999997 0.0486125 0.0645 0.09115 0.108875 0.125025 0.044375 0.0338625 0.095125 0.058362500000000005 0.14937499999999998 0.07201250000000001 0.054125 0.0136375 0.110375 0.016149999999999998 0.16549999999999998 0.00735 0.056125 -0.0076124999999999995 0.10999999999999999 -0.026350000000000002 0.15875 -0.0550875 0.048624999999999995 -0.028749999999999998 0.09112500000000001 -0.066925 0.124875 -0.11230000000000001 0.03375 -0.0453625 0.057999999999999996 -0.0970125 0.07150000000000001 -0.1519125 0.013500000000000002 -0.054912499999999996 0.016 -0.11195 0.007125 -0.1678 -0.0195 -0.4836125 -0.1035 -0.9624625 -0.24975 -1.4238375 -0.107875 -0.34153749999999994 -0.2725 -0.66245 -0.487125 -0.9492250000000001Z" stroke-width="1.25"></path>
</svg>