<svg xmlns="http://www.w3.org/2000/svg" fill="none" viewBox="0 0 30 30" id="Smiley-Cheeky--Streamline-Freehand" height="30" width="30">
  <desc>
    Smiley Cheeky Streamline Icon: https://streamlinehq.com
  </desc>
  <path fill-rule="evenodd" fill="#f7f7f7" d="M29.83775 12.49505c-0.139625 -1.2783875 -0.428875 -2.5359625 -0.86175 -3.746925 -0.83575 -2.2413875 -2.3017499999999997 -4.1932625 -4.221500000000001 -5.6204125000000005C22.86975 1.7079250000000001 20.641 0.8155650000000001 18.297250000000002 0.54233c-0.11362499999999999 -0.01101625 -0.227125 0.021566250000000002 -0.317625 0.09114250000000002 -0.09037500000000001 0.0695775 -0.151 0.17094374999999998 -0.16949999999999998 0.28355125 -0.01075 0.11215 0.02225 0.22411625000000002 0.092 0.31254249999999995 0.06987499999999999 0.08843375 0.171125 0.14648375 0.28275 0.16207125 2.1866250000000003 0.3051625 4.2521249999999995 1.189125 5.9826250000000005 2.5604 1.723625 1.3450625 3.02425 3.157275 3.746875 5.2207375 0.408375 1.1266 0.6890000000000001 2.2954625 0.836875 3.4846 0.106375 1.1925 0.106375 2.392125 0 3.584625 -0.11424999999999999 1.1763750000000002 -0.387375 2.33175 -0.8118749999999999 3.434625 -0.413125 1.112125 -0.953875 2.1725 -1.6112499999999998 3.16 -1.396375 1.992125 -3.3587499999999997 3.519375 -5.632875 4.383875 -2.27675 0.8981250000000001 -4.7305 1.25725 -7.169124999999999 1.049125 -1.3496 -0.115875 -2.6772875000000003 -0.41412499999999997 -3.9467499999999998 -0.88675 -1.2584125 -0.46462499999999995 -2.4284 -1.1405 -3.459675 -1.998375 -2.592425 -2.299625 -4.2686625 -5.457 -4.7211375 -8.89275 -0.5741287500000001 -3.441125 0.2240625 -6.97025 2.223175 -9.829425 1.0570625 -1.4679624999999998 2.3785875 -2.7259499999999997 3.8968125 -3.7094625C9.0574125 1.998125 10.7982 1.4164375000000002 12.601875 1.25425c0.88675 -0.08743000000000001 1.761125 -0.16236875 2.647875 -0.16236875 0.584625 0.00022500000000000002 1.168625 0.03777125 1.7485 0.11240750000000001 0.050875000000000004 0.013194999999999998 0.10375000000000001 0.015585 0.1555 0.007013749999999999 0.05175 -0.00857 0.10112499999999999 -0.02791 0.14500000000000002 -0.056767500000000005 0.043750000000000004 -0.028857499999999998 0.08099999999999999 -0.06659 0.10925000000000001 -0.110755 0.028375 -0.044165 0.047 -0.09377875000000001 0.05499999999999999 -0.14563125 0.007875 -0.051852499999999996 0.004875 -0.10478875 -0.009 -0.1553825 -0.013875 -0.050592500000000006 -0.038125 -0.09771625 -0.071375 -0.13832S17.308 0.5306625 17.26125 0.5070525c-0.046875 -0.02360875 -0.098125 -0.03712 -0.1505 -0.03966125 -0.6102500000000001 -0.11782625 -1.227875 -0.1929475 -1.8484999999999998 -0.22481625000000002 -0.9176249999999999 -0.01499375 -1.8352499999999998 0.026718750000000003 -2.74775 0.12489750000000001C10.577525000000001 0.5324875 8.7051 1.1438025 7.0439375 2.1535124999999997c-1.6528999999999998 1.0128375 -3.1016749999999997 2.32605 -4.2715 3.8718375C0.53241625 9.08435 -0.40603374999999997 12.9055 0.16207 16.654125c0.4433825 3.772875 2.2407425 7.256625 5.058367499999999 9.8045 1.1499 0.97525 2.459825 1.744375 3.871825 2.273125 1.3997375 0.51425 2.861125 0.8418749999999999 4.346487499999999 0.97425 2.663875 0.21225 5.340625 -0.19824999999999998 7.818625 -1.199 2.523 -0.994125 4.68075 -2.73775 6.182375 -4.9959999999999996 0.701125 -1.08375 1.27525 -2.244625 1.711125 -3.459625 0.435625 -1.2073749999999999 0.708625 -2.4675 0.8118749999999999 -3.746875 0.07675 -1.271 0.034875 -2.5462499999999997 -0.125 -3.80945Z" stroke-width="1.25"></path>
  <path fill-rule="evenodd" fill="#ff8b04" d="M23.4305 15.39275c-0.145375 1.55825 -0.720375 3.0456250000000002 -1.661125 4.296375 -0.39175000000000004 0.526 -0.83525 1.0113750000000001 -1.323875 1.4488750000000001 -0.489625 0.427125 -1.021 0.80375 -1.58625 1.124125 -0.6367499999999999 0.410625 -1.35325 0.6819999999999999 -2.102375 0.796125 -0.749125 0.114 -1.513875 0.06825 -2.2439999999999998 -0.13424999999999998 -0.093 -0.037875 -0.19699999999999998 -0.03825 -0.29025 -0.001 -0.093125 0.03725 -0.16825 0.10925000000000001 -0.209375 0.20087500000000003 -0.037125 0.0945 -0.035750000000000004 0.19974999999999998 0.004 0.29325 0.039625 0.093375 0.1145 0.1675 0.20837499999999998 0.206375 0.83175 0.3685 1.7351249999999998 0.5473750000000001 2.6445000000000003 0.523625 0.9095 -0.02375 1.80225 -0.2495 2.613625 -0.661 0.7001250000000001 -0.31775 1.3483749999999999 -0.73875 1.9235 -1.2489999999999999 0.57275 -0.513625 1.0691249999999999 -1.10675 1.4737500000000001 -1.761125 0.944875 -1.4926249999999999 1.43125 -3.229625 1.3988749999999999 -4.995875 0.010875 -0.059 0.00875 -0.119625 -0.006125 -0.17775 -0.015 -0.058124999999999996 -0.0425 -0.11225 -0.0805 -0.15862500000000002 -0.038125 -0.0465 -0.08587499999999999 -0.08399999999999999 -0.139875 -0.10999999999999999 -0.054125 -0.026 -0.11325 -0.039874999999999994 -0.17312500000000003 -0.040749999999999995 -0.111875 -0.0036249999999999998 -0.220875 0.035875 -0.304625 0.11025 -0.083625 0.074375 -0.1355 0.177875 -0.145125 0.2895Z" stroke-width="1.25"></path>
  <path fill-rule="evenodd" fill="#ff8b04" d="M12.252212499999999 9.485c-0.9492250000000001 0 -1.8110249999999999 -0.0749375 -2.6478374999999996 -0.087425 -0.59475 -0.037575 -1.1912875 -0.037575 -1.7860375 0 -1.0049 0.1225125 -1.99875 0.32294999999999996 -2.972575 0.5995125 -0.0493875 0.006137500000000001 -0.09705 0.02205 -0.140225 0.04681249999999999 -0.0431625 0.0247625 -0.08096249999999999 0.057875 -0.1112 0.0974125 -0.030225000000000002 0.039525000000000005 -0.052275 0.0846875 -0.0648625 0.1328375 -0.012587500000000001 0.0481375 -0.0154625 0.0983125 -0.008450000000000001 0.14758749999999998 0.0125125 0.0973125 0.06268750000000001 0.1858375 0.13974999999999999 0.24655 0.077075 0.060725 0.174875 0.0888 0.2724125 0.0781875 0.9242499999999999 0 1.748575 0.0749375 2.5729 0.0999125h1.1115875l1.1116 -0.087425c0.8368125 -0.0874375 1.673625 -0.23731249999999998 2.6103625000000004 -0.41216250000000004 0.11384999999999999 -0.0126125 0.2182375 -0.0694 0.2906125 -0.1581625 0.072375 -0.08875 0.107125 -0.2023875 0.09662499999999999 -0.31645 -0.004625000000000001 -0.057025 -0.02075 -0.11251250000000002 -0.047375 -0.16315 -0.026625 -0.05065 -0.063125 -0.0953875 -0.10749999999999998 -0.13155 -0.044375 -0.0361625 -0.0955125 -0.0629875 -0.1504625 -0.0788875 -0.05495 -0.015887500000000002 -0.11255 -0.020512500000000003 -0.169325 -0.013600000000000001Z" stroke-width="1.25"></path>
  <path fill-rule="evenodd" fill="#ff8b04" d="M24.529625 10.3718c0.007 -0.056112499999999996 0.00225 -0.11306250000000001 -0.013749999999999998 -0.16729999999999998 -0.016 -0.054237499999999994 -0.043 -0.1045875 -0.07925 -0.1479375 -0.036375000000000005 -0.0433375 -0.08125 -0.07875 -0.131875 -0.104025 -0.050499999999999996 -0.0252625 -0.10575 -0.03985 -0.16225 -0.04285 -0.87425 -0.17486249999999998 -1.7610000000000001 -0.34971250000000004 -2.6728750000000003 -0.47461250000000005 -0.38712499999999994 0 -0.7618750000000001 -0.0874375 -1.149 -0.1124125 -0.38712499999999994 -0.024975 -0.774375 0 -1.1615 0 -0.9492499999999999 0 -1.8484999999999998 0.1373875 -2.710375 0.22481250000000003 -0.049125 -0.0016625 -0.09825 0.0063875 -0.144375 0.0236875 -0.046 0.017312499999999998 -0.08825 0.043524999999999994 -0.12425 0.0771625 -0.036 0.03365 -0.064875 0.07403749999999999 -0.08524999999999999 0.11888750000000001 -0.020374999999999997 0.0448375 -0.031625 0.0932625 -0.03325 0.142475 -0.00175 0.0502375 0.006750000000000001 0.1003125 0.024875 0.147225 0.018 0.0469125 0.045375 0.0897 0.080375 0.125825 0.034875 0.0361375 0.07675 0.06485 0.12312500000000001 0.08446250000000001 0.04625 0.0196 0.09599999999999999 0.0297 0.14625000000000002 0.0296625 0.849375 0.1124125 1.736125 0.287275 2.6603749999999997 0.399675l1.136625 0.087425h3.83425c0.057499999999999996 0.0033875000000000003 0.11499999999999999 -0.0046125 0.169375 -0.0235125 0.05425 -0.0189 0.10437500000000001 -0.048337500000000005 0.14725 -0.08663749999999999 0.043 -0.0382875 0.078 -0.084675 0.102875 -0.1365 0.025 -0.051824999999999996 0.03950000000000001 -0.1080625 0.042624999999999996 -0.1655125Z" stroke-width="1.25"></path>
</svg>