<svg xmlns="http://www.w3.org/2000/svg" fill="none" viewBox="0 0 30 30" id="Smiley-In-Trouble--Streamline-Freehand" height="30" width="30">
  <desc>
    Smiley In Trouble Streamline Icon: https://streamlinehq.com
  </desc>
  <path fill-rule="evenodd" fill="#f7f7f7" d="M29.341124999999998 12.66275c-0.055874999999999994 0.00475 -0.11025 0.020374999999999997 -0.16 0.04625s-0.093875 0.06125 -0.12987500000000002 0.10425000000000001c-0.036 0.042874999999999996 -0.063125 0.092625 -0.079875 0.146125 -0.01675 0.0535 -0.02275 0.10975 -0.0175 0.16562500000000002 0.059625 0.560125 0.08875 1.123 0.08737500000000001 1.686375 0 0.5746249999999999 0 1.13675 -0.062375 1.686375 -0.111875 1.197125 -0.385 2.3737500000000002 -0.8119999999999999 3.49775 -0.426 1.117375 -0.979375 2.182125 -1.649 3.172875 -1.4055 2.015625 -3.392875 3.554125 -5.696250000000001 4.40975 -2.29275 0.887 -4.76025 1.229125 -7.2078750000000005 0.99925 -1.3512374999999999 -0.122375 -2.679375 -0.429125 -3.9474125 -0.911875 -1.242575 -0.47550000000000003 -2.3924875 -1.164625 -3.3977875 -2.036125 -2.5716875 -2.31 -4.2294 -5.4658750000000005 -4.671975 -8.89425 -0.5812225 -3.423125 0.198825 -6.9378375000000005 2.1735875 -9.7936625 1.0532374999999998 -1.4864 2.3802624999999997 -2.7583 3.9099625 -3.7475750000000003 1.5076625 -0.968525 3.2167875 -1.5795375 4.99675 -1.7863375000000001 0.887 -0.08745 1.7613750000000001 -0.1623975 2.64825 -0.1623975 0.5850000000000001 -0.006138749999999999 1.169625 0.0314475 1.748875 0.11242250000000001 0.049249999999999995 0.0073875 0.099375 0.005 0.14775 -0.0070125000000000005 0.04825 -0.0120125 0.09375 -0.0334125 0.13375 -0.063 0.04 -0.029575 0.073875 -0.06675 0.0995 -0.10939249999999999 0.025625000000000002 -0.0426425 0.042624999999999996 -0.08992 0.05 -0.13913375 0.007375 -0.04921375 0.005 -0.09939999999999999 -0.007 -0.1476925 -0.011999999999999999 -0.0482925 -0.033375 -0.09374624999999999 -0.063 -0.133765 -0.029625 -0.04002 -0.06675 -0.07382125 -0.109375 -0.099475 -0.042624999999999996 -0.025652499999999998 -0.09 -0.04265625000000001 -0.139125 -0.05003874999999999 -0.61675 -0.08493624999999999 -1.23875 -0.1266775 -1.8613750000000002 -0.12491875 -0.911875 0 -1.82375 0 -2.7356249999999998 0.11242749999999999C10.6435875 0.75681875 8.761875 1.368375 7.0930125 2.3819125c-1.6610875 1.011925 -3.1185 2.3252875 -4.2972125 3.8724874999999996C0.54188625 9.3223625 -0.40576124999999996 13.157875 0.16000750000000002 16.9225c0.453335 3.781375 2.26983 7.267875 5.10918 9.806125 1.157875 0.96475 2.4716750000000003 1.7251250000000002 3.8849875000000003 2.2485 1.3997625 0.508375 2.8622875 0.823625 4.3472 0.9368750000000001 2.641875 0.2165 5.2978749999999994 -0.1855 7.7575 -1.174125 2.504625 -1.0037500000000001 4.644125 -2.74675 6.1335 -4.996875 0.6863750000000001 -1.0735000000000001 1.248 -2.22175 1.673875 -3.4227499999999997 0.4385 -1.206125 0.7074999999999999 -2.467375 0.7994999999999999 -3.7475000000000005v-1.7613750000000001c-0.010499999999999999 -0.588875 -0.05225 -1.176875 -0.124875 -1.7613750000000001 -0.008875000000000001 -0.10187500000000001 -0.05425 -0.197125 -0.127625 -0.26825 -0.0735 -0.071125 -0.170125 -0.113375 -0.272125 -0.11900000000000001Z" stroke-width="1.25"></path>
  <path fill-rule="evenodd" fill="#f7f7f7" d="m18.24825 1.6320875000000001 3.147875 0.8744375c0.04325 0.0234375 0.09075 0.037837499999999996 0.13974999999999999 0.042312499999999996 0.048875 0.0044875 0.09825 -0.0010249999999999999 0.14500000000000002 -0.016225 0.04675 -0.0151875 0.08987500000000001 -0.039737499999999995 0.12687500000000002 -0.0721375 0.036875 -0.0324 0.066875 -0.07198750000000001 0.088125 -0.11635 0.0435 -0.09129999999999999 0.0495 -0.196 0.016875 -0.2917 -0.03275 -0.0957125 -0.10149999999999999 -0.17483749999999998 -0.19175 -0.2204625 -0.514375 -0.2946125 -1.058875 -0.5333125 -1.6239999999999999 -0.7120424999999999 -0.5665 -0.16577624999999999 -1.14825 -0.27457875 -1.736375 -0.32478874999999996 -0.11225 -0.014461249999999998 -0.225875 0.015217500000000002 -0.31675000000000003 0.08278624999999999 -0.090875 0.06757 -0.152 0.16775874999999998 -0.170375 0.27947875 -0.007 0.0558375 -0.002875 0.11250375 0.01225 0.16670375 0.015125 0.054200000000000005 0.040875 0.10485 0.07575 0.1490125 0.034875 0.044175000000000006 0.07825 0.08096249999999999 0.12737500000000002 0.10826250000000001 0.049249999999999995 0.0272875 0.103375 0.044524999999999995 0.159375 0.0507125Z" stroke-width="1.25"></path>
  <path fill-rule="evenodd" fill="#ff8b04" d="M11.327637500000002 12.699875c0.23262499999999997 -0.5077750000000001 0.26675 -1.0842749999999999 0.095675 -1.6159999999999999s-0.534975 -0.9801625 -1.020075 -1.257075c-0.3326875 -0.1466 -0.6968375 -0.20740000000000003 -1.0591125 -0.17685 -0.362275 0.03055 -0.7111000000000001 0.1514875 -1.0145374999999999 0.3517375 -1.2491875 0.7495125 -2.0112 2.7231875 -0.5746249999999999 3.7475625 0.3019625 0.17212499999999997 0.6355375000000001 0.281625 0.980775 0.322 0.3452375 0.04025 0.6950625 0.010499999999999999 1.0285625 -0.08737500000000001 0.33349999999999996 -0.098 0.643825 -0.262125 0.9124375 -0.48275 0.2686125 -0.220625 0.4899875 -0.49312500000000004 0.6508999999999999 -0.80125Z" stroke-width="1.25"></path>
  <path fill-rule="evenodd" fill="#ff8b04" d="M19.72225 13.74925c0.27075 0.15612499999999999 0.5720000000000001 0.251625 0.883125 0.280125 0.31125 0.028375 0.6248750000000001 -0.011000000000000001 0.919375 -0.11549999999999999 0.2945 -0.1045 0.56275 -0.271625 0.7865 -0.48974999999999996 0.22362500000000002 -0.21825 0.39725000000000005 -0.482375 0.509 -0.7742499999999999 0.075 -0.42466249999999994 -0.899375 -0.5121125 -1.736375 -1.1366999999999998 -0.837 -0.6246 -0.8245 -1.6239500000000002 -1.6115 -1.2491875 -0.450375 0.31745 -0.757875 0.7993250000000001 -0.856 1.3415625 -0.09825 0.5422375 0.020874999999999998 1.1013249999999999 0.331375 1.556575 0.212625 0.2495 0.476875 0.449875 0.7745000000000001 0.587125Z" stroke-width="1.25"></path>
  <path fill-rule="evenodd" fill="#ff8b04" d="M6.655687500000001 23.74275c0.0492875 0.007 0.09946250000000001 0.004125 0.147625 -0.008375 0.04815 -0.012624999999999999 0.09331249999999999 -0.034749999999999996 0.13285 -0.064875 0.03955 -0.03025 0.0726625 -0.068125 0.097425 -0.11124999999999999 0.024775000000000002 -0.04325 0.0406875 -0.090875 0.046825 -0.14024999999999999 0.4317375 -1.746375 1.4286750000000001 -3.301125 2.8356625 -4.422125 1.295575 -1.18175 2.969425 -1.8636249999999999 4.721925000000001 -1.9237499999999998 1.949125 -0.079625 3.8821250000000003 0.383125 5.583875000000001 1.336625 0.828875 0.49512500000000004 1.547125 1.155375 2.110125 1.93975 0.5630000000000001 0.7843749999999999 0.95875 1.6761249999999999 1.16275 2.6197500000000002 0.0215 0.111 0.08625000000000001 0.208875 0.18 0.272125 0.09375 0.06325 0.20875000000000002 0.08675000000000001 0.31975000000000003 0.065125 0.110875 -0.0215 0.208875 -0.08625000000000001 0.272125 -0.179875 0.06325 -0.09375 0.08662500000000001 -0.20875000000000002 0.065125 -0.31975000000000003 -0.16462500000000002 -1.095875 -0.556375 -2.145375 -1.150125 -3.081125 -0.593625 -0.9357500000000001 -1.37625 -1.7371249999999998 -2.297625 -2.352875 -1.874 -1.16225 -4.041 -1.7647499999999998 -6.246 -1.736375 -1.05775 0.008 -2.099875 0.25575000000000003 -3.0480125000000005 0.724625 -0.9231374999999999 0.447125 -1.76705 1.042 -2.498375 1.76125 -1.49395 1.370875 -2.48015 3.20675 -2.7981875 5.209125 -0.0033875000000000003 0.050875000000000004 0.0033125 0.10200000000000001 0.0197 0.15025 0.0163875 0.04825 0.04215 0.09287500000000001 0.0758125 0.131125 0.03365 0.038375 0.07455 0.06962499999999999 0.120325 0.092125 0.045774999999999996 0.022375 0.0955375 0.035625000000000004 0.146425 0.03875Z" stroke-width="1.25"></path>
  <path fill-rule="evenodd" fill="#ff8b04" d="M21.908375000000003 9.9017375c0.549625 0.9993625 1.7113749999999999 1.7238875 3.8225 1.748875 2.111125 0.024975 3.2853749999999997 -0.6870624999999999 3.8474999999999997 -1.6489375000000002 0.290125 -0.6463249999999999 0.43374999999999997 -1.34875 0.420875 -2.05705 -0.013 -0.7083 -0.18225000000000002 -1.4050000000000002 -0.49575 -2.0402875000000003 -0.3135 -0.7808625 -0.6937500000000001 -1.533175 -1.13675 -2.2485375C25.680999999999997 -0.86627125 25.406125 0.08311275 25.343625 0.17055625000000002c-0.41212499999999996 0.5746275 -1.324125 1.8113187499999999 -2.1734999999999998 3.24789375 -0.4485 0.7615875 -0.841 1.55485 -1.17425 2.3734625 -0.30525 0.6396499999999999 -0.470875 1.336925 -0.486 2.0455 -0.015 0.7085874999999999 0.12075000000000001 1.4122750000000002 0.39849999999999997 2.0643249999999997Zm1.24925 -3.7475625c0.252875 -0.786875 0.570375 -1.5514875 0.949375 -2.2860125 0.5371250000000001 -1.0868 1.13675 -2.0611625 1.5490000000000002 -2.72323875 0.57325 0.80112625 1.098875 1.63537625 1.574 2.49837625 0.499375 0.8455374999999999 0.9176249999999999 1.7364375 1.249125 2.660775 0.21375000000000002 0.46863750000000004 0.324375 0.9777125 0.324375 1.4927875 0 0.515075 -0.110625 1.0241375 -0.324375 1.492775 -0.39974999999999994 0.6246 -1.249125 0.9369 -2.67325 0.9119125 -1.424125 -0.024987500000000003 -2.2359999999999998 -0.36226250000000004 -2.6232499999999996 -1.01185 -0.21999999999999997 -0.4693375 -0.340375 -0.9792125 -0.35325 -1.4974124999999998 -0.012875000000000001 -0.5181875 0.081875 -1.033425 0.27825 -1.5131249999999998l0.05 -0.024987500000000003Z" stroke-width="1.25"></path>
</svg>