<svg xmlns="http://www.w3.org/2000/svg" fill="none" viewBox="0 0 30 30" id="Smiley-Eyes-Only--Streamline-Freehand" height="30" width="30">
  <desc>
    Smiley Eyes Only Streamline Icon: https://streamlinehq.com
  </desc>
  <path fill-rule="evenodd" fill="#f7f7f7" d="M29.83725 12.49465c-0.139625 -1.2783625 -0.428875 -2.5359249999999998 -0.86175 -3.746875 -0.840125 -2.2389375 -2.30525 -4.1896375 -4.221500000000001 -5.6203C22.866374999999998 1.7129375 20.639125 0.8211825 18.296875 0.54213125c-0.1135 -0.01101625 -0.227 0.021566250000000002 -0.3175 0.09114125000000001 -0.09050000000000001 0.06957625 -0.151 0.17094125000000002 -0.16949999999999998 0.28354625 -0.01075 0.11214874999999999 0.02225 0.2241125 0.092 0.31253875 0.06987499999999999 0.08843000000000001 0.171125 0.14648 0.282625 0.16206749999999998 2.18975 0.3077 4.258624999999999 1.19125 5.995 2.5603625 1.721125 1.347475 3.021125 3.15885 3.746875 5.2206375000000005 0.40412499999999996 1.1270875 0.680625 2.2959125 0.824375 3.4845749999999995 0.1065 1.1925 0.1065 2.392125 0 3.5845 -0.11424999999999999 1.1763750000000002 -0.38725000000000004 2.33175 -0.8118749999999999 3.434625 -0.413125 1.1119999999999999 -0.95375 2.172375 -1.611125 3.1598749999999995 -1.39325 1.992375 -3.357 3.516375 -5.632875 4.3713750000000005 -2.2741249999999997 0.9081250000000001 -4.7292499999999995 1.2717500000000002 -7.169 1.061625 -1.3495625 -0.115875 -2.6772125000000004 -0.41424999999999995 -3.946675 -0.88675 -1.258375 -0.46475 -2.4283375 -1.1405 -3.4596125 -1.998375 -2.592375 -2.299625 -4.2685875 -5.456875 -4.72105 -8.8925 -0.5795825 -3.441375 0.2190625 -6.972437500000001 2.2231375 -9.82935 1.0570499999999998 -1.46795 2.37855 -2.7259125 3.89675 -3.7094 1.5388375 -0.954725 3.2795875000000003 -1.5364 5.0832 -1.6985875 0.8868750000000001 -0.0874275 1.773625 -0.162365 2.647875 -0.162365 0.58475 -0.00613625 1.16925 0.03143625 1.7485 0.11240625000000001 0.050749999999999997 0.013194999999999998 0.10375000000000001 0.015585 0.1555 0.0070149999999999995 0.05175 -0.00857125 0.10112499999999999 -0.02791 0.144875 -0.056767500000000005 0.043875 -0.02885625 0.081125 -0.06658875 0.109375 -0.1107525 0.028249999999999997 -0.044165 0.047 -0.09377750000000001 0.054875 -0.14562999999999998 0.008 -0.051851249999999995 0.004875 -0.10478625 -0.009 -0.15537875 -0.013749999999999998 -0.050592500000000006 -0.038125 -0.09771500000000001 -0.07125000000000001 -0.1383175 -0.03325 -0.040603749999999994 -0.074625 -0.07378375000000001 -0.1215 -0.09739249999999999 -0.04675 -0.02360875 -0.098125 -0.03712 -0.1505 -0.03966 -0.610125 -0.117825 -1.22775 -0.19294499999999998 -1.8483749999999999 -0.22481250000000003 -0.91725 -0.013014999999999999 -1.834625 0.02451 -2.74775 0.11240625000000001C10.577675 0.530205 8.7066875 1.145325 7.043825 2.1532875000000002c-1.650425 1.0160875 -3.0986124999999998 2.328775 -4.2714375 3.8717625C0.53240625 9.084 -0.40602625000000003 12.905125 0.16206749999999998 16.653625c0.43782875 3.7745 2.2361075 7.26 5.0582825 9.804375 1.1498875 0.97525 2.459775 1.74425 3.8717625 2.273125 1.3958000000000002 0.512875 2.8528625 0.840375 4.3338874999999994 0.974125 2.6679999999999997 0.21337499999999998 5.349 -0.197125 7.831 -1.199 2.524625 -0.9912500000000001 4.683125 -2.7355 6.18225 -4.99575 0.703375 -1.078125 1.27775 -2.235125 1.711125 -3.4471249999999998 0.435625 -1.2075 0.708625 -2.4675 0.81175 -3.746875 0.077625 -1.275125 0.035750000000000004 -2.5546249999999997 -0.124875 -3.82185Z" stroke-width="1.25"></path>
  <path fill-rule="evenodd" fill="#ff8b04" d="M8.2678375 8.048375c-1.24895 0.749375 -2.0108125 2.7227249999999996 -0.5745125 3.7468624999999998 0.30115 0.1725875 0.633975 0.28275 0.9786125 0.32395 0.34465 0.0412 0.69405 0.012575 1.0274 -0.084175 0.3333375 -0.0967375 0.6437875 -0.2596125 0.9128375 -0.4789 0.26905 -0.21930000000000002 0.4911875 -0.490525 0.6531625000000001 -0.7975 0.23553749999999998 -0.5072875 0.27121249999999997 -1.0847125 0.0999125 -1.6171375 -0.1713 -0.5324125 -0.5369875000000001 -0.9807 -1.0241375 -1.2554750000000001 -0.33161250000000003 -0.1483875 -0.695125 -0.211275 -1.0573125 -0.18291249999999998 -0.3621875 0.0283625 -0.7114874999999999 0.147075 -1.0159625 0.34528749999999997Z" stroke-width="1.25"></path>
  <path fill-rule="evenodd" fill="#ff8b04" d="M19.65825 11.7702875c0.30125 0.1872625 0.644625 0.29565 0.99875 0.3151375 0.354 0.0195 0.707375 -0.0505375 1.02725 -0.203625s0.596 -0.3843 0.802875 -0.6722875c0.207 -0.287975 0.33799999999999997 -0.62345 0.381 -0.97545 0.08750000000000001 -0.442525 0.03175 -0.9014 -0.159125 -1.3101125s-0.507 -0.746 -0.9025 -0.9629875c-2.12325 -0.9117375 -4.221500000000001 1.411325 -2.9225000000000003 3.1598625 0.203125 0.27465 0.4685 0.49722500000000003 0.7742499999999999 0.6494624999999999Z" stroke-width="1.25"></path>
</svg>