<svg xmlns="http://www.w3.org/2000/svg" fill="none" viewBox="0 0 30 30" id="Smiley-Grumpy--Streamline-Freehand" height="30" width="30">
  <desc>
    Smiley Grumpy Streamline Icon: https://streamlinehq.com
  </desc>
  <path fill-rule="evenodd" fill="#f7f7f7" d="M29.85025 12.4939c-0.15 -1.2778 -0.44325000000000003 -2.5346875000000004 -0.87425 -3.7469375 -0.83575 -2.2413875 -2.3017499999999997 -4.1932625 -4.221500000000001 -5.6204C22.866749999999996 1.712 20.6395 0.8202275000000001 18.297250000000002 0.5411725c-0.11362499999999999 -0.011017500000000001 -0.227125 0.021565 -0.317625 0.09114250000000002 -0.09037500000000001 0.0695775 -0.151 0.17094374999999998 -0.16949999999999998 0.28355125 -0.01075 0.11215 0.02225 0.224115 0.092 0.31254249999999995 0.06987499999999999 0.08842875 0.171125 0.14649125000000002 0.28275 0.16206625 2.1866250000000003 0.3051625 4.2521249999999995 1.189125 5.9825 2.5604125 1.72375 1.34505 3.024375 3.1572625 3.747 5.220725000000001 0.408375 1.1266125 0.6890000000000001 2.2954625 0.836875 3.4846375000000003 0.106375 1.1925 0.106375 2.392125 0 3.584625 -0.11424999999999999 1.17625 -0.387375 2.33175 -0.8118749999999999 3.434625 -0.413125 1.1119999999999999 -0.953875 2.172375 -1.6112499999999998 3.16 -1.393125 1.992375 -3.3568750000000005 3.516375 -5.632875 4.3713750000000005 -2.2741249999999997 0.9081250000000001 -4.7292499999999995 1.2717500000000002 -7.169124999999999 1.061625 -1.3496 -0.115875 -2.6772875000000003 -0.41424999999999995 -3.9467625 -0.88675 -1.2584 -0.46475 -2.4283875 -1.1405 -3.4596625 -1.998375 -2.5924375 -2.299625 -4.2686625 -5.457 -4.7211375 -8.89275 -0.5741287500000001 -3.441125 0.2240625 -6.970275 2.223175 -9.8294625 1.0570625 -1.4679624999999998 2.3785875 -2.7259499999999997 3.8968125 -3.7094625 1.5388625 -0.9547375 3.27965 -1.536425 5.083324999999999 -1.6986124999999999 0.88675 -0.08742625000000001 1.761125 -0.162365 2.647875 -0.162365 0.584625 0.00022625 1.168625 0.0377725 1.7485 0.11240875 0.050875000000000004 0.013194999999999998 0.10375000000000001 0.015585 0.1555 0.007013749999999999 0.05175 -0.00857 0.10112499999999999 -0.02791 0.14500000000000002 -0.056767500000000005 0.043750000000000004 -0.028857499999999998 0.08099999999999999 -0.06659 0.10925000000000001 -0.110755 0.028375 -0.044165 0.047 -0.09377999999999999 0.05499999999999999 -0.1456325 0.007875 -0.051852499999999996 0.004875 -0.1047875 -0.009 -0.15538125 -0.013875 -0.050592500000000006 -0.038125 -0.09771625 -0.071375 -0.13832s-0.074625 -0.07378499999999999 -0.12137500000000001 -0.09739375c-0.046875 -0.02360875 -0.098125 -0.03712125 -0.1505 -0.03966125 -0.6102500000000001 -0.1178275 -1.227875 -0.1929475 -1.8484999999999998 -0.22481625000000002 -0.9175 -0.00871375 -1.834875 0.0329825 -2.74775 0.12489750000000001C10.577525000000001 0.53132875 8.7051 1.14264375 7.0439375 2.15235c-1.65045 1.0161125 -3.0986625 2.328825 -4.2715 3.8718375C0.53241625 9.0831875 -0.40603374999999997 12.904374999999998 0.16207 16.653c0.4433825 3.772875 2.2407425 7.256625 5.058367499999999 9.8045 1.1499 0.97525 2.459825 1.74425 3.871825 2.273125 1.3958249999999999 0.512875 2.8529125 0.840375 4.3339875 0.97425 2.6679999999999997 0.21325 5.349125 -0.19724999999999998 7.831125 -1.199125 2.523 -0.994125 4.68075 -2.73775 6.182375 -4.995875 0.701125 -1.08375 1.27525 -2.244625 1.711125 -3.459625 0.435625 -1.2075 0.708625 -2.4675 0.8118749999999999 -3.747 0.074625 -1.270625 0.037125 -2.5453750000000004 -0.11249999999999999 -3.8093500000000002Z" stroke-width="1.25"></path>
  <path fill-rule="evenodd" fill="#ff8b04" d="M23.480500000000003 9.671199999999999c-0.35612499999999997 -0.16063750000000002 -0.747 -0.2293375 -1.1365 -0.1998375 -0.53875 -0.1152625 -1.086 -0.18627500000000002 -1.63625 -0.212325 -0.5405 -0.0373875 -1.083 -0.0373875 -1.6236249999999999 0 -0.8118749999999999 0.0749375 -1.57375 0.23731249999999998 -2.360625 0.2622875 -0.0975 -0.010612499999999999 -0.19525 0.01745 -0.27237500000000003 0.078175 -0.077 0.060725 -0.12725 0.14925 -0.13974999999999999 0.24656250000000002 -0.007 0.05021249999999999 -0.0036249999999999998 0.1013125 0.00975 0.150225 0.01325 0.0489 0.0365 0.0945875 0.06799999999999999 0.1342875 0.0315 0.0397 0.07075 0.0725875 0.11537499999999999 0.09667500000000001 0.044625000000000005 0.024087499999999998 0.09362499999999999 0.038875 0.144125 0.0434625 0.9013749999999999 0.2146375 1.82175 0.34013750000000004 2.74775 0.3746875h1.024125c-0.19724999999999998 0.3292125 -0.290875 0.7102124999999999 -0.268625 1.093375 0.02225 0.383175 0.159375 0.75075 0.3935 1.05485 0.203625 0.271125 0.469125 0.4895 0.774375 0.637 0.299625 0.1905 0.642625 0.302 0.996875 0.323875 0.354375 0.021875000000000002 0.7084999999999999 -0.046625 1.029125 -0.19875 0.32075 -0.15225 0.5974999999999999 -0.38337499999999997 0.804625 -0.67175 0.207 -0.288375 0.3375 -0.6245875 0.37925 -0.9771249999999999 0.080125 -0.435525 0.022000000000000002 -0.8851874999999999 -0.166 -1.2860625 -0.188125 -0.400875 -0.496875 -0.7328999999999999 -0.883125 -0.9496125Z" stroke-width="1.25"></path>
  <path fill-rule="evenodd" fill="#ff8b04" d="M4.745875 10.220775c0.0125 0.0973125 0.062675 0.1858375 0.13974999999999999 0.24656250000000002 0.0770625 0.060725 0.174875 0.08878749999999999 0.2724125 0.078175 0.9617125 0 1.9608999999999999 0.06245 2.99755 0.06245h0.9492250000000001c-0.18315 0.2023375 -0.32261249999999997 0.4402375 -0.40971250000000003 0.698875 -0.08710000000000001 0.2586375 -0.11995 0.53245 -0.0965125 0.8043500000000001 0.0234375 0.2719 0.102675 0.5360625 0.23275 0.7759375000000001 0.130075 0.23987499999999998 0.30820000000000003 0.4505 0.5232625 0.6185 0.300075 0.17174999999999999 0.6314375 0.282 0.97465 0.32399999999999995 0.34320000000000006 0.042125 0.6913625 0.015250000000000001 1.02405 -0.07900000000000001 0.3327 -0.09425 0.6432375 -0.253875 0.9134125 -0.46975 0.27016249999999997 -0.21575 0.49453749999999996 -0.48325 0.6599125 -0.78695 0.146625 -0.317925 0.21525 -0.6662625 0.2 -1.016025 -0.015250000000000001 -0.3497625 -0.11374999999999999 -0.6908375 -0.287375 -0.9948374999999999 0.071625 -0.04675 0.12737500000000002 -0.1140125 0.160125 -0.193 0.032625 -0.078975 0.040749999999999995 -0.16598749999999998 0.02325 -0.24965 -0.0175 -0.0836625 -0.06 -0.1600875 -0.121625 -0.219275 -0.061625 -0.059175 -0.13974999999999999 -0.09836249999999999 -0.224125 -0.1124375 -0.8663500000000001 -0.2684125 -1.7576749999999999 -0.44835 -2.6603125 -0.5370625H8.8675c-0.38864999999999994 0.0042875 -0.7766375000000001 0.0334875 -1.1615499999999999 0.087425 -0.8992625 0.1373875 -1.7735500000000002 0.36221250000000005 -2.6103625000000004 0.5745374999999999 -0.09717500000000001 0.006424999999999999 -0.18803750000000002 0.05045 -0.253325 0.122725 -0.065275 0.072275 -0.09985000000000001 0.16712500000000002 -0.0963875 0.26445Z" stroke-width="1.25"></path>
  <path fill-rule="evenodd" fill="#ff8b04" d="M7.868262499999999 22.910375c0.0960375 0.022625000000000003 0.1971 0.0065 0.2812875 -0.045 0.084175 -0.051375 0.1446625 -0.134 0.16835 -0.22974999999999998 0.1394375 -0.438375 0.3324125 -0.857875 0.574525 -1.2489999999999999 0.26416249999999997 -0.40700000000000003 0.5562874999999999 -0.795125 0.8742875 -1.1615 0.9104875 -1.081 2.1459 -1.839 3.5221625000000003 -2.1607499999999997 0.9075 -0.216375 1.8461250000000002 -0.27125 2.77275 -0.162375 0.9381249999999999 0.11549999999999999 1.852625 0.37675000000000003 2.7102500000000003 0.774375 1.3039999999999998 0.5920000000000001 2.43475 1.50775 3.2847500000000003 2.66025 0.388625 0.48862500000000003 0.75125 0.99725 1.086625 1.5237500000000002 0.18687499999999999 0.318875 0.309875 0.6708749999999999 0.36225 1.03675 0.012624999999999999 0.11374999999999999 0.069375 0.21812499999999999 0.15812500000000002 0.2905 0.08875 0.07250000000000001 0.20237499999999997 0.107125 0.3165 0.09662499999999999 0.1115 -0.015625 0.21275 -0.073625 0.282625 -0.16212500000000002 0.06975 -0.088375 0.10275 -0.200375 0.092 -0.3125 -0.03825 -0.48275 -0.16975 -0.9536250000000001 -0.38712499999999994 -1.386375 -0.28725 -0.5745 -0.6745 -1.111625 -1.024125 -1.673625 -1.0290000000000001 -1.62825 -2.533125 -2.90125 -4.309 -3.6470000000000002 -0.767 -0.317125 -1.5738750000000001 -0.52725 -2.3981250000000003 -0.6244999999999999 -1.109375 -0.145125 -2.237 -0.055874999999999994 -3.30975 0.26225 -1.606025 0.48375 -2.99855 1.501625 -3.9467625 2.8852499999999996 -0.3786875 0.504875 -0.7090375 1.044375 -0.9866999999999999 1.611125 -0.17905000000000001 0.401375 -0.31713749999999996 0.819875 -0.41216250000000004 1.2489999999999999 -0.015050000000000001 0.094 0.006275 0.19025 0.0596375 0.269125 0.0533625 0.078875 0.13475 0.1345 0.22762500000000002 0.1555Z" stroke-width="1.25"></path>
  <path fill-rule="evenodd" fill="#ff8b04" d="M6.6942875 7.0858c0.29345 -0.5233375 0.7256374999999999 -0.955525 1.248975 -1.2489875000000001 0.494225 -0.3042875 1.0566375 -0.48030000000000006 1.6361625 -0.5120750000000001 0.595275 -0.062625 1.1962625 0.0411375 1.736075 0.29975 0.54265 0.204675 0.988475 0.605925 1.2489999999999999 1.1240875 0.029375 0.11018750000000001 0.10075 0.2045125 0.19875 0.26285 0.098 0.0583375 0.21487499999999998 0.0760625 0.32575 0.0493875 0.05437499999999999 -0.014450000000000001 0.10525 -0.03955 0.14975 -0.073825 0.044625000000000005 -0.034275 0.081875 -0.07705000000000001 0.10975 -0.1258375 0.027875 -0.048799999999999996 0.04575 -0.1026375 0.052750000000000005 -0.1584125 0.006874999999999999 -0.055775 0.0026249999999999997 -0.1123625 -0.0125 -0.1664875 -0.09987499999999999 -0.41783750000000003 -0.283 -0.8112625 -0.538375 -1.15675 -0.255375 -0.34548750000000006 -0.5777249999999999 -0.635975 -0.94785 -0.8541124999999999 -0.730275 -0.4526 -1.5766 -0.682625 -2.4355124999999997 -0.66195 -0.8166249999999999 0.108825 -1.5843625000000001 0.45148750000000004 -2.2106875 0.9866874999999999 -0.6035125 0.518775 -1.0384125 1.2059125 -1.248975 1.9733875 -0.015325 0.0491875 -0.020675 0.10095 -0.015725 0.1522375 0.004937500000000001 0.0512875 0.020062499999999997 0.1010625 0.0444875 0.1464375 0.0244375 0.0453625 0.0576625 0.0854 0.0977625 0.11775000000000001 0.0401 0.0323625 0.08625000000000001 0.05638749999999999 0.13575 0.070675 0.0859125 0.0182375 0.1755 0.0057125000000000006 0.2531125 -0.035375 0.0776125 -0.0411 0.138325 -0.1081375 0.17155 -0.18943749999999998Z" stroke-width="1.25"></path>
  <path fill-rule="evenodd" fill="#ff8b04" d="M20.432875 3.75105c-0.9145000000000001 -0.0151625 -1.8028749999999998 0.30467500000000003 -2.497875 0.8992625 -0.318 0.2926625 -0.571875 0.647875 -0.746 1.04335 -0.174125 0.395475 -0.264625 0.8226749999999999 -0.26575000000000004 1.254775 -0.010625 0.0975375 0.0175 0.1953375 0.07825 0.2724125 0.060625 0.0770625 0.14925 0.1272375 0.2465 0.13974999999999999 0.049249999999999995 0.0070125000000000005 0.0995 0.00415 0.147625 -0.0084375 0.048125 -0.012587500000000001 0.09325 -0.03465 0.13287500000000002 -0.064875 0.03950000000000001 -0.0302375 0.072625 -0.0680375 0.09737499999999999 -0.1112 0.02475 -0.043175000000000005 0.040625 -0.0908375 0.04675 -0.140225 0.071625 -0.301675 0.20525000000000002 -0.58515 0.39237500000000003 -0.832425 0.187 -0.24726250000000002 0.4235 -0.452925 0.69425 -0.6039 0.19987499999999997 -0.11505 0.41412499999999997 -0.20323750000000002 0.637 -0.2622875 0.327125 -0.10236250000000001 0.669125 -0.14880000000000002 1.011625 -0.1373875 0.599125 0.008725 1.1835 0.1862125 1.686125 0.5120875 0.534875 0.284925 0.94125 0.7627375000000001 1.136625 1.3364 0.01325 0.112625 0.07075 0.215375 0.15975 0.28565 0.089 0.0702625 0.20224999999999999 0.1023 0.314875 0.08904999999999999 0.112625 -0.01325 0.215375 -0.0707 0.285625 -0.15971249999999998 0.07025 -0.089 0.10225 -0.20227499999999998 0.089 -0.31489999999999996 -0.107125 -0.8732 -0.556375 -1.668225 -1.248875 -2.2107 -0.681625 -0.5631875 -1.5175 -0.9071374999999999 -2.3981250000000003 -0.9866874999999999Z" stroke-width="1.25"></path>
</svg>