<svg xmlns="http://www.w3.org/2000/svg" fill="none" viewBox="0 0 30 30" id="Smiley-Happy--Streamline-Freehand" height="30" width="30">
  <desc>
    Smiley Happy Streamline Icon: https://streamlinehq.com
  </desc>
  <path fill="#ff8b04" d="M8.242775 22.285375c0.8516625 0.8931250000000001 1.8773375 1.602125 3.0137 2.08325 1.1363625 0.481125 2.3592750000000002 0.724375 3.593275 0.7145 2.499 -0.101625 4.873125 -1.11975 6.6695 -2.860125 1.171125 -1.1408749999999999 2.001375 -2.585375 2.397875 -4.1715 0.21425 -0.693125 0.235875 -1.431375 0.0625 -2.13575 -0.04425 -0.119625 -0.11249999999999999 -0.229 -0.200625 -0.32137499999999997 -0.08800000000000001 -0.09237499999999998 -0.194 -0.16575 -0.31137499999999996 -0.21562499999999998 -0.415625 -0.035500000000000004 -0.8334999999999999 -0.035500000000000004 -1.2489999999999999 0 -1.7485 0 -5.520375 0.28725 -8.905125 0.42462500000000003 -2.2782375 -0.0535 -4.5557625 0.134875 -6.7942875 0.562 -0.1114125 0.08337499999999999 -0.20285 0.1905 -0.26766249999999997 0.31362500000000004 -0.0648125 0.12325 -0.101375 0.25925 -0.10702500000000001 0.39825 -0.0263125 0.68825 0.0796875 1.3751250000000002 0.3122375 2.023375 0.367275 1.17425 0.9755750000000001 2.259 1.7860125 3.18475Zm3.4471249999999998 -5.470375c3.621975 -0.075 8.2556 -0.08750000000000001 10.37885 -0.08750000000000001h0.6244999999999999c-0.079125 0.9128749999999999 -0.35162499999999997 1.7985000000000002 -0.799375 2.597875 -0.339125 0.7113750000000001 -0.7997500000000001 1.358 -1.361375 1.9108749999999999 -1.52325 1.540625 -3.558375 2.46925 -5.72025 2.610375 -1.076875 0.0415 -2.150875 -0.137625 -3.1560875 -0.5263749999999999 -1.0051625 -0.38875 -1.9202374999999998 -0.978875 -2.6889999999999996 -1.7342499999999998 -0.6319625 -0.666 -1.124525 -1.451625 -1.4487875 -2.310625 -0.257475 -0.567875 -0.43405 -1.169 -0.5245625 -1.786v-0.4745c1.561 -0.14575 3.1283499999999997 -0.21250000000000002 4.6960875 -0.19987499999999997Z" stroke-width="1.25"></path>
  <path fill="#f7f7f7" d="M29.83725 12.4935875c-0.139625 -1.2783625 -0.428875 -2.5359249999999998 -0.86175 -3.746875 -0.840125 -2.2389375 -2.30525 -4.1896375 -4.221500000000001 -5.6203C22.866374999999998 1.711875 20.639125 0.82011875 18.296875 0.5410675c-0.1135 -0.01101625 -0.227 0.021565 -0.3175 0.09114125000000001 -0.09050000000000001 0.06957625 -0.151 0.17094 -0.16949999999999998 0.28354625 -0.01075 0.11214750000000001 0.02225 0.22411125 0.092 0.31253749999999997 0.06987499999999999 0.08842 0.171125 0.1464825 0.282625 0.16207 2.18675 0.30515000000000003 4.2521249999999995 1.1891 5.9825 2.5603625 1.723625 1.345025 3.02425 3.1572125 3.746875 5.2206375000000005 0.408375 1.1265875 0.6890000000000001 2.2954250000000003 0.836875 3.4846375000000003 0.106375 1.192375 0.106375 2.392 0 3.5845 -0.11424999999999999 1.17625 -0.38725000000000004 2.331625 -0.8118749999999999 3.434625 -0.413125 1.1119999999999999 -0.95375 2.172375 -1.611125 3.1598749999999995 -1.39325 1.992375 -3.357 3.516375 -5.632875 4.37125 -2.2741249999999997 0.90825 -4.7292499999999995 1.2717500000000002 -7.169 1.061625 -1.3495625 -0.115875 -2.6772125000000004 -0.41412499999999997 -3.946675 -0.88675 -1.258375 -0.46462499999999995 -2.4283375 -1.140375 -3.4596125 -1.99825 -2.587925 -2.303125 -4.2631875 -5.4586250000000005 -4.72105 -8.892624999999999 -0.5741175 -3.441125 0.2240625 -6.9701625 2.2231375 -9.8292875 1.0570499999999998 -1.46795 2.37855 -2.7259125 3.89675 -3.7094125 1.5388375 -0.9547125 3.2795875000000003 -1.5363875 5.0832 -1.698575 0.8868750000000001 -0.08742875 1.773625 -0.16236625000000002 2.647875 -0.16236625000000002 0.58475 -0.006137500000000001 1.16925 0.03143625 1.7485 0.11240625000000001 0.050749999999999997 0.013194999999999998 0.10375000000000001 0.015585 0.1555 0.007013749999999999 0.05175 -0.00857 0.10112499999999999 -0.02791 0.144875 -0.056766250000000004 0.043875 -0.028857499999999998 0.081125 -0.06658875 0.109375 -0.11075375 0.028249999999999997 -0.04416375 0.047 -0.09377750000000001 0.054875 -0.14562875 0.008 -0.051852499999999996 0.004875 -0.1047875 -0.009 -0.15537875 -0.013749999999999998 -0.050592500000000006 -0.038125 -0.09771500000000001 -0.07125000000000001 -0.13831875 -0.03325 -0.040603749999999994 -0.074625 -0.0737825 -0.1215 -0.09739125 -0.04675 -0.02360875 -0.098125 -0.03712125 -0.1505 -0.03966125 -0.610125 -0.117825 -1.22775 -0.19294499999999998 -1.8483749999999999 -0.22481250000000003 -0.9117500000000001 0 -1.8235000000000001 0 -2.73525 0.11240625000000001C10.585875 0.5272749999999999 8.7104 1.14246125 7.043825 2.152225c-1.650425 1.0160875 -3.0986124999999998 2.328775 -4.2714375 3.8717625C0.53240625 9.0829375 -0.40602625000000003 12.904 0.16206749999999998 16.652625c0.443375 3.7727500000000003 2.240695 7.2565 5.0582825 9.80425 1.1498875 0.97525 2.459775 1.744375 3.8717625 2.273125 1.3997125 0.51425 2.861075 0.8418749999999999 4.3463875000000005 0.97425 2.663875 0.21225 5.340625 -0.19824999999999998 7.8185 -1.199 2.524625 -0.991375 4.683125 -2.7355 6.18225 -4.995875 0.703375 -1.078 1.27775 -2.235 1.711125 -3.4471249999999998 0.435625 -1.2073749999999999 0.708625 -2.467375 0.81175 -3.746875 0.077625 -1.275 0.035750000000000004 -2.5545 -0.124875 -3.8217875Z" stroke-width="1.25"></path>
  <path fill="#ff8b04" d="M11.2653375 10.757537500000002c0.23553749999999998 -0.5072875 0.27121249999999997 -1.0847 0.0999125 -1.6171250000000001 -0.1713 -0.5324125 -0.5369875000000001 -0.9807125 -1.0241375 -1.2554750000000001 -0.33161250000000003 -0.1483875 -0.695125 -0.211275 -1.0573125 -0.18291249999999998 -0.3621875 0.0283625 -0.7114874999999999 0.147075 -1.0159625 0.345275 -1.24895 0.749375 -2.0108125 2.7227249999999996 -0.5745125 3.746875 0.30115 0.17257499999999998 0.633975 0.28275 0.9786125 0.32395 0.34465 0.0411875 0.69405 0.0125625 1.0274 -0.084175 0.3333375 -0.0967375 0.6437875 -0.2596125 0.9128375 -0.4789125 0.26905 -0.2192875 0.4911875 -0.49051249999999996 0.6531625000000001 -0.7975Z" stroke-width="1.25"></path>
  <path fill="#ff8b04" d="M19.65825 11.769212499999998c0.30125 0.18727500000000002 0.644625 0.2956625 0.99875 0.31515000000000004 0.354 0.019487499999999998 0.707375 -0.0505375 1.02725 -0.203625s0.596 -0.3843 0.802875 -0.6722875c0.207 -0.2879875 0.33799999999999997 -0.6234625 0.381 -0.97545 0.08750000000000001 -0.442525 0.03175 -0.9014125000000001 -0.159125 -1.3101125 -0.19087500000000002 -0.4087125 -0.507 -0.7460125 -0.9025 -0.9629875 -2.12325 -0.9117500000000001 -4.221500000000001 1.4113125000000002 -2.9225000000000003 3.15985 0.203125 0.27466250000000003 0.4685 0.4972375 0.7742499999999999 0.6494624999999999Z" stroke-width="1.25"></path>
</svg>