<svg xmlns="http://www.w3.org/2000/svg" fill="none" viewBox="0 0 30 30" id="Smiley-Blessed--Streamline-Freehand" height="30" width="30">
  <desc>
    Smiley Blessed Streamline Icon: https://streamlinehq.com
  </desc>
  <path fill="#ff8b04" d="M7.5184375 22.485c0.9657375 1.0122499999999999 2.129325 1.8151249999999999 3.4184625000000004 2.35875 1.28915 0.543625 2.6763500000000002 0.81625 4.075225 0.8011250000000001 2.835625 -0.11812500000000001 5.5291250000000005 -1.27375 7.56875 -3.2472499999999997 1.13775 -1.1105 1.994125 -2.476375 2.497875 -3.98425 0.37575 -0.9560000000000001 0.49625 -1.99325 0.34975 -3.01 -0.035750000000000004 -0.15125 -0.10625000000000001 -0.29212499999999997 -0.20600000000000002 -0.411375 -0.09974999999999999 -0.11925 -0.225875 -0.213625 -0.3685 -0.2755 -0.465625 -0.036375000000000005 -0.93325 -0.036375000000000005 -1.3988749999999999 0 -2.01075 0 -6.33225 0.24975 -10.2165 0.46212499999999995 -3.8842125 0.21225 -7.7559875 0.6244999999999999 -7.7559875 0.6244999999999999 -0.1217625 0.09050000000000001 -0.22190000000000001 0.206875 -0.293175 0.34075 -0.0712875 0.134 -0.111925 0.282 -0.118975 0.433625 -0.025487499999999996 0.774875 0.101825 1.54725 0.3746875 2.273 0.4196875 1.347375 1.1270875 2.5875 2.0732625 3.6345Zm3.9092375 -6.24475c4.146575 -0.08750000000000001 9.454575 -0.124875 11.890075 -0.124875h0.8242499999999999c-0.071125 1.100625 -0.38687499999999997 2.171625 -0.924125 3.1348749999999996 -0.40675000000000006 0.80225 -0.942625 1.53225 -1.58625 2.160625 -1.7813750000000002 1.7449999999999999 -4.13075 2.791125 -6.6195 2.947625 -1.249125 0.04275 -2.493875 -0.170125 -3.6578500000000003 -0.625375 -1.1640125 -0.45537500000000003 -2.2227875 -1.1435 -3.1114375 -2.0225 -0.7151875000000001 -0.7561249999999999 -1.2790375 -1.642125 -1.6611124999999998 -2.61025 -0.30115 -0.6665 -0.503125 -1.373375 -0.5995 -2.09825 -0.01115 -0.1955 -0.01115 -0.39149999999999996 0 -0.587 1.8272625 -0.15812500000000002 3.6617875 -0.2165 5.4954125 -0.174875h-0.0499625Z" stroke-width="1.25"></path>
  <path fill="#f7f7f7" d="M29.83725 12.4933625c-0.139625 -1.278375 -0.428875 -2.5359249999999998 -0.86175 -3.746875 -0.83575 -2.2413374999999998 -2.3017499999999997 -4.1931875000000005 -4.221500000000001 -5.6203125C22.866374999999998 1.7116500000000001 20.639125 0.81988875 18.296875 0.5408387499999999c-0.1135 -0.01101625 -0.227 0.021565 -0.3175 0.09114125000000001 -0.09050000000000001 0.06957625 -0.151 0.17094 -0.16949999999999998 0.28354625 -0.01075 0.11214750000000001 0.02225 0.22411125 0.092 0.31253749999999997 0.06987499999999999 0.08842375 0.171125 0.14648625 0.282625 0.16206125 2.18675 0.3051625 4.2521249999999995 1.1891125 5.9825 2.5603625 1.723625 1.3450375 3.02425 3.1572250000000004 3.746875 5.22065 0.408375 1.1265875 0.6890000000000001 2.2954250000000003 0.836875 3.4846125 0.106375 1.1925 0.106375 2.392 0 3.5845 -0.11424999999999999 1.17625 -0.38725000000000004 2.331625 -0.8118749999999999 3.434625 -0.413125 1.1119999999999999 -0.95375 2.172375 -1.611125 3.1598749999999995 -1.39325 1.992375 -3.357 3.516375 -5.632875 4.3713750000000005 -2.2741249999999997 0.9081250000000001 -4.7292499999999995 1.2716250000000002 -7.169 1.061625 -1.3495625 -0.11599999999999999 -2.6772125000000004 -0.41424999999999995 -3.946675 -0.8868750000000001 -1.258375 -0.46462499999999995 -2.4283375 -1.140375 -3.4596125 -1.99825 -2.592375 -2.299625 -4.2685875 -5.456875 -4.72105 -8.892624999999999 -0.5795825 -3.44125 0.2190625 -6.9723500000000005 2.2231375 -9.829274999999999 1.0570499999999998 -1.4679375000000001 2.37855 -2.7259 3.89675 -3.7094 1.5388375 -0.9547125 3.2795875000000003 -1.5363875 5.0832 -1.698575 0.8868750000000001 -0.0874325 1.761125 -0.16237000000000001 2.647875 -0.16237000000000001 0.584625 0.00022625 1.168625 0.03777125 1.7485 0.11240625000000001 0.050749999999999997 0.013194999999999998 0.10375000000000001 0.01558375 0.1555 0.007013749999999999 0.05175 -0.00857 0.10112499999999999 -0.02791 0.144875 -0.056766250000000004 0.043875 -0.028857499999999998 0.081125 -0.06658875 0.109375 -0.11075375 0.028249999999999997 -0.04416375 0.047 -0.09377750000000001 0.054875 -0.14562875 0.008 -0.051852499999999996 0.004875 -0.1047875 -0.009 -0.15537875 -0.013749999999999998 -0.050592500000000006 -0.038125 -0.09771500000000001 -0.07125000000000001 -0.13831875 -0.03325 -0.040603749999999994 -0.074625 -0.0737825 -0.1215 -0.09739125 -0.04675 -0.02360875 -0.098125 -0.03712125 -0.1505 -0.03966125 -0.610125 -0.117825 -1.22775 -0.19294499999999998 -1.8483749999999999 -0.22481250000000003 -0.9117500000000001 0 -1.8235000000000001 0 -2.73525 0.11240625000000001 -1.940875 0.17354999999999998 -3.81635 0.7887375000000001 -5.482925 1.7984924999999998 -1.650425 1.0161 -3.0986124999999998 2.328775 -4.2714375 3.871775C0.53240625 9.0827125 -0.40602625000000003 12.90375 0.16206749999999998 16.652375c0.443375 3.7727500000000003 2.240695 7.2565 5.0582825 9.804375 1.1498875 0.97525 2.459775 1.74425 3.8717625 2.273 1.3958000000000002 0.513 2.8528625 0.8405 4.3338874999999994 0.97425 2.6679999999999997 0.21337499999999998 5.349 -0.197125 7.831 -1.199 2.524625 -0.991375 4.683125 -2.7355 6.18225 -4.995875 0.703375 -1.078 1.27775 -2.235 1.711125 -3.4471249999999998 0.435625 -1.2073749999999999 0.708625 -2.467375 0.81175 -3.746875 0.077625 -1.275 0.035750000000000004 -2.5545 -0.124875 -3.8217625Z" stroke-width="1.25"></path>
  <path fill="#ff8b04" d="M6.7065375000000005 12.143662500000001c0.65565 0.333725 1.3890749999999998 0.4847125 2.123225 0.43708749999999996 0.7156750000000001 -0.047375 1.4095250000000001 -0.265825 2.0233125 -0.6369125 0.5982500000000001 -0.3392 1.120025 -0.7982499999999999 1.5326624999999998 -1.348425 0.4126375 -0.550175 0.7072625 -1.1796125 0.8653875 -1.8489125 0.015125 -0.054125 0.01925 -0.11071249999999999 0.012375 -0.1664875 -0.006874999999999999 -0.055775 -0.024875 -0.1096125 -0.052750000000000005 -0.15839999999999999 -0.027875 -0.048799999999999996 -0.065125 -0.091575 -0.10975 -0.12585000000000002 -0.0445 -0.034275 -0.09537500000000002 -0.0593625 -0.149625 -0.073825 -0.054125 -0.015112500000000001 -0.11075 -0.0193375 -0.1665 -0.0124125 -0.05575 0.0069125 -0.109625 0.0248375 -0.1585 0.052712499999999995 -0.04875 0.0278875 -0.0915 0.065175 -0.12575 0.1097125 -0.034312499999999996 0.0445375 -0.0594 0.09543750000000001 -0.0738625 0.1497375 -0.4175375 1.0018 -1.211225 1.7999625 -2.2106500000000002 2.22315 -0.4547625 0.219825 -0.94565 0.35525 -1.4488 0.39966250000000003 -0.49813749999999996 0.0672625 -1.0051999999999999 0.0071 -1.4737624999999999 -0.17485 -0.41793749999999996 -0.17104999999999998 -0.7962750000000001 -0.42610000000000003 -1.111575 -0.749375 -0.351175 -0.3495625 -0.6651 -0.7346374999999999 -0.9367125 -1.14905 -0.04315 -0.08935 -0.11998750000000001 -0.15795 -0.2136375 -0.19072499999999998 -0.0936625 -0.0327875 -0.1965 -0.027075 -0.28595 0.015875 -0.08711250000000001 0.045525 -0.15365 0.122475 -0.186125 0.21525 -0.032475 0.092775 -0.028437499999999998 0.19442500000000001 0.011275 0.2843375 0.2712625 0.633 0.6285000000000001 1.2255875 1.0616125 1.761025 0.2951125 0.39142499999999997 0.6590875 0.7257750000000001 1.0741 0.9866750000000001Z" stroke-width="1.25"></path>
  <path fill="#ff8b04" d="M25.003875 7.8597125000000005c-0.11174999999999999 -0.0113875 -0.22375 0.019475 -0.313875 0.0865 -0.090125 0.0670375 -0.15187499999999998 0.16538750000000002 -0.17312500000000003 0.2757 -0.057625 0.33883749999999996 -0.154 0.669925 -0.287375 0.9866750000000001 -0.1205 0.2769 -0.2945 0.5273 -0.512 0.7368874999999999 -0.3935 0.38032499999999997 -0.8875 0.6403125 -1.423875 0.749375 -0.5131249999999999 0.1194125 -1.049375 0.0934625 -1.548625 -0.0749375 -0.558375 -0.15315 -1.063125 -0.45851250000000005 -1.4578749999999998 -0.881975 -0.39487500000000003 -0.4234625 -0.664125 -0.94835 -0.7777499999999999 -1.516025 -0.011625 -0.099375 -0.06225 -0.1900625 -0.14075000000000001 -0.2521375 -0.078375 -0.062075000000000005 -0.178375 -0.090425 -0.27775 -0.0788375 -0.099375 0.0116 -0.19 0.06218750000000001 -0.252125 0.1406625 -0.062 0.0784625 -0.09037500000000001 0.178375 -0.07875 0.27773749999999997 0.013875 0.7840625 0.258125 1.5467 0.7022499999999999 2.1929625 0.444125 0.64625 1.068625 1.1475625 1.7956250000000002 1.4415125 0.75675 0.3161875 1.599875 0.360325 2.3855 0.1248875 0.764625 -0.24105000000000001 1.43625 -0.7120875 1.923375 -1.348875 0.19675 -0.285775 0.34450000000000003 -0.6023499999999999 0.437125 -0.9367125 0.15375 -0.46476249999999997 0.24612499999999998 -0.9476125000000001 0.27475 -1.4363000000000001 0.020999999999999998 -0.10070000000000001 0.00475 -0.2055875 -0.045875000000000006 -0.2951625 -0.050499999999999996 -0.0895875 -0.131875 -0.15778750000000002 -0.22887500000000002 -0.19193749999999998Z" stroke-width="1.25"></path>
</svg>