<svg xmlns="http://www.w3.org/2000/svg" fill="none" viewBox="0 0 30 30" id="Smiley-Dizzy--Streamline-Freehand" height="30" width="30">
  <desc>
    Smiley Dizzy Streamline Icon: https://streamlinehq.com
  </desc>
  <path fill="#f7f7f7" d="M12.898499999999999 1.519975c0.48300000000000004 -0.0248 0.967 -0.0248 1.45 0h1.2c0.48750000000000004 0 0.9375 -0.1625 1.4375 -0.1875 0.09775 0.0143875 0.197125 -0.010375 0.27675 -0.0688875 0.0795 -0.058506249999999996 0.13287500000000002 -0.14604875 0.14825 -0.24361 0.008875000000000001 -0.048595 0.00775 -0.098495 -0.0033750000000000004 -0.1466325 -0.011125 -0.048138749999999994 -0.031875 -0.0935 -0.061125 -0.1333 -0.029375 -0.0398 -0.066375 -0.07319875 -0.109 -0.09814500000000001 -0.04275 -0.02494625 -0.09 -0.040913750000000006 -0.13899999999999998 -0.046922500000000006 -0.49375 -0.21356625 -1.009375 -0.37283499999999997 -1.5375 -0.474999875 -0.224625 -0.018724625 -0.450375 -0.018724625 -0.675 0 -0.227 0.010691125000000001 -0.45275000000000004 0.039956124999999995 -0.675 0.087499875 -0.5115000000000001 0.1248 -1.012875 0.28775625 -1.5 0.48750000000000004 -0.057625 0.014567499999999999 -0.11174999999999999 0.0403875 -0.15925 0.07597 -0.0475 0.0355825 -0.08758749999999998 0.080225 -0.1178 0.13135249999999998 -0.0302125 0.05112875 -0.05 0.10772999999999999 -0.0582375 0.16654375 -0.0082375 0.058813750000000005 -0.0047375 0.118675 0.010275 0.17613375 0.036887500000000004 0.1006725 0.10944999999999999 0.1842975 0.2038875 0.2349975 0.0945 0.0506875 0.204375 0.064925 0.30862500000000004 0.04Z" stroke-width="1.25"></path>
  <path fill="#f7f7f7" d="M30 13.8335c0 -0.112625 -0.04475 -0.22075 -0.1245 -0.3005s-0.187875 -0.1245 -0.3005 -0.1245c-0.11275 0 -0.220875 0.04475 -0.300625 0.1245 -0.079625 0.07974999999999999 -0.1245 0.187875 -0.1245 0.3005v1.250125c0 0.3875 0 0.8626250000000001 -0.0625 1.250125 -0.123 1.178375 -0.40474999999999994 2.3347499999999997 -0.8375 3.43775 -0.42225 1.109875 -0.97175 2.167 -1.637625 3.1502499999999998 -1.40875 1.9713749999999999 -3.3773750000000002 3.4739999999999998 -5.650500000000001 4.312875 -2.26775 0.891 -4.70975 1.2502499999999999 -7.138 1.05 -1.3447125 -0.114 -2.668625 -0.40399999999999997 -3.9378374999999997 -0.8624999999999999 -1.2632375000000002 -0.39974999999999994 -2.4506 -1.008125 -3.5127875 -1.800125 -1.5408749999999998 -1.28675 -2.77515 -2.901125 -3.6127749999999996 -4.725375 -0.8552375 -1.855125 -1.3393625 -3.8595 -1.4251125 -5.900499999999999 -0.00325 -0.09724999999999999 -0.0441875 -0.1895 -0.11417125 -0.257125 -0.0699825 -0.067625 -0.16352624999999998 -0.10550000000000001 -0.2608625 -0.105375 -0.10059749999999999 0.00325 -0.19598500000000002 0.0455 -0.26597875 0.11775000000000001 -0.06999375000000001 0.072375 -0.10910249999999999 0.169125 -0.10905 0.26975 0.00457 2.145125 0.42926375000000005 4.268625 1.2501000000000002 6.2505 0.8347625000000001 2.019625 2.117075 3.823375 3.7502875 5.275375 1.11665 0.9847499999999999 2.399125 1.7635 3.7878 2.30025 1.3793250000000001 0.5315000000000001 2.8272999999999997 0.864125 4.3003875 0.9875 2.644 0.22175 5.303125 -0.18075000000000002 7.763125 -1.1749999999999998 2.47225 -0.985125 4.58675 -2.6984999999999997 6.062875 -4.912875 0.6813750000000001 -1.07375 1.23525 -2.22325 1.650125 -3.425375 0.433375 -1.2073749999999999 0.69425 -2.469875 0.775125 -3.75025v-1.350125c0.075 -0.475 0.075 -0.925 0.075 -1.387625Z" stroke-width="1.25"></path>
  <path fill="#ff8b04" d="M15.486374999999999 5.7325625c-0.398125 0.7637375000000001 -0.641625 1.598475 -0.71675 2.4564375 -0.075 0.8579625000000001 0.019875 1.7223125000000001 0.27925 2.5435625 0.242 0.829875 0.653625 1.6005 1.20875 2.2631875 0.555125 0.662625 1.241625 1.203 2.01625 1.586875 1.5265 0.7055 3.213875 0.990375 4.8875 0.8250000000000001 1.279625 -0.073625 2.519 -0.47375 3.5999999999999996 -1.1625 0.56025 -0.37212500000000004 1.037375 -0.8563750000000001 1.401 -1.42225 0.363625 -0.565875 0.605875 -1.201025 0.7115 -1.8653125000000002 0.16087500000000002 -0.920175 0.139625 -1.863 -0.0625 -2.7750000000000004 -0.212875 -0.9520625 -0.6995 -1.8210875000000002 -1.4000000000000001 -2.5 -0.6548750000000001 -0.582825 -1.421375 -1.026325 -2.253 -1.3035375 -0.8316250000000001 -0.2772125 -1.711 -0.382325 -2.5845000000000002 -0.30896250000000003 -0.61175 0.034862500000000005 -1.206125 0.2166625 -1.7327500000000002 0.5299875 -0.5265 0.3133375 -0.969875 0.7489750000000001 -1.2922500000000001 1.2700125 -0.39875 0.711 -0.5062500000000001 1.5488750000000002 -0.3 2.3375000000000004 0.08687500000000001 0.398825 0.2565 0.7750250000000001 0.49750000000000005 1.1044125 0.24112499999999998 0.32937500000000003 0.5485 0.60465 0.9025 0.8080875 0.658875 0.3356875 1.405875 0.45801250000000004 2.1375 0.35000000000000003 0.27237500000000003 -0.037575 0.5305 -0.144725 0.7495 -0.3111375 0.21887500000000001 -0.1664 0.39125 -0.3864375 0.5005 -0.6388625000000001 0.023 -0.0508875 0.035750000000000004 -0.1058 0.0375 -0.1616125 0.00175 -0.0558125 -0.0075 -0.1114375 -0.02725 -0.16367500000000001 -0.019750000000000004 -0.0522375 -0.0495 -0.10007500000000001 -0.08775 -0.14077499999999998 -0.03825 -0.0407 -0.084125 -0.073475 -0.135 -0.0964375 -0.10475 -0.042325 -0.22175 -0.042550000000000004 -0.3265 -0.0006125 -0.104875 0.0419375 -0.1895 0.122775 -0.236 0.22561250000000002 -0.15 0.35000000000000003 -0.5375 0.4375 -0.925 0.44999999999999996 -0.434875 -0.009537499999999999 -0.862 -0.11631249999999999 -1.25 -0.3125 -0.22474999999999998 -0.1375875 -0.41924999999999996 -0.3192875 -0.57175 -0.534125 -0.152625 -0.2148375 -0.26 -0.4583625 -0.31575 -0.715875 -0.135875 -0.5341125 -0.05499999999999999 -1.1002874999999999 0.22499999999999998 -1.575 0.32225 -0.46372499999999994 0.7689999999999999 -0.8270375000000001 1.288625 -1.0481749999999999 0.519625 -0.22112500000000002 1.091125 -0.2910875 1.6488749999999999 -0.20182499999999998 1.18075 0.08128750000000001 2.297625 0.5668625 3.1624999999999996 1.375 0.495875 0.515175 0.834125 1.1614 0.9750000000000001 1.8625 0.143625 0.738925 0.143625 1.4985875000000002 0 2.2375 -0.083875 0.4784625 -0.266 0.9343374999999999 -0.534875 1.338825 -0.269 0.4044875 -0.618875 0.7487375000000001 -1.027625 1.0112375 -0.8755000000000001 0.551125 -1.8791250000000002 0.8655 -2.9125 0.9125 -1.4175 0.14575 -2.8483750000000003 -0.08274999999999999 -4.1499999999999995 -0.6625000000000001 -0.62 -0.293375 -1.1728750000000001 -0.711 -1.6245 -1.22715 -0.4515 -0.5161 -0.7921250000000001 -1.119575 -1.0005 -1.7729125000000001 -0.450875 -1.34125 -0.35200000000000004 -2.806475 0.275 -4.074999999999999 0.64225 -1.3259 1.6313749999999998 -2.4532499999999997 2.8625 -3.2624999999999997 0.969125 -0.7029874999999999 2.10825 -1.1345125 3.3000000000000003 -1.25 0.584125 -0.0315125 1.16825 0.0639 1.712 0.2796875 0.54375 0.215775 1.034375 0.5468125 1.4380000000000002 0.9703125 0.069375 0.0453625 0.15187499999999998 0.066425 0.234625 0.059875 0.08274999999999999 -0.00655 0.16087500000000002 -0.0403375 0.222375 -0.0960625 0.061375 -0.055725000000000004 0.10262500000000001 -0.1302625 0.11725 -0.211925 0.014499999999999999 -0.0816625 0.001625 -0.16585 -0.03675 -0.23938750000000003 -0.471625 -0.5219625 -1.051625 -0.9345125 -1.6993749999999999 -1.2087375 -0.64775 -0.27423 -1.347625 -0.40350125000000003 -2.050625 -0.37876 -1.3585 0.075365 -2.67325 0.506435 -3.8125 1.2499975 -1.410875 0.8694999999999999 -2.559875 2.1049124999999997 -3.325 3.5749999999999997Z" stroke-width="1.25"></path>
  <path fill="#ff8b04" d="M6.885137500000001 14.995000000000001c2.8249999999999997 0 5.4875 -1.4874999999999998 5.8749875 -4.65 0.082 -0.849275 -0.037875 -1.7059125 -0.3499875 -2.5 -0.289375 -0.8232625 -0.7841750000000001 -1.5590125 -1.4375 -2.1375 -0.8626125 -0.6548875 -1.9314875 -0.9786499999999999 -3.0125 -0.9125 -0.5496875 0.0132875 -1.0892625 0.1506125 -1.5784375000000002 0.40168750000000003 -0.489175 0.2510875 -0.9153125 0.6094375 -1.2465625 1.0483125 -0.27032500000000004 0.4604875 -0.4128375 0.984775 -0.4128375 1.51875 0 0.5339625 0.1425125 1.0582624999999999 0.4128375 1.51875 0.19213750000000002 0.33599999999999997 0.49791250000000004 0.5923875 0.862275 0.7230125 0.36435 0.1306125 0.763375 0.12688750000000001 1.125225 -0.010512500000000001 0.053025 -0.01565 0.102375 -0.041787500000000005 0.1451 -0.076875 0.042725 -0.0350875 0.0779625 -0.0784 0.10361250000000001 -0.12737500000000002 0.02565 -0.048975 0.0412 -0.1026125 0.045712499999999996 -0.1577125 0.0045249999999999995 -0.0551 -0.0020875 -0.11055000000000001 -0.019425 -0.1630375 -0.0319 -0.1074875 -0.1049625 -0.19801249999999998 -0.2033 -0.25185 -0.09833750000000001 -0.05385 -0.2139625 -0.0666625 -0.3217 -0.03565 -0.5874999999999999 0.17500000000000002 -0.9625 -0.25 -1.125 -0.7625 -0.1015125 -0.2732875 -0.139625 -0.56605 -0.1114875 -0.8562000000000001 0.028149999999999998 -0.2901625 0.1218375 -0.5701375 0.2739875 -0.8188 0.261125 -0.29252500000000003 0.58365 -0.5237625 0.9445125 -0.677175 0.3608625 -0.153425 0.75115 -0.22525 1.1429875 -0.21032499999999998 0.8051625 -0.02245 1.59265 0.238575 2.225 0.7374999999999999 0.4788125 0.44694999999999996 0.8322 1.0115125 1.025 1.6375000000000002 0.2253 0.6107 0.30241250000000003 1.266175 0.22499999999999998 1.9125 -0.3375 2.4125 -2.425 3.4250000000000003 -4.575 3.4000000000000004 -1.0788375000000001 0.05 -2.1491875 -0.21237499999999998 -3.0826375 -0.755625 -0.9334375 -0.5432 -1.690325 -1.3442 -2.1798625 -2.306875 -0.97499875 -2.3625 0.2375 -5.074999999999999 2.1125 -6.8125 1.875 -1.7374999999999998 4.8125 -2.5000050000000003 7.0125 -0.75 0.0355875 0.0394375 0.0791375 0.070875 0.1277875 0.092225 0.0486375 0.0213375 0.10127499999999999 0.0321125 0.15438749999999998 0.031575 0.053125000000000006 -0.0005250000000000001 0.105525 -0.012325000000000001 0.1537375 -0.0346375 0.0482125 -0.0223 0.09113750000000001 -0.054599999999999996 0.125925 -0.0947375 0.0348 -0.040150000000000005 0.060662499999999994 -0.087225 0.0758875 -0.1381125 0.015224999999999999 -0.0509 0.0194625 -0.10444999999999999 0.0124375 -0.1571 -0.007025 -0.0526625 -0.025162499999999997 -0.103225 -0.053212499999999996 -0.1483375 -0.0280375 -0.045125 -0.06535 -0.0837625 -0.10944999999999999 -0.113375 -2.425 -2.2125049999999997 -5.75 -1.500005 -8.149999999999999 0.5125 -2.39999875 2.0125 -3.79999875 5.25 -2.73749875 8.1125 0.57749125 1.2325125000000001 1.5029737500000002 2.269125 2.6623987500000004 2.982125s2.5021125 1.0711249999999999 3.8626 1.030375Z" stroke-width="1.25"></path>
  <path fill="#ff8b04" d="M22.010749999999998 17.921374999999998c0.00175 -0.05525000000000001 -0.00775 -0.11025 -0.02775 -0.16174999999999998 -0.02 -0.051500000000000004 -0.050124999999999996 -0.098375 -0.0885 -0.138125 -0.0385 -0.039625 -0.08449999999999999 -0.071125 -0.135375 -0.092625 -0.051000000000000004 -0.0215 -0.10562500000000001 -0.0325 -0.16087500000000002 -0.0325 -1.665 -0.10562500000000001 -3.335 -0.10562500000000001 -5 0 -0.7248749999999999 0.04975 -1.44675 0.137375 -2.1625 0.2625 -0.713875 0.12225 -1.4195 0.28925 -2.1124875000000003 0.5 -1.6215625 0.5115000000000001 -3.1651625 1.24325 -4.5875 2.175 -0.043325 0.02225 -0.0817 0.053125000000000006 -0.11285 0.090625 -0.031137500000000002 0.037375 -0.0544125 0.08075 -0.0684125 0.1275 -0.014 0.046625 -0.01845 0.095625 -0.013075 0.144125 0.005375 0.048375 0.02045 0.09525 0.0443375 0.13775 0.023549999999999998 0.043750000000000004 0.05555 0.082375 0.0941625 0.11362499999999999 0.0386 0.03125 0.0830375 0.05462500000000001 0.130725 0.0685 0.047675 0.014 0.09766250000000001 0.018375 0.1470375 0.012750000000000001 0.049375 -0.0055000000000000005 0.09716249999999998 -0.02075 0.140575 -0.044875 1.6706375000000002 -0.7651249999999999 3.4299875 -1.3193750000000002 5.2374875 -1.6500000000000001h0.15c0.15 0.275 0.28750000000000003 0.55 0.41250000000000003 0.8375 0.14325 0.3155 0.248125 0.6469999999999999 0.3125 0.9875 0.071375 0.9475 0.21775 1.888 0.4375 2.8125 0.281 0.7253750000000001 0.8194999999999999 1.3216249999999998 1.5125 1.675 0.758375 0.45325 1.6572500000000001 0.6108750000000001 2.5245 0.4425 0.86725 -0.168375 1.6418749999999998 -0.6508750000000001 2.1755 -1.355 0.7013750000000001 -0.900875 1.147875 -1.9735 1.293 -3.105875 0.145125 -1.1325 -0.0165 -2.283 -0.468 -3.331625 0.053 -0.009 0.103625 -0.0285 0.148875 -0.057499999999999996 0.045250000000000005 -0.028999999999999998 0.084125 -0.06675 0.1145 -0.111 0.03025 -0.044375 0.051375 -0.094375 0.062 -0.147s0.010499999999999999 -0.10687500000000001 -0.00037499999999999995 -0.15949999999999998Zm-1.6125 5.2c-0.7625 1.25 -2.05 2.15 -3.5875000000000004 1.25 -0.426125 -0.18025 -0.772625 -0.508875 -0.9750000000000001 -0.925 -0.27325 -0.8166249999999999 -0.486375 -1.65225 -0.6375 -2.5 -0.0915 -0.307 -0.212875 -0.60425 -0.3625 -0.8875 -0.15 -0.3 -0.325 -0.5750000000000001 -0.5 -0.8624999999999999 0.75 -0.1375 1.5 -0.275 2.25 -0.375 1.4000000000000001 -0.2 2.8000000000000003 -0.3375 4.2125 -0.42500000000000004 0.303875 0.76475 0.425875 1.589625 0.35650000000000004 2.409625 -0.06949999999999999 0.819875 -0.328375 1.6125 -0.7565 2.315375Z" stroke-width="1.25"></path>
</svg>