<svg xmlns="http://www.w3.org/2000/svg" fill="none" viewBox="0 0 30 30" id="Smiley-Sick-Contageous--Streamline-Freehand" height="30" width="30">
  <desc>
    Smiley Sick Contageous Streamline Icon: https://streamlinehq.com
  </desc>
  <path fill-rule="evenodd" fill="#ff8b04" d="M11.4788 6.9861375c-0.9200125000000001 0.1155875 -1.8099375000000002 0.40375 -2.623075 0.849375 -0.348375 0.1973125 -0.67135 0.4364125 -0.9618 0.711975 -0.2981125 0.2711 -0.5623374999999999 0.5772625 -0.786925 0.9118375 -0.5241 0.7430000000000001 -0.9443374999999999 1.5540625 -1.249075 2.410725 -0.049699999999999994 0.1027 -0.0565625 0.220925 -0.019074999999999998 0.328675 0.037475 0.1077625 0.116225 0.1962125 0.21892499999999998 0.2459 0.1027 0.049699999999999994 0.220925 0.056499999999999995 0.328675 0.019074999999999998 0.1077625 -0.037475 0.1962125 -0.116225 0.2459 -0.21892499999999998 0.43525 -0.6960624999999999 0.941775 -1.3449125 1.5113874999999999 -1.9360749999999998 0.2373375 -0.24982500000000002 0.4746625 -0.47465 0.724475 -0.6994875 0.23823750000000002 -0.2256 0.4884125 -0.43825000000000003 0.74945 -0.6370375 0.620675 -0.5106375 1.3103124999999998 -0.93115 2.0485 -1.2490875 0.097725 -0.0248375 0.181575 -0.0874875 0.2331125 -0.1741625 0.0515375 -0.086675 0.066525 -0.1902625 0.041687499999999995 -0.2879875 -0.024849999999999997 -0.09773749999999999 -0.08750000000000001 -0.1815875 -0.174175 -0.233125 -0.086675 -0.051525 -0.1902625 -0.066525 -0.2879875 -0.041675000000000004Z" stroke-width="1.25"></path>
  <path fill-rule="evenodd" fill="#ff8b04" d="M20.896875 8.7473125c0.27475 0.19985 0.5371250000000001 0.3997 0.799375 0.6245375 0.2725 0.216725 0.53125 0.45035 0.7745000000000001 0.6994875 0.60625 0.5777375 1.139 1.228 1.58625 1.9360749999999998 0.048624999999999995 0.10051249999999999 0.134875 0.1778375 0.24012499999999998 0.21523750000000003 0.105125 0.0374125 0.220875 0.031875 0.322 -0.015375 0.050875000000000004 -0.02295 0.09675 -0.0557 0.134875 -0.0963625 0.03825 -0.040675 0.06799999999999999 -0.088475 0.08775 -0.140675 0.019750000000000004 -0.0522125 0.028999999999999998 -0.10778750000000001 0.02725 -0.1635625 -0.00175 -0.05576249999999999 -0.014499999999999999 -0.11065 -0.0375 -0.1614875 -0.3185 -0.89715 -0.773625 -1.7397874999999998 -1.349 -2.498175 -0.25025 -0.329225 -0.535 -0.6307125 -0.849375 -0.8993375000000001 -0.530125 -0.463025 -1.1492499999999999 -0.8127125000000001 -1.8195000000000001 -1.027525 -0.6701250000000001 -0.21481250000000002 -1.3772499999999999 -0.2902125 -2.07775 -0.2215625 -0.099375 0 -0.194625 0.0394875 -0.264875 0.1097625 -0.07037500000000001 0.070275 -0.10975 0.1655875 -0.10975 0.2649625 0 0.09938749999999999 0.039375 0.1947 0.10975 0.264975 0.07025 0.070275 0.16549999999999998 0.10975 0.264875 0.10975 0.7889999999999999 0.1582625 1.529375 0.50065 2.161 0.999275Z" stroke-width="1.25"></path>
  <path fill-rule="evenodd" fill="#ff8b04" d="M20.497125 19.289625c-1.249125 -0.124875 -2.41075 -0.27487500000000004 -3.634875 -0.34975h-3.1351250000000004c-1.2491125 0.074875 -2.4981999999999998 0.26225 -3.64735 0.437125 -0.09938749999999999 0 -0.1947 0.03950000000000001 -0.264975 0.10975 -0.070275 0.07037500000000001 -0.10975 0.16562500000000002 -0.10975 0.265 0 0.099375 0.039474999999999996 0.19474999999999998 0.10975 0.265 0.070275 0.07025 0.1655875 0.10975 0.264975 0.10975 1.186625 0 2.3982375 0.137375 3.62235 0.174875h3.08525c1.2489999999999999 0 2.4232500000000003 -0.11237499999999999 3.622375 -0.137375 0.113875 0.0033750000000000004 0.2245 -0.03775 0.3085 -0.11475 0.08399999999999999 -0.077 0.134625 -0.18375 0.141125 -0.2975 0.00775 -0.10825 -0.025 -0.2155 -0.092 -0.300875 -0.067 -0.0855 -0.16325 -0.14300000000000002 -0.27025 -0.16125Z" stroke-width="1.25"></path>
  <path fill-rule="evenodd" fill="#ff8b04" d="M20.010125 23.736375000000002c-0.5746249999999999 0 -1.923625 -0.125 -3.46 -0.21237499999999998l-1.486375 -0.0625h-1.499c-1.6237499999999998 0 -3.0102374999999997 0.187375 -3.497375 0.19987499999999997 -0.0502375 -0.0033750000000000004 -0.10063749999999999 0.0033750000000000004 -0.1482 0.019875 -0.047549999999999995 0.016625 -0.09129999999999999 0.0425 -0.1286 0.076375 -0.0373125 0.03375 -0.067425 0.07475 -0.0885375 0.1205 -0.0211125 0.045625 -0.0328125 0.095125 -0.034375 0.14550000000000002 0.01105 0.087625 0.051775 0.16899999999999998 0.1154 0.23025 0.0636125 0.061375 0.1463125 0.09912499999999999 0.23435 0.107 0.499625 0.0625 1.8861125 0.28725 3.5099625000000003 0.41225 0.487125 0 0.99925 0.062375 1.5113750000000001 0.062375h1.498875c1.5738750000000001 -0.062375 2.960375 -0.19987499999999997 3.5473749999999997 -0.28725 0.055874999999999994 -0.00475 0.11025 -0.0205 0.16 -0.04625 0.04975 -0.025875 0.093875 -0.06125 0.12987500000000002 -0.10425000000000001 0.036 -0.042874999999999996 0.063125 -0.092625 0.079875 -0.146125 0.016625 -0.0535 0.022625000000000003 -0.10975 0.0175 -0.16549999999999998 -0.0155 -0.10749999999999998 -0.07275000000000001 -0.204375 -0.15925 -0.26987500000000003 -0.0865 -0.0655 -0.195375 -0.09412500000000001 -0.302875 -0.079875Z" stroke-width="1.25"></path>
  <path fill-rule="evenodd" fill="#f7f7f7" d="M2.2605500000000003 19.601875c-0.3850875 -1.0095 -0.6655125000000001 -2.055875 -0.8368875 -3.1227500000000004 -0.23089874999999999 -3.4162500000000002 0.5326625 -6.8261875000000005 2.1983875 -9.81775 1.05715 -1.4680874999999998 2.378775 -2.7261875 3.8971375000000004 -3.709775 1.5379999999999998 -0.9569375 3.2794499999999998 -1.5388375 5.0838125000000005 -1.6987625 0.88675 -0.08743000000000001 1.761125 -0.162375 2.6479999999999997 -0.162375 0.58475 0.00022625 1.1687500000000002 0.037775 1.74875 0.1124175 0.097625 0.014367500000000002 0.19699999999999998 -0.010367499999999998 0.2765 -0.068835 0.0795 -0.05846875 0.13275 -0.14594625 0.148125 -0.24343625000000002 0.008875000000000001 -0.04856 0.00775 -0.0984225 -0.00325 -0.14652500000000002 -0.011125 -0.04810375 -0.032 -0.09343125000000001 -0.06125 -0.1332025s-0.06625 -0.073145 -0.108875 -0.0980725c-0.042624999999999996 -0.02492875 -0.08987500000000001 -0.040883749999999996 -0.138875 -0.04688875000000001 -0.6102500000000001 -0.11783625 -1.227875 -0.19296375000000002 -1.8486250000000002 -0.224835 -0.917375 -0.01301625 -1.83475 0.02451375 -2.7479999999999998 0.1124175C10.57875 0.5289375000000001 8.7075625 1.14412 7.0445375 2.1521874999999997c-1.6530500000000001 1.0129249999999999 -3.1019375 2.3262375 -4.271875 3.8721499999999995C0.53246 9.083599999999999 -0.40606749999999997 12.905125 0.16208375 16.654 0.60550375 20.427125 2.4030125 23.911250000000003 5.220875 26.459375c1.1500000000000001 0.975375 2.460025 1.744375 3.8721625 2.27325 1.3998374999999998 0.514375 2.8613625 0.8418749999999999 4.3468374999999995 0.974375 2.664125 0.21225 5.341125 -0.19824999999999998 7.81925 -1.199125 2.52325 -0.99425 4.681125 -2.738 6.183 -4.9963750000000005 0.701125 -1.083875 1.27525 -2.244875 1.71125 -3.46 0.435625 -1.2075 0.70875 -2.467625 0.8118749999999999 -3.7472499999999997 0.072875 -1.2502499999999999 0.031125 -2.5045 -0.125 -3.7472499999999997 -0.14975 -1.2767249999999999 -0.43875 -2.5332875 -0.86175 -3.7472 -0.8358749999999999 -2.241575 -2.302 -4.1936125 -4.222 -5.620875C22.87525 1.7519125 20.64725 0.83831 18.29875 0.540865c-0.11362499999999999 -0.011017500000000001 -0.227125 0.021567499999999996 -0.3175 0.09115125 -0.09050000000000001 0.0695825 -0.15112499999999998 0.17095749999999998 -0.16962499999999997 0.28357375 -0.01075 0.11216000000000001 0.02225 0.224135 0.092125 0.31257 0.06975 0.08843999999999999 0.171 0.1465025 0.282625 0.16207749999999999 2.19 0.3077375 4.259 1.1913749999999999 5.995625 2.5606250000000004 1.72125 1.3476124999999999 3.021375 3.1591625 3.7472499999999997 5.221175000000001l0.5745 2.3108c0.075 0.986775 0.44975 5.6334125 -0.562 8.181537500000001l-1.623875 3.160125c-1.397875 1.98825 -3.36025 3.5112500000000004 -5.633375000000001 4.37175 -2.274375 0.90825 -4.72975 1.271875 -7.1697500000000005 1.06175 -1.3497000000000001 -0.115875 -2.6774875 -0.41424999999999995 -3.9470625 -0.8868750000000001 -1.2585125 -0.46462499999999995 -2.4286 -1.1405 -3.4599625 -1.9985 -1.8195125 -1.5056249999999998 -3.1571749999999996 -3.5121249999999997 -3.847175 -5.77075Z" stroke-width="1.25"></path>
  <path fill-rule="evenodd" fill="#ff8b04" d="M26.355375 13.031749999999999c-0.2445 0.21737499999999998 -0.474 0.451 -0.6869999999999999 0.6995 -0.380125 0.42775 -0.72275 0.8875 -1.02425 1.373875 -0.095875 -0.0625 -0.201375 -0.108875 -0.31224999999999997 -0.137375 -0.7613749999999999 -0.19574999999999998 -1.5390000000000001 -0.321125 -2.32325 -0.37475 -1.9361249999999999 -0.18724999999999997 -4.53425 -0.29975 -5.78325 -0.31224999999999997 -1.474 0 -4.75905 0.08750000000000001 -7.21975 0.36225 -1.0042125 0.0885 -1.9940250000000002 0.29825 -2.9478375000000003 0.624625 -0.3877125 -0.48724999999999996 -0.8048500000000001 -0.95025 -1.249075 -1.3864999999999998 -0.2253875 -0.225375 -0.463075 -0.438 -0.7119875 -0.637125 -0.2424875 -0.20625000000000002 -0.4969125 -0.398125 -0.7619375 -0.5745 -0.33725 -0.2248625 -0.6495249999999999 -0.4372125 -0.9493 -0.6120749999999999 -0.5496 0 -1.1116875 0 -0.174875 1.38645l0.31227499999999997 0.29975c0.2248375 0.21237499999999998 0.44966249999999997 0.42474999999999996 0.6994875 0.624625 0.2498125 0.19987499999999997 0.4871375 0.399625 0.7244625 0.587 0.5371125 0.37475 1.0367374999999999 0.6869999999999999 1.398975 0.9368750000000001 -0.2374 0.354625 -0.42250000000000004 0.74175 -0.5496 1.149125 -0.22265000000000001 0.756375 -0.356775 1.5359999999999998 -0.3997 2.32325 -0.0362125 0.649125 -0.0362125 1.299625 0 1.9486249999999998 -0.19985 2.235875 0.3122625 2.173375 0.9992624999999999 1.4365 -0.05985 -1.098375 -0.05985 -2.19925 0 -3.297625 0.0729375 -0.693375 0.223775 -1.376375 0.449675 -2.036 0.1313125 -0.38275000000000003 0.3444375 -0.73225 0.6245375 -1.02425 0.104925 -0.07375 0.22402499999999997 -0.12475 0.34975 -0.149875 0.7668999999999999 -0.142625 1.5436125 -0.22612500000000002 2.3232875 -0.24987499999999999 2.4107375 -0.19987499999999997 5.63335 -0.28725 7.08235 -0.27475 1.061625 0 3.097625 0 4.8713750000000005 0.149875 1.02425 0.0625 3.1102499999999997 0.137375 3.1851249999999998 0.437125 0.18462499999999998 0.8218749999999999 0.3015 1.657375 0.34975 2.49825 0.10099999999999999 1.3173750000000002 0.12187500000000001 2.6396249999999997 0.0625 3.959625 0.26225 0.799375 0.6244999999999999 0.5995 1.03675 -0.9243750000000001V18.7525c0.014499999999999999 -0.708375 -0.048375 -1.41625 -0.187375 -2.111 -0.07312500000000001 -0.297125 -0.1865 -0.583 -0.33725 -0.849375 0.33725 -0.29975 0.861875 -0.6745 1.399 -1.111625 0.23725 -0.19987499999999997 0.47462499999999996 -0.39974999999999994 0.712 -0.6244999999999999l0.33725 -0.32475c0.93675 -1.51145 0.711875 -1.8986625 -0.237375 -1.5739l-0.31224999999999997 0.2248375c-0.262125 0.2019375 -0.512375 0.41881250000000003 -0.7495 0.6495624999999999Z" stroke-width="1.25"></path>
</svg>