<svg xmlns="http://www.w3.org/2000/svg" fill="none" viewBox="0 0 30 30" id="Smiley-Crying-Rainbow--Streamline-Freehand" height="30" width="30">
  <desc>
    Smiley Crying Rainbow Streamline Icon: https://streamlinehq.com
  </desc>
  <path fill="#ff8b04" d="M12.038450000000001 27.599625c-0.05585 -0.01075 -0.1132875 -0.01025 -0.1689125 0.001625 -0.055624999999999994 0.011875 -0.1082875 0.034875 -0.1548875 0.0675 -0.0465875 0.0325 -0.08614999999999999 0.07425 -0.11635 0.122375 -0.030187500000000003 0.04825 -0.0503875 0.10200000000000001 -0.0594 0.15812500000000002 -0.027012500000000002 0.106125 -0.07995000000000001 0.203875 -0.1540625 0.284625 -0.0741 0.080625 -0.1670625 0.141625 -0.2705375 0.1775 -0.4582625 0.1535 -0.9408875 0.22125 -1.4237 0.19974999999999998 -1.0865 0 -2.2853875 0.11237499999999999 -3.4343375 0 -0.717675 -0.04575 -1.4246500000000002 -0.19724999999999998 -2.0980625 -0.44949999999999996 -0.48058749999999995 -0.15025 -0.8837625 -0.48175 -1.123975 -0.9242499999999999 -0.077525 -0.20925 -0.0975625 -0.435375 -0.05802500000000001 -0.655 0.039525000000000005 -0.219625 0.1371875 -0.42474999999999996 0.282825 -0.59375 0.15465 -0.21925 0.354875 -0.4025 0.5869624999999999 -0.5369999999999999 0.45335000000000003 -0.2535 0.930125 -0.46262499999999995 1.4236874999999998 -0.6244999999999999 0.4052 -0.115625 0.792 -0.288 1.1489375 -0.512 0.20528749999999998 -0.137875 0.352125 -0.34700000000000003 0.41212499999999996 -0.587 0.056825 -0.376625 0.056825 -0.75975 0 -1.1363750000000001 -0.087425 -0.724375 -0.3122125 -1.511125 -0.38715 -2.148125 -0.1123875 -1.0865 -0.2123 -2.185375 -0.287225 -3.284375 -0.0749375 -1.099 -0.06245 -2.173 -0.06245 -3.2969999999999997 0.0033875000000000003 -0.05025 -0.0034000000000000002 -0.100625 -0.019925 -0.148125 -0.016525 -0.047625 -0.0424625 -0.091375 -0.0762625 -0.12862500000000002 -0.0338125 -0.037375 -0.0747875 -0.067375 -0.120475 -0.0885 -0.045700000000000005 -0.021124999999999998 -0.0951875 -0.032875 -0.14550000000000002 -0.034375 -0.0976375 0.0026249999999999997 -0.19093749999999998 0.040875 -0.26227500000000004 0.107625 -0.071325 0.06675 -0.11575 0.15725 -0.124875 0.2545 -0.074925 1.1115 -0.1123875 2.2355 -0.1248875 3.359375 -0.0124875 1.124 0 2.2355 0 3.347 0 0.636875 0.21231250000000002 1.436125 0.249775 2.173 0.0316375 0.227875 0.0316375 0.459 0 0.686875 0 -0.08750000000000001 0 -0.21237499999999998 0.087425 -0.149875 0.0874125 0.062375 0 0.11237499999999999 -0.087425 0.149875 -0.0874125 0.037375 -0.59945 0.08737500000000001 -0.71185 0.124875 -0.578725 0.18987500000000002 -1.138875 0.43237499999999995 -1.6734499999999999 0.7242500000000001 -0.4181125 0.24762499999999998 -0.7763375 0.5845 -1.0490375 0.986625 -0.27895 0.371125 -0.45282500000000003 0.8105 -0.5033624999999999 1.271875 -0.0505375 0.46149999999999997 0.024112500000000002 0.9281250000000001 0.216125 1.3507500000000001 0.21281250000000002 0.38587499999999997 0.501925 0.7242500000000001 0.8497375 0.9948750000000001 0.34781249999999997 0.2705 0.74705 0.467375 1.1734 0.578625 0.808425 0.25525 1.6500249999999999 0.389875 2.4977 0.399625 1.1896 -0.010625 2.3777375000000003 -0.08574999999999999 3.5592249999999996 -0.22474999999999998 0.599825 -0.01475 1.192075 -0.137375 1.7484 -0.36212500000000003 0.2297375 -0.10037499999999999 0.4303625 -0.257125 0.5832125 -0.45587500000000003 0.15284999999999999 -0.19875 0.2529375 -0.432875 0.290975 -0.680625 0.010887500000000001 -0.060625 0.0084375 -0.122875 -0.007175000000000001 -0.1825 -0.0156125 -0.059625 -0.044012499999999996 -0.115125 -0.083225 -0.162625 -0.039212500000000004 -0.047625 -0.08829999999999999 -0.086 -0.1438625 -0.112625 -0.05555 -0.02675 -0.11623750000000001 -0.040875 -0.17784999999999998 -0.041749999999999995Z" stroke-width="1.25"></path>
  <path fill="#ff8b04" d="M10.702212499999998 13.175375c-0.0046875 -0.049375 -0.0190875 -0.09724999999999999 -0.0423875 -0.140875 -0.0233 -0.043750000000000004 -0.055025 -0.082375 -0.09334999999999999 -0.11374999999999999 -0.038325 -0.03125 -0.08248749999999999 -0.05475 -0.129925 -0.068875 -0.047437499999999994 -0.01425 -0.097225 -0.018875 -0.1464625 -0.013749999999999998 -0.050487500000000005 0.004625000000000001 -0.0995125 0.019375 -0.1441125 0.0435 -0.0446 0.024125 -0.08385000000000001 0.057 -0.11537499999999999 0.09662499999999999 -0.031525 0.03975 -0.054662499999999996 0.085375 -0.068025 0.134375 -0.01335 0.048875 -0.01665 0.1 -0.009675 0.150125v6.956125c0 1.248875 0.1248875 2.49775 0.16235 3.7464999999999997 0.017374999999999998 0.10175000000000001 0.07015 0.194 0.149 0.2605s0.1786875 0.10300000000000001 0.28185000000000004 0.10300000000000001c0.1031625 0 0.20299999999999999 -0.0365 0.28185000000000004 -0.10300000000000001 0.07885 -0.0665 0.131625 -0.15875 0.149 -0.2605 0.1248875 -1.24875 0.2622625 -2.497625 0.3247 -3.7464999999999997v-1.636c0 -0.5495 0 -1.0865 -0.0624375 -1.636 -0.1155875 -1.265375 -0.29481250000000003 -2.5241249999999997 -0.5369999999999999 -3.7714999999999996Z" stroke-width="1.25"></path>
  <path fill="#ff8b04" d="M20.330875000000002 12.101362499999999c-0.094 0.0095 -0.180375 0.055287499999999996 -0.24112499999999998 0.1276 -0.060625 0.0723 -0.090625 0.16542500000000002 -0.083625 0.25955 -0.0625 1.3362375000000002 -0.149875 2.6476125 -0.149875 3.9838625v2.6224999999999996c0 0.87425 0 1.91075 0.09987499999999999 2.872375 0.012624999999999999 0.41825 0.050124999999999996 0.83525 0.11249999999999999 1.248875 0.003125 0.05575 0.01725 0.110375 0.041625 0.16075 0.024375 0.05025 0.058374999999999996 0.09525 0.100125 0.132375 0.041749999999999995 0.037125 0.09050000000000001 0.06575 0.14325 0.08399999999999999 0.052875 0.01825 0.10874999999999999 0.025875 0.16449999999999998 0.0225 0.11374999999999999 -0.0095 0.21925 -0.06325 0.294 -0.149625 0.074625 -0.086375 0.112625 -0.1985 0.10562500000000001 -0.312375 -0.027000000000000003 -0.415875 -0.027000000000000003 -0.833 0 -1.248875 0.075 -0.961625 0.224875 -1.92325 0.28725 -2.884875 0.0625 -0.961625 0 -1.785875 -0.062375 -2.6725 -0.1 -1.33625 -0.32475 -2.635125 -0.487125 -3.9589000000000003 -0.017625 -0.075625 -0.058374999999999996 -0.1438875 -0.1165 -0.19535 -0.05825 -0.051462499999999994 -0.131 -0.08356250000000001 -0.208125 -0.09188750000000001Z" stroke-width="1.25"></path>
  <path fill="#ff8b04" d="M27.37425 23.07875c-0.560875 -0.33362500000000006 -1.166375 -0.585875 -1.7982500000000001 -0.7492500000000001 -0.28725 -0.075 -0.6244999999999999 -0.1 -0.9242499999999999 -0.174875h-0.074875v-1.8732499999999999c0 -1.38625 -0.09987499999999999 -2.7600000000000002 -0.11237499999999999 -4.14625v-2.7473750000000003c0.0033750000000000004 -0.049249999999999995 -0.0029999999999999996 -0.09875 -0.01875 -0.14550000000000002s-0.040625 -0.08987500000000001 -0.07312500000000001 -0.127c-0.0325 -0.037125 -0.072 -0.0675 -0.11624999999999999 -0.089375 -0.04425 -0.02175 -0.09237499999999998 -0.034624999999999996 -0.141625 -0.037875 -0.049125 -0.0033750000000000004 -0.09862499999999999 0.0029999999999999996 -0.145375 0.01875s-0.08987500000000001 0.040625 -0.127 0.07312500000000001c-0.037125 0.0325 -0.0675 0.072 -0.089375 0.11624999999999999 -0.02175 0.04425 -0.034624999999999996 0.09237499999999998 -0.037875 0.141625 -0.09987499999999999 1.161375 -0.17475000000000002 2.310375 -0.22474999999999998 3.47175 -0.05 1.1615 -0.09987499999999999 2.310375 -0.149875 3.459375l-0.08737500000000001 1.7733750000000001c-0.008625 0.17049999999999998 -0.008625 0.3415 0 0.512 0.0026249999999999997 0.094 0.02375 0.1865 0.062375 0.27225s0.09375 0.16299999999999998 0.162375 0.22724999999999998c0.1845 0.16712500000000002 0.40125 0.29462499999999997 0.636875 0.37475 0.34975 0.137375 0.774375 0.17475000000000002 1.124 0.27475 0.43462500000000004 0.11075 0.8540000000000001 0.27425 1.248875 0.487 0.33975 0.15962500000000002 0.6355 0.39974999999999994 0.86175 0.699375 0.15737500000000001 0.26275 0.25275 0.557875 0.27875 0.863125 0.025875 0.30512500000000004 -0.018125000000000002 0.61225 -0.129 0.8977499999999999 -0.09175000000000001 0.3185 -0.25075000000000003 0.61375 -0.466125 0.86575 -0.215375 0.252125 -0.48224999999999996 0.455125 -0.782625 0.595375 -0.782 0.38425 -1.629375 0.6172500000000001 -2.49775 0.686875 -1.35525 0.09987499999999999 -2.716 0.09987499999999999 -4.07125 0 -0.254125 -0.00325 -0.504875 -0.0585 -0.7368750000000001 -0.162375 -0.0935 -0.039625 -0.17812499999999998 -0.09775 -0.248875 -0.17062500000000003 -0.070875 -0.072875 -0.12625 -0.15925 -0.16325 -0.254 -0.036375000000000005 -0.107625 -0.114125 -0.196375 -0.21600000000000003 -0.24675 -0.10187500000000001 -0.05025 -0.2195 -0.058124999999999996 -0.32725 -0.02175 -0.107625 0.0365 -0.196375 0.11424999999999999 -0.24675 0.216125 -0.05025 0.10187500000000001 -0.058124999999999996 0.2195 -0.02175 0.327125 0.111875 0.3325 0.326125 0.621 0.612 0.8242499999999999 0.3725 0.24725 0.802875 0.3935 1.248875 0.42462500000000003 1.4025 0.193875 2.81775 0.28150000000000003 4.233625 0.26225 0.99725 -0.04725 1.978375 -0.271375 2.89725 -0.661875 0.47075 -0.209 0.8921250000000001 -0.515 1.2365 -0.8981250000000001 0.34424999999999994 -0.383125 0.6038749999999999 -0.8345 0.76175 -1.32475 0.168875 -0.502125 0.21837499999999999 -1.03675 0.144625 -1.5613750000000002 -0.073625 -0.5245 -0.268625 -1.02475 -0.56925 -1.4608750000000001 -0.23675000000000002 -0.39225000000000004 -0.546125 -0.7355 -0.9117500000000001 -1.011625Z" stroke-width="1.25"></path>
  <path fill="#f7f7f7" d="M2.7097875 22.092125c0.10022500000000001 -0.055375 0.1747 -0.147875 0.20740000000000003 -0.25775 0.0327 -0.10975 0.020999999999999998 -0.227875 -0.0325625 -0.329125 -1.1785875 -2.3825 -1.7329125 -5.02525 -1.6110250000000002 -7.6805 0.0645375 -2.6182499999999997 0.936925 -5.1525625 2.4977 -7.2557875C4.829 5.124375 6.140862499999999 3.8844499999999997 7.64275 2.9098249999999997c1.5005875 -0.9903375000000001 3.2106125000000003 -1.618775 4.995375 -1.8358125 0.8611249999999999 -0.12263375 1.72825 -0.19767875000000001 2.597625 -0.22479375 0.57975 -0.00171125 1.1592500000000001 0.027469999999999998 1.735875 0.08742 0.048624999999999995 0.008875000000000001 0.09849999999999999 0.007733749999999999 0.1465 -0.00335375 0.048125 -0.011088750000000001 0.0935 -0.03189125 0.13325 -0.06112875 0.03975 -0.0292375 0.07312500000000001 -0.06629499999999999 0.098 -0.10889499999999999 0.025 -0.04260125 0.040875 -0.08984624999999999 0.046875 -0.13883625 0.008875000000000001 -0.048549999999999996 0.00775 -0.09840375 -0.0033750000000000004 -0.1464975 -0.011000000000000001 -0.048093750000000005 -0.031875 -0.09341375 -0.061125 -0.1331775 -0.02925 -0.03976375 -0.06625 -0.07313125000000001 -0.108875 -0.098055 -0.042624999999999996 -0.0249225 -0.08987500000000001 -0.04087625 -0.138875 -0.046878750000000004C16.4775 0.09063824999999999 15.864125 0.023871 15.24825 0l-2.7475 0C10.5322 0.15171375 8.62765 0.7680187500000001 6.9433875 1.79835 5.265499999999999 2.8114375000000003 3.795 4.1336125 2.6098749999999997 5.6947625 0.92479 8.03755 0.020301375000000003 10.8515125 0.024753 13.737375c-0.01352385 2.845625 0.709242 5.64625 2.098072 8.129999999999999 0.04907500000000001 0.10675000000000001 0.13797500000000001 0.19 0.247675 0.23199999999999998 0.1096875 0.041999999999999996 0.23147500000000001 0.039375 0.3392875 -0.0072499999999999995Z" stroke-width="1.25"></path>
  <path fill="#f7f7f7" d="M29.9095 12.3011625c-0.11762500000000001 -1.2760250000000002 -0.38587499999999997 -2.533625 -0.79925 -3.7465625000000005 -0.854125 -2.2618625 -2.346625 -4.2271374999999995 -4.295999999999999 -5.6572875C22.89375 1.4976875 20.634875 0.6354937500000001 18.270249999999997 0.39960875c-0.055874999999999994 -0.00695875 -0.11249999999999999 -0.00275625 -0.166625 0.01236375 -0.05425 0.015120000000000001 -0.104875 0.0408575 -0.149 0.075715 -0.044125 0.03485875 -0.08099999999999999 0.0781425 -0.10825 0.12733875s-0.0445 0.10332374999999999 -0.050749999999999997 0.1592375c-0.00875 0.05513 -0.00625 0.11147000000000001 0.007375 0.16560249999999999 0.013625 0.0541325 0.038125 0.10492875 0.072 0.14930749999999998 0.033875 0.0443775 0.076375 0.0814125 0.125 0.1088575 0.048624999999999995 0.02744375 0.102375 0.04472625 0.157875 0.05079625 2.164375 0.36133499999999996 4.1965 1.282685 5.894500000000001 2.6725475 1.71625 1.3309499999999999 3.01625 3.1248625000000003 3.746625 5.1702375 0.37725000000000003 1.1025375 0.6408750000000001 2.2407375 0.78675 3.3968749999999996 0.155875 1.1711375 0.21025 2.3536375 0.162375 3.5342625 -0.029125 0.7956249999999999 -0.137875 1.5863749999999999 -0.32475 2.3603750000000003 -0.1935 0.784625 -0.44825 1.552875 -0.76175 2.297875 -0.041374999999999995 0.091 -0.045 0.19487500000000002 -0.009875000000000002 0.2885 0.035125 0.09375 0.106125 0.16962499999999997 0.197125 0.21100000000000002 0.09112500000000001 0.041374999999999995 0.19487500000000002 0.044875 0.288625 0.00975 0.09362499999999999 -0.035125 0.16949999999999998 -0.106 0.21100000000000002 -0.197125 0.37825 -0.76475 0.6955 -1.558125 0.949125 -2.37275 0.2605 -0.813 0.440375 -1.6495000000000002 0.5369999999999999 -2.49775 0.15812500000000002 -1.26775 0.18325000000000002 -2.5485 0.074875 -3.8214625Z" stroke-width="1.25"></path>
  <path fill="#ff8b04" d="M11.513962499999998 10.3654625c-0.1957875 -0.62435 -0.5763375 -1.17465 -1.0913875000000002 -1.5782125 -0.51505 -0.40357499999999996 -1.1404 -0.64145 -1.7934625000000002 -0.6822125 -0.3434625 -0.0115 -0.6861875000000001 0.039275 -1.0115625000000001 0.1498625 -0.47343749999999996 0.1519 -0.9022874999999999 0.41778750000000003 -1.24885 0.7742875 -0.7399875 0.8044875 -1.134625 1.8673000000000002 -1.099 2.9597875 -0.0106 0.097525 0.0174625 0.19532500000000003 0.078175 0.27237500000000003 0.0607125 0.0770625 0.149225 0.1272375 0.2465375 0.13973750000000001 0.0485625 0.006987500000000001 0.0980375 0.004025 0.145425 -0.0087 0.0473875 -0.0127125 0.09169999999999999 -0.034937499999999996 0.1302375 -0.0653 0.0385375 -0.0303625 0.0705125 -0.06825 0.0939625 -0.11133749999999999 0.023462499999999997 -0.0431 0.0379125 -0.0905125 0.0424875 -0.1393625 0.1662125 -0.7999375 0.60825 -1.5160375000000001 1.24885 -2.0231375 0.24075 -0.1883875 0.51075 -0.33605 0.7992625 -0.4371 0.50405 -0.1782375 1.056275 -0.16325 1.5499125 0.042050000000000004s0.893625 0.586325 1.1226375 1.0694249999999998c0.0484 0.09435 0.1303375 0.1671625 0.2297125 0.20413750000000003 0.099375 0.0369875 0.209 0.0354375 0.3072875 -0.0043125 0.0541625 -0.019325 0.1038375 -0.0494625 0.1460125 -0.08856249999999999 0.042162500000000006 -0.0391 0.07595 -0.08635000000000001 0.09931250000000001 -0.1389125 0.02335 -0.05255 0.0357875 -0.10930000000000001 0.036562500000000005 -0.1668 0.0007624999999999999 -0.057499999999999996 -0.0101625 -0.1145625 -0.0321125 -0.16771250000000001Z" stroke-width="1.25"></path>
  <path fill="#ff8b04" d="M22.254125000000002 9.1165875c0.54075 0.11044999999999999 1.023125 0.41281249999999997 1.35825 0.8512500000000001 0.33525 0.43843750000000004 0.500375 0.983325 0.465125 1.5340624999999999 -0.008875000000000001 0.056075 -0.005875 0.113375 0.008499999999999999 0.1682875 0.014374999999999999 0.054900000000000004 0.04 0.10625000000000001 0.075125 0.1508 0.03525 0.044562500000000005 0.07925 0.08136249999999999 0.12925 0.108125 0.050124999999999996 0.02675 0.105125 0.0428625 0.16174999999999998 0.047349999999999996 0.11075 0.010525 0.22112500000000002 -0.022824999999999998 0.30762500000000004 -0.0928875 0.086375 -0.0700625 0.141875 -0.1712375 0.15437499999999998 -0.281775 0.15225 -0.6453625000000001 0.10475 -1.321725 -0.136125 -1.9395000000000002 -0.240875 -0.6177625 -0.6637500000000001 -1.147775 -1.212625 -1.5198125 -0.28112499999999996 -0.194025 -0.59375 -0.3377 -0.924125 -0.4246125 -0.500125 -0.1247875 -1.023375 -0.1247875 -1.523625 0 -0.5646249999999999 0.139775 -1.077875 0.4369625 -1.4802499999999998 0.8570125000000001 -0.40237500000000004 0.42005000000000003 -0.6772499999999999 0.9457 -0.792625 1.5158 -0.015625 0.0467375 -0.021875000000000002 0.0961125 -0.018500000000000003 0.14527500000000002 0.0035 0.0491625 0.016625 0.09716249999999998 0.038625 0.14125000000000001 0.022125 0.0440875 0.052625 0.0833875 0.08987500000000001 0.11565 0.03725 0.032275 0.0805 0.056874999999999995 0.12725 0.07239999999999999 0.045875000000000006 0.0176875 0.09487499999999999 0.0258875 0.143875 0.024075 0.049125 -0.0018124999999999999 0.09737499999999999 -0.013587499999999999 0.14175 -0.0346125 0.044375 -0.0210375 0.08399999999999999 -0.050875000000000004 0.1165 -0.0877 0.0325 -0.0368375 0.057124999999999995 -0.0799 0.07250000000000001 -0.12656250000000002 0.16449999999999998 -0.3471625 0.41712499999999997 -0.6451625 0.732625 -0.864275 0.3155 -0.21912500000000001 0.683 -0.351725 1.06575 -0.384575 0.299 -0.0415875 0.602875 -0.03315 0.8991250000000001 0.024975Z" stroke-width="1.25"></path>
  <path fill="#ff8b04" d="M18.6325 25.351625000000002c0.083125 -0.792375 0.124875 -1.5884999999999998 0.124875 -2.38525 0 -0.612 0 -2.685 -0.137375 -3.53425 -0.0225 -0.20224999999999999 -0.08625000000000001 -0.39787500000000003 -0.187375 -0.5745 -0.04125 -0.06949999999999999 -0.09737499999999999 -0.129 -0.16424999999999998 -0.174375 -0.066875 -0.045250000000000005 -0.14300000000000002 -0.07525 -0.222875 -0.08787500000000001 -3.7464999999999997 -0.162375 -4.158625000000001 -0.174875 -5.1202499999999995 -0.19974999999999998 -0.049249999999999995 0 -0.09787499999999999 0.009625 -0.143375 0.0285 -0.0455 0.01875 -0.08675000000000001 0.046375 -0.1215 0.081125 -0.034875 0.034875 -0.0625 0.076125 -0.08125 0.121625 -0.018875 0.0455 -0.0285 0.09412500000000001 -0.0285 0.143375l-0.0375 3.834c-0.051675 0.9650000000000001 -0.051675 1.93225 0 2.89725 0.010124999999999999 0.173875 0.06799999999999999 0.34162499999999996 0.16712500000000002 0.48474999999999996 0.09912499999999999 0.143125 0.23575 0.25625 0.39487500000000003 0.327 0.124875 0 3.0596250000000005 0.29975 4.221125 0.27475 0.347875 0.017125 0.6900000000000001 -0.094 0.961625 -0.312125 0.2 -0.27199999999999996 0.32875 -0.58975 0.37462500000000004 -0.9242499999999999Zm-1.42375 -0.19974999999999998c-0.886625 0 -2.685 0 -3.4342499999999996 -0.075 -0.124875 -0.7742499999999999 -0.224875 -2.197875 -0.237375 -2.497625l-0.18724999999999997 -3.322 4.133625 0.41212499999999996c0.028999999999999998 1.0787499999999999 0.004 2.15825 -0.074875 3.2345 -0.0375 0.587 -0.08737500000000001 1.6235 -0.19987499999999997 2.248Z" stroke-width="1.25"></path>
</svg>