<svg xmlns="http://www.w3.org/2000/svg" fill="none" viewBox="0 0 30 30" id="Time-Stopwatch--Streamline-Freehand" height="30" width="30">
  <desc>
    Time Stopwatch Streamline Icon: https://streamlinehq.com
  </desc>
  <path fill="#010101" fill-rule="evenodd" d="M23.4445 9.416974999999999c-0.42525 -0.36531250000000004 -0.8799999999999999 -0.6949 -1.3595 -0.9853375 0.191625 -0.1146625 0.37137499999999996 -0.2484625 0.5363749999999999 -0.3991 0.13575 -0.175125 0.26075000000000004 -0.358425 0.374 -0.5488500000000001 0.11325 -0.1904375 0.39925 -0.6235999999999999 0.41162499999999996 -0.6609750000000001l0.16225 0.11225c0.386625 0.2493625 0.7857500000000001 0.448975 1.1475 0.7233375 0.2305 0.2352 0.629 0.1327875 0.7176250000000001 -0.1843125 0.041 -0.1471875 0.0005 -0.305225 -0.106375 -0.41441249999999996 -0.27375 -0.4130125 -0.578125 -0.804975 -0.910625 -1.17245 -0.14175 -0.15395 -0.29600000000000004 -0.2957875 -0.46149999999999997 -0.423975 -0.161875 -0.1308625 -0.3375 -0.24375000000000002 -0.523875 -0.3368625 -0.4465 -0.228825 -0.9199999999999999 -0.40063750000000004 -1.4093749999999998 -0.51135 -0.18575000000000003 -0.09962499999999999 -0.41700000000000004 -0.026275 -0.511375 0.1621125 -0.08574999999999999 0.18686250000000001 -0.0155 0.4081625 0.16212500000000002 0.5114875 0.274375 0.2119875 0.561375 0.573725 0.973 0.9603250000000001h0.087125c-0.19862500000000002 0.08149999999999999 -0.387 0.186225 -0.561125 0.3118625 -0.1955 0.1102 -0.379375 0.2398 -0.548875 0.3866125 -0.144875 0.16670000000000001 -0.274375 0.3463 -0.386625 0.53635l-0.199625 0.3742375c-1.2741250000000002 -0.6009 -2.6258749999999997 -1.020675 -4.01625 -1.247325 0.149625 0 0.124625 -0.436475 0.149625 -0.53635 0.042249999999999996 -0.1468125 0.07150000000000001 -0.29707500000000003 0.08725 -0.4489875 0.030500000000000003 -0.2234625 0.030500000000000003 -0.44999999999999996 0 -0.6734625 -0.07625 -0.4222 -0.180375 -0.8389000000000001 -0.311625 -1.247325 0.49875 0 1.010125 0 1.5715000000000001 -0.08737500000000001 0.4395 -0.023725 0.86725 -0.1520375 1.247375 -0.3741 0.385625 -0.2892875 0.57025 -0.774875 0.47375 -1.247325 -0.051000000000000004 -0.4477 -0.291625 -0.8519112500000001 -0.6608749999999999 -1.110075 -0.6421250000000001 -0.349745 -1.35325 -0.55420875 -2.083125 -0.59872375 -1.10725 -0.16415849999999998 -2.2235 -0.25994924999999997 -3.342625 -0.286862563625C13.367375 -0.001261825 12.584875 0.08662075 11.8197875 0.26200375000000004c-0.37831249999999994 0.06798375 -0.7530625000000001 0.15535625 -1.12245 0.26186125 -0.197575 0.05739875 -0.38635 0.1413275 -0.56135 0.24949C9.3784625 1.21952875 8.98 2.0912125 9.1381625 2.9561375c0.17142500000000002 0.6334125 0.7673375 1.0568875 1.4219375 1.0102l2.257525 -0.2244875c-0.002375 0.0332875 -0.002375 0.066575 0 0.09987499999999999l-0.149625 0.49885c0 0.1372375 -0.074875 0.2619875 -0.08737500000000001 0.3991 -0.024875 0.21136249999999998 -0.024875 0.424875 0 0.6361 0.035875 0.24465 0.10300000000000001 0.48355000000000004 0.199625 0.7109749999999999v0.1996125c-0.509575 0.022699999999999998 -1.0174750000000001 0.072575 -1.5216874999999999 0.1496125 -1.222575 0.1843125 -2.3966875 0.6081749999999999 -3.454975 1.247325l-0.11223749999999999 -0.2121125c-0.1093125 -0.1741125 -0.2301 -0.34082500000000004 -0.3617375 -0.49885 -0.1728375 -0.1389125 -0.356375 -0.2639125 -0.548725 -0.3742375l-0.2619875 -0.12475 0.0997375 -0.0747375c0.4491125 -0.41161250000000005 0.8107125 -0.8855875000000001 1.247325 -1.3969375 0.1653125 -0.1241125 0.19885 -0.35855 0.074875 -0.5238625 -0.128575 -0.16696249999999999 -0.3670875 -0.20025 -0.53635 -0.0748625 -0.5488500000000001 0.2743625 -1.0352124999999999 0.47397500000000004 -1.4966875 0.7483375000000001 -0.20548750000000002 0.1270375 -0.40140000000000003 0.26875 -0.586225 0.4241125 -0.18788749999999999 0.16071249999999998 -0.36696249999999997 0.331375 -0.53635 0.51135 -0.3736 0.437875 -0.7114750000000001 0.9050999999999999 -1.0103375 1.3969375 -0.16645 0.16976249999999998 -0.16645 0.44144999999999995 0 0.611225 0.172325 0.16007500000000002 0.4389125 0.16007500000000002 0.611225 0 0.46148750000000005 -0.3867375 0.9104625 -0.6611 1.3095750000000002 -0.9604625 -0.074875 0.09987499999999999 0.2121125 0.39911250000000004 0.23698750000000002 0.43661249999999996 0.10485 0.1820125 0.22142499999999998 0.35701249999999995 0.34923750000000003 0.52385 0.1596875 0.1426 0.3307375 0.2719375 0.51135 0.3866 -1.6412 1.3641625 -2.8358499999999998 3.1889000000000003 -3.429975 5.2386124999999995 -1.0969375000000001 3.5675 -0.7056125000000001 7.4270000000000005 1.085075 10.70175 1.6946375 2.652 4.3971875 4.49875 7.4838000000000005 5.1137500000000005 2.9689625 0.75575 6.0980875 0.585875 8.9678375 -0.486375 0.2215 -0.08175 0.333375 -0.328375 0.2495 -0.548875 -0.092 -0.21812499999999999 -0.34075 -0.32325 -0.56125 -0.237 -1.4985000000000002 0.542875 -3.083875 0.805125 -4.67725 0.773375 0.062875 -0.2425 0.112875 -0.48812500000000003 0.149625 -0.7358750000000001 0.01175 -0.137 0.01175 -0.27475 0 -0.41162499999999996 0.018375 -0.136625 0.018375 -0.275125 0 -0.41162499999999996 -0.096875 -0.33437500000000003 -0.222 -0.659875 -0.37424999999999997 -0.9728749999999999 -0.0315 -0.200625 -0.208625 -0.3455 -0.41162499999999996 -0.33675 -0.20712499999999998 0.019624999999999997 -0.358375 0.204625 -0.33675 0.41162499999999996 -0.08725 0.386625 -0.19949999999999998 0.636125 -0.2495 0.947875 -0.012750000000000001 0.136875 -0.012750000000000001 0.274625 0 0.41162499999999996 0 0.12475 0 0.26187499999999997 0.062375 0.41162499999999996 0.05475 0.219625 0.1215 0.436125 0.199625 0.648625 -0.9225 -0.07175 -1.83675 -0.22612500000000002 -2.7314749999999997 -0.46149999999999997 -1.4404375 -0.36912500000000004 -2.8043375 -0.9898750000000001 -4.028824999999999 -1.8335000000000001 0.2121125 -0.14975 0.42410000000000003 -0.286875 0.611225 -0.436625 0.19285 -0.15537499999999999 0.36848749999999997 -0.33099999999999996 0.52385 -0.523875 0.254975 -0.38675000000000004 0.456375 -0.8063750000000001 0.5987250000000001 -1.247125 0.131625 -0.1635 0.097325 -0.40399999999999997 -0.074875 -0.523875 -0.1619875 -0.12687500000000002 -0.39605 -0.099 -0.52385 0.062375 -0.29936250000000003 0.2245 -0.6111 0.361625 -0.9104625 0.586125 -0.1431125 0.095125 -0.27678749999999996 0.20375000000000001 -0.3991 0.32425000000000004 -0.1066375 0.119125 -0.2065125 0.244125 -0.29936250000000003 0.37424999999999997 -0.13724999999999998 0.2245 -0.262 0.46149999999999997 -0.3992375 0.711 -0.7303625 -0.63125 -1.342725 -1.3872499999999999 -1.8085499999999999 -2.232625 -0.8423375 -1.6188749999999998 -1.3191249999999999 -3.403 -1.3969375 -5.226125000000001 0.2619875 0.062375 0.5114875 0.12475 0.76085 0.16212500000000002 0.2485875 0.030375 0.49986250000000004 0.030375 0.7483375000000001 0 0.42882499999999996 -0.07037500000000001 0.847575 -0.19175 1.247325 -0.36175 0.20535 -0.013 0.35841249999999997 -0.19449999999999998 0.336725 -0.39912499999999995 -0.0132625 -0.206875 -0.19221249999999998 -0.3635 -0.3991 -0.34924999999999995 -0.3741125 -0.074875 -0.685975 -0.212 -1.0602125 -0.286875 -0.1535625 -0.012875000000000001 -0.3079 -0.012875000000000001 -0.461475 0 -0.157775 -0.012375 -0.31620000000000004 -0.012375 -0.47397500000000004 0 -0.25715 0.041749999999999995 -0.511225 0.1 -0.76085 0.17462499999999997 0.04005 -1.169625 0.24146250000000002 -2.328125 0.5987250000000001 -3.4425 0.3915875 -1.15675 0.98725 -2.2339 1.7586750000000002 -3.1805875 0.23698750000000002 0.29936250000000003 0.3866125 0.5987250000000001 0.6235999999999999 0.8980875 0.095275 0.12014999999999999 0.20407499999999998 0.22895 0.3243625 0.324225 0.1162 0.10817500000000001 0.246175 0.20051249999999998 0.3866 0.27449999999999997 0.326275 0.2019 0.66825 0.37715 1.0228375 0.5239 0.1855875 0.146 0.45471249999999996 0.11249999999999999 0.5986 -0.074875 0.13635 -0.19075000000000003 0.097825 -0.455025 -0.08725 -0.5987750000000001 -0.2619875 -0.3242375 -0.4366 -0.6235999999999999 -0.6736 -0.8855875000000001 -0.1565 -0.19235 -0.3366 -0.36415000000000003 -0.536225 -0.51135 -0.39106250000000004 -0.2378875 -0.8099375 -0.4264 -1.2473125 -0.561225 1.2557375000000002 -1.304075 2.919 -2.140175 4.714662499999999 -2.3699 1.039075 -0.1662 2.091825 -0.228825 3.1431999999999998 -0.1871125 -0.004375 0.05395 -0.004375 0.1081625 0 0.1621125 -0.012875000000000001 0.153575 -0.012875000000000001 0.3080375 0 0.4616125 -0.011999999999999999 0.15765 -0.011999999999999999 0.31620000000000004 0 0.47385 0 0.34923750000000003 0.17462499999999997 0.6986000000000001 0.286875 1.0977000000000001 0.019875 0.23622500000000002 0.22474999999999998 0.41352500000000003 0.46149999999999997 0.39911250000000004 0.23625000000000002 -0.0199 0.4135 -0.224875 0.39912499999999995 -0.461475 0 -0.39911250000000004 0.17462499999999997 -0.7359749999999999 0.212 -1.0852125 0.0365 -0.243875 0.0365 -0.49196249999999997 0 -0.7358375 0.005875 -0.07475 0.005875 -0.149875 0 -0.2244875 2.18 0.19667500000000002 4.27425 0.9434874999999999 6.086749999999999 2.170275l-0.19949999999999998 0.12475c-0.125125 0.0936125 -0.242 0.19795000000000001 -0.34924999999999995 0.311725 -0.10550000000000001 0.116975 -0.201375 0.24209999999999998 -0.286875 0.3742375 -0.20337500000000003 0.3252625 -0.386625 0.662625 -0.548875 1.0103375 -0.206375 0.2543375 -0.059875 0.6368625 0.26349999999999996 0.6883875 0.15025 0.0239875 0.301875 -0.03405 0.397625 -0.1521625 0.32425000000000004 -0.2493625 0.636125 -0.41161250000000005 0.9105000000000001 -0.6486000000000001 0.189625 -0.1357125 0.36512500000000003 -0.2904375 0.5237499999999999 -0.461475 0.09225 -0.1315125 0.17562500000000003 -0.2690125 0.2495 -0.41161250000000005 1.9452500000000001 1.8723375 3.074375 4.4355875000000005 3.143125 7.1344625 -0.33675 -0.07475 -0.636125 -0.19949999999999998 -0.98525 -0.26187499999999997 -0.15362499999999998 -0.012875000000000001 -0.308 -0.012875000000000001 -0.46149999999999997 0 -0.15737500000000001 -0.018500000000000003 -0.31662500000000005 -0.018500000000000003 -0.474 0 -0.37949999999999995 0.063125 -0.754375 0.150625 -1.122625 0.26187499999999997 -0.23612500000000003 0.013500000000000002 -0.41875 0.212625 -0.41162499999999996 0.449125 0.013500000000000002 0.23612500000000003 0.212625 0.41875 0.449125 0.41162499999999996 0.41162499999999996 0.06225 0.748375 0.187 1.097625 0.224375 0.2485 0.030375 0.49974999999999997 0.030375 0.748375 0 0.39974999999999994 -0.053875 0.790125 -0.16312500000000002 1.159875 -0.32425000000000004 0.012875000000000001 0.76175 -0.016125 1.523875 -0.08725 2.2825 -0.11837500000000001 1.279875 -0.5141249999999999 2.5185000000000004 -1.159875 3.6295 -0.199 0.319625 -0.4155 0.62775 -0.648625 0.9231250000000001 -0.027375 -0.056874999999999995 -0.07075 -0.104625 -0.12475 -0.13724999999999998 -0.262 -0.324375 -0.436625 -0.623625 -0.673625 -0.885625 -0.1565 -0.19224999999999998 -0.33675 -0.36412500000000003 -0.5363749999999999 -0.51125 -0.38712499999999994 -0.24512499999999998 -0.8069999999999999 -0.434125 -1.247125 -0.561375 -0.169375 -0.12525 -0.40775 -0.092 -0.5363749999999999 0.074875 -0.115875 0.174125 -0.07775 0.40800000000000003 0.08725 0.5363749999999999 0.237 0.299375 0.38675000000000004 0.598625 0.62375 0.8855000000000001 0.0915 0.127 0.20074999999999998 0.240375 0.32425000000000004 0.33675 0.11937500000000001 0.10425000000000001 0.24875000000000003 0.19625 0.38675000000000004 0.274375 0.3275 0.19949999999999998 0.6693749999999999 0.37462500000000004 1.0226250000000001 0.523875l0.12475 0.062375c-0.443375 0.46375 -0.93225 0.8816250000000001 -1.45925 1.24725 -0.245 0.1585 -0.2265 0.5225 0.03325 0.65525 0.120375 0.06175 0.264625 0.05437499999999999 0.37825 -0.019125 1.182625 -0.7418750000000001 2.184125 -1.73925 2.9311249999999998 -2.9186250000000005 0.7338749999999999 -1.189125 1.209875 -2.51925 1.3969999999999998 -3.903875 0.773375 -5.812374999999999 -0.948 -9.516875 -3.6171249999999997 -11.7869ZM10.2233625 2.5694c0.0568875 -0.3020375 0.2568875 -0.557775 0.53635 -0.6859625 0.13188750000000002 -0.0708 0.2755125 -0.11735000000000001 0.423975 -0.13724999999999998 0.3118625 0 0.623725 -0.08725 0.9354625 -0.1371125 0.669975 -0.1275625 1.3512250000000001 -0.18610000000000002 2.0331 -0.17462499999999997 1.068 0.0252625 2.134 0.10855000000000001 3.1929999999999996 0.2493625 0.421875 0.02105 0.840125 0.0880125 1.247375 0.199625 0.2245 0.0748625 0.474 0.1496125 0.511375 0.3866 0.037375 0.23698750000000002 0 0.11225 -0.11225 0.13724999999999998 -0.17850000000000002 0.059175 -0.36225 0.1010125 -0.548875 0.1247375 -0.7857500000000001 0.11225 -1.4841250000000001 0.18712499999999999 -2.17025 0.24948749999999997 -2.4945 0.212 -4.5150875 0.16212500000000002 -5.6127875000000005 0.16212500000000002 -0.3242375 -0.025 -0.448975 -0.18712499999999999 -0.436475 -0.3742375Zm3.5672625 3.7418375 0.07475 -0.2618625c0 -0.1746125 0.08737500000000001 -0.3118625 0.12475 -0.48647500000000005 0.0125 -0.10778750000000001 0.0125 -0.21658750000000002 0 -0.3242375 -0.01475 -0.2847 -0.048125 -0.5679875 -0.09974999999999999 -0.8482125 0 -0.673475 0 -0.673475 2.0455 -0.6235999999999999 -0.066875 0.341575 -0.108625 0.6875 -0.12475 1.0352000000000001 -0.01875 0.21582500000000002 -0.01875 0.4327875 0 0.6486000000000001 0 0.2119875 0.11225 0.39911250000000004 0.14975 0.5987250000000001s0 0.23698750000000002 0.07475 0.3991c-0.757125 -0.0936125 -1.5195 -0.1394125 -2.2825 -0.1372375h0.0375Z" clip-rule="evenodd" stroke-width="1.25"></path>
  <path fill="#222222" fill-rule="evenodd" d="M13.21675 18.7715c-0.1005 0.8119999999999999 0.305 1.603125 1.02275 1.9957500000000001 0.78125 0.28475 1.656 0.11174999999999999 2.27 -0.449 1.6837499999999999 -1.471875 0 -2.85625 -0.449 -3.13075 -0.43762500000000004 -0.24237499999999998 -0.9536250000000001 -0.300625 -1.434375 -0.16212500000000002 -0.237 -0.523875 -0.449 -1.03525 -0.6984999999999999 -1.521625 -0.137125 -0.26187499999999997 -0.286875 -0.498875 -0.4365 -0.7358750000000001s-0.33675 -0.474 -0.511375 -0.6859999999999999c-0.427875 -0.533125 -0.8859375 -1.041125 -1.3720375000000002 -1.521625 -0.1392875 -0.18358750000000001 -0.3994875 -0.2223625 -0.586225 -0.087425 -0.19144999999999998 0.14005 -0.2307375 0.40980000000000005 -0.08737500000000001 0.598675 0.2869875 0.498875 0.56135 1.097625 0.9230875 1.74625 0.1244875 0.254625 0.266075 0.5005 0.42398749999999996 0.7358750000000001 0.1508875 0.24362499999999998 0.31743750000000004 0.476875 0.49893750000000003 0.6984999999999999 0.32425000000000004 0.41162499999999996 0.6984999999999999 0.7982499999999999 1.085125 1.24725 -0.361125 0.333125 -0.591125 0.784125 -0.6485000000000001 1.272125Zm2.432125 -0.698375c0.424125 0.13724999999999998 1.247375 0.698375 0.18712499999999999 1.347 -0.271875 0.20925 -0.638375 0.247875 -0.947875 0.09987499999999999 -0.2245 -0.11237499999999999 -0.262 -0.39925 -0.2495 -0.648625 0.0125 -0.24925 0 -0.57375 0.324375 -0.6735 0.19574999999999998 -0.148125 0.4505 -0.194375 0.685875 -0.12475Z" clip-rule="evenodd" stroke-width="1.25"></path>
</svg>