<svg xmlns="http://www.w3.org/2000/svg" fill="none" viewBox="0 0 30 30" id="Business-Management-Teamwork-Clap--Streamline-Freehand" height="30" width="30">
  <desc>
    Business Management Teamwork Clap Streamline Icon: https://streamlinehq.com
  </desc>
  <path fill="#f7f7f7" fill-rule="evenodd" d="M9.0365875 17.853749999999998c0.335975 0.0435 0.6761625 0.0435 1.012125 0 0.32758750000000003 -0.048125 0.6497875 -0.127625 0.9621375 -0.237375 0.6999125 -0.26675 1.369975 -0.606 1.9992750000000001 -1.012125 0.09425 -0.048375 0.166375 -0.131125 0.20125 -0.23112500000000002 0.034875 -0.100125 0.029875000000000002 -0.20975 -0.013875 -0.30625 -0.050499999999999996 -0.092125 -0.133375 -0.16225 -0.23262499999999997 -0.196875 -0.09925 -0.034624999999999996 -0.20775 -0.03125 -0.304625 0.0095 -0.6635625 0.232875 -1.3446375 0.412625 -2.03675 0.53725 -0.412875 0.08474999999999999 -0.8299875 0.14725 -1.2495375 0.1875h-0.6247625c0.7292 -0.955375 1.1673875 -2.10075 1.262025 -3.298875 0.24991249999999998 -2.4990125 -0.9871249999999999 -4.998075 -3.88605 -5.2479875 -0.9316375 -0.0055125 -1.851275 0.21023750000000002 -2.683275 0.6294875 -0.8319875 0.4192625 -1.5525625 1.0300375000000002 -2.1024375 1.7821124999999998C0.7252599999999999 11.18975 0.3585775 12.088587500000001 0.2933475 13.03325c-0.06523 0.94475 0.17443625000000001 1.8855 0.68374625 2.68375 0.32286875 0.48050000000000004 0.74998125 0.882 1.24953125 1.174625l0.47482499999999994 0.24987499999999999c-0.9584874999999999 0.98 -1.6844475 2.162875 -2.1242075 3.46125 -0.3283025 1.006625 -0.517482875 2.053375 -0.562290375 3.11125 -0.055800499999999996 1.5431249999999999 0.044673875 3.088 0.29988787499999997 4.610875 0.0030025 0.056499999999999995 0.017597500000000002 0.11174999999999999 0.0428775 0.162375 0.025281249999999998 0.050625 0.060706249999999996 0.0955 0.10407125 0.13174999999999998 0.04336625 0.036375000000000005 0.09374375000000001 0.063375 0.14800125 0.079375 0.05425625 0.016125 0.11123 0.02075 0.16737875 0.013875 0.101625 -0.012624999999999999 0.19456250000000003 -0.063625 0.2596575 -0.14275 0.06509375 -0.07900000000000001 0.09738250000000001 -0.18 0.09021124999999999 -0.282125 -0.07713125 -1.492375 -0.03116 -2.9885 0.13745000000000002 -4.473375 0.109 -0.951125 0.2970875 -1.8915000000000002 0.5622875 -2.811375 0.34959999999999997 -1.283 0.94825 -2.4845 1.7618500000000001 -3.5362500000000003 0.337375 0.08750000000000001 0.67475 0.17500000000000002 1.012125 0.237375 0.09112500000000001 0.01825 0.185775 -0.0005 0.2631 -0.052s0.1310125 -0.13174999999999998 0.1492375 -0.222875c0.018224999999999998 -0.09112500000000001 -0.0004875 -0.18575000000000003 -0.052050000000000006 -0.263125 -0.05155 -0.07725 -0.1317125 -0.131 -0.22285 -0.14925 -2.4990625 -0.57475 -2.9489 -1.73675 -2.9613875 -1.7742499999999999 -0.3552125 -0.63925 -0.49478750000000005 -1.376 -0.3979875 -2.10075 0.0968 -0.7249 0.42478750000000004 -1.3991875 0.9352874999999999 -1.9227875 0.4364125 -0.5811000000000001 1.002675 -1.0520875 1.65355 -1.3753499999999999 0.6508750000000001 -0.32327500000000003 1.368325 -0.48986250000000003 2.09505 -0.48645 2.1367 0.12494999999999999 2.9863875 1.9867499999999998 2.873925 3.8360875 0.0126375 0.967125 -0.2956875 1.911125 -0.87675 2.684375s-1.4020625 1.332125 -2.33455 1.5890000000000002c-0.10271250000000001 0.018375 -0.1946375 0.075 -0.25725000000000003 0.1585 -0.0626125 0.08349999999999999 -0.0912375 0.18762500000000001 -0.080125 0.291375 0.018375 0.10175000000000001 0.0755 0.1925 0.15938750000000002 0.25312500000000004 0.0838875 0.060625 0.188 0.08625000000000001 0.29045 0.07175 0.6760125 -0.097125 1.316475 -0.363625 1.8618000000000001 -0.77475 0.4233 0.196625 0.8741875 0.32725 1.3370000000000002 0.387375Z" clip-rule="evenodd" stroke-width="1.25"></path>
  <path fill="#f7f7f7" fill-rule="evenodd" d="M13.222750000000001 18.341c-0.510125 0.48275 -1.0765125 0.90225 -1.686925 1.249625 -0.60405 0.334125 -1.2404 0.60625 -1.8992999999999998 0.8121250000000001 -0.5070125000000001 0.124875 -1.00745 0.275 -1.4994375 0.449875 -0.3484625 0.12825 -0.64345 0.3705 -0.8371875 0.6872499999999999 -0.28142500000000004 0.688375 -0.4011125 1.4322499999999998 -0.349875 2.174125 0 1.562 0.5123125 3.48625 0.5872875000000001 4.473375 0.0015625 0.052 0.013587499999999999 0.10312500000000001 0.0353375 0.150375s0.0528 0.089625 0.091275 0.124625c0.0384875 0.034875 0.0836125 0.06175 0.1327 0.07900000000000001 0.0490875 0.017125 0.10113749999999999 0.02425 0.1530375 0.020874999999999998 0.050875000000000004 -0.001625 0.10092500000000001 -0.01325 0.14731249999999999 -0.03425 0.046375 -0.020999999999999998 0.088175 -0.050875000000000004 0.1229875 -0.08800000000000001 0.034812499999999996 -0.037125 0.061962500000000004 -0.08075 0.0799 -0.128375 0.01795 -0.047625 0.026324999999999998 -0.098375 0.024650000000000002 -0.14925 0 -0.849625 -0.13743750000000002 -2.411625 -0.13743750000000002 -3.8485000000000005 0 -3.2363750000000002 0.7622125000000001 -2.324125 1.9117875 -2.774 0.6867375 -0.32425000000000004 1.34325 -0.708875 1.9617624999999999 -1.149625 0.6295000000000001 -0.4475 1.2005000000000001 -0.9722500000000001 1.6993749999999999 -1.5618750000000001 0.034875 -0.031625 0.06275 -0.07025 0.08175 -0.11325 0.019125 -0.043 0.028999999999999998 -0.089625 0.028999999999999998 -0.136625 0 -0.047125 -0.009875000000000002 -0.09362499999999999 -0.028999999999999998 -0.13674999999999998 -0.019 -0.043 -0.046875 -0.081625 -0.08175 -0.11325 -0.03375 -0.0385 -0.075625 -0.06924999999999999 -0.1225 -0.08987500000000001 -0.046875 -0.02075 -0.09787499999999999 -0.03075 -0.149125 -0.029625 -0.051250000000000004 0.00125 -0.101625 0.013625 -0.1475 0.0365 -0.045875000000000006 0.02275 -0.08625000000000001 0.055375 -0.11812500000000001 0.0955Z" clip-rule="evenodd" stroke-width="1.25"></path>
  <path fill="#f7f7f7" fill-rule="evenodd" d="M25.805500000000002 16.37925c-0.594 0.062625 -1.1928750000000001 0.062625 -1.786875 0 -1.774375 -0.24987499999999999 -4.185875 -1.79925 -3.33625 -4.3358375 0.2865 -0.740725 0.7453750000000001 -1.402525 1.3385 -1.9305625000000002 0.59325 -0.5280375 1.30375 -0.9071125 2.07275 -1.1058 0.8118749999999999 -0.2459875 1.6817499999999999 -0.2204625 2.47775 0.0726875s1.47475 0.8379375 1.933125 1.5517125c0.22762500000000002 0.3651 0.3805 0.7718 0.44962500000000005 1.1964625 0.06924999999999999 0.42466249999999994 0.053375000000000006 0.8588374999999999 -0.0465 1.2773375 -0.1 0.4185 -0.282125 0.813 -0.535875 1.1605 -0.253625 0.34750000000000003 -0.57375 0.64125 -0.9418749999999999 0.8640000000000001 -0.08512499999999999 0.0605 -0.14325 0.15187499999999998 -0.16199999999999998 0.2545 -0.018625 0.10275 0.0036249999999999998 0.20875000000000002 0.062 0.295375 0.027625000000000004 0.044875 0.064375 0.08349999999999999 0.107875 0.113375 0.0435 0.029750000000000002 0.09275 0.05 0.14475 0.059500000000000004 0.051875000000000004 0.009375 0.105125 0.00775 0.156375 -0.00475 0.051250000000000004 -0.012624999999999999 0.09925 -0.035875 0.140875 -0.06825 0.4795 -0.26875 0.900875 -0.630125 1.2395 -1.063125 0.33875 -0.432875 0.588 -0.928875 0.73325 -1.459125 0.145375 -0.530125 0.183875 -1.08385 0.113375 -1.6290125 -0.07062500000000001 -0.5451750000000001 -0.24875000000000003 -1.0708875 -0.52425 -1.5465875000000002 -0.5569999999999999 -0.9640749999999999 -1.414375 -1.7192874999999999 -2.4410000000000003 -2.1502499999999998 -1.0266250000000001 -0.4309625 -2.166125 -0.513975 -3.244375 -0.2363625 -0.978875 0.25575000000000003 -1.879625 0.7486375000000001 -2.62275 1.4351125 -0.743125 0.686475 -1.30575 1.5454124999999999 -1.638125 2.500925 -0.20875000000000002 0.6390125000000001 -0.246 1.321675 -0.10775 1.97955 0.138125 0.6579999999999999 0.44675 1.268 0.894875 1.7690000000000001 -0.20625000000000002 -0.07225 -0.40675000000000006 -0.15987500000000002 -0.59975 -0.262375 -0.652625 -0.43437499999999996 -1.189 -1.022125 -1.5618750000000001 -1.711875 -0.306 -0.55075 -0.6936249999999999 -1.0520625 -1.149625 -1.4869124999999999 -0.366125 -0.36760000000000004 -0.8196249999999999 -0.6361375 -1.317875 -0.7803875 -0.498375 -0.1442625 -1.02525 -0.15949999999999998 -1.5310000000000001 -0.0443 -0.414625 0.1752125 -0.7789999999999999 0.4508625 -1.060375 0.8020625000000001 -0.281375 0.3512125 -0.47100000000000003 0.7669125 -0.551625 1.2096624999999999 -0.074075 0.282625 -0.074075 0.5796250000000001 0 0.86225 0.131875 0.345125 0.282125 0.682875 0.449875 1.012125 0.16799999999999998 0.32362500000000005 0.35575 0.636625 0.5622499999999999 0.937125 0.5135 0.7882500000000001 1.117375 1.5136250000000002 1.799375 2.161625 0.68925 0.65 1.4625 1.20475 2.299125 1.6493749999999998 0.6696249999999999 0.28175 1.353625 0.52775 2.04925 0.73725 0.20775 0.0745 0.405125 0.17525 0.58725 0.299875 0.129125 0.461375 0.212875 0.9343750000000001 0.25 1.412 0.0935 0.7458750000000001 0.131125 1.49775 0.11237499999999999 2.249125 -0.028 1.149625 -0.11975 2.296875 -0.27487500000000004 3.4362500000000002 -0.014875000000000001 0.09287500000000001 0.007625000000000001 0.18775 0.06275 0.263875 0.05499999999999999 0.076125 0.138125 0.12737500000000002 0.230875 0.14225 0.09275 0.014875000000000001 0.18775 -0.007625000000000001 0.263875 -0.06275 0.076125 -0.05499999999999999 0.12737500000000002 -0.138125 0.14225 -0.230875 0.187375 -1.149625 0.374875 -2.324125 0.449875 -3.49875 0.056125 -0.7945000000000001 0.056125 -1.592 0 -2.386625 -0.01475 -0.515125 -0.064875 -1.028625 -0.15 -1.536875 -0.052750000000000005 -0.22175 -0.165 -0.424875 -0.324875 -0.58725 -0.27475 -0.234625 -0.5820000000000001 -0.42812500000000003 -0.9121250000000001 -0.574875 -0.62475 -0.287375 -1.3619999999999999 -0.47475 -1.899375 -0.774625 -0.726 -0.414875 -1.3976250000000001 -0.918625 -1.99925 -1.4995 -0.6005 -0.5856250000000001 -1.1405 -1.230375 -1.6118750000000002 -1.9242500000000002 -0.174875 -0.27487500000000004 -0.337375 -0.5497500000000001 -0.48724999999999996 -0.8372499999999999 -0.524875 -0.949625 -0.39987500000000004 -0.899625 -0.324875 -1.162 0.031875 -0.198 0.111 -0.385375 0.230625 -0.54625 0.119625 -0.1609625 0.27625 -0.2907375 0.456625 -0.3784125 0.42474999999999996 -0.1624375 0.9871249999999999 0 1.78675 0.5622875 0.7997500000000001 0.5622499999999999 1.3744999999999998 2.2741249999999997 2.936375 3.0988749999999996 0.7378750000000001 0.37525000000000003 1.5593750000000002 0.555875 2.386625 0.52475 0.12075000000000001 0.078125 0.245875 0.149125 0.374875 0.21250000000000002 0.6151249999999999 0.278625 1.2755 0.44375 1.94925 0.48724999999999996 0.6469999999999999 0.033 1.2955 0.00375 1.9368750000000001 -0.08750000000000001 0.045625 -0.0045 0.08975 -0.01825 0.12987500000000002 -0.040499999999999994 0.040124999999999994 -0.02225 0.07525 -0.052375 0.103375 -0.08862500000000001 0.028 -0.036250000000000004 0.048375 -0.077875 0.059875 -0.12225s0.013749999999999998 -0.090625 0.006750000000000001 -0.135875c-0.0063750000000000005 -0.08399999999999999 -0.045250000000000005 -0.16225 -0.108125 -0.21812499999999999 -0.063 -0.056 -0.145125 -0.08524999999999999 -0.22925 -0.081875Z" clip-rule="evenodd" stroke-width="1.25"></path>
  <path fill="#f7f7f7" fill-rule="evenodd" d="M26.929875000000003 15.867c-0.031625 -0.039874999999999994 -0.07150000000000001 -0.072375 -0.116875 -0.09525 -0.045375 -0.022875 -0.09525 -0.035500000000000004 -0.146125 -0.037125 -0.050749999999999997 -0.001625 -0.101375 0.007875 -0.148125 0.02775 -0.046875 0.019875 -0.08875 0.04975 -0.12275 0.08750000000000001 -0.034125 0.03775 -0.059500000000000004 0.0825 -0.0745 0.131125 -0.015 0.0485 -0.01925 0.09974999999999999 -0.0125 0.15025 0.006874999999999999 0.050375 0.0245 0.09862499999999999 0.051875000000000004 0.1415 0.027375 0.042874999999999996 0.063875 0.07925 0.10675000000000001 0.1065 1.0385 1.175375 1.692625 2.6405000000000003 1.87425 4.1985 0.162875 0.9335 0.263 1.877 0.299875 2.823875 0.046375 1.467125 0.008875000000000001 2.935625 -0.11249999999999999 4.398375 -0.007 0.051000000000000004 -0.00375 0.10275 0.0095 0.1525 0.01325 0.049625 0.036250000000000004 0.09625 0.067625 0.136875 0.031375 0.040749999999999995 0.0705 0.07475 0.11525 0.100125 0.04475 0.025500000000000002 0.094 0.041749999999999995 0.14500000000000002 0.047875 0.10250000000000001 0.014625 0.206625 -0.011125 0.2905 -0.07175 0.083875 -0.0605 0.141 -0.15125 0.159375 -0.25312500000000004 0.3205 -1.48475 0.517 -2.9935 0.58725 -4.5108749999999995 0.04125 -1.040375 -0.051125 -2.081875 -0.27487500000000004 -3.09875 -0.373 -1.741 -1.32425 -3.304375 -2.699 -4.435875Z" clip-rule="evenodd" stroke-width="1.25"></path>
  <path fill="#ff8b04" fill-rule="evenodd" d="M8.9367625 5.7832375c0.060575000000000004 0.21081249999999999 0.1400375 0.4157375 0.23741249999999997 0.612275 0.08752499999999999 0.19380000000000003 0.18769999999999998 0.3816375 0.29988750000000003 0.5622875 0.28755 0.43777499999999997 0.60485 0.855275 0.9496499999999999 1.2495375 0.047037499999999996 0.0787625 0.1222125 0.13674999999999998 0.2103375 0.1622625 0.088125 0.025500000000000002 0.18263749999999998 0.0166375 0.2644875 -0.0248125 0.081125 -0.04479999999999999 0.1411625 -0.1199625 0.166925 -0.2089875 0.025775 -0.0890125 0.0151625 -0.18462499999999998 -0.029475 -0.2658375 -0.16244999999999998 -0.4873125 -0.24991249999999998 -0.9621375 -0.41235 -1.4369625 -0.07037500000000001 -0.2010125 -0.1538625 -0.39718749999999997 -0.24991249999999998 -0.5872875000000001 -0.08758749999999998 -0.1897375 -0.187775 -0.3734125 -0.29988750000000003 -0.5497875 -0.26239999999999997 -0.43733750000000005 -0.5497875 -0.8496874999999999 -0.8371875 -1.2495375 -0.0465 -0.0932125 -0.12755 -0.1646 -0.22588750000000002 -0.19897499999999999 -0.09834999999999999 -0.034362500000000004 -0.20621250000000002 -0.0289875 -0.3006625 0.014974999999999999 -0.09443750000000001 0.0439625 -0.1679875 0.12304999999999999 -0.20500000000000002 0.22042499999999998 -0.037025 0.09737499999999999 -0.034575 0.20535 0.0068249999999999995 0.30095 0.1499375 0.4498375 0.24989999999999998 0.9246500000000001 0.4248375 1.399475Z" clip-rule="evenodd" stroke-width="1.25"></path>
  <path fill="#ff8b04" fill-rule="evenodd" d="M14.597 6.083125000000001c-0.000125 0.09067499999999999 0.035125 0.17781249999999998 0.098 0.2430875 0.063 0.0652625 0.14875 0.10355 0.239375 0.10678750000000001 0.046375 0.0034374999999999996 0.09287500000000001 -0.0027375000000000003 0.13674999999999998 -0.0181375 0.043875 -0.0154125 0.084125 -0.0397125 0.11812500000000001 -0.0713875 0.033999999999999996 -0.031675 0.061125 -0.07005 0.079625 -0.11270000000000001 0.018500000000000003 -0.042649999999999993 0.028 -0.0886625 0.027875 -0.13515 0.11249999999999999 -0.5247999999999999 0.24987499999999999 -1.012125 0.312375 -1.549425 0.012750000000000001 -0.2205625 0.012750000000000001 -0.4416875 0 -0.66225 0.012125 -0.2205875 0.012125 -0.441675 0 -0.66225 0 -0.5123125 -0.15 -1.012125 -0.224875 -1.5369374999999998 0.000125 -0.10185 -0.0385 -0.19995 -0.10825 -0.27425 -0.06962499999999999 -0.0743125 -0.165 -0.1192375 -0.266625 -0.1256 -0.052 -0.001675 -0.103625 0.0071125 -0.152125 0.025825 -0.048375 0.0187125 -0.092625 0.046975 -0.12987500000000002 0.08311249999999999 -0.037375 0.0361375 -0.067 0.0794125 -0.08725 0.1272375 -0.020249999999999997 0.0478375 -0.030625 0.09925 -0.030625 0.1511875 -0.08750000000000001 0.5247999999999999 -0.1875 1.0246125 -0.237375 1.549425 -0.012375 0.22057500000000002 -0.012375 0.441675 0 0.66225 -0.01225 0.22057500000000002 -0.01225 0.441675 0 0.66225 0.025 0.5247999999999999 0.149875 1.012125 0.224875 1.536925Z" clip-rule="evenodd" stroke-width="1.25"></path>
  <path fill="#ff8b04" fill-rule="evenodd" d="M19.145125 7.8075125c0.367875 -0.26426249999999996 0.714625 -0.5567 1.037125 -0.8746750000000001 0.12612500000000001 -0.1391375 0.239125 -0.289725 0.337375 -0.44982500000000003 0.1 -0.14995 0.187375 -0.3123875 0.27487500000000004 -0.47482499999999994 0.187375 -0.39985 0.337375 -0.7872125000000001 0.512375 -1.1745625 0.064625 -0.0825125 0.0955 -0.186575 0.08625000000000001 -0.2910375 -0.009250000000000001 -0.10446250000000001 -0.057999999999999996 -0.20146250000000002 -0.13625 -0.27125 -0.08662500000000001 -0.0584375 -0.1925 -0.0806875 -0.29525 -0.062 -0.10275 0.018675 -0.194125 0.07680000000000001 -0.254625 0.16196249999999998 -0.324875 0.312375 -0.62475 0.5997750000000001 -0.924625 0.93715 -0.11249999999999999 0.13745000000000002 -0.224875 0.27490000000000003 -0.324875 0.4248375 -0.1215 0.15325 -0.23012500000000002 0.3162375 -0.324875 0.487325 -0.187375 0.38734999999999997 -0.312375 0.7747125 -0.51225 1.1495625 -0.032125 0.034187499999999996 -0.057 0.0744625 -0.07312500000000001 0.1184375 -0.01625 0.043975 -0.023375 0.09075 -0.021124999999999998 0.13755 0.00225 0.0468 0.013875 0.092675 0.034125 0.1349 0.020249999999999997 0.0422375 0.048875 0.07995000000000001 0.08399999999999999 0.110925 0.03525 0.030975 0.07625 0.054575 0.12062500000000001 0.06938749999999999 0.0445 0.014825000000000001 0.0915 0.020562499999999997 0.13825 0.016875 0.046625 -0.0036875 0.092125 -0.016712499999999998 0.13375 -0.0383125 0.0415 -0.0216 0.078375 -0.051324999999999996 0.10825 -0.087425v-0.025Z" clip-rule="evenodd" stroke-width="1.25"></path>
</svg>