<svg xmlns="http://www.w3.org/2000/svg" fill="none" viewBox="0 0 30 30" id="Delete-Bin-5--Streamline-Freehand" height="30" width="30">
  <desc>
    Delete Bin 5 Streamline Icon: https://streamlinehq.com
  </desc>
  <path fill="#222222" fill-rule="evenodd" d="M12.806999999999999 8.8090125c0.142125 0.08248749999999999 0.306625 0.1184 0.47024999999999995 0.10271250000000001 0.163625 -0.0157 0.31825 -0.0822125 0.44225000000000003 -0.1902125 0.22499999999999998 -0.2375 0.4375 -0.5375 0.7000000000000001 -0.775 0.081875 -0.08760000000000001 0.18525 -0.1522375 0.3 -0.1875 0.47750000000000004 -0.0938625 0.97275 -0.0046125 1.3875000000000002 0.25 0.226625 0.1002 0.42562500000000003 0.253675 0.580125 0.4473875 0.154625 0.19369999999999998 0.26 0.42188749999999997 0.307375 0.6651125 0.016999999999999998 0.09865 0.0685 0.1881 0.14500000000000002 0.2525625 0.076625 0.064475 0.173625 0.099825 0.27375 0.099825s0.19699999999999998 -0.03535 0.273625 -0.099825c0.076625 -0.06446249999999999 0.128 -0.1539125 0.145125 -0.2525625 -0.008875000000000001 -0.4021375 -0.114625 -0.7961875 -0.308375 -1.148725 -0.19362500000000002 -0.3525375 -0.4695 -0.6531375 -0.804125 -0.8762749999999999 -0.642625 -0.5105875 -1.4580000000000002 -0.7525 -2.275 -0.675 -0.275875 0.0479875 -0.536875 0.159225 -0.7625 0.325 -0.232125 0.1736375 -0.442125 0.37515 -0.625 0.6 -0.058625 -0.0706 -0.125875 -0.1335875 -0.2 -0.1875 -0.337625 -0.10646249999999999 -0.6999125 -0.10646249999999999 -1.03755 0 -0.5285125 0.20923750000000002 -1.018525 0.5049374999999999 -1.45 0.875 -0.2592625 0.221725 -0.4428125 0.5189 -0.525 0.8500000000000001 -0.05505 0.3897375 -0.05505 0.785275 0 1.1749999999999998 -0.01 0.054099999999999995 -0.007975 0.10975 0.0059375 0.1629875 0.0139125 0.053225 0.039362499999999995 0.10275 0.07455 0.14505 0.0352 0.0422875 0.07926249999999999 0.076325 0.129075 0.09967500000000001 0.049825 0.023362499999999998 0.10417499999999999 0.0354625 0.15918749999999998 0.0354625 0.055025 0 0.109375 -0.0121 0.15918749999999998 -0.0354625 0.049825 -0.02335 0.0938875 -0.0573875 0.1290875 -0.09967500000000001 0.035187500000000003 -0.042300000000000004 0.0606375 -0.09182499999999999 0.07455 -0.14505 0.0139125 -0.05323750000000001 0.0159375 -0.10888750000000001 0.005925000000000001 -0.1629875 0.017575 -0.25846250000000004 0.06368750000000001 -0.5141749999999999 0.1375 -0.7625 0.0519375 -0.170225 0.1627 -0.31642499999999996 0.3125 -0.41250000000000003 0.269375 -0.15782500000000002 0.5541875 -0.287675 0.8500000000000001 -0.3875 0.1395625 -0.0686375 0.2949 -0.0988375 0.44999999999999996 -0.08750000000000001 0.0625 -0.1 0.35005000000000003 0.3125 0.47505 0.4Z" clip-rule="evenodd" stroke-width="1.25"></path>
  <path fill="#222222" fill-rule="evenodd" d="M7.081425 5.2459625c-0.38463749999999997 0.224075 -0.687025 0.5659000000000001 -0.8624999999999999 0.9750000000000001 -0.14295 0.40197499999999997 -0.22304999999999997 0.8236 -0.2375 1.25 -0.0123 0.3486375 0.06975 0.694125 0.2375 1 0.021187499999999998 0.044387499999999996 0.0511875 0.08399999999999999 0.08816249999999999 0.116425 0.0369875 0.032425 0.080175 0.056987499999999996 0.12695 0.0721875 0.046775000000000004 0.015200000000000002 0.09615 0.020725 0.1451375 0.0162375 0.048975 -0.0044875 0.096525 -0.0189 0.13974999999999999 -0.04235 0.044387499999999996 -0.021187499999999998 0.08399999999999999 -0.051175 0.116425 -0.08816249999999999 0.032425 -0.036975 0.056987499999999996 -0.080175 0.0721875 -0.12695 0.0152125 -0.046775000000000004 0.0207375 -0.09615 0.0162375 -0.145125 -0.0044875 -0.048975 -0.0188875 -0.0965375 -0.04235 -0.1397625 -0.0697875 -0.240875 -0.0697875 -0.496625 0 -0.7374999999999999 0.0493875 -0.2761125 0.1333875 -0.5448999999999999 0.25 -0.8 0.163275 -0.2607375 0.41695000000000004 -0.45211250000000003 0.7124999999999999 -0.5375 0.36105 -0.1221 0.7339374999999999 -0.2058875 1.1125 -0.25 0.17001249999999998 -0.013825 0.33275 -0.07503750000000001 0.46973750000000003 -0.176675 0.1369875 -0.101625 0.2427375 -0.239625 0.3052625 -0.398325 0.1 -0.22499999999999998 0 -0.5750000000000001 0.1875 -0.925 0.1493375 -0.31220000000000003 0.35242500000000004 -0.5956874999999999 0.6 -0.8375 0.236375 -0.258275 0.51545 -0.473925 0.8250000000000001 -0.6375 0.3961 -0.2079125 0.8157875000000001 -0.3673875 1.24995 -0.475 0.3735 -0.0936625 0.7641249999999999 -0.0936625 1.1375 0 0.2375 0.0625 0.65 0.475 0.9750000000000001 0.5625 0.12 0.053412499999999995 0.25 0.081025 0.38125 0.081025 0.131375 0 0.26125 -0.027612499999999998 0.38125 -0.081025l1.1375 -0.7875c0.402625 -0.0884 0.8235000000000001 -0.030799999999999998 1.1875 0.1625 0.4 0.1875 0.7875 0.4375 0.8 0.7875 -0.010499999999999999 0.06105 -0.007625000000000001 0.12367500000000001 0.008499999999999999 0.1834875 0.016125 0.0598125 0.045250000000000005 0.11536249999999999 0.08512499999999999 0.162775 0.039874999999999994 0.047400000000000005 0.089625 0.08551249999999999 0.145875 0.11166250000000001 0.056125 0.02615 0.117375 0.0396875 0.17925 0.0396875 0.062 0 0.12325 -0.0135375 0.17937499999999998 -0.0396875 0.056249999999999994 -0.02615 0.106 -0.0642625 0.145875 -0.11166250000000001 0.039874999999999994 -0.047412499999999996 0.068875 -0.1029625 0.08512499999999999 -0.162775 0.016125 -0.0598125 0.019 -0.12243749999999999 0.008375 -0.1834875 -0.03924999999999999 -0.3624625 -0.176375 -0.707425 -0.39649999999999996 -0.9980374999999999 -0.22025 -0.2906125 -0.515125 -0.5159625 -0.8534999999999999 -0.6519625 -0.6 -0.36137874999999997 -1.31625 -0.47776625000000006 -2 -0.32500124999999996 -0.174 0.05734 -0.34162499999999996 0.13275125000000002 -0.5 0.22500124999999999 -0.2625 0.15 -0.48750000000000004 0.3375 -0.75 0.4625 -0.11249999999999999 -0.075 -0.2625 -0.3 -0.375 -0.3875 -0.149625 -0.122825 -0.3185 -0.21998125000000002 -0.5 -0.28750125000000004 -0.48750000000000004 -0.17718625000000002 -1.0090000000000001 -0.24129874999999998 -1.525 -0.1875 -0.6751125 0.10068250000000001 -1.32695 0.32078875 -1.92495 0.6500012500000001 -0.4371375 0.2302625 -0.8339625 0.53 -1.1749999999999998 0.8875 -0.33571249999999997 0.3682125 -0.6062375 0.790925 -0.8 1.25 -0.031375 0.2866375 -0.031375 0.57585 0 0.8624999999999999 -0.5475 0.14024999999999999 -1.07025 0.3636875 -1.55 0.6625000000000001Zm7.88745 -3.5375c0 0.0625 0 0 -0.11249999999999999 0s0.11249999999999999 -0.0375 0.11249999999999999 0Z" clip-rule="evenodd" stroke-width="1.25"></path>
  <path fill="#222222" fill-rule="evenodd" d="M25.79525 3.5462375c-0.732625 -0.4128375 -1.577 -0.5834625 -2.4125 -0.48750000000000004 -0.11050000000000001 0.006449999999999999 -0.214125 0.055787500000000004 -0.288875 0.1375 -0.07475 0.0817 -0.114625 0.1893375 -0.111125 0.3 0.001625 0.055275000000000005 0.01425 0.109675 0.03725 0.1599625 0.023 0.050275 0.055874999999999994 0.09542500000000001 0.09675 0.1327375 0.040749999999999995 0.0373125 0.08875 0.06605 0.140875 0.084475 0.052125000000000005 0.0184375 0.107375 0.0262 0.162625 0.022824999999999998 0.5327500000000001 -0.019799999999999998 1.0630000000000002 0.082825 1.55 0.3 0.181375 0.08406250000000001 0.32787499999999997 0.22849999999999998 0.4145 0.408625 0.08662500000000001 0.1801125 0.10800000000000001 0.384725 0.0605 0.578875 -0.03525 0.2674625 -0.13849999999999998 0.5214125000000001 -0.3 0.7374999999999999 -0.074375 0.103375 -0.16275 0.195925 -0.2625 0.275 -0.32925000000000004 0.0399375 -0.637625 0.1819625 -0.882 0.40615 -0.244375 0.22419999999999998 -0.41237500000000005 0.5192875 -0.48050000000000004 0.84385 0 0.275 -0.3 0.42500000000000004 -0.525 0.55 -0.27475 0.1362 -0.5822499999999999 0.1925125 -0.8875 0.1625 -0.231625 -0.0042875 -0.46212499999999995 -0.033625 -0.6875 -0.08750000000000001 0.039 -0.13885 0.064125 -0.2812125 0.075 -0.42500000000000004 0.03425 -0.13067499999999999 0.032625 -0.26818749999999997 -0.00475 -0.398 -0.037375 -0.1298125 -0.10925000000000001 -0.2471125 -0.20775 -0.3395 -0.078 -0.083525 -0.1775 -0.1440625 -0.28750000000000003 -0.17500000000000002 -0.5625 -0.1625 -0.725 0 -1.025 -0.28750000000000003 -0.05425 -0.0483875 -0.097 -0.1083 -0.125125 -0.17534999999999998 -0.028124999999999997 -0.06705 -0.040875 -0.13953749999999998 -0.037375 -0.21215 0.0115 -0.258975 0.10325000000000001 -0.5079625 0.2625 -0.7124999999999999 0.17425 -0.2203875 0.40875 -0.38539999999999996 0.675 -0.475h0.3875c0.275 0.2625 0.5 0.4 0.725 0.11249999999999999 0.037125 -0.0555 0.056874999999999995 -0.12075000000000001 0.056874999999999995 -0.1875 0 -0.06675 -0.019750000000000004 -0.132 -0.056874999999999995 -0.1875 -0.091375 -0.127475 -0.19612500000000002 -0.2448125 -0.3125 -0.35000000000000003 -0.156375 -0.110075 -0.33599999999999997 -0.182775 -0.525 -0.21250000000000002 -0.181375 -0.03775 -0.368625 -0.03775 -0.55 0 -0.43762500000000004 0.10225 -0.83675 0.327825 -1.1500000000000001 0.65 -0.32587499999999997 0.3436 -0.53575 0.7807999999999999 -0.6 1.25 -0.056 0.36573750000000005 0.024125 0.7393 0.22499999999999998 1.05 0.252 0.35421250000000004 0.60475 0.6243 1.0125000000000002 0.775 -0.037125 0.13922500000000002 -0.037125 0.28576250000000003 0 0.42500000000000004 0.032 0.1687875 0.09849999999999999 0.32915 0.19525 0.47109999999999996 0.096875 0.14195 0.221875 0.2624125 0.36725 0.3539 0.44237499999999996 0.2816 0.9420000000000001 0.4609625 1.4625 0.525 0.563875 0.0423375 1.128875 -0.0654875 1.6375000000000002 -0.3125 0.555 -0.2740625 0.981125 -0.7539625 1.1875 -1.3375000000000001 0.062 -0.10425000000000001 0.11624999999999999 -0.212875 0.1625 -0.325 0.040749999999999995 0.012525 0.08425 0.012525 0.125 0 0.45875 -0.190975 0.84425 -0.523925 1.1 -0.95 0.23025 -0.3801 0.37137499999999996 -0.8075 0.41250000000000003 -1.25 0.05499999999999999 -0.3501625 0.007625000000000001 -0.70875 -0.136625 -1.0325625 -0.144125 -0.3238125 -0.37887499999999996 -0.5990125000000001 -0.675875 -0.7924375Z" clip-rule="evenodd" stroke-width="1.25"></path>
  <path fill="#222222" fill-rule="evenodd" d="M5.943887500000001 4.196c0.8500000000000001 -0.17500000000000002 1.525 -0.7374999999999999 1.525 -1.6500000000000001 0.0105875 -0.06105 0.007699999999999999 -0.12367500000000001 -0.0084625 -0.1834875 -0.0161625 -0.0598125 -0.0452125 -0.11537499999999999 -0.08510000000000001 -0.162775 -0.0399 -0.047412499999999996 -0.089675 -0.08552499999999999 -0.1458375 -0.11166250000000001 -0.056175 -0.02615 -0.11738749999999999 -0.0397 -0.17935 -0.0397 -0.06195 0 -0.12316250000000001 0.013550000000000001 -0.17933749999999998 0.0397 -0.056175 0.0261375 -0.10595 0.06425 -0.1458375 0.11166250000000001 -0.0399 0.047400000000000005 -0.0689375 0.1029625 -0.0851125 0.162775 -0.0161625 0.0598125 -0.01905 0.12243749999999999 -0.0084625 0.1834875 0 0.3875 -0.41250000000000003 0.48750000000000004 -0.775 0.5125 -0.17048750000000001 0.022412500000000002 -0.34385 -0.00315 -0.500625 -0.0738125 -0.156775 -0.07065 -0.2907375 -0.18361249999999998 -0.38687499999999997 -0.3261875 -0.089025 -0.134875 -0.1464875 -0.28807499999999997 -0.16812500000000002 -0.448225 -0.02165 -0.16015000000000001 -0.0069 -0.3231125 0.043125000000000004 -0.47677499999999995 0.0353625 -0.192875 0.12664999999999998 -0.3711 0.2625 -0.5125025 0.1480375 -0.11157125000000001 0.3321375 -0.16437125 0.5167999999999999 -0.14821375 0.1846625 0.01615875 0.3568 0.10012874999999999 0.4832 0.23571625 0.0701 0.0687125 0.16435000000000002 0.1072 0.2625 0.1072 0.0981625 0 0.19240000000000002 -0.0384875 0.2625 -0.1072 0.03555 -0.0338625 0.06385 -0.07458375 0.0831875 -0.11970625 0.01935 -0.045122499999999996 0.0293125 -0.09370375 0.0293125 -0.14279625 0 -0.04909125 -0.0099625 -0.0976725 -0.0293125 -0.142795 -0.0193375 -0.045122499999999996 -0.0476375 -0.08584750000000001 -0.0831875 -0.119705 -0.133975 -0.22132875 -0.3188625 -0.40746875000000005 -0.5392874999999999 -0.54293625 -0.22042499999999998 -0.13546775 -0.47 -0.2163465 -0.7279875 -0.23590904999999998C5.1061375 -0.014910375 4.8472124999999995 0.02740875 4.6088875 0.12808999999999998c-0.2383375 0.10068 -0.449175 0.2568125 -0.615 0.45540749999999997 -0.34848749999999995 0.37442625 -0.5637625 0.8533275 -0.6125 1.3625025 -0.0503875 0.5112875 0.0681625 1.025 0.3375 1.4625 0.2606375 0.32557500000000006 0.607075 0.5718375 1.000225 0.7109875 0.39315 0.13915 0.8173625 0.16565 1.224775 0.0765125Z" clip-rule="evenodd" stroke-width="1.25"></path>
  <path fill="#010101" fill-rule="evenodd" d="M25.745749999999997 11.1094875c0.18525 -0.3900125 0.22512500000000002 -0.8333124999999999 0.11249999999999999 -1.2501125 -0.024125 -0.1096875 -0.0895 -0.2059 -0.1825 -0.268725 -0.093125 -0.06282499999999999 -0.20675 -0.0874625 -0.3175 -0.0688 -0.109 0.023999999999999997 -0.204125 0.08988750000000001 -0.265 0.18343749999999998 -0.06075 0.09356249999999999 -0.082375 0.207275 -0.06 0.3166 0.11249999999999999 0.6250500000000001 -0.262625 1.0000875 -0.775125 1.2501125 -0.969375 0.4301125 -1.9905 0.7326625 -3.03775 0.9000750000000001 -1.42725 0.266325 -2.87375 0.4168 -4.325375 0.45005000000000006 -1.457125 0.08725 -2.91825 0.08725 -4.375375 0 -1.9247625 -0.061125 -3.820675 -0.48521250000000005 -5.587974999999999 -1.250125 -0.24570000000000003 -0.1197125 -0.466325 -0.2851875 -0.6500625 -0.48753749999999996 -0.1587875 -0.1687 -0.2442 -0.393475 -0.23751250000000002 -0.6250500000000001 0.0033875000000000003 -0.0486375 -0.003075 -0.09745000000000001 -0.0189875 -0.1435375 -0.0159125 -0.046075 -0.0409625 -0.088475 -0.0736375 -0.12465000000000001 -0.032675 -0.0361875 -0.0723125 -0.0654 -0.11653749999999999 -0.0859 -0.0442375 -0.020512500000000003 -0.09215 -0.0318875 -0.140875 -0.03345 -0.047975 -0.0051875 -0.0965125 -0.0004 -0.1425625 0.014062499999999999 -0.0460375 0.0144625 -0.0885875 0.0382875 -0.1249875 0.0699875 -0.0363875 0.0317 -0.06583750000000001 0.070575 -0.0864875 0.1142 -0.02065 0.043625 -0.03205 0.09103750000000001 -0.0334875 0.139275 -0.038587500000000004 0.339575 0.036125 0.6823750000000001 0.2125125 0.9750875000000001 0.2394125 0.3940875 0.5749125 0.7209875 0.9750875000000001 0.9500875 2.2849749999999998 1.222925 4.8225625 1.89905 7.4131374999999995 1.9751750000000001h0.9626250000000001c-0.675125 0.5375 -1.4501249999999999 1.250125 -2.25025 1.912625l-0.5000249999999999 0.487625c-0.9000874999999999 -0.912625 -1.61265 -1.66275 -2.0876875 -2.2127499999999998 -0.0648 -0.060875 -0.149125 -0.09675 -0.2379125 -0.10112499999999999 -0.0888 -0.0045 -0.17628749999999999 0.02275 -0.24686249999999998 0.07675 -0.070575 0.054125 -0.11966249999999999 0.1315 -0.13848749999999999 0.21837499999999999 -0.0188125 0.08687500000000001 -0.0061625000000000004 0.177625 0.0357125 0.256 0.4250375 0.612625 1.0876 1.4751249999999998 1.9126625 2.50025l-0.13751249999999998 0.15c-0.48753749999999996 0.487625 -0.950075 1.0001250000000002 -1.4001125 1.500125 -0.45003750000000003 0.500125 -0.6750625 0.775125 -0.9875875000000001 1.150125 -0.825075 -0.762625 -1.5126249999999999 -1.425125 -1.9251624999999999 -1.900125 -0.06343750000000001 -0.068875 -0.14626250000000002 -0.11674999999999999 -0.237525 -0.1375 -0.262525 -1.4751249999999998 -0.5000375 -2.98775 -0.66255 -4.437875 -0.012525 -0.0975 -0.06275 -0.186 -0.1398875 -0.246875 -0.0771375 -0.06075 -0.17502500000000001 -0.088875 -0.27265 -0.07825 -0.047712500000000005 0.00475 -0.0940125 0.01875 -0.1362375 0.0415 -0.042225 0.02275 -0.079525 0.0535 -0.1097625 0.09075 -0.030225000000000002 0.037125 -0.052775 0.08 -0.0663375 0.126 -0.0135625 0.046 -0.0178875 0.09412500000000001 -0.012700000000000001 0.141875 0.279925 3.6215 0.8399875 7.2158750000000005 1.67515 10.750875 0.269025 1.258375 0.6887500000000001 2.479875 1.2501125 3.63775 0.2051875 0.410375 0.532825 0.74675 0.9375749999999999 0.9626250000000001 2.612275 0.8616250000000001 5.3747875 1.172375 8.1131625 0.912625 1.47975 -0.07875 2.940625 -0.36924999999999997 4.337875 -0.8626250000000001 0.45275000000000004 -0.162875 0.8540000000000001 -0.443375 1.162625 -0.8125 0.830375 -1.55875 1.3805 -3.2513750000000003 1.6251250000000002 -5.0005 0.8626250000000001 -4.400375 1.362625 -10.188375 1.587625 -11.675975000000001 0.016375 -0.0878375 0.004625000000000001 -0.1785875 -0.0335 -0.25937499999999997 -0.038125 -0.08080000000000001 -0.10075 -0.1475125 -0.179 -0.1906625Zm-4.225375 2.2126375c1.212125 -0.259125 2.376375 -0.7062499999999999 3.450375 -1.3250625 -0.22512500000000002 1.4125625 -0.5876250000000001 4.2128125 -1.087625 7.0880624999999995l-0.662625 0.500125 -1.537625 -1.7251250000000002 -1.0374999999999999 -1.125125c0.9103749999999999 -0.902 1.8657499999999998 -1.757375 2.86275 -2.56275 0.040875 -0.0265 0.076125 -0.060875 0.103375 -0.10125 0.027375 -0.040499999999999994 0.04625 -0.08587499999999999 0.0555 -0.13375 0.009375 -0.047875 0.009 -0.097125 -0.001125 -0.14475 -0.010124999999999999 -0.04775 -0.029750000000000002 -0.09287500000000001 -0.057749999999999996 -0.13275 -0.02775 -0.041374999999999995 -0.06325 -0.076875 -0.10475 -0.10425000000000001 -0.0415 -0.027499999999999997 -0.08800000000000001 -0.046375 -0.136875 -0.05575 -0.048875 -0.009250000000000001 -0.09912499999999999 -0.00875 -0.14775 0.0014999999999999998 -0.048624999999999995 0.01025 -0.09475 0.030125 -0.13575 0.0585 -0.7875 0.5 -1.925125 1.3250000000000002 -3.2127499999999998 2.3501250000000002 -0.6875 -0.675 -1.387625 -1.325125 -2.050125 -1.9376250000000002 1.248875 -0.11674999999999999 2.4863750000000002 -0.33425000000000005 3.70025 -0.6501250000000001Zm-5.9255 13.38875 -0.5625 -0.487625c-0.612625 -0.5750000000000001 -1.3126250000000002 -1.3126250000000002 -2.06275 -2.087625 0.1375 -0.125 0.262625 -0.2625 0.400125 -0.4l2.1251249999999997 -2.02525c0.6125 0.5876250000000001 1.250125 1.175125 1.850125 1.7251250000000002l0.7251249999999999 0.637625 -1.012625 1.025c-0.5125 0.525125 -1.0001250000000002 1.125125 -1.4626249999999998 1.6127500000000001Zm2.03775 -4.9005 -1.112625 -1.100125 0.8999999999999999 -0.8500000000000001 2.23775 -2.16275 0.0625 0.075c0.3625 0.387625 0.7374999999999999 0.7501249999999999 1.112625 1.087625 0.55 0.525125 1.0875 0.987625 1.562625 1.387625 -0.7126250000000001 0.550125 -1.4626249999999998 1.150125 -2.20025 1.800125 -0.41250000000000003 0.350125 -0.8125 0.737625 -1.250125 1.112625 -0.4 -0.4375 -0.8500000000000001 -0.8999999999999999 -1.3125 -1.350125Zm-1.350125 -7.750624999999999h0.4625c0.6 0.8250000000000001 1.250125 1.712625 1.9376250000000002 2.57525l0.15 0.1625 -1.325125 1.125125c-0.6625000000000001 0.5750000000000001 -1.3375000000000001 1.1875 -1.987625 1.8251249999999999l-0.4375 -0.41250000000000003c-0.675125 -0.662625 -1.337625 -1.250125 -1.96275 -1.88775 1.237625 -1.3126250000000002 2.35025 -2.56275 3.162875 -3.38775Zm-5.4505125 5.663 1.437625 -1.437625 1.2501375000000001 1.350125c0.3375 0.3625 0.675 0.725 1.0374999999999999 1.075l-1.362625 1.3751250000000002 -1.062525 1.150125c-0.3625375 -0.375 -0.7375624999999999 -0.7374999999999999 -1.1126 -1.112625l-0.825075 -0.8 -0.48753749999999996 -0.44999999999999996 1.1251 -1.150125Zm-2.78775 1.250125c-0.23751250000000002 0.28750000000000003 -0.4375375 0.5625 -0.6375500000000001 0.8250000000000001 -0.1750125 -0.7374999999999999 -0.33752499999999996 -1.487625 -0.48753749999999996 -2.275125 0.31252500000000005 0.44999999999999996 0.68755 0.9125 1.1250875 1.437625v0.0125Zm-0.362525 1.9376250000000002c0.28752500000000003 -0.325 0.6500499999999999 -0.7001250000000001 1.0625875 -1.112625 0.1250125 0.125 0.22502500000000003 0.2625 0.3500375 0.4 0.4250375 0.46262499999999995 0.875075 0.9376249999999999 1.3501125 1.400125 0.237525 0.23762499999999998 0.48753749999999996 0.450125 0.7375624999999999 0.675125 -0.850075 0.987625 -1.5876375 1.8876249999999999 -2.1501875 2.65025 -0.5706875 -1.29825 -1.022575 -2.645625 -1.3501125 -4.025375v0.0125Zm1.8376625 4.812875c0.6250500000000001 -0.75 1.500125 -1.662625 2.5002125 -2.67525 0.9425375 0.8294999999999999 1.9272875 1.60975 2.9502875 2.33775l-0.9626250000000001 1.150125c-1.518275 -0.031 -3.02305 -0.292375 -4.462875 -0.775125l-0.025 -0.0375Zm10.713375000000001 0.3125c-1.44725 0.335875 -2.9271249999999998 0.511875 -4.412875 0.525125h-0.5125c0.850125 -0.825125 1.812625 -1.712625 2.80025 -2.6377499999999996l1.037625 -0.975125c1.025 0.850125 1.962625 1.5751249999999999 2.712625 2.10025 -0.075 0.1375 -0.1625 0.275 -0.2375 0.3875 -0.401375 0.31675000000000003 -0.88075 0.51975 -1.387625 0.5874999999999999v0.0125Zm2.0002500000000003 -1.812625c-0.600125 -0.5 -1.250125 -1.150125 -2.07525 -1.8876249999999999 -0.051875000000000004 -0.064375 -0.110625 -0.12312500000000001 -0.17500000000000002 -0.17500000000000002l0.6251249999999999 -0.600125c0.9125 -0.9125 1.7876249999999998 -1.8251249999999999 2.600125 -2.6626250000000002l0.325125 0.2375c-0.125 0.625 -0.250125 1.250125 -0.375125 1.8251249999999999 -0.23175 1.107875 -0.540875 2.198125 -0.925 3.2627499999999996Z" clip-rule="evenodd" stroke-width="1.25"></path>
</svg>